<svg width="32" height="14" viewBox="0 0 32 14" fill="none" xmlns="http://www.w3.org/2000/svg">
<path d="M30.1246 9.98105C31.1625 9.98105 32 10.8004 32 11.8564C32 12.9307 31.1625 13.7682 30.1246 13.7682C29.0504 13.7682 28.1946 12.9307 28.1946 11.8564C28.1946 10.8004 29.0504 9.98105 30.1246 9.98105ZM30.1246 10.9096C29.5784 10.9096 29.1414 11.3284 29.1414 11.8564C29.1414 12.4027 29.5784 12.8214 30.1246 12.8214C30.6344 12.8214 31.0532 12.4027 31.0532 11.8564C31.0532 11.3284 30.6344 10.9096 30.1246 10.9096Z" fill="#D6D1FA"/>
<path d="M21.3432 10.1995C20.2872 10.1995 19.395 9.99926 18.6667 9.5987C17.9384 9.19813 17.3861 8.62156 17.0098 7.86898C16.6335 7.1164 16.4454 6.2121 16.4454 5.15606C16.4454 4.37921 16.5485 3.67518 16.7549 3.04399C16.9491 2.42493 17.2526 1.89085 17.6653 1.44173C18.0658 1.00475 18.5696 0.664873 19.1765 0.422106C19.7834 0.191478 20.4874 0.0761637 21.2886 0.0761637C22.7452 0.0761637 23.8194 0.349277 24.5113 0.895502C25.2032 1.45387 25.5491 2.13968 25.5491 2.95295C25.5491 3.45062 25.452 3.85726 25.2578 4.17285C25.0515 4.48845 24.7844 4.74336 24.4567 4.93757C24.1289 5.13178 23.7709 5.28351 23.3824 5.39276V5.46559C23.9408 5.62339 24.3899 5.87222 24.7298 6.2121C25.0575 6.56411 25.2214 7.03751 25.2214 7.63228C25.2214 8.17851 25.0636 8.63977 24.748 9.01606C24.4324 9.40448 23.9833 9.6958 23.4006 9.89002C22.818 10.0964 22.1322 10.1995 21.3432 10.1995ZM21.3068 8.85219C22.0836 8.85219 22.6784 8.73687 23.0911 8.50625C23.4917 8.28776 23.692 7.94788 23.692 7.48662C23.692 6.9404 23.4431 6.55197 22.9455 6.32134C22.4356 6.10285 21.762 5.99361 20.9244 5.99361H20.4146V4.68267H21.1793C22.114 4.68267 22.8119 4.54914 23.2732 4.2821C23.7345 4.01506 23.9651 3.60235 23.9651 3.04399C23.9651 2.43707 23.7162 2.01223 23.2186 1.76946C22.7088 1.5267 22.0776 1.40531 21.325 1.40531C20.5724 1.40531 19.9594 1.53883 19.486 1.80588C19.0126 2.08506 18.6667 2.50383 18.4482 3.0622C18.2176 3.62056 18.1023 4.31852 18.1023 5.15606C18.1023 5.98147 18.2176 6.66729 18.4482 7.21351C18.6788 7.75974 19.0308 8.16637 19.5042 8.43342C19.9776 8.7126 20.5785 8.85219 21.3068 8.85219Z" fill="#D6D1FA"/>
<path d="M10.4804 10.1995C9.26658 10.1995 8.34407 9.95071 7.71288 9.45304C7.08168 8.9675 6.76609 8.33024 6.76609 7.54125C6.76609 6.91005 6.92995 6.43059 7.25769 6.10285C7.58542 5.78726 8.03454 5.55056 8.60504 5.39276V5.31993C8.25303 5.27138 7.91316 5.16213 7.58542 4.99219C7.24555 4.82226 6.97244 4.57949 6.76609 4.26389C6.5476 3.9483 6.43835 3.54166 6.43835 3.04399C6.43835 2.5099 6.59008 2.01223 6.89354 1.55097C7.197 1.10185 7.66432 0.743773 8.29552 0.476729C8.92671 0.209686 9.72784 0.0761637 10.6989 0.0761637C11.7671 0.0761637 12.6653 0.282515 13.3936 0.695219C14.1098 1.10792 14.6499 1.69056 15.0141 2.44314C15.3661 3.19572 15.5421 4.08789 15.5421 5.11965C15.5421 6.17568 15.3479 7.07999 14.9595 7.83257C14.571 8.59728 14.0005 9.17992 13.248 9.58049C12.4954 9.99319 11.5729 10.1995 10.4804 10.1995ZM10.5168 8.85219C11.2816 8.85219 11.9127 8.7126 12.4104 8.43342C12.9081 8.15423 13.2783 7.73546 13.5211 7.1771C13.7638 6.63087 13.8852 5.94505 13.8852 5.11965C13.8852 4.2821 13.7638 3.58415 13.5211 3.02578C13.2662 2.47956 12.8899 2.07292 12.3922 1.80588C11.8824 1.53883 11.2573 1.40531 10.5168 1.40531C9.76426 1.40531 9.16341 1.5449 8.71429 1.82409C8.25303 2.11541 8.0224 2.55239 8.0224 3.13503C8.0224 3.66911 8.25303 4.0454 8.71429 4.26389C9.17555 4.49452 9.8735 4.60984 10.8082 4.60984H11.5729V5.92078H11.0631C10.2255 5.92078 9.5579 6.01788 9.06023 6.2121C8.55042 6.41845 8.29552 6.81295 8.29552 7.39559C8.29552 7.80829 8.45938 8.15423 8.78712 8.43342C9.11485 8.7126 9.69143 8.85219 10.5168 8.85219Z" fill="#D6D1FA"/>
<path d="M1.93 9.98105C2.96782 9.98105 3.80537 10.8004 3.80537 11.8564C3.80537 12.9307 2.96782 13.7682 1.93 13.7682C0.855751 13.7682 -8.67411e-07 12.9307 -8.67411e-07 11.8564C-8.67411e-07 10.8004 0.855751 9.98105 1.93 9.98105ZM1.93 10.9096C1.38377 10.9096 0.946791 11.3284 0.946791 11.8564C0.946791 12.4027 1.38377 12.8214 1.93 12.8214C2.43981 12.8214 2.85858 12.4027 2.85858 11.8564C2.85858 11.3284 2.43981 10.9096 1.93 10.9096Z" fill="#D6D1FA"/>
</svg>
