<svg width="195" height="24" viewBox="0 0 195 24" fill="none" xmlns="http://www.w3.org/2000/svg">
<g clip-path="url(#clip0_28_10)">
<path d="M43.7117 18.5047C45.2176 18.5047 46.4329 19.6936 46.4329 21.2259C46.4329 22.7847 45.2176 24 43.7117 24C42.1529 24 40.9112 22.7847 40.9112 21.2259C40.9112 19.6936 42.1529 18.5047 43.7117 18.5047ZM43.7117 19.8521C42.9191 19.8521 42.285 20.4598 42.285 21.2259C42.285 22.0185 42.9191 22.6262 43.7117 22.6262C44.4514 22.6262 45.0591 22.0185 45.0591 21.2259C45.0591 20.4598 44.4514 19.8521 43.7117 19.8521Z" fill="#717184"/>
<path d="M30.9696 18.8218C29.4372 18.8218 28.1427 18.5311 27.0859 17.9499C26.0291 17.3687 25.2277 16.5321 24.6817 15.44C24.1357 14.348 23.8627 13.0359 23.8627 11.5035C23.8627 10.3763 24.0124 9.35473 24.3118 8.43885C24.5936 7.54058 25.034 6.76561 25.6328 6.11392C26.214 5.47985 26.945 4.98669 27.8256 4.63442C28.7063 4.29978 29.7278 4.13245 30.8903 4.13245C33.0039 4.13245 34.5626 4.52875 35.5666 5.32134C36.5705 6.13154 37.0725 7.12667 37.0725 8.30675C37.0725 9.02889 36.9316 9.61892 36.6498 10.0769C36.3504 10.5348 35.9629 10.9047 35.4873 11.1865C35.0118 11.4683 34.4922 11.6885 33.9286 11.847V11.9527C34.7388 12.1816 35.3904 12.5427 35.8836 13.0359C36.3592 13.5466 36.5969 14.2336 36.5969 15.0966C36.5969 15.8892 36.368 16.5585 35.91 17.1045C35.4521 17.6681 34.8004 18.0908 33.955 18.3726C33.1096 18.672 32.1144 18.8218 30.9696 18.8218ZM30.9167 16.8667C32.044 16.8667 32.907 16.6994 33.5058 16.3647C34.0871 16.0477 34.3777 15.5545 34.3777 14.8852C34.3777 14.0926 34.0166 13.529 33.2945 13.1944C32.5547 12.8773 31.5772 12.7188 30.3619 12.7188H29.6222V10.8166H30.7318C32.088 10.8166 33.1007 10.6229 33.77 10.2354C34.4393 9.84789 34.774 9.24905 34.774 8.43885C34.774 7.5582 34.4129 6.94174 33.6908 6.58948C32.951 6.23721 32.0352 6.06108 30.9431 6.06108C29.8511 6.06108 28.9617 6.25483 28.2748 6.64231C27.5879 7.04742 27.0859 7.65507 26.7688 8.46527C26.4342 9.27547 26.2669 10.2882 26.2669 11.5035C26.2669 12.7012 26.4342 13.6964 26.7688 14.4889C27.1035 15.2815 27.6143 15.8716 28.3012 16.2591C28.9881 16.6642 29.8599 16.8667 30.9167 16.8667Z" fill="#717184"/>
<path d="M15.2074 18.8218C13.4461 18.8218 12.1075 18.4607 11.1916 17.7386C10.2757 17.034 9.81778 16.1093 9.81778 14.9645C9.81778 14.0486 10.0556 13.3529 10.5311 12.8773C11.0067 12.4194 11.6583 12.0759 12.4862 11.847V11.7413C11.9754 11.6708 11.4822 11.5123 11.0067 11.2657C10.5135 11.0192 10.1172 10.6669 9.81778 10.209C9.50074 9.75102 9.34222 9.16098 9.34222 8.43885C9.34222 7.66387 9.56239 6.94174 10.0027 6.27244C10.443 5.62076 11.1211 5.10117 12.037 4.71368C12.9529 4.3262 14.1154 4.13245 15.5244 4.13245C17.0744 4.13245 18.3777 4.43187 19.4345 5.03072C20.4737 5.62956 21.2575 6.47499 21.7859 7.567C22.2966 8.65901 22.552 9.95357 22.552 11.4507C22.552 12.983 22.2702 14.2952 21.7066 15.3872C21.143 16.4968 20.3152 17.3423 19.2232 17.9235C18.1311 18.5223 16.7926 18.8218 15.2074 18.8218ZM15.2602 16.8667C16.3698 16.8667 17.2857 16.6642 18.0079 16.2591C18.73 15.854 19.2672 15.2463 19.6194 14.4361C19.9717 13.6435 20.1478 12.6484 20.1478 11.4507C20.1478 10.2354 19.9717 9.22263 19.6194 8.41243C19.2496 7.61984 18.7036 7.0298 17.9814 6.64231C17.2417 6.25483 16.3346 6.06108 15.2602 6.06108C14.1682 6.06108 13.2964 6.26363 12.6447 6.66874C11.9754 7.09145 11.6407 7.72552 11.6407 8.57095C11.6407 9.34592 11.9754 9.89193 12.6447 10.209C13.314 10.5436 14.3267 10.7109 15.6829 10.7109H16.7926V12.6131H16.0528C14.8375 12.6131 13.8688 12.7541 13.1466 13.0359C12.4069 13.3353 12.037 13.9077 12.037 14.7531C12.037 15.352 12.2748 15.854 12.7504 16.2591C13.2259 16.6642 14.0625 16.8667 15.2602 16.8667Z" fill="#717184"/>
<path d="M2.80048 18.5047C4.3064 18.5047 5.5217 19.6936 5.5217 21.2259C5.5217 22.7847 4.3064 24 2.80048 24C1.24172 24 0 22.7847 0 21.2259C0 19.6936 1.24172 18.5047 2.80048 18.5047ZM2.80048 19.8521C2.00789 19.8521 1.37382 20.4598 1.37382 21.2259C1.37382 22.0185 2.00789 22.6262 2.80048 22.6262C3.54023 22.6262 4.14788 22.0185 4.14788 21.2259C4.14788 20.4598 3.54023 19.8521 2.80048 19.8521Z" fill="#717184"/>
<path d="M65.158 7.30133C66.1415 7.30133 67.1547 7.56954 67.5719 7.83775L67.1547 10.2815C66.4097 9.92384 65.6647 9.80464 65.1282 9.80464C62.3567 9.80464 61.2541 12.755 61.2541 16.4205V21.5166H58.6315V7.59934H61.2541V10.7583C61.9693 8.31457 63.3104 7.30133 65.158 7.30133Z" fill="#717184"/>
<path d="M80.1495 7.59934H82.7422V21.5166H80.1495V19.3113C79.2257 20.9205 77.1992 21.8146 75.2025 21.8146C71.3879 21.8146 68.229 18.9238 68.229 14.543C68.229 10.1325 71.3581 7.30133 75.1727 7.30133C77.2588 7.30133 79.2257 8.13576 80.1495 9.77483V7.59934ZM75.4111 19.3709C77.9144 19.3709 80.1495 17.4934 80.1495 14.5132C80.1495 11.5033 77.7058 9.74503 75.4111 9.74503C72.878 9.74503 70.8515 11.7119 70.8515 14.5132C70.8515 17.2848 72.878 19.3709 75.4111 19.3709Z" fill="#717184"/>
<path d="M93.2144 21.7848C89.221 21.7848 85.7342 18.9536 85.7342 14.543C85.7342 10.1325 89.221 7.30133 93.2144 7.30133C95.3899 7.30133 97.2971 8.16556 98.519 9.50662L96.8799 11.2053C96.0157 10.3113 94.764 9.74503 93.3038 9.74503C90.562 9.74503 88.3567 11.6821 88.3567 14.543C88.3567 17.404 90.562 19.3411 93.3038 19.3411C94.764 19.3411 96.0157 18.7748 96.8799 17.8808L98.519 19.5795C97.2971 20.9503 95.3899 21.7848 93.2144 21.7848Z" fill="#717184"/>
<path d="M108.408 7.30133C111.865 7.30133 114.041 9.56623 114.011 13.4702V21.5166H111.418V13.6192C111.418 11.2947 109.988 9.86424 108.051 9.86424C106.113 9.86424 103.789 10.9669 103.789 13.9768V21.5166H101.196V0H103.789V9.71523C104.623 8.01656 106.888 7.30133 108.408 7.30133Z" fill="#717184"/>
<path d="M130.854 14.5132C130.854 14.9007 130.825 15.2881 130.795 15.6755H119.47C119.858 18.149 121.646 19.3709 124.03 19.3709C125.729 19.3709 127.308 18.6556 128.083 17.255L130.348 18.149C129.126 20.5629 126.623 21.8146 123.94 21.8146C119.977 21.8146 116.788 18.9238 116.788 14.5132C116.788 10.1026 119.977 7.30133 123.94 7.30133C127.904 7.30133 130.854 10.1026 130.854 14.5132ZM119.5 13.4404H128.262C127.934 11.0563 126.235 9.74503 123.94 9.74503C121.586 9.74503 119.917 10.9371 119.5 13.4404Z" fill="#717184"/>
<path d="M133.763 21.5166V0H136.356V21.5166H133.763Z" fill="#717184"/>
<path d="M140.269 21.5166V0H142.861V21.5166H140.269Z" fill="#717184"/>
<path d="M148.055 4.20199C147.072 4.20199 146.237 3.45695 146.237 2.47351C146.237 1.49007 147.072 0.745034 148.055 0.745034C149.068 0.745034 149.903 1.49007 149.903 2.47351C149.903 3.45695 149.068 4.20199 148.055 4.20199ZM146.774 21.5166V7.59934H149.366V21.5166H146.774Z" fill="#717184"/>
<path d="M164.275 7.59934H166.868V21.5166H164.275V19.3113C163.352 20.9205 161.325 21.8146 159.328 21.8146C155.514 21.8146 152.355 18.9238 152.355 14.543C152.355 10.1325 155.484 7.30133 159.299 7.30133C161.385 7.30133 163.352 8.13576 164.275 9.77483V7.59934ZM159.537 19.3709C162.04 19.3709 164.275 17.4934 164.275 14.5132C164.275 11.5033 161.832 9.74503 159.537 9.74503C157.004 9.74503 154.977 11.7119 154.977 14.5132C154.977 17.2848 157.004 19.3709 159.537 19.3709Z" fill="#717184"/>
<path d="M177.34 21.7848C173.347 21.7848 169.86 18.9536 169.86 14.543C169.86 10.1325 173.347 7.30133 177.34 7.30133C179.516 7.30133 181.423 8.16556 182.645 9.50662L181.006 11.2053C180.142 10.3113 178.89 9.74503 177.43 9.74503C174.688 9.74503 172.483 11.6821 172.483 14.543C172.483 17.404 174.688 19.3411 177.43 19.3411C178.89 19.3411 180.142 18.7748 181.006 17.8808L182.645 19.5795C181.423 20.9503 179.516 21.7848 177.34 21.7848Z" fill="#717184"/>
<path d="M189.405 21.8146C186.902 21.8146 184.339 20.2351 184.219 17.3742H186.633C186.663 18.5662 187.706 19.5497 189.405 19.5497C191.163 19.5497 192.206 18.745 192.206 17.6126C192.206 16.5695 191.402 16.0331 190.299 15.7947L188.392 15.3477C186.067 14.7219 184.726 13.5894 184.726 11.3543C184.726 9.0596 186.693 7.30133 189.494 7.30133C191.849 7.30133 194.292 8.55298 194.292 11.3543H191.789C191.759 10.2815 190.657 9.56623 189.554 9.56623C188.213 9.56623 187.319 10.3709 187.319 11.4437C187.319 12.3974 188.213 12.904 189.107 13.1126L191.163 13.6192C194.054 14.3344 194.799 16.0629 194.799 17.6424C194.799 20.2351 192.296 21.8146 189.405 21.8146Z" fill="#717184"/>
</g>
<defs>
<clipPath id="clip0_28_10">
<rect width="194.799" height="24" fill="white"/>
</clipPath>
</defs>
</svg>
