<?xml version="1.0" standalone="no"?>
<!DOCTYPE svg PUBLIC "-//W3C//DTD SVG 1.1//EN" "http://www.w3.org/Graphics/SVG/1.1/DTD/svg11.dtd" >
<svg xmlns="http://www.w3.org/2000/svg" xmlns:xlink="http://www.w3.org/1999/xlink" version="1.1">
<metadata>
Created by FontForge 20170731 at Thu Oct 12 07:36:34 2023
 By Aleksey,,,
Copyright (c) Olivier Gourvat - Mostardesign Type Foundry, 2016. All rights reserved.
</metadata>
<defs>
<font id="SofiaProLight" horiz-adv-x="1224" >
  <font-face 
    font-family="Sofia Pro Light"
    font-weight="300"
    font-stretch="normal"
    units-per-em="2048"
    panose-1="0 0 5 0 0 0 0 0 0 0"
    ascent="1638"
    descent="-410"
    x-height="956"
    cap-height="1411"
    bbox="-815 -535 2929 2200"
    underline-thickness="102"
    underline-position="-307"
    unicode-range="U+0020-FB04"
  />
<missing-glyph horiz-adv-x="1300" 
d="M164 0v1362h973v-1362h-973zM549 455h127v67q0 49 25.5 82t70.5 45q75 23 124.5 89.5t49.5 164.5q0 123 -85 200t-204 77q-117 0 -197.5 -82t-80.5 -215h127q0 76 43 123t108 47t114.5 -42t49.5 -108q0 -99 -116 -145q-84 -25 -120 -75.5t-36 -150.5v-77zM614 180
q38 0 65.5 25.5t27.5 62.5t-27.5 62.5t-65.5 25.5q-39 0 -66.5 -25t-27.5 -63t27.5 -63t66.5 -25z" />
    <glyph glyph-name="f_f" unicode="ff" horiz-adv-x="1316" 
d="M1270 1370q-232 0 -232 -274v-140h244v-112h-244v-844h-131v844h-540v-844h-131v844h-189v112h189v125q0 93 19 166.5t59 130t107.5 87t158.5 30.5h90v-125h-72q-126 0 -178.5 -73t-52.5 -201v-140h540v125q0 93 19 166.5t59 130t107.5 87t158.5 30.5h90v-125h-71z" />
    <glyph glyph-name="fi" unicode="fi" horiz-adv-x="1118" 
d="M954 956v-956h-131v844h-456v-844h-131v844h-189v112h189v125q0 93 19 166.5t59 130t107.5 87t158.5 30.5h65v-125h-47q-126 0 -178.5 -73t-52.5 -201v-140h587zM889 1403q43 0 72.5 -26.5t29.5 -67.5q0 -39 -29.5 -65.5t-72.5 -26.5q-41 0 -71 26.5t-30 65.5q0 40 30 67
t71 27z" />
    <glyph glyph-name="fl" unicode="fl" horiz-adv-x="1120" 
d="M956 1495v-1495h-131v1370h-227q-126 0 -178.5 -73t-52.5 -201v-140h243v-112h-243v-844h-131v844h-189v112h189v125q0 93 19 166.5t59 130t107.5 87t158.5 30.5h376z" />
    <glyph glyph-name="f_f_i" unicode="ffi" horiz-adv-x="1789" 
d="M1626 956v-956h-131v844h-457v-844h-131v844h-540v-844h-131v844h-189v112h189v125q0 93 19 166.5t59 130t107.5 87t158.5 30.5h90v-125h-72q-126 0 -178.5 -73t-52.5 -201v-140h540v125q0 93 19 166.5t59 130t107.5 87t158.5 30.5h58v-125h-39q-232 0 -232 -274v-140
h588zM1561 1403q43 0 72.5 -26.5t29.5 -67.5q0 -39 -29.5 -65.5t-72.5 -26.5q-41 0 -71 26.5t-30 65.5q0 40 30 67t71 27z" />
    <glyph glyph-name="f_f_l" unicode="ffl" horiz-adv-x="1792" 
d="M1628 1495v-1495h-131v1370h-227q-232 0 -232 -274v-140h244v-112h-244v-844h-131v844h-540v-844h-131v844h-189v112h189v125q0 93 19 166.5t59 130t107.5 87t158.5 30.5h90v-125h-72q-126 0 -178.5 -73t-52.5 -201v-140h540v125q0 93 19 166.5t59 130t107.5 87
t158.5 30.5h377z" />
    <glyph glyph-name=".notdef" horiz-adv-x="1300" 
d="M164 0v1362h973v-1362h-973zM549 455h127v67q0 49 25.5 82t70.5 45q75 23 124.5 89.5t49.5 164.5q0 123 -85 200t-204 77q-117 0 -197.5 -82t-80.5 -215h127q0 76 43 123t108 47t114.5 -42t49.5 -108q0 -99 -116 -145q-84 -25 -120 -75.5t-36 -150.5v-77zM614 180
q38 0 65.5 25.5t27.5 62.5t-27.5 62.5t-65.5 25.5q-39 0 -66.5 -25t-27.5 -63t27.5 -63t66.5 -25z" />
    <glyph glyph-name=".null" horiz-adv-x="0" 
 />
    <glyph glyph-name="nonmarkingreturn" horiz-adv-x="682" 
 />
    <glyph glyph-name="space" unicode=" " horiz-adv-x="536" 
 />
    <glyph glyph-name="exclam" unicode="!" horiz-adv-x="512" 
d="M203 371l-13 1040h132l-11 -1040h-108zM254 -14q-42 0 -72 27.5t-30 68.5t30 69.5t72 28.5q44 0 75 -28.5t31 -69.5t-30.5 -68.5t-75.5 -27.5z" />
    <glyph glyph-name="quotedbl" unicode="&#x22;" horiz-adv-x="659" 
d="M158 858l-8 553h114l-8 -553h-98zM403 858l-8 553h117l-10 -553h-99z" />
    <glyph glyph-name="numbersign" unicode="#" horiz-adv-x="1384" 
d="M217 0l100 358h-249l34 125h248l119 437h-246l33 124h250l100 367h123l-100 -367h315l100 367h123l-100 -367h250l-35 -124h-250l-121 -437h250l-33 -125h-249l-103 -358h-123l101 358h-314l-102 -358h-121zM473 483h315l119 437h-313z" />
    <glyph glyph-name="dollar" unicode="$" horiz-adv-x="1050" 
d="M965 412q0 -67 -27 -131t-76.5 -117t-127.5 -87.5t-173 -39.5v-187h-98v191q-158 21 -259.5 125.5t-107.5 236.5h133q8 -99 91 -172t210 -73q142 0 220.5 74.5t78.5 173.5q0 90 -64.5 147.5t-178.5 85.5l-174 43q-308 72 -308 319q0 140 104.5 235.5t254.5 111.5v182h98
v-180q155 -12 255 -108t104 -241h-134q-4 103 -80 167.5t-192 64.5q-112 0 -193 -66.5t-81 -165.5q0 -154 204 -202l172 -43q163 -39 256 -125t93 -219z" />
    <glyph glyph-name="percent" unicode="%" horiz-adv-x="1243" 
d="M334 854q-110 0 -185 76t-75 186q0 109 75 185.5t185 76.5q109 0 185.5 -76.5t76.5 -185.5q0 -110 -76.5 -186t-185.5 -76zM238 0l655 1348h98l-653 -1348h-100zM334 956q67 0 114.5 46t47.5 114q0 66 -48 113t-114 47q-67 0 -113.5 -47t-46.5 -113q0 -69 46 -114.5
t114 -45.5zM907 -20q-110 0 -185 76t-75 186q0 109 75 185.5t185 76.5q109 0 186.5 -76.5t77.5 -185.5q0 -110 -77.5 -186t-186.5 -76zM907 82q67 0 114.5 46.5t47.5 113.5q0 66 -48 112.5t-114 46.5q-67 0 -112 -46t-45 -113q0 -68 45 -114t112 -46z" />
    <glyph glyph-name="ampersand" unicode="&#x26;" horiz-adv-x="1312" 
d="M1210 102h31v-122h-33q-104 0 -181 49.5t-95 140.5q-50 -93 -154.5 -141.5t-222.5 -48.5q-132 0 -236 60.5t-158.5 160t-54.5 217.5q0 123 66 223.5t180 153.5q-69 44 -110 122.5t-41 165.5q0 140 104 242t260 102q101 0 184.5 -44t133.5 -121l-107 -70q-35 53 -90 80.5
t-121 27.5q-103 0 -170 -64.5t-67 -160.5q0 -98 67 -166.5t185 -68.5h303v176h131v-178h186v-109h-186v-305q0 -55 4 -97t16.5 -86.5t33 -73t57 -47t85.5 -18.5zM559 106q140 0 229.5 86.5t94.5 217.5v319h-297q-163 0 -258 -86.5t-95 -220.5q0 -133 89 -224.5t237 -91.5z
" />
    <glyph glyph-name="quotesingle" unicode="'" horiz-adv-x="413" 
d="M158 858l-8 553h114l-8 -553h-98z" />
    <glyph glyph-name="parenleft" unicode="(" horiz-adv-x="690" 
d="M645 -328q-242 8 -388 253t-146 657q0 414 146 659.5t388 253.5v-111q-184 -8 -296.5 -226.5t-112.5 -575.5t112.5 -575t296.5 -224v-111z" />
    <glyph glyph-name="parenright" unicode=")" horiz-adv-x="690" 
d="M45 -328v111q184 6 297 224t113 575t-113 575.5t-297 226.5v111q242 -8 388.5 -253.5t146.5 -659.5q0 -412 -146.5 -657t-388.5 -253z" />
    <glyph glyph-name="asterisk" unicode="*" horiz-adv-x="942" 
d="M850 1116l-311 -78l192 -256l-72 -53l-188 264l-186 -264l-74 53l192 256l-311 78l25 88l313 -90l-4 328h92l-6 -328l313 90z" />
    <glyph glyph-name="plus" unicode="+" horiz-adv-x="1011" 
d="M918 596v-127h-349v-350h-127v350h-348v127h348v348h127v-348h349z" />
    <glyph glyph-name="comma" unicode="," horiz-adv-x="450" 
d="M94 -348l-90 31q89 126 130 263t28 306h131q12 -174 -41 -333t-158 -267z" />
    <glyph glyph-name="hyphen" unicode="-" horiz-adv-x="978" 
d="M145 408v127h689v-127h-689z" />
    <glyph glyph-name="period" unicode="." horiz-adv-x="475" 
d="M236 -20q-42 0 -72.5 27.5t-30.5 68.5q0 42 30.5 70t72.5 28q45 0 75.5 -28t30.5 -70q0 -41 -30.5 -68.5t-75.5 -27.5z" />
    <glyph glyph-name="slash" unicode="/" horiz-adv-x="944" 
d="M61 0l691 1411h133l-692 -1411h-132z" />
    <glyph glyph-name="zero" unicode="0" horiz-adv-x="1218" 
d="M610 -20q-80 0 -146.5 18.5t-115.5 51.5t-87 82.5t-62.5 107t-40.5 129t-22.5 145t-6.5 158.5q0 121 13 219.5t46.5 188.5t87 151t138.5 97t196 36t195.5 -36t137.5 -96.5t86 -151t45.5 -189t12.5 -219.5t-12.5 -219t-45.5 -188.5t-86 -151.5t-137.5 -97t-195.5 -36z
M610 104q81 0 143 30t100.5 80.5t62.5 125t33 154.5t9 178q0 82 -6.5 150.5t-21.5 134.5t-41.5 115.5t-64 88t-92 58.5t-122.5 20q-82 0 -144 -29.5t-100.5 -79.5t-63 -124.5t-33.5 -154.5t-9 -179q0 -98 9 -178t33.5 -154.5t63 -125t100.5 -80.5t144 -30z" />
    <glyph glyph-name="one" unicode="1" horiz-adv-x="686" 
d="M471 1364h6v-1364h-129v1169l-293 -125v130z" />
    <glyph glyph-name="two" unicode="2" horiz-adv-x="1034" 
d="M326 127h596v-127h-818v55l533 641q137 168 137 285q0 116 -76 187t-198 71q-113 0 -190.5 -56.5t-96.5 -152.5l-117 29q25 141 134.5 223t269.5 82q181 0 293 -105t112 -278q0 -81 -41.5 -172.5t-109.5 -171.5z" />
    <glyph glyph-name="three" unicode="3" horiz-adv-x="1085" 
d="M723 725q110 -31 179 -124t69 -218q0 -180 -131.5 -290.5t-337.5 -110.5q-140 0 -254.5 72t-171.5 196l108 59q46 -94 130 -148.5t184 -54.5q148 0 245 75.5t97 197.5q0 126 -87.5 205.5t-220.5 79.5h-137v114h131q110 0 178 64.5t68 167.5t-73 166t-191 63
q-80 0 -153 -39t-111 -102l-94 73q51 87 149.5 140t210.5 53q177 0 285 -97t108 -255q0 -95 -48.5 -172t-131.5 -115z" />
    <glyph glyph-name="four" unicode="4" horiz-adv-x="1150" 
d="M1069 410v-125h-201v-285h-131v285h-704v30l807 1033h28v-938h201zM250 410h487v624z" />
    <glyph glyph-name="five" unicode="5" horiz-adv-x="1122" 
d="M594 844q189 0 309.5 -115.5t120.5 -304.5q0 -198 -131 -321t-332 -123q-158 0 -280 76.5t-189 205.5l109 60q52 -99 143 -158.5t209 -59.5q148 0 244 88.5t96 229.5q0 136 -91.5 220.5t-230.5 84.5q-165 0 -356 -115l-76 68l119 668h676v-125h-569l-89 -471
q155 92 318 92z" />
    <glyph glyph-name="six" unicode="6" horiz-adv-x="1183" 
d="M621 854q195 0 321.5 -127.5t126.5 -306.5q0 -82 -29.5 -159t-85.5 -140.5t-146.5 -102t-201.5 -38.5q-234 0 -356.5 152t-122.5 443q0 69 5 135.5t20 147t38.5 150t64.5 136.5t94 114.5t130.5 76.5t171.5 29q288 0 400 -256l-119 -49q-81 180 -283 180
q-78 0 -143.5 -33.5t-109.5 -89.5t-73.5 -130t-42 -154t-10.5 -162q48 82 143.5 133t207.5 51zM598 106q149 0 242.5 92t93.5 224q0 129 -90 217.5t-228 89.5q-48 0 -95 -10.5t-91.5 -33.5t-79 -55t-56.5 -79t-24 -102q0 -159 94.5 -250t233.5 -93z" />
    <glyph glyph-name="seven" unicode="7" horiz-adv-x="1007" 
d="M98 1348h885v-15l-733 -1333h-154l672 1223h-670v125z" />
    <glyph glyph-name="eight" unicode="8" horiz-adv-x="1187" 
d="M805 782q125 -44 200.5 -148.5t75.5 -234.5q0 -181 -138 -300t-349 -119q-212 0 -350 118.5t-138 298.5q0 132 75 236.5t202 148.5q-73 39 -114.5 106t-41.5 154q0 138 103 230t264 92t265 -92t104 -230q0 -87 -42 -154t-116 -106zM594 1241q-98 0 -165 -60.5t-67 -148.5
q0 -87 65.5 -146.5t166.5 -60.5q100 2 166.5 60.5t66.5 146.5t-67.5 148.5t-165.5 60.5zM594 104q151 0 250.5 87.5t99.5 214.5q0 130 -101.5 219.5t-248.5 89.5q-150 -3 -250 -90.5t-100 -216.5t100.5 -216.5t249.5 -87.5z" />
    <glyph glyph-name="nine" unicode="9" horiz-adv-x="1183" 
d="M580 1364q228 0 353.5 -160.5t125.5 -433.5q0 -69 -5 -136t-20.5 -147.5t-39.5 -150t-65 -136.5t-94.5 -114.5t-131 -76.5t-171.5 -29q-285 0 -397 256l119 49q82 -181 281 -181q78 0 143 33t109 89t74 129t43 153t11 162q-49 -83 -145 -132t-205 -49q-130 0 -234 60
t-160 159.5t-56 217.5q0 81 29.5 157.5t85.5 140t147 102t203 38.5zM567 614q60 0 119 17.5t109.5 51t83 89t34.5 123.5q0 159 -94 250.5t-233 93.5q-148 0 -242 -92.5t-94 -224.5q0 -128 89.5 -216.5t227.5 -91.5z" />
    <glyph glyph-name="colon" unicode=":" horiz-adv-x="497" 
d="M250 782q-43 0 -74 28t-31 69q0 42 31 70t74 28q42 0 72 -28t30 -70q0 -41 -30 -69t-72 -28zM250 -20q-43 0 -74 27.5t-31 68.5q0 42 31 70t74 28q42 0 72 -28t30 -70q0 -41 -30 -68.5t-72 -27.5z" />
    <glyph glyph-name="semicolon" unicode=";" horiz-adv-x="518" 
d="M264 977q43 0 74 -28t31 -70q0 -41 -31 -69t-74 -28q-42 0 -72 28t-30 69q0 42 30 70t72 28zM145 -348l-90 31q89 126 130 263t28 306h131q12 -174 -41 -333t-158 -267z" />
    <glyph glyph-name="less" unicode="&#x3c;" horiz-adv-x="1245" 
d="M1116 1001v-141l-864 -323l864 -326v-137l-1040 395v133z" />
    <glyph glyph-name="equal" unicode="=" horiz-adv-x="1236" 
d="M154 651v127h929v-127h-929zM154 238v127h929v-127h-929z" />
    <glyph glyph-name="greater" unicode="&#x3e;" horiz-adv-x="1243" 
d="M129 1001l1038 -399v-133l-1038 -397v139l862 326l-862 323v141z" />
    <glyph glyph-name="question" unicode="?" horiz-adv-x="956" 
d="M287 371v100q-3 120 44 183.5t140 99.5l84 28q85 30 141 96t56 158q0 121 -78.5 194t-192.5 73q-109 0 -189 -71t-89 -192h-127q7 173 125 280t280 107q167 0 283.5 -108t116.5 -283q0 -139 -82 -239.5t-207 -137.5q-45 -14 -71.5 -25.5t-53.5 -32.5t-39 -53t-12 -77
l-2 -100h-127zM350 -14q-43 0 -73.5 27.5t-30.5 68.5q0 42 30.5 70t73.5 28t74 -28t31 -70q0 -41 -31 -68.5t-74 -27.5z" />
    <glyph glyph-name="at" unicode="@" horiz-adv-x="2039" 
d="M991 -391q-185 0 -350.5 70.5t-284 191.5t-187.5 288t-69 353q0 185 69.5 352.5t188 290t284.5 194.5t351 72q149 0 290 -42t257.5 -121t204 -185t136 -241t48.5 -283q0 -76 -12 -152.5t-40.5 -155t-70.5 -138t-108.5 -97t-147.5 -37.5q-57 0 -104.5 14t-88.5 44.5
t-64 87t-23 133.5v274q0 125 -86.5 211t-210.5 86t-210.5 -86t-86.5 -211q0 -122 87 -208.5t210 -86.5q109 0 201 82v-127q-92 -63 -201 -63q-167 0 -286.5 118.5t-119.5 284.5q0 170 119 289t287 119q164 0 283 -116t122 -282v-292q0 -90 49 -127t123 -37q61 0 109 31.5
t77 80.5t48.5 113.5t27 125.5t7.5 122q0 162 -67 305t-179.5 243t-263.5 158t-316 58q-217 0 -397.5 -108t-283.5 -292t-103 -401q0 -218 103 -400.5t283 -288.5t396 -106h58v-108h-58z" />
    <glyph glyph-name="A" unicode="A" horiz-adv-x="1247" 
d="M1092 0l-142 375h-651l-141 -375h-144l539 1411h143l537 -1411h-141zM346 496h557l-278 735z" />
    <glyph glyph-name="B" unicode="B" horiz-adv-x="1286" 
d="M909 752q86 -22 147 -82t88 -132t27 -149q0 -102 -46.5 -189.5t-139.5 -143.5t-213 -56h-563v1411h512q172 0 273.5 -92.5t101.5 -255.5q0 -103 -47 -188t-140 -123zM719 1284h-375v-479h401q101 0 158.5 70t57.5 178q0 107 -65 169t-177 62zM750 127q131 0 208.5 79
t77.5 193q0 119 -80 203t-213 84h-399v-559h406z" />
    <glyph glyph-name="C" unicode="C" horiz-adv-x="1388" 
d="M815 -20q-145 0 -276.5 57t-226.5 154t-150.5 230.5t-55.5 280.5t55.5 281t150 230.5t226.5 154t277 57.5q147 0 276.5 -56.5t223.5 -156.5l-96 -86q-76 81 -181.5 126.5t-222.5 45.5q-158 0 -290 -80t-207.5 -217t-75.5 -299t75.5 -299t207.5 -217t290 -80q116 0 221 46
t183 127l96 -86q-94 -100 -223.5 -156.5t-276.5 -56.5z" />
    <glyph glyph-name="D" unicode="D" horiz-adv-x="1486" 
d="M209 0v1411h534q195 0 339.5 -94t218 -253.5t73.5 -361.5q0 -150 -43 -278t-122.5 -222.5t-199.5 -148t-266 -53.5h-534zM344 127h399q157 0 270.5 76.5t169.5 205t56 293.5q0 166 -56 296.5t-169.5 208t-270.5 77.5h-399v-1157z" />
    <glyph glyph-name="E" unicode="E" horiz-adv-x="1142" 
d="M342 127h694v-127h-827v1411h805v-127h-672v-528h586v-127h-586v-502z" />
    <glyph glyph-name="F" unicode="F" horiz-adv-x="1062" 
d="M1004 1284h-660v-528h522v-127h-522v-629h-135v1411h795v-127z" />
    <glyph glyph-name="G" unicode="G" horiz-adv-x="1548" 
d="M821 -20q-148 0 -280 57t-226.5 154t-150 230.5t-55.5 280.5q0 148 55.5 282t150 231t226.5 154.5t280 57.5q126 0 242 -43t207 -120l-90 -93q-159 129 -359 129q-120 0 -227.5 -47.5t-184 -128t-121 -191t-44.5 -231.5t44.5 -231t121 -190t184 -127.5t227.5 -47.5
q204 0 343.5 112.5t166.5 313.5l2 31h-424v121h572q-2 -175 -51.5 -310.5t-137.5 -221t-207 -129t-264 -43.5z" />
    <glyph glyph-name="H" unicode="H" horiz-adv-x="1464" 
d="M1120 1411h135v-1411h-135v641h-776v-641h-135v1411h135v-649h776v649z" />
    <glyph glyph-name="I" unicode="I" horiz-adv-x="550" 
d="M209 0v1411h135v-1411h-135z" />
    <glyph glyph-name="J" unicode="J" horiz-adv-x="567" 
d="M-61 -477q-31 0 -127 14l14 129q47 -12 113 -12q76 0 132.5 24.5t89.5 69t48.5 100t15.5 123.5v1440h135v-1440q0 -95 -23 -173.5t-71.5 -141.5t-132 -98t-194.5 -35z" />
    <glyph glyph-name="K" unicode="K" horiz-adv-x="1120" 
d="M1141 0h-183l-616 621v-621h-133v1411h133v-663l528 663h168l-577 -723z" />
    <glyph glyph-name="L" unicode="L" horiz-adv-x="991" 
d="M209 0v1411h135v-1284h600v-127h-735z" />
    <glyph glyph-name="M" unicode="M" horiz-adv-x="1939" 
d="M1815 0h-134l-145 1169l-502 -1024h-125l-506 1029l-145 -1174h-131l174 1411h127l543 -1120l542 1120h125z" />
    <glyph glyph-name="N" unicode="N" horiz-adv-x="1413" 
d="M1071 1411h135v-1411h-139l-723 1176v-1176h-135v1411h141l721 -1173v1173z" />
    <glyph glyph-name="O" unicode="O" horiz-adv-x="1640" 
d="M819 -20q-148 0 -280.5 57t-227 154t-150 230.5t-55.5 280.5q0 198 94 364.5t258 263.5t361 97t361 -97t258 -263.5t94 -364.5q0 -147 -55.5 -280.5t-150 -230.5t-227 -154t-280.5 -57zM819 106q160 0 293 80t209 217t76 299t-76 299.5t-209 218t-293 80.5
q-120 0 -227.5 -47.5t-184 -128t-121 -191t-44.5 -231.5t44.5 -231t121 -190t184 -127.5t227.5 -47.5z" />
    <glyph glyph-name="P" unicode="P" horiz-adv-x="1243" 
d="M764 1411q104 0 184 -36t126.5 -98t69.5 -136.5t23 -159.5t-23 -160t-70 -136.5t-128 -97.5t-188 -36h-414v-551h-135v1411h555zM752 678q73 0 129 25.5t88 69t47.5 96t15.5 112.5q0 59 -15 111.5t-46 96.5t-85 69.5t-124 25.5h-418v-606h408z" />
    <glyph glyph-name="Q" unicode="Q" horiz-adv-x="1640" 
d="M1532 702q0 -197 -95 -363t-257 -261l157 -250l-106 -64l-162 261q-121 -45 -250 -45q-148 0 -280.5 57t-227 154t-150 230.5t-55.5 280.5q0 198 94 364.5t258 263.5t361 97t361 -97t258 -263.5t94 -364.5zM819 106q89 0 178 29l-159 256l104 66l170 -271
q131 79 208 216.5t77 299.5t-76 299.5t-209 218t-293 80.5q-120 0 -227.5 -47.5t-184 -128t-121 -191t-44.5 -231.5t44.5 -231t121 -190t184 -127.5t227.5 -47.5z" />
    <glyph glyph-name="R" unicode="R" horiz-adv-x="1257" 
d="M1141 981q0 -66 -13.5 -126.5t-44.5 -115.5t-76.5 -95t-114 -64.5t-153.5 -26.5l391 -553h-163l-387 553h-236v-553h-135v1411h524q86 0 155.5 -24t116 -64.5t77.5 -96.5t45 -117t14 -128zM344 1284v-606h356q157 0 231.5 83.5t74.5 219.5q0 132 -70.5 217.5t-200.5 85.5
h-391z" />
    <glyph glyph-name="S" unicode="S" horiz-adv-x="1159" 
d="M586 -20q-100 0 -188 33.5t-148.5 89t-96.5 127.5t-40 149h133q11 -111 104 -192t236 -81q158 0 248 84t90 193q0 192 -277 262l-190 45q-334 80 -334 352q0 113 63.5 202t165.5 136t219 47q184 0 308.5 -105t130.5 -278h-136q-6 116 -92 186t-215 70q-125 0 -217 -72
t-92 -186q0 -31 7 -57.5t28.5 -61t71.5 -63t124 -45.5l191 -45q176 -44 277.5 -139t101.5 -242q0 -60 -19 -118.5t-58.5 -111t-95 -92.5t-133 -63.5t-167.5 -23.5z" />
    <glyph glyph-name="T" unicode="T" horiz-adv-x="1120" 
d="M1077 1411v-127h-450v-1284h-135v1284h-449v127h1034z" />
    <glyph glyph-name="U" unicode="U" horiz-adv-x="1388" 
d="M694 -20q-102 0 -193.5 34.5t-160.5 96.5t-109.5 156.5t-40.5 207.5v936h136v-936q0 -171 105.5 -268.5t262.5 -97.5q102 0 184.5 41.5t133.5 126t51 198.5v936h135v-936q0 -113 -40.5 -207.5t-109.5 -156.5t-160.5 -96.5t-193.5 -34.5z" />
    <glyph glyph-name="V" unicode="V" horiz-adv-x="1114" 
d="M911 1411h140l-422 -1411h-142l-428 1411h142l356 -1198z" />
    <glyph glyph-name="W" unicode="W" horiz-adv-x="1853" 
d="M1669 1411h143l-477 -1411h-127l-282 979l-281 -979h-127l-477 1411h143l396 -1200l288 995h117l289 -1001z" />
    <glyph glyph-name="X" unicode="X" horiz-adv-x="1204" 
d="M1186 0h-162l-422 649l-422 -649h-160l502 760l-438 651h162l356 -543l356 543h162l-438 -651z" />
    <glyph glyph-name="Y" unicode="Y" horiz-adv-x="1232" 
d="M1059 1411h162l-539 -749v-662h-135v662l-531 749h160l440 -618z" />
    <glyph glyph-name="Z" unicode="Z" horiz-adv-x="1122" 
d="M1034 1411v-111l-778 -1173h778v-127h-952v109l778 1175h-762v127h936z" />
    <glyph glyph-name="bracketleft" unicode="[" horiz-adv-x="604" 
d="M543 1378h-221v-1589h221v-117h-350v1823h350v-117z" />
    <glyph glyph-name="backslash" unicode="\" horiz-adv-x="944" 
d="M752 0l-693 1411h134l690 -1411h-131z" />
    <glyph glyph-name="bracketright" unicode="]" horiz-adv-x="604" 
d="M61 1495h351v-1823h-351v117h222v1589h-222v117z" />
    <glyph glyph-name="asciicircum" unicode="^" horiz-adv-x="964" 
d="M874 608h-131l-260 649l-260 -649h-133l332 803h123z" />
    <glyph glyph-name="underscore" unicode="_" horiz-adv-x="1333" 
d="M117 -178v121h1100v-121h-1100z" />
    <glyph glyph-name="grave" unicode="`" horiz-adv-x="966" 
d="M477 1120l-227 314h160l194 -314h-127z" />
    <glyph glyph-name="a" unicode="a" horiz-adv-x="1259" 
d="M965 956h131v-956h-131v186q-53 -97 -156 -151.5t-225 -54.5q-132 0 -243 63.5t-177 178.5t-66 257q0 215 141 356.5t345 141.5q123 0 225 -54.5t156 -150.5v184zM594 104q153 0 262 104.5t109 266.5q0 111 -53.5 199t-137.5 133t-180 45q-152 0 -258.5 -107t-106.5 -264
q0 -159 106.5 -268t258.5 -109z" />
    <glyph glyph-name="b" unicode="b" horiz-adv-x="1259" 
d="M676 977q99 0 188.5 -37.5t154.5 -102t103.5 -158t38.5 -200.5q0 -142 -65 -257t-176 -178.5t-244 -63.5q-122 0 -225.5 55.5t-155.5 152.5v-188h-131v1495h131v-725q53 97 155.5 152t225.5 55zM666 104q153 0 259.5 109t106.5 268q0 157 -106.5 264t-259.5 107
q-96 0 -180 -45t-137.5 -133t-53.5 -199q0 -162 109 -266.5t262 -104.5z" />
    <glyph glyph-name="c" unicode="c" horiz-adv-x="1026" 
d="M604 -18q-137 0 -251.5 60t-184.5 175t-70 262t70 262t184.5 175.5t251.5 60.5q203 0 344 -131l-82 -90q-107 96 -258 96q-160 0 -269.5 -104t-109.5 -269q0 -164 109.5 -268.5t269.5 -104.5q152 0 258 95l82 -88q-137 -131 -344 -131z" />
    <glyph glyph-name="d" unicode="d" horiz-adv-x="1259" 
d="M965 1495h131v-1495h-131v186q-53 -97 -156 -151.5t-225 -54.5q-132 0 -243 63.5t-177 178.5t-66 257q0 215 141 356.5t345 141.5q123 0 225 -54.5t156 -150.5v723zM594 104q153 0 262 104.5t109 266.5q0 111 -53.5 199t-137.5 133t-180 45q-152 0 -258.5 -107
t-106.5 -264q0 -159 106.5 -268t258.5 -109z" />
    <glyph glyph-name="e" unicode="e" horiz-adv-x="1148" 
d="M1057 481q0 -39 -2 -57h-824q17 -151 114.5 -235.5t244.5 -84.5q99 0 181.5 43t129.5 121l113 -49q-62 -114 -176.5 -176.5t-251.5 -62.5q-135 0 -245.5 61t-176.5 176.5t-66 263.5t66 262t176.5 174t245.5 60q207 0 339 -136t132 -360zM233 537h695q-13 147 -106.5 231
t-235.5 84q-144 0 -239.5 -82t-113.5 -233z" />
    <glyph glyph-name="f" unicode="f" horiz-adv-x="645" 
d="M598 1370q-126 0 -178.5 -73t-52.5 -201v-140h243v-112h-243v-844h-131v844h-189v112h189v125q0 93 19 166.5t59 130t107.5 87t158.5 30.5h90v-125h-72z" />
    <glyph glyph-name="g" unicode="g" horiz-adv-x="1259" 
d="M965 956h131v-815q0 -170 -36.5 -291.5t-106.5 -192t-162 -102.5t-213 -32q-125 0 -235 59.5t-179 173.5l110 62q51 -82 133 -126t171 -44q91 0 159.5 24.5t121 80t79.5 151.5t27 231v49q-53 -96 -156 -150t-225 -54q-132 0 -243 63.5t-177 178.5t-66 257
q0 215 141 356.5t345 141.5q123 0 225 -54.5t156 -150.5v184zM594 104q153 0 262 104.5t109 266.5q0 111 -53.5 199t-137.5 133t-180 45q-152 0 -258.5 -107t-106.5 -264q0 -159 106.5 -268t258.5 -109z" />
    <glyph glyph-name="h" unicode="h" horiz-adv-x="1165" 
d="M627 977q176 0 282.5 -112.5t106.5 -307.5v-557h-131v551q0 135 -76.5 216t-194.5 81q-60 0 -114.5 -18t-101 -54t-74.5 -99.5t-29 -146.5v-530h-131v1495h131v-711q40 95 135.5 144t196.5 49z" />
    <glyph glyph-name="i" unicode="i" horiz-adv-x="458" 
d="M229 1217q-41 0 -70.5 26.5t-29.5 65.5q0 40 29.5 67t70.5 27q43 0 73 -26.5t30 -67.5q0 -39 -30 -65.5t-73 -26.5zM164 0v956h131v-956h-131z" />
    <glyph glyph-name="j" unicode="j" horiz-adv-x="475" 
d="M246 1217q-41 0 -71 26.5t-30 65.5q0 40 30 67t71 27q43 0 72.5 -26.5t29.5 -67.5q0 -39 -29.5 -65.5t-72.5 -26.5zM-123 -465v125h92q215 0 211 283v1013h131v-1013q0 -408 -331 -408h-103z" />
    <glyph glyph-name="k" unicode="k" horiz-adv-x="942" 
d="M956 0h-178l-483 492v-492h-131v1495h131v-905l358 366h183l-410 -415z" />
    <glyph glyph-name="l" unicode="l" horiz-adv-x="458" 
d="M164 0v1495h131v-1495h-131z" />
    <glyph glyph-name="m" unicode="m" horiz-adv-x="1841" 
d="M1311 977q175 0 277 -111.5t102 -308.5v-557h-131v551q0 137 -74.5 218t-194.5 81q-139 2 -223 -95.5t-74 -267.5l-2 9v-496h-129v551q0 137 -73 218t-189 81q-127 0 -214.5 -79.5t-90.5 -240.5v-530h-131v956h131v-172q35 92 126 142.5t202 50.5q118 0 207 -60t128 -169
q25 68 67 115.5t93 71t97.5 33t95.5 9.5z" />
    <glyph glyph-name="n" unicode="n" horiz-adv-x="1165" 
d="M627 977q176 0 282.5 -112.5t106.5 -307.5v-557h-131v551q0 135 -76.5 216t-194.5 81q-60 0 -114.5 -18t-101 -54t-74.5 -99.5t-29 -146.5v-530h-131v956h131v-172q40 95 135.5 144t196.5 49z" />
    <glyph glyph-name="o" unicode="o" horiz-adv-x="1196" 
d="M598 -20q-136 0 -249.5 61t-182 177t-68.5 263t68.5 261.5t181.5 174.5t250 60t250.5 -60t182.5 -174.5t69 -261.5t-69 -263t-183 -177t-250 -61zM598 104q155 0 263 105.5t108 271.5q0 165 -108 268t-263 103q-156 0 -262.5 -103t-106.5 -268q0 -167 106.5 -272
t262.5 -105z" />
    <glyph glyph-name="p" unicode="p" horiz-adv-x="1259" 
d="M676 977q99 0 188.5 -37.5t154.5 -103t103.5 -159t38.5 -200.5q0 -215 -140.5 -356t-344.5 -141q-123 0 -225.5 54.5t-155.5 151.5v-651h-131v1421h131v-188q52 97 155.5 153t225.5 56zM666 104q153 0 259.5 107t106.5 264q0 159 -106.5 268t-259.5 109t-262 -104.5
t-109 -266.5q0 -111 53.5 -199t137.5 -133t180 -45z" />
    <glyph glyph-name="q" unicode="q" horiz-adv-x="1259" 
d="M965 956h131v-1421h-131v649q-53 -96 -155.5 -150t-225.5 -54q-204 0 -345 141t-141 356t142 357.5t344 142.5q122 0 225 -55t156 -152v186zM594 104q96 0 180 45t137.5 133t53.5 199q0 162 -109 266.5t-262 104.5q-152 0 -258.5 -109t-106.5 -268q0 -157 106.5 -264
t258.5 -107z" />
    <glyph glyph-name="r" unicode="r" horiz-adv-x="765" 
d="M596 977q92 0 152 -29l-25 -125q-66 27 -129 27q-66 0 -118 -28.5t-85 -75.5t-54.5 -112t-30.5 -132.5t-9 -141.5v-360h-133v956h133v-233q36 123 112 188.5t187 65.5z" />
    <glyph glyph-name="s" unicode="s" horiz-adv-x="878" 
d="M434 -20q-85 0 -160 30.5t-127.5 95.5t-60.5 152h121q12 -66 71 -114t156 -48q101 0 161 45.5t60 118.5q0 115 -151 154l-137 32q-113 28 -178.5 89.5t-65.5 173.5q0 117 89 192.5t226 75.5q82 0 151 -28.5t114.5 -88.5t48.5 -143h-127q-4 63 -58 103t-127 40
q-83 0 -134.5 -42.5t-51.5 -110.5q0 -112 147 -146l142 -35q89 -21 145 -65t77 -93.5t21 -109.5q0 -125 -100 -201.5t-252 -76.5z" />
    <glyph glyph-name="t" unicode="t" horiz-adv-x="616" 
d="M578 956v-112h-220v-844h-129v844h-174v112h174v381h129v-381h220z" />
    <glyph glyph-name="u" unicode="u" horiz-adv-x="1165" 
d="M870 956h131v-956h-131v168q-27 -64 -85 -108t-120 -62t-126 -18q-176 0 -282 112t-105 307v557h131v-550q0 -136 75.5 -216.5t194.5 -80.5q47 0 91 10.5t85.5 35t72 60t49 90t19.5 121.5v530z" />
    <glyph glyph-name="v" unicode="v" horiz-adv-x="1024" 
d="M842 956h141l-405 -956h-136l-399 956h139l328 -796z" />
    <glyph glyph-name="w" unicode="w" horiz-adv-x="1615" 
d="M1434 956h139l-356 -956h-115l-297 782l-285 -782h-114l-367 956h141l281 -759l278 759h135l281 -757z" />
    <glyph glyph-name="x" unicode="x" horiz-adv-x="964" 
d="M940 0h-158l-299 418l-303 -418h-155l381 526l-312 430h160l229 -321l228 321h159l-309 -428z" />
    <glyph glyph-name="y" unicode="y" horiz-adv-x="1019" 
d="M842 956h141l-600 -1421h-139l196 477l-395 944h141l326 -782z" />
    <glyph glyph-name="z" unicode="z" horiz-adv-x="991" 
d="M899 956v-104l-629 -727h629v-125h-815v102l623 729h-605v125h797z" />
    <glyph glyph-name="braceleft" unicode="{" horiz-adv-x="735" 
d="M330 786q0 -66 -37.5 -126t-104.5 -76q67 -11 104.5 -73t37.5 -130v-322q0 -122 78 -199t217 -77h63v-111h-92q-165 0 -278.5 106.5t-112.5 280.5v330q0 51 -38 92t-93 47v111q55 6 93 47t38 92v330q-1 174 112.5 280.5t278.5 106.5h92v-111h-63q-139 0 -217 -77
t-78 -199v-322z" />
    <glyph glyph-name="bar" unicode="|" horiz-adv-x="483" 
d="M193 -252v1882h98v-1882h-98z" />
    <glyph glyph-name="braceright" unicode="}" horiz-adv-x="735" 
d="M530 778q0 -51 38.5 -92t93.5 -47v-111q-55 -6 -93.5 -47t-38.5 -92v-330q1 -174 -112.5 -280.5t-278.5 -106.5h-94v111h64q141 0 218.5 77t75.5 199v322q0 67 38.5 129.5t105.5 73.5q-68 16 -106 76t-38 126v322q2 122 -75.5 199t-218.5 77h-64v111h94
q165 0 278.5 -106.5t112.5 -280.5v-330z" />
    <glyph glyph-name="asciitilde" unicode="~" horiz-adv-x="1398" 
d="M1249 602q-52 -60 -132 -101.5t-165 -41.5q-42 0 -84 8.5t-65 17t-62.5 26t-50.5 21.5q-10 4 -46.5 20.5t-58 24.5t-59.5 16.5t-75 8.5q-61 0 -127 -33t-115 -82l-55 82q53 58 133.5 100t165.5 42q42 0 84 -9t64 -17t62.5 -26l49.5 -22q10 -4 46.5 -20.5t58 -24.5
t59.5 -16.5t75 -8.5q60 0 126.5 34t115.5 81z" />
    <glyph glyph-name="exclamdown" unicode="&#xa1;" horiz-adv-x="475" 
d="M238 977q43 0 73.5 -27.5t30.5 -68.5q0 -42 -30.5 -70.5t-73.5 -28.5t-74 28.5t-31 70.5q0 41 31 68.5t74 27.5zM184 578h109l10 -1043h-131z" />
    <glyph glyph-name="cent" unicode="&#xa2;" horiz-adv-x="1044" 
d="M868 201l82 -88q-125 -119 -313 -131v-224h-98v228q-188 23 -313.5 156.5t-125.5 336.5t125.5 337t313.5 157v211h98v-207q184 -12 313 -131l-82 -90q-107 96 -258 96q-160 0 -269.5 -104t-109.5 -269q0 -164 109.5 -268.5t269.5 -104.5q152 0 258 95z" />
    <glyph glyph-name="sterling" unicode="&#xa3;" horiz-adv-x="1261" 
d="M1040 301h129v-94q0 -91 -46.5 -149t-127.5 -58h-909v125h197v383h-164v94h164v342q0 99 34 179.5t91.5 131t131 78t154.5 27.5q162 0 274.5 -106t118.5 -281h-131q-6 119 -80.5 192.5t-193.5 73.5q-109 0 -188.5 -80.5t-79.5 -214.5v-342h284v-94h-284v-383h553
q34 0 53.5 21.5t19.5 56.5v98z" />
    <glyph glyph-name="currency" unicode="&#xa4;" horiz-adv-x="1208" 
d="M141 1083l82 82l152 -151q98 73 225 73q131 0 231 -75l154 153l82 -82l-154 -153q78 -107 78 -234q0 -121 -76 -223l152 -154l-82 -81l-151 153q-106 -80 -234 -80q-124 0 -229 76l-148 -147l-82 82l148 147q-76 105 -76 229q0 131 80 234zM602 436q108 0 186 78t78 186
q0 107 -78.5 185t-185.5 78t-185.5 -78t-78.5 -185q0 -109 77 -186.5t187 -77.5z" />
    <glyph glyph-name="yen" unicode="&#xa5;" horiz-adv-x="1325" 
d="M592 0v272h-356v101h356v194h-356v101h352l-527 743h160l441 -616l442 616h162l-533 -743h354v-101h-358v-194h358v-101h-358v-272h-137z" />
    <glyph glyph-name="brokenbar" unicode="&#xa6;" horiz-adv-x="493" 
d="M199 860v770h98v-770h-98zM199 -252v766h98v-766h-98z" />
    <glyph glyph-name="section" unicode="&#xa7;" horiz-adv-x="1024" 
d="M524 328q-165 0 -279 106.5t-114 280.5v311q0 174 114 281.5t279 107.5q123 0 223.5 -65.5t145.5 -178.5l-119 -38q-33 73 -100.5 114t-149.5 41q-112 0 -189 -72.5t-77 -189.5v-311q0 -118 77 -190t189 -72q65 0 123 22v-129q-59 -18 -123 -18zM500 -250
q-123 0 -223.5 65t-145.5 179l119 39q34 -73 101 -115.5t149 -42.5q112 0 189 73t77 191v310q0 118 -77 190t-189 72q-60 0 -121 -23v131q70 19 121 19q165 0 279 -107t114 -282v-310q0 -174 -114 -281.5t-279 -107.5z" />
    <glyph glyph-name="dieresis" unicode="&#xa8;" horiz-adv-x="1036" 
d="M344 1190q-40 0 -69 26.5t-29 65.5q0 41 28.5 67.5t69.5 26.5q42 0 71 -26.5t29 -67.5q0 -39 -29 -65.5t-71 -26.5zM690 1190q-40 0 -69 26.5t-29 65.5q0 41 28.5 67.5t69.5 26.5q42 0 71.5 -26.5t29.5 -67.5q0 -39 -29.5 -65.5t-71.5 -26.5z" />
    <glyph glyph-name="copyright" unicode="&#xa9;" horiz-adv-x="1644" 
d="M821 -20q-147 0 -279.5 57t-228 154t-151.5 230.5t-56 280.5t56 281t151.5 231.5t228 155t279.5 57.5t280 -57.5t228.5 -155t152 -231.5t56.5 -281q0 -196 -95.5 -362.5t-260.5 -263t-361 -96.5zM821 78q169 0 311.5 83.5t225 227.5t82.5 313t-82.5 313.5t-225 229
t-311.5 84.5t-311.5 -84.5t-224.5 -228.5t-82 -314q0 -127 48.5 -242.5t131 -199t197 -133t241.5 -49.5zM829 330q-151 0 -254.5 107t-103.5 259q0 153 103.5 260t254.5 107q143 0 258 -115l-71 -74q-84 84 -187 84q-107 0 -180.5 -76.5t-73.5 -185.5q0 -108 74 -185
t180 -77q98 0 189 88l69 -80q-115 -112 -258 -112z" />
    <glyph glyph-name="ordfeminine" unicode="&#xaa;" horiz-adv-x="1116" 
d="M829 1489h119v-764h-119v149q-42 -78 -125 -121.5t-178 -43.5q-161 0 -274 113.5t-113 285.5t113 285.5t274 113.5q96 0 178.5 -44t124.5 -122v148zM541 821q119 0 202.5 80.5t83.5 202.5q0 127 -84 208t-202 81q-117 0 -199 -82.5t-82 -202.5t82.5 -203.5t198.5 -83.5z
M172 473v107h762v-107h-762z" />
    <glyph glyph-name="guillemotleft" unicode="&#xab;" horiz-adv-x="915" 
d="M381 53l-283 424l283 424h129l-283 -424l283 -424h-129zM684 53l-283 424l283 424h129l-283 -424l285 -424h-131z" />
    <glyph glyph-name="logicalnot" unicode="&#xac;" horiz-adv-x="1310" 
d="M158 711h993v-455h-127v328h-866v127z" />
    <glyph glyph-name="uni00AD" unicode="&#xad;" horiz-adv-x="978" 
d="M145 408v127h689v-127h-689z" />
    <glyph glyph-name="registered" unicode="&#xae;" horiz-adv-x="1644" 
d="M821 1427q147 0 280 -57.5t228.5 -155t152 -231.5t56.5 -281q0 -196 -95.5 -362.5t-260.5 -263t-361 -96.5q-147 0 -279.5 57t-228 154t-151.5 230.5t-56 280.5t56 281t151.5 231.5t228 155t279.5 57.5zM821 78q169 0 311.5 83.5t225 227.5t82.5 313t-82.5 313.5
t-225 229t-311.5 84.5t-311.5 -84.5t-224.5 -228.5t-82 -314q0 -127 48.5 -242.5t131 -199t197 -133t241.5 -49.5zM1090 829q0 -196 -172 -231l178 -260h-115l-174 254h-115v-254h-104v721h274q112 0 170 -66.5t58 -163.5zM692 963v-277h164q67 0 100 40t33 97t-33 98.5
t-98 41.5h-166z" />
    <glyph glyph-name="macron" unicode="&#xaf;" horiz-adv-x="987" 
d="M246 1217v116h495v-116h-495z" />
    <glyph glyph-name="degree" unicode="&#xb0;" horiz-adv-x="710" 
d="M356 926q-104 0 -178 73.5t-74 176.5q0 104 74 177.5t178 73.5q103 0 176.5 -73.5t73.5 -177.5q0 -103 -73.5 -176.5t-176.5 -73.5zM356 1020q63 0 109.5 46.5t46.5 109.5q0 64 -46.5 110.5t-109.5 46.5q-64 0 -110.5 -46.5t-46.5 -110.5q0 -63 46.5 -109.5t110.5 -46.5z
" />
    <glyph glyph-name="plusminus" unicode="&#xb1;" horiz-adv-x="1085" 
d="M606 666h344v-127h-344v-318h-129v318h-344v127h344v311h129v-311zM133 0v121h817v-121h-817z" />
    <glyph glyph-name="uni00B2" unicode="&#xb2;" horiz-adv-x="638" 
d="M252 1178h303v-105h-479l2 62l309 368q47 60 47 113q0 47 -34.5 77.5t-88.5 30.5q-52 0 -86.5 -28.5t-46.5 -81.5l-104 16q19 93 81.5 146t161.5 53q103 0 167.5 -59.5t64.5 -155.5q0 -95 -78 -187z" />
    <glyph glyph-name="uni00B3" unicode="&#xb3;" horiz-adv-x="653" 
d="M432 1477q64 -21 102.5 -72.5t38.5 -122.5q0 -96 -78 -157.5t-198 -61.5q-76 0 -138.5 32t-99.5 91l76 63q55 -84 156 -84q74 0 120 35.5t46 93.5q0 57 -40.5 93t-103.5 36h-73v84h49q62 0 98 33.5t33 83.5q-2 46 -37 74t-92 28q-42 0 -82 -20t-62 -51l-61 71
q89 103 219 103q100 0 165 -55t65 -146q0 -47 -27.5 -86.5t-75.5 -64.5z" />
    <glyph glyph-name="acute" unicode="&#xb4;" horiz-adv-x="966" 
d="M264 1120l199 314h158l-230 -314h-127z" />
    <glyph glyph-name="uni00B5" unicode="&#xb5;" horiz-adv-x="1198" 
d="M190 956h129v-557q0 -132 69 -210t183 -78q59 0 111.5 17.5t97 53t70.5 98t27 144.5v532h131v-956h-131v158q-26 -60 -78.5 -101.5t-110 -58t-117.5 -16.5q-172 0 -252 110v-391h-129v1255z" />
    <glyph glyph-name="paragraph" unicode="&#xb6;" horiz-adv-x="1255" 
d="M518 -129v666q-185 6 -314.5 133t-129.5 305q0 181 127 308.5t309 127.5h129v-1540h-121zM516 -356v114h139q57 0 86 39t29 97v1517h154q109 0 186.5 -78t77.5 -188v-154h-121v154q0 58 -38.5 100.5t-94.5 42.5h-41v-1386q0 -104 -59 -179.5t-158 -78.5h-160z" />
    <glyph glyph-name="periodcentered" unicode="&#xb7;" horiz-adv-x="497" 
d="M248 401q-42 0 -72.5 28.5t-30.5 70.5q0 41 30.5 69.5t72.5 28.5q43 0 73.5 -28.5t30.5 -69.5q0 -42 -30.5 -70.5t-73.5 -28.5z" />
    <glyph glyph-name="cedilla" unicode="&#xb8;" horiz-adv-x="1048" 
d="M526 -410q-90 0 -144 58.5t-54 154.5h96q3 -54 31 -85t71 -31q44 0 70.5 27t26.5 71q0 22 -9 43l-82 215h95l75 -178q19 -44 19 -82q0 -86 -54.5 -139.5t-140.5 -53.5z" />
    <glyph glyph-name="uni00B9" unicode="&#xb9;" horiz-adv-x="462" 
d="M332 1829h12v-756h-111v604l-176 -71v104z" />
    <glyph glyph-name="ordmasculine" unicode="&#xba;" horiz-adv-x="1093" 
d="M547 709q-169 0 -286.5 111.5t-117.5 289.5q0 177 117.5 287t286.5 110q109 0 200.5 -48t147 -139.5t55.5 -209.5q0 -178 -117.5 -289.5t-285.5 -111.5zM547 821q120 0 202 80.5t82 208.5q0 127 -82 206t-202 79t-201.5 -78.5t-81.5 -206.5t81.5 -208.5t201.5 -80.5z
M168 580h762v-107h-762v107z" />
    <glyph glyph-name="guillemotright" unicode="&#xbb;" horiz-adv-x="915" 
d="M102 53l283 424l-283 424h129l283 -424l-283 -424h-129zM406 53l282 424l-282 424h129l282 -424l-282 -424h-129z" />
    <glyph glyph-name="onequarter" unicode="&#xbc;" horiz-adv-x="1482" 
d="M1047 1374h110l-921 -1394h-111zM231 604v602l-174 -71v104l275 119h10v-754h-111zM1421 248v-101h-121v-147h-112v147h-373v37l404 561h81v-497h121zM969 248h219v309z" />
    <glyph glyph-name="onehalf" unicode="&#xbd;" horiz-adv-x="1470" 
d="M1047 1374h110l-921 -1394h-111zM231 604v602l-174 -71v104l275 119h10v-754h-111zM1083 104h301v-104h-477v61l310 369q49 58 49 111q0 49 -35 79.5t-90 30.5q-51 0 -85.5 -29.5t-45.5 -82.5l-105 18q19 92 82 145.5t160 53.5q104 0 167.5 -60t63.5 -157t-75 -185z" />
    <glyph glyph-name="threequarters" unicode="&#xbe;" horiz-adv-x="1673" 
d="M1237 1374h111l-922 -1394h-111zM573 813q0 -98 -77.5 -158.5t-198.5 -60.5q-77 0 -139 31.5t-99 89.5l76 63q55 -84 156 -84q74 0 120 35.5t46 93.5t-40 93.5t-104 35.5h-73v86h49q62 0 98 33.5t33 81.5q-2 46 -37 74t-92 28q-43 0 -82.5 -19.5t-61.5 -51.5l-61 71
q89 103 219 103q100 0 165 -55t65 -146q0 -45 -27.5 -85.5t-73.5 -65.5q63 -22 101 -73t38 -120zM1612 248v-101h-121v-147h-113v147h-372v37l403 561h82v-497h121zM1159 248h219v309z" />
    <glyph glyph-name="questiondown" unicode="&#xbf;" horiz-adv-x="940" 
d="M598 977q43 0 73.5 -27.5t30.5 -68.5q0 -42 -30.5 -70.5t-73.5 -28.5t-73.5 28.5t-30.5 70.5q0 41 30.5 68.5t73.5 27.5zM662 592v-113q1 -83 -23.5 -140t-63 -88t-98.5 -54l-84 -31q-85 -28 -139.5 -94t-54.5 -160q0 -121 77 -193.5t191 -72.5q109 0 190 71.5t88 192.5
h127q-5 -117 -62 -206t-147 -135t-196 -46q-166 0 -282.5 107.5t-116.5 281.5q0 140 82 240t206 139q45 14 71.5 25.5t53.5 32.5t39 53t12 77l3 113h127z" />
    <glyph glyph-name="Agrave" unicode="&#xc0;" horiz-adv-x="1247" 
d="M690 1552h-127l-227 314h160zM1092 0l-142 375h-651l-141 -375h-144l539 1411h143l537 -1411h-141zM346 496h557l-278 735z" />
    <glyph glyph-name="Aacute" unicode="&#xc1;" horiz-adv-x="1247" 
d="M924 1866l-230 -314h-127l199 314h158zM1092 0l-142 375h-651l-141 -375h-144l539 1411h143l537 -1411h-141zM346 496h557l-278 735z" />
    <glyph glyph-name="Acircumflex" unicode="&#xc2;" horiz-adv-x="1247" 
d="M623 1765l-179 -213h-120l229 314h141l230 -314h-121zM1092 0l-142 375h-651l-141 -375h-144l539 1411h143l537 -1411h-141zM346 496h557l-278 735z" />
    <glyph glyph-name="Atilde" unicode="&#xc3;" horiz-adv-x="1247" 
d="M526 1690q-24 0 -43 -25.5t-20 -69.5h-96q4 101 49.5 152t109.5 51q41 0 77.5 -24t65 -48t50.5 -24q26 0 45 23t20 69h97q-6 -101 -52 -151t-110 -50q-32 0 -61.5 15t-48 33.5t-41.5 33.5t-42 15zM1092 0l-142 375h-651l-141 -375h-144l539 1411h143l537 -1411h-141z
M346 496h557l-278 735z" />
    <glyph glyph-name="Adieresis" unicode="&#xc4;" horiz-adv-x="1247" 
d="M449 1614q-40 0 -69.5 26.5t-29.5 65.5q0 40 29 67t70 27q42 0 71 -26.5t29 -67.5q0 -39 -29 -65.5t-71 -26.5zM795 1614q-40 0 -69.5 26.5t-29.5 65.5q0 40 29 67t70 27q42 0 71 -26.5t29 -67.5q0 -39 -29 -65.5t-71 -26.5zM1092 0l-142 375h-651l-141 -375h-144
l539 1411h143l537 -1411h-141zM346 496h557l-278 735z" />
    <glyph glyph-name="Aring" unicode="&#xc5;" horiz-adv-x="1247" 
d="M621 1559q-80 0 -136.5 56.5t-56.5 137.5q0 82 56.5 139.5t136.5 57.5q83 0 140.5 -57.5t57.5 -139.5t-57.5 -138t-140.5 -56zM621 1864q-44 0 -75.5 -32.5t-31.5 -78.5q0 -45 31 -76.5t76 -31.5q47 0 79.5 31t32.5 77t-32.5 78.5t-79.5 32.5zM1092 0l-142 375h-651
l-141 -375h-144l539 1411h143l537 -1411h-141zM346 496h557l-278 735z" />
    <glyph glyph-name="AE" unicode="&#xc6;" horiz-adv-x="1894" 
d="M1096 127h692v-127h-825v375h-611l-231 -375h-154l873 1411h923v-127h-667v-528h583v-127h-583v-502zM432 504h531v778h-48z" />
    <glyph glyph-name="Ccedilla" unicode="&#xc7;" horiz-adv-x="1388" 
d="M815 106q116 0 221 46t183 127l96 -86q-88 -94 -207.5 -149.5t-253.5 -61.5l49 -117q19 -44 19 -82q0 -86 -54.5 -139.5t-140.5 -53.5q-90 0 -144.5 58.5t-54.5 154.5h97q3 -54 31 -85t71 -31q44 0 70 27t26 71q0 24 -8 43l-59 154q-181 15 -330 114.5t-234.5 259
t-85.5 346.5q0 147 55.5 281t150 230.5t226.5 154t277 57.5q147 0 276.5 -56.5t223.5 -156.5l-96 -86q-76 81 -181.5 126.5t-222.5 45.5q-158 0 -290 -80t-207.5 -217t-75.5 -299t75.5 -299t207.5 -217t290 -80z" />
    <glyph glyph-name="Egrave" unicode="&#xc8;" horiz-adv-x="1142" 
d="M641 1552h-127l-227 314h159zM342 127h694v-127h-827v1411h805v-127h-672v-528h586v-127h-586v-502z" />
    <glyph glyph-name="Eacute" unicode="&#xc9;" horiz-adv-x="1142" 
d="M874 1866l-229 -314h-127l199 314h157zM342 127h694v-127h-827v1411h805v-127h-672v-528h586v-127h-586v-502z" />
    <glyph glyph-name="Ecircumflex" unicode="&#xca;" horiz-adv-x="1142" 
d="M573 1765l-178 -213h-121l230 314h141l229 -314h-120zM342 127h694v-127h-827v1411h805v-127h-672v-528h586v-127h-586v-502z" />
    <glyph glyph-name="Edieresis" unicode="&#xcb;" horiz-adv-x="1142" 
d="M399 1614q-40 0 -69 26.5t-29 65.5q0 41 28.5 67.5t69.5 26.5q42 0 71.5 -26.5t29.5 -67.5q0 -39 -29.5 -65.5t-71.5 -26.5zM745 1614q-40 0 -69 26.5t-29 65.5q0 41 28.5 67.5t69.5 26.5q42 0 71.5 -26.5t29.5 -67.5q0 -39 -29.5 -65.5t-71.5 -26.5zM342 127h694v-127
h-827v1411h805v-127h-672v-528h586v-127h-586v-502z" />
    <glyph glyph-name="Igrave" unicode="&#xcc;" horiz-adv-x="550" 
d="M215 1552l-227 314h159l195 -314h-127zM209 0v1411h135v-1411h-135z" />
    <glyph glyph-name="Iacute" unicode="&#xcd;" horiz-adv-x="550" 
d="M219 1552l199 314h157l-229 -314h-127zM209 0v1411h135v-1411h-135z" />
    <glyph glyph-name="Icircumflex" unicode="&#xce;" horiz-adv-x="550" 
d="M-25 1552l230 314h141l229 -314h-120l-181 213l-178 -213h-121zM209 0v1411h135v-1411h-135z" />
    <glyph glyph-name="Idieresis" unicode="&#xcf;" horiz-adv-x="550" 
d="M100 1614q-40 0 -69 26.5t-29 65.5q0 41 28.5 67.5t69.5 26.5q42 0 71.5 -26.5t29.5 -67.5q0 -39 -29.5 -65.5t-71.5 -26.5zM446 1614q-40 0 -69 26.5t-29 65.5q0 41 28.5 67.5t69.5 26.5q42 0 71.5 -26.5t29.5 -67.5q0 -39 -29.5 -65.5t-71.5 -26.5zM209 0v1411h135
v-1411h-135z" />
    <glyph glyph-name="Eth" unicode="&#xd0;" horiz-adv-x="1495" 
d="M752 1411q146 0 265.5 -54.5t198.5 -150t121.5 -224.5t42.5 -280q0 -201 -72.5 -358.5t-216.5 -250.5t-339 -93h-537v649h-160v105h160v657h537zM752 127q155 0 268.5 76.5t169 205t55.5 293.5q0 124 -32.5 229.5t-94 184.5t-155.5 123.5t-211 44.5h-402v-530h391v-105
h-391v-522h402z" />
    <glyph glyph-name="Ntilde" unicode="&#xd1;" horiz-adv-x="1413" 
d="M608 1690q-24 0 -43 -25.5t-20 -69.5h-96q4 101 49.5 152t109.5 51q41 0 77.5 -24t65 -48t50.5 -24q26 0 45 23t20 69h97q-6 -101 -52 -151t-110 -50q-32 0 -61.5 15t-48 33.5t-41.5 33.5t-42 15zM1071 1411h135v-1411h-139l-723 1176v-1176h-135v1411h141l721 -1173
v1173z" />
    <glyph glyph-name="Ograve" unicode="&#xd2;" horiz-adv-x="1640" 
d="M760 1552l-228 314h160l195 -314h-127zM819 -20q-148 0 -280.5 57t-227 154t-150 230.5t-55.5 280.5q0 198 94 364.5t258 263.5t361 97t361 -97t258 -263.5t94 -364.5q0 -147 -55.5 -280.5t-150 -230.5t-227 -154t-280.5 -57zM819 106q160 0 293 80t209 217t76 299
t-76 299.5t-209 218t-293 80.5q-120 0 -227.5 -47.5t-184 -128t-121 -191t-44.5 -231.5t44.5 -231t121 -190t184 -127.5t227.5 -47.5z" />
    <glyph glyph-name="Oacute" unicode="&#xd3;" horiz-adv-x="1640" 
d="M764 1552l199 314h157l-229 -314h-127zM819 -20q-148 0 -280.5 57t-227 154t-150 230.5t-55.5 280.5q0 198 94 364.5t258 263.5t361 97t361 -97t258 -263.5t94 -364.5q0 -147 -55.5 -280.5t-150 -230.5t-227 -154t-280.5 -57zM819 106q160 0 293 80t209 217t76 299
t-76 299.5t-209 218t-293 80.5q-120 0 -227.5 -47.5t-184 -128t-121 -191t-44.5 -231.5t44.5 -231t121 -190t184 -127.5t227.5 -47.5z" />
    <glyph glyph-name="Ocircumflex" unicode="&#xd4;" horiz-adv-x="1640" 
d="M520 1552l230 314h141l229 -314h-121l-180 213l-178 -213h-121zM819 -20q-148 0 -280.5 57t-227 154t-150 230.5t-55.5 280.5q0 198 94 364.5t258 263.5t361 97t361 -97t258 -263.5t94 -364.5q0 -147 -55.5 -280.5t-150 -230.5t-227 -154t-280.5 -57zM819 106
q160 0 293 80t209 217t76 299t-76 299.5t-209 218t-293 80.5q-120 0 -227.5 -47.5t-184 -128t-121 -191t-44.5 -231.5t44.5 -231t121 -190t184 -127.5t227.5 -47.5z" />
    <glyph glyph-name="Otilde" unicode="&#xd5;" horiz-adv-x="1640" 
d="M563 1595q4 101 50 152t110 51q32 0 62.5 -15t49 -33t40.5 -33t40 -15q26 0 45.5 23t20.5 69h96q-6 -101 -52 -151t-110 -50q-32 0 -61.5 15t-48 33.5t-41 33.5t-41.5 15q-24 0 -43.5 -25.5t-20.5 -69.5h-96zM819 -20q-148 0 -280.5 57t-227 154t-150 230.5t-55.5 280.5
q0 198 94 364.5t258 263.5t361 97t361 -97t258 -263.5t94 -364.5q0 -147 -55.5 -280.5t-150 -230.5t-227 -154t-280.5 -57zM819 106q160 0 293 80t209 217t76 299t-76 299.5t-209 218t-293 80.5q-120 0 -227.5 -47.5t-184 -128t-121 -191t-44.5 -231.5t44.5 -231t121 -190
t184 -127.5t227.5 -47.5z" />
    <glyph glyph-name="Odieresis" unicode="&#xd6;" horiz-adv-x="1640" 
d="M645 1614q-40 0 -69 26.5t-29 65.5q0 41 28.5 67.5t69.5 26.5q42 0 71 -26.5t29 -67.5q0 -39 -29 -65.5t-71 -26.5zM991 1614q-40 0 -69 26.5t-29 65.5q0 41 28.5 67.5t69.5 26.5q42 0 71.5 -26.5t29.5 -67.5q0 -39 -29.5 -65.5t-71.5 -26.5zM819 -20q-148 0 -280.5 57
t-227 154t-150 230.5t-55.5 280.5q0 198 94 364.5t258 263.5t361 97t361 -97t258 -263.5t94 -364.5q0 -147 -55.5 -280.5t-150 -230.5t-227 -154t-280.5 -57zM819 106q160 0 293 80t209 217t76 299t-76 299.5t-209 218t-293 80.5q-120 0 -227.5 -47.5t-184 -128t-121 -191
t-44.5 -231.5t44.5 -231t121 -190t184 -127.5t227.5 -47.5z" />
    <glyph glyph-name="multiply" unicode="&#xd7;" horiz-adv-x="962" 
d="M829 299l-88 -92l-260 260l-258 -256l-90 88l258 258l-256 256l90 88l256 -254l258 258l88 -92l-256 -256z" />
    <glyph glyph-name="Oslash" unicode="&#xd8;" horiz-adv-x="1650" 
d="M1540 1360l-176 -180q83 -97 128.5 -220t45.5 -258q0 -147 -55.5 -280.5t-150 -230.5t-227 -154t-280.5 -57q-265 0 -465 172l-174 -177l-73 74l174 176q-174 206 -174 477q0 148 55.5 282t150 231t226.5 154.5t280 57.5q133 0 253 -45.5t214 -128.5l174 177zM248 702
q0 -217 131 -380l821 837q-160 141 -375 141q-120 0 -227.5 -47.5t-184 -128t-121 -191t-44.5 -231.5zM1403 702q0 217 -131 383l-821 -839q163 -140 374 -140q160 0 293 80t209 217t76 299z" />
    <glyph glyph-name="Ugrave" unicode="&#xd9;" horiz-adv-x="1388" 
d="M633 1552l-227 314h159l195 -314h-127zM694 -20q-102 0 -193.5 34.5t-160.5 96.5t-109.5 156.5t-40.5 207.5v936h136v-936q0 -171 105.5 -268.5t262.5 -97.5q102 0 184.5 41.5t133.5 126t51 198.5v936h135v-936q0 -113 -40.5 -207.5t-109.5 -156.5t-160.5 -96.5
t-193.5 -34.5z" />
    <glyph glyph-name="Uacute" unicode="&#xda;" horiz-adv-x="1388" 
d="M637 1552l199 314h157l-229 -314h-127zM694 -20q-102 0 -193.5 34.5t-160.5 96.5t-109.5 156.5t-40.5 207.5v936h136v-936q0 -171 105.5 -268.5t262.5 -97.5q102 0 184.5 41.5t133.5 126t51 198.5v936h135v-936q0 -113 -40.5 -207.5t-109.5 -156.5t-160.5 -96.5
t-193.5 -34.5z" />
    <glyph glyph-name="Ucircumflex" unicode="&#xdb;" horiz-adv-x="1388" 
d="M393 1552l230 314h141l229 -314h-121l-180 213l-178 -213h-121zM694 -20q-102 0 -193.5 34.5t-160.5 96.5t-109.5 156.5t-40.5 207.5v936h136v-936q0 -171 105.5 -268.5t262.5 -97.5q102 0 184.5 41.5t133.5 126t51 198.5v936h135v-936q0 -113 -40.5 -207.5
t-109.5 -156.5t-160.5 -96.5t-193.5 -34.5z" />
    <glyph glyph-name="Udieresis" unicode="&#xdc;" horiz-adv-x="1388" 
d="M518 1614q-40 0 -69 26.5t-29 65.5q0 41 28.5 67.5t69.5 26.5q42 0 71 -26.5t29 -67.5q0 -39 -29 -65.5t-71 -26.5zM864 1614q-40 0 -69 26.5t-29 65.5q0 41 28.5 67.5t69.5 26.5q42 0 71.5 -26.5t29.5 -67.5q0 -39 -29.5 -65.5t-71.5 -26.5zM694 -20q-102 0 -193.5 34.5
t-160.5 96.5t-109.5 156.5t-40.5 207.5v936h136v-936q0 -171 105.5 -268.5t262.5 -97.5q102 0 184.5 41.5t133.5 126t51 198.5v936h135v-936q0 -113 -40.5 -207.5t-109.5 -156.5t-160.5 -96.5t-193.5 -34.5z" />
    <glyph glyph-name="Yacute" unicode="&#xdd;" horiz-adv-x="1232" 
d="M915 1866l-229 -314h-127l199 314h157zM1059 1411h162l-539 -749v-662h-135v662l-531 749h160l440 -618z" />
    <glyph glyph-name="Thorn" unicode="&#xde;" horiz-adv-x="1189" 
d="M676 1133q179 0 299.5 -116.5t120.5 -305.5q0 -191 -120.5 -310.5t-299.5 -119.5h-332v-281h-135v1411h135v-278h332zM678 408q122 0 204.5 85t82.5 218t-85 214t-210 81h-326v-598h334z" />
    <glyph glyph-name="germandbls" unicode="&#xdf;" horiz-adv-x="1187" 
d="M801 854q130 -38 210.5 -154t80.5 -262q0 -197 -132 -327.5t-346 -130.5q-98 -4 -194 36l31 115q82 -29 165 -29q156 0 250.5 97.5t94.5 249.5q-3 144 -101 239.5t-246 95.5h-71v113h61q101 0 166.5 71t65.5 175t-69 171.5t-189 67.5q-133 0 -208 -84t-75 -245v-1053
h-131v1053q0 217 110.5 335.5t300.5 118.5q180 0 286 -100.5t106 -251.5q0 -95 -45 -178.5t-121 -122.5z" />
    <glyph glyph-name="agrave" unicode="&#xe0;" horiz-adv-x="1259" 
d="M694 1098h-127l-227 313h160zM965 956h131v-956h-131v186q-53 -97 -156 -151.5t-225 -54.5q-132 0 -243 63.5t-177 178.5t-66 257q0 215 141 356.5t345 141.5q123 0 225 -54.5t156 -150.5v184zM594 104q153 0 262 104.5t109 266.5q0 111 -53.5 199t-137.5 133t-180 45
q-152 0 -258.5 -107t-106.5 -264q0 -159 106.5 -268t258.5 -109z" />
    <glyph glyph-name="aacute" unicode="&#xe1;" horiz-adv-x="1259" 
d="M928 1411l-230 -313h-127l199 313h158zM965 956h131v-956h-131v186q-53 -97 -156 -151.5t-225 -54.5q-132 0 -243 63.5t-177 178.5t-66 257q0 215 141 356.5t345 141.5q123 0 225 -54.5t156 -150.5v184zM594 104q153 0 262 104.5t109 266.5q0 111 -53.5 199t-137.5 133
t-180 45q-152 0 -258.5 -107t-106.5 -264q0 -159 106.5 -268t258.5 -109z" />
    <glyph glyph-name="acircumflex" unicode="&#xe2;" horiz-adv-x="1259" 
d="M627 1311l-178 -213h-121l229 313h141l230 -313h-121zM965 956h131v-956h-131v186q-53 -97 -156 -151.5t-225 -54.5q-132 0 -243 63.5t-177 178.5t-66 257q0 215 141 356.5t345 141.5q123 0 225 -54.5t156 -150.5v184zM594 104q153 0 262 104.5t109 266.5
q0 111 -53.5 199t-137.5 133t-180 45q-152 0 -258.5 -107t-106.5 -264q0 -159 106.5 -268t258.5 -109z" />
    <glyph glyph-name="atilde" unicode="&#xe3;" horiz-adv-x="1259" 
d="M530 1235q-24 0 -43 -25t-20 -69h-96q4 101 49.5 151.5t109.5 50.5q41 0 77.5 -24t65 -48t50.5 -24q26 0 45 23t20 69h97q-6 -101 -52 -150.5t-110 -49.5q-32 0 -61.5 15t-48 33t-41.5 33t-42 15zM965 956h131v-956h-131v186q-53 -97 -156 -151.5t-225 -54.5
q-132 0 -243 63.5t-177 178.5t-66 257q0 215 141 356.5t345 141.5q123 0 225 -54.5t156 -150.5v184zM594 104q153 0 262 104.5t109 266.5q0 111 -53.5 199t-137.5 133t-180 45q-152 0 -258.5 -107t-106.5 -264q0 -159 106.5 -268t258.5 -109z" />
    <glyph glyph-name="adieresis" unicode="&#xe4;" horiz-adv-x="1259" 
d="M453 1159q-40 0 -69.5 26.5t-29.5 65.5q0 41 29 68t70 27q42 0 71 -27t29 -68q0 -39 -29 -65.5t-71 -26.5zM799 1159q-40 0 -69.5 26.5t-29.5 65.5q0 41 29 68t70 27q42 0 71 -27t29 -68q0 -39 -29 -65.5t-71 -26.5zM965 956h131v-956h-131v186q-53 -97 -156 -151.5
t-225 -54.5q-132 0 -243 63.5t-177 178.5t-66 257q0 215 141 356.5t345 141.5q123 0 225 -54.5t156 -150.5v184zM594 104q153 0 262 104.5t109 266.5q0 111 -53.5 199t-137.5 133t-180 45q-152 0 -258.5 -107t-106.5 -264q0 -159 106.5 -268t258.5 -109z" />
    <glyph glyph-name="aring" unicode="&#xe5;" horiz-adv-x="1259" 
d="M625 1104q-80 0 -136.5 56.5t-56.5 137.5q0 82 56.5 139.5t136.5 57.5q83 0 140.5 -57.5t57.5 -139.5t-57.5 -138t-140.5 -56zM625 1409q-44 0 -75.5 -32.5t-31.5 -78.5t31 -77t76 -31q47 0 79.5 31t32.5 77t-32.5 78.5t-79.5 32.5zM965 956h131v-956h-131v186
q-53 -97 -156 -151.5t-225 -54.5q-132 0 -243 63.5t-177 178.5t-66 257q0 215 141 356.5t345 141.5q123 0 225 -54.5t156 -150.5v184zM594 104q153 0 262 104.5t109 266.5q0 111 -53.5 199t-137.5 133t-180 45q-152 0 -258.5 -107t-106.5 -264q0 -159 106.5 -268t258.5 -109
z" />
    <glyph glyph-name="ae" unicode="&#xe6;" horiz-adv-x="1867" 
d="M1778 481q0 -9 -1 -28.5t-1 -28.5h-824q17 -145 116 -232.5t241 -87.5q99 0 182.5 43.5t128.5 120.5l115 -49q-62 -114 -176.5 -176.5t-251.5 -62.5q-133 0 -244 61t-176 170q-191 -231 -457 -231q-155 0 -250.5 76.5t-95.5 205.5t100.5 211t278.5 82q90 0 186 -21
t170 -57v105q0 135 -79 203.5t-222 68.5q-178 0 -297 -119l-82 82q48 60 120 98t135.5 50t131.5 12q290 0 383 -199q64 95 168.5 147t229.5 52q206 0 338.5 -136t132.5 -360zM954 537h693q-13 147 -106.5 231t-233.5 84q-153 0 -244 -84.5t-109 -230.5zM428 98q110 0 230 63
t178 154l-17 52q-77 39 -172.5 59t-175.5 20q-128 0 -195 -53t-67 -127t59 -121t160 -47z" />
    <glyph glyph-name="ccedilla" unicode="&#xe7;" horiz-adv-x="1026" 
d="M866 201l82 -88q-111 -104 -262 -125l51 -123q19 -44 19 -82q0 -86 -54.5 -139.5t-140.5 -53.5q-90 0 -144.5 58.5t-54.5 154.5h97q3 -54 31 -85t71 -31q44 0 70 27t26 71q0 24 -8 43l-59 154q-134 3 -245 63.5t-179 174.5t-68 259q0 147 70 262t184.5 175.5t251.5 60.5
q203 0 344 -131l-82 -90q-107 96 -258 96q-160 0 -269.5 -104t-109.5 -269q0 -164 109.5 -268.5t269.5 -104.5q152 0 258 95z" />
    <glyph glyph-name="egrave" unicode="&#xe8;" horiz-adv-x="1148" 
d="M637 1098h-127l-227 313h159zM1057 481q0 -39 -2 -57h-824q17 -151 114.5 -235.5t244.5 -84.5q99 0 181.5 43t129.5 121l113 -49q-62 -114 -176.5 -176.5t-251.5 -62.5q-135 0 -245.5 61t-176.5 176.5t-66 263.5t66 262t176.5 174t245.5 60q207 0 339 -136t132 -360z
M233 537h695q-13 147 -106.5 231t-235.5 84q-144 0 -239.5 -82t-113.5 -233z" />
    <glyph glyph-name="eacute" unicode="&#xe9;" horiz-adv-x="1148" 
d="M870 1411l-229 -313h-127l199 313h157zM1057 481q0 -39 -2 -57h-824q17 -151 114.5 -235.5t244.5 -84.5q99 0 181.5 43t129.5 121l113 -49q-62 -114 -176.5 -176.5t-251.5 -62.5q-135 0 -245.5 61t-176.5 176.5t-66 263.5t66 262t176.5 174t245.5 60q207 0 339 -136
t132 -360zM233 537h695q-13 147 -106.5 231t-235.5 84q-144 0 -239.5 -82t-113.5 -233z" />
    <glyph glyph-name="ecircumflex" unicode="&#xea;" horiz-adv-x="1148" 
d="M569 1311l-178 -213h-121l230 313h141l229 -313h-120zM1057 481q0 -39 -2 -57h-824q17 -151 114.5 -235.5t244.5 -84.5q99 0 181.5 43t129.5 121l113 -49q-62 -114 -176.5 -176.5t-251.5 -62.5q-135 0 -245.5 61t-176.5 176.5t-66 263.5t66 262t176.5 174t245.5 60
q207 0 339 -136t132 -360zM233 537h695q-13 147 -106.5 231t-235.5 84q-144 0 -239.5 -82t-113.5 -233z" />
    <glyph glyph-name="edieresis" unicode="&#xeb;" horiz-adv-x="1148" 
d="M395 1159q-40 0 -69 26.5t-29 65.5q0 41 29 68t69 27q42 0 71.5 -27t29.5 -68q0 -39 -29.5 -65.5t-71.5 -26.5zM741 1159q-40 0 -69 26.5t-29 65.5q0 41 29 68t69 27q42 0 71.5 -27t29.5 -68q0 -39 -29.5 -65.5t-71.5 -26.5zM1057 481q0 -39 -2 -57h-824
q17 -151 114.5 -235.5t244.5 -84.5q99 0 181.5 43t129.5 121l113 -49q-62 -114 -176.5 -176.5t-251.5 -62.5q-135 0 -245.5 61t-176.5 176.5t-66 263.5t66 262t176.5 174t245.5 60q207 0 339 -136t132 -360zM233 537h695q-13 147 -106.5 231t-235.5 84q-144 0 -239.5 -82
t-113.5 -233z" />
    <glyph glyph-name="igrave" unicode="&#xec;" horiz-adv-x="458" 
d="M156 1120l-228 314h160l195 -314h-127zM164 0v956h131v-956h-131z" />
    <glyph glyph-name="iacute" unicode="&#xed;" horiz-adv-x="458" 
d="M162 1120l198 314h158l-229 -314h-127zM164 0v956h131v-956h-131z" />
    <glyph glyph-name="icircumflex" unicode="&#xee;" horiz-adv-x="458" 
d="M-70 1120l230 314h141l229 -314h-120l-181 211l-178 -211h-121zM164 0v956h131v-956h-131z" />
    <glyph glyph-name="idieresis" unicode="&#xef;" horiz-adv-x="458" 
d="M57 1190q-40 0 -69 26.5t-29 65.5q0 41 28.5 67.5t69.5 26.5q42 0 71.5 -26.5t29.5 -67.5q0 -39 -29.5 -65.5t-71.5 -26.5zM403 1190q-40 0 -69 26.5t-29 65.5q0 41 28.5 67.5t69.5 26.5q42 0 71.5 -26.5t29.5 -67.5q0 -39 -29.5 -65.5t-71.5 -26.5zM164 0v956h131v-956
h-131z" />
    <glyph glyph-name="eth" unicode="&#xf0;" horiz-adv-x="1198" 
d="M985 805q115 -131 115 -324q0 -147 -69 -263t-183 -177t-250 -61t-249.5 61t-182 177t-68.5 263t68.5 261.5t181.5 174.5t250 60q65 0 117 -14l-189 245l-256 -104l-30 76l233 94l-170 221h154l133 -174l194 80l31 -76l-174 -72zM598 104q155 0 263 105.5t108 271.5
q0 165 -108 268t-263 103q-156 0 -262.5 -103t-106.5 -268q0 -167 106.5 -272t262.5 -105z" />
    <glyph glyph-name="ntilde" unicode="&#xf1;" horiz-adv-x="1165" 
d="M487 1235q-24 0 -43 -25t-20 -69h-96q4 101 49.5 151.5t109.5 50.5q41 0 77.5 -24t65 -48t50.5 -24q26 0 45 23t20 69h97q-6 -101 -52 -150.5t-110 -49.5q-32 0 -61.5 15t-48 33t-41.5 33t-42 15zM627 977q176 0 282.5 -112.5t106.5 -307.5v-557h-131v551
q0 135 -76.5 216t-194.5 81q-60 0 -114.5 -18t-101 -54t-74.5 -99.5t-29 -146.5v-530h-131v956h131v-172q40 95 135.5 144t196.5 49z" />
    <glyph glyph-name="ograve" unicode="&#xf2;" horiz-adv-x="1196" 
d="M539 1098l-228 313h160l195 -313h-127zM598 -20q-136 0 -249.5 61t-182 177t-68.5 263t68.5 261.5t181.5 174.5t250 60t250.5 -60t182.5 -174.5t69 -261.5t-69 -263t-183 -177t-250 -61zM598 104q155 0 263 105.5t108 271.5q0 165 -108 268t-263 103q-156 0 -262.5 -103
t-106.5 -268q0 -167 106.5 -272t262.5 -105z" />
    <glyph glyph-name="oacute" unicode="&#xf3;" horiz-adv-x="1196" 
d="M543 1098l198 313h158l-229 -313h-127zM598 -20q-136 0 -249.5 61t-182 177t-68.5 263t68.5 261.5t181.5 174.5t250 60t250.5 -60t182.5 -174.5t69 -261.5t-69 -263t-183 -177t-250 -61zM598 104q155 0 263 105.5t108 271.5q0 165 -108 268t-263 103q-156 0 -262.5 -103
t-106.5 -268q0 -167 106.5 -272t262.5 -105z" />
    <glyph glyph-name="ocircumflex" unicode="&#xf4;" horiz-adv-x="1196" 
d="M299 1098l229 313h142l229 -313h-121l-180 213l-178 -213h-121zM598 -20q-136 0 -249.5 61t-182 177t-68.5 263t68.5 261.5t181.5 174.5t250 60t250.5 -60t182.5 -174.5t69 -261.5t-69 -263t-183 -177t-250 -61zM598 104q155 0 263 105.5t108 271.5q0 165 -108 268
t-263 103q-156 0 -262.5 -103t-106.5 -268q0 -167 106.5 -272t262.5 -105z" />
    <glyph glyph-name="otilde" unicode="&#xf5;" horiz-adv-x="1196" 
d="M342 1141q4 101 50 151.5t110 50.5q32 0 62.5 -15t49 -33t40.5 -33t40 -15q26 0 45.5 23t20.5 69h96q-6 -101 -52 -150.5t-110 -49.5q-40 0 -75.5 24t-64 48t-52.5 24t-43.5 -25t-20.5 -69h-96zM598 -20q-136 0 -249.5 61t-182 177t-68.5 263t68.5 261.5t181.5 174.5
t250 60t250.5 -60t182.5 -174.5t69 -261.5t-69 -263t-183 -177t-250 -61zM598 104q155 0 263 105.5t108 271.5q0 165 -108 268t-263 103q-156 0 -262.5 -103t-106.5 -268q0 -167 106.5 -272t262.5 -105z" />
    <glyph glyph-name="odieresis" unicode="&#xf6;" horiz-adv-x="1196" 
d="M424 1159q-40 0 -69 26.5t-29 65.5q0 41 29 68t69 27q42 0 71 -27t29 -68q0 -39 -29 -65.5t-71 -26.5zM770 1159q-40 0 -69 26.5t-29 65.5q0 41 29 68t69 27q42 0 71 -27t29 -68q0 -39 -29 -65.5t-71 -26.5zM598 -20q-136 0 -249.5 61t-182 177t-68.5 263t68.5 261.5
t181.5 174.5t250 60t250.5 -60t182.5 -174.5t69 -261.5t-69 -263t-183 -177t-250 -61zM598 104q155 0 263 105.5t108 271.5q0 165 -108 268t-263 103q-156 0 -262.5 -103t-106.5 -268q0 -167 106.5 -272t262.5 -105z" />
    <glyph glyph-name="divide" unicode="&#xf7;" horiz-adv-x="1107" 
d="M553 745q-42 0 -72 29t-30 70t30 68.5t72 27.5q43 0 73.5 -27.5t30.5 -68.5t-30.5 -70t-73.5 -29zM133 434v123h842v-123h-842zM553 49q-42 0 -72 27.5t-30 68.5q0 42 30 70.5t72 28.5q43 0 73.5 -28.5t30.5 -70.5q0 -41 -30.5 -68.5t-73.5 -27.5z" />
    <glyph glyph-name="oslash" unicode="&#xf8;" horiz-adv-x="1204" 
d="M1104 913l-111 -112q111 -130 111 -320q0 -147 -69 -263t-183 -177t-250 -61q-181 0 -313 104l-119 -121l-72 72l117 119q-113 136 -113 327q0 147 68.5 261.5t181.5 174.5t250 60q184 0 320 -105l108 111zM233 481q0 -137 74 -233l522 530q-99 74 -227 74
q-156 0 -262.5 -103t-106.5 -268zM973 481q0 132 -72 226l-522 -531q93 -72 223 -72q155 0 263 105.5t108 271.5z" />
    <glyph glyph-name="ugrave" unicode="&#xf9;" horiz-adv-x="1165" 
d="M651 1098h-127l-227 313h160zM870 956h131v-956h-131v168q-27 -64 -85 -108t-120 -62t-126 -18q-176 0 -282 112t-105 307v557h131v-550q0 -136 75.5 -216.5t194.5 -80.5q47 0 91 10.5t85.5 35t72 60t49 90t19.5 121.5v530z" />
    <glyph glyph-name="uacute" unicode="&#xfa;" horiz-adv-x="1165" 
d="M885 1411l-230 -313h-127l199 313h158zM870 956h131v-956h-131v168q-27 -64 -85 -108t-120 -62t-126 -18q-176 0 -282 112t-105 307v557h131v-550q0 -136 75.5 -216.5t194.5 -80.5q47 0 91 10.5t85.5 35t72 60t49 90t19.5 121.5v530z" />
    <glyph glyph-name="ucircumflex" unicode="&#xfb;" horiz-adv-x="1165" 
d="M584 1311l-178 -213h-121l229 313h141l230 -313h-121zM870 956h131v-956h-131v168q-27 -64 -85 -108t-120 -62t-126 -18q-176 0 -282 112t-105 307v557h131v-550q0 -136 75.5 -216.5t194.5 -80.5q47 0 91 10.5t85.5 35t72 60t49 90t19.5 121.5v530z" />
    <glyph glyph-name="udieresis" unicode="&#xfc;" horiz-adv-x="1165" 
d="M410 1159q-40 0 -69.5 26.5t-29.5 65.5q0 41 29 68t70 27q42 0 71 -27t29 -68q0 -39 -29 -65.5t-71 -26.5zM756 1159q-40 0 -69.5 26.5t-29.5 65.5q0 41 29 68t70 27q42 0 71 -27t29 -68q0 -39 -29 -65.5t-71 -26.5zM870 956h131v-956h-131v168q-27 -64 -85 -108
t-120 -62t-126 -18q-176 0 -282 112t-105 307v557h131v-550q0 -136 75.5 -216.5t194.5 -80.5q47 0 91 10.5t85.5 35t72 60t49 90t19.5 121.5v530z" />
    <glyph glyph-name="yacute" unicode="&#xfd;" horiz-adv-x="1019" 
d="M813 1411l-229 -313h-127l198 313h158zM842 956h141l-600 -1421h-139l196 477l-395 944h141l326 -782z" />
    <glyph glyph-name="thorn" unicode="&#xfe;" horiz-adv-x="1259" 
d="M676 977q99 0 188.5 -37.5t154.5 -102t103.5 -158t38.5 -200.5q0 -142 -65 -257t-176 -178.5t-244 -63.5q-122 0 -225.5 55.5t-155.5 152.5v-653h-131v1960h131v-725q53 97 155.5 152t225.5 55zM666 104q153 0 259.5 109t106.5 268q0 157 -106.5 264t-259.5 107
q-96 0 -180 -45t-137.5 -133t-53.5 -199q0 -162 109 -266.5t262 -104.5z" />
    <glyph glyph-name="ydieresis" unicode="&#xff;" horiz-adv-x="1019" 
d="M338 1159q-40 0 -69 26.5t-29 65.5q0 41 29 68t69 27q42 0 71 -27t29 -68q0 -39 -29 -65.5t-71 -26.5zM684 1159q-40 0 -69 26.5t-29 65.5q0 41 29 68t69 27q42 0 71 -27t29 -68q0 -39 -29 -65.5t-71 -26.5zM842 956h141l-600 -1421h-139l196 477l-395 944h141l326 -782z
" />
    <glyph glyph-name="Amacron" unicode="&#x100;" horiz-adv-x="1247" 
d="M872 1761v-116h-495v116h495zM1092 0l-142 375h-651l-141 -375h-144l539 1411h143l537 -1411h-141zM346 496h557l-278 735z" />
    <glyph glyph-name="amacron" unicode="&#x101;" horiz-adv-x="1259" 
d="M877 1307v-117h-496v117h496zM965 956h131v-956h-131v186q-53 -97 -156 -151.5t-225 -54.5q-132 0 -243 63.5t-177 178.5t-66 257q0 215 141 356.5t345 141.5q123 0 225 -54.5t156 -150.5v184zM594 104q153 0 262 104.5t109 266.5q0 111 -53.5 199t-137.5 133t-180 45
q-152 0 -258.5 -107t-106.5 -264q0 -159 106.5 -268t258.5 -109z" />
    <glyph glyph-name="Abreve" unicode="&#x102;" horiz-adv-x="1247" 
d="M623 1585q-124 0 -186 72t-62 182h110q0 -67 35.5 -108t102.5 -41q62 0 98.5 41.5t36.5 107.5h114q0 -118 -68 -186t-181 -68zM1092 0l-142 375h-651l-141 -375h-144l539 1411h143l537 -1411h-141zM346 496h557l-278 735z" />
    <glyph glyph-name="abreve" unicode="&#x103;" horiz-adv-x="1259" 
d="M627 1130q-124 0 -186 72t-62 182h110q0 -67 35.5 -108t102.5 -41q62 0 98.5 41.5t36.5 107.5h115q0 -118 -68.5 -186t-181.5 -68zM965 956h131v-956h-131v186q-53 -97 -156 -151.5t-225 -54.5q-132 0 -243 63.5t-177 178.5t-66 257q0 215 141 356.5t345 141.5
q123 0 225 -54.5t156 -150.5v184zM594 104q153 0 262 104.5t109 266.5q0 111 -53.5 199t-137.5 133t-180 45q-152 0 -258.5 -107t-106.5 -264q0 -159 106.5 -268t258.5 -109z" />
    <glyph glyph-name="Aogonek" unicode="&#x104;" horiz-adv-x="1247" 
d="M1284 -197h96q0 -95 -54.5 -154t-143.5 -59q-88 0 -142.5 53.5t-54.5 139.5q0 34 21 82l71 174l-127 336h-651l-141 -375h-144l539 1411h143l537 -1411h-76l-65 -172q-9 -31 -9 -43q0 -44 27.5 -71t71.5 -27q42 0 70.5 31.5t31.5 84.5zM346 496h557l-278 735z" />
    <glyph glyph-name="aogonek" unicode="&#x105;" horiz-adv-x="1259" 
d="M1067 -410q-86 0 -140.5 53.5t-54.5 139.5q0 38 19 82l74 176v145q-54 -95 -157 -150.5t-224 -55.5q-132 0 -243 63.5t-177 178.5t-66 257q0 215 141 356.5t345 141.5q122 0 224.5 -55t156.5 -150v184h131v-956h-54l-63 -172q-8 -19 -8 -43q0 -44 26 -71t70 -27
q43 0 71 31t31 85h97q0 -96 -54.5 -154.5t-144.5 -58.5zM594 104q153 0 262 104.5t109 266.5q0 111 -53.5 199t-137.5 133t-180 45q-152 0 -258.5 -107t-106.5 -264q0 -159 106.5 -268t258.5 -109z" />
    <glyph glyph-name="Cacute" unicode="&#x106;" horiz-adv-x="1388" 
d="M631 1552l198 314h158l-229 -314h-127zM815 -20q-145 0 -276.5 57t-226.5 154t-150.5 230.5t-55.5 280.5t55.5 281t150 230.5t226.5 154t277 57.5q147 0 276.5 -56.5t223.5 -156.5l-96 -86q-76 81 -181.5 126.5t-222.5 45.5q-158 0 -290 -80t-207.5 -217t-75.5 -299
t75.5 -299t207.5 -217t290 -80q116 0 221 46t183 127l96 -86q-94 -100 -223.5 -156.5t-276.5 -56.5z" />
    <glyph glyph-name="cacute" unicode="&#x107;" horiz-adv-x="1026" 
d="M465 1098l199 313h157l-229 -313h-127zM604 -18q-137 0 -251.5 60t-184.5 175t-70 262t70 262t184.5 175.5t251.5 60.5q203 0 344 -131l-82 -90q-107 96 -258 96q-160 0 -269.5 -104t-109.5 -269q0 -164 109.5 -268.5t269.5 -104.5q152 0 258 95l82 -88
q-137 -131 -344 -131z" />
    <glyph glyph-name="Cdotaccent" unicode="&#x10a;" horiz-adv-x="1388" 
d="M788 1604q-42 0 -71 26.5t-29 65.5q0 41 29 67.5t71 26.5q43 0 72 -26.5t29 -67.5q0 -40 -29 -66t-72 -26zM815 -20q-145 0 -276.5 57t-226.5 154t-150.5 230.5t-55.5 280.5t55.5 281t150 230.5t226.5 154t277 57.5q147 0 276.5 -56.5t223.5 -156.5l-96 -86
q-76 81 -181.5 126.5t-222.5 45.5q-158 0 -290 -80t-207.5 -217t-75.5 -299t75.5 -299t207.5 -217t290 -80q116 0 221 46t183 127l96 -86q-94 -100 -223.5 -156.5t-276.5 -56.5z" />
    <glyph glyph-name="cdotaccent" unicode="&#x10b;" horiz-adv-x="1026" 
d="M567 1149q-42 0 -71 26.5t-29 65.5q0 41 29 67.5t71 26.5q43 0 72 -26.5t29 -67.5q0 -40 -29 -66t-72 -26zM604 -18q-137 0 -251.5 60t-184.5 175t-70 262t70 262t184.5 175.5t251.5 60.5q203 0 344 -131l-82 -90q-107 96 -258 96q-160 0 -269.5 -104t-109.5 -269
q0 -164 109.5 -268.5t269.5 -104.5q152 0 258 95l82 -88q-137 -131 -344 -131z" />
    <glyph glyph-name="Ccaron" unicode="&#x10c;" horiz-adv-x="1388" 
d="M707 1552l-230 314h121l178 -211l180 211h121l-229 -314h-141zM815 -20q-145 0 -276.5 57t-226.5 154t-150.5 230.5t-55.5 280.5t55.5 281t150 230.5t226.5 154t277 57.5q147 0 276.5 -56.5t223.5 -156.5l-96 -86q-76 81 -181.5 126.5t-222.5 45.5q-158 0 -290 -80
t-207.5 -217t-75.5 -299t75.5 -299t207.5 -217t290 -80q116 0 221 46t183 127l96 -86q-94 -100 -223.5 -156.5t-276.5 -56.5z" />
    <glyph glyph-name="ccaron" unicode="&#x10d;" horiz-adv-x="1026" 
d="M498 1098l-230 313h121l178 -211l181 211h120l-229 -313h-141zM604 -18q-137 0 -251.5 60t-184.5 175t-70 262t70 262t184.5 175.5t251.5 60.5q203 0 344 -131l-82 -90q-107 96 -258 96q-160 0 -269.5 -104t-109.5 -269q0 -164 109.5 -268.5t269.5 -104.5q152 0 258 95
l82 -88q-137 -131 -344 -131z" />
    <glyph glyph-name="Dcaron" unicode="&#x10e;" horiz-adv-x="1486" 
d="M590 1552l-230 314h121l178 -211l181 211h121l-230 -314h-141zM209 0v1411h534q195 0 339.5 -94t218 -253.5t73.5 -361.5q0 -150 -43 -278t-122.5 -222.5t-199.5 -148t-266 -53.5h-534zM344 127h399q157 0 270.5 76.5t169.5 205t56 293.5q0 166 -56 296.5t-169.5 208
t-270.5 77.5h-399v-1157z" />
    <glyph glyph-name="dcaron" unicode="&#x10f;" horiz-adv-x="1300" 
d="M965 772v723h131v-1495h-131v186q-53 -97 -156 -151.5t-225 -54.5q-132 0 -243 63.5t-177 178.5t-66 257q0 215 141 356.5t345 141.5q123 0 225 -54.5t156 -150.5zM1417 1411q1 -125 -32.5 -207.5t-96.5 -152.5l-90 24q54 79 76 158.5t12 177.5h131zM594 104
q153 0 262 104.5t109 266.5q0 111 -53.5 199t-137.5 133t-180 45q-152 0 -258.5 -107t-106.5 -264q0 -159 106.5 -268t258.5 -109z" />
    <glyph glyph-name="Dcroat" unicode="&#x110;" horiz-adv-x="1495" 
d="M752 1411q146 0 265.5 -54.5t198.5 -150t121.5 -224.5t42.5 -280q0 -201 -72.5 -358.5t-216.5 -250.5t-339 -93h-537v649h-160v105h160v657h537zM752 127q155 0 268.5 76.5t169 205t55.5 293.5q0 124 -32.5 229.5t-94 184.5t-155.5 123.5t-211 44.5h-402v-530h391v-105
h-391v-522h402z" />
    <glyph glyph-name="dcroat" unicode="&#x111;" horiz-adv-x="1259" 
d="M1268 1270v-94h-172v-1176h-131v186q-53 -97 -156 -151.5t-225 -54.5q-132 0 -243 63.5t-177 178.5t-66 257q0 215 141 356.5t345 141.5q123 0 225 -54.5t156 -150.5v404h-324v94h324v225h131v-225h172zM594 104q153 0 262 104.5t109 266.5q0 111 -53.5 199t-137.5 133
t-180 45q-152 0 -258.5 -107t-106.5 -264q0 -159 106.5 -268t258.5 -109z" />
    <glyph glyph-name="Emacron" unicode="&#x112;" horiz-adv-x="1142" 
d="M823 1761v-116h-495v116h495zM342 127h694v-127h-827v1411h805v-127h-672v-528h586v-127h-586v-502z" />
    <glyph glyph-name="emacron" unicode="&#x113;" horiz-adv-x="1148" 
d="M819 1307v-117h-495v117h495zM1057 481q0 -39 -2 -57h-824q17 -151 114.5 -235.5t244.5 -84.5q99 0 181.5 43t129.5 121l113 -49q-62 -114 -176.5 -176.5t-251.5 -62.5q-135 0 -245.5 61t-176.5 176.5t-66 263.5t66 262t176.5 174t245.5 60q207 0 339 -136t132 -360z
M233 537h695q-13 147 -106.5 231t-235.5 84q-144 0 -239.5 -82t-113.5 -233z" />
    <glyph glyph-name="Edotaccent" unicode="&#x116;" horiz-adv-x="1142" 
d="M575 1604q-42 0 -71 26.5t-29 65.5q0 41 29 67.5t71 26.5q43 0 72 -26.5t29 -67.5q0 -40 -29 -66t-72 -26zM342 127h694v-127h-827v1411h805v-127h-672v-528h586v-127h-586v-502z" />
    <glyph glyph-name="edotaccent" unicode="&#x117;" horiz-adv-x="1148" 
d="M571 1149q-42 0 -71 26.5t-29 65.5q0 41 29 67.5t71 26.5q43 0 72 -26.5t29 -67.5q0 -40 -29 -66t-72 -26zM1057 481q0 -39 -2 -57h-824q17 -151 114.5 -235.5t244.5 -84.5q99 0 181.5 43t129.5 121l113 -49q-62 -114 -176.5 -176.5t-251.5 -62.5q-135 0 -245.5 61
t-176.5 176.5t-66 263.5t66 262t176.5 174t245.5 60q207 0 339 -136t132 -360zM233 537h695q-13 147 -106.5 231t-235.5 84q-144 0 -239.5 -82t-113.5 -233z" />
    <glyph glyph-name="Eogonek" unicode="&#x118;" horiz-adv-x="1142" 
d="M811 0l-66 -172q-8 -19 -8 -43q0 -45 26.5 -71.5t72.5 -26.5q42 0 70.5 31.5t31.5 84.5h94q0 -96 -53.5 -154.5t-142.5 -58.5q-88 0 -142.5 53.5t-54.5 139.5q0 36 20 82l56 135h-506v1411h805v-127h-672v-528h586v-127h-586v-502h694v-127h-225z" />
    <glyph glyph-name="eogonek" unicode="&#x119;" horiz-adv-x="1148" 
d="M1057 481q0 -39 -2 -57h-824q17 -151 114.5 -235.5t244.5 -84.5q99 0 181.5 43t129.5 121l113 -49q-65 -118 -193 -184l-78 -207q-10 -23 -10 -43q0 -44 27 -71t71 -27q42 0 71 31.5t32 84.5h96q0 -95 -55 -154t-144 -59q-87 0 -141.5 53.5t-54.5 139.5q0 36 20 82
l54 129q-55 -14 -123 -14q-135 0 -245.5 61t-176.5 176.5t-66 263.5t66 262t176.5 174t245.5 60q207 0 339 -136t132 -360zM233 537h695q-13 147 -106.5 231t-235.5 84q-144 0 -239.5 -82t-113.5 -233z" />
    <glyph glyph-name="Ecaron" unicode="&#x11a;" horiz-adv-x="1142" 
d="M645 1552h-141l-230 314h121l178 -211l181 211h120zM342 127h694v-127h-827v1411h805v-127h-672v-528h586v-127h-586v-502z" />
    <glyph glyph-name="ecaron" unicode="&#x11b;" horiz-adv-x="1148" 
d="M641 1098h-141l-230 313h121l178 -211l181 211h120zM1057 481q0 -39 -2 -57h-824q17 -151 114.5 -235.5t244.5 -84.5q99 0 181.5 43t129.5 121l113 -49q-62 -114 -176.5 -176.5t-251.5 -62.5q-135 0 -245.5 61t-176.5 176.5t-66 263.5t66 262t176.5 174t245.5 60
q207 0 339 -136t132 -360zM233 537h695q-13 147 -106.5 231t-235.5 84q-144 0 -239.5 -82t-113.5 -233z" />
    <glyph glyph-name="Gbreve" unicode="&#x11e;" horiz-adv-x="1548" 
d="M776 1585q-124 0 -186 72t-62 182h111q0 -67 35 -108t102 -41q62 0 98.5 41.5t36.5 107.5h115q0 -117 -68 -185.5t-182 -68.5zM821 -20q-148 0 -280 57t-226.5 154t-150 230.5t-55.5 280.5q0 148 55.5 282t150 231t226.5 154.5t280 57.5q126 0 242 -43t207 -120l-90 -93
q-159 129 -359 129q-120 0 -227.5 -47.5t-184 -128t-121 -191t-44.5 -231.5t44.5 -231t121 -190t184 -127.5t227.5 -47.5q204 0 343.5 112.5t166.5 313.5l2 31h-424v121h572q-2 -175 -51.5 -310.5t-137.5 -221t-207 -129t-264 -43.5z" />
    <glyph glyph-name="gbreve" unicode="&#x11f;" horiz-adv-x="1259" 
d="M627 1130q-124 0 -186 72t-62 182h110q0 -67 35.5 -108t102.5 -41q62 0 98.5 41.5t36.5 107.5h115q0 -118 -68.5 -186t-181.5 -68zM965 956h131v-815q0 -170 -36.5 -291.5t-106.5 -192t-162 -102.5t-213 -32q-125 0 -235 59.5t-179 173.5l110 62q51 -82 133 -126t171 -44
q91 0 159.5 24.5t121 80t79.5 151.5t27 231v49q-53 -96 -156 -150t-225 -54q-132 0 -243 63.5t-177 178.5t-66 257q0 215 141 356.5t345 141.5q123 0 225 -54.5t156 -150.5v184zM594 104q153 0 262 104.5t109 266.5q0 111 -53.5 199t-137.5 133t-180 45q-152 0 -258.5 -107
t-106.5 -264q0 -159 106.5 -268t258.5 -109z" />
    <glyph glyph-name="Gdotaccent" unicode="&#x120;" horiz-adv-x="1548" 
d="M778 1604q-42 0 -71 26.5t-29 65.5q0 41 29 67.5t71 26.5q43 0 72 -26.5t29 -67.5q0 -40 -29 -66t-72 -26zM821 -20q-148 0 -280 57t-226.5 154t-150 230.5t-55.5 280.5q0 148 55.5 282t150 231t226.5 154.5t280 57.5q126 0 242 -43t207 -120l-90 -93q-159 129 -359 129
q-120 0 -227.5 -47.5t-184 -128t-121 -191t-44.5 -231.5t44.5 -231t121 -190t184 -127.5t227.5 -47.5q204 0 343.5 112.5t166.5 313.5l2 31h-424v121h572q-2 -175 -51.5 -310.5t-137.5 -221t-207 -129t-264 -43.5z" />
    <glyph glyph-name="gdotaccent" unicode="&#x121;" horiz-adv-x="1259" 
d="M629 1149q-42 0 -71.5 26.5t-29.5 65.5q0 41 29.5 67.5t71.5 26.5q43 0 71.5 -26.5t28.5 -67.5q0 -40 -28.5 -66t-71.5 -26zM965 956h131v-815q0 -170 -36.5 -291.5t-106.5 -192t-162 -102.5t-213 -32q-125 0 -235 59.5t-179 173.5l110 62q51 -82 133 -126t171 -44
q91 0 159.5 24.5t121 80t79.5 151.5t27 231v49q-53 -96 -156 -150t-225 -54q-132 0 -243 63.5t-177 178.5t-66 257q0 215 141 356.5t345 141.5q123 0 225 -54.5t156 -150.5v184zM594 104q153 0 262 104.5t109 266.5q0 111 -53.5 199t-137.5 133t-180 45q-152 0 -258.5 -107
t-106.5 -264q0 -159 106.5 -268t258.5 -109z" />
    <glyph glyph-name="Gcommaaccent" unicode="&#x122;" horiz-adv-x="1548" 
d="M821 -20q-148 0 -280 57t-226.5 154t-150 230.5t-55.5 280.5q0 148 55.5 282t150 231t226.5 154.5t280 57.5q126 0 242 -43t207 -120l-90 -93q-159 129 -359 129q-120 0 -227.5 -47.5t-184 -128t-121 -191t-44.5 -231.5t44.5 -231t121 -190t184 -127.5t227.5 -47.5
q204 0 343.5 112.5t166.5 313.5l2 31h-424v121h572q-2 -175 -51.5 -310.5t-137.5 -221t-207 -129t-264 -43.5zM690 -463l-82 33q61 74 87.5 155.5t19.5 194.5h133q1 -123 -43.5 -225t-114.5 -158z" />
    <glyph glyph-name="gcommaaccent" unicode="&#x123;" horiz-adv-x="1259" 
d="M674 1120h-133q-1 124 43 225.5t114 155.5l82 -31q-61 -73 -87 -155.5t-19 -194.5zM965 956h131v-815q0 -170 -36.5 -291.5t-106.5 -192t-162 -102.5t-213 -32q-125 0 -235 59.5t-179 173.5l110 62q51 -82 133 -126t171 -44q91 0 159.5 24.5t121 80t79.5 151.5t27 231v49
q-53 -96 -156 -150t-225 -54q-132 0 -243 63.5t-177 178.5t-66 257q0 215 141 356.5t345 141.5q123 0 225 -54.5t156 -150.5v184zM594 104q153 0 262 104.5t109 266.5q0 111 -53.5 199t-137.5 133t-180 45q-152 0 -258.5 -107t-106.5 -264q0 -159 106.5 -268t258.5 -109z
" />
    <glyph glyph-name="Hbar" unicode="&#x126;" horiz-adv-x="1468" 
d="M1405 1145v-94h-148v-1051h-135v641h-778v-641h-135v1051h-135v94h135v266h135v-266h778v266h135v-266h148zM1122 762v289h-778v-289h778z" />
    <glyph glyph-name="hbar" unicode="&#x127;" horiz-adv-x="1165" 
d="M627 977q176 0 282.5 -112.5t106.5 -307.5v-557h-131v551q0 135 -76.5 216t-194.5 81q-60 0 -114.5 -18t-101 -54t-74.5 -99.5t-29 -146.5v-530h-131v1108h-90v94h90v293h131v-293h379v-94h-379v-324q40 95 135.5 144t196.5 49z" />
    <glyph glyph-name="Itilde" unicode="&#x128;" horiz-adv-x="550" 
d="M18 1595q4 101 50 152t110 51q41 0 77.5 -24t65 -48t50.5 -24q26 0 45 23t20 69h96q-6 -101 -51.5 -151t-109.5 -50q-32 0 -61.5 15t-48 33.5t-41.5 33.5t-42 15q-24 0 -43 -25.5t-20 -69.5h-97zM209 0v1411h135v-1411h-135z" />
    <glyph glyph-name="itilde" unicode="&#x129;" horiz-adv-x="458" 
d="M-29 1141q4 101 50 151.5t110 50.5q41 0 77.5 -24t65 -48t50.5 -24q26 0 45 23t20 69h96q-6 -101 -51.5 -150.5t-109.5 -49.5q-32 0 -61.5 15t-48 33t-41.5 33t-42 15q-24 0 -43 -25t-20 -69h-97zM164 0v956h131v-956h-131z" />
    <glyph glyph-name="Imacron" unicode="&#x12a;" horiz-adv-x="550" 
d="M29 1645v116h495v-116h-495zM209 0v1411h135v-1411h-135z" />
    <glyph glyph-name="imacron" unicode="&#x12b;" horiz-adv-x="458" 
d="M-18 1190v117h495v-117h-495zM164 0v956h131v-956h-131z" />
    <glyph glyph-name="Iogonek" unicode="&#x12e;" horiz-adv-x="550" 
d="M418 -197h96q0 -96 -54.5 -154.5t-144.5 -58.5q-86 0 -140 53.5t-54 139.5q0 41 18 82l70 162v1384h135v-1411h-51l-66 -172q-8 -19 -8 -43q0 -44 26 -71t70 -27q43 0 71.5 31.5t31.5 84.5z" />
    <glyph glyph-name="iogonek" unicode="&#x12f;" horiz-adv-x="460" 
d="M231 1217q-42 0 -71 26.5t-29 65.5q0 41 29 67.5t71 26.5t71.5 -26.5t29.5 -67.5q0 -39 -29.5 -65.5t-71.5 -26.5zM266 -410q-87 0 -141.5 53.5t-54.5 139.5q0 36 20 82l76 178v913h131v-956h-55l-64 -172q-10 -23 -10 -43q0 -44 27 -71t71 -27q43 0 71.5 31.5t31.5 84.5
h96q0 -96 -54.5 -154.5t-144.5 -58.5z" />
    <glyph glyph-name="Idotaccent" unicode="&#x130;" horiz-adv-x="550" 
d="M276 1604q-42 0 -71 26.5t-29 65.5q0 41 29 67.5t71 26.5q43 0 72 -26.5t29 -67.5q0 -40 -29 -66t-72 -26zM209 0v1411h135v-1411h-135z" />
    <glyph glyph-name="dotlessi" unicode="&#x131;" horiz-adv-x="458" 
d="M164 0v956h131v-956h-131z" />
    <glyph glyph-name="IJ" unicode="&#x132;" horiz-adv-x="1118" 
d="M209 0v1411h135v-1411h-135zM489 -477q-31 0 -127 14l15 129q47 -12 112 -12q76 0 132.5 24.5t89.5 69t49 100t16 123.5v1440h135v-1440q0 -95 -23.5 -173.5t-72 -141.5t-131.5 -98t-195 -35z" />
    <glyph glyph-name="ij" unicode="&#x133;" horiz-adv-x="933" 
d="M229 1217q-41 0 -70.5 26.5t-29.5 65.5q0 40 29.5 67t70.5 27q43 0 73 -26.5t30 -67.5q0 -39 -30 -65.5t-73 -26.5zM705 1217q-41 0 -71 26.5t-30 65.5q0 40 30 67t71 27q43 0 72.5 -26.5t29.5 -67.5q0 -39 -29.5 -65.5t-72.5 -26.5zM164 0v956h131v-956h-131zM336 -465
v125h92q215 0 211 283v1013h131v-1013q0 -408 -332 -408h-102z" />
    <glyph glyph-name="Jcircumflex" unicode="&#x134;" horiz-adv-x="567" 
d="M-8 1552l229 314h141l230 -314h-121l-180 213l-178 -213h-121zM-61 -477q-31 0 -127 14l14 129q47 -12 113 -12q76 0 132.5 24.5t89.5 69t48.5 100t15.5 123.5v1440h135v-1440q0 -95 -23 -173.5t-71.5 -141.5t-132 -98t-194.5 -35z" />
    <glyph glyph-name="jcircumflex" unicode="&#x135;" horiz-adv-x="475" 
d="M-55 1120l229 314h141l232 -314h-123l-178 211l-180 -211h-121zM180 956h131v-1013q0 -408 -331 -408h-103v125h92q215 0 211 283v1013z" />
    <glyph glyph-name="Kcommaaccent" unicode="&#x136;" horiz-adv-x="1120" 
d="M461 688l680 -688h-183l-616 621v-621h-133v1411h133v-663l528 663h168zM506 -80h133q1 -123 -43.5 -225t-114.5 -158l-82 33q61 74 87.5 155.5t19.5 194.5z" />
    <glyph glyph-name="kcommaaccent" unicode="&#x137;" horiz-adv-x="942" 
d="M426 541l530 -541h-178l-483 492v-492h-131v1495h131v-905l358 366h183zM420 -80h133q1 -123 -43.5 -225t-114.5 -158l-82 33q61 74 87.5 155.5t19.5 194.5z" />
    <glyph glyph-name="kgreenlandic" unicode="&#x138;" horiz-adv-x="901" 
d="M897 0h-186l-416 399v-399h-131v956h131v-428l381 428h172l-434 -489z" />
    <glyph glyph-name="Lacute" unicode="&#x139;" horiz-adv-x="991" 
d="M213 1552l199 314h157l-229 -314h-127zM209 0v1411h135v-1284h600v-127h-735z" />
    <glyph glyph-name="lacute" unicode="&#x13a;" horiz-adv-x="458" 
d="M166 1552l199 314h157l-229 -314h-127zM164 0v1495h131v-1495h-131z" />
    <glyph glyph-name="Lcommaaccent" unicode="&#x13b;" horiz-adv-x="991" 
d="M209 0v1411h135v-1284h600v-127h-735zM418 -463l-82 33q61 73 87 155t19 195h133q1 -124 -43 -226t-114 -157z" />
    <glyph glyph-name="lcommaaccent" unicode="&#x13c;" horiz-adv-x="458" 
d="M164 0v1495h131v-1495h-131zM141 -463l-82 33q61 74 87.5 155.5t19.5 194.5h133q1 -123 -43.5 -225t-114.5 -158z" />
    <glyph glyph-name="Lcaron" unicode="&#x13d;" horiz-adv-x="995" 
d="M209 0v1411h135v-1284h600v-127h-735zM647 1051l-90 24q54 78 75.5 157.5t12.5 178.5h131q0 -126 -33.5 -208.5t-95.5 -151.5z" />
    <glyph glyph-name="lcaron" unicode="&#x13e;" horiz-adv-x="499" 
d="M164 0v1495h131v-1495h-131zM487 1051l-90 24q54 79 76 158.5t12 177.5h131q1 -125 -32.5 -207.5t-96.5 -152.5z" />
    <glyph glyph-name="Lslash" unicode="&#x141;" horiz-adv-x="995" 
d="M348 127h600v-127h-735v537l-145 -93v111l145 92v764h135v-680l221 139v-110l-221 -139v-494z" />
    <glyph glyph-name="lslash" unicode="&#x142;" horiz-adv-x="618" 
d="M567 938v-111l-207 -131v-696h-131v614l-145 -92v111l145 92v770h131v-688z" />
    <glyph glyph-name="Nacute" unicode="&#x143;" horiz-adv-x="1413" 
d="M1006 1866l-230 -314h-127l199 314h158zM1071 1411h135v-1411h-139l-723 1176v-1176h-135v1411h141l721 -1173v1173z" />
    <glyph glyph-name="nacute" unicode="&#x144;" horiz-adv-x="1165" 
d="M885 1411l-230 -313h-127l199 313h158zM627 977q176 0 282.5 -112.5t106.5 -307.5v-557h-131v551q0 135 -76.5 216t-194.5 81q-60 0 -114.5 -18t-101 -54t-74.5 -99.5t-29 -146.5v-530h-131v956h131v-172q40 95 135.5 144t196.5 49z" />
    <glyph glyph-name="Ncommaaccent" unicode="&#x145;" horiz-adv-x="1413" 
d="M1071 1411h135v-1411h-139l-723 1176v-1176h-135v1411h141l721 -1173v1173zM643 -80h133q1 -123 -43.5 -225t-114.5 -158l-81 33q61 73 87 155t19 195z" />
    <glyph glyph-name="ncommaaccent" unicode="&#x146;" horiz-adv-x="1165" 
d="M627 977q176 0 282.5 -112.5t106.5 -307.5v-557h-131v551q0 135 -76.5 216t-194.5 81q-60 0 -114.5 -18t-101 -54t-74.5 -99.5t-29 -146.5v-530h-131v956h131v-172q40 95 135.5 144t196.5 49zM522 -80h133q1 -124 -43 -226t-114 -157l-82 33q61 73 87 155t19 195z" />
    <glyph glyph-name="Ncaron" unicode="&#x147;" horiz-adv-x="1413" 
d="M776 1552h-141l-229 314h120l179 -211l180 211h121zM1071 1411h135v-1411h-139l-723 1176v-1176h-135v1411h141l721 -1173v1173z" />
    <glyph glyph-name="ncaron" unicode="&#x148;" horiz-adv-x="1165" 
d="M655 1098h-141l-229 313h121l178 -211l180 211h121zM627 977q176 0 282.5 -112.5t106.5 -307.5v-557h-131v551q0 135 -76.5 216t-194.5 81q-60 0 -114.5 -18t-101 -54t-74.5 -99.5t-29 -146.5v-530h-131v956h131v-172q40 95 135.5 144t196.5 49z" />
    <glyph glyph-name="napostrophe" unicode="&#x149;" horiz-adv-x="1263" 
d="M266 1411q1 -125 -32.5 -207.5t-96.5 -152.5l-90 24q54 79 76 158.5t12 177.5h131zM725 977q176 0 282 -112.5t105 -307.5v-557h-129v551q0 136 -76.5 216.5t-195.5 80.5q-60 0 -114 -18t-100 -54t-74.5 -99.5t-29.5 -146.5v-530h-131v956h131v-172q38 95 134 144t198 49
z" />
    <glyph glyph-name="Eng" unicode="&#x14a;" horiz-adv-x="1413" 
d="M1071 1411h135v-1427q0 -95 -23.5 -173.5t-72 -141.5t-132 -98.5t-194.5 -35.5q-45 0 -127 16l15 130q50 -13 112 -13q76 0 132.5 25t89.5 69t49 99.5t16 122.5l-8 24l-719 1168v-1176h-135v1411h141l721 -1173v1173z" />
    <glyph glyph-name="eng" unicode="&#x14b;" horiz-adv-x="1165" 
d="M627 977q176 0 282.5 -112.5t106.5 -307.5v-614q0 -408 -334 -408h-100v125h92q211 0 211 283v608q0 135 -76.5 216t-194.5 81q-60 0 -114.5 -18t-101 -54t-74.5 -99.5t-29 -146.5v-530h-131v956h131v-172q40 95 135.5 144t196.5 49z" />
    <glyph glyph-name="Omacron" unicode="&#x14c;" horiz-adv-x="1640" 
d="M573 1645v116h496v-116h-496zM819 -20q-148 0 -280.5 57t-227 154t-150 230.5t-55.5 280.5q0 198 94 364.5t258 263.5t361 97t361 -97t258 -263.5t94 -364.5q0 -147 -55.5 -280.5t-150 -230.5t-227 -154t-280.5 -57zM819 106q160 0 293 80t209 217t76 299t-76 299.5
t-209 218t-293 80.5q-120 0 -227.5 -47.5t-184 -128t-121 -191t-44.5 -231.5t44.5 -231t121 -190t184 -127.5t227.5 -47.5z" />
    <glyph glyph-name="omacron" unicode="&#x14d;" horiz-adv-x="1196" 
d="M352 1190v117h496v-117h-496zM598 -20q-136 0 -249.5 61t-182 177t-68.5 263t68.5 261.5t181.5 174.5t250 60t250.5 -60t182.5 -174.5t69 -261.5t-69 -263t-183 -177t-250 -61zM598 104q155 0 263 105.5t108 271.5q0 165 -108 268t-263 103q-156 0 -262.5 -103
t-106.5 -268q0 -167 106.5 -272t262.5 -105z" />
    <glyph glyph-name="Ohungarumlaut" unicode="&#x150;" horiz-adv-x="1640" 
d="M639 1552l178 314h131l-192 -314h-117zM895 1552l188 314h136l-209 -314h-115zM819 -20q-148 0 -280.5 57t-227 154t-150 230.5t-55.5 280.5q0 198 94 364.5t258 263.5t361 97t361 -97t258 -263.5t94 -364.5q0 -147 -55.5 -280.5t-150 -230.5t-227 -154t-280.5 -57z
M819 106q160 0 293 80t209 217t76 299t-76 299.5t-209 218t-293 80.5q-120 0 -227.5 -47.5t-184 -128t-121 -191t-44.5 -231.5t44.5 -231t121 -190t184 -127.5t227.5 -47.5z" />
    <glyph glyph-name="ohungarumlaut" unicode="&#x151;" horiz-adv-x="1196" 
d="M418 1098l178 313h131l-192 -313h-117zM674 1098l188 313h135l-209 -313h-114zM598 -20q-136 0 -249.5 61t-182 177t-68.5 263t68.5 261.5t181.5 174.5t250 60t250.5 -60t182.5 -174.5t69 -261.5t-69 -263t-183 -177t-250 -61zM598 104q155 0 263 105.5t108 271.5
q0 165 -108 268t-263 103q-156 0 -262.5 -103t-106.5 -268q0 -167 106.5 -272t262.5 -105z" />
    <glyph glyph-name="OE" unicode="&#x152;" horiz-adv-x="2334" 
d="M1534 127h692v-127h-827v287q-96 -142 -248 -224.5t-332 -82.5q-148 0 -280.5 57t-227 154t-150 230.5t-55.5 280.5q0 198 94 364.5t258 263.5t361 97q180 0 332 -82.5t248 -224.5v291h805v-127h-670v-528h586v-127h-586v-502zM819 106q160 0 293 80t209 217t76 299
t-76 299.5t-209 218t-293 80.5q-120 0 -227.5 -47.5t-184 -128t-121 -191t-44.5 -231.5t44.5 -231t121 -190t184 -127.5t227.5 -47.5z" />
    <glyph glyph-name="oe" unicode="&#x153;" horiz-adv-x="2017" 
d="M1927 481q0 -9 -1 -28.5t-1 -28.5h-823q15 -150 111.5 -235t244.5 -85q99 0 181.5 43t129.5 121l113 -49q-60 -113 -175 -176t-251 -63q-138 0 -250.5 65t-173.5 180q-64 -116 -179.5 -180.5t-254.5 -64.5q-136 0 -249.5 61t-182 177t-68.5 263t68.5 261.5t181.5 174.5
t250 60q139 0 254.5 -63.5t179.5 -178.5q61 115 173 178.5t251 63.5q206 0 338.5 -136t132.5 -360zM598 104q155 0 263 105.5t108 271.5q0 165 -108 268t-263 103q-156 0 -262.5 -103t-106.5 -268q0 -167 106.5 -272t262.5 -105zM1104 537h692q-13 147 -106.5 231t-233.5 84
q-144 0 -239 -82t-113 -233z" />
    <glyph glyph-name="Racute" unicode="&#x154;" horiz-adv-x="1257" 
d="M930 1866l-230 -314h-127l199 314h158zM1141 981q0 -66 -13.5 -126.5t-44.5 -115.5t-76.5 -95t-114 -64.5t-153.5 -26.5l391 -553h-163l-387 553h-236v-553h-135v1411h524q86 0 155.5 -24t116 -64.5t77.5 -96.5t45 -117t14 -128zM344 1284v-606h356q157 0 231.5 83.5
t74.5 219.5q0 132 -70.5 217.5t-200.5 85.5h-391z" />
    <glyph glyph-name="racute" unicode="&#x155;" horiz-adv-x="765" 
d="M688 1411l-229 -313h-127l198 313h158zM596 977q92 0 152 -29l-25 -125q-66 27 -129 27q-66 0 -118 -28.5t-85 -75.5t-54.5 -112t-30.5 -132.5t-9 -141.5v-360h-133v956h133v-233q36 123 112 188.5t187 65.5z" />
    <glyph glyph-name="Rcommaaccent" unicode="&#x156;" horiz-adv-x="1257" 
d="M1141 981q0 -66 -13.5 -126.5t-44.5 -115.5t-76.5 -95t-114 -64.5t-153.5 -26.5l391 -553h-163l-387 553h-236v-553h-135v1411h524q86 0 155.5 -24t116 -64.5t77.5 -96.5t45 -117t14 -128zM344 1284v-606h356q157 0 231.5 83.5t74.5 219.5q0 132 -70.5 217.5t-200.5 85.5
h-391zM567 -80h133q1 -124 -43 -226t-114 -157l-82 33q61 73 87 155t19 195z" />
    <glyph glyph-name="rcommaaccent" unicode="&#x157;" horiz-adv-x="765" 
d="M596 977q92 0 152 -29l-25 -125q-66 27 -129 27q-66 0 -118 -28.5t-85 -75.5t-54.5 -112t-30.5 -132.5t-9 -141.5v-360h-133v956h133v-233q36 123 112 188.5t187 65.5zM59 -430q61 73 87 154.5t20 195.5h133q0 -123 -45 -225t-113 -158z" />
    <glyph glyph-name="Rcaron" unicode="&#x158;" horiz-adv-x="1257" 
d="M700 1552h-141l-229 314h121l178 -211l180 211h121zM1141 981q0 -66 -13.5 -126.5t-44.5 -115.5t-76.5 -95t-114 -64.5t-153.5 -26.5l391 -553h-163l-387 553h-236v-553h-135v1411h524q86 0 155.5 -24t116 -64.5t77.5 -96.5t45 -117t14 -128zM344 1284v-606h356
q157 0 231.5 83.5t74.5 219.5q0 132 -70.5 217.5t-200.5 85.5h-391z" />
    <glyph glyph-name="rcaron" unicode="&#x159;" horiz-adv-x="765" 
d="M459 1098h-142l-229 313h121l178 -211l180 211h121zM596 977q92 0 152 -29l-25 -125q-66 27 -129 27q-66 0 -118 -28.5t-85 -75.5t-54.5 -112t-30.5 -132.5t-9 -141.5v-360h-133v956h133v-233q36 123 112 188.5t187 65.5z" />
    <glyph glyph-name="Sacute" unicode="&#x15a;" horiz-adv-x="1159" 
d="M522 1552l199 314h158l-230 -314h-127zM586 -20q-100 0 -188 33.5t-148.5 89t-96.5 127.5t-40 149h133q11 -111 104 -192t236 -81q158 0 248 84t90 193q0 192 -277 262l-190 45q-334 80 -334 352q0 113 63.5 202t165.5 136t219 47q184 0 308.5 -105t130.5 -278h-136
q-6 116 -92 186t-215 70q-125 0 -217 -72t-92 -186q0 -31 7 -57.5t28.5 -61t71.5 -63t124 -45.5l191 -45q176 -44 277.5 -139t101.5 -242q0 -60 -19 -118.5t-58.5 -111t-95 -92.5t-133 -63.5t-167.5 -23.5z" />
    <glyph glyph-name="sacute" unicode="&#x15b;" horiz-adv-x="878" 
d="M381 1098l199 313h157l-229 -313h-127zM434 -20q-85 0 -160 30.5t-127.5 95.5t-60.5 152h121q12 -66 71 -114t156 -48q101 0 161 45.5t60 118.5q0 115 -151 154l-137 32q-113 28 -178.5 89.5t-65.5 173.5q0 117 89 192.5t226 75.5q82 0 151 -28.5t114.5 -88.5t48.5 -143
h-127q-4 63 -58 103t-127 40q-83 0 -134.5 -42.5t-51.5 -110.5q0 -112 147 -146l142 -35q89 -21 145 -65t77 -93.5t21 -109.5q0 -125 -100 -201.5t-252 -76.5z" />
    <glyph glyph-name="Scedilla" unicode="&#x15e;" horiz-adv-x="1159" 
d="M1059 389q0 -144 -104 -261.5t-287 -141.5l51 -121q18 -41 18 -82q0 -86 -54 -139.5t-140 -53.5q-90 0 -144.5 58.5t-54.5 154.5h96q3 -53 31.5 -84.5t71.5 -31.5q44 0 70 27t26 71q0 24 -8 43l-58 152q-98 2 -183.5 36.5t-144.5 90t-93.5 126.5t-38.5 146h133
q11 -111 104 -192t236 -81q158 0 248 84t90 193q0 192 -277 262l-190 45q-334 80 -334 352q0 113 63.5 202t165.5 136t219 47q184 0 308.5 -105t130.5 -278h-136q-6 116 -92 186t-215 70q-125 0 -217 -72t-92 -186q0 -31 7 -57.5t28.5 -61t71.5 -63t124 -45.5l191 -45
q176 -44 277.5 -139t101.5 -242z" />
    <glyph glyph-name="scedilla" unicode="&#x15f;" horiz-adv-x="878" 
d="M786 258q0 -105 -71.5 -176.5t-188.5 -93.5l52 -123q18 -41 18 -82q0 -86 -54.5 -139.5t-140.5 -53.5q-90 0 -144 58.5t-54 154.5h96q3 -54 31 -85t71 -31q44 0 70.5 27t26.5 71q0 22 -9 43l-57 152q-85 0 -159.5 30.5t-126.5 95.5t-60 152h121q12 -66 71 -114t156 -48
q101 0 161 45.5t60 118.5q0 115 -151 154l-137 32q-113 28 -178.5 89.5t-65.5 173.5q0 117 89 192.5t226 75.5q82 0 151 -28.5t114.5 -88.5t48.5 -143h-127q-4 63 -58 103t-127 40q-83 0 -134.5 -42.5t-51.5 -110.5q0 -112 147 -146l142 -35q89 -21 145 -65t77 -93.5
t21 -109.5z" />
    <glyph glyph-name="Scaron" unicode="&#x160;" horiz-adv-x="1159" 
d="M508 1552l-229 314h120l179 -211l180 211h121l-230 -314h-141zM586 -20q-100 0 -188 33.5t-148.5 89t-96.5 127.5t-40 149h133q11 -111 104 -192t236 -81q158 0 248 84t90 193q0 192 -277 262l-190 45q-334 80 -334 352q0 113 63.5 202t165.5 136t219 47
q184 0 308.5 -105t130.5 -278h-136q-6 116 -92 186t-215 70q-125 0 -217 -72t-92 -186q0 -31 7 -57.5t28.5 -61t71.5 -63t124 -45.5l191 -45q176 -44 277.5 -139t101.5 -242q0 -60 -19 -118.5t-58.5 -111t-95 -92.5t-133 -63.5t-167.5 -23.5z" />
    <glyph glyph-name="scaron" unicode="&#x161;" horiz-adv-x="878" 
d="M367 1098l-230 313h121l178 -211l180 211h121l-229 -313h-141zM434 -20q-85 0 -160 30.5t-127.5 95.5t-60.5 152h121q12 -66 71 -114t156 -48q101 0 161 45.5t60 118.5q0 115 -151 154l-137 32q-113 28 -178.5 89.5t-65.5 173.5q0 117 89 192.5t226 75.5q82 0 151 -28.5
t114.5 -88.5t48.5 -143h-127q-4 63 -58 103t-127 40q-83 0 -134.5 -42.5t-51.5 -110.5q0 -112 147 -146l142 -35q89 -21 145 -65t77 -93.5t21 -109.5q0 -125 -100 -201.5t-252 -76.5z" />
    <glyph glyph-name="uni0162" unicode="&#x162;" horiz-adv-x="1120" 
d="M1077 1284h-450v-1241l75 -178q21 -48 21 -82q0 -86 -54.5 -139.5t-142.5 -53.5q-89 0 -143.5 59t-54.5 154h96q3 -53 31.5 -84.5t70.5 -31.5q44 0 71.5 27t27.5 71q0 17 -11 43l-63 172h-59v1284h-449v127h1034v-127z" />
    <glyph glyph-name="uni0163" unicode="&#x163;" horiz-adv-x="616" 
d="M578 844h-220v-809l72 -170q21 -48 21 -82q0 -86 -54.5 -139.5t-140.5 -53.5q-90 0 -144.5 58.5t-54.5 154.5h97q1 -53 29.5 -84.5t72.5 -31.5t70 27t26 71q0 24 -8 43l-68 172h-47v844h-174v112h174v381h129v-381h220v-112z" />
    <glyph glyph-name="Tcaron" unicode="&#x164;" horiz-adv-x="1120" 
d="M631 1552h-142l-229 314h121l178 -211l180 211h121zM1077 1411v-127h-450v-1284h-135v1284h-449v127h1034z" />
    <glyph glyph-name="tcaron" unicode="&#x165;" horiz-adv-x="616" 
d="M643 1411h131q0 -126 -33.5 -208.5t-95.5 -151.5l-90 24q54 78 75.5 157.5t12.5 178.5zM358 1337v-381h220v-112h-220v-844h-129v844h-174v112h174v381h129z" />
    <glyph glyph-name="Tbar" unicode="&#x166;" horiz-adv-x="1155" 
d="M1096 1284h-451v-496h264v-100h-264v-688h-135v688h-264v100h264v496h-449v127h1035v-127z" />
    <glyph glyph-name="tbar" unicode="&#x167;" horiz-adv-x="618" 
d="M578 844h-220v-305h136v-95h-136v-444h-129v444h-120v95h120v305h-174v112h174v381h129v-381h220v-112z" />
    <glyph glyph-name="Umacron" unicode="&#x16a;" horiz-adv-x="1388" 
d="M446 1645v116h496v-116h-496zM694 -20q-102 0 -193.5 34.5t-160.5 96.5t-109.5 156.5t-40.5 207.5v936h136v-936q0 -171 105.5 -268.5t262.5 -97.5q102 0 184.5 41.5t133.5 126t51 198.5v936h135v-936q0 -113 -40.5 -207.5t-109.5 -156.5t-160.5 -96.5t-193.5 -34.5z" />
    <glyph glyph-name="umacron" unicode="&#x16b;" horiz-adv-x="1165" 
d="M834 1307v-117h-496v117h496zM870 956h131v-956h-131v168q-27 -64 -85 -108t-120 -62t-126 -18q-176 0 -282 112t-105 307v557h131v-550q0 -136 75.5 -216.5t194.5 -80.5q47 0 91 10.5t85.5 35t72 60t49 90t19.5 121.5v530z" />
    <glyph glyph-name="Uring" unicode="&#x16e;" horiz-adv-x="1388" 
d="M690 1559q-80 0 -136 56.5t-56 137.5q0 82 56 139.5t136 57.5q83 0 141 -57.5t58 -139.5t-58 -138t-141 -56zM690 1645q47 0 80 31t33 77t-33 78.5t-80 32.5q-44 0 -75 -32.5t-31 -78.5t31 -77t75 -31zM694 -20q-102 0 -193.5 34.5t-160.5 96.5t-109.5 156.5t-40.5 207.5
v936h136v-936q0 -171 105.5 -268.5t262.5 -97.5q102 0 184.5 41.5t133.5 126t51 198.5v936h135v-936q0 -113 -40.5 -207.5t-109.5 -156.5t-160.5 -96.5t-193.5 -34.5z" />
    <glyph glyph-name="uring" unicode="&#x16f;" horiz-adv-x="1165" 
d="M582 1104q-80 0 -136.5 56.5t-56.5 137.5q0 82 56.5 139.5t136.5 57.5q83 0 140.5 -57.5t57.5 -139.5t-57.5 -138t-140.5 -56zM582 1409q-44 0 -75.5 -32.5t-31.5 -78.5t31.5 -77t75.5 -31q47 0 79.5 31t32.5 77t-32.5 78.5t-79.5 32.5zM870 956h131v-956h-131v168
q-27 -64 -85 -108t-120 -62t-126 -18q-176 0 -282 112t-105 307v557h131v-550q0 -136 75.5 -216.5t194.5 -80.5q47 0 91 10.5t85.5 35t72 60t49 90t19.5 121.5v530z" />
    <glyph glyph-name="Uhungarumlaut" unicode="&#x170;" horiz-adv-x="1388" 
d="M512 1552l178 314h131l-192 -314h-117zM768 1552l188 314h136l-209 -314h-115zM694 -20q-102 0 -193.5 34.5t-160.5 96.5t-109.5 156.5t-40.5 207.5v936h136v-936q0 -171 105.5 -268.5t262.5 -97.5q102 0 184.5 41.5t133.5 126t51 198.5v936h135v-936
q0 -113 -40.5 -207.5t-109.5 -156.5t-160.5 -96.5t-193.5 -34.5z" />
    <glyph glyph-name="uhungarumlaut" unicode="&#x171;" horiz-adv-x="1165" 
d="M713 1411l-193 -313h-117l179 313h131zM774 1098h-115l189 313h135zM870 956h131v-956h-131v168q-27 -64 -85 -108t-120 -62t-126 -18q-176 0 -282 112t-105 307v557h131v-550q0 -136 75.5 -216.5t194.5 -80.5q47 0 91 10.5t85.5 35t72 60t49 90t19.5 121.5v530z" />
    <glyph glyph-name="Uogonek" unicode="&#x172;" horiz-adv-x="1388" 
d="M1063 1411h135v-936q0 -108 -37 -199t-101 -153t-149 -99t-182 -42l-57 -154q-8 -19 -8 -43q0 -45 26.5 -71.5t71.5 -26.5q42 0 70.5 31.5t31.5 84.5h94q0 -96 -53.5 -154.5t-142.5 -58.5q-88 0 -142.5 53.5t-54.5 139.5q0 34 21 82l49 117q-192 21 -318.5 153
t-126.5 340v936h136v-936q0 -171 105.5 -268.5t262.5 -97.5q102 0 184.5 41.5t133.5 126t51 198.5v936z" />
    <glyph glyph-name="uogonek" unicode="&#x173;" horiz-adv-x="1165" 
d="M1075 -197h96q0 -96 -54 -154.5t-144 -58.5q-86 0 -140.5 53.5t-54.5 139.5q0 38 19 82l73 174v129q-27 -64 -85 -108t-120 -62t-126 -18q-176 0 -282 112t-105 307v557h131v-550q0 -136 75.5 -216.5t194.5 -80.5q47 0 91 10.5t85.5 35t72 60t49 90t19.5 121.5v530h131
v-956h-51l-65 -172q-8 -19 -8 -43q0 -44 26 -71t70 -27q43 0 71 31t31 85z" />
    <glyph glyph-name="Wcircumflex" unicode="&#x174;" horiz-adv-x="1853" 
d="M926 1765l-178 -213h-121l229 314h141l230 -314h-121zM1669 1411h143l-477 -1411h-127l-282 979l-281 -979h-127l-477 1411h143l396 -1200l288 995h117l289 -1001z" />
    <glyph glyph-name="wcircumflex" unicode="&#x175;" horiz-adv-x="1615" 
d="M811 1311l-178 -213h-121l229 313h142l229 -313h-121zM1434 956h139l-356 -956h-115l-297 782l-285 -782h-114l-367 956h141l281 -759l278 759h135l281 -757z" />
    <glyph glyph-name="Ycircumflex" unicode="&#x176;" horiz-adv-x="1232" 
d="M614 1765l-178 -213h-121l230 314h141l229 -314h-120zM1059 1411h162l-539 -749v-662h-135v662l-531 749h160l440 -618z" />
    <glyph glyph-name="ycircumflex" unicode="&#x177;" horiz-adv-x="1019" 
d="M512 1311l-178 -213h-121l229 313h142l229 -313h-121zM842 956h141l-600 -1421h-139l196 477l-395 944h141l326 -782z" />
    <glyph glyph-name="Ydieresis" unicode="&#x178;" horiz-adv-x="1232" 
d="M440 1614q-40 0 -69 26.5t-29 65.5q0 41 28.5 67.5t69.5 26.5q42 0 71.5 -26.5t29.5 -67.5q0 -39 -29.5 -65.5t-71.5 -26.5zM786 1614q-40 0 -69 26.5t-29 65.5q0 41 28.5 67.5t69.5 26.5q42 0 71.5 -26.5t29.5 -67.5q0 -39 -29.5 -65.5t-71.5 -26.5zM1059 1411h162
l-539 -749v-662h-135v662l-531 749h160l440 -618z" />
    <glyph glyph-name="Zacute" unicode="&#x179;" horiz-adv-x="1122" 
d="M862 1866l-229 -314h-127l199 314h157zM1034 1411v-111l-778 -1173h778v-127h-952v109l778 1175h-762v127h936z" />
    <glyph glyph-name="zacute" unicode="&#x17a;" horiz-adv-x="991" 
d="M795 1411l-230 -313h-127l199 313h158zM899 956v-104l-629 -727h629v-125h-815v102l623 729h-605v125h797z" />
    <glyph glyph-name="Zdotaccent" unicode="&#x17b;" horiz-adv-x="1122" 
d="M563 1604q-42 0 -71 26.5t-29 65.5q0 41 29 67.5t71 26.5q43 0 72 -26.5t29 -67.5q0 -40 -29 -66t-72 -26zM1034 1411v-111l-778 -1173h778v-127h-952v109l778 1175h-762v127h936z" />
    <glyph glyph-name="zdotaccent" unicode="&#x17c;" horiz-adv-x="991" 
d="M496 1149q-42 0 -71.5 26.5t-29.5 65.5q0 41 29.5 67.5t71.5 26.5q43 0 71.5 -26.5t28.5 -67.5q0 -40 -28.5 -66t-71.5 -26zM899 956v-104l-629 -727h629v-125h-815v102l623 729h-605v125h797z" />
    <glyph glyph-name="Zcaron" unicode="&#x17d;" horiz-adv-x="1122" 
d="M633 1552h-141l-230 314h121l178 -211l180 211h121zM1034 1411v-111l-778 -1173h778v-127h-952v109l778 1175h-762v127h936z" />
    <glyph glyph-name="zcaron" unicode="&#x17e;" horiz-adv-x="991" 
d="M565 1098h-141l-229 313h120l179 -211l180 211h121zM899 956v-104l-629 -727h629v-125h-815v102l623 729h-605v125h797z" />
    <glyph glyph-name="longs" unicode="&#x17f;" horiz-adv-x="530" 
d="M580 1495h90v-125h-72q-126 0 -178.5 -73t-52.5 -201v-1096h-131v844h-189v112h189v125q0 93 19 166.5t59 130t107.5 87t158.5 30.5z" />
    <glyph glyph-name="florin" unicode="&#x192;" horiz-adv-x="1073" 
d="M922 1348h116l-24 -123h-96q-60 0 -106.5 -22.5t-76 -64.5t-47 -88t-29.5 -106l-22 -113h233v-120h-256l-82 -424q-14 -73 -33 -133.5t-50.5 -118t-72 -96.5t-99 -62.5t-130.5 -23.5l-133 2l25 116h98q203 0 256 287l90 453h-174v120h199l22 117q17 87 43 153.5t70 125
t114.5 90t164.5 31.5z" />
    <glyph glyph-name="uni01CD" unicode="&#x1cd;" horiz-adv-x="1247" 
d="M694 1552h-141l-229 314h120l179 -211l180 211h121zM1092 0l-142 375h-651l-141 -375h-144l539 1411h143l537 -1411h-141zM346 496h557l-278 735z" />
    <glyph glyph-name="uni01CE" unicode="&#x1ce;" horiz-adv-x="1259" 
d="M698 1098h-141l-229 313h121l178 -211l180 211h121zM965 956h131v-956h-131v186q-53 -97 -156 -151.5t-225 -54.5q-132 0 -243 63.5t-177 178.5t-66 257q0 215 141 356.5t345 141.5q123 0 225 -54.5t156 -150.5v184zM594 104q153 0 262 104.5t109 266.5q0 111 -53.5 199
t-137.5 133t-180 45q-152 0 -258.5 -107t-106.5 -264q0 -159 106.5 -268t258.5 -109z" />
    <glyph glyph-name="uni01CF" unicode="&#x1cf;" horiz-adv-x="550" 
d="M205 1552l-230 314h121l178 -211l181 211h120l-229 -314h-141zM209 0v1411h135v-1411h-135z" />
    <glyph glyph-name="uni01D0" unicode="&#x1d0;" horiz-adv-x="458" 
d="M158 1098l-230 313h121l178 -211l181 211h120l-229 -313h-141zM164 0v956h131v-956h-131z" />
    <glyph glyph-name="uni01D1" unicode="&#x1d1;" horiz-adv-x="1640" 
d="M750 1552l-230 314h121l178 -211l180 211h121l-229 -314h-141zM819 -20q-148 0 -280.5 57t-227 154t-150 230.5t-55.5 280.5q0 198 94 364.5t258 263.5t361 97t361 -97t258 -263.5t94 -364.5q0 -147 -55.5 -280.5t-150 -230.5t-227 -154t-280.5 -57zM819 106
q160 0 293 80t209 217t76 299t-76 299.5t-209 218t-293 80.5q-120 0 -227.5 -47.5t-184 -128t-121 -191t-44.5 -231.5t44.5 -231t121 -190t184 -127.5t227.5 -47.5z" />
    <glyph glyph-name="uni01D2" unicode="&#x1d2;" horiz-adv-x="1196" 
d="M528 1098l-229 313h121l178 -211l180 211h121l-229 -313h-142zM598 -20q-136 0 -249.5 61t-182 177t-68.5 263t68.5 261.5t181.5 174.5t250 60t250.5 -60t182.5 -174.5t69 -261.5t-69 -263t-183 -177t-250 -61zM598 104q155 0 263 105.5t108 271.5q0 165 -108 268
t-263 103q-156 0 -262.5 -103t-106.5 -268q0 -167 106.5 -272t262.5 -105z" />
    <glyph glyph-name="uni01D3" unicode="&#x1d3;" horiz-adv-x="1388" 
d="M623 1552l-230 314h121l178 -211l180 211h121l-229 -314h-141zM694 -20q-102 0 -193.5 34.5t-160.5 96.5t-109.5 156.5t-40.5 207.5v936h136v-936q0 -171 105.5 -268.5t262.5 -97.5q102 0 184.5 41.5t133.5 126t51 198.5v936h135v-936q0 -113 -40.5 -207.5t-109.5 -156.5
t-160.5 -96.5t-193.5 -34.5z" />
    <glyph glyph-name="uni01D4" unicode="&#x1d4;" horiz-adv-x="1165" 
d="M655 1098h-141l-229 313h121l178 -211l180 211h121zM870 956h131v-956h-131v168q-27 -64 -85 -108t-120 -62t-126 -18q-176 0 -282 112t-105 307v557h131v-550q0 -136 75.5 -216.5t194.5 -80.5q47 0 91 10.5t85.5 35t72 60t49 90t19.5 121.5v530z" />
    <glyph glyph-name="uni01D5" unicode="&#x1d5;" horiz-adv-x="1388" 
d="M446 1954v117h496v-117h-496zM518 1614q-40 0 -69 26.5t-29 65.5q0 41 28.5 67.5t69.5 26.5q42 0 71 -26.5t29 -67.5q0 -39 -29 -65.5t-71 -26.5zM864 1614q-40 0 -69 26.5t-29 65.5q0 41 28.5 67.5t69.5 26.5q42 0 71.5 -26.5t29.5 -67.5q0 -39 -29.5 -65.5t-71.5 -26.5
zM694 -20q-102 0 -193.5 34.5t-160.5 96.5t-109.5 156.5t-40.5 207.5v936h136v-936q0 -171 105.5 -268.5t262.5 -97.5q102 0 184.5 41.5t133.5 126t51 198.5v936h135v-936q0 -113 -40.5 -207.5t-109.5 -156.5t-160.5 -96.5t-193.5 -34.5z" />
    <glyph glyph-name="uni01D6" unicode="&#x1d6;" horiz-adv-x="1165" 
d="M834 1626v-117h-496v117h496zM410 1159q-40 0 -69.5 26.5t-29.5 65.5q0 41 29 68t70 27q42 0 71 -27t29 -68q0 -39 -29 -65.5t-71 -26.5zM756 1346q42 0 71 -27t29 -68q0 -39 -29 -65.5t-71 -26.5q-40 0 -69.5 26.5t-29.5 65.5q0 41 29 68t70 27zM870 956h131v-956h-131
v168q-27 -64 -85 -108t-120 -62t-126 -18q-176 0 -282 112t-105 307v557h131v-550q0 -136 75.5 -216.5t194.5 -80.5q47 0 91 10.5t85.5 35t72 60t49 90t19.5 121.5v530z" />
    <glyph glyph-name="uni01D7" unicode="&#x1d7;" horiz-adv-x="1388" 
d="M637 1886l199 314h157l-229 -314h-127zM518 1614q-40 0 -69 26.5t-29 65.5q0 41 28.5 67.5t69.5 26.5q42 0 71 -26.5t29 -67.5q0 -39 -29 -65.5t-71 -26.5zM864 1614q-40 0 -69 26.5t-29 65.5q0 41 28.5 67.5t69.5 26.5q42 0 71.5 -26.5t29.5 -67.5q0 -39 -29.5 -65.5
t-71.5 -26.5zM694 -20q-102 0 -193.5 34.5t-160.5 96.5t-109.5 156.5t-40.5 207.5v936h136v-936q0 -171 105.5 -268.5t262.5 -97.5q102 0 184.5 41.5t133.5 126t51 198.5v936h135v-936q0 -113 -40.5 -207.5t-109.5 -156.5t-160.5 -96.5t-193.5 -34.5z" />
    <glyph glyph-name="uni01D8" unicode="&#x1d8;" horiz-adv-x="1165" 
d="M885 1749l-230 -313h-127l199 313h158zM410 1159q-40 0 -69.5 26.5t-29.5 65.5q0 41 29 68t70 27q42 0 71 -27t29 -68q0 -39 -29 -65.5t-71 -26.5zM657 1251q0 41 29 68t70 27q42 0 71 -27t29 -68q0 -39 -29 -65.5t-71 -26.5q-40 0 -69.5 26.5t-29.5 65.5zM870 956h131
v-956h-131v168q-27 -64 -85 -108t-120 -62t-126 -18q-176 0 -282 112t-105 307v557h131v-550q0 -136 75.5 -216.5t194.5 -80.5q47 0 91 10.5t85.5 35t72 60t49 90t19.5 121.5v530z" />
    <glyph glyph-name="uni01D9" unicode="&#x1d9;" horiz-adv-x="1388" 
d="M623 1886l-230 314h121l178 -211l180 211h121l-229 -314h-141zM518 1614q-40 0 -69 26.5t-29 65.5q0 41 28.5 67.5t69.5 26.5q42 0 71 -26.5t29 -67.5q0 -39 -29 -65.5t-71 -26.5zM864 1614q-40 0 -69 26.5t-29 65.5q0 41 28.5 67.5t69.5 26.5q42 0 71.5 -26.5
t29.5 -67.5q0 -39 -29.5 -65.5t-71.5 -26.5zM694 -20q-102 0 -193.5 34.5t-160.5 96.5t-109.5 156.5t-40.5 207.5v936h136v-936q0 -171 105.5 -268.5t262.5 -97.5q102 0 184.5 41.5t133.5 126t51 198.5v936h135v-936q0 -113 -40.5 -207.5t-109.5 -156.5t-160.5 -96.5
t-193.5 -34.5z" />
    <glyph glyph-name="uni01DA" unicode="&#x1da;" horiz-adv-x="1165" 
d="M655 1436h-141l-229 313h121l178 -211l180 211h121zM311 1251q0 41 29 68t70 27q42 0 71 -27t29 -68q0 -39 -29 -65.5t-71 -26.5q-40 0 -69.5 26.5t-29.5 65.5zM657 1251q0 41 29 68t70 27q42 0 71 -27t29 -68q0 -39 -29 -65.5t-71 -26.5q-40 0 -69.5 26.5t-29.5 65.5z
M870 956h131v-956h-131v168q-27 -64 -85 -108t-120 -62t-126 -18q-176 0 -282 112t-105 307v557h131v-550q0 -136 75.5 -216.5t194.5 -80.5q47 0 91 10.5t85.5 35t72 60t49 90t19.5 121.5v530z" />
    <glyph glyph-name="uni01DB" unicode="&#x1db;" horiz-adv-x="1388" 
d="M633 1886l-227 314h159l195 -314h-127zM518 1614q-40 0 -69 26.5t-29 65.5q0 41 28.5 67.5t69.5 26.5q42 0 71 -26.5t29 -67.5q0 -39 -29 -65.5t-71 -26.5zM864 1614q-40 0 -69 26.5t-29 65.5q0 41 28.5 67.5t69.5 26.5q42 0 71.5 -26.5t29.5 -67.5q0 -39 -29.5 -65.5
t-71.5 -26.5zM694 -20q-102 0 -193.5 34.5t-160.5 96.5t-109.5 156.5t-40.5 207.5v936h136v-936q0 -171 105.5 -268.5t262.5 -97.5q102 0 184.5 41.5t133.5 126t51 198.5v936h135v-936q0 -113 -40.5 -207.5t-109.5 -156.5t-160.5 -96.5t-193.5 -34.5z" />
    <glyph glyph-name="uni01DC" unicode="&#x1dc;" horiz-adv-x="1165" 
d="M651 1436h-127l-227 313h160zM311 1251q0 41 29 68t70 27q42 0 71 -27t29 -68q0 -39 -29 -65.5t-71 -26.5q-40 0 -69.5 26.5t-29.5 65.5zM756 1159q-40 0 -69.5 26.5t-29.5 65.5q0 41 29 68t70 27q42 0 71 -27t29 -68q0 -39 -29 -65.5t-71 -26.5zM870 956h131v-956h-131
v168q-27 -64 -85 -108t-120 -62t-126 -18q-176 0 -282 112t-105 307v557h131v-550q0 -136 75.5 -216.5t194.5 -80.5q47 0 91 10.5t85.5 35t72 60t49 90t19.5 121.5v530z" />
    <glyph glyph-name="uni01E3" unicode="&#x1e3;" horiz-adv-x="1867" 
d="M1180 1307v-117h-496v117h496zM1778 481q0 -9 -1 -28.5t-1 -28.5h-824q17 -145 116 -232.5t241 -87.5q99 0 182.5 43.5t128.5 120.5l115 -49q-62 -114 -176.5 -176.5t-251.5 -62.5q-133 0 -244 61t-176 170q-191 -231 -457 -231q-155 0 -250.5 76.5t-95.5 205.5
t100.5 211t278.5 82q90 0 186 -21t170 -57v105q0 135 -79 203.5t-222 68.5q-178 0 -297 -119l-82 82q48 60 120 98t135.5 50t131.5 12q290 0 383 -199q64 95 168.5 147t229.5 52q206 0 338.5 -136t132.5 -360zM954 537h693q-13 147 -106.5 231t-233.5 84q-153 0 -244 -84.5
t-109 -230.5zM428 98q110 0 230 63t178 154l-17 52q-77 39 -172.5 59t-175.5 20q-128 0 -195 -53t-67 -127t59 -121t160 -47z" />
    <glyph glyph-name="Aringacute" unicode="&#x1fa;" horiz-adv-x="1247" 
d="M621 1559q-80 0 -136.5 56.5t-56.5 137.5q0 67 39 119.5t100 69.5l97 163h157l-125 -170q56 -24 89.5 -72.5t33.5 -109.5q0 -82 -57.5 -138t-140.5 -56zM621 1864q-44 0 -75.5 -32.5t-31.5 -78.5q0 -45 31 -76.5t76 -31.5q47 0 79.5 31t32.5 77t-32.5 78.5t-79.5 32.5z
M1092 0l-142 375h-651l-141 -375h-144l539 1411h143l537 -1411h-141zM346 496h557l-278 735z" />
    <glyph glyph-name="aringacute" unicode="&#x1fb;" horiz-adv-x="1259" 
d="M625 1104q-80 0 -136.5 56.5t-56.5 137.5q0 75 49 131.5t121 63.5l100 162h158l-139 -182q47 -27 74.5 -73t27.5 -102q0 -82 -57 -138t-141 -56zM625 1409q-43 0 -75 -33t-32 -78t32 -76.5t75 -31.5q47 0 80.5 31t33.5 77t-33.5 78.5t-80.5 32.5zM965 956h131v-956h-131
v186q-53 -97 -156 -151.5t-225 -54.5q-132 0 -243 63.5t-177 178.5t-66 257q0 215 141 356.5t345 141.5q123 0 225 -54.5t156 -150.5v184zM594 104q153 0 262 104.5t109 266.5q0 111 -53.5 199t-137.5 133t-180 45q-152 0 -258.5 -107t-106.5 -264q0 -159 106.5 -268
t258.5 -109z" />
    <glyph glyph-name="AEacute" unicode="&#x1fc;" horiz-adv-x="1894" 
d="M1245 1866l-229 -314h-127l198 314h158zM1096 127h692v-127h-825v375h-611l-231 -375h-154l873 1411h923v-127h-667v-528h583v-127h-583v-502zM432 504h531v778h-48z" />
    <glyph glyph-name="aeacute" unicode="&#x1fd;" horiz-adv-x="1867" 
d="M1231 1411l-230 -313h-127l199 313h158zM1778 481q0 -9 -1 -28.5t-1 -28.5h-824q17 -145 116 -232.5t241 -87.5q99 0 182.5 43.5t128.5 120.5l115 -49q-62 -114 -176.5 -176.5t-251.5 -62.5q-133 0 -244 61t-176 170q-191 -231 -457 -231q-155 0 -250.5 76.5t-95.5 205.5
t100.5 211t278.5 82q90 0 186 -21t170 -57v105q0 135 -79 203.5t-222 68.5q-178 0 -297 -119l-82 82q48 60 120 98t135.5 50t131.5 12q290 0 383 -199q64 95 168.5 147t229.5 52q206 0 338.5 -136t132.5 -360zM954 537h693q-13 147 -106.5 231t-233.5 84q-153 0 -244 -84.5
t-109 -230.5zM428 98q110 0 230 63t178 154l-17 52q-77 39 -172.5 59t-175.5 20q-128 0 -195 -53t-67 -127t59 -121t160 -47z" />
    <glyph glyph-name="Oslashacute" unicode="&#x1fe;" horiz-adv-x="1650" 
d="M1124 1866l-229 -314h-127l199 314h157zM1540 1360l-176 -180q83 -97 128.5 -220t45.5 -258q0 -147 -55.5 -280.5t-150 -230.5t-227 -154t-280.5 -57q-265 0 -465 172l-174 -177l-73 74l174 176q-174 206 -174 477q0 148 55.5 282t150 231t226.5 154.5t280 57.5
q133 0 253 -45.5t214 -128.5l174 177zM248 702q0 -217 131 -380l821 837q-160 141 -375 141q-120 0 -227.5 -47.5t-184 -128t-121 -191t-44.5 -231.5zM1403 702q0 217 -131 383l-821 -839q163 -140 374 -140q160 0 293 80t209 217t76 299z" />
    <glyph glyph-name="oslashacute" unicode="&#x1ff;" horiz-adv-x="1204" 
d="M901 1411l-229 -313h-127l198 313h158zM1104 913l-111 -112q111 -130 111 -320q0 -147 -69 -263t-183 -177t-250 -61q-181 0 -313 104l-119 -121l-72 72l117 119q-113 136 -113 327q0 147 68.5 261.5t181.5 174.5t250 60q184 0 320 -105l108 111zM233 481q0 -137 74 -233
l522 530q-99 74 -227 74q-156 0 -262.5 -103t-106.5 -268zM973 481q0 132 -72 226l-522 -531q93 -72 223 -72q155 0 263 105.5t108 271.5z" />
    <glyph glyph-name="Scommaaccent" unicode="&#x218;" horiz-adv-x="1159" 
d="M586 -20q-100 0 -188 33.5t-148.5 89t-96.5 127.5t-40 149h133q11 -111 104 -192t236 -81q158 0 248 84t90 193q0 192 -277 262l-190 45q-334 80 -334 352q0 113 63.5 202t165.5 136t219 47q184 0 308.5 -105t130.5 -278h-136q-6 116 -92 186t-215 70q-125 0 -217 -72
t-92 -186q0 -31 7 -57.5t28.5 -61t71.5 -63t124 -45.5l191 -45q176 -44 277.5 -139t101.5 -242q0 -60 -19 -118.5t-58.5 -111t-95 -92.5t-133 -63.5t-167.5 -23.5zM492 -463l-82 33q61 73 87 155t19 195h133q1 -124 -43 -226t-114 -157z" />
    <glyph glyph-name="scommaaccent" unicode="&#x219;" horiz-adv-x="878" 
d="M434 -20q-85 0 -160 30.5t-127.5 95.5t-60.5 152h121q12 -66 71 -114t156 -48q101 0 161 45.5t60 118.5q0 115 -151 154l-137 32q-113 28 -178.5 89.5t-65.5 173.5q0 117 89 192.5t226 75.5q82 0 151 -28.5t114.5 -88.5t48.5 -143h-127q-4 63 -58 103t-127 40
q-83 0 -134.5 -42.5t-51.5 -110.5q0 -112 147 -146l142 -35q89 -21 145 -65t77 -93.5t21 -109.5q0 -125 -100 -201.5t-252 -76.5zM350 -463l-82 33q61 74 87.5 155.5t19.5 194.5h133q1 -123 -43.5 -225t-114.5 -158z" />
    <glyph glyph-name="uni021A" unicode="&#x21a;" horiz-adv-x="1120" 
d="M43 1411h1034v-127h-450v-1284h-135v1284h-449v127zM498 -80h133q1 -123 -43.5 -225t-114.5 -158l-82 33q61 74 87.5 155.5t19.5 194.5z" />
    <glyph glyph-name="uni021B" unicode="&#x21b;" horiz-adv-x="616" 
d="M358 956h220v-112h-220v-844h-129v844h-174v112h174v381h129v-381zM254 -80h133q1 -123 -43.5 -225t-114.5 -158l-82 33q61 74 87.5 155.5t19.5 194.5z" />
    <glyph glyph-name="circumflex" unicode="&#x2c6;" horiz-adv-x="1030" 
d="M215 1120l229 314h142l229 -314h-121l-180 211l-178 -211h-121z" />
    <glyph glyph-name="caron" unicode="&#x2c7;" horiz-adv-x="1030" 
d="M444 1120l-229 314h121l178 -211l180 211h121l-229 -314h-142z" />
    <glyph glyph-name="breve" unicode="&#x2d8;" horiz-adv-x="1036" 
d="M518 1151q-124 0 -186 71.5t-62 180.5h111q0 -66 35.5 -108t101.5 -42q62 0 98.5 42.5t36.5 107.5h115q0 -117 -68 -184.5t-182 -67.5z" />
    <glyph glyph-name="dotaccent" unicode="&#x2d9;" horiz-adv-x="1019" 
d="M510 1178q-41 0 -70.5 27t-29.5 67t29.5 67t70.5 27q43 0 71.5 -27t28.5 -67t-28.5 -67t-71.5 -27z" />
    <glyph glyph-name="ring" unicode="&#x2da;" horiz-adv-x="1046" 
d="M520 1104q-80 0 -136 56.5t-56 137.5q0 82 56 139.5t136 57.5q83 0 141 -57.5t58 -139.5t-58 -138t-141 -56zM520 1190q47 0 80 31t33 77t-33 78.5t-80 32.5q-44 0 -75 -32.5t-31 -78.5t31 -77t75 -31z" />
    <glyph glyph-name="ogonek" unicode="&#x2db;" horiz-adv-x="1048" 
d="M524 -410q-88 0 -142 53.5t-54 139.5q0 36 20 82l74 178h94l-82 -215q-8 -19 -8 -43q0 -45 26.5 -71.5t71.5 -26.5q42 0 71 31.5t32 84.5h94q0 -96 -54 -154.5t-143 -58.5z" />
    <glyph glyph-name="tilde" unicode="&#x2dc;" horiz-adv-x="915" 
d="M201 1161q4 101 49.5 152t109.5 51q41 0 77.5 -24t65 -48t50.5 -24q25 0 44.5 24t20.5 68h97q-6 -101 -52 -151t-110 -50q-32 0 -61.5 15t-48 33t-41.5 33t-42 15q-24 0 -43 -24t-20 -70h-96z" />
    <glyph glyph-name="hungarumlaut" unicode="&#x2dd;" horiz-adv-x="892" 
d="M164 1120l178 314h131l-192 -314h-117zM420 1120l188 314h135l-208 -314h-115z" />
    <glyph glyph-name="gravecomb" unicode="&#x300;" horiz-adv-x="0" 
d="M-489 1098l-228 313h160l195 -313h-127z" />
    <glyph glyph-name="acutecomb" unicode="&#x301;" horiz-adv-x="0" 
d="M-702 1098l198 313h158l-229 -313h-127z" />
    <glyph glyph-name="uni0302" unicode="&#x302;" horiz-adv-x="0" 
d="M-815 1098l229 313h142l229 -313h-121l-180 213l-178 -213h-121z" />
    <glyph glyph-name="tildecomb" unicode="&#x303;" horiz-adv-x="0" 
d="M-715 1141q4 101 50 151.5t110 50.5q41 0 77.5 -24t65 -48t50.5 -24q26 0 45 23t20 69h96q-6 -101 -51.5 -150.5t-109.5 -49.5q-32 0 -61.5 15t-48 33t-41.5 33t-42 15q-24 0 -43 -25t-20 -69h-97z" />
    <glyph glyph-name="uni0304" unicode="&#x304;" horiz-adv-x="0" 
d="M-741 1190v117h495v-117h-495z" />
    <glyph glyph-name="uni0306" unicode="&#x306;" horiz-adv-x="0" 
d="M-518 1130q-124 0 -186 72t-62 182h111q0 -67 35 -108t102 -41q62 0 98.5 41.5t36.5 107.5h115q0 -118 -68 -186t-182 -68z" />
    <glyph glyph-name="uni0307" unicode="&#x307;" horiz-adv-x="0" 
d="M-510 1149q-42 0 -71 26.5t-29 65.5q0 41 29 67.5t71 26.5q43 0 71.5 -26.5t28.5 -67.5q0 -40 -28.5 -66t-71.5 -26z" />
    <glyph glyph-name="uni0308" unicode="&#x308;" horiz-adv-x="0" 
d="M-692 1159q-40 0 -69.5 26.5t-29.5 65.5q0 41 29 68t70 27q42 0 71 -27t29 -68q0 -39 -29 -65.5t-71 -26.5zM-346 1159q-40 0 -69 26.5t-29 65.5q0 41 29 68t69 27q42 0 71 -27t29 -68q0 -39 -29 -65.5t-71 -26.5z" />
    <glyph glyph-name="uni030A" unicode="&#x30a;" horiz-adv-x="0" 
d="M-526 1104q-80 0 -136.5 56.5t-56.5 137.5q0 82 56.5 139.5t136.5 57.5q83 0 140.5 -57.5t57.5 -139.5t-57.5 -138t-140.5 -56zM-526 1190q47 0 79.5 31t32.5 77t-32.5 78.5t-79.5 32.5q-44 0 -75.5 -32.5t-31.5 -78.5t31.5 -77t75.5 -31z" />
    <glyph glyph-name="uni030B" unicode="&#x30b;" horiz-adv-x="0" 
d="M-729 1098l178 313h131l-192 -313h-117zM-473 1098l188 313h135l-208 -313h-115z" />
    <glyph glyph-name="uni030C" unicode="&#x30c;" horiz-adv-x="0" 
d="M-586 1098l-229 313h121l178 -211l180 211h121l-229 -313h-142z" />
    <glyph glyph-name="uni0326" unicode="&#x326;" horiz-adv-x="0" 
d="M-303 -463l-82 33q61 73 87 155t19 195h134q1 -123 -43.5 -225t-114.5 -158z" />
    <glyph glyph-name="uni0327" unicode="&#x327;" horiz-adv-x="0" 
d="M-522 -410q-90 0 -144.5 58.5t-54.5 154.5h96q3 -53 31.5 -84.5t71.5 -31.5q44 0 70 27t26 71q0 24 -8 43l-82 215h94l76 -178q18 -41 18 -82q0 -86 -54 -139.5t-140 -53.5z" />
    <glyph glyph-name="uni0328" unicode="&#x328;" horiz-adv-x="0" 
d="M-524 -410q-88 0 -142.5 53.5t-54.5 139.5q0 34 21 82l73 178h95l-82 -215q-9 -21 -9 -43q0 -45 26.5 -71.5t72.5 -26.5q42 0 70.5 31.5t31.5 84.5h94q0 -96 -53.5 -154.5t-142.5 -58.5z" />
    <glyph glyph-name="uni0394" unicode="&#x394;" horiz-adv-x="1255" 
d="M700 1411l537 -1411h-1219l537 1411h145zM205 121h844l-420 1110z" />
    <glyph glyph-name="uni03A9" unicode="&#x3a9;" horiz-adv-x="1681" 
d="M1552 717q0 -189 -92.5 -348t-242.5 -242h319v-127h-592v121q199 42 336 209.5t137 386.5q0 162 -75.5 295.5t-207.5 210.5t-292 77t-292.5 -77t-208 -210.5t-75.5 -295.5q0 -218 136.5 -386t334.5 -210v-121h-590v127h320q-152 83 -244 242t-92 348q0 148 55.5 280
t150 226t226.5 149t279 55t278.5 -55t226.5 -149t150 -226t55 -280z" />
    <glyph glyph-name="pi" unicode="&#x3c0;" horiz-adv-x="1095" 
d="M844 250q0 -83 38 -114.5t119 -31.5v-124h-14q-41 1 -77.5 8.5t-73.5 26.5t-63.5 48.5t-43 78t-16.5 110.5v579h-371v-831h-131v831h-133v125h919v-125h-153v-581z" />
    <glyph glyph-name="uni0401" unicode="&#x401;" horiz-adv-x="1142" 
d="M399 1614q-40 0 -69 26.5t-29 65.5q0 41 28.5 67.5t69.5 26.5q42 0 71.5 -26.5t29.5 -67.5q0 -39 -29.5 -65.5t-71.5 -26.5zM745 1614q-40 0 -69 26.5t-29 65.5q0 41 28.5 67.5t69.5 26.5q42 0 71.5 -26.5t29.5 -67.5q0 -39 -29.5 -65.5t-71.5 -26.5zM342 127h694v-127
h-827v1411h805v-127h-672v-528h586v-127h-586v-502z" />
    <glyph glyph-name="uni0410" unicode="&#x410;" horiz-adv-x="1247" 
d="M1092 0l-142 375h-651l-141 -375h-144l539 1411h143l537 -1411h-141zM346 496h557l-278 735z" />
    <glyph glyph-name="uni0411" unicode="&#x411;" horiz-adv-x="1226" 
d="M729 858q108 0 190 -36t129 -97.5t70 -135.5t23 -159q0 -84 -23 -158.5t-69.5 -136.5t-128 -98.5t-187.5 -36.5h-524v1411h784v-127h-649v-426h385zM735 127q130 0 200.5 86t70.5 217q0 136 -74.5 219.5t-231.5 83.5h-356v-606h391z" />
    <glyph glyph-name="uni0412" unicode="&#x412;" horiz-adv-x="1286" 
d="M909 752q86 -22 147 -82t88 -132t27 -149q0 -102 -46.5 -189.5t-139.5 -143.5t-213 -56h-563v1411h512q172 0 273.5 -92.5t101.5 -255.5q0 -103 -47 -188t-140 -123zM719 1284h-375v-479h401q101 0 158.5 70t57.5 178q0 107 -65 169t-177 62zM750 127q131 0 208.5 79
t77.5 193q0 119 -80 203t-213 84h-399v-559h406z" />
    <glyph glyph-name="uni0413" unicode="&#x413;" horiz-adv-x="948" 
d="M209 1411h694v-127h-559v-1284h-135v1411z" />
    <glyph glyph-name="uni0414" unicode="&#x414;" horiz-adv-x="1345" 
d="M1116 127h109v-420h-135v293h-924v-293h-135v420h20q116 0 182 100.5t66 296.5v887h817v-1284zM434 1284v-762q0 -264 -115 -395h662v1157h-547z" />
    <glyph glyph-name="uni0415" unicode="&#x415;" horiz-adv-x="1142" 
d="M342 127h694v-127h-827v1411h805v-127h-672v-528h586v-127h-586v-502z" />
    <glyph glyph-name="uni0416" unicode="&#x416;" horiz-adv-x="1703" 
d="M1718 0h-184l-614 618v-618h-136v621l-614 -621h-184l682 688l-578 723h166l528 -668v668h136v-663l526 663h168l-578 -723z" />
    <glyph glyph-name="uni0417" unicode="&#x417;" horiz-adv-x="1150" 
d="M772 756q123 -33 196.5 -128t73.5 -227q0 -188 -142.5 -304.5t-369.5 -116.5q-155 0 -282.5 75.5t-190.5 204.5l121 62q49 -100 142 -158t202 -58q165 0 274 82.5t109 210.5q0 130 -97 210.5t-245 80.5h-153v121h145q123 0 198.5 67.5t75.5 176.5q0 108 -80 176.5
t-210 68.5q-91 0 -172.5 -41.5t-122.5 -109.5l-103 74q55 92 165 148t235 56q193 0 309.5 -102t116.5 -268q0 -101 -51.5 -182t-143.5 -119z" />
    <glyph glyph-name="uni0418" unicode="&#x418;" horiz-adv-x="1413" 
d="M1063 1411h141v-1411h-135v1176l-723 -1176h-139v1411h135v-1173z" />
    <glyph glyph-name="uni0419" unicode="&#x419;" horiz-adv-x="1413" 
d="M709 1585q-113 0 -181.5 68.5t-68.5 185.5h114q0 -66 37 -107.5t99 -41.5q67 0 102 41t35 108h110q0 -110 -61.5 -182t-185.5 -72zM1063 1411h141v-1411h-135v1176l-723 -1176h-139v1411h135v-1173z" />
    <glyph glyph-name="uni041A" unicode="&#x41a;" horiz-adv-x="1120" 
d="M1141 0h-183l-616 621v-621h-133v1411h133v-663l528 663h168l-577 -723z" />
    <glyph glyph-name="uni041B" unicode="&#x41b;" horiz-adv-x="1320" 
d="M297 1411h815v-1411h-133v1284h-547v-827q0 -221 -101 -339t-274 -118h-28v127h20q116 0 182 83t66 249v952z" />
    <glyph glyph-name="uni041C" unicode="&#x41c;" horiz-adv-x="1939" 
d="M1815 0h-134l-145 1169l-502 -1024h-125l-506 1029l-145 -1174h-131l174 1411h127l543 -1120l542 1120h125z" />
    <glyph glyph-name="uni041D" unicode="&#x41d;" horiz-adv-x="1464" 
d="M1120 1411h135v-1411h-135v641h-776v-641h-135v1411h135v-649h776v649z" />
    <glyph glyph-name="uni041E" unicode="&#x41e;" horiz-adv-x="1640" 
d="M819 -20q-148 0 -280.5 57t-227 154t-150 230.5t-55.5 280.5q0 198 94 364.5t258 263.5t361 97t361 -97t258 -263.5t94 -364.5q0 -147 -55.5 -280.5t-150 -230.5t-227 -154t-280.5 -57zM819 106q160 0 293 80t209 217t76 299t-76 299.5t-209 218t-293 80.5
q-120 0 -227.5 -47.5t-184 -128t-121 -191t-44.5 -231.5t44.5 -231t121 -190t184 -127.5t227.5 -47.5z" />
    <glyph glyph-name="uni041F" unicode="&#x41f;" horiz-adv-x="1431" 
d="M209 1411h1014v-1411h-136v1286h-743v-1286h-135v1411z" />
    <glyph glyph-name="uni0420" unicode="&#x420;" horiz-adv-x="1243" 
d="M764 1411q104 0 184 -36t126.5 -98t69.5 -136.5t23 -159.5t-23 -160t-70 -136.5t-128 -97.5t-188 -36h-414v-551h-135v1411h555zM752 678q73 0 129 25.5t88 69t47.5 96t15.5 112.5q0 59 -15 111.5t-46 96.5t-85 69.5t-124 25.5h-418v-606h408z" />
    <glyph glyph-name="uni0421" unicode="&#x421;" horiz-adv-x="1388" 
d="M815 -20q-145 0 -276.5 57t-226.5 154t-150.5 230.5t-55.5 280.5t55.5 281t150 230.5t226.5 154t277 57.5q147 0 276.5 -56.5t223.5 -156.5l-96 -86q-76 81 -181.5 126.5t-222.5 45.5q-158 0 -290 -80t-207.5 -217t-75.5 -299t75.5 -299t207.5 -217t290 -80q116 0 221 46
t183 127l96 -86q-94 -100 -223.5 -156.5t-276.5 -56.5z" />
    <glyph glyph-name="uni0422" unicode="&#x422;" horiz-adv-x="1120" 
d="M1077 1411v-127h-450v-1284h-135v1284h-449v127h1034z" />
    <glyph glyph-name="uni0423" unicode="&#x423;" horiz-adv-x="1185" 
d="M1040 1411h150l-731 -1411h-150l242 453l-549 958h152l469 -827z" />
    <glyph glyph-name="uni0424" unicode="&#x424;" horiz-adv-x="1703" 
d="M1604 702q0 -237 -167 -375.5t-517 -150.5v-176h-136v176q-348 12 -516 150.5t-168 375.5q0 238 168.5 377.5t515.5 151.5v180h136v-180q350 -12 517 -151t167 -378zM236 702q0 -179 134 -284t414 -115v801q-280 -10 -414 -115.5t-134 -286.5zM920 303q280 10 414 115
t134 284q0 181 -134 286.5t-414 115.5v-801z" />
    <glyph glyph-name="uni0425" unicode="&#x425;" horiz-adv-x="1204" 
d="M1186 0h-162l-422 649l-422 -649h-160l502 760l-438 651h162l356 -543l356 543h162l-438 -651z" />
    <glyph glyph-name="uni0426" unicode="&#x426;" horiz-adv-x="1484" 
d="M1255 127h111v-420h-135v293h-1022v1411h135v-1286h776v1286h135v-1284z" />
    <glyph glyph-name="uni0427" unicode="&#x427;" horiz-adv-x="1329" 
d="M985 1411h135v-1411h-135v553q-189 -41 -410 -41q-226 0 -347.5 123t-121.5 373v403h136v-401q0 -193 86.5 -282t255.5 -89q215 0 401 41v731z" />
    <glyph glyph-name="uni0428" unicode="&#x428;" horiz-adv-x="2080" 
d="M1739 1411h135v-1411h-1665v1411h135v-1286h629v1286h135v-1286h631v1286z" />
    <glyph glyph-name="uni0429" unicode="&#x429;" horiz-adv-x="2101" 
d="M1874 127h108v-420h-135v293h-1638v1411h135v-1286h629v1286h135v-1286h631v1286h135v-1284z" />
    <glyph glyph-name="uni042A" unicode="&#x42a;" horiz-adv-x="1335" 
d="M848 858q108 0 190 -36t129 -97.5t70 -135.5t23 -159q0 -66 -14 -127t-45.5 -117t-78 -97t-116 -65t-154.5 -24h-526v1284h-301v127h436v-553h387zM854 127q129 0 199.5 86t70.5 217q0 88 -29.5 154t-100 107.5t-175.5 41.5h-358v-606h393z" />
    <glyph glyph-name="uni042B" unicode="&#x42b;" horiz-adv-x="1701" 
d="M729 858q108 0 190 -36t129 -97.5t70 -135.5t23 -159q0 -84 -23 -158.5t-69.5 -136.5t-128 -98.5t-187.5 -36.5h-524v1411h135v-553h385zM1358 1411h135v-1411h-135v1411zM735 127q130 0 200.5 86t70.5 217q0 136 -74.5 219.5t-231.5 83.5h-356v-606h391z" />
    <glyph glyph-name="uni042C" unicode="&#x42c;" horiz-adv-x="1218" 
d="M729 858q108 0 190 -36t129 -97.5t70 -135.5t23 -159q0 -84 -23 -158.5t-69.5 -136.5t-128 -98.5t-187.5 -36.5h-524v1411h135v-553h385zM735 127q130 0 200.5 86t70.5 217q0 136 -74.5 219.5t-231.5 83.5h-356v-606h391z" />
    <glyph glyph-name="uni042D" unicode="&#x42d;" horiz-adv-x="1400" 
d="M588 1425q193 0 355.5 -97t256.5 -263t94 -363q0 -196 -94 -362.5t-256.5 -263t-355.5 -96.5q-148 0 -278 56.5t-224 156.5l96 86q78 -81 183 -127t223 -46q219 0 379.5 150.5t187.5 372.5h-788v127h790q-13 150 -91 274t-204 196t-274 72q-118 0 -224 -45.5t-182 -126.5
l-96 86q94 100 224 156.5t278 56.5z" />
    <glyph glyph-name="uni042E" unicode="&#x42e;" horiz-adv-x="2162" 
d="M1341 1427q197 0 361.5 -97t259 -263.5t94.5 -364.5q0 -147 -56 -280.5t-151 -230.5t-227.5 -154t-280.5 -57q-140 0 -266 51.5t-219 139.5t-152.5 210.5t-70.5 259.5h-289v-641h-135v1411h135v-649h289q11 138 70 261t152 211.5t219.5 140.5t266.5 52zM1341 106
q160 0 293.5 80t210 217t76.5 299t-76.5 299.5t-210 218t-293.5 80.5q-159 0 -291.5 -80.5t-208 -218t-75.5 -299.5t75.5 -299t208 -217t291.5 -80z" />
    <glyph glyph-name="uni042F" unicode="&#x42f;" horiz-adv-x="1257" 
d="M524 1411h525v-1411h-136v553h-235l-387 -553h-164l391 553q-105 2 -184.5 38.5t-125.5 97.5t-68.5 134.5t-22.5 157.5q0 85 23 159.5t69.5 136.5t127.5 98t187 36zM557 678h356v606h-391q-130 0 -200 -85.5t-70 -217.5q0 -136 74 -219.5t231 -83.5z" />
    <glyph glyph-name="uni0430" unicode="&#x430;" horiz-adv-x="1259" 
d="M965 956h131v-956h-131v186q-53 -97 -156 -151.5t-225 -54.5q-132 0 -243 63.5t-177 178.5t-66 257q0 215 141 356.5t345 141.5q123 0 225 -54.5t156 -150.5v184zM594 104q153 0 262 104.5t109 266.5q0 111 -53.5 199t-137.5 133t-180 45q-152 0 -258.5 -107t-106.5 -264
q0 -159 106.5 -268t258.5 -109z" />
    <glyph glyph-name="uni0431" unicode="&#x431;" horiz-adv-x="1226" 
d="M639 977q97 0 186 -35.5t156 -98.5t107 -157t40 -205q0 -147 -68.5 -263t-182.5 -177t-250 -61q-113 0 -203.5 36.5t-157.5 111t-103 194t-36 278.5q0 82 7.5 156.5t27.5 155.5t51.5 149.5t83 133t118 112t160.5 81t207 44.5q56 6 82 21.5t54 51.5l106 -59
q-27 -54 -83 -89t-132 -42q-115 -11 -206 -47t-149 -85t-97.5 -115t-58.5 -130t-26 -137q54 78 153.5 127t213.5 49zM627 104q156 0 263 105t107 272q0 165 -107 268t-263 103q-151 0 -260 -97.5t-109 -230.5q0 -185 96.5 -302.5t272.5 -117.5z" />
    <glyph glyph-name="uni0432" unicode="&#x432;" horiz-adv-x="1099" 
d="M821 510q89 -22 133.5 -91t44.5 -153q0 -108 -78.5 -187t-218.5 -79h-538v956h502q126 0 203 -65t77 -172q0 -69 -29.5 -127t-95.5 -82zM659 831h-364v-274h381q65 0 102 37.5t37 101.5t-41 99.5t-115 35.5zM690 125q84 0 132 44.5t48 109.5q0 70 -51 117.5t-137 47.5
h-387v-319h395z" />
    <glyph glyph-name="uni0433" unicode="&#x433;" horiz-adv-x="761" 
d="M164 956h555v-125h-424v-831h-131v956z" />
    <glyph glyph-name="uni0434" unicode="&#x434;" horiz-adv-x="1040" 
d="M860 92h80v-325h-133v233h-633v-233h-129v339h14q85 0 132 73t47 224v553h622v-864zM367 379q0 -186 -86 -258h450v710h-364v-452z" />
    <glyph glyph-name="uni0435" unicode="&#x435;" horiz-adv-x="1148" 
d="M1057 481q0 -39 -2 -57h-824q17 -151 114.5 -235.5t244.5 -84.5q99 0 181.5 43t129.5 121l113 -49q-62 -114 -176.5 -176.5t-251.5 -62.5q-135 0 -245.5 61t-176.5 176.5t-66 263.5t66 262t176.5 174t245.5 60q207 0 339 -136t132 -360zM233 537h695q-13 147 -106.5 231
t-235.5 84q-144 0 -239.5 -82t-113.5 -233z" />
    <glyph glyph-name="uni0436" unicode="&#x436;" horiz-adv-x="1300" 
d="M1296 0h-180l-401 393v-393h-131v389l-402 -389h-178l490 469l-412 487h164l338 -405v405h131v-413l340 413h162l-410 -485z" />
    <glyph glyph-name="uni0437" unicode="&#x437;" horiz-adv-x="872" 
d="M584 518q88 -25 139.5 -89.5t52.5 -154.5q0 -129 -103.5 -210.5t-269.5 -81.5q-111 0 -201 45.5t-139 128.5l105 71q35 -57 95 -89t132 -32q109 0 178.5 49t69.5 126q0 78 -62 126t-159 48h-111v104h90q88 0 139.5 42.5t51.5 109.5q0 62 -53 100.5t-138 38.5
q-62 0 -116.5 -25t-83.5 -67l-88 82q49 61 128.5 98t170.5 37q140 0 225.5 -70t85.5 -188q0 -64 -36.5 -118t-102.5 -81z" />
    <glyph glyph-name="uni0438" unicode="&#x438;" horiz-adv-x="1118" 
d="M831 956h123v-956h-131v743l-547 -743h-112v956h131v-737z" />
    <glyph glyph-name="uni0439" unicode="&#x439;" horiz-adv-x="1118" 
d="M530 1135q-124 0 -185.5 72t-61.5 182h110q0 -67 35 -108.5t102 -41.5q62 0 99 42t37 108h114q0 -117 -68 -185.5t-182 -68.5zM831 956h123v-956h-131v743l-547 -743h-112v956h131v-737z" />
    <glyph glyph-name="uni043A" unicode="&#x43a;" horiz-adv-x="868" 
d="M874 0h-178l-401 391v-391h-131v956h131v-409l338 409h160l-408 -485z" />
    <glyph glyph-name="uni043B" unicode="&#x43b;" horiz-adv-x="1062" 
d="M238 956h661v-956h-131v831h-401v-491q0 -163 -75.5 -251.5t-203.5 -88.5h-43v117h18q175 0 175 225v614z" />
    <glyph glyph-name="uni043C" unicode="&#x43c;" horiz-adv-x="1433" 
d="M1327 0h-131l-96 719l-328 -617h-108l-330 619l-96 -721h-132l127 956h117l369 -712l364 712h117z" />
    <glyph glyph-name="uni043D" unicode="&#x43d;" horiz-adv-x="1142" 
d="M848 956h131v-956h-131v418h-553v-418h-131v956h131v-421h553v421z" />
    <glyph glyph-name="uni043E" unicode="&#x43e;" horiz-adv-x="1196" 
d="M598 -20q-136 0 -249.5 61t-182 177t-68.5 263t68.5 261.5t181.5 174.5t250 60t250.5 -60t182.5 -174.5t69 -261.5t-69 -263t-183 -177t-250 -61zM598 104q155 0 263 105.5t108 271.5q0 165 -108 268t-263 103q-156 0 -262.5 -103t-106.5 -268q0 -167 106.5 -272
t262.5 -105z" />
    <glyph glyph-name="uni043F" unicode="&#x43f;" horiz-adv-x="1107" 
d="M164 956h780v-956h-131v831h-518v-831h-131v956z" />
    <glyph glyph-name="uni0440" unicode="&#x440;" horiz-adv-x="1259" 
d="M676 977q99 0 188.5 -37.5t154.5 -103t103.5 -159t38.5 -200.5q0 -215 -140.5 -356t-344.5 -141q-123 0 -225.5 54.5t-155.5 151.5v-651h-131v1421h131v-188q52 97 155.5 153t225.5 56zM666 104q153 0 259.5 107t106.5 264q0 159 -106.5 268t-259.5 109t-262 -104.5
t-109 -266.5q0 -111 53.5 -199t137.5 -133t180 -45z" />
    <glyph glyph-name="uni0441" unicode="&#x441;" horiz-adv-x="1026" 
d="M604 -18q-137 0 -251.5 60t-184.5 175t-70 262t70 262t184.5 175.5t251.5 60.5q203 0 344 -131l-82 -90q-107 96 -258 96q-160 0 -269.5 -104t-109.5 -269q0 -164 109.5 -268.5t269.5 -104.5q152 0 258 95l82 -88q-137 -131 -344 -131z" />
    <glyph glyph-name="uni0442" unicode="&#x442;" horiz-adv-x="823" 
d="M780 956v-125h-303v-831h-131v831h-303v125h737z" />
    <glyph glyph-name="uni0443" unicode="&#x443;" horiz-adv-x="1019" 
d="M842 956h141l-600 -1421h-139l196 477l-395 944h141l326 -782z" />
    <glyph glyph-name="uni0444" unicode="&#x444;" horiz-adv-x="1374" 
d="M1276 471q0 -215 -135.5 -344.5t-390.5 -144.5v-447h-127v447q-255 15 -391 144.5t-136 344.5q2 219 138.5 354t388.5 150v520h127v-520q253 -15 388.5 -149.5t137.5 -354.5zM227 471q0 -161 101 -256.5t295 -108.5v744q-192 -15 -293 -115t-103 -264zM750 106
q194 13 294.5 108.5t100.5 256.5q0 164 -101 264t-294 115v-744z" />
    <glyph glyph-name="uni0445" unicode="&#x445;" horiz-adv-x="964" 
d="M940 0h-158l-299 418l-303 -418h-155l381 526l-312 430h160l229 -321l228 321h159l-309 -428z" />
    <glyph glyph-name="uni0446" unicode="&#x446;" horiz-adv-x="1112" 
d="M915 125h99v-358h-129v233h-721v956h131v-831h489v831h131v-831z" />
    <glyph glyph-name="uni0447" unicode="&#x447;" horiz-adv-x="1019" 
d="M725 956h131v-956h-131v346q-125 -24 -297 -24q-334 0 -334 350v284h129v-280q0 -125 59 -179.5t171 -54.5q152 0 272 25v489z" />
    <glyph glyph-name="uni0448" unicode="&#x448;" horiz-adv-x="1525" 
d="M1231 956h131v-956h-1198v956h131v-831h401v831h131v-831h404v831z" />
    <glyph glyph-name="uni0449" unicode="&#x449;" horiz-adv-x="1560" 
d="M1362 125h104v-358h-129v233h-1173v956h131v-831h401v831h131v-831h404v831h131v-831z" />
    <glyph glyph-name="uni044A" unicode="&#x44a;" horiz-adv-x="1034" 
d="M653 594q157 0 234.5 -83.5t77.5 -209.5q0 -59 -17.5 -111.5t-52.5 -95.5t-95 -68.5t-138 -25.5h-418v831h-201v125h332v-362h278zM645 125q94 0 141.5 48.5t47.5 125.5q0 76 -48 123t-147 47h-264v-344h270z" />
    <glyph glyph-name="uni044B" unicode="&#x44b;" horiz-adv-x="1308" 
d="M573 594q158 0 235 -83t77 -210q0 -59 -17.5 -111.5t-52.5 -95.5t-95 -68.5t-138 -25.5h-418v956h131v-362h278zM1014 956h131v-956h-131v956zM565 125q94 0 141.5 48.5t47.5 125.5q0 76 -48 123t-147 47h-264v-344h270z" />
    <glyph glyph-name="uni044C" unicode="&#x44c;" horiz-adv-x="956" 
d="M573 594q158 0 235 -83t77 -210q0 -59 -17.5 -111.5t-52.5 -95.5t-95 -68.5t-138 -25.5h-418v956h131v-362h278zM565 125q94 0 141.5 48.5t47.5 125.5q0 76 -48 123t-147 47h-264v-344h270z" />
    <glyph glyph-name="uni044D" unicode="&#x44d;" horiz-adv-x="1062" 
d="M457 977q140 0 257.5 -67.5t185 -182t67.5 -248.5t-67.5 -249t-185 -182.5t-257.5 -67.5q-112 0 -209 43.5t-166 121.5l96 74q109 -115 277 -115q142 0 245 87.5t127 220.5h-526v118h528q-19 138 -123 230t-251 92q-167 0 -277 -117l-96 76q70 77 167 121.5t208 44.5z
" />
    <glyph glyph-name="uni044E" unicode="&#x44e;" horiz-adv-x="1568" 
d="M971 977q137 0 250 -60t181 -174.5t68 -261.5t-68 -263t-181.5 -177t-249.5 -61q-194 0 -334.5 121t-161.5 317h-180v-418h-131v956h131v-421h178q12 133 82 234.5t178.5 154.5t237.5 53zM971 104q154 0 261 105t107 272q0 165 -106.5 268t-261.5 103q-156 0 -263.5 -103
t-107.5 -268q0 -167 107.5 -272t263.5 -105z" />
    <glyph glyph-name="uni044F" unicode="&#x44f;" horiz-adv-x="964" 
d="M412 956h387v-956h-129v362h-144l-264 -362h-156l273 365q-71 6 -125 32.5t-86 67.5t-48 90t-16 104q0 59 18 111t54 94.5t97 67t139 24.5zM436 479h234v352h-250q-90 0 -136 -49t-46 -125q0 -79 49 -128.5t149 -49.5z" />
    <glyph glyph-name="uni0451" unicode="&#x451;" horiz-adv-x="1148" 
d="M395 1159q-40 0 -69 26.5t-29 65.5q0 41 29 68t69 27q42 0 71.5 -27t29.5 -68q0 -39 -29.5 -65.5t-71.5 -26.5zM741 1159q-40 0 -69 26.5t-29 65.5q0 41 29 68t69 27q42 0 71.5 -27t29.5 -68q0 -39 -29.5 -65.5t-71.5 -26.5zM1057 481q0 -39 -2 -57h-824
q17 -151 114.5 -235.5t244.5 -84.5q99 0 181.5 43t129.5 121l113 -49q-62 -114 -176.5 -176.5t-251.5 -62.5q-135 0 -245.5 61t-176.5 176.5t-66 263.5t66 262t176.5 174t245.5 60q207 0 339 -136t132 -360zM233 537h695q-13 147 -106.5 231t-235.5 84q-144 0 -239.5 -82
t-113.5 -233z" />
    <glyph glyph-name="Wgrave" unicode="&#x1e80;" horiz-adv-x="1853" 
d="M993 1552h-127l-227 314h160zM1669 1411h143l-477 -1411h-127l-282 979l-281 -979h-127l-477 1411h143l396 -1200l288 995h117l289 -1001z" />
    <glyph glyph-name="wgrave" unicode="&#x1e81;" horiz-adv-x="1615" 
d="M879 1098h-127l-228 313h160zM1434 956h139l-356 -956h-115l-297 782l-285 -782h-114l-367 956h141l281 -759l278 759h135l281 -757z" />
    <glyph glyph-name="Wacute" unicode="&#x1e82;" horiz-adv-x="1853" 
d="M1227 1866l-230 -314h-127l199 314h158zM1669 1411h143l-477 -1411h-127l-282 979l-281 -979h-127l-477 1411h143l396 -1200l288 995h117l289 -1001z" />
    <glyph glyph-name="wacute" unicode="&#x1e83;" horiz-adv-x="1615" 
d="M1112 1411l-229 -313h-127l198 313h158zM1434 956h139l-356 -956h-115l-297 782l-285 -782h-114l-367 956h141l281 -759l278 759h135l281 -757z" />
    <glyph glyph-name="Wdieresis" unicode="&#x1e84;" horiz-adv-x="1853" 
d="M752 1614q-40 0 -69.5 26.5t-29.5 65.5q0 40 29 67t70 27q42 0 71 -26.5t29 -67.5q0 -39 -29 -65.5t-71 -26.5zM1098 1614q-40 0 -69.5 26.5t-29.5 65.5q0 40 29 67t70 27q42 0 71 -26.5t29 -67.5q0 -39 -29 -65.5t-71 -26.5zM1669 1411h143l-477 -1411h-127l-282 979
l-281 -979h-127l-477 1411h143l396 -1200l288 995h117l289 -1001z" />
    <glyph glyph-name="wdieresis" unicode="&#x1e85;" horiz-adv-x="1615" 
d="M637 1159q-40 0 -69 26.5t-29 65.5q0 41 29 68t69 27q42 0 71 -27t29 -68q0 -39 -29 -65.5t-71 -26.5zM983 1159q-40 0 -69 26.5t-29 65.5q0 41 29 68t69 27q42 0 71 -27t29 -68q0 -39 -29 -65.5t-71 -26.5zM1434 956h139l-356 -956h-115l-297 782l-285 -782h-114
l-367 956h141l281 -759l278 759h135l281 -757z" />
    <glyph glyph-name="uni1E9E" unicode="&#x1e9e;" horiz-adv-x="1372" 
d="M870 850q187 -32 295.5 -149.5t108.5 -274.5q0 -204 -136 -325t-362 -121q-111 -4 -215 28l29 117q77 -23 186 -23q164 0 263.5 88.5t99.5 239.5q0 125 -99 210.5t-258 94.5l-49 2l-22 107l262 422q-109 34 -260 34q-197 0 -291 -97.5t-94 -307.5v-895h-135v897
q0 530 522 530q102 0 234.5 -24t209.5 -60v-24z" />
    <glyph glyph-name="Ygrave" unicode="&#x1ef2;" horiz-adv-x="1232" 
d="M682 1552h-127l-227 314h159zM1059 1411h162l-539 -749v-662h-135v662l-531 749h160l440 -618z" />
    <glyph glyph-name="ygrave" unicode="&#x1ef3;" horiz-adv-x="1019" 
d="M580 1098h-127l-228 313h160zM842 956h141l-600 -1421h-139l196 477l-395 944h141l326 -782z" />
    <glyph glyph-name="endash" unicode="&#x2013;" horiz-adv-x="1208" 
d="M147 410v116h914v-116h-914z" />
    <glyph glyph-name="emdash" unicode="&#x2014;" horiz-adv-x="1626" 
d="M147 410v116h1332v-116h-1332z" />
    <glyph glyph-name="quoteleft" unicode="&#x2018;" horiz-adv-x="464" 
d="M125 895q-12 174 41 333t158 267l82 -29q-90 -127 -130.5 -264t-27.5 -307h-123z" />
    <glyph glyph-name="quoteright" unicode="&#x2019;" horiz-adv-x="464" 
d="M166 895l-82 29q89 127 130.5 264t29.5 307h121q12 -175 -40.5 -334t-158.5 -266z" />
    <glyph glyph-name="quotesinglbase" unicode="&#x201a;" horiz-adv-x="444" 
d="M90 -295l-82 29q90 127 130.5 264t27.5 307h123q12 -174 -41 -333t-158 -267z" />
    <glyph glyph-name="quotedblleft" unicode="&#x201c;" horiz-adv-x="733" 
d="M125 895q-12 174 41 333t158 267l82 -29q-90 -127 -130.5 -264t-27.5 -307h-123zM393 895q-12 174 41 333t158 267l82 -29q-90 -127 -130.5 -264t-27.5 -307h-123z" />
    <glyph glyph-name="quotedblright" unicode="&#x201d;" horiz-adv-x="733" 
d="M166 895l-82 29q89 127 130.5 264t29.5 307h121q12 -175 -40.5 -334t-158.5 -266zM434 895l-82 29q89 127 130.5 264t29.5 307h121q12 -175 -40.5 -334t-158.5 -266z" />
    <glyph glyph-name="quotedblbase" unicode="&#x201e;" horiz-adv-x="712" 
d="M90 -295l-82 29q90 127 130.5 264t27.5 307h123q12 -174 -41 -333t-158 -267zM358 -295l-82 29q90 127 130.5 264t27.5 307h123q12 -174 -41 -333t-158 -267z" />
    <glyph glyph-name="dagger" unicode="&#x2020;" horiz-adv-x="854" 
d="M362 -260v1139h-260v131h260v387h130v-387h260v-131h-260v-1139h-130z" />
    <glyph glyph-name="daggerdbl" unicode="&#x2021;" horiz-adv-x="854" 
d="M362 -260v438h-260v131h260v570h-260v131h260v387h130v-387h260v-131h-260v-570h260v-131h-260v-438h-130z" />
    <glyph glyph-name="bullet" unicode="&#x2022;" horiz-adv-x="890" 
d="M446 221q-115 0 -195.5 74.5t-80.5 187.5t80.5 187.5t195.5 74.5q116 0 196.5 -74.5t80.5 -187.5t-80.5 -187.5t-196.5 -74.5z" />
    <glyph glyph-name="ellipsis" unicode="&#x2026;" horiz-adv-x="1341" 
d="M236 -20q-42 0 -72.5 28t-30.5 70q0 41 30.5 68.5t72.5 27.5q45 0 75.5 -27.5t30.5 -68.5q0 -42 -30.5 -70t-75.5 -28zM670 -20q-43 0 -73 28t-30 70q0 41 30 68.5t73 27.5t73.5 -27.5t30.5 -68.5q0 -42 -30.5 -70t-73.5 -28zM1104 -20q-43 0 -74 28t-31 70q0 41 31 68.5
t74 27.5t73.5 -27.5t30.5 -68.5q0 -42 -30.5 -70t-73.5 -28z" />
    <glyph glyph-name="perthousand" unicode="&#x2030;" horiz-adv-x="1867" 
d="M334 854q-110 0 -185 76t-75 186q0 109 75 185.5t185 76.5q109 0 185.5 -76.5t76.5 -185.5q0 -110 -76.5 -186t-185.5 -76zM238 0l655 1348h98l-653 -1348h-100zM334 956q67 0 114.5 46t47.5 114q0 66 -48 113t-114 47q-67 0 -113.5 -47t-46.5 -113q0 -69 46 -114.5
t114 -45.5zM907 -20q-110 0 -185 76t-75 186q0 109 75 185.5t185 76.5q109 0 186.5 -76.5t77.5 -185.5q0 -110 -77.5 -186t-186.5 -76zM1538 -20q-110 0 -185 76t-75 186q0 109 75 185.5t185 76.5q109 0 186.5 -76.5t77.5 -185.5q0 -110 -77.5 -186t-186.5 -76zM907 82
q67 0 114.5 46.5t47.5 113.5q0 66 -48 112.5t-114 46.5q-67 0 -112 -46t-45 -113q0 -68 45 -114t112 -46zM1538 82q68 0 115 46.5t47 113.5q0 66 -47.5 112.5t-114.5 46.5t-112.5 -46.5t-45.5 -112.5q0 -68 45.5 -114t112.5 -46z" />
    <glyph glyph-name="guilsinglleft" unicode="&#x2039;" horiz-adv-x="612" 
d="M381 53l-283 424l283 424h129l-283 -424l283 -424h-129z" />
    <glyph glyph-name="guilsinglright" unicode="&#x203a;" horiz-adv-x="612" 
d="M102 53l283 424l-283 424h129l283 -424l-283 -424h-129z" />
    <glyph glyph-name="fraction" unicode="&#x2044;" horiz-adv-x="368" 
d="M-338 -20l922 1394h110l-921 -1394h-111z" />
    <glyph glyph-name="uni2070" unicode="&#x2070;" horiz-adv-x="714" 
d="M358 1063q-62 0 -109.5 19.5t-77.5 53.5t-49 83.5t-26.5 103.5t-7.5 121q0 68 7.5 123t26.5 105t49 83.5t77.5 53.5t109.5 20t109 -19.5t77 -53.5t49 -84t26.5 -105t7.5 -123q0 -66 -7.5 -120.5t-26.5 -104t-49 -83.5t-77 -53.5t-109 -19.5zM358 1167q156 0 156 277
q0 280 -156 280q-157 0 -157 -280q0 -277 157 -277z" />
    <glyph glyph-name="uni2074" unicode="&#x2074;" horiz-adv-x="714" 
d="M653 1321v-100h-121v-148h-112v148h-373v36l404 562h81v-498h121zM201 1321h219v311z" />
    <glyph glyph-name="uni2075" unicode="&#x2075;" horiz-adv-x="673" 
d="M367 1563q102 0 168.5 -69.5t66.5 -172.5q0 -116 -81.5 -187t-196.5 -71q-75 0 -146.5 37.5t-109.5 99.5l86 62q24 -42 70.5 -68.5t92.5 -26.5q75 0 122.5 43t47.5 113q0 65 -42 105t-111 40q-96 0 -182 -59l-62 39l66 373h395v-107h-301l-39 -192q62 41 156 41z" />
    <glyph glyph-name="uni2076" unicode="&#x2076;" horiz-adv-x="698" 
d="M379 1542q108 0 176 -66t68 -165q0 -104 -70 -176t-197 -72q-123 0 -196.5 83.5t-73.5 244.5q0 66 7 123t26.5 117t51 102t85.5 69t125 27q74 0 134.5 -35t92.5 -100l-86 -56q-42 86 -137 86q-63 0 -105.5 -37t-60.5 -90t-22 -122q67 67 182 67zM360 1167q67 0 108.5 42
t41.5 102q0 61 -41.5 100.5t-106.5 38.5q-60 0 -107.5 -31.5t-47.5 -95.5q0 -77 43.5 -116.5t109.5 -39.5z" />
    <glyph glyph-name="uni2077" unicode="&#x2077;" horiz-adv-x="616" 
d="M66 1819h509v-15l-337 -731h-127l297 641h-342v105z" />
    <glyph glyph-name="uni2078" unicode="&#x2078;" horiz-adv-x="704" 
d="M487 1493q62 -24 102 -79t40 -122q0 -97 -81.5 -163t-195.5 -66q-116 0 -196 65.5t-80 163.5q0 67 39 122t100 79q-35 20 -58.5 59.5t-23.5 87.5q0 80 63.5 134.5t155.5 54.5t156.5 -55t64.5 -134q0 -49 -24.5 -88t-61.5 -59zM352 1733q-49 0 -81.5 -29t-32.5 -70
q0 -42 32 -72t82 -30t82.5 30t32.5 72q0 40 -33 69.5t-82 29.5zM352 1163q70 0 116 41t46 101q0 59 -45.5 100t-116.5 41t-116.5 -41t-45.5 -100q0 -60 46 -101t116 -41z" />
    <glyph glyph-name="uni2079" unicode="&#x2079;" horiz-adv-x="698" 
d="M342 1829q122 0 196 -85.5t74 -232.5q0 -54 -5 -102.5t-16.5 -101.5t-33.5 -95t-53 -76.5t-79 -53.5t-108 -19q-74 0 -133.5 35.5t-91.5 101.5l86 53q42 -86 137 -86q49 0 85.5 21t58 58t32.5 80.5t13 94.5q-64 -71 -182 -71q-108 0 -176 66t-68 165q0 105 69 176.5
t195 71.5zM338 1442q60 0 107.5 32t46.5 95q0 76 -43 115.5t-109 39.5q-69 0 -110.5 -41.5t-41.5 -101.5q0 -59 42.5 -99t107.5 -40z" />
    <glyph glyph-name="uni207A" unicode="&#x207a;" horiz-adv-x="598" 
d="M526 1389v-78h-188v-189h-78v189h-186v78h186v186h78v-186h188z" />
    <glyph glyph-name="uni207B" unicode="&#x207b;" horiz-adv-x="645" 
d="M104 1327v82h435v-82h-435z" />
    <glyph glyph-name="uni207C" unicode="&#x207c;" horiz-adv-x="724" 
d="M106 1479v75h510v-75h-510zM106 1243v76h510v-76h-510z" />
    <glyph glyph-name="uni207D" unicode="&#x207d;" horiz-adv-x="473" 
d="M412 866q-148 6 -239 146t-91 368q0 226 91 366t239 146v-82q-42 -2 -81.5 -27t-74.5 -74t-56.5 -134.5t-21.5 -194.5q0 -110 21.5 -195.5t56.5 -135t74.5 -74.5t81.5 -27v-82z" />
    <glyph glyph-name="uni207E" unicode="&#x207e;" horiz-adv-x="473" 
d="M59 866v82q43 2 83 27t74.5 74.5t55.5 135t21 195.5q0 109 -21 194.5t-55.5 134.5t-74.5 74t-83 27v82q150 -6 241 -145.5t91 -366.5q0 -228 -91 -368t-241 -146z" />
    <glyph glyph-name="colonmonetary" unicode="&#x20a1;" horiz-adv-x="1277" 
d="M739 150q104 0 197.5 37t163.5 108l90 -78q-85 -91 -202 -142.5t-249 -51.5q-69 0 -141 16l-55 -191l-78 25l55 188q-66 25 -131 68l-63 -217l-78 25l71 245q-104 93 -162.5 221t-58.5 273q1 162 73.5 302.5t198.5 231t281 111.5l70 242l80 -25l-62 -211q72 0 144 -16
l55 188l80 -24l-55 -189q135 -51 227 -153l-88 -78q-74 74 -174 112l-295 -1007q58 -10 106 -10zM426 258q66 -53 129 -74l293 1008q-58 10 -109 10q-25 0 -37 -2zM229 676q0 -207 131 -354l252 864q-169 -43 -276 -184t-107 -326z" />
    <glyph glyph-name="lira" unicode="&#x20a4;" horiz-adv-x="1284" 
d="M713 682v-96h-580v96h164v262q0 131 59.5 227.5t151.5 142.5t201 46q163 0 276 -106.5t117 -280.5h-131q-5 119 -80 192.5t-193 73.5q-110 0 -190 -80.5t-80 -214.5v-262h285zM1055 301h131v-94q0 -90 -47.5 -148.5t-128.5 -58.5h-910v125h197v262h-164v96h580v-96h-285
v-262h555q32 0 52 21.5t20 56.5v98z" />
    <glyph glyph-name="uni20A6" unicode="&#x20a6;" horiz-adv-x="1536" 
d="M1436 743h-168v-137h168v-86h-168v-520h-138l-335 520h-389v-520h-136v520h-170v86h170v137h-170v86h170v519h142l331 -519h390v519h135v-519h168v-86zM406 1126v-297h190zM406 606h333l-88 137h-245v-137zM1133 606v137h-334l88 -137h246zM1133 225v295h-191z" />
    <glyph glyph-name="peseta" unicode="&#x20a7;" horiz-adv-x="2697" 
d="M764 1411q104 0 184 -36t126.5 -98t69.5 -136.5t23 -159.5t-23 -160t-70 -136.5t-128 -97.5t-188 -36h-414v-551h-135v1411h555zM1585 1337v-381h219v-112h-219v-844h-131v844h-172v112h172v381h131zM752 678q73 0 129 25.5t88 69t47.5 96t15.5 112.5q0 59 -15 111.5
t-46 96.5t-85 69.5t-124 25.5h-418v-606h408zM2365 526q89 -21 145 -65t76.5 -93.5t20.5 -109.5q0 -125 -100 -201.5t-252 -76.5q-84 0 -160 31t-134.5 95t-80.5 152h150q10 -66 68.5 -114t156.5 -48q101 0 161 45.5t60 118.5q0 116 -152 154l-137 32q-243 59 -243 263
q0 117 89 192.5t226 75.5q82 0 151 -28.5t114 -88.5t48 -143h-127q-4 63 -57 103t-127 40q-83 0 -134.5 -42.5t-51.5 -110.5q0 -61 43 -96.5t106 -49.5z" />
    <glyph glyph-name="uni20A8" unicode="&#x20a8;" horiz-adv-x="1187" 
d="M752 1257q103 -86 127 -227h235l-37 -90h-190v-25q0 -80 -19 -150t-59 -129.5t-110 -97.5t-164 -46l346 -492h-162l-342 489l-238 -2v127h328q140 0 210.5 86.5t70.5 214.5v25h-609v90h594q-24 92 -90 141.5t-172 49.5h-332l-2 127h977l-37 -91h-325z" />
    <glyph glyph-name="uni20A9" unicode="&#x20a9;" horiz-adv-x="1945" 
d="M1837 1348l-182 -541h170v-86h-201l-45 -135h246v-86h-275l-170 -500h-127l-143 500h-276l-144 -500h-125l-170 500h-274v86h246l-48 135h-198v86h170l-185 541h144l178 -541h371l114 399h117l115 -399h371l178 541h143zM971 979l-49 -172h98zM457 721l45 -135h233
l39 135h-317zM858 586h227l-38 135h-150zM1444 586l43 135h-318l39 -135h236zM627 211l84 289h-181zM1319 205l96 295h-182z" />
    <glyph glyph-name="uni20AA" unicode="&#x20aa;" horiz-adv-x="1638" 
d="M209 0v1348h444q189 0 306.5 -118.5t117.5 -295.5v-479h-129v479q0 121 -82 203t-213 82h-315v-1219h-129zM987 0q-190 0 -307 118.5t-117 295.5v479h129v-479q0 -121 81.5 -203t213.5 -82h313v1219h132v-1348h-445z" />
    <glyph glyph-name="dong" unicode="&#x20ab;" horiz-adv-x="1353" 
d="M1274 1339v-94h-174v-1126h-131v188q-52 -96 -156 -152.5t-225 -56.5q-202 0 -344 142.5t-142 357.5q0 108 38.5 201.5t104 158t154.5 101.5t189 37q123 0 225.5 -55t155.5 -152v356h-375v94h375v156h131v-156h174zM598 223q153 0 262 105t109 268q0 110 -53.5 197.5
t-137.5 132.5t-180 45q-153 0 -259 -107t-106 -264q0 -159 106 -268t259 -109zM246 -127v96h786v-96h-786z" />
    <glyph glyph-name="Euro" unicode="&#x20ac;" horiz-adv-x="1554" 
d="M1018 815v-88h-938v88h211q54 239 234.5 393t426.5 154q137 0 264 -53.5t226 -149.5l-86 -90q-84 79 -188.5 123.5t-215.5 44.5q-190 0 -334 -119t-192 -303h592zM952 106q112 0 216.5 44t187.5 124l86 -90q-98 -96 -225 -149t-265 -53q-246 0 -428 154t-235 394h-209v88
h938v-88h-592q47 -184 191 -304t335 -120z" />
    <glyph glyph-name="uni20AE" unicode="&#x20ae;" horiz-adv-x="1171" 
d="M1108 1221h-451v-365l213 156v-101l-213 -155v-123l213 155v-102l-213 -156v-530h-135v430l-213 -156v103l213 155v123l-213 -155v100l213 156v465h-450v127h1036v-127z" />
    <glyph glyph-name="uni20B1" unicode="&#x20b1;" horiz-adv-x="1366" 
d="M1292 1096v-80h-170q6 -41 6 -78q0 -31 -2 -45h166v-78h-178q-33 -122 -130 -194t-263 -72h-342v-549h-135v815h-135v78h135v123h-135v80h135v252h481q151 0 246 -69t133 -183h188zM379 1221v-125h577q-66 125 -231 125h-346zM993 938q0 45 -8 78h-606v-123h612
q2 14 2 45zM715 676q190 0 254 139h-590v-139h336z" />
    <glyph glyph-name="uni20B4" unicode="&#x20b4;" horiz-adv-x="1165" 
d="M821 817h207v-92h-881v92h502l105 94q59 56 85.5 94.5t26.5 84.5q0 61 -45.5 97t-118.5 36h-493v125h508q130 0 208.5 -66t78.5 -178q0 -19 -2 -36t-8 -33.5t-9.5 -28t-15 -28.5t-15.5 -24t-20 -25t-20 -22t-23.5 -24t-22.5 -23zM147 530v93h881v-93h-530l-105 -96
q-59 -54 -85.5 -91.5t-26.5 -84.5q0 -62 45 -97.5t118 -35.5h537v-125h-549q-130 0 -208.5 66t-78.5 178q0 19 2 36t7.5 33.5l9.5 28.5t15 27.5t16 24t20 24.5t20 22t23 24l23 23l47 43h-181z" />
    <glyph glyph-name="uni20BA" unicode="&#x20ba;" horiz-adv-x="1206" 
d="M987 791h129v-115q0 -308 -156 -492t-421 -184h-285v616l-145 -106v102l145 107v123l-145 -107v103l145 106v404h131v-308l285 209v-102l-285 -209v-123l285 209v-102l-285 -209v-584h154q207 0 327.5 147.5t120.5 399.5v115z" />
    <glyph glyph-name="uni20BD" unicode="&#x20bd;" horiz-adv-x="1228" 
d="M743 567h-342v-157h533v-103h-533v-307h-135v307h-155v103h155v157h-155v117h155v664h482q104 0 184 -33t126.5 -89.5t69.5 -126t23 -149.5q0 -81 -23 -148.5t-70.5 -121t-128 -83.5t-186.5 -30zM745 1221h-344v-527h334q144 0 212.5 70.5t68.5 185.5q0 116 -67 193.5
t-204 77.5z" />
    <glyph glyph-name="uni2113" unicode="&#x2113;" horiz-adv-x="786" 
d="M420 412h-135v-97q0 -93 33 -139.5t118 -46.5h189v-129h-203q-146 0 -207 84.5t-61 230.5v797q0 71 13 125t42.5 98.5t83 68t129.5 23.5q70 0 121.5 -23.5t81 -67.5t43.5 -99.5t14 -124.5v-383q0 -161 -57 -239t-205 -78zM422 1305q-77 0 -107 -49.5t-30 -137.5v-594h127
q77 0 108 46.5t31 131.5v416q0 187 -129 187z" />
    <glyph glyph-name="uni2116" unicode="&#x2116;" horiz-adv-x="1957" 
d="M1624 915q-106 0 -180 74t-74 178t74 178t180 74q104 0 177 -74t73 -178t-73 -178t-177 -74zM1071 238v1173h135v-1411h-139l-723 1176v-1176h-135v1411h141zM1624 1315q-61 0 -104 -43t-43 -105q0 -61 42.5 -104t104.5 -43q60 0 102.5 43t42.5 104t-42.5 104.5
t-102.5 43.5zM1380 752v77h486v-77h-486z" />
    <glyph glyph-name="uni2117" unicode="&#x2117;" horiz-adv-x="1644" 
d="M821 1427q147 0 280 -57.5t228.5 -155t152 -231.5t56.5 -281q0 -196 -95.5 -362.5t-260.5 -263t-361 -96.5q-147 0 -279.5 57t-228 154t-151.5 230.5t-56 280.5t56 281t151.5 231.5t228 155t279.5 57.5zM821 78q169 0 311.5 83.5t225 227.5t82.5 313t-82.5 313.5
t-225 229t-311.5 84.5t-311.5 -84.5t-224.5 -228.5t-82 -314q0 -127 48.5 -242.5t131 -199t197 -133t241.5 -49.5zM887 1059q77 0 130.5 -35.5t76 -87.5t22.5 -115q0 -43 -12.5 -83.5t-38.5 -75.5t-72 -56.5t-106 -21.5h-168v-254h-107v729h275zM883 690q63 0 94 37.5
t31 93.5t-30.5 94.5t-90.5 38.5h-168v-264h164z" />
    <glyph glyph-name="uni2120" unicode="&#x2120;" horiz-adv-x="1998" 
d="M487 1042q234 -65 234 -239q0 -108 -85 -178t-214 -70q-124 0 -203.5 68.5t-85.5 171.5h125q6 -56 51 -93.5t115 -37.5q79 0 126.5 38.5t47.5 94.5q0 91 -139 131l-109 28q-209 55 -209 226q0 106 82 173.5t199 67.5q115 0 191 -64.5t79 -172.5h-123q-3 56 -43.5 90.5
t-105.5 34.5t-109.5 -35t-44.5 -90q0 -84 119 -117zM1860 565h-127l-74 619l-258 -529h-101l-256 527l-77 -617h-125l104 846h109l297 -623l295 623h106z" />
    <glyph glyph-name="trademark" unicode="&#x2122;" horiz-adv-x="1945" 
d="M72 1303v108h626v-108h-252v-738h-124v738h-250zM1798 565h-127l-74 619l-258 -529h-100l-256 527l-76 -617h-129l107 846h108l297 -620l295 620h109z" />
    <glyph glyph-name="estimated" unicode="&#x212e;" horiz-adv-x="1329" 
d="M672 -20q-122 0 -227 47.5t-176.5 128t-111.5 189t-40 228.5q0 164 66.5 298t196.5 215t300 81q169 0 298 -82.5t195 -217t66 -296.5h-879v-395q135 -129 312 -129q67 0 124.5 14.5t99.5 36.5t81 58t66.5 70t58.5 81l63 -39q-34 -53 -67.5 -94t-78 -78.5t-94 -62
t-114 -39t-139.5 -14.5zM360 639h633v334q-59 54 -143.5 90.5t-169.5 36.5q-196 0 -320 -127v-334z" />
    <glyph glyph-name="oneeighth" unicode="&#x215b;" horiz-adv-x="1536" 
d="M1047 1374h110l-921 -1394h-111zM231 604v602l-174 -71v104l275 119h10v-754h-111zM1319 420q62 -24 101.5 -79t39.5 -122q0 -98 -81 -163.5t-195 -65.5q-116 0 -196.5 65.5t-80.5 163.5q0 66 39.5 121.5t100.5 79.5q-35 19 -58.5 59t-23.5 86q0 80 63.5 135.5
t155.5 55.5t156.5 -55.5t64.5 -135.5q0 -47 -24.5 -86t-61.5 -59zM1184 659q-49 0 -82 -29t-33 -71t32.5 -71.5t82.5 -30.5q50 1 82 30.5t32 71.5t-32.5 71t-81.5 29zM1184 90q70 0 116 40.5t46 100.5t-45.5 101t-116.5 41t-116.5 -41t-45.5 -101t46 -100.5t116 -40.5z" />
    <glyph glyph-name="threeeighths" unicode="&#x215c;" horiz-adv-x="1726" 
d="M1237 1374h111l-922 -1394h-111zM573 813q0 -98 -77.5 -158.5t-198.5 -60.5q-77 0 -139 31.5t-99 89.5l76 63q55 -84 156 -84q74 0 120 35.5t46 93.5t-40 93.5t-104 35.5h-73v86h49q62 0 98 33.5t33 81.5q-2 46 -37 74t-92 28q-43 0 -82.5 -19.5t-61.5 -51.5l-61 71
q89 103 219 103q100 0 165 -55t65 -146q0 -45 -27.5 -85.5t-73.5 -65.5q63 -22 101 -73t38 -120zM1509 420q62 -24 102 -79t40 -122q0 -98 -81.5 -163.5t-195.5 -65.5q-116 0 -196 65.5t-80 163.5q0 67 39 122t100 79q-35 19 -58.5 59t-23.5 86q0 80 63.5 135.5t155.5 55.5
t156.5 -55.5t64.5 -135.5q0 -47 -24.5 -86t-61.5 -59zM1374 659q-49 0 -81.5 -29t-32.5 -71t32 -71.5t82 -30.5q50 1 82.5 30.5t32.5 71.5t-33 71t-82 29zM1374 90q70 0 116 40.5t46 100.5t-45.5 101t-116.5 41t-116.5 -41t-45.5 -101t46 -100.5t116 -40.5z" />
    <glyph glyph-name="fiveeighths" unicode="&#x215d;" horiz-adv-x="1746" 
d="M1257 1374h111l-922 -1394h-110zM602 852q0 -117 -81.5 -188.5t-196.5 -71.5q-75 0 -147 38t-109 101l86 60q25 -41 71 -68t92 -27q75 0 122.5 43.5t47.5 112.5q0 65 -42 106t-111 41q-96 0 -182 -59l-62 39l66 371h395v-105h-301l-39 -194q62 41 156 41
q102 0 168.5 -68.5t66.5 -171.5zM1530 420q62 -24 101.5 -79t39.5 -122q0 -98 -81 -163.5t-195 -65.5q-116 0 -196.5 65.5t-80.5 163.5q0 67 39 122t100 79q-35 19 -58 59t-23 86q0 80 63.5 135.5t155.5 55.5t156.5 -55.5t64.5 -135.5q0 -47 -24.5 -86t-61.5 -59zM1395 659
q-49 0 -82 -29t-33 -71t32.5 -71.5t82.5 -30.5q50 1 82 30.5t32 71.5t-32.5 71t-81.5 29zM1395 90q70 0 115.5 40.5t45.5 100.5t-45 101t-116 41t-116.5 -41t-45.5 -101t46 -100.5t116 -40.5z" />
    <glyph glyph-name="seveneighths" unicode="&#x215e;" horiz-adv-x="1591" 
d="M1122 1374h111l-922 -1394h-110zM266 604h-127l297 639h-342v105h510v-15zM1376 420q62 -24 102 -79t40 -122q0 -98 -81.5 -163.5t-195.5 -65.5q-116 0 -196 65.5t-80 163.5q0 67 39 122t100 79q-35 19 -58.5 59t-23.5 86q0 80 63.5 135.5t155.5 55.5t156.5 -55.5
t64.5 -135.5q0 -47 -24.5 -86t-61.5 -59zM1241 659q-49 0 -82 -29t-33 -71t32.5 -71.5t82.5 -30.5q50 1 82.5 30.5t32.5 71.5t-33 71t-82 29zM1241 90q70 0 116 40.5t46 100.5t-45.5 101t-116.5 41t-116.5 -41t-45.5 -101t46 -100.5t116 -40.5z" />
    <glyph glyph-name="arrowleft" unicode="&#x2190;" horiz-adv-x="1736" 
d="M1630 770v-125h-1306l370 -369l-88 -86l-520 521l520 522l88 -88l-375 -375h1311z" />
    <glyph glyph-name="arrowup" unicode="&#x2191;" horiz-adv-x="1159" 
d="M1100 944l-86 -88l-373 375v-1231h-125v1227l-371 -371l-88 88l523 520z" />
    <glyph glyph-name="arrowright" unicode="&#x2192;" horiz-adv-x="1736" 
d="M1130 1233l519 -522l-519 -521l-88 86l369 369h-1305v125h1311l-375 375z" />
    <glyph glyph-name="arrowdown" unicode="&#x2193;" horiz-adv-x="1157" 
d="M1012 543l88 -88l-522 -521l-521 521l86 88l373 -373v1241h125v-1241z" />
    <glyph glyph-name="arrowboth" unicode="&#x2194;" horiz-adv-x="2131" 
d="M1534 1245l518 -520l-518 -522l-88 88l377 375l-1512 -2l377 -375l-88 -88l-520 522l518 522l88 -88l-369 -369l1495 3l-366 368z" />
    <glyph glyph-name="arrowupdn" unicode="&#x2195;" horiz-adv-x="1185" 
d="M651 -2l375 375l88 -88l-522 -518l-520 518l86 88l368 -369v1497l-368 -368l-86 88l520 518l522 -518l-88 -88l-375 374v-1509z" />
    <glyph glyph-name="partialdiff" unicode="&#x2202;" horiz-adv-x="1134" 
d="M627 1364q93 0 164.5 -30.5t115 -80t71.5 -121t38.5 -144.5t9.5 -161t-8.5 -160.5t-20.5 -150.5q-42 -245 -185 -390.5t-347 -145.5q-178 0 -285.5 122t-85.5 301q14 118 79.5 219.5t168.5 162.5t219 61q94 0 184.5 -47t137.5 -135q36 280 -32.5 431.5t-244.5 151.5z
M823 426q13 128 -67 208.5t-209 80.5q-124 -1 -216.5 -90t-107.5 -217q-15 -130 60 -213.5t202 -83.5q125 2 222 92t116 223z" />
    <glyph glyph-name="emptyset" unicode="&#x2205;" horiz-adv-x="1673" 
d="M1552 1360l-176 -178q174 -203 174 -477q0 -118 -35.5 -228t-101 -199t-152.5 -156t-197 -103.5t-228 -36.5q-136 0 -258.5 48t-217.5 136l-176 -176l-61 65l174 174q-83 96 -127.5 218.5t-44.5 257.5q0 198 94 364.5t257.5 263.5t359.5 97q137 0 259 -48.5t218 -136.5
l176 176zM223 705q0 -231 146 -404l874 875q-81 73 -186 114t-221 41q-169 0 -310 -84t-222 -227.5t-81 -314.5zM1452 705q0 233 -147 407l-875 -876q170 -154 406 -154q127 0 241.5 49.5t196.5 133t130 198.5t48 242z" />
    <glyph glyph-name="product" unicode="&#x220f;" horiz-adv-x="1466" 
d="M1257 1411v-1739h-135v1616h-778v-1616h-135v1739h1048z" />
    <glyph glyph-name="summation" unicode="&#x2211;" horiz-adv-x="1204" 
d="M1126 1411v-123h-866l481 -745l-483 -750h868v-121h-1056v66l520 805l-520 803v65h1056z" />
    <glyph glyph-name="minus" unicode="&#x2212;" horiz-adv-x="1165" 
d="M152 479v121h862v-121h-862z" />
    <glyph glyph-name="radical" unicode="&#x221a;" horiz-adv-x="1253" 
d="M1133 1722h139l-617 -2050h-141l-268 879h-252v113h358l232 -779z" />
    <glyph glyph-name="infinity" unicode="&#x221e;" horiz-adv-x="1763" 
d="M1313 940q143 0 237.5 -91.5t94.5 -240.5t-94.5 -240.5t-237.5 -91.5q-89 0 -163 37t-155 111l-112 106l-111 -106q-82 -74 -157 -111t-162 -37q-144 0 -239 91.5t-95 240.5t95 240.5t239 91.5q168 0 319 -145l109 -107l114 107q79 73 153.5 109t164.5 36zM690 502
l109 106l-119 115q-51 50 -101.5 71t-111.5 21q-100 0 -161.5 -54t-61.5 -153q0 -97 62 -152t161 -55q113 0 223 101zM1296 401q99 0 160.5 54.5t61.5 152.5q0 99 -61 153t-161 54q-121 0 -221 -100l-108 -109l106 -104q107 -101 223 -101z" />
    <glyph glyph-name="integral" unicode="&#x222b;" horiz-adv-x="684" 
d="M541 1495h90v-125h-72q-129 0 -185.5 -75.5t-45.5 -198.5l159 -1065q27 -154 -69.5 -256.5t-274.5 -102.5h-88v123h70q128 0 189 76t42 190l-159 1020q-28 182 65.5 298t278.5 116z" />
    <glyph glyph-name="approxequal" unicode="&#x2248;" horiz-adv-x="1406" 
d="M1247 754q-52 -59 -132.5 -100.5t-164.5 -41.5q-42 0 -85 8.5t-64.5 16t-64 26t-50.5 21.5q-13 5 -47 21t-56 25t-59.5 17.5t-74.5 8.5q-62 0 -127 -33.5t-115 -83.5l-57 82q55 59 135.5 100t163.5 41q42 0 84 -8.5t65.5 -17.5t62 -26t50.5 -22q9 -4 46.5 -20.5t58 -24.5
t58.5 -16t74 -8q62 0 127.5 33.5t114.5 81.5zM1257 356q-51 -60 -133 -102.5t-166 -42.5q-42 0 -84 9t-64 17t-62.5 26l-49.5 22t-46.5 20.5t-58 24.5t-59 16t-75.5 8q-62 0 -129 -33t-115 -81l-55 82q55 59 135.5 100t163.5 41q42 0 84 -8.5t65.5 -17.5t62 -26t50.5 -22
q10 -4 46.5 -20.5t57.5 -24.5t59 -16.5t74 -8.5q63 0 129 33t115 82z" />
    <glyph glyph-name="notequal" unicode="&#x2260;" horiz-adv-x="1236" 
d="M256 14l137 224h-239v127h309l184 286h-493v127h563l131 217h115l-132 -217h250v-127h-321l-185 -286h506v-127h-575l-137 -224h-113z" />
    <glyph glyph-name="lessequal" unicode="&#x2264;" horiz-adv-x="1304" 
d="M1157 244l-1038 397v133l1038 397v-139l-862 -325l862 -324v-139zM137 0v119h1020v-119h-1020z" />
    <glyph glyph-name="greaterequal" unicode="&#x2265;" horiz-adv-x="1304" 
d="M147 244v139l863 324l-863 325v139l1039 -397v-133zM147 0v119h1020v-119h-1020z" />
    <glyph glyph-name="filledbox" unicode="&#x25a0;" horiz-adv-x="1429" 
d="M164 1264h1102v-1102h-1102v1102z" />
    <glyph glyph-name="uni25A1" unicode="&#x25a1;" horiz-adv-x="1271" 
d="M129 1264h1102v-1102h-1102v1102zM240 1153v-881h880v881h-880z" />
    <glyph glyph-name="triagup" unicode="&#x25b2;" horiz-adv-x="1595" 
d="M164 141l633 1096l635 -1098z" />
    <glyph glyph-name="uni25B6" unicode="&#x25b6;" horiz-adv-x="1425" 
d="M166 1378l1096 -633l-1098 -636z" />
    <glyph glyph-name="triagdn" unicode="&#x25bc;" horiz-adv-x="1595" 
d="M164 1235l1268 2l-635 -1098z" />
    <glyph glyph-name="uni25C0" unicode="&#x25c0;" horiz-adv-x="1425" 
d="M1260 1378l2 -1269l-1098 636z" />
    <glyph glyph-name="lozenge" unicode="&#x25ca;" horiz-adv-x="1228" 
d="M582 1454l456 -729l-456 -725h-41l-457 725l457 729h41zM905 725l-344 549l-344 -549l344 -549z" />
    <glyph glyph-name="circle" unicode="&#x25cb;" horiz-adv-x="1421" 
d="M1319 723q0 -165 -81.5 -305t-221.5 -221.5t-305 -81.5t-305.5 81.5t-222 221.5t-81.5 305t81.5 305t222 221.5t305.5 81.5t305 -81.5t221.5 -221.5t81.5 -305zM1206 723q0 135 -66 249t-180 180.5t-249 66.5q-134 0 -248 -67t-181 -181t-67 -248t67 -248t181 -181
t248 -67q135 0 249 67t180 181t66 248z" />
    <glyph glyph-name="uni2605" unicode="&#x2605;" horiz-adv-x="1800" 
d="M1196 512l184 -563l-481 348l-479 -348l182 563l-479 350h594l182 565l184 -565h594z" />
    <glyph glyph-name="uni2610" unicode="&#x2610;" horiz-adv-x="1382" 
d="M692 -12q-160 0 -296 79t-215 215t-79 296q0 159 79 294t215 213t296 78t295.5 -78t214 -213t78.5 -294q0 -160 -78.5 -296t-214 -215t-295.5 -79zM692 100q198 0 337.5 139.5t139.5 338.5q0 97 -37.5 184.5t-101.5 151.5t-152.5 101.5t-185.5 37.5q-199 0 -338 -138.5
t-139 -336.5q0 -200 139 -339t338 -139z" />
    <glyph glyph-name="uni2611" unicode="&#x2611;" horiz-adv-x="1458" 
d="M1372 1360l-256 -410q135 -161 135 -372q0 -160 -78.5 -296t-214.5 -215t-296 -79t-296 79t-215 215t-79 296q0 159 79 294t215 213t296 78q200 0 362 -123l236 379zM1139 578q0 150 -86 272l-375 -602h-39l-330 461l99 82l245 -349l312 502q-131 109 -303 109
q-130 0 -240 -63t-174 -172.5t-64 -239.5q0 -199 140 -338.5t338 -139.5t337.5 139.5t139.5 338.5z" />
    <glyph glyph-name="uni261C" unicode="&#x261c;" horiz-adv-x="2039" 
d="M63 940q3 63 43 100t111 37l709 -2l-45 96q-28 53 -12.5 113t53.5 82q31 17 57 23.5t58 2.5t66.5 -28.5t72.5 -69.5l360 -444v70q0 36 26 62t62 26h174q35 0 61.5 -27.5t26.5 -60.5v-832q0 -32 -27 -60t-61 -28h-174q-36 0 -62 26t-26 62v94h-793q-83 10 -122 47t-33 90
q6 38 33 62q-144 18 -129 149q7 35 22 56q-69 21 -99 56t-18 89q10 48 33 66l-213 4q-74 2 -115.5 37.5t-38.5 101.5zM223 887l582 -10q86 -1 128 -48t36 -116q-6 -58 -31 -74q64 -8 91.5 -45.5t27.5 -83.5q0 -75 -62 -102q38 -10 49 -59.5t-4 -80.5l496 -2l2 453l-428 508
q-6 6 -18.5 19t-18.5 18.5t-16 14.5t-16.5 12t-15.5 5.5t-18 0.5t-18 -7q-30 -17 -32.5 -45t11.5 -55.5t44 -69.5l202 -282q9 -13 6.5 -31.5t-14.5 -24.5q-18 -11 -36.5 -6t-30.5 23l-138 178l-778 6q-61 0 -61 -49q0 -47 61 -47zM530 674h275q62 0 69 51q5 32 -17.5 52
t-65.5 20l-236 -2q-40 0 -60.5 -17t-17.5 -55q3 -44 53 -49zM629 461l272 -4q29 0 47.5 14t18.5 41q0 70 -68 70l-260 -4q-31 0 -46 -13.5t-18 -42.5q-3 -55 54 -61zM741 274l160 -4q70 -3 70 41q0 29 -14.5 40.5t-51.5 13.5l-174 6q-51 3 -51 -41q0 -27 11.5 -41t49.5 -15z
" />
    <glyph glyph-name="uni261E" unicode="&#x261e;" horiz-adv-x="2039" 
d="M1976 940q3 -66 -38 -101.5t-115 -37.5l-213 -4q22 -17 32 -66q12 -54 -17.5 -89t-98.5 -56q15 -21 22 -56q15 -131 -129 -149q27 -24 33 -62q6 -53 -33.5 -90t-122.5 -47h-792v-94q0 -36 -26 -62t-62 -26h-174q-34 0 -61 28t-27 60v832q0 33 26.5 60.5t61.5 27.5h174
q36 0 62 -26t26 -62v-70l360 444q38 45 72.5 69.5t66.5 28.5t58 -2.5t57 -23.5q38 -22 53.5 -82t-12.5 -113l-45 -96l709 2q70 0 110 -37t43 -100zM1817 887q61 0 61 47q0 49 -61 49l-779 -6q-112 -143 -137 -178q-12 -18 -30.5 -23t-36.5 6q-12 6 -15 24t6 32l203 282
q30 42 44 69.5t11.5 55.5t-32.5 45q-9 5 -18 7t-18 -0.5t-15.5 -5.5t-16.5 -12t-16 -14.5t-18.5 -18.5t-18.5 -19l-428 -508l2 -453l495 2q-15 31 -4 80.5t49 59.5q-28 12 -44.5 39t-16.5 63q0 46 27.5 83.5t91.5 45.5q-25 16 -31 74q-6 69 36 116t128 48zM1509 674
q51 6 54 49q3 38 -17.5 55t-60.5 17l-236 2q-43 0 -66 -20.5t-18 -51.5q7 -51 70 -51h274zM1411 461q56 6 53 61q-3 29 -17.5 42.5t-45.5 13.5l-260 4q-68 0 -68 -70q0 -27 18.5 -41t47.5 -14zM1298 274q38 1 50 15t12 41q0 44 -51 41l-174 -6q-37 -2 -51.5 -13.5
t-14.5 -40.5q0 -44 70 -41z" />
    <glyph glyph-name="diamond" unicode="&#x2666;" horiz-adv-x="1282" 
d="M662 -51l-498 747l498 748l499 -748z" />
    <glyph glyph-name="uni267C" unicode="&#x267c;" horiz-adv-x="1777" 
d="M889 -20q-196 0 -363 97t-264.5 264t-97.5 364q0 196 97.5 363t264.5 264.5t363 97.5q197 0 364 -97.5t264 -264.5t97 -363q0 -197 -97 -364t-264 -264t-364 -97zM723 829l145 256q18 18 31 -4l84 -141l-80 -49l264 2l129 229l-86 -51l-57 94q-16 26 -41 42.5t-42 20.5
l-17 3l-332 2q-39 -4 -68 -21.5t-38 -33.5l-9 -15l-117 -200zM1042 125v100l111 2q30 1 57 15t38 28l12 13l165 286q16 36 16 70t-8 50l-8 16l-116 198l-232 -131l148 -258q4 -9 -1.5 -15.5t-17.5 -6.5l-166 -3v95l-131 -230zM618 225h232l-2 267h-295q-11 2 -14.5 9.5
t2.5 18.5l82 146l82 -48l-136 228l-262 -2l86 -49l-53 -97q-15 -27 -16.5 -57t4.5 -47l6 -16l166 -287q24 -32 53.5 -48.5t46.5 -16.5z" />
    <glyph glyph-name="uni2713" unicode="&#x2713;" horiz-adv-x="1228" 
d="M1260 1419l112 -59l-692 -1112h-39l-330 461l97 82l247 -349z" />
    <glyph glyph-name="uni2B24" unicode="&#x2b24;" horiz-adv-x="1544" 
d="M1380 723q0 -165 -81.5 -305t-221.5 -221.5t-305 -81.5t-305 81.5t-221.5 221.5t-81.5 305t81.5 305t221.5 221.5t305 81.5t305 -81.5t221.5 -221.5t81.5 -305z" />
    <glyph glyph-name="uniF6DD" unicode="&#xf6dd;" horiz-adv-x="2385" 
d="M1126 981q0 -84 -22.5 -157.5t-68.5 -134.5t-125.5 -97.5t-184.5 -38.5l391 -553h-164l-387 553h-237v-553h-135v1411h526q106 0 186.5 -36t127.5 -98t70 -136.5t23 -159.5zM686 678q105 0 175.5 41.5t100 107.5t29.5 154q0 132 -70 217.5t-200 85.5h-393v-606h358z
M1831 977q99 0 189 -37.5t155.5 -103t104 -159t38.5 -200.5q0 -215 -140.5 -356t-344.5 -141q-124 0 -227 54.5t-156 151.5v-651h-129v1421h129v-188q53 97 157 153t224 56zM1823 104q152 0 258 107t106 264q0 159 -106 268t-258 109q-153 0 -263 -104.5t-110 -266.5
q0 -167 111 -272t262 -105z" />
    <glyph glyph-name="centsuperior" unicode="&#xf6e0;" horiz-adv-x="618" 
d="M344 1167q71 0 121 50l86 -58q-79 -86 -182 -94v-129h-62v129q-105 12 -175.5 87t-70.5 187q0 111 70.5 185t175.5 86v127h62v-127q103 -8 182 -94l-86 -58q-52 49 -121 49q-74 0 -121 -47.5t-47 -120.5q0 -75 47.5 -123.5t120.5 -48.5z" />
    <glyph glyph-name="commasuperior" unicode="&#xf6e2;" horiz-adv-x="348" 
d="M102 877l-63 30q94 122 94 310h103q0 -182 -134 -340z" />
    <glyph glyph-name="periodsuperior" unicode="&#xf6e8;" horiz-adv-x="319" 
d="M160 1063q-31 0 -52.5 20.5t-21.5 51.5q0 30 21.5 49.5t52.5 19.5q30 0 51.5 -19.5t21.5 -49.5t-21.5 -51t-51.5 -21z" />
    <glyph glyph-name="uniF8FF" unicode="&#xf8ff;" horiz-adv-x="2009" 
d="M164 0v1434h1681v-1434h-1681zM1067 752q25 0 33 14h2l4 -12h16v149h-22v-39q0 -10 2 -18h-2q-10 16 -31 16q-22 0 -33 -14q-10 -17 -10 -41t10 -41q11 -14 31 -14zM1378 889q0 -6 2 -10q2 -2 11 -2q8 0 10 2q2 4 2 10t-2 10q-2 2 -10 2q-9 0 -11 -2q-2 -4 -2 -10z
M412 754l41 116h2q0 -8 -2 -20v-96h22v141h-33l-41 -113l-39 113h-32v-141h20v67q0 33 -2 51h2l41 -118h21zM780 770q-8 0 -10 4q-4 2 -4 12v58h31v16h-31v25h-14l-9 -23l-16 -8v-10h16v-60q0 -32 31 -32h12q2 1 6 2t5 2v16q-4 -2 -17 -2zM610 807q0 24 -14 41
q-11 14 -37 14q-25 0 -39 -14q-12 -15 -12 -41q0 -17 6 -29q6 -14 18 -20q9 -6 27 -6q26 0 37 14q14 18 14 41zM713 784q0 5 -4 13q-1 2 -9 10q-13 7 -20 8q-5 2 -21 10q-4 4 -4 9q0 10 19 10q10 0 28 -6l9 16q-16 8 -37 8q-20 0 -31 -8q-10 -7 -10 -20t6 -19q5 -7 25 -14
l16 -8q6 0 6 -5q4 -4 4 -8q0 -12 -22 -12q-11 0 -35 8v-18q12 -6 35 -6q21 0 32 8q13 10 13 24zM905 754v71q0 21 -10 29q-8 8 -31 8q-12 0 -18 -2q-14 -4 -21 -8l9 -16q6 6 14 6q6 2 16 2q13 0 15 -4q4 -4 4 -17v-4l-19 -2q-26 0 -37 -8q-12 -9 -12 -25t8 -24t25 -8
q16 0 20 2q9 6 17 14l6 -14h14zM997 862q-12 0 -18 -6q-12 -8 -14 -14h-2l-2 18h-19v-106h23v55q0 10 8 22q11 11 22 11q7 0 11 -2l2 22h-11zM1206 752h21l16 6v18l-18 -6q-2 0 -8 -1t-9 -1q-15 0 -22 10q-8 5 -8 23h71v12q0 25 -12 37t-35 12q-24 0 -35 -14
q-14 -14 -14 -43q0 -25 14 -39t39 -14zM1350 784q0 9 -2 13q-1 2 -9 10q-13 7 -20 8q-5 2 -21 10q-4 4 -4 9q0 10 19 10q10 0 28 -6l9 16q-16 8 -37 8q-20 0 -31 -8q-10 -7 -10 -20t6 -19q5 -7 25 -14l16 -8q6 0 6 -5q2 -2 2 -8q0 -12 -20 -12q-11 0 -35 8v-18q12 -6 35 -6
q21 0 32 8t11 24zM1493 860q-1 0 -3.5 1t-4.5 1h-10q-21 0 -31 -10q-12 -9 -12 -27q0 -12 6 -18q6 -9 14 -12q-2 -1 -10 -9q-4 -4 -4 -10l2 -8q3 -6 8 -6q-8 -2 -16 -10q-7 -7 -7 -17q0 -14 11 -22q16 -8 34 -8q26 0 43 10q15 9 15 28q0 15 -8 23q-9 6 -29 6h-18q-3 0 -8 1
l-5 1q-4 4 -4 6q0 7 8 11h11q19 0 30 8q13 10 13 26q0 2 -1 6t-1 5q-3 6 -5 8l19 4v12h-37zM1649 823q0 39 -39 39q-9 0 -21 -4q-8 -3 -14 -12l-4 14h-19v-106h25v53q0 20 6 29q5 8 21 8q10 0 16 -6q4 -4 4 -19v-65h25v69zM1403 860h-25v-106h25v106zM1454 825q0 11 6 17
q3 6 15 6q11 0 14 -6q6 -6 6 -17q0 -20 -20 -20q-7 0 -15 4q-6 6 -6 16zM1202 846q9 0 17 -8t8 -21h-49q0 16 8 21q8 8 16 8zM530 807q0 18 9 27q7 10 20 10q27 0 27 -37t-27 -37q-29 0 -29 37zM1073 770q-13 0 -18 8q-6 9 -6 29q0 18 6 27q7 10 18 10q16 0 21 -8
q8 -8 8 -29v-4q0 -20 -8 -25q-5 -8 -21 -8zM856 768q-8 0 -12 4q-4 2 -4 12q0 9 6 15q12 4 24 4l13 2v-10q0 -13 -6 -19q-8 -8 -21 -8zM1446 735q0 11 4 15q8 4 16 4h17q14 0 18 -4q6 -3 6 -11q0 -9 -10 -12q-9 -6 -27 -6q-10 0 -18 4q-6 3 -6 10zM1391 512q20 0 30 16h2
l4 -14h17v152h-23v-39q0 -1 1 -8t1 -11q-12 15 -32 15q-21 0 -33 -15q-10 -17 -10 -41t10 -41q11 -14 33 -14zM379 637h43v18h-107v-18h41v-123h23v123zM883 573h53v19h-53v45h57v18h-80v-141h23v59zM471 514l-4 -10q-6 -19 -23 -19h-12v-16q6 -2 14 -2q32 0 43 33l46 123
h-25q-6 -20 -11.5 -36.5t-9.5 -26.5l-4 -11q-2 -4 -2 -12h-2q0 12 -6 24l-22 62h-25zM610 512q17 0 31 14q12 15 12 41q0 29 -12 41q-9 15 -31 15q-21 0 -32 -17l-5 17h-18v-156h23v59q11 -14 32 -14zM731 512q13 0 19 2q10 0 16 6v19q-10 -7 -16 -7q-6 -2 -19 -2t-22 9
q-9 13 -9 24h72v12q0 23 -12 35q-13 13 -33 13q-25 0 -37 -15t-12 -41t12 -41q14 -14 41 -14zM1063 567q0 27 -14 41q-12 15 -37 15t-37 -15q-14 -11 -14 -41q0 -16 6 -28t18 -21q12 -6 27 -6q23 0 37 14t14 41zM1186 514v109h-23v-56q0 -19 -6 -28q-9 -9 -20 -9
q-10 0 -17 7q-6 6 -6 18v68h-22v-72q0 -19 10 -29t28 -10q9 0 21 4q11 7 14 12l4 -14h17zM1317 584q0 39 -37 39q-12 0 -20 -5q-8 -2 -15 -10l-4 15h-18v-109h22v53q0 17 8 29q5 8 21 8q10 0 16 -6q4 -8 4 -18v-66h23v70zM1536 623q-10 0 -18 -5t-15 -16l-4 21h-18v-109h22
v55q0 15 10 25q5 8 21 8h10l2 21h-10zM1597 514l-4 -10q-6 -19 -22 -19h-12v-16q6 -2 14 -2q32 0 43 33l45 123h-25q-9 -30 -24 -74q-2 -4 -2 -12h-2q0 12 -6 24l-23 62h-25zM727 606q10 0 16 -6q7 -10 7 -20h-50q3 10 9 20q6 6 18 6zM604 604q14 0 19 -8q6 -9 6 -29
q0 -17 -6 -26q-7 -11 -19 -11q-13 0 -20 11q-6 6 -6 26v4q0 19 6 25q5 8 20 8zM985 567q0 20 6 29q5 8 21 8q26 0 26 -37t-26 -37q-27 0 -27 37zM1397 530q-14 0 -21 11q-6 9 -6 26t6 29q8 8 19 8q14 0 22 -8q6 -9 6 -29v-2q0 -17 -6 -26q-9 -9 -20 -9z" />
    <glyph glyph-name="IJ.alt" horiz-adv-x="1361" 
d="M209 0v1411h135v-1411h-135zM745 -20q-52 0 -124 14l14 129q47 -12 110 -12q76 0 132.5 24.5t89.5 69t49 99.5t16 122v985h135v-985q0 -94 -23.5 -172.5t-72 -141t-132 -97.5t-194.5 -35z" />
    <glyph glyph-name="J.alt" horiz-adv-x="774" 
d="M160 -20q-52 0 -127 14l14 129q46 -12 113 -12q76 0 132.5 24.5t89.5 69t48.5 99.5t15.5 122v985h136v-985q0 -94 -23.5 -172.5t-72 -141t-132 -97.5t-194.5 -35z" />
    <glyph glyph-name="Jcircumflex.alt" horiz-adv-x="774" 
d="M213 1552l229 314h142l229 -314h-121l-180 213l-178 -213h-121zM160 -20q-52 0 -127 14l14 129q46 -12 113 -12q76 0 132.5 24.5t89.5 69t48.5 99.5t15.5 122v985h136v-985q0 -94 -23.5 -172.5t-72 -141t-132 -97.5t-194.5 -35z" />
    <glyph glyph-name="W.alt" horiz-adv-x="1857" 
d="M1661 1411h145l-434 -1411h-127l-315 1133l-318 -1133h-127l-434 1411h146l350 -1192l321 1141h121l322 -1141z" />
    <glyph glyph-name="Wacute.alt" horiz-adv-x="1857" 
d="M1237 1866l-229 -314h-127l198 314h158zM1661 1411h145l-434 -1411h-127l-315 1133l-318 -1133h-127l-434 1411h146l350 -1192l321 1141h121l322 -1141z" />
    <glyph glyph-name="Wcircumflex.alt" horiz-adv-x="1857" 
d="M936 1765l-178 -213h-121l229 314h142l229 -314h-121zM1661 1411h145l-434 -1411h-127l-315 1133l-318 -1133h-127l-434 1411h146l350 -1192l321 1141h121l322 -1141z" />
    <glyph glyph-name="Wdieresis.alt" horiz-adv-x="1857" 
d="M764 1614q-42 0 -71 26.5t-29 65.5q0 41 29 67.5t71 26.5q41 0 69.5 -26.5t28.5 -67.5q0 -39 -29 -65.5t-69 -26.5zM1110 1614q-42 0 -71 26.5t-29 65.5q0 41 29 67.5t71 26.5t70 -26.5t28 -67.5q0 -40 -28 -66t-70 -26zM1661 1411h145l-434 -1411h-127l-315 1133
l-318 -1133h-127l-434 1411h146l350 -1192l321 1141h121l322 -1141z" />
    <glyph glyph-name="Wgrave.alt" horiz-adv-x="1857" 
d="M1004 1552h-127l-226 314h158zM1661 1411h145l-434 -1411h-127l-315 1133l-318 -1133h-127l-434 1411h146l350 -1192l321 1141h121l322 -1141z" />
    <glyph glyph-name="A.c2sc" horiz-adv-x="1114" 
d="M944 0l-117 299h-540l-117 -299h-141l456 1145h144l454 -1145h-139zM334 416h446l-223 569z" />
    <glyph glyph-name="Aacute.c2sc" horiz-adv-x="1114" 
d="M817 1524l-199 -260h-114l168 260h145zM944 0l-117 299h-540l-117 -299h-141l456 1145h144l454 -1145h-139zM334 416h446l-223 569z" />
    <glyph glyph-name="Abreve.c2sc" horiz-adv-x="1114" 
d="M557 1290q-107 0 -161 59t-54 148h100q0 -53 29 -85t86 -32q52 0 81.5 32.5t29.5 84.5h102q0 -96 -58.5 -151.5t-154.5 -55.5zM944 0l-117 299h-540l-117 -299h-141l456 1145h144l454 -1145h-139zM334 416h446l-223 569z" />
    <glyph glyph-name="uni01CD.c2sc" horiz-adv-x="1114" 
d="M625 1264h-136l-196 260h110l152 -170l154 170h110zM944 0l-117 299h-540l-117 -299h-141l456 1145h144l454 -1145h-139zM334 416h446l-223 569z" />
    <glyph glyph-name="Acircumflex.c2sc" horiz-adv-x="1114" 
d="M555 1434l-152 -170h-110l196 260h136l194 -260h-110zM944 0l-117 299h-540l-117 -299h-141l456 1145h144l454 -1145h-139zM334 416h446l-223 569z" />
    <glyph glyph-name="Adieresis.c2sc" horiz-adv-x="1114" 
d="M406 1313q-37 0 -64 23.5t-27 58.5q0 33 27 56.5t64 23.5q36 0 62 -23.5t26 -56.5q0 -35 -26 -58.5t-62 -23.5zM707 1313q-36 0 -62.5 23.5t-26.5 58.5q0 33 26.5 56.5t62.5 23.5q37 0 63.5 -23t26.5 -57q0 -35 -26.5 -58.5t-63.5 -23.5zM944 0l-117 299h-540l-117 -299
h-141l456 1145h144l454 -1145h-139zM334 416h446l-223 569z" />
    <glyph glyph-name="Agrave.c2sc" horiz-adv-x="1114" 
d="M618 1264h-114l-199 260h148zM944 0l-117 299h-540l-117 -299h-141l456 1145h144l454 -1145h-139zM334 416h446l-223 569z" />
    <glyph glyph-name="Amacron.c2sc" horiz-adv-x="1114" 
d="M770 1436v-99h-428v99h428zM944 0l-117 299h-540l-117 -299h-141l456 1145h144l454 -1145h-139zM334 416h446l-223 569z" />
    <glyph glyph-name="Aogonek.c2sc" horiz-adv-x="1114" 
d="M1106 -160h86q0 -81 -48 -128.5t-124 -47.5q-74 0 -121 44t-47 114q0 37 16 69l64 140l-105 268h-540l-117 -299h-141l456 1145h144l454 -1145h-77l-60 -139q-6 -18 -6 -37q0 -35 22.5 -56.5t57.5 -21.5q37 0 60 25.5t26 68.5zM334 416h446l-223 569z" />
    <glyph glyph-name="Aring.c2sc" horiz-adv-x="1114" 
d="M555 1264q-72 0 -121 48.5t-49 117.5t49 117t121 48t122 -48t50 -117t-50 -117.5t-122 -48.5zM555 1524q-40 0 -68 -28t-28 -66t28 -65.5t68 -27.5q41 0 69.5 27.5t28.5 65.5q0 39 -28.5 66.5t-69.5 27.5zM944 0l-117 299h-540l-117 -299h-141l456 1145h144l454 -1145
h-139zM334 416h446l-223 569z" />
    <glyph glyph-name="Aringacute.c2sc" horiz-adv-x="1114" 
d="M555 1264q-72 0 -121 48.5t-49 117.5q0 56 33 99t86 58l86 139h145l-112 -143q47 -19 75.5 -60t28.5 -93q0 -69 -50 -117.5t-122 -48.5zM555 1524q-40 0 -68 -28t-28 -66t28 -65.5t68 -27.5q41 0 69.5 27.5t28.5 65.5q0 39 -28.5 66.5t-69.5 27.5zM944 0l-117 299h-540
l-117 -299h-141l456 1145h144l454 -1145h-139zM334 416h446l-223 569z" />
    <glyph glyph-name="Atilde.c2sc" horiz-adv-x="1114" 
d="M475 1374q-21 0 -37 -20t-16 -56h-88q4 85 44.5 127.5t96.5 42.5q34 0 64.5 -19t54.5 -38.5t43 -19.5q21 0 37.5 18.5t17.5 54.5h86q-4 -85 -45 -126.5t-96 -41.5q-33 0 -63 19.5t-54.5 39t-44.5 19.5zM944 0l-117 299h-540l-117 -299h-141l456 1145h144l454 -1145h-139z
M334 416h446l-223 569z" />
    <glyph glyph-name="AE.c2sc" horiz-adv-x="1654" 
d="M965 121h579v-121h-713v297h-499l-191 -297h-153l731 1145h807v-121h-561v-401h489v-121h-489v-381zM410 420h421v602h-36z" />
    <glyph glyph-name="AEacute.c2sc" horiz-adv-x="1654" 
d="M1087 1524l-198 -260h-115l168 260h145zM965 121h579v-121h-713v297h-499l-191 -297h-153l731 1145h807v-121h-561v-401h489v-121h-489v-381zM410 420h421v602h-36z" />
    <glyph glyph-name="B.c2sc" horiz-adv-x="1138" 
d="M797 610q111 -26 169 -109.5t58 -183.5q0 -129 -94 -223t-252 -94h-485v1145h442q149 0 236 -76t87 -209q0 -83 -39.5 -152t-121.5 -98zM631 1024h-305v-365h325q82 0 128 53t46 136q0 81 -51.5 128.5t-142.5 47.5zM657 121q108 0 171 60.5t63 146.5q0 90 -65.5 153.5
t-174.5 63.5h-325v-424h331z" />
    <glyph glyph-name="C.c2sc" 
d="M711 -16q-125 0 -237 46t-192.5 124.5t-128 187.5t-47.5 229q0 160 80 294.5t219.5 213t305.5 78.5q128 0 241.5 -49t192.5 -135l-96 -82q-135 141 -338 141q-198 0 -334.5 -134.5t-136.5 -326.5t136.5 -327t334.5 -135q99 0 186 37.5t150 103.5l98 -80
q-81 -88 -193.5 -137t-240.5 -49z" />
    <glyph glyph-name="Cacute.c2sc" 
d="M555 1264l168 260h145l-200 -260h-113zM711 -16q-125 0 -237 46t-192.5 124.5t-128 187.5t-47.5 229q0 160 80 294.5t219.5 213t305.5 78.5q128 0 241.5 -49t192.5 -135l-96 -82q-135 141 -338 141q-198 0 -334.5 -134.5t-136.5 -326.5t136.5 -327t334.5 -135
q99 0 186 37.5t150 103.5l98 -80q-81 -88 -193.5 -137t-240.5 -49z" />
    <glyph glyph-name="Ccaron.c2sc" 
d="M612 1264l-194 260h110l152 -170l151 170h113l-196 -260h-136zM711 -16q-125 0 -237 46t-192.5 124.5t-128 187.5t-47.5 229q0 160 80 294.5t219.5 213t305.5 78.5q128 0 241.5 -49t192.5 -135l-96 -82q-135 141 -338 141q-198 0 -334.5 -134.5t-136.5 -326.5t136.5 -327
t334.5 -135q99 0 186 37.5t150 103.5l98 -80q-81 -88 -193.5 -137t-240.5 -49z" />
    <glyph glyph-name="Ccedilla.c2sc" 
d="M711 109q99 0 186 37.5t150 103.5l98 -80q-75 -81 -178.5 -130t-221.5 -56l43 -93q17 -34 17 -69q0 -70 -47 -114t-121 -44q-76 0 -124 47.5t-48 128.5h86q3 -43 26 -68.5t60 -25.5t58.5 21.5t21.5 56.5q0 19 -6 37l-52 125q-235 19 -394 186.5t-159 398.5
q0 160 80 294.5t219.5 213t305.5 78.5q128 0 241.5 -49t192.5 -135l-96 -82q-135 141 -338 141q-198 0 -334.5 -134.5t-136.5 -326.5t136.5 -327t334.5 -135z" />
    <glyph glyph-name="Cdotaccent.c2sc" 
d="M688 1303q-37 0 -63.5 23t-26.5 58q0 36 26.5 60t63.5 24q39 0 65.5 -24t26.5 -60q0 -35 -26.5 -58t-65.5 -23zM711 -16q-125 0 -237 46t-192.5 124.5t-128 187.5t-47.5 229q0 160 80 294.5t219.5 213t305.5 78.5q128 0 241.5 -49t192.5 -135l-96 -82q-135 141 -338 141
q-198 0 -334.5 -134.5t-136.5 -326.5t136.5 -327t334.5 -135q99 0 186 37.5t150 103.5l98 -80q-81 -88 -193.5 -137t-240.5 -49z" />
    <glyph glyph-name="D.c2sc" horiz-adv-x="1300" 
d="M193 0v1145h458q166 0 288.5 -76.5t184.5 -206t62 -293.5q0 -163 -62 -291t-184.5 -203t-288.5 -75h-458zM326 121h325q126 0 219 60.5t139 160.5t46 227q0 128 -46 230t-139 163.5t-219 61.5h-325v-903z" />
    <glyph glyph-name="Eth.c2sc" horiz-adv-x="1308" 
d="M659 1145q166 0 289 -76.5t185.5 -206t62.5 -293.5q0 -163 -62.5 -291t-185.5 -203t-289 -75h-458v518h-135v100h135v527h458zM659 121q190 0 297 126.5t107 321.5q0 128 -45.5 230t-138.5 163.5t-220 61.5h-325v-406h319v-100h-319v-397h325z" />
    <glyph glyph-name="Dcaron.c2sc" horiz-adv-x="1300" 
d="M514 1264l-195 260h111l152 -170l151 170h113l-197 -260h-135zM193 0v1145h458q166 0 288.5 -76.5t184.5 -206t62 -293.5q0 -163 -62 -291t-184.5 -203t-288.5 -75h-458zM326 121h325q126 0 219 60.5t139 160.5t46 227q0 128 -46 230t-139 163.5t-219 61.5h-325v-903z
" />
    <glyph glyph-name="Dcroat.c2sc" horiz-adv-x="1308" 
d="M659 1145q166 0 289 -76.5t185.5 -206t62.5 -293.5q0 -163 -62.5 -291t-185.5 -203t-289 -75h-458v518h-135v100h135v527h458zM659 121q190 0 297 126.5t107 321.5q0 128 -45.5 230t-138.5 163.5t-220 61.5h-325v-406h319v-100h-319v-397h325z" />
    <glyph glyph-name="E.c2sc" horiz-adv-x="1017" 
d="M324 121h583v-121h-714v1145h696v-121h-565v-399h493v-123h-493v-381z" />
    <glyph glyph-name="Eacute.c2sc" horiz-adv-x="1017" 
d="M774 1524l-201 -260h-114l168 260h147zM324 121h583v-121h-714v1145h696v-121h-565v-399h493v-123h-493v-381z" />
    <glyph glyph-name="Ecaron.c2sc" horiz-adv-x="1017" 
d="M580 1264h-136l-194 260h110l152 -170l152 170h110zM324 121h583v-121h-714v1145h696v-121h-565v-399h493v-123h-493v-381z" />
    <glyph glyph-name="Ecircumflex.c2sc" horiz-adv-x="1017" 
d="M512 1434l-152 -170h-110l194 260h136l194 -260h-110zM324 121h583v-121h-714v1145h696v-121h-565v-399h493v-123h-493v-381z" />
    <glyph glyph-name="Edieresis.c2sc" horiz-adv-x="1017" 
d="M360 1313q-37 0 -62.5 23.5t-25.5 58.5q0 34 25.5 57t62.5 23t63 -23t26 -57q0 -35 -26 -58.5t-63 -23.5zM664 1313q-37 0 -64 23.5t-27 58.5q0 33 27 56.5t64 23.5q36 0 62 -23.5t26 -56.5q0 -35 -26 -58.5t-62 -23.5zM324 121h583v-121h-714v1145h696v-121h-565v-399
h493v-123h-493v-381z" />
    <glyph glyph-name="Edotaccent.c2sc" horiz-adv-x="1017" 
d="M512 1303q-39 0 -65.5 23t-26.5 58q0 36 26.5 60t65.5 24t64.5 -23.5t25.5 -60.5q0 -35 -26 -58t-64 -23zM324 121h583v-121h-714v1145h696v-121h-565v-399h493v-123h-493v-381z" />
    <glyph glyph-name="Egrave.c2sc" horiz-adv-x="1017" 
d="M573 1264h-112l-199 260h146zM324 121h583v-121h-714v1145h696v-121h-565v-399h493v-123h-493v-381z" />
    <glyph glyph-name="Emacron.c2sc" horiz-adv-x="1017" 
d="M727 1436v-99h-430v99h430zM324 121h583v-121h-714v1145h696v-121h-565v-399h493v-123h-493v-381z" />
    <glyph glyph-name="Eogonek.c2sc" horiz-adv-x="1017" 
d="M715 0l-58 -139q-6 -12 -6 -37q0 -35 21.5 -56.5t56.5 -21.5q38 0 61.5 25.5t26.5 68.5h84q0 -81 -47.5 -128.5t-124.5 -47.5q-73 0 -120.5 44t-47.5 114q0 31 19 69l49 109h-436v1145h696v-121h-565v-399h493v-123h-493v-381h583v-121h-192z" />
    <glyph glyph-name="F.c2sc" horiz-adv-x="952" 
d="M879 1024h-553v-401h438v-121h-438v-502h-133v1145h686v-121z" />
    <glyph glyph-name="G.c2sc" horiz-adv-x="1355" 
d="M715 -16q-168 0 -308 78t-220.5 212.5t-80.5 294.5q0 120 47.5 229t128.5 188.5t194 126t239 46.5q224 0 393 -143l-92 -88q-126 104 -301 104q-200 0 -337.5 -135t-137.5 -328q0 -125 62.5 -231.5t172 -169t240.5 -62.5q167 0 280.5 82.5t137.5 233.5q2 6 2 24h-359v115
h504q-3 -285 -156 -431t-409 -146z" />
    <glyph glyph-name="Gbreve.c2sc" horiz-adv-x="1355" 
d="M680 1290q-107 0 -161 59t-54 148h100q0 -53 29 -85t86 -32q53 0 82 32.5t29 84.5h102q0 -96 -58.5 -151.5t-154.5 -55.5zM715 -16q-168 0 -308 78t-220.5 212.5t-80.5 294.5q0 120 47.5 229t128.5 188.5t194 126t239 46.5q224 0 393 -143l-92 -88q-126 104 -301 104
q-200 0 -337.5 -135t-137.5 -328q0 -125 62.5 -231.5t172 -169t240.5 -62.5q167 0 280.5 82.5t137.5 233.5q2 6 2 24h-359v115h504q-3 -285 -156 -431t-409 -146z" />
    <glyph glyph-name="Gcommaaccent.c2sc" horiz-adv-x="1355" 
d="M715 -16q-168 0 -308 78t-220.5 212.5t-80.5 294.5q0 120 47.5 229t128.5 188.5t194 126t239 46.5q224 0 393 -143l-92 -88q-126 104 -301 104q-200 0 -337.5 -135t-137.5 -328q0 -125 62.5 -231.5t172 -169t240.5 -62.5q167 0 280.5 82.5t137.5 233.5q2 6 2 24h-359v115
h504q-3 -285 -156 -431t-409 -146zM604 -377l-76 31q99 111 93 280h124q1 -96 -39.5 -181t-101.5 -130z" />
    <glyph glyph-name="Gdotaccent.c2sc" horiz-adv-x="1355" 
d="M680 1303q-39 0 -65.5 23t-26.5 58q0 36 26.5 60t65.5 24t64.5 -23.5t25.5 -60.5q0 -35 -26 -58t-64 -23zM715 -16q-168 0 -308 78t-220.5 212.5t-80.5 294.5q0 120 47.5 229t128.5 188.5t194 126t239 46.5q224 0 393 -143l-92 -88q-126 104 -301 104q-200 0 -337.5 -135
t-137.5 -328q0 -125 62.5 -231.5t172 -169t240.5 -62.5q167 0 280.5 82.5t137.5 233.5q2 6 2 24h-359v115h504q-3 -285 -156 -431t-409 -146z" />
    <glyph glyph-name="H.c2sc" horiz-adv-x="1284" 
d="M958 1145h134v-1145h-134v508h-632v-508h-133v1145h133v-516h632v516z" />
    <glyph glyph-name="Hbar.c2sc" horiz-adv-x="1288" 
d="M1219 936v-84h-125v-852h-133v508h-633v-508h-133v852h-117v84h117v209h133v-209h633v209h133v-209h125zM961 629v223h-633v-223h633z" />
    <glyph glyph-name="I.c2sc" horiz-adv-x="518" 
d="M193 0v1145h133v-1145h-133z" />
    <glyph glyph-name="IJ.c2sc" horiz-adv-x="989" 
d="M193 0v1145h133v-1145h-133zM432 -387q-47 0 -115 14l13 123q39 -10 102 -10q119 0 175.5 66.5t56.5 173.5v1165h133v-1165q0 -77 -20.5 -141.5t-62.5 -116t-114 -80.5t-168 -29z" />
    <glyph glyph-name="Iacute.c2sc" horiz-adv-x="518" 
d="M207 1264l168 260h145l-201 -260h-112zM193 0v1145h133v-1145h-133z" />
    <glyph glyph-name="uni01CF.c2sc" horiz-adv-x="518" 
d="M190 1264l-194 260h110l152 -170l152 170h112l-196 -260h-136zM193 0v1145h133v-1145h-133z" />
    <glyph glyph-name="Icircumflex.c2sc" horiz-adv-x="518" 
d="M-4 1264l194 260h136l196 -260h-112l-152 170l-152 -170h-110zM193 0v1145h133v-1145h-133z" />
    <glyph glyph-name="Idieresis.c2sc" horiz-adv-x="518" 
d="M106 1313q-36 0 -62 23.5t-26 58.5q0 33 26 56.5t62 23.5q38 0 63.5 -23t25.5 -57q0 -35 -25.5 -58.5t-63.5 -23.5zM410 1313q-37 0 -64 23.5t-27 58.5q0 33 27 56.5t64 23.5t62.5 -23t25.5 -57q0 -35 -25.5 -58.5t-62.5 -23.5zM193 0v1145h133v-1145h-133z" />
    <glyph glyph-name="Idotaccent.c2sc" horiz-adv-x="518" 
d="M258 1303q-37 0 -63.5 23t-26.5 58q0 36 26.5 60t63.5 24q39 0 65.5 -24t26.5 -60q0 -35 -26.5 -58t-65.5 -23zM193 0v1145h133v-1145h-133z" />
    <glyph glyph-name="Igrave.c2sc" horiz-adv-x="518" 
d="M205 1264l-197 260h146l165 -260h-114zM193 0v1145h133v-1145h-133z" />
    <glyph glyph-name="Imacron.c2sc" horiz-adv-x="518" 
d="M45 1337v99h428v-99h-428zM193 0v1145h133v-1145h-133z" />
    <glyph glyph-name="Iogonek.c2sc" horiz-adv-x="518" 
d="M371 -160h86q0 -81 -47.5 -128.5t-124.5 -47.5q-74 0 -121 44t-47 114q0 39 18 69l58 127v1127h133v-1145h-56l-59 -139q-6 -18 -6 -37q0 -35 21.5 -56.5t58.5 -21.5t60 25.5t26 68.5z" />
    <glyph glyph-name="Itilde.c2sc" horiz-adv-x="518" 
d="M37 1298q4 85 44.5 127.5t96.5 42.5q34 0 64.5 -19t54.5 -38.5t43 -19.5q21 0 37.5 18.5t17.5 54.5h86q-4 -85 -45 -126.5t-96 -41.5q-33 0 -63.5 19.5t-55 39t-43.5 19.5q-21 0 -37 -20t-16 -56h-88zM193 0v1145h133v-1145h-133z" />
    <glyph glyph-name="J.c2sc" horiz-adv-x="534" 
d="M-23 -387q-49 0 -114 14l14 123q36 -10 100 -10q119 0 175.5 66.5t56.5 173.5v1165h133v-1165q0 -77 -20 -141.5t-62 -116t-114 -80.5t-169 -29z" />
    <glyph glyph-name="Jcircumflex.c2sc" horiz-adv-x="534" 
d="M12 1264l195 260h135l197 -260h-111l-154 170l-151 -170h-111zM-23 -387q-49 0 -114 14l14 123q36 -10 100 -10q119 0 175.5 66.5t56.5 173.5v1165h133v-1165q0 -77 -20 -141.5t-62 -116t-114 -80.5t-169 -29z" />
    <glyph glyph-name="K.c2sc" horiz-adv-x="1007" 
d="M1008 0h-183l-501 483v-483h-131v1145h131v-510l428 510h166l-488 -584z" />
    <glyph glyph-name="Kcommaaccent.c2sc" horiz-adv-x="1007" 
d="M430 561l578 -561h-183l-501 483v-483h-131v1145h131v-510l428 510h166zM451 -66h127q1 -96 -40 -181t-104 -130l-74 31q99 112 91 280z" />
    <glyph glyph-name="L.c2sc" horiz-adv-x="888" 
d="M193 0v1145h133v-1024h503v-121h-636z" />
    <glyph glyph-name="Lacute.c2sc" horiz-adv-x="888" 
d="M197 1264l168 260h145l-199 -260h-114zM193 0v1145h133v-1024h503v-121h-636z" />
    <glyph glyph-name="Lcaron.c2sc" horiz-adv-x="892" 
d="M193 0v1145h133v-1024h503v-121h-636zM588 836l-80 26q47 67 66 133t12 150h123q-3 -110 -34 -179.5t-87 -129.5z" />
    <glyph glyph-name="Lcommaaccent.c2sc" horiz-adv-x="888" 
d="M193 0v1145h133v-1024h503v-121h-636zM375 -377l-74 31q99 110 90 280h127q0 -96 -41 -181t-102 -130z" />
    <glyph glyph-name="Lslash.c2sc" horiz-adv-x="894" 
d="M332 121h504v-121h-637v434l-127 -78v99l127 77v613h133v-533l186 113v-96l-186 -115v-393z" />
    <glyph glyph-name="M.c2sc" horiz-adv-x="1687" 
d="M1563 0h-131l-119 903l-410 -782h-117l-411 788l-119 -909h-131l149 1145h121l449 -883l448 883h121z" />
    <glyph glyph-name="N.c2sc" horiz-adv-x="1241" 
d="M915 1145h134v-1145h-131l-592 911v-911h-133v1145h135l587 -905v905z" />
    <glyph glyph-name="Nacute.c2sc" horiz-adv-x="1241" 
d="M881 1524l-199 -260h-113l166 260h146zM915 1145h134v-1145h-131l-592 911v-911h-133v1145h135l587 -905v905z" />
    <glyph glyph-name="Ncaron.c2sc" horiz-adv-x="1241" 
d="M688 1264h-135l-195 260h111l152 -170l151 170h111zM915 1145h134v-1145h-131l-592 911v-911h-133v1145h135l587 -905v905z" />
    <glyph glyph-name="Ncommaaccent.c2sc" horiz-adv-x="1241" 
d="M915 1145h134v-1145h-131l-592 911v-911h-133v1145h135l587 -905v905zM471 -346q96 113 88 280h127q0 -97 -40 -182t-101 -129z" />
    <glyph glyph-name="Eng.c2sc" horiz-adv-x="1241" 
d="M915 1145h134v-1157q0 -77 -20 -141.5t-62 -116t-114 -80.5t-169 -29q-47 0 -115 14l13 125q39 -10 102 -10q122 0 182 69t47 169l-2 26l-585 895v-909h-133v1145h135l587 -905v905z" />
    <glyph glyph-name="Ntilde.c2sc" horiz-adv-x="1241" 
d="M539 1374q-20 0 -36.5 -20t-17.5 -56h-86q3 85 43.5 127.5t96.5 42.5q27 0 52.5 -12t41.5 -26.5t34 -26.5t33 -12q22 0 38.5 18.5t17.5 54.5h88q-4 -85 -45.5 -126.5t-98.5 -41.5q-33 0 -63 19.5t-54 39t-44 19.5zM915 1145h134v-1145h-131l-592 911v-911h-133v1145h135
l587 -905v905z" />
    <glyph glyph-name="O.c2sc" horiz-adv-x="1431" 
d="M715 -16q-167 0 -306.5 78.5t-219.5 213t-80 295.5q0 160 80 295t219.5 214t306.5 79q168 0 308 -79t220 -214t80 -295q0 -161 -80 -295.5t-220 -213t-308 -78.5zM715 109q200 0 337.5 134.5t137.5 327.5q0 125 -62.5 231t-171.5 168t-241 62q-131 0 -240 -62
t-171 -167.5t-62 -231.5q0 -193 136.5 -327.5t336.5 -134.5z" />
    <glyph glyph-name="Oacute.c2sc" horiz-adv-x="1431" 
d="M664 1264l167 260h146l-199 -260h-114zM715 -16q-167 0 -306.5 78.5t-219.5 213t-80 295.5q0 160 80 295t219.5 214t306.5 79q168 0 308 -79t220 -214t80 -295q0 -161 -80 -295.5t-220 -213t-308 -78.5zM715 109q200 0 337.5 134.5t137.5 327.5q0 125 -62.5 231
t-171.5 168t-241 62q-131 0 -240 -62t-171 -167.5t-62 -231.5q0 -193 136.5 -327.5t336.5 -134.5z" />
    <glyph glyph-name="uni01D1.c2sc" horiz-adv-x="1431" 
d="M647 1264l-194 260h110l152 -170l153 170h111l-195 -260h-137zM715 -16q-167 0 -306.5 78.5t-219.5 213t-80 295.5q0 160 80 295t219.5 214t306.5 79q168 0 308 -79t220 -214t80 -295q0 -161 -80 -295.5t-220 -213t-308 -78.5zM715 109q200 0 337.5 134.5t137.5 327.5
q0 125 -62.5 231t-171.5 168t-241 62q-131 0 -240 -62t-171 -167.5t-62 -231.5q0 -193 136.5 -327.5t336.5 -134.5z" />
    <glyph glyph-name="Ocircumflex.c2sc" horiz-adv-x="1431" 
d="M453 1264l194 260h137l195 -260h-111l-153 170l-152 -170h-110zM715 -16q-167 0 -306.5 78.5t-219.5 213t-80 295.5q0 160 80 295t219.5 214t306.5 79q168 0 308 -79t220 -214t80 -295q0 -161 -80 -295.5t-220 -213t-308 -78.5zM715 109q200 0 337.5 134.5t137.5 327.5
q0 125 -62.5 231t-171.5 168t-241 62q-131 0 -240 -62t-171 -167.5t-62 -231.5q0 -193 136.5 -327.5t336.5 -134.5z" />
    <glyph glyph-name="Odieresis.c2sc" horiz-adv-x="1431" 
d="M565 1313q-37 0 -63.5 23.5t-26.5 58.5q0 34 26.5 57t63.5 23q36 0 62 -23.5t26 -56.5q0 -35 -26 -58.5t-62 -23.5zM866 1313q-37 0 -63.5 23.5t-26.5 58.5q0 34 26.5 57t63.5 23t63.5 -23t26.5 -57q0 -35 -26.5 -58.5t-63.5 -23.5zM715 -16q-167 0 -306.5 78.5
t-219.5 213t-80 295.5q0 160 80 295t219.5 214t306.5 79q168 0 308 -79t220 -214t80 -295q0 -161 -80 -295.5t-220 -213t-308 -78.5zM715 109q200 0 337.5 134.5t137.5 327.5q0 125 -62.5 231t-171.5 168t-241 62q-131 0 -240 -62t-171 -167.5t-62 -231.5
q0 -193 136.5 -327.5t336.5 -134.5z" />
    <glyph glyph-name="Ograve.c2sc" horiz-adv-x="1431" 
d="M664 1264l-199 260h145l166 -260h-112zM715 -16q-167 0 -306.5 78.5t-219.5 213t-80 295.5q0 160 80 295t219.5 214t306.5 79q168 0 308 -79t220 -214t80 -295q0 -161 -80 -295.5t-220 -213t-308 -78.5zM715 109q200 0 337.5 134.5t137.5 327.5q0 125 -62.5 231
t-171.5 168t-241 62q-131 0 -240 -62t-171 -167.5t-62 -231.5q0 -193 136.5 -327.5t336.5 -134.5z" />
    <glyph glyph-name="Ohungarumlaut.c2sc" horiz-adv-x="1431" 
d="M559 1264l154 260h116l-165 -260h-105zM780 1264l162 260h121l-178 -260h-105zM715 -16q-167 0 -306.5 78.5t-219.5 213t-80 295.5q0 160 80 295t219.5 214t306.5 79q168 0 308 -79t220 -214t80 -295q0 -161 -80 -295.5t-220 -213t-308 -78.5zM715 109q200 0 337.5 134.5
t137.5 327.5q0 125 -62.5 231t-171.5 168t-241 62q-131 0 -240 -62t-171 -167.5t-62 -231.5q0 -193 136.5 -327.5t336.5 -134.5z" />
    <glyph glyph-name="Omacron.c2sc" horiz-adv-x="1431" 
d="M502 1337v99h428v-99h-428zM715 -16q-167 0 -306.5 78.5t-219.5 213t-80 295.5q0 160 80 295t219.5 214t306.5 79q168 0 308 -79t220 -214t80 -295q0 -161 -80 -295.5t-220 -213t-308 -78.5zM715 109q200 0 337.5 134.5t137.5 327.5q0 125 -62.5 231t-171.5 168t-241 62
q-131 0 -240 -62t-171 -167.5t-62 -231.5q0 -193 136.5 -327.5t336.5 -134.5z" />
    <glyph glyph-name="Oslash.c2sc" horiz-adv-x="1439" 
d="M1329 1102l-149 -146q149 -162 149 -385q0 -120 -47.5 -229t-129 -187.5t-194.5 -124.5t-239 -46q-229 0 -393 139l-148 -143l-63 61l147 143q-149 162 -149 387q0 160 80 294.5t219.5 213t306.5 78.5q229 0 399 -141l148 145zM246 571q0 -170 108 -297l670 654
q-129 104 -305 104q-131 0 -240 -62t-171 -168t-62 -231zM1196 571q0 167 -109 295l-669 -653q126 -104 301 -104q133 0 242.5 62t172 168t62.5 232z" />
    <glyph glyph-name="Oslashacute.c2sc" horiz-adv-x="1439" 
d="M981 1524l-201 -260h-112l168 260h145zM1329 1102l-149 -146q149 -162 149 -385q0 -120 -47.5 -229t-129 -187.5t-194.5 -124.5t-239 -46q-229 0 -393 139l-148 -143l-63 61l147 143q-149 162 -149 387q0 160 80 294.5t219.5 213t306.5 78.5q229 0 399 -141l148 145z
M246 571q0 -170 108 -297l670 654q-129 104 -305 104q-131 0 -240 -62t-171 -168t-62 -231zM1196 571q0 167 -109 295l-669 -653q126 -104 301 -104q133 0 242.5 62t172 168t62.5 232z" />
    <glyph glyph-name="Otilde.c2sc" horiz-adv-x="1431" 
d="M494 1298q4 85 44.5 127.5t96.5 42.5q34 0 64.5 -19t54 -38.5t41.5 -19.5q22 0 38.5 18.5t16.5 54.5h88q-6 -85 -46.5 -126.5t-96.5 -41.5q-33 0 -63 19.5t-54 39t-43 19.5q-21 0 -37 -20t-16 -56h-88zM715 -16q-167 0 -306.5 78.5t-219.5 213t-80 295.5q0 160 80 295
t219.5 214t306.5 79q168 0 308 -79t220 -214t80 -295q0 -161 -80 -295.5t-220 -213t-308 -78.5zM715 109q200 0 337.5 134.5t137.5 327.5q0 125 -62.5 231t-171.5 168t-241 62q-131 0 -240 -62t-171 -167.5t-62 -231.5q0 -193 136.5 -327.5t336.5 -134.5z" />
    <glyph glyph-name="OE.c2sc" horiz-adv-x="2015" 
d="M1323 121h582v-121h-713v217q-77 -108 -203 -170.5t-274 -62.5q-167 0 -306.5 78.5t-219.5 213t-80 295.5q0 160 80 295t219.5 214t306.5 79q147 0 272.5 -62t204.5 -171v219h694v-121h-563v-399h494v-123h-494v-381zM715 109q200 0 337.5 134.5t137.5 327.5
q0 125 -62.5 231t-171.5 168t-241 62q-131 0 -240 -62t-171 -167.5t-62 -231.5q0 -193 136.5 -327.5t336.5 -134.5z" />
    <glyph glyph-name="P.c2sc" horiz-adv-x="1099" 
d="M668 1145q90 0 160 -30t110.5 -81t61 -112.5t20.5 -130.5q0 -55 -12.5 -105t-40 -96t-68 -79.5t-101 -53t-134.5 -19.5h-338v-438h-133v1145h475zM657 561q116 0 173 66.5t57 163.5t-55 165t-166 68h-340v-463h331z" />
    <glyph glyph-name="Thorn.c2sc" horiz-adv-x="1062" 
d="M602 926q155 0 259 -96.5t104 -251.5q0 -159 -104 -258t-259 -99h-276v-221h-133v1145h133v-219h276zM602 344q98 0 166 65t68 166q0 103 -69.5 165.5t-172.5 62.5h-268v-459h276z" />
    <glyph glyph-name="Q.c2sc" horiz-adv-x="1431" 
d="M1323 569q0 -157 -79.5 -290t-213.5 -211l129 -199l-100 -62l-137 209q-106 -32 -207 -32q-125 0 -237.5 46t-193 124.5t-128 186.5t-47.5 228q0 161 80 296.5t219.5 214.5t306.5 79q168 0 308 -79t220 -214.5t80 -296.5zM715 109q71 0 135 18l-131 199l102 61l140 -213
q106 61 167.5 165.5t61.5 229.5q0 193 -137.5 328t-337.5 135t-336.5 -135t-136.5 -328q0 -125 62 -231t171 -167.5t240 -61.5z" />
    <glyph glyph-name="R.c2sc" horiz-adv-x="1116" 
d="M999 791q0 -67 -19 -126t-57.5 -108.5t-105 -80t-153.5 -34.5l329 -442h-159l-324 442h-184v-442h-133v1145h452q92 0 162 -30t111 -81t61 -112.5t20 -130.5zM326 1024v-465h290q128 0 189 64.5t61 167.5q0 100 -58 166.5t-167 66.5h-315z" />
    <glyph glyph-name="Racute.c2sc" horiz-adv-x="1116" 
d="M819 1524l-198 -260h-113l168 260h143zM999 791q0 -67 -19 -126t-57.5 -108.5t-105 -80t-153.5 -34.5l329 -442h-159l-324 442h-184v-442h-133v1145h452q92 0 162 -30t111 -81t61 -112.5t20 -130.5zM326 1024v-465h290q128 0 189 64.5t61 167.5q0 100 -58 166.5
t-167 66.5h-315z" />
    <glyph glyph-name="Rcaron.c2sc" horiz-adv-x="1116" 
d="M627 1264h-135l-195 260h111l151 -170l154 170h110zM999 791q0 -67 -19 -126t-57.5 -108.5t-105 -80t-153.5 -34.5l329 -442h-159l-324 442h-184v-442h-133v1145h452q92 0 162 -30t111 -81t61 -112.5t20 -130.5zM326 1024v-465h290q128 0 189 64.5t61 167.5
q0 100 -58 166.5t-167 66.5h-315z" />
    <glyph glyph-name="Rcommaaccent.c2sc" horiz-adv-x="1116" 
d="M999 791q0 -67 -19 -126t-57.5 -108.5t-105 -80t-153.5 -34.5l329 -442h-159l-324 442h-184v-442h-133v1145h452q92 0 162 -30t111 -81t61 -112.5t20 -130.5zM326 1024v-465h290q128 0 189 64.5t61 167.5q0 100 -58 166.5t-167 66.5h-315zM410 -346q99 110 90 280h127
q0 -96 -41.5 -181t-102.5 -130z" />
    <glyph glyph-name="S.c2sc" horiz-adv-x="1030" 
d="M520 -16q-175 0 -287.5 96t-117.5 231h131q8 -84 84 -145.5t190 -61.5q128 0 201.5 62.5t73.5 144.5q0 143 -224 199l-159 39q-289 66 -289 293q0 92 54 165.5t141.5 112.5t189.5 39q160 0 266.5 -86t110.5 -231h-131q-4 87 -74 140.5t-174 53.5q-102 0 -176 -53.5
t-74 -138.5q0 -131 188 -174l158 -37q326 -79 326 -316q0 -138 -111.5 -235.5t-296.5 -97.5z" />
    <glyph glyph-name="Sacute.c2sc" horiz-adv-x="1030" 
d="M465 1264l166 260h145l-198 -260h-113zM520 -16q-175 0 -287.5 96t-117.5 231h131q8 -84 84 -145.5t190 -61.5q128 0 201.5 62.5t73.5 144.5q0 143 -224 199l-159 39q-289 66 -289 293q0 92 54 165.5t141.5 112.5t189.5 39q160 0 266.5 -86t110.5 -231h-131
q-4 87 -74 140.5t-174 53.5q-102 0 -176 -53.5t-74 -138.5q0 -131 188 -174l158 -37q326 -79 326 -316q0 -138 -111.5 -235.5t-296.5 -97.5z" />
    <glyph glyph-name="Scaron.c2sc" horiz-adv-x="1030" 
d="M449 1264l-195 260h108l154 -170l152 170h110l-194 -260h-135zM520 -16q-175 0 -287.5 96t-117.5 231h131q8 -84 84 -145.5t190 -61.5q128 0 201.5 62.5t73.5 144.5q0 143 -224 199l-159 39q-289 66 -289 293q0 92 54 165.5t141.5 112.5t189.5 39q160 0 266.5 -86
t110.5 -231h-131q-4 87 -74 140.5t-174 53.5q-102 0 -176 -53.5t-74 -138.5q0 -131 188 -174l158 -37q326 -79 326 -316q0 -138 -111.5 -235.5t-296.5 -97.5z" />
    <glyph glyph-name="Scedilla.c2sc" horiz-adv-x="1030" 
d="M928 317q0 -124 -91.5 -217.5t-246.5 -111.5l43 -97q16 -32 16 -69q0 -70 -47 -114t-121 -44q-76 0 -124 47.5t-48 128.5h88q2 -43 24.5 -68.5t59.5 -25.5t59.5 21.5t22.5 56.5q0 13 -8 37l-51 123q-169 6 -276.5 101t-112.5 226h131q8 -84 84 -145.5t190 -61.5
q128 0 201.5 62.5t73.5 144.5q0 143 -224 199l-159 39q-289 66 -289 293q0 92 54 165.5t141.5 112.5t189.5 39q160 0 266.5 -86t110.5 -231h-131q-4 87 -74 140.5t-174 53.5q-102 0 -176 -53.5t-74 -138.5q0 -131 188 -174l158 -37q326 -79 326 -316z" />
    <glyph glyph-name="Scommaaccent.c2sc" horiz-adv-x="1030" 
d="M520 -16q-175 0 -287.5 96t-117.5 231h131q8 -84 84 -145.5t190 -61.5q128 0 201.5 62.5t73.5 144.5q0 143 -224 199l-159 39q-289 66 -289 293q0 92 54 165.5t141.5 112.5t189.5 39q160 0 266.5 -86t110.5 -231h-131q-4 87 -74 140.5t-174 53.5q-102 0 -176 -53.5
t-74 -138.5q0 -131 188 -174l158 -37q326 -79 326 -316q0 -138 -111.5 -235.5t-296.5 -97.5zM440 -377l-75 31q99 110 90 280h129q0 -95 -42 -180.5t-102 -130.5z" />
    <glyph glyph-name="uni1E9E.c2sc" horiz-adv-x="1214" 
d="M772 690q157 -24 248.5 -117.5t91.5 -222.5q0 -165 -116.5 -265.5t-307.5 -100.5q-102 -4 -186 24l24 115q58 -21 156 -21q134 0 215.5 69t81.5 185q0 99 -82 166.5t-213 73.5l-45 2l-16 82l211 330q-91 26 -203 26q-160 0 -239 -77.5t-79 -241.5v-717h-133v717
q0 222 115.5 332t337.5 110q88 0 201.5 -22t181.5 -54v-20z" />
    <glyph glyph-name="T.c2sc" horiz-adv-x="999" 
d="M942 1145v-121h-377v-1024h-133v1024h-375v121h885z" />
    <glyph glyph-name="Tbar.c2sc" horiz-adv-x="1024" 
d="M954 1024h-376v-391h217v-86h-217v-547h-134v547h-217v86h217v391h-374v121h884v-121z" />
    <glyph glyph-name="Tcaron.c2sc" horiz-adv-x="999" 
d="M567 1264h-135l-196 260h112l152 -170l151 170h111zM942 1145v-121h-377v-1024h-133v1024h-375v121h885z" />
    <glyph glyph-name="uni0162.c2sc" horiz-adv-x="999" 
d="M942 1024h-377v-991l64 -142q16 -32 16 -69q0 -70 -47 -114t-121 -44q-76 0 -123 47.5t-47 128.5h86q2 -43 24.5 -68.5t59.5 -25.5t59.5 21.5t22.5 56.5q0 13 -8 37l-57 139h-62v1024h-375v121h885v-121z" />
    <glyph glyph-name="uni021A.c2sc" horiz-adv-x="999" 
d="M942 1145v-121h-377v-1024h-133v1024h-375v121h885zM348 -346q99 110 90 280h127q0 -96 -40.5 -181t-100.5 -130z" />
    <glyph glyph-name="U.c2sc" 
d="M612 -16q-181 0 -306.5 111t-125.5 294v756h133v-752q0 -133 85.5 -207.5t213.5 -74.5q129 0 215 74.5t86 207.5v752h134v-756q0 -183 -126 -294t-309 -111z" />
    <glyph glyph-name="Uacute.c2sc" 
d="M561 1264l166 260h145l-198 -260h-113zM612 -16q-181 0 -306.5 111t-125.5 294v756h133v-752q0 -133 85.5 -207.5t213.5 -74.5q129 0 215 74.5t86 207.5v752h134v-756q0 -183 -126 -294t-309 -111z" />
    <glyph glyph-name="uni01D3.c2sc" 
d="M545 1264l-195 260h111l151 -170l152 170h110l-194 -260h-135zM612 -16q-181 0 -306.5 111t-125.5 294v756h133v-752q0 -133 85.5 -207.5t213.5 -74.5q129 0 215 74.5t86 207.5v752h134v-756q0 -183 -126 -294t-309 -111z" />
    <glyph glyph-name="Ucircumflex.c2sc" 
d="M350 1264l195 260h135l194 -260h-110l-152 170l-151 -170h-111zM612 -16q-181 0 -306.5 111t-125.5 294v756h133v-752q0 -133 85.5 -207.5t213.5 -74.5q129 0 215 74.5t86 207.5v752h134v-756q0 -183 -126 -294t-309 -111z" />
    <glyph glyph-name="Udieresis.c2sc" 
d="M461 1313q-36 0 -62 23.5t-26 58.5q0 33 26 56.5t62 23.5q37 0 63.5 -23t26.5 -57q0 -35 -26.5 -58.5t-63.5 -23.5zM762 1313q-37 0 -62.5 23.5t-25.5 58.5q0 34 25.5 57t62.5 23t63.5 -23t26.5 -57q0 -35 -26.5 -58.5t-63.5 -23.5zM612 -16q-181 0 -306.5 111
t-125.5 294v756h133v-752q0 -133 85.5 -207.5t213.5 -74.5q129 0 215 74.5t86 207.5v752h134v-756q0 -183 -126 -294t-309 -111z" />
    <glyph glyph-name="uni01D7.c2sc" 
d="M561 1542l166 260h145l-198 -260h-113zM461 1313q-36 0 -62 23.5t-26 58.5q0 33 26 56.5t62 23.5q37 0 63.5 -23t26.5 -57q0 -35 -26.5 -58.5t-63.5 -23.5zM762 1313q-37 0 -62.5 23.5t-25.5 58.5q0 34 25.5 57t62.5 23t63.5 -23t26.5 -57q0 -35 -26.5 -58.5t-63.5 -23.5
zM612 -16q-181 0 -306.5 111t-125.5 294v756h133v-752q0 -133 85.5 -207.5t213.5 -74.5q129 0 215 74.5t86 207.5v752h134v-756q0 -183 -126 -294t-309 -111z" />
    <glyph glyph-name="uni01D9.c2sc" 
d="M545 1542l-195 260h111l151 -170l152 170h110l-194 -260h-135zM461 1313q-36 0 -62 23.5t-26 58.5q0 33 26 56.5t62 23.5q37 0 63.5 -23t26.5 -57q0 -35 -26.5 -58.5t-63.5 -23.5zM762 1313q-37 0 -62.5 23.5t-25.5 58.5q0 34 25.5 57t62.5 23t63.5 -23t26.5 -57
q0 -35 -26.5 -58.5t-63.5 -23.5zM612 -16q-181 0 -306.5 111t-125.5 294v756h133v-752q0 -133 85.5 -207.5t213.5 -74.5q129 0 215 74.5t86 207.5v752h134v-756q0 -183 -126 -294t-309 -111z" />
    <glyph glyph-name="uni01DB.c2sc" 
d="M559 1542l-197 260h146l166 -260h-115zM461 1313q-36 0 -62 23.5t-26 58.5q0 33 26 56.5t62 23.5q37 0 63.5 -23t26.5 -57q0 -35 -26.5 -58.5t-63.5 -23.5zM762 1313q-37 0 -62.5 23.5t-25.5 58.5q0 34 25.5 57t62.5 23t63.5 -23t26.5 -57q0 -35 -26.5 -58.5t-63.5 -23.5
zM612 -16q-181 0 -306.5 111t-125.5 294v756h133v-752q0 -133 85.5 -207.5t213.5 -74.5q129 0 215 74.5t86 207.5v752h134v-756q0 -183 -126 -294t-309 -111z" />
    <glyph glyph-name="uni01D5.c2sc" 
d="M397 1599v99h430v-99h-430zM461 1313q-36 0 -62 23.5t-26 58.5q0 33 26 56.5t62 23.5q37 0 63.5 -23t26.5 -57q0 -35 -26.5 -58.5t-63.5 -23.5zM762 1313q-37 0 -62.5 23.5t-25.5 58.5q0 34 25.5 57t62.5 23t63.5 -23t26.5 -57q0 -35 -26.5 -58.5t-63.5 -23.5zM612 -16
q-181 0 -306.5 111t-125.5 294v756h133v-752q0 -133 85.5 -207.5t213.5 -74.5q129 0 215 74.5t86 207.5v752h134v-756q0 -183 -126 -294t-309 -111z" />
    <glyph glyph-name="Ugrave.c2sc" 
d="M559 1264l-197 260h146l166 -260h-115zM612 -16q-181 0 -306.5 111t-125.5 294v756h133v-752q0 -133 85.5 -207.5t213.5 -74.5q129 0 215 74.5t86 207.5v752h134v-756q0 -183 -126 -294t-309 -111z" />
    <glyph glyph-name="Uhungarumlaut.c2sc" 
d="M455 1264l153 260h119l-166 -260h-106zM676 1264l164 260h121l-181 -260h-104zM612 -16q-181 0 -306.5 111t-125.5 294v756h133v-752q0 -133 85.5 -207.5t213.5 -74.5q129 0 215 74.5t86 207.5v752h134v-756q0 -183 -126 -294t-309 -111z" />
    <glyph glyph-name="Umacron.c2sc" 
d="M397 1337v99h430v-99h-430zM612 -16q-181 0 -306.5 111t-125.5 294v756h133v-752q0 -133 85.5 -207.5t213.5 -74.5q129 0 215 74.5t86 207.5v752h134v-756q0 -183 -126 -294t-309 -111z" />
    <glyph glyph-name="Uogonek.c2sc" 
d="M913 1145h134v-756q0 -174 -114.5 -283t-285.5 -120l-51 -125q-8 -16 -8 -37q0 -35 22.5 -56.5t59.5 -21.5t59.5 25.5t24.5 68.5h88q0 -81 -48 -128.5t-124 -47.5q-74 0 -121 44t-47 114q0 37 16 69l41 95q-163 18 -271 126t-108 277v756h133v-752q0 -133 85.5 -207.5
t213.5 -74.5q129 0 215 74.5t86 207.5v752z" />
    <glyph glyph-name="Uring.c2sc" 
d="M608 1264q-69 0 -118.5 48.5t-49.5 117.5t49.5 117t118.5 48q75 0 125.5 -48t50.5 -117t-50.5 -117.5t-125.5 -48.5zM608 1337q42 0 72.5 27.5t30.5 65.5t-31 66t-72 28q-38 0 -66 -28t-28 -66t28 -65.5t66 -27.5zM612 -16q-181 0 -306.5 111t-125.5 294v756h133v-752
q0 -133 85.5 -207.5t213.5 -74.5q129 0 215 74.5t86 207.5v752h134v-756q0 -183 -126 -294t-309 -111z" />
    <glyph glyph-name="V.c2sc" horiz-adv-x="993" 
d="M788 1145h138l-361 -1145h-135l-362 1145h137l293 -940z" />
    <glyph glyph-name="W.c2sc" horiz-adv-x="1617" 
d="M1425 1145h142l-408 -1145h-119l-231 766l-231 -766h-119l-408 1145h142l325 -930l234 762h116l232 -762z" />
    <glyph glyph-name="Wacute.c2sc" horiz-adv-x="1617" 
d="M1069 1524l-199 -260h-114l170 260h143zM1425 1145h142l-408 -1145h-119l-231 766l-231 -766h-119l-408 1145h142l325 -930l234 762h116l232 -762z" />
    <glyph glyph-name="Wcircumflex.c2sc" horiz-adv-x="1617" 
d="M809 1434l-152 -170h-110l194 260h136l194 -260h-110zM1425 1145h142l-408 -1145h-119l-231 766l-231 -766h-119l-408 1145h142l325 -930l234 762h116l232 -762z" />
    <glyph glyph-name="Wdieresis.c2sc" horiz-adv-x="1617" 
d="M657 1313q-36 0 -62 23.5t-26 58.5q0 33 26 56.5t62 23.5q37 0 62.5 -23t25.5 -57q0 -35 -25.5 -58.5t-62.5 -23.5zM958 1313q-37 0 -62.5 23.5t-25.5 58.5q0 34 25.5 57t62.5 23t64 -23.5t27 -56.5q0 -35 -27 -58.5t-64 -23.5zM1425 1145h142l-408 -1145h-119l-231 766
l-231 -766h-119l-408 1145h142l325 -930l234 762h116l232 -762z" />
    <glyph glyph-name="Wgrave.c2sc" horiz-adv-x="1617" 
d="M870 1264h-114l-197 260h146zM1425 1145h142l-408 -1145h-119l-231 766l-231 -766h-119l-408 1145h142l325 -930l234 762h116l232 -762z" />
    <glyph glyph-name="X.c2sc" horiz-adv-x="1083" 
d="M1047 0h-158l-346 510l-348 -510h-158l424 616l-371 529h160l291 -424l295 424h159l-374 -529z" />
    <glyph glyph-name="Y.c2sc" horiz-adv-x="1101" 
d="M918 1145h157l-459 -613v-532h-133v535l-454 610h157l365 -492z" />
    <glyph glyph-name="Yacute.c2sc" horiz-adv-x="1101" 
d="M811 1524l-199 -260h-114l168 260h145zM918 1145h157l-459 -613v-532h-133v535l-454 610h157l365 -492z" />
    <glyph glyph-name="Ycircumflex.c2sc" horiz-adv-x="1101" 
d="M549 1434l-152 -170h-110l194 260h137l195 -260h-111zM918 1145h157l-459 -613v-532h-133v535l-454 610h157l365 -492z" />
    <glyph glyph-name="Ydieresis.c2sc" horiz-adv-x="1101" 
d="M399 1313q-37 0 -63.5 23.5t-26.5 58.5q0 34 26.5 57t63.5 23q36 0 62 -23.5t26 -56.5q0 -35 -26 -58.5t-62 -23.5zM700 1313q-37 0 -62.5 23.5t-25.5 58.5q0 34 25.5 57t62.5 23t64 -23.5t27 -56.5q0 -35 -27 -58.5t-64 -23.5zM918 1145h157l-459 -613v-532h-133v535
l-454 610h157l365 -492z" />
    <glyph glyph-name="Ygrave.c2sc" horiz-adv-x="1101" 
d="M610 1264h-112l-199 260h145zM918 1145h157l-459 -613v-532h-133v535l-454 610h157l365 -492z" />
    <glyph glyph-name="Z.c2sc" horiz-adv-x="1009" 
d="M909 1145v-105l-649 -919h649v-121h-817v102l647 922h-635v121h805z" />
    <glyph glyph-name="Zacute.c2sc" horiz-adv-x="1009" 
d="M766 1524l-199 -260h-114l168 260h145zM909 1145v-105l-649 -919h649v-121h-817v102l647 922h-635v121h805z" />
    <glyph glyph-name="Zcaron.c2sc" horiz-adv-x="1009" 
d="M571 1264h-135l-194 260h110l152 -170l151 170h113zM909 1145v-105l-649 -919h649v-121h-817v102l647 922h-635v121h805z" />
    <glyph glyph-name="Zdotaccent.c2sc" horiz-adv-x="1009" 
d="M504 1303q-37 0 -63.5 23t-26.5 58q0 36 26.5 60t63.5 24q39 0 65.5 -24t26.5 -60q0 -35 -26.5 -58t-65.5 -23zM909 1145v-105l-649 -919h649v-121h-817v102l647 922h-635v121h805z" />
    <glyph glyph-name="IJ.alt.c2sc" horiz-adv-x="1218" 
d="M193 0v1145h133v-1145h-133zM674 -16q-49 0 -117 14l14 123q52 -10 103 -10q119 0 175 66.5t56 172.5v795h133v-795q0 -77 -20.5 -141.5t-62 -115.5t-113.5 -80t-168 -29z" />
    <glyph glyph-name="J.alt.c2sc" horiz-adv-x="708" 
d="M164 -16q-49 0 -117 14l14 123q48 -10 103 -10q119 0 175 66.5t56 172.5v795h131v-795q0 -62 -12 -115t-39 -100t-68.5 -80t-103 -52t-139.5 -19z" />
    <glyph glyph-name="Jcircumflex.alt.c2sc" horiz-adv-x="708" 
d="M197 1264l196 260h135l195 -260h-111l-153 170l-150 -170h-112zM164 -16q-49 0 -117 14l14 123q48 -10 103 -10q119 0 175 66.5t56 172.5v795h131v-795q0 -62 -12 -115t-39 -100t-68.5 -80t-103 -52t-139.5 -19z" />
    <glyph glyph-name="W.alt.c2sc" horiz-adv-x="1474" 
d="M1262 1145h145l-328 -1135h-116l-226 869l-225 -869h-117l-327 1135h145l242 -909l225 858h115l225 -858z" />
    <glyph glyph-name="Wacute.alt.c2sc" horiz-adv-x="1474" 
d="M1006 1524l-199 -260h-115l166 260h148zM1262 1145h145l-328 -1135h-116l-226 869l-225 -869h-117l-327 1135h145l242 -909l225 858h115l225 -858z" />
    </font>
</defs>
</svg>
