<?xml version="1.0" standalone="no"?>
<!DOCTYPE svg PUBLIC "-//W3C//DTD SVG 1.1//EN" "http://www.w3.org/Graphics/SVG/1.1/DTD/svg11.dtd" >
<svg xmlns="http://www.w3.org/2000/svg" xmlns:xlink="http://www.w3.org/1999/xlink" version="1.1">
<metadata>
Created by FontForge 20170731 at Thu Oct 12 07:36:35 2023
 By Aleksey,,,
Copyright (c) Olivier Gourvat - Mostardesign Type Foundry, 2016. All rights reserved.
</metadata>
<defs>
<font id="SofiaProUltraLight-Italic" horiz-adv-x="1212" >
  <font-face 
    font-family="Sofia Pro Ultra Light"
    font-weight="200"
    font-style="italic"
    font-stretch="normal"
    units-per-em="2048"
    panose-1="0 0 5 0 0 0 0 0 0 0"
    ascent="1638"
    descent="-410"
    x-height="956"
    cap-height="1411"
    bbox="-739.898 -524 2945.16 2179"
    underline-thickness="102"
    underline-position="-307"
    slope="-12"
    unicode-range="U+0020-FB04"
  />
<missing-glyph horiz-adv-x="1300" 
d="M164 0l264 1362h973l-264 -1362h-973zM637 455h127l14 67q22 102 119 127q80 23 142 89.5t81 164.5q24 124 -45.5 200.5t-187.5 76.5q-117 0 -214 -82t-124 -215h127q17 77 69.5 123.5t116.5 46.5q65 0 105.5 -42t27.5 -108q-20 -99 -143 -145q-89 -26 -136 -76t-65 -150
zM647 180q38 0 71 25.5t40 62.5t-15.5 62.5t-60.5 25.5q-39 0 -71.5 -25t-39.5 -63t15 -63t61 -25z" />
    <glyph glyph-name="f_f" unicode="ff" horiz-adv-x="1234" 
d="M1475 1458q-258 0 -324 -340l-31 -162h271l-13 -55h-270l-174 -901h-62l175 901h-572l-174 -901h-61l174 901h-197l12 55h197l31 162q77 402 397 402h70l-13 -62h-69q-258 0 -324 -340l-31 -162h572l31 162q77 402 397 402h69l-12 -62h-69z" />
    <glyph glyph-name="fi" unicode="fi" horiz-adv-x="1032" 
d="M1040 956l-186 -956h-61l174 901h-492l-174 -901h-61l174 901h-197l12 55h197l31 162q77 402 397 402h51l-12 -62h-51q-258 0 -324 -340l-31 -162h553zM1087 1368q28 0 44 -16.5t12 -42.5q-4 -25 -27 -41.5t-51 -16.5q-26 0 -40.5 16.5t-10.5 41.5q4 26 25 42.5t48 16.5z
" />
    <glyph glyph-name="fl" unicode="fl" horiz-adv-x="1032" 
d="M1149 1520l-295 -1520h-61l282 1458h-233q-258 0 -324 -340l-31 -162h271l-13 -55h-270l-174 -901h-61l174 901h-197l12 55h197l31 162q77 402 397 402h295z" />
    <glyph glyph-name="f_f_i" unicode="ffi" horiz-adv-x="1665" 
d="M1673 956l-186 -956h-62l174 901h-491l-174 -901h-62l175 901h-572l-174 -901h-61l174 901h-197l12 55h197l31 162q77 402 397 402h70l-13 -62h-69q-258 0 -324 -340l-31 -162h572l31 162q77 402 397 402h41l-12 -62h-41q-258 0 -324 -340l-31 -162h553zM1720 1368
q28 0 44 -16.5t12 -42.5q-4 -25 -27 -41.5t-51 -16.5q-26 0 -40.5 16.5t-10.5 41.5q4 26 25 42.5t48 16.5z" />
    <glyph glyph-name="f_f_l" unicode="ffl" horiz-adv-x="1665" 
d="M1782 1520l-295 -1520h-62l283 1458h-233q-258 0 -324 -340l-31 -162h271l-13 -55h-270l-174 -901h-62l175 901h-572l-174 -901h-61l174 901h-197l12 55h197l31 162q77 402 397 402h70l-13 -62h-69q-258 0 -324 -340l-31 -162h572l31 162q77 402 397 402h295z" />
    <glyph glyph-name=".notdef" horiz-adv-x="1300" 
d="M164 0l264 1362h973l-264 -1362h-973zM637 455h127l14 67q22 102 119 127q80 23 142 89.5t81 164.5q24 124 -45.5 200.5t-187.5 76.5q-117 0 -214 -82t-124 -215h127q17 77 69.5 123.5t116.5 46.5q65 0 105.5 -42t27.5 -108q-20 -99 -143 -145q-89 -26 -136 -76t-65 -150
zM647 180q38 0 71 25.5t40 62.5t-15.5 62.5t-60.5 25.5q-39 0 -71.5 -25t-39.5 -63t15 -63t61 -25z" />
    <glyph glyph-name=".null" horiz-adv-x="0" 
 />
    <glyph glyph-name="nonmarkingreturn" horiz-adv-x="682" 
 />
    <glyph glyph-name="space" unicode=" " horiz-adv-x="561" 
 />
    <glyph glyph-name="exclam" unicode="!" horiz-adv-x="475" 
d="M266 317l215 1094h62l-215 -1094h-62zM236 -8q-27 0 -42.5 16.5t-11.5 40.5q4 26 26.5 43t49.5 17q28 0 43 -17t10 -43q-4 -25 -25.5 -41t-49.5 -16z" />
    <glyph glyph-name="quotedbl" unicode="&#x22;" horiz-adv-x="569" 
d="M340 905l96 506h62l-105 -506h-53zM524 905l97 506h61l-104 -506h-54z" />
    <glyph glyph-name="numbersign" unicode="#" horiz-adv-x="1456" 
d="M264 0l174 373h-295l29 61h295l252 535h-295l27 61h297l180 381h61l-182 -381h424l180 381h62l-183 -381h295l-26 -61h-295l-252 -535h295l-29 -61h-295l-174 -373h-61l174 373h-422l-174 -373h-62zM528 434h422l252 535h-422z" />
    <glyph glyph-name="dollar" unicode="$" horiz-adv-x="1036" 
d="M1026 401q-12 -60 -49 -121.5t-95.5 -116.5t-147 -91.5t-191.5 -40.5l-43 -207h-62l41 209q-101 7 -174 57t-105.5 123t-27.5 156h61q-5 -112 74 -194.5t219 -82.5q94 0 174.5 28.5t134 74.5t86.5 98t44 104q23 115 -46 184.5t-196 100.5l-174 43q-285 70 -238 309
q19 93 86 169.5t157.5 119.5t186.5 49l41 209h62l-41 -207q149 -9 233.5 -94.5t69.5 -224.5h-59q9 119 -69.5 188.5t-213.5 69.5q-86 0 -169.5 -34.5t-144.5 -99.5t-77 -145q-6 -29 -6 -53.5t9 -55t30 -55t63 -48t102 -38.5l174 -45q331 -85 281 -338z" />
    <glyph glyph-name="percent" unicode="%" horiz-adv-x="1181" 
d="M494 885q-104 0 -160.5 70.5t-36.5 174.5q20 103 105.5 175.5t189.5 72.5q103 0 161 -72.5t38 -175.5t-106.5 -174t-190.5 -71zM219 0l928 1360h65l-923 -1360h-70zM508 946q77 0 141.5 53t79.5 131q15 77 -29 132t-120 55q-78 0 -142.5 -55t-79.5 -132
q-15 -78 28.5 -131t121.5 -53zM854 -18q-104 0 -161.5 70.5t-37.5 174.5q20 103 105.5 175.5t189.5 72.5q103 0 161 -72.5t38 -175.5q-20 -104 -106 -174.5t-189 -70.5zM866 43q77 0 141.5 53t79.5 131q15 76 -29.5 131.5t-121.5 55.5t-140.5 -55t-78.5 -132
q-15 -78 28 -131t121 -53z" />
    <glyph glyph-name="ampersand" unicode="&#x26;" horiz-adv-x="1316" 
d="M1233 39h24l-12 -62h-24q-102 0 -163.5 60t-53.5 192q-36 -67 -92 -117.5t-119.5 -79t-126.5 -42t-125 -13.5q-131 0 -220.5 61t-122 157t-10.5 208q27 139 128 251t245 149q-75 39 -104 123.5t-13 171.5q27 134 145.5 231.5t266.5 97.5q87 0 154 -35.5t100 -95.5
l-57 -36q-28 52 -84.5 79t-124.5 27q-123 0 -219.5 -80.5t-118.5 -191.5q-23 -113 39 -191t180 -78h379l37 189h61l-37 -189h197l-12 -55h-197l-70 -356q-16 -82 -19.5 -141.5t8 -116.5t52 -87t109.5 -30zM565 39q166 0 293.5 102t161.5 256l72 373h-383
q-166 0 -295.5 -102.5t-161.5 -261.5q-20 -99 7.5 -181.5t106.5 -134t199 -51.5z" />
    <glyph glyph-name="quotesingle" unicode="'" horiz-adv-x="385" 
d="M340 905l96 506h62l-105 -506h-53z" />
    <glyph glyph-name="parenleft" unicode="(" horiz-adv-x="659" 
d="M557 -330q-222 19 -311.5 263.5t-7.5 662.5t266 661.5t414 262.5l-11 -56q-201 -15 -366 -245.5t-242 -622.5q-77 -394 -1.5 -624t271.5 -244z" />
    <glyph glyph-name="parenright" unicode=")" horiz-adv-x="659" 
d="M-27 -330l13 58q198 14 363 244.5t241 623.5q51 267 33 457t-95.5 295.5t-205.5 115.5l10 56q223 -19 312 -262t7 -662t-265.5 -663t-412.5 -263z" />
    <glyph glyph-name="asterisk" unicode="*" horiz-adv-x="950" 
d="M1065 1143l-342 -86l145 -273l-47 -32l-147 274l-252 -274l-37 32l252 273l-309 86l22 49l314 -88l67 342h51l-67 -342l348 88z" />
    <glyph glyph-name="plus" unicode="+" horiz-adv-x="1007" 
d="M1014 561l-13 -61h-370l-72 -373h-61l71 373h-370l12 61h371l71 369h62l-72 -369h371z" />
    <glyph glyph-name="comma" unicode="," horiz-adv-x="401" 
d="M-14 -375l-43 19q100 112 174 274.5t104 327.5h62q-30 -171 -109 -334.5t-188 -286.5z" />
    <glyph glyph-name="hyphen" unicode="-" horiz-adv-x="968" 
d="M238 430l12 62h657l-12 -62h-657z" />
    <glyph glyph-name="period" unicode="." horiz-adv-x="440" 
d="M213 -20q-26 0 -40.5 16t-10.5 41q4 26 25.5 42.5t48.5 16.5q28 0 43.5 -16.5t11.5 -42.5q-4 -24 -27 -40.5t-51 -16.5z" />
    <glyph glyph-name="slash" unicode="/" horiz-adv-x="894" 
d="M72 0l958 1411h68l-959 -1411h-67z" />
    <glyph glyph-name="zero" unicode="0" horiz-adv-x="1226" 
d="M610 -20q-110 0 -186.5 36.5t-117 98t-55.5 152.5t-8 190t31 221q24 123 56.5 223t83 191t115 152.5t155.5 97.5t201 36t186 -36t116 -97.5t54 -153t7 -190.5t-31 -223q-24 -122 -56 -221t-82 -190.5t-114 -152.5t-154.5 -97.5t-200.5 -36.5zM623 41q96 0 175 33.5
t134.5 89.5t100 139.5t72.5 173.5t50 201q18 93 25.5 171t4.5 152t-23.5 130t-56.5 98.5t-95.5 65t-139.5 22.5q-96 0 -175 -33t-135 -89t-100.5 -139.5t-73 -174t-50.5 -203.5q-22 -111 -28.5 -201.5t6 -173.5t47 -139t100.5 -89.5t162 -33.5z" />
    <glyph glyph-name="one" unicode="1" horiz-adv-x="641" 
d="M678 1378h6l-268 -1378h-62l248 1280l-328 -139l13 65z" />
    <glyph glyph-name="two" unicode="2" horiz-adv-x="1001" 
d="M225 61h668l-10 -61h-781l4 23l709 686q167 163 193 303q27 136 -48.5 220.5t-216.5 84.5q-121 0 -221 -58t-147 -159l-60 16q59 123 179 192.5t262 69.5q168 0 256.5 -101t56.5 -265q-31 -165 -215 -342z" />
    <glyph glyph-name="three" unicode="3" horiz-adv-x="1110" 
d="M860 733q109 -26 167.5 -125t31.5 -235q-35 -175 -191.5 -284t-363.5 -109q-137 0 -238 69.5t-129 183.5l60 25q26 -98 113 -157.5t204 -59.5q181 0 317.5 92t165.5 240q27 144 -52 234.5t-224 90.5h-137l12 62h137q119 0 207 74.5t111 197.5q25 127 -52 206t-227 79
q-96 0 -188.5 -45.5t-145.5 -116.5l-45 31q65 85 173 138.5t218 53.5q178 0 268.5 -96t59.5 -250q-19 -97 -88 -179t-164 -120z" />
    <glyph glyph-name="four" unicode="4" horiz-adv-x="1130" 
d="M1124 358l-12 -61h-217l-55 -297h-62l56 297h-738l4 20l979 1043h25l-197 -1002h217zM213 358h633l168 861z" />
    <glyph glyph-name="five" unicode="5" horiz-adv-x="1101" 
d="M737 821q183 0 278.5 -113t59.5 -296q-38 -193 -189.5 -314t-344.5 -121q-143 0 -245.5 68t-150.5 186l60 31q43 -103 132.5 -163t213.5 -60q168 0 299.5 104t163.5 269q30 155 -52.5 251.5t-240.5 96.5q-84 0 -195.5 -27.5t-218.5 -73.5l-18 33l250 668h628l-12 -62
h-577l-211 -561q216 84 370 84z" />
    <glyph glyph-name="six" unicode="6" horiz-adv-x="1161" 
d="M768 842q192 0 290 -122t64 -302q-12 -59 -37.5 -118t-70.5 -117.5t-104 -103t-142.5 -72t-179.5 -27.5q-215 0 -306 134t-42 386q53 264 112 415q182 463 553 463q84 0 147 -21t111.5 -74.5t71.5 -139.5l-61 -27q-52 201 -283 201q-75 0 -141 -23.5t-115.5 -61.5
t-93.5 -94.5t-74.5 -113t-58 -128t-44 -128t-32.5 -123.5q66 96 190 146.5t246 50.5zM600 41q174 0 303 112.5t158 266.5q28 151 -56 255.5t-249 104.5q-60 0 -125 -15t-135 -47.5t-124 -97t-73 -151.5q-19 -115 -5 -196.5t60.5 -133t108 -75t137.5 -23.5z" />
    <glyph glyph-name="seven" unicode="7" horiz-adv-x="960" 
d="M354 1360h840l-2 -12l-1006 -1348h-69l964 1298h-739z" />
    <glyph glyph-name="eight" unicode="8" horiz-adv-x="1167" 
d="M895 788q130 -43 194.5 -149.5t38.5 -241.5q-34 -174 -193 -295.5t-357 -121.5t-307.5 121t-75.5 296q27 135 129 242.5t251 151.5q-77 37 -112.5 111t-16.5 165q26 132 142 221.5t264 89.5q150 0 231.5 -90t55.5 -221q-19 -92 -84 -166.5t-160 -112.5zM508 1065
q-21 -104 42.5 -176.5t188.5 -75.5q125 3 221.5 75t116.5 177q20 106 -48.5 179t-190.5 73q-120 0 -214 -72.5t-116 -179.5zM590 41q171 0 308.5 103t166.5 253q30 149 -66.5 255t-269.5 106q-177 -4 -309 -107t-162 -252q-29 -151 66 -254.5t266 -103.5z" />
    <glyph glyph-name="nine" unicode="9" horiz-adv-x="1161" 
d="M1184 858q-52 -261 -110 -410q-181 -468 -554 -468q-84 0 -147 21t-111.5 74.5t-71.5 139.5l62 27q28 -108 99 -154.5t181 -46.5q404 0 560 672q-64 -96 -189 -146.5t-248 -50.5q-192 0 -289 122t-63 302q12 59 37.5 118t71 117.5t104 103t142.5 72t180 27.5
q215 0 305 -134t41 -386zM668 578q38 0 79.5 6t89.5 19.5t92.5 38t84 57.5t68.5 82t42 108q20 115 6.5 196.5t-60 133t-108 75t-137.5 23.5q-174 0 -301.5 -112.5t-158.5 -266.5q-30 -151 54 -255.5t249 -104.5z" />
    <glyph glyph-name="colon" unicode=":" horiz-adv-x="440" 
d="M387 860q-26 0 -41.5 16.5t-11.5 41.5q4 26 26.5 42.5t49.5 16.5q28 0 42.5 -16.5t10.5 -42.5q-4 -25 -26 -41.5t-50 -16.5zM213 -20q-26 0 -40.5 16t-10.5 41q4 26 25.5 42.5t48.5 16.5q28 0 43.5 -16.5t11.5 -42.5q-4 -24 -27 -40.5t-51 -16.5z" />
    <glyph glyph-name="semicolon" unicode=";" horiz-adv-x="477" 
d="M442 977q28 0 43 -16.5t11 -42.5q-4 -25 -26 -41.5t-50 -16.5q-26 0 -41.5 16.5t-11.5 41.5q4 26 26 42.5t49 16.5zM45 -375l-41 19q100 113 174.5 275t104.5 327h61q-30 -171 -109.5 -334.5t-189.5 -286.5z" />
    <glyph glyph-name="less" unicode="&#x3c;" horiz-adv-x="1261" 
d="M1313 954l-13 -65l-1044 -373l899 -369l-14 -65l-965 399l14 74z" />
    <glyph glyph-name="equal" unicode="=" horiz-adv-x="1241" 
d="M297 690l14 62h914l-15 -62h-913zM213 254l10 61h914l-11 -61h-913z" />
    <glyph glyph-name="greater" unicode="&#x3e;" horiz-adv-x="1261" 
d="M322 954l962 -399l-14 -74l-1120 -399l12 65l1042 369l-897 373z" />
    <glyph glyph-name="question" unicode="?" horiz-adv-x="933" 
d="M360 317l25 127q22 110 73 169t136 92l108 36q109 33 191 114t104 194q27 140 -55 227.5t-219 87.5q-125 0 -230 -74t-141 -198h-61q43 153 166.5 243t275.5 90q78 0 145 -27t113 -75t65 -119.5t3 -154.5q-27 -135 -124.5 -232.5t-225.5 -134.5q-46 -13 -76.5 -24
t-64 -29.5t-55.5 -42t-40 -59.5t-27 -83l-24 -127h-62zM328 -8q-27 0 -42.5 16.5t-11.5 40.5q4 26 26.5 43t49.5 17q28 0 43 -17t10 -43q-4 -25 -25.5 -41t-49.5 -16z" />
    <glyph glyph-name="at" unicode="@" horiz-adv-x="2084" 
d="M930 -410q-250 1 -433.5 123t-261 332t-28.5 461q37 188 141 358t248.5 293.5t327 196.5t370.5 73q189 0 349.5 -67t266.5 -182.5t150.5 -281t7.5 -351.5q-15 -76 -41 -152.5t-68.5 -154.5t-94.5 -137t-124 -96.5t-151 -37.5q-42 0 -77 8t-66.5 26.5t-49.5 48.5
t-25.5 74.5t5.5 104.5l58 289q28 142 -52.5 241t-220.5 99t-259.5 -99t-147.5 -241q-28 -140 52.5 -240t219.5 -100q48 0 108.5 17.5t104.5 46.5l-14 -68q-102 -57 -209 -57q-164 0 -260 118.5t-64 282.5q32 168 173 285t306 117q166 0 261.5 -117.5t62.5 -284.5l-57 -289
q-21 -106 27.5 -153t136.5 -47q66 0 126 33.5t104 86t80.5 122t59 138t35.5 136.5q34 173 -8 327t-141.5 261.5t-250 170t-327.5 62.5q-175 0 -345 -68.5t-305 -184t-231.5 -274t-130.5 -333.5t1 -333t124.5 -272.5t232 -181.5t316.5 -67h70l-13 -62h-69z" />
    <glyph glyph-name="A" unicode="A" horiz-adv-x="1198" 
d="M1106 0l-74 393h-713l-227 -393h-65l815 1411h65l264 -1411h-65zM350 449h670l-162 876z" />
    <glyph glyph-name="B" unicode="B" horiz-adv-x="1280" 
d="M1028 752q67 -23 113.5 -66t66.5 -93t27 -107.5t-6 -108.5q-30 -155 -158 -266t-297 -111h-549l275 1413h487q166 0 248.5 -86.5t50.5 -245.5q-21 -107 -90.5 -199t-167.5 -130zM975 1352h-426l-113 -574h479q115 0 200.5 87.5t109.5 215.5q26 129 -43.5 200t-206.5 71z
M784 61q143 0 249 93t132 223q28 144 -52 244t-228 100h-459l-129 -660h487z" />
    <glyph glyph-name="C" unicode="C" horiz-adv-x="1353" 
d="M807 -20q-115 0 -214.5 37t-170.5 102.5t-119 156t-59 198t10 228.5q29 148 109.5 282t191.5 231t251.5 154.5t283.5 57.5q130 0 239 -46.5t184 -129.5l-49 -45q-150 160 -387 160q-130 0 -258 -52.5t-230 -141.5t-175 -212t-99 -258q-35 -180 19.5 -332t182.5 -240.5
t302 -88.5q239 0 447 158l30 -45q-225 -174 -489 -174z" />
    <glyph glyph-name="D" unicode="D" horiz-adv-x="1488" 
d="M225 0l275 1411h520q192 0 315.5 -94t163 -253.5t0.5 -361.5q-29 -150 -95.5 -278t-162 -222.5t-223.5 -148t-273 -53.5h-520zM297 61h459q131 0 246.5 49t202 135t147 203t86.5 254q35 185 0 330.5t-146 231.5t-284 86h-459z" />
    <glyph glyph-name="E" unicode="E" horiz-adv-x="1126" 
d="M297 61h729l-10 -61h-791l275 1411h766l-13 -61h-704l-121 -627h616l-14 -61h-616z" />
    <glyph glyph-name="F" unicode="F" horiz-adv-x="1040" 
d="M1243 1350h-694l-121 -627h551l-14 -61h-551l-127 -662h-62l275 1411h755z" />
    <glyph glyph-name="G" unicode="G" horiz-adv-x="1552" 
d="M823 -23q-196 0 -340 97t-204.5 263.5t-22.5 364.5t164 364.5t308 263.5t378 97q227 0 391 -135l-47 -49q-149 123 -356 123q-179 0 -345.5 -89t-281 -241.5t-150.5 -333.5t20 -333.5t188 -241t311 -88.5q236 0 421.5 134t264.5 390l8 27h-447l11 61h512
q-37 -167 -113.5 -297t-181 -211.5t-228 -123.5t-260.5 -42z" />
    <glyph glyph-name="H" unicode="H" horiz-adv-x="1474" 
d="M1462 1411h62l-275 -1411h-61l129 674h-901l-129 -674h-62l275 1411h61l-133 -682h901z" />
    <glyph glyph-name="I" unicode="I" horiz-adv-x="512" 
d="M225 0l275 1411h61l-274 -1411h-62z" />
    <glyph glyph-name="J" unicode="J" horiz-adv-x="528" 
d="M-193 -477q-45 0 -88 6l19 61q50 -6 82 -6q90 0 162.5 29t121.5 81t80 117.5t47 145.5l283 1454h64l-285 -1454q-18 -93 -55 -169t-95 -136.5t-144 -94.5t-192 -34z" />
    <glyph glyph-name="K" unicode="K" horiz-adv-x="1050" 
d="M1065 0h-90l-563 637l-125 -637h-62l275 1411h61l-143 -729l749 729h80l-772 -747z" />
    <glyph glyph-name="L" unicode="L" horiz-adv-x="970" 
d="M225 0l275 1411h61l-264 -1350h633l-10 -61h-695z" />
    <glyph glyph-name="M" unicode="M" horiz-adv-x="1970" 
d="M1829 0h-62l91 1313l-814 -1180h-67l-352 1184l-424 -1317h-60l455 1411h66l360 -1223l838 1223h63z" />
    <glyph glyph-name="N" unicode="N" horiz-adv-x="1419" 
d="M1407 1411h61l-274 -1411h-78l-573 1319l-256 -1319h-62l275 1411h78l569 -1325z" />
    <glyph glyph-name="O" unicode="O" horiz-adv-x="1656" 
d="M821 -20q-195 0 -339 96.5t-205 262.5t-23 363q38 198 164.5 364.5t308.5 263.5t377 97q196 0 340.5 -97t205.5 -263.5t23 -364.5q-29 -147 -110.5 -280.5t-195 -230.5t-256.5 -154t-290 -57zM834 41q179 0 346 88.5t282 240.5t150 332q35 181 -21 333.5t-188 241.5
t-311 89q-178 0 -344.5 -89t-282.5 -241.5t-150 -333.5q-35 -180 21.5 -332t188 -240.5t309.5 -88.5z" />
    <glyph glyph-name="P" unicode="P" horiz-adv-x="1236" 
d="M1044 1411q80 0 141 -23t96 -62.5t55.5 -93t20 -113.5t-10.5 -124q-16 -83 -52 -154.5t-92 -130.5t-141 -93.5t-189 -34.5h-473l-112 -582h-62l275 1411h544zM885 643q87 0 158.5 29t119 80t77.5 111.5t44 131.5q9 55 9.5 106t-16.5 96.5t-46.5 79.5t-80.5 53.5
t-118 19.5h-483l-137 -707h473z" />
    <glyph glyph-name="Q" unicode="Q" horiz-adv-x="1656" 
d="M1673 702q-39 -204 -174 -374.5t-325 -264.5l118 -268l-57 -33l-123 275q-139 -57 -291 -57q-195 0 -339 96.5t-205 262.5t-23 363q38 198 164.5 364.5t308.5 263.5t377 97q196 0 340.5 -97t205.5 -263.5t23 -364.5zM834 41q131 0 256 49l-119 270l57 33l125 -276
q173 85 298 241.5t161 343.5q36 181 -20 333.5t-188.5 241.5t-311.5 89q-178 0 -344.5 -89t-282.5 -241.5t-150 -333.5q-35 -180 21.5 -332t188 -240.5t309.5 -88.5z" />
    <glyph glyph-name="R" unicode="R" horiz-adv-x="1243" 
d="M844 582h-53l296 -582h-75l-301 582h-312l-112 -582h-62l275 1411h516q80 0 141 -23t96 -62.5t55.5 -93t19.5 -113.5t-11 -124q-16 -83 -51.5 -154.5t-92 -130.5t-141 -93.5t-188.5 -34.5zM549 1350l-137 -707h444q87 0 158.5 29t119 80t77.5 111.5t44 131.5
q9 55 9.5 106t-16.5 96.5t-46 79.5t-80 53.5t-118 19.5h-455z" />
    <glyph glyph-name="S" unicode="S" horiz-adv-x="1144" 
d="M559 -20q-120 0 -208 52.5t-128 133.5t-35 174h62q-3 -122 83.5 -210.5t237.5 -88.5q102 0 189.5 31t145 81t94 106.5t47.5 113.5q24 124 -50 199.5t-211 109.5l-190 47q-311 70 -256 334q21 105 99.5 189.5t185 129.5t215.5 45q173 0 273 -93.5t83 -250.5h-61
q12 129 -74.5 206t-233.5 77q-93 0 -184 -37.5t-157.5 -108t-84.5 -157.5q-42 -213 215 -275l193 -47q354 -88 301 -364q-13 -67 -54.5 -134.5t-108.5 -127.5t-168.5 -97.5t-219.5 -37.5z" />
    <glyph glyph-name="T" unicode="T" horiz-adv-x="1107" 
d="M1335 1411l-10 -61h-479l-262 -1350h-62l262 1350h-477l10 61h1018z" />
    <glyph glyph-name="U" unicode="U" horiz-adv-x="1388" 
d="M690 -23q-99 0 -181.5 34.5t-136 98.5t-75.5 153.5t0 199.5l184 948h62l-185 -948q-36 -188 64.5 -306t279.5 -118t325.5 118t182.5 306l185 948h61l-184 -948q-42 -215 -210 -350.5t-372 -135.5z" />
    <glyph glyph-name="V" unicode="V" horiz-adv-x="1081" 
d="M1217 1411h65l-696 -1411h-90l-150 1411h66l141 -1341z" />
    <glyph glyph-name="W" unicode="W" horiz-adv-x="1859" 
d="M2017 1411h66l-754 -1411h-76l-108 1100l-539 -1100h-76l-204 1411h63l191 -1325l540 1100h82l107 -1104z" />
    <glyph glyph-name="X" unicode="X" horiz-adv-x="1150" 
d="M1126 0h-75l-338 713l-613 -713h-73l661 764l-309 647h74l280 -598l514 598h76l-563 -647z" />
    <glyph glyph-name="Y" unicode="Y" horiz-adv-x="1165" 
d="M1343 1411h74l-674 -735l-131 -676h-61l131 678l-383 733h74l352 -678z" />
    <glyph glyph-name="Z" unicode="Z" horiz-adv-x="1071" 
d="M1264 1411l-9 -41l-1073 -1309h817l-10 -61h-907l6 33l1077 1317h-821l12 61h908z" />
    <glyph glyph-name="bracketleft" unicode="[" horiz-adv-x="538" 
d="M764 1458h-211l-338 -1726h211l-12 -62h-273l361 1850h272z" />
    <glyph glyph-name="backslash" unicode="\" horiz-adv-x="894" 
d="M756 0l-410 1411h68l409 -1411h-67z" />
    <glyph glyph-name="bracketright" unicode="]" horiz-adv-x="538" 
d="M354 1520h273l-361 -1850h-270l10 62h211l338 1726h-211z" />
    <glyph glyph-name="asciicircum" unicode="^" horiz-adv-x="948" 
d="M961 588h-64l-164 739l-452 -739h-64l504 823h55z" />
    <glyph glyph-name="underscore" unicode="_" horiz-adv-x="1247" 
d="M82 -119l12 62h1034l-12 -62h-1034z" />
    <glyph glyph-name="grave" unicode="`" horiz-adv-x="862" 
d="M653 1102l-145 309h74l133 -309h-62z" />
    <glyph glyph-name="a" unicode="a" horiz-adv-x="1282" 
d="M1229 956h61l-186 -956h-62l45 236q-88 -116 -218.5 -186t-270.5 -70q-135 0 -236 66.5t-145 181.5t-18 251q26 135 115 249.5t216.5 181.5t262.5 67q140 0 243.5 -70t145.5 -186zM610 41q119 0 230 54.5t190 153.5t103 220q25 128 -14.5 231t-128.5 159t-208 56
q-118 0 -230 -58.5t-190.5 -159t-101.5 -218.5q-35 -181 67.5 -309.5t282.5 -128.5z" />
    <glyph glyph-name="b" unicode="b" horiz-adv-x="1282" 
d="M868 977q135 0 236.5 -67t145.5 -181.5t18 -249.5q-26 -136 -115.5 -251t-217.5 -181.5t-263 -66.5q-140 0 -243.5 70t-143.5 186l-45 -236h-62l295 1520h62l-156 -799q88 116 218.5 186t270.5 70zM686 41q180 0 332.5 128.5t187.5 309.5q23 118 -15.5 218.5t-127.5 159
t-207 58.5q-183 0 -335.5 -126.5t-190.5 -319.5q-36 -183 68.5 -305.5t287.5 -122.5z" />
    <glyph glyph-name="c" unicode="c" horiz-adv-x="1007" 
d="M600 -20q-209 0 -325.5 139.5t-73.5 361.5q29 147 119 261t214.5 174.5t260.5 60.5q168 0 290 -103l-45 -49q-107 90 -256 90q-120 0 -229.5 -52.5t-188.5 -152.5t-104 -229q-37 -196 64.5 -318t285.5 -122q154 0 293 90l29 -49q-158 -102 -334 -102z" />
    <glyph glyph-name="d" unicode="d" horiz-adv-x="1282" 
d="M1337 1520h62l-295 -1520h-62l45 236q-88 -116 -218.5 -186t-270.5 -70q-135 0 -236 66.5t-145 181.5t-18 251q26 135 115 249.5t216.5 181.5t262.5 67q140 0 243.5 -70t145.5 -186zM610 41q119 0 230 54.5t190 153.5t103 220q25 128 -14.5 231t-128.5 159t-208 56
q-118 0 -230 -58.5t-190.5 -159t-101.5 -218.5q-35 -181 67.5 -309.5t282.5 -128.5z" />
    <glyph glyph-name="e" unicode="e" horiz-adv-x="1155" 
d="M1151 481l-6 -26h-885q-25 -186 68 -300t270 -114q113 0 217 51.5t180 143.5l47 -33q-87 -105 -206.5 -164t-249.5 -59q-205 0 -315.5 139t-67.5 362q29 147 115.5 261t207 174.5t254.5 60.5q135 0 230.5 -61t134 -175t6.5 -260zM270 510h824q28 184 -62 294.5
t-262 110.5q-174 0 -312 -109.5t-188 -295.5z" />
    <glyph glyph-name="f" unicode="f" horiz-adv-x="602" 
d="M842 1458q-258 0 -324 -340l-31 -162h271l-13 -55h-270l-174 -901h-61l174 901h-197l12 55h197l31 162q77 402 397 402h70l-13 -62h-69z" />
    <glyph glyph-name="g" unicode="g" horiz-adv-x="1282" 
d="M1229 956h59l-160 -819q-28 -141 -73.5 -247.5t-102 -175.5t-130.5 -112.5t-152.5 -61t-173.5 -17.5q-115 0 -208 51t-145 152l60 34q44 -88 124 -132t179 -44q105 0 189 26t159 87t129 171.5t84 268.5l18 99q-86 -116 -216.5 -186t-270.5 -70q-135 0 -236 66.5
t-145 181.5t-18 251q26 135 115 249.5t216.5 181.5t262.5 67q140 0 243.5 -70t145.5 -186zM610 41q119 0 230 54.5t190 153.5t103 220q25 128 -14.5 231t-128.5 159t-208 56q-118 0 -230 -58.5t-190.5 -159t-101.5 -218.5q-35 -181 67.5 -309.5t282.5 -128.5z" />
    <glyph glyph-name="h" unicode="h" horiz-adv-x="1148" 
d="M784 977q170 0 258 -112t52 -302l-109 -563h-61l108 563q32 161 -42.5 256.5t-217.5 95.5q-70 0 -134.5 -20.5t-123.5 -62.5t-103.5 -115t-66.5 -170l-104 -547h-62l295 1520h62l-150 -775q42 81 111.5 135t141 75.5t146.5 21.5z" />
    <glyph glyph-name="i" unicode="i" horiz-adv-x="417" 
d="M451 1251q-26 0 -41 16.5t-11 41.5q4 26 25.5 42.5t48.5 16.5q28 0 43.5 -16.5t11.5 -42.5q-4 -25 -26.5 -41.5t-50.5 -16.5zM178 0l187 956h61l-186 -956h-62z" />
    <glyph glyph-name="j" unicode="j" horiz-adv-x="434" 
d="M467 1251q-26 0 -40.5 16.5t-10.5 41.5q4 26 25 42.5t48 16.5q28 0 44 -16.5t12 -42.5q-4 -25 -27 -41.5t-51 -16.5zM-223 -463l12 60h70q70 0 126 26t94.5 74t63 107.5t39.5 134.5l199 1017h61l-198 -1017q-17 -88 -47 -158.5t-77.5 -126.5t-117 -86.5t-156.5 -30.5h-69
z" />
    <glyph glyph-name="k" unicode="k" horiz-adv-x="864" 
d="M874 0h-90l-444 520l-100 -520h-62l295 1520h62l-191 -971l479 407h88l-495 -419z" />
    <glyph glyph-name="l" unicode="l" horiz-adv-x="417" 
d="M178 0l295 1520h62l-295 -1520h-62z" />
    <glyph glyph-name="m" unicode="m" horiz-adv-x="1894" 
d="M1530 977q169 0 257 -112t52 -302l-108 -563h-62l109 563q32 161 -42.5 256.5t-217.5 95.5q-70 0 -134.5 -20.5t-123 -62.5t-103 -114.5t-67.5 -168.5l-105 -549h-61l108 563q32 161 -42.5 256.5t-217.5 95.5q-70 0 -134.5 -20.5t-123.5 -62.5t-103.5 -115t-66.5 -170
l-104 -547h-62l187 956h61l-41 -208q60 117 169.5 173t229.5 56q137 0 220 -71t92 -204q33 78 85.5 134.5t114 85.5t119 42t115.5 13z" />
    <glyph glyph-name="n" unicode="n" horiz-adv-x="1148" 
d="M784 977q170 0 258 -112t52 -302l-109 -563h-61l108 563q32 161 -42.5 256.5t-217.5 95.5q-70 0 -134.5 -20.5t-123.5 -62.5t-103.5 -115t-66.5 -170l-104 -547h-62l187 956h61l-41 -211q42 81 111.5 135t141 75.5t146.5 21.5z" />
    <glyph glyph-name="o" unicode="o" horiz-adv-x="1216" 
d="M602 -20q-102 0 -186.5 35.5t-139 100.5t-76.5 158t1 207q29 148 119 262t215 174t262 60q102 0 186 -35t139.5 -99.5t77.5 -156t0 -205.5q-29 -148 -120 -264t-216.5 -176.5t-261.5 -60.5zM614 41q120 0 230.5 53.5t190 155t104.5 231.5q37 195 -65.5 314.5
t-287.5 119.5q-121 0 -231 -52t-189 -152.5t-104 -229.5q-37 -197 64.5 -318.5t287.5 -121.5z" />
    <glyph glyph-name="p" unicode="p" horiz-adv-x="1282" 
d="M868 977q135 0 236.5 -67t145.5 -182t18 -251q-40 -205 -215 -351t-381 -146q-140 0 -243.5 70t-143.5 186l-138 -699h-61l279 1419h61l-47 -235q88 116 218.5 186t270.5 70zM686 41q118 0 229.5 58.5t189.5 159t101 218.5q35 181 -67.5 309.5t-282.5 128.5
q-119 0 -230 -54.5t-189.5 -153.5t-102.5 -220q-20 -98 -0.5 -180t67 -141t122 -92t163.5 -33z" />
    <glyph glyph-name="q" unicode="q" horiz-adv-x="1282" 
d="M1229 956h61l-278 -1419h-62l137 699q-88 -116 -218.5 -186t-270.5 -70q-135 0 -236 66.5t-145 181t-18 249.5q26 136 115 251t216.5 182t262.5 67q140 0 243.5 -70t145.5 -186zM610 41q183 0 336 126.5t191 319.5q36 184 -68 306t-287 122q-180 0 -333.5 -128.5
t-188.5 -309.5q-23 -118 15.5 -218.5t127.5 -159t207 -58.5z" />
    <glyph glyph-name="r" unicode="r" horiz-adv-x="731" 
d="M772 977q73 0 129 -19l-31 -59q-49 16 -110 16q-81 0 -150 -36.5t-116 -91.5t-85 -130.5t-59.5 -142t-36.5 -137.5l-73 -377h-62l187 956h61l-53 -268q58 124 164 206.5t235 82.5z" />
    <glyph glyph-name="s" unicode="s" horiz-adv-x="858" 
d="M424 -20q-124 0 -206.5 63t-82.5 180h62q6 -35 20 -64.5t40 -57.5t72.5 -44t108.5 -16q120 0 202 57t101 150q28 148 -145 196l-137 33q-221 52 -183 248q21 112 119.5 182t227.5 70q119 0 186.5 -63.5t58.5 -170.5h-61q3 78 -51 125t-146 47q-103 0 -179 -51.5
t-93 -134.5q-29 -151 147 -192l136 -33q116 -29 158.5 -97.5t23.5 -158.5q-23 -121 -126.5 -194.5t-252.5 -73.5z" />
    <glyph glyph-name="t" unicode="t" horiz-adv-x="559" 
d="M713 956l-13 -55h-237l-174 -901h-62l174 901h-174l13 55h174l78 406h61l-78 -406h238z" />
    <glyph glyph-name="u" unicode="u" horiz-adv-x="1148" 
d="M1096 956h61l-186 -956h-62l39 211q-60 -118 -170 -174.5t-229 -56.5q-170 0 -258 112t-51 301l110 563h62l-111 -563q-32 -161 43.5 -256.5t218.5 -95.5q148 0 265.5 90.5t160.5 278.5z" />
    <glyph glyph-name="v" unicode="v" horiz-adv-x="1011" 
d="M1073 956h68l-596 -956h-80l-219 956h67l203 -895z" />
    <glyph glyph-name="w" unicode="w" horiz-adv-x="1646" 
d="M1708 956h66l-547 -956h-64l-168 887l-506 -887h-65l-182 956h65l164 -870l498 870h78l163 -868z" />
    <glyph glyph-name="x" unicode="x" horiz-adv-x="907" 
d="M874 0h-77l-250 477l-436 -477h-78l485 530l-223 426h78l196 -372l338 372h78l-387 -424z" />
    <glyph glyph-name="y" unicode="y" horiz-adv-x="1009" 
d="M1075 956h68l-887 -1419h-68l279 453l-219 966h67l203 -893z" />
    <glyph glyph-name="z" unicode="z" horiz-adv-x="952" 
d="M1053 956l-9 -41l-849 -854h682l-11 -61h-780l6 37l852 858h-686l14 61h781z" />
    <glyph glyph-name="braceleft" unicode="{" horiz-adv-x="673" 
d="M874 1462q-130 0 -239 -88t-133 -227l-68 -342q-13 -67 -59 -126t-113 -83q57 -22 79 -82t9 -129l-65 -342q-28 -139 47 -227t205 -88h45l-13 -58h-45q-156 0 -245.5 104t-55.5 269l66 342q12 63 -17 115t-84 67l11 56q62 15 112 67t62 115l67 342q30 165 159.5 269
t285.5 104h45l-10 -58h-46z" />
    <glyph glyph-name="bar" unicode="|" horiz-adv-x="479" 
d="M156 -264l370 1896h62l-371 -1896h-61z" />
    <glyph glyph-name="braceright" unicode="}" horiz-adv-x="673" 
d="M614 805q-12 -63 17.5 -115t85.5 -67l-12 -56q-61 -15 -111 -67.5t-62 -114.5l-65 -342q-31 -165 -162 -269t-287 -104h-43l13 58h43q130 0 239 88t136 227l65 342q13 68 59 128.5t111 82.5q-55 24 -78 82.5t-10 126.5l70 342q27 139 -48.5 227t-205.5 88h-45l10 58h45
q156 0 246 -104t57 -269z" />
    <glyph glyph-name="asciitilde" unicode="~" horiz-adv-x="1396" 
d="M1350 592q-64 -50 -147 -85.5t-159 -35.5q-42 0 -83 8.5t-60.5 16t-58.5 26t-45 21.5q-9 4 -43.5 21t-55 25t-58.5 16.5t-77 8.5q-59 0 -131 -29.5t-135 -78.5l-25 49q62 49 146 85t160 36q42 0 83 -8.5t60.5 -16t58.5 -26t45 -21.5q11 -5 43.5 -21t53.5 -25t58.5 -17.5
t76.5 -8.5q57 0 130 30.5t136 78.5z" />
    <glyph glyph-name="exclamdown" unicode="&#xa1;" horiz-adv-x="434" 
d="M408 977q28 0 43 -16t10 -41q-4 -26 -26 -43t-50 -17q-27 0 -42 17t-11 43q4 24 26.5 40.5t49.5 16.5zM309 631h62l-215 -1094h-62z" />
    <glyph glyph-name="cent" unicode="&#xa2;" horiz-adv-x="1034" 
d="M936 82q-146 -96 -320 -102l-43 -224h-61l45 226q-189 15 -291.5 152.5t-62.5 346.5q27 138 109.5 248.5t196.5 173t241 72.5l41 205h61l-41 -203q161 -6 276 -103l-43 -49q-112 90 -258 90q-120 0 -229.5 -52.5t-188.5 -152.5t-104 -229q-37 -196 64.5 -318t285.5 -122
q153 0 295 90z" />
    <glyph glyph-name="sterling" unicode="&#xa3;" horiz-adv-x="1251" 
d="M1141 244h61l-16 -88q-12 -66 -64 -111t-114 -45h-932l10 61h211l86 433h-174l10 57h176l86 444q33 166 171.5 271.5t299.5 105.5q153 0 242.5 -92t71.5 -244h-62q13 125 -61.5 200t-200.5 75q-136 0 -254 -88t-145 -228l-86 -444h245l-10 -57h-248l-86 -433h660
q37 0 68 27.5t38 67.5z" />
    <glyph glyph-name="currency" unicode="&#xa4;" horiz-adv-x="1206" 
d="M373 1112l51 43l131 -162q118 84 250 84q140 0 225 -88l199 166l35 -43l-197 -166q65 -111 41 -241q-25 -130 -131 -236l131 -164l-51 -43l-131 164q-127 -92 -267 -92q-134 0 -223 86l-186 -154l-33 43l186 154q-67 104 -41 244q25 139 140 245zM674 395
q126 0 235.5 92.5t134.5 219.5q25 126 -49 217.5t-200 91.5t-237 -91.5t-136 -217.5q-25 -128 48.5 -220t203.5 -92z" />
    <glyph glyph-name="yen" unicode="&#xa5;" horiz-adv-x="1243" 
d="M590 0l63 332h-338l11 61h338l47 236h-338l12 61h330l-377 721h74l352 -676l618 676h74l-661 -721h327l-12 -61h-338l-47 -236h338l-10 -61h-338l-64 -332h-61z" />
    <glyph glyph-name="brokenbar" unicode="&#xa6;" horiz-adv-x="491" 
d="M389 899l143 733h62l-143 -733h-62zM162 -264l143 731h62l-144 -731h-61z" />
    <glyph glyph-name="section" unicode="&#xa7;" horiz-adv-x="995" 
d="M594 387q-161 0 -250.5 104t-56.5 273l55 287q33 168 163.5 272t291.5 104q112 0 194 -52.5t109 -145.5l-62 -27q-22 76 -91 120t-163 44q-136 0 -245 -87t-136 -228l-55 -287q-27 -143 47.5 -229t210.5 -86q67 0 135 22l-10 -63q-75 -21 -137 -21zM428 -264
q-112 0 -194 52.5t-109 145.5l59 27q23 -76 91.5 -120t162.5 -44q136 0 246 87.5t137 228.5l56 286q27 143 -48 229.5t-211 86.5q-62 0 -137 -23l13 64q72 20 137 20q161 0 250.5 -104t56.5 -273l-57 -286q-33 -168 -162.5 -272.5t-290.5 -104.5z" />
    <glyph glyph-name="dieresis" unicode="&#xa8;" horiz-adv-x="907" 
d="M545 1214q-26 0 -41.5 16.5t-11.5 41.5q4 26 26 42.5t49 16.5q28 0 43 -16.5t11 -42.5q-4 -25 -26 -41.5t-50 -16.5zM831 1214q-26 0 -41.5 16.5t-11.5 41.5q4 26 26.5 42.5t49.5 16.5q28 0 42.5 -16.5t10.5 -42.5q-4 -25 -26 -41.5t-50 -16.5z" />
    <glyph glyph-name="copyright" unicode="&#xa9;" horiz-adv-x="1665" 
d="M825 -20q-147 0 -268.5 57t-197.5 154t-106 230.5t-1 280.5q38 197 165.5 363.5t311 264t379.5 97.5t342 -97.5t208.5 -264t24.5 -363.5q-38 -196 -166 -362.5t-312 -263t-380 -96.5zM838 41q179 0 347.5 88.5t285.5 240.5t151 332q35 180 -22.5 332.5t-191 242
t-312.5 89.5t-347.5 -89.5t-285 -242t-150.5 -332.5q-26 -135 1.5 -257t97.5 -210.5t181 -141t245 -52.5zM907 342q-146 0 -225.5 105t-50.5 255q29 151 150.5 257t267.5 106q136 0 211 -88l-50 -45q-66 72 -174 72q-119 0 -219 -88.5t-125 -213.5q-25 -124 41 -211.5
t185 -87.5q106 0 204 72l31 -47q-120 -86 -246 -86z" />
    <glyph glyph-name="ordfeminine" unicode="&#xaa;" horiz-adv-x="1128" 
d="M1184 1516h61l-151 -766h-62l37 180q-67 -89 -169.5 -143t-211.5 -54q-163 0 -256 116.5t-61 283.5t170 283t301 116q109 0 190.5 -54t114.5 -143zM702 793q142 0 258.5 94.5t145.5 238.5q30 150 -50.5 247t-221.5 97q-139 0 -256.5 -98.5t-145.5 -238.5
q-28 -141 52 -240.5t218 -99.5zM285 532l10 62h760l-11 -62h-759z" />
    <glyph glyph-name="guillemotleft" unicode="&#xab;" horiz-adv-x="811" 
d="M403 51l-200 424l364 424h74l-365 -424l203 -424h-76zM635 51l-201 424l365 424h73l-364 -424l203 -424h-76z" />
    <glyph glyph-name="logicalnot" unicode="&#xac;" horiz-adv-x="1320" 
d="M307 680h981l-78 -408h-61l68 346h-920z" />
    <glyph glyph-name="uni00AD" unicode="&#xad;" horiz-adv-x="968" 
d="M238 430l12 62h657l-12 -62h-657z" />
    <glyph glyph-name="registered" unicode="&#xae;" horiz-adv-x="1665" 
d="M1108 1427q196 0 342 -97.5t208.5 -264t24.5 -363.5q-38 -196 -166 -362.5t-312 -263t-380 -96.5q-147 0 -268.5 57t-197.5 154t-106 230.5t-1 280.5q38 197 165.5 363.5t311 264t379.5 97.5zM838 41q179 0 347.5 88.5t285.5 240.5t151 332q35 180 -22.5 332.5t-191 242
t-312.5 89.5t-347.5 -89.5t-285 -242t-150.5 -332.5q-26 -135 1.5 -257t97.5 -210.5t181 -141t245 -52.5zM1262 836q-19 -94 -79 -161t-157 -75l121 -262h-70l-121 260h-172l-49 -260h-61l141 737h270q113 0 154.5 -69t22.5 -170zM1001 659q84 0 134 50.5t65 126.5
q15 75 -14 126.5t-111 51.5h-209l-69 -355h204z" />
    <glyph glyph-name="macron" unicode="&#xaf;" horiz-adv-x="958" 
d="M485 1237l13 55h467l-13 -55h-467z" />
    <glyph glyph-name="degree" unicode="&#xb0;" horiz-adv-x="692" 
d="M535 969q-95 0 -149.5 67t-35.5 162q19 96 99 162.5t176 66.5t149.5 -66.5t34.5 -162.5q-19 -95 -99 -162t-175 -67zM545 1030q69 0 129.5 49.5t73.5 118.5q13 70 -27.5 119t-110.5 49q-69 0 -127 -49t-71 -119q-14 -69 25 -118.5t108 -49.5z" />
    <glyph glyph-name="plusminus" unicode="&#xb1;" horiz-adv-x="1093" 
d="M686 561h371l-13 -61h-370l-66 -340h-61l65 340h-370l12 61h371l65 336h62zM145 0l11 61h802l-10 -61h-803z" />
    <glyph glyph-name="uni00B2" unicode="&#xb2;" horiz-adv-x="608" 
d="M410 1145h335l-10 -60h-442l6 25l371 360q89 86 104 160q12 68 -24.5 110t-106.5 42q-63 0 -113.5 -31.5t-72.5 -85.5l-51 12q29 75 96.5 118.5t152.5 43.5q97 0 147.5 -58t31.5 -151q-17 -90 -119 -188z" />
    <glyph glyph-name="uni00B3" unicode="&#xb3;" horiz-adv-x="645" 
d="M709 1487q57 -18 86 -70.5t16 -122.5q-20 -98 -105 -158.5t-198 -60.5q-76 0 -131 39t-74 107l57 26q13 -53 56 -83.5t102 -30.5q88 0 153.5 44t78.5 115q13 73 -27.5 118.5t-114.5 45.5h-76l11 55h73q61 0 106.5 37t57.5 97q12 61 -24 99t-107 38q-46 0 -92 -23t-76 -59
l-37 33q37 47 97 76.5t121 29.5q97 0 145 -53t31 -139q-11 -54 -45 -97t-84 -63z" />
    <glyph glyph-name="acute" unicode="&#xb4;" horiz-adv-x="862" 
d="M479 1102l256 309h74l-268 -309h-62z" />
    <glyph glyph-name="uni00B5" unicode="&#xb5;" horiz-adv-x="1220" 
d="M391 956h64l-111 -563q-32 -161 42.5 -256.5t217.5 -95.5q148 0 265.5 90.5t160.5 278.5l107 546h61l-184 -956h-62l39 211q-41 -81 -110 -134.5t-141 -75t-148 -21.5q-106 0 -183.5 46t-111.5 130l-86 -439h-61z" />
    <glyph glyph-name="paragraph" unicode="&#xb6;" horiz-adv-x="1171" 
d="M516 -150l137 707q-195 0 -307.5 125t-77.5 303q34 177 183 301.5t327 124.5h103l-303 -1561h-62zM481 -324l13 62h71q65 0 111 48.5t59 117.5l295 1507h100q101 0 159 -72.5t38 -175.5l-24 -129h-60l25 129q15 77 -28.5 132t-119.5 55h-41l-282 -1446
q-19 -94 -87.5 -161t-156.5 -67h-72z" />
    <glyph glyph-name="periodcentered" unicode="&#xb7;" horiz-adv-x="440" 
d="M299 422q-26 0 -40.5 16t-10.5 41q4 26 25.5 43t48.5 17q28 0 43.5 -17t11.5 -43q-4 -24 -27 -40.5t-51 -16.5z" />
    <glyph glyph-name="cedilla" unicode="&#xb8;" horiz-adv-x="1021" 
d="M432 -399q-82 0 -122 54.5t-21 143.5h61q-6 -65 16.5 -101t75.5 -36q57 0 98.5 32.5t51.5 86.5q6 23 -2 53l-39 176h65l33 -153q11 -45 4 -78q-17 -80 -77.5 -129t-143.5 -49z" />
    <glyph glyph-name="uni00B9" unicode="&#xb9;" horiz-adv-x="409" 
d="M637 1839h4l-147 -754h-60l129 664l-174 -72l10 60z" />
    <glyph glyph-name="ordmasculine" unicode="&#xba;" horiz-adv-x="1114" 
d="M698 733q-168 0 -261.5 111.5t-59.5 290.5q34 177 170.5 287t304.5 110q169 0 263.5 -110t60.5 -287q-23 -119 -95.5 -211.5t-172.5 -141.5t-210 -49zM711 793q143 0 259 95t146 247q30 151 -50 243t-224 92t-259 -92t-145 -243q-30 -152 50 -247t223 -95zM291 594h760
l-11 -62h-759z" />
    <glyph glyph-name="guillemotright" unicode="&#xbb;" horiz-adv-x="811" 
d="M121 51l366 424l-198 424h73l199 -424l-364 -424h-76zM352 51l367 424l-199 424h74l199 -424l-365 -424h-76z" />
    <glyph glyph-name="onequarter" unicode="&#xbc;" horiz-adv-x="1370" 
d="M1278 1378h74l-1192 -1398h-74zM342 618l129 664l-176 -72l10 60l238 102h4l-146 -754h-59zM1348 217l-13 -59h-114l-29 -158h-59l28 158h-393l4 16l549 569h14l-102 -526h115zM881 217h293l75 383z" />
    <glyph glyph-name="onehalf" unicode="&#xbd;" horiz-adv-x="1386" 
d="M1278 1378h74l-1192 -1398h-74zM342 618l129 664l-176 -72l10 60l238 102h4l-146 -754h-59zM975 59h336l-11 -59h-442l4 25l371 360q89 86 104 160q12 68 -23.5 109.5t-105.5 41.5q-64 0 -115 -31.5t-71 -84.5l-53 12q29 75 97 118.5t153 43.5q97 0 147 -58t31 -151
q-17 -91 -119 -189z" />
    <glyph glyph-name="threequarters" unicode="&#xbe;" horiz-adv-x="1605" 
d="M1516 1378h73l-1192 -1398h-73zM719 827q-19 -97 -103.5 -158t-197.5 -61q-77 0 -132.5 39.5t-72.5 106.5l55 26q13 -53 57 -83.5t103 -30.5q87 0 151.5 44t77.5 115q13 73 -27 118.5t-114 45.5h-76l13 55h73q61 0 105.5 37t56.5 97q12 62 -23.5 99.5t-105.5 37.5
q-46 0 -93 -23t-77 -59l-35 33q35 47 95.5 76.5t121.5 29.5q97 0 145.5 -53t31.5 -139q-11 -53 -46.5 -96.5t-85.5 -63.5q58 -18 87 -70t16 -123zM1585 217l-12 -59h-115l-31 -158h-59l31 158h-393l4 16l549 569h14l-103 -526h115zM1118 217h293l74 383z" />
    <glyph glyph-name="questiondown" unicode="&#xbf;" horiz-adv-x="919" 
d="M788 977q26 0 41 -16t11 -41q-4 -26 -25.5 -43t-48.5 -17q-28 0 -43.5 17t-11.5 43q4 25 26.5 41t50.5 16zM756 651l-29 -147q-22 -109 -73 -168t-136 -92l-110 -37q-108 -33 -190.5 -113.5t-104.5 -193.5q-27 -140 56 -228t220 -88q125 0 229.5 74t141.5 199h61
q-45 -153 -169 -243.5t-275 -90.5q-78 0 -145 27t-113 75t-65 120t-3 155q27 136 124.5 233.5t225.5 132.5q46 13 77 24t65 29.5t56 42t40 59.5t27 83l28 147h62z" />
    <glyph glyph-name="Agrave" unicode="&#xc0;" horiz-adv-x="1198" 
d="M952 1556h-61l-146 310h74zM1106 0l-74 393h-713l-227 -393h-65l815 1411h65l264 -1411h-65zM350 449h670l-162 876z" />
    <glyph glyph-name="Aacute" unicode="&#xc1;" horiz-adv-x="1198" 
d="M1196 1866l-268 -310h-62l256 310h74zM1106 0l-74 393h-713l-227 -393h-65l815 1411h65l264 -1411h-65zM350 449h670l-162 876z" />
    <glyph glyph-name="Acircumflex" unicode="&#xc2;" horiz-adv-x="1198" 
d="M952 1810l-262 -254h-61l295 310h77l177 -310h-62zM1106 0l-74 393h-713l-227 -393h-65l815 1411h65l264 -1411h-65zM350 449h670l-162 876z" />
    <glyph glyph-name="Atilde" unicode="&#xc3;" horiz-adv-x="1198" 
d="M829 1712q-32 0 -57.5 -28t-36.5 -74h-61q15 70 62 113.5t106 43.5q28 0 50 -11.5t36.5 -28.5t27.5 -34t29.5 -28.5t36.5 -11.5q32 0 59 28t37 74h62q-17 -70 -64 -114t-106 -44q-33 0 -60 18t-42.5 39.5t-36 39.5t-42.5 18zM1106 0l-74 393h-713l-227 -393h-65l815 1411
h65l264 -1411h-65zM350 449h670l-162 876z" />
    <glyph glyph-name="Adieresis" unicode="&#xc4;" horiz-adv-x="1198" 
d="M780 1669q-27 0 -42 16.5t-11 40.5q4 26 26.5 43t49.5 17q28 0 43 -17t10 -43q-4 -25 -26 -41t-50 -16zM1067 1669q-27 0 -42 16.5t-11 40.5q4 26 26.5 43t49.5 17q28 0 43 -17t10 -43q-4 -25 -26 -41t-50 -16zM1106 0l-74 393h-713l-227 -393h-65l815 1411h65l264 -1411
h-65zM350 449h670l-162 876z" />
    <glyph glyph-name="Aring" unicode="&#xc5;" horiz-adv-x="1198" 
d="M903 1575q-69 0 -108.5 49t-26.5 119q14 71 73 121.5t128 50.5q71 0 111 -50.5t26 -121.5t-72.5 -119.5t-130.5 -48.5zM958 1860q-46 0 -86 -34t-49 -83q-9 -47 17.5 -80t72.5 -33q49 0 89 33t49 80q9 50 -17.5 83.5t-75.5 33.5zM1106 0l-74 393h-713l-227 -393h-65
l815 1411h65l264 -1411h-65zM350 449h670l-162 876z" />
    <glyph glyph-name="AE" unicode="&#xc6;" horiz-adv-x="1925" 
d="M1096 61h729l-10 -61h-791l78 399h-715l-340 -399h-74l1205 1411h886l-12 -61h-704l-121 -627h616l-14 -61h-617zM438 461h674l174 889h-90z" />
    <glyph glyph-name="Ccedilla" unicode="&#xc7;" horiz-adv-x="1353" 
d="M1266 199l30 -45q-224 -171 -479 -174l29 -123q11 -45 4 -78q-17 -80 -78.5 -129t-144.5 -49q-82 0 -122.5 54.5t-21.5 143.5h62q-6 -65 17.5 -101t76.5 -36q57 0 96.5 32.5t50.5 86.5q7 27 0 53l-34 148q-105 9 -195 49.5t-154.5 106.5t-107 154t-52 191.5t10.5 218.5
q29 148 109.5 282t192.5 231t252.5 154.5t283.5 57.5q130 0 238 -46.5t183 -129.5l-49 -45q-69 75 -168.5 117.5t-218.5 42.5q-130 0 -258 -52.5t-230 -141.5t-175 -212t-99 -258q-35 -180 19.5 -332t182.5 -240.5t302 -88.5q239 0 447 158z" />
    <glyph glyph-name="Egrave" unicode="&#xc8;" horiz-adv-x="1126" 
d="M922 1556h-62l-145 310h73zM297 61h729l-10 -61h-791l275 1411h766l-13 -61h-704l-121 -627h616l-14 -61h-616z" />
    <glyph glyph-name="Eacute" unicode="&#xc9;" horiz-adv-x="1126" 
d="M1165 1866l-268 -310h-61l256 310h73zM297 61h729l-10 -61h-791l275 1411h766l-13 -61h-704l-121 -627h616l-14 -61h-616z" />
    <glyph glyph-name="Ecircumflex" unicode="&#xca;" horiz-adv-x="1126" 
d="M922 1810l-263 -254h-61l295 310h78l176 -310h-62zM297 61h729l-10 -61h-791l275 1411h766l-13 -61h-704l-121 -627h616l-14 -61h-616z" />
    <glyph glyph-name="Edieresis" unicode="&#xcb;" horiz-adv-x="1126" 
d="M750 1669q-27 0 -42.5 16.5t-11.5 40.5q4 26 26.5 43t49.5 17q28 0 43 -17t10 -43q-4 -25 -25.5 -41t-49.5 -16zM1036 1669q-27 0 -42 16.5t-11 40.5q4 26 26.5 43t49.5 17q28 0 43 -17t10 -43q-4 -25 -26 -41t-50 -16zM297 61h729l-10 -61h-791l275 1411h766l-13 -61
h-704l-121 -627h616l-14 -61h-616z" />
    <glyph glyph-name="Igrave" unicode="&#xcc;" horiz-adv-x="512" 
d="M547 1556l-146 310h74l133 -310h-61zM225 0l275 1411h61l-274 -1411h-62z" />
    <glyph glyph-name="Iacute" unicode="&#xcd;" horiz-adv-x="512" 
d="M522 1556l256 310h74l-268 -310h-62zM225 0l275 1411h61l-274 -1411h-62z" />
    <glyph glyph-name="Icircumflex" unicode="&#xce;" horiz-adv-x="512" 
d="M285 1556l295 310h77l177 -310h-62l-164 254l-262 -254h-61zM225 0l275 1411h61l-274 -1411h-62z" />
    <glyph glyph-name="Idieresis" unicode="&#xcf;" horiz-adv-x="512" 
d="M436 1669q-27 0 -42 16.5t-11 40.5q4 26 26.5 43t49.5 17q28 0 43 -17t10 -43q-4 -25 -26 -41t-50 -16zM723 1669q-27 0 -42 16.5t-11 40.5q4 26 26 43t49 17q28 0 43 -17t11 -43q-4 -25 -26 -41t-50 -16zM225 0l275 1411h61l-274 -1411h-62z" />
    <glyph glyph-name="Eth" unicode="&#xd0;" horiz-adv-x="1497" 
d="M1028 1411q192 0 315.5 -94t163 -253.5t0.5 -361.5q-29 -150 -95.5 -278t-161.5 -222.5t-223 -148t-273 -53.5h-521l129 666h-169l12 57h170l133 688h520zM764 61q131 0 246.5 49t202 135t147 203t86.5 254q35 185 0 330.5t-146 231.5t-284 86h-459l-121 -627h459
l-12 -57h-459l-119 -605h459z" />
    <glyph glyph-name="Ntilde" unicode="&#xd1;" horiz-adv-x="1419" 
d="M940 1712q-32 0 -57.5 -28t-36.5 -74h-62q15 70 62 113.5t106 43.5q34 0 60.5 -18t40.5 -39t35 -39t45 -18q32 0 59 28t37 74h61q-17 -70 -64 -114t-106 -44q-33 0 -60 18t-42 39.5t-35.5 39.5t-42.5 18zM1407 1411h61l-274 -1411h-78l-573 1319l-256 -1319h-62l275 1411
h78l569 -1325z" />
    <glyph glyph-name="Ograve" unicode="&#xd2;" horiz-adv-x="1656" 
d="M1118 1556l-143 310h74l131 -310h-62zM821 -20q-195 0 -339 96.5t-205 262.5t-23 363q38 198 164.5 364.5t308.5 263.5t377 97q196 0 340.5 -97t205.5 -263.5t23 -364.5q-29 -147 -110.5 -280.5t-195 -230.5t-256.5 -154t-290 -57zM834 41q179 0 346 88.5t282 240.5
t150 332q35 181 -21 333.5t-188 241.5t-311 89q-178 0 -344.5 -89t-282.5 -241.5t-150 -333.5q-35 -180 21.5 -332t188 -240.5t309.5 -88.5z" />
    <glyph glyph-name="Oacute" unicode="&#xd3;" horiz-adv-x="1656" 
d="M1094 1556l258 310h73l-270 -310h-61zM821 -20q-195 0 -339 96.5t-205 262.5t-23 363q38 198 164.5 364.5t308.5 263.5t377 97q196 0 340.5 -97t205.5 -263.5t23 -364.5q-29 -147 -110.5 -280.5t-195 -230.5t-256.5 -154t-290 -57zM834 41q179 0 346 88.5t282 240.5
t150 332q35 181 -21 333.5t-188 241.5t-311 89q-178 0 -344.5 -89t-282.5 -241.5t-150 -333.5q-35 -180 21.5 -332t188 -240.5t309.5 -88.5z" />
    <glyph glyph-name="Ocircumflex" unicode="&#xd4;" horiz-adv-x="1656" 
d="M856 1556l297 310h78l174 -310h-62l-163 254l-262 -254h-62zM821 -20q-195 0 -339 96.5t-205 262.5t-23 363q38 198 164.5 364.5t308.5 263.5t377 97q196 0 340.5 -97t205.5 -263.5t23 -364.5q-29 -147 -110.5 -280.5t-195 -230.5t-256.5 -154t-290 -57zM834 41
q179 0 346 88.5t282 240.5t150 332q35 181 -21 333.5t-188 241.5t-311 89q-178 0 -344.5 -89t-282.5 -241.5t-150 -333.5q-35 -180 21.5 -332t188 -240.5t309.5 -88.5z" />
    <glyph glyph-name="Otilde" unicode="&#xd5;" horiz-adv-x="1656" 
d="M903 1610q15 70 62 113.5t106 43.5q34 0 60 -18t39.5 -39t34 -39t44.5 -18q32 0 59.5 28t39.5 74h61q-19 -71 -65.5 -114.5t-104.5 -43.5q-33 0 -60 18t-42 39.5t-35.5 39.5t-42.5 18q-32 0 -58.5 -28.5t-35.5 -73.5h-62zM821 -20q-195 0 -339 96.5t-205 262.5t-23 363
q38 198 164.5 364.5t308.5 263.5t377 97q196 0 340.5 -97t205.5 -263.5t23 -364.5q-29 -147 -110.5 -280.5t-195 -230.5t-256.5 -154t-290 -57zM834 41q179 0 346 88.5t282 240.5t150 332q35 181 -21 333.5t-188 241.5t-311 89q-178 0 -344.5 -89t-282.5 -241.5t-150 -333.5
q-35 -180 21.5 -332t188 -240.5t309.5 -88.5z" />
    <glyph glyph-name="Odieresis" unicode="&#xd6;" horiz-adv-x="1656" 
d="M1008 1669q-26 0 -41 16t-11 41q4 26 25.5 43t48.5 17q28 0 43.5 -17t11.5 -43q-4 -25 -26.5 -41t-50.5 -16zM1294 1669q-26 0 -40.5 16t-10.5 41q4 26 25.5 43t48.5 17q28 0 43.5 -17t11.5 -43q-4 -24 -27 -40.5t-51 -16.5zM821 -20q-195 0 -339 96.5t-205 262.5
t-23 363q38 198 164.5 364.5t308.5 263.5t377 97q196 0 340.5 -97t205.5 -263.5t23 -364.5q-29 -147 -110.5 -280.5t-195 -230.5t-256.5 -154t-290 -57zM834 41q179 0 346 88.5t282 240.5t150 332q35 181 -21 333.5t-188 241.5t-311 89q-178 0 -344.5 -89t-282.5 -241.5
t-150 -333.5q-35 -180 21.5 -332t188 -240.5t309.5 -88.5z" />
    <glyph glyph-name="multiply" unicode="&#xd7;" horiz-adv-x="927" 
d="M827 291l-53 -43l-211 264l-315 -262l-33 43l313 262l-209 260l52 43l209 -260l313 262l35 -43l-314 -262z" />
    <glyph glyph-name="Oslash" unicode="&#xd8;" horiz-adv-x="1669" 
d="M1819 1384l-228 -192q69 -98 92 -223t-4 -269q-38 -197 -164.5 -363t-309 -263t-378.5 -97q-277 0 -444 191l-227 -191l-33 43l227 193q-69 99 -92.5 221.5t2.5 265.5q38 198 164.5 364.5t308.5 263.5t377 97q140 0 256 -50t193 -142l225 192zM322 700q-50 -257 79 -444
l1104 934q-150 174 -405 174q-178 0 -345 -89t-283 -241.5t-150 -333.5zM1618 700q23 131 2.5 243t-80.5 204l-1104 -934q68 -82 174 -128t232 -46q134 0 264.5 52.5t233.5 141t177 210.5t101 257z" />
    <glyph glyph-name="Ugrave" unicode="&#xd9;" horiz-adv-x="1388" 
d="M985 1556l-143 310h73l132 -310h-62zM690 -23q-99 0 -181.5 34.5t-136 98.5t-75.5 153.5t0 199.5l184 948h62l-185 -948q-36 -188 64.5 -306t279.5 -118t325.5 118t182.5 306l185 948h61l-184 -948q-42 -215 -210 -350.5t-372 -135.5z" />
    <glyph glyph-name="Uacute" unicode="&#xda;" horiz-adv-x="1388" 
d="M961 1556l258 310h73l-270 -310h-61zM690 -23q-99 0 -181.5 34.5t-136 98.5t-75.5 153.5t0 199.5l184 948h62l-185 -948q-36 -188 64.5 -306t279.5 -118t325.5 118t182.5 306l185 948h61l-184 -948q-42 -215 -210 -350.5t-372 -135.5z" />
    <glyph glyph-name="Ucircumflex" unicode="&#xdb;" horiz-adv-x="1388" 
d="M723 1556l297 310h78l174 -310h-62l-163 254l-263 -254h-61zM690 -23q-99 0 -181.5 34.5t-136 98.5t-75.5 153.5t0 199.5l184 948h62l-185 -948q-36 -188 64.5 -306t279.5 -118t325.5 118t182.5 306l185 948h61l-184 -948q-42 -215 -210 -350.5t-372 -135.5z" />
    <glyph glyph-name="Udieresis" unicode="&#xdc;" horiz-adv-x="1388" 
d="M874 1669q-26 0 -40.5 16t-10.5 41q4 26 25.5 43t48.5 17q28 0 43.5 -17t11.5 -43q-4 -24 -27 -40.5t-51 -16.5zM1161 1669q-26 0 -40.5 16t-10.5 41q4 26 25.5 43t48.5 17q28 0 43.5 -17t11.5 -43q-4 -24 -27 -40.5t-51 -16.5zM690 -23q-99 0 -181.5 34.5t-136 98.5
t-75.5 153.5t0 199.5l184 948h62l-185 -948q-36 -188 64.5 -306t279.5 -118t325.5 118t182.5 306l185 948h61l-184 -948q-42 -215 -210 -350.5t-372 -135.5z" />
    <glyph glyph-name="Yacute" unicode="&#xdd;" horiz-adv-x="1165" 
d="M1180 1866l-269 -310h-61l256 310h74zM1343 1411h74l-674 -735l-131 -676h-61l131 678l-383 733h74l352 -678z" />
    <glyph glyph-name="Thorn" unicode="&#xde;" horiz-adv-x="1185" 
d="M895 1118q173 0 266.5 -112.5t57.5 -294.5q-36 -184 -175 -300t-311 -116h-391l-55 -295h-62l275 1411h61l-57 -293h391zM745 356q145 0 263.5 99t148.5 256q30 155 -49 250.5t-225 95.5h-391l-138 -701h391z" />
    <glyph glyph-name="germandbls" unicode="&#xdf;" horiz-adv-x="1183" 
d="M918 860q95 -12 158 -78t83 -158.5t0 -191.5q-18 -90 -65 -171t-116 -143.5t-164 -99t-202 -36.5q-108 -3 -202 43l32 57q92 -42 181 -39q187 0 314.5 113.5t162.5 289.5q22 160 -61 270.5t-244 110.5h-70l12 60h70q115 0 206 83t113 199q7 46 4 89t-23.5 81t-52 67
t-81.5 45.5t-113 16.5q-158 0 -265.5 -101t-141.5 -275l-213 -1092h-62l213 1092q40 203 169 320.5t312 117.5q74 0 134 -20.5t97 -55.5t62 -81t28 -98t-5 -106q-21 -105 -98.5 -198t-171.5 -111z" />
    <glyph glyph-name="agrave" unicode="&#xe0;" horiz-adv-x="1282" 
d="M903 1102h-61l-144 309h74zM1229 956h61l-186 -956h-62l45 236q-88 -116 -218.5 -186t-270.5 -70q-135 0 -236 66.5t-145 181.5t-18 251q26 135 115 249.5t216.5 181.5t262.5 67q140 0 243.5 -70t145.5 -186zM610 41q119 0 230 54.5t190 153.5t103 220q25 128 -14.5 231
t-128.5 159t-208 56q-118 0 -230 -58.5t-190.5 -159t-101.5 -218.5q-35 -181 67.5 -309.5t282.5 -128.5z" />
    <glyph glyph-name="aacute" unicode="&#xe1;" horiz-adv-x="1282" 
d="M1149 1411l-270 -309h-62l258 309h74zM1229 956h61l-186 -956h-62l45 236q-88 -116 -218.5 -186t-270.5 -70q-135 0 -236 66.5t-145 181.5t-18 251q26 135 115 249.5t216.5 181.5t262.5 67q140 0 243.5 -70t145.5 -186zM610 41q119 0 230 54.5t190 153.5t103 220
q25 128 -14.5 231t-128.5 159t-208 56q-118 0 -230 -58.5t-190.5 -159t-101.5 -218.5q-35 -181 67.5 -309.5t282.5 -128.5z" />
    <glyph glyph-name="acircumflex" unicode="&#xe2;" horiz-adv-x="1282" 
d="M903 1356l-262 -254h-61l297 309h77l174 -309h-61zM1229 956h61l-186 -956h-62l45 236q-88 -116 -218.5 -186t-270.5 -70q-135 0 -236 66.5t-145 181.5t-18 251q26 135 115 249.5t216.5 181.5t262.5 67q140 0 243.5 -70t145.5 -186zM610 41q119 0 230 54.5t190 153.5
t103 220q25 128 -14.5 231t-128.5 159t-208 56q-118 0 -230 -58.5t-190.5 -159t-101.5 -218.5q-35 -181 67.5 -309.5t282.5 -128.5z" />
    <glyph glyph-name="atilde" unicode="&#xe3;" horiz-adv-x="1282" 
d="M782 1257q-32 0 -59 -28t-37 -74h-61q17 70 64 114t106 44q28 0 50 -12t36.5 -28.5t27.5 -33.5t29.5 -29t36.5 -12q32 0 57.5 28t36.5 74h61q-17 -71 -63 -114t-104 -43q-33 0 -60 18t-42.5 39t-36 39t-42.5 18zM1229 956h61l-186 -956h-62l45 236q-88 -116 -218.5 -186
t-270.5 -70q-135 0 -236 66.5t-145 181.5t-18 251q26 135 115 249.5t216.5 181.5t262.5 67q140 0 243.5 -70t145.5 -186zM610 41q119 0 230 54.5t190 153.5t103 220q25 128 -14.5 231t-128.5 159t-208 56q-118 0 -230 -58.5t-190.5 -159t-101.5 -218.5q-35 -181 67.5 -309.5
t282.5 -128.5z" />
    <glyph glyph-name="adieresis" unicode="&#xe4;" horiz-adv-x="1282" 
d="M731 1214q-26 0 -41.5 16.5t-11.5 41.5q4 26 26.5 42.5t49.5 16.5q28 0 42.5 -16.5t10.5 -42.5q-4 -25 -26 -41.5t-50 -16.5zM1018 1214q-26 0 -41.5 16.5t-11.5 41.5q4 26 26 42.5t49 16.5q28 0 43 -16.5t11 -42.5q-4 -25 -26 -41.5t-50 -16.5zM1229 956h61l-186 -956
h-62l45 236q-88 -116 -218.5 -186t-270.5 -70q-135 0 -236 66.5t-145 181.5t-18 251q26 135 115 249.5t216.5 181.5t262.5 67q140 0 243.5 -70t145.5 -186zM610 41q119 0 230 54.5t190 153.5t103 220q25 128 -14.5 231t-128.5 159t-208 56q-118 0 -230 -58.5t-190.5 -159
t-101.5 -218.5q-35 -181 67.5 -309.5t282.5 -128.5z" />
    <glyph glyph-name="aring" unicode="&#xe5;" horiz-adv-x="1282" 
d="M854 1120q-69 0 -107.5 49t-25.5 119q14 71 72 121.5t127 50.5q72 0 112.5 -50.5t26.5 -121.5q-13 -70 -73 -119t-132 -49zM909 1405q-46 0 -85 -34t-48 -83q-9 -47 17.5 -79.5t72.5 -32.5q49 0 89 32.5t49 79.5q9 50 -18.5 83.5t-76.5 33.5zM1229 956h61l-186 -956h-62
l45 236q-88 -116 -218.5 -186t-270.5 -70q-135 0 -236 66.5t-145 181.5t-18 251q26 135 115 249.5t216.5 181.5t262.5 67q140 0 243.5 -70t145.5 -186zM610 41q119 0 230 54.5t190 153.5t103 220q25 128 -14.5 231t-128.5 159t-208 56q-118 0 -230 -58.5t-190.5 -159
t-101.5 -218.5q-35 -181 67.5 -309.5t282.5 -128.5z" />
    <glyph glyph-name="ae" unicode="&#xe6;" horiz-adv-x="1921" 
d="M1917 481l-6 -26h-885q-23 -188 69 -301t269 -113q113 0 217 51.5t180 143.5l47 -33q-87 -105 -206.5 -164t-249.5 -59q-140 0 -241 67.5t-138 185.5q-259 -256 -553 -256q-151 0 -228.5 74t-54.5 195q25 126 143 203t285 77q94 0 203.5 -24t192.5 -64l30 150
q66 327 -307 327q-97 0 -175.5 -28.5t-156.5 -89.5l-30 45q152 135 391 135q165 0 254.5 -67.5t95.5 -198.5q79 124 208.5 195t274.5 71q135 0 230.5 -61t134 -175t6.5 -260zM1036 510h824q28 184 -62 294.5t-262 110.5q-178 0 -314.5 -108t-185.5 -297zM424 39
q138 0 289.5 75.5t242.5 180.5l-8 80q-81 40 -189 65t-208 25q-138 0 -234 -59t-116 -156q-19 -95 42.5 -153t180.5 -58z" />
    <glyph glyph-name="ccedilla" unicode="&#xe7;" horiz-adv-x="1007" 
d="M657 -18l27 -125q8 -49 2 -78q-17 -80 -77.5 -129t-143.5 -49q-82 0 -122 54.5t-21 143.5h61q-6 -65 16.5 -101t75.5 -36q57 0 98.5 32.5t51.5 86.5q6 23 -2 53l-35 146q-203 3 -316.5 142.5t-70.5 358.5q29 147 119 261t214.5 174.5t260.5 60.5q168 0 290 -103l-43 -49
q-112 90 -258 90q-120 0 -229.5 -52.5t-188.5 -152.5t-104 -229q-37 -196 64.5 -318t285.5 -122q154 0 293 90l29 -49q-133 -85 -277 -100z" />
    <glyph glyph-name="egrave" unicode="&#xe8;" horiz-adv-x="1155" 
d="M838 1102h-62l-145 309h74zM1151 481l-6 -26h-885q-25 -186 68 -300t270 -114q113 0 217 51.5t180 143.5l47 -33q-87 -105 -206.5 -164t-249.5 -59q-205 0 -315.5 139t-67.5 362q29 147 115.5 261t207 174.5t254.5 60.5q135 0 230.5 -61t134 -175t6.5 -260zM270 510h824
q28 184 -62 294.5t-262 110.5q-174 0 -312 -109.5t-188 -295.5z" />
    <glyph glyph-name="eacute" unicode="&#xe9;" horiz-adv-x="1155" 
d="M1081 1411l-268 -309h-61l256 309h73zM1151 481l-6 -26h-885q-25 -186 68 -300t270 -114q113 0 217 51.5t180 143.5l47 -33q-87 -105 -206.5 -164t-249.5 -59q-205 0 -315.5 139t-67.5 362q29 147 115.5 261t207 174.5t254.5 60.5q135 0 230.5 -61t134 -175t6.5 -260z
M270 510h824q28 184 -62 294.5t-262 110.5q-174 0 -312 -109.5t-188 -295.5z" />
    <glyph glyph-name="ecircumflex" unicode="&#xea;" horiz-adv-x="1155" 
d="M838 1356l-263 -254h-61l295 309h78l176 -309h-62zM1151 481l-6 -26h-885q-25 -186 68 -300t270 -114q113 0 217 51.5t180 143.5l47 -33q-87 -105 -206.5 -164t-249.5 -59q-205 0 -315.5 139t-67.5 362q29 147 115.5 261t207 174.5t254.5 60.5q135 0 230.5 -61t134 -175
t6.5 -260zM270 510h824q28 184 -62 294.5t-262 110.5q-174 0 -312 -109.5t-188 -295.5z" />
    <glyph glyph-name="edieresis" unicode="&#xeb;" horiz-adv-x="1155" 
d="M666 1214q-27 0 -42.5 17t-11.5 41q4 26 26.5 42.5t49.5 16.5q28 0 42.5 -16.5t10.5 -42.5q-5 -25 -26 -41.5t-49 -16.5zM952 1214q-26 0 -41.5 16.5t-11.5 41.5q4 26 26.5 42.5t49.5 16.5q28 0 42.5 -16.5t10.5 -42.5q-4 -25 -26 -41.5t-50 -16.5zM1151 481l-6 -26h-885
q-25 -186 68 -300t270 -114q113 0 217 51.5t180 143.5l47 -33q-87 -105 -206.5 -164t-249.5 -59q-205 0 -315.5 139t-67.5 362q29 147 115.5 261t207 174.5t254.5 60.5q135 0 230.5 -61t134 -175t6.5 -260zM270 510h824q28 184 -62 294.5t-262 110.5q-174 0 -312 -109.5
t-188 -295.5z" />
    <glyph glyph-name="igrave" unicode="&#xec;" horiz-adv-x="417" 
d="M389 1102l-145 309h73l134 -309h-62zM178 0l187 956h61l-186 -956h-62z" />
    <glyph glyph-name="iacute" unicode="&#xed;" horiz-adv-x="417" 
d="M393 1102l256 309h74l-268 -309h-62zM178 0l187 956h61l-186 -956h-62z" />
    <glyph glyph-name="icircumflex" unicode="&#xee;" horiz-adv-x="417" 
d="M150 1102l294 309h78l176 -309h-61l-164 254l-262 -254h-61zM178 0l187 956h61l-186 -956h-62z" />
    <glyph glyph-name="idieresis" unicode="&#xef;" horiz-adv-x="417" 
d="M303 1214q-27 0 -43 17t-12 41q4 25 27.5 42t50.5 17q28 0 42 -16.5t9 -42.5q-5 -25 -25.5 -41.5t-48.5 -16.5zM590 1214q-27 0 -43 17t-12 41q4 26 27 42.5t50 16.5q28 0 42.5 -16.5t9.5 -42.5q-5 -25 -25.5 -41.5t-48.5 -16.5zM178 0l187 956h61l-186 -956h-62z" />
    <glyph glyph-name="eth" unicode="&#xf0;" horiz-adv-x="1218" 
d="M1147 811q90 -134 51 -330q-29 -148 -119.5 -264t-215.5 -176.5t-261 -60.5q-102 0 -186.5 35.5t-139 100.5t-76.5 158t1 207q29 148 119 262t215 174t262 60q107 0 188 -35l-186 309l-285 -106l-12 49l270 102l-133 224h76l121 -201l215 80l10 -49l-197 -74zM614 41
q120 0 230.5 53.5t190 155t104.5 231.5q37 195 -65.5 314.5t-287.5 119.5q-121 0 -231 -52t-189 -152.5t-104 -229.5q-37 -197 64.5 -318.5t287.5 -121.5z" />
    <glyph glyph-name="ntilde" unicode="&#xf1;" horiz-adv-x="1148" 
d="M717 1257q-32 0 -58 -28t-38 -74h-62q17 70 64 114t106 44q28 0 50 -12t36.5 -28.5t27.5 -33.5t29.5 -29t36.5 -12q32 0 58 28t37 74h61q-15 -70 -62 -113.5t-106 -43.5q-33 0 -60 18t-42 39t-35.5 39t-42.5 18zM784 977q170 0 258 -112t52 -302l-109 -563h-61l108 563
q32 161 -42.5 256.5t-217.5 95.5q-70 0 -134.5 -20.5t-123.5 -62.5t-103.5 -115t-66.5 -170l-104 -547h-62l187 956h61l-41 -211q42 81 111.5 135t141 75.5t146.5 21.5z" />
    <glyph glyph-name="ograve" unicode="&#xf2;" horiz-adv-x="1216" 
d="M809 1102l-145 309h73l133 -309h-61zM602 -20q-102 0 -186.5 35.5t-139 100.5t-76.5 158t1 207q29 148 119 262t215 174t262 60q102 0 186 -35t139.5 -99.5t77.5 -156t0 -205.5q-29 -148 -120 -264t-216.5 -176.5t-261.5 -60.5zM614 41q120 0 230.5 53.5t190 155
t104.5 231.5q37 195 -65.5 314.5t-287.5 119.5q-121 0 -231 -52t-189 -152.5t-104 -229.5q-37 -197 64.5 -318.5t287.5 -121.5z" />
    <glyph glyph-name="oacute" unicode="&#xf3;" horiz-adv-x="1216" 
d="M784 1102l256 309h74l-268 -309h-62zM602 -20q-102 0 -186.5 35.5t-139 100.5t-76.5 158t1 207q29 148 119 262t215 174t262 60q102 0 186 -35t139.5 -99.5t77.5 -156t0 -205.5q-29 -148 -120 -264t-216.5 -176.5t-261.5 -60.5zM614 41q120 0 230.5 53.5t190 155
t104.5 231.5q37 195 -65.5 314.5t-287.5 119.5q-121 0 -231 -52t-189 -152.5t-104 -229.5q-37 -197 64.5 -318.5t287.5 -121.5z" />
    <glyph glyph-name="ocircumflex" unicode="&#xf4;" horiz-adv-x="1216" 
d="M547 1102l295 309h78l176 -309h-62l-164 254l-262 -254h-61zM602 -20q-102 0 -186.5 35.5t-139 100.5t-76.5 158t1 207q29 148 119 262t215 174t262 60q102 0 186 -35t139.5 -99.5t77.5 -156t0 -205.5q-29 -148 -120 -264t-216.5 -176.5t-261.5 -60.5zM614 41
q120 0 230.5 53.5t190 155t104.5 231.5q37 195 -65.5 314.5t-287.5 119.5q-121 0 -231 -52t-189 -152.5t-104 -229.5q-37 -197 64.5 -318.5t287.5 -121.5z" />
    <glyph glyph-name="otilde" unicode="&#xf5;" horiz-adv-x="1216" 
d="M592 1155q17 71 63.5 114.5t104.5 43.5q28 0 50 -12t36.5 -28.5t27.5 -33.5t29.5 -29t36.5 -12q32 0 58.5 28.5t35.5 73.5h62q-15 -70 -61 -113.5t-105 -43.5q-33 0 -60 18t-42 39t-35.5 39t-42.5 18q-32 0 -59.5 -28t-37.5 -74h-61zM602 -20q-102 0 -186.5 35.5
t-139 100.5t-76.5 158t1 207q29 148 119 262t215 174t262 60q102 0 186 -35t139.5 -99.5t77.5 -156t0 -205.5q-29 -148 -120 -264t-216.5 -176.5t-261.5 -60.5zM614 41q120 0 230.5 53.5t190 155t104.5 231.5q37 195 -65.5 314.5t-287.5 119.5q-121 0 -231 -52t-189 -152.5
t-104 -229.5q-37 -197 64.5 -318.5t287.5 -121.5z" />
    <glyph glyph-name="odieresis" unicode="&#xf6;" horiz-adv-x="1216" 
d="M698 1214q-26 0 -41.5 16.5t-11.5 41.5q4 26 26.5 42.5t49.5 16.5q28 0 42.5 -16.5t10.5 -42.5q-4 -25 -26 -41.5t-50 -16.5zM985 1214q-26 0 -41.5 16.5t-11.5 41.5q4 26 26.5 42.5t49.5 16.5q28 0 42.5 -16.5t10.5 -42.5q-4 -25 -26 -41.5t-50 -16.5zM602 -20
q-102 0 -186.5 35.5t-139 100.5t-76.5 158t1 207q29 148 119 262t215 174t262 60q102 0 186 -35t139.5 -99.5t77.5 -156t0 -205.5q-29 -148 -120 -264t-216.5 -176.5t-261.5 -60.5zM614 41q120 0 230.5 53.5t190 155t104.5 231.5q37 195 -65.5 314.5t-287.5 119.5
q-121 0 -231 -52t-189 -152.5t-104 -229.5q-37 -197 64.5 -318.5t287.5 -121.5z" />
    <glyph glyph-name="divide" unicode="&#xf7;" horiz-adv-x="1169" 
d="M729 754q-26 0 -40.5 16t-10.5 41q4 26 25.5 42.5t48.5 16.5q28 0 43.5 -16.5t11.5 -42.5q-4 -24 -27 -40.5t-51 -16.5zM246 428l10 61h842l-11 -61h-841zM590 39q-27 0 -42 16.5t-11 40.5q4 26 26 43t49 17q28 0 43 -17t11 -43q-4 -25 -26 -41t-50 -16z" />
    <glyph glyph-name="oslash" unicode="&#xf8;" horiz-adv-x="1224" 
d="M1147 817q97 -133 57 -336q-29 -148 -120 -264t-216.5 -176.5t-261.5 -60.5q-194 0 -311 120l-143 -120l-33 43l141 120q-95 135 -55 338q29 147 119.5 261.5t216 174.5t262.5 60q188 0 311 -117l143 121l35 -41zM266 481q-33 -172 49 -295l746 629q-95 100 -270 100
q-121 0 -231.5 -52t-189.5 -152.5t-104 -229.5zM621 41q120 0 229.5 53.5t188.5 155t104 231.5q34 176 -47 293l-748 -631q102 -102 273 -102z" />
    <glyph glyph-name="ugrave" unicode="&#xf9;" horiz-adv-x="1148" 
d="M840 1102h-62l-145 309h74zM1096 956h61l-186 -956h-62l39 211q-60 -118 -170 -174.5t-229 -56.5q-170 0 -258 112t-51 301l110 563h62l-111 -563q-32 -161 43.5 -256.5t218.5 -95.5q148 0 265.5 90.5t160.5 278.5z" />
    <glyph glyph-name="uacute" unicode="&#xfa;" horiz-adv-x="1148" 
d="M1083 1411l-268 -309h-61l256 309h73zM1096 956h61l-186 -956h-62l39 211q-60 -118 -170 -174.5t-229 -56.5q-170 0 -258 112t-51 301l110 563h62l-111 -563q-32 -161 43.5 -256.5t218.5 -95.5q148 0 265.5 90.5t160.5 278.5z" />
    <glyph glyph-name="ucircumflex" unicode="&#xfb;" horiz-adv-x="1148" 
d="M840 1356l-262 -254h-62l295 309h78l176 -309h-61zM1096 956h61l-186 -956h-62l39 211q-60 -118 -170 -174.5t-229 -56.5q-170 0 -258 112t-51 301l110 563h62l-111 -563q-32 -161 43.5 -256.5t218.5 -95.5q148 0 265.5 90.5t160.5 278.5z" />
    <glyph glyph-name="udieresis" unicode="&#xfc;" horiz-adv-x="1148" 
d="M668 1214q-27 0 -43.5 17t-12.5 41q4 25 27.5 42t50.5 17q28 0 42 -16.5t9 -42.5q-5 -25 -25.5 -41.5t-47.5 -16.5zM954 1214q-27 0 -43 17t-12 41q4 25 27.5 42t50.5 17q28 0 42 -16.5t9 -42.5q-5 -25 -25.5 -41.5t-48.5 -16.5zM1096 956h61l-186 -956h-62l39 211
q-60 -118 -170 -174.5t-229 -56.5q-170 0 -258 112t-51 301l110 563h62l-111 -563q-32 -161 43.5 -256.5t218.5 -95.5q148 0 265.5 90.5t160.5 278.5z" />
    <glyph glyph-name="yacute" unicode="&#xfd;" horiz-adv-x="1009" 
d="M1016 1411l-268 -309h-62l256 309h74zM1075 956h68l-887 -1419h-68l279 453l-219 966h67l203 -893z" />
    <glyph glyph-name="thorn" unicode="&#xfe;" horiz-adv-x="1282" 
d="M868 977q135 0 236.5 -67t145.5 -181.5t18 -249.5q-26 -136 -115.5 -251t-217.5 -181.5t-263 -66.5q-140 0 -243.5 70t-143.5 186l-138 -699h-61l387 1983h62l-156 -799q88 116 218.5 186t270.5 70zM686 41q180 0 332.5 128.5t187.5 309.5q23 118 -15.5 218.5t-127.5 159
t-207 58.5q-183 0 -335.5 -126.5t-190.5 -319.5q-36 -183 68.5 -305.5t287.5 -122.5z" />
    <glyph glyph-name="ydieresis" unicode="&#xff;" horiz-adv-x="1009" 
d="M600 1214q-27 0 -43 17t-12 41q4 25 27.5 42t50.5 17q28 0 42 -16.5t9 -42.5q-5 -25 -25.5 -41.5t-48.5 -16.5zM887 1214q-27 0 -43.5 17t-12.5 41q4 25 27.5 42t50.5 17q28 0 42.5 -16.5t9.5 -42.5q-5 -25 -25.5 -41.5t-48.5 -16.5zM1075 956h68l-887 -1419h-68l279 453
l-219 966h67l203 -893z" />
    <glyph glyph-name="Amacron" unicode="&#x100;" horiz-adv-x="1198" 
d="M1165 1714l-8 -55h-467l8 55h467zM1106 0l-74 393h-713l-227 -393h-65l815 1411h65l264 -1411h-65zM350 449h670l-162 876z" />
    <glyph glyph-name="amacron" unicode="&#x101;" horiz-adv-x="1282" 
d="M1118 1260l-12 -56h-467l12 56h467zM1229 956h61l-186 -956h-62l45 236q-88 -116 -218.5 -186t-270.5 -70q-135 0 -236 66.5t-145 181.5t-18 251q26 135 115 249.5t216.5 181.5t262.5 67q140 0 243.5 -70t145.5 -186zM610 41q119 0 230 54.5t190 153.5t103 220
q25 128 -14.5 231t-128.5 159t-208 56q-118 0 -230 -58.5t-190.5 -159t-101.5 -218.5q-35 -181 67.5 -309.5t282.5 -128.5z" />
    <glyph glyph-name="Abreve" unicode="&#x102;" horiz-adv-x="1198" 
d="M907 1591q-112 0 -154 67.5t-22 174.5h60q-16 -86 13 -136t114 -50q77 0 130 48t72 138h60q-21 -114 -95.5 -178t-177.5 -64zM1106 0l-74 393h-713l-227 -393h-65l815 1411h65l264 -1411h-65zM350 449h670l-162 876z" />
    <glyph glyph-name="abreve" unicode="&#x103;" horiz-adv-x="1282" 
d="M858 1137q-112 0 -154 67t-20 174h59q-18 -85 12 -135.5t115 -50.5q77 0 130.5 48t72.5 138h60q-23 -114 -97.5 -177.5t-177.5 -63.5zM1229 956h61l-186 -956h-62l45 236q-88 -116 -218.5 -186t-270.5 -70q-135 0 -236 66.5t-145 181.5t-18 251q26 135 115 249.5
t216.5 181.5t262.5 67q140 0 243.5 -70t145.5 -186zM610 41q119 0 230 54.5t190 153.5t103 220q25 128 -14.5 231t-128.5 159t-208 56q-118 0 -230 -58.5t-190.5 -159t-101.5 -218.5q-35 -181 67.5 -309.5t282.5 -128.5z" />
    <glyph glyph-name="Aogonek" unicode="&#x104;" horiz-adv-x="1198" 
d="M1288 -201h62q-19 -89 -80.5 -143.5t-143.5 -54.5q-83 0 -124.5 49.5t-24.5 128.5q8 38 33 78l94 153l-72 383h-713l-227 -393h-65l815 1411h65l264 -1411h-8l-104 -166q-13 -21 -21 -53q-11 -54 16.5 -86.5t84.5 -32.5q105 0 149 137zM350 449h670l-162 876z" />
    <glyph glyph-name="aogonek" unicode="&#x105;" horiz-adv-x="1282" 
d="M1067 -399q-83 0 -124.5 49.5t-24.5 128.5q8 41 32 78l94 153l43 226q-88 -116 -218.5 -186t-270.5 -70q-135 0 -236 66.5t-145 181.5t-18 251q26 135 115 249.5t216.5 181.5t262.5 67q140 0 243.5 -70t145.5 -186l47 235h61l-186 -956h-4l-101 -166q-15 -23 -22 -53
q-11 -54 17 -86.5t85 -32.5q53 0 91 36t57 101h61q-19 -89 -79 -143.5t-142 -54.5zM610 41q119 0 230 54.5t190 153.5t103 220q25 128 -14.5 231t-128.5 159t-208 56q-118 0 -230 -58.5t-190.5 -159t-101.5 -218.5q-35 -181 67.5 -309.5t282.5 -128.5z" />
    <glyph glyph-name="Cacute" unicode="&#x106;" horiz-adv-x="1353" 
d="M938 1556l258 310h74l-271 -310h-61zM807 -20q-115 0 -214.5 37t-170.5 102.5t-119 156t-59 198t10 228.5q29 148 109.5 282t191.5 231t251.5 154.5t283.5 57.5q130 0 239 -46.5t184 -129.5l-49 -45q-150 160 -387 160q-130 0 -258 -52.5t-230 -141.5t-175 -212t-99 -258
q-35 -180 19.5 -332t182.5 -240.5t302 -88.5q239 0 447 158l30 -45q-225 -174 -489 -174z" />
    <glyph glyph-name="cacute" unicode="&#x107;" horiz-adv-x="1007" 
d="M688 1102l256 309h74l-268 -309h-62zM600 -20q-209 0 -325.5 139.5t-73.5 361.5q29 147 119 261t214.5 174.5t260.5 60.5q168 0 290 -103l-45 -49q-107 90 -256 90q-120 0 -229.5 -52.5t-188.5 -152.5t-104 -229q-37 -196 64.5 -318t285.5 -122q154 0 293 90l29 -49
q-158 -102 -334 -102z" />
    <glyph glyph-name="Cdotaccent" unicode="&#x10a;" horiz-adv-x="1353" 
d="M1087 1645q-27 0 -42 16.5t-11 40.5q4 26 26.5 42.5t49.5 16.5q28 0 42.5 -16.5t10.5 -42.5q-4 -25 -26 -41t-50 -16zM807 -20q-115 0 -214.5 37t-170.5 102.5t-119 156t-59 198t10 228.5q29 148 109.5 282t191.5 231t251.5 154.5t283.5 57.5q130 0 239 -46.5t184 -129.5
l-49 -45q-150 160 -387 160q-130 0 -258 -52.5t-230 -141.5t-175 -212t-99 -258q-35 -180 19.5 -332t182.5 -240.5t302 -88.5q239 0 447 158l30 -45q-225 -174 -489 -174z" />
    <glyph glyph-name="cdotaccent" unicode="&#x10b;" horiz-adv-x="1007" 
d="M793 1190q-26 0 -41 16t-11 41q4 26 25.5 43t48.5 17q28 0 43.5 -17t11.5 -43q-4 -25 -26.5 -41t-50.5 -16zM600 -20q-209 0 -325.5 139.5t-73.5 361.5q29 147 119 261t214.5 174.5t260.5 60.5q168 0 290 -103l-45 -49q-107 90 -256 90q-120 0 -229.5 -52.5
t-188.5 -152.5t-104 -229q-37 -196 64.5 -318t285.5 -122q154 0 293 90l29 -49q-158 -102 -334 -102z" />
    <glyph glyph-name="Ccaron" unicode="&#x10c;" horiz-adv-x="1353" 
d="M1026 1556l-174 310h61l164 -254l262 254h62l-297 -310h-78zM807 -20q-115 0 -214.5 37t-170.5 102.5t-119 156t-59 198t10 228.5q29 148 109.5 282t191.5 231t251.5 154.5t283.5 57.5q130 0 239 -46.5t184 -129.5l-49 -45q-150 160 -387 160q-130 0 -258 -52.5
t-230 -141.5t-175 -212t-99 -258q-35 -180 19.5 -332t182.5 -240.5t302 -88.5q239 0 447 158l30 -45q-225 -174 -489 -174z" />
    <glyph glyph-name="ccaron" unicode="&#x10d;" horiz-adv-x="1007" 
d="M739 1102l-176 309h62l166 -254l260 254h61l-295 -309h-78zM600 -20q-209 0 -325.5 139.5t-73.5 361.5q29 147 119 261t214.5 174.5t260.5 60.5q168 0 290 -103l-45 -49q-107 90 -256 90q-120 0 -229.5 -52.5t-188.5 -152.5t-104 -229q-37 -196 64.5 -318t285.5 -122
q154 0 293 90l29 -49q-158 -102 -334 -102z" />
    <glyph glyph-name="Dcaron" unicode="&#x10e;" horiz-adv-x="1488" 
d="M932 1556l-176 310h61l164 -254l262 254h62l-295 -310h-78zM225 0l275 1411h520q192 0 315.5 -94t163 -253.5t0.5 -361.5q-29 -150 -95.5 -278t-162 -222.5t-223.5 -148t-273 -53.5h-520zM297 61h459q131 0 246.5 49t202 135t147 203t86.5 254q35 185 0 330.5t-146 231.5
t-284 86h-459z" />
    <glyph glyph-name="dcaron" unicode="&#x10f;" horiz-adv-x="1323" 
d="M1182 721l155 799h62l-295 -1520h-62l45 236q-88 -116 -218.5 -186t-270.5 -70q-135 0 -236 66.5t-145 181.5t-18 251q26 135 115 249.5t216.5 181.5t262.5 67q140 0 243.5 -70t145.5 -186zM1587 1411h64q-20 -101 -55 -168.5t-99 -148.5l-51 8q58 70 96.5 155.5
t44.5 153.5zM610 41q119 0 230 54.5t190 153.5t103 220q25 128 -14.5 231t-128.5 159t-208 56q-118 0 -230 -58.5t-190.5 -159t-101.5 -218.5q-35 -181 67.5 -309.5t282.5 -128.5z" />
    <glyph glyph-name="Dcroat" unicode="&#x110;" horiz-adv-x="1497" 
d="M1028 1411q192 0 315.5 -94t163 -253.5t0.5 -361.5q-29 -150 -95.5 -278t-161.5 -222.5t-223 -148t-273 -53.5h-521l129 666h-169l12 57h170l133 688h520zM764 61q131 0 246.5 49t202 135t147 203t86.5 254q35 185 0 330.5t-146 231.5t-284 86h-459l-121 -627h459
l-12 -57h-459l-119 -605h459z" />
    <glyph glyph-name="dcroat" unicode="&#x111;" horiz-adv-x="1282" 
d="M1542 1268l-10 -54h-193l-235 -1214h-62l45 236q-88 -116 -218.5 -186t-270.5 -70q-135 0 -236 66.5t-145 181.5t-18 251q26 135 115 249.5t216.5 181.5t262.5 67q140 0 243.5 -70t145.5 -186l96 493h-344l10 54h344l49 252h62l-49 -252h192zM610 41q119 0 230 54.5
t190 153.5t103 220q25 128 -14.5 231t-128.5 159t-208 56q-118 0 -230 -58.5t-190.5 -159t-101.5 -218.5q-35 -181 67.5 -309.5t282.5 -128.5z" />
    <glyph glyph-name="Emacron" unicode="&#x112;" horiz-adv-x="1126" 
d="M1135 1714l-9 -55h-467l9 55h467zM297 61h729l-10 -61h-791l275 1411h766l-13 -61h-704l-121 -627h616l-14 -61h-616z" />
    <glyph glyph-name="emacron" unicode="&#x113;" horiz-adv-x="1155" 
d="M1053 1260l-13 -56h-467l13 56h467zM1151 481l-6 -26h-885q-25 -186 68 -300t270 -114q113 0 217 51.5t180 143.5l47 -33q-87 -105 -206.5 -164t-249.5 -59q-205 0 -315.5 139t-67.5 362q29 147 115.5 261t207 174.5t254.5 60.5q135 0 230.5 -61t134 -175t6.5 -260z
M270 510h824q28 184 -62 294.5t-262 110.5q-174 0 -312 -109.5t-188 -295.5z" />
    <glyph glyph-name="Edotaccent" unicode="&#x116;" horiz-adv-x="1126" 
d="M887 1645q-26 0 -40.5 16t-10.5 41q4 26 25 42.5t48 16.5q28 0 44 -16.5t12 -42.5q-4 -24 -27 -40.5t-51 -16.5zM297 61h729l-10 -61h-791l275 1411h766l-13 -61h-704l-121 -627h616l-14 -61h-616z" />
    <glyph glyph-name="edotaccent" unicode="&#x117;" horiz-adv-x="1155" 
d="M803 1190q-26 0 -40.5 16t-10.5 41q4 26 25 43t48 17q28 0 44 -17t12 -43q-4 -24 -27 -40.5t-51 -16.5zM1151 481l-6 -26h-885q-25 -186 68 -300t270 -114q113 0 217 51.5t180 143.5l47 -33q-87 -105 -206.5 -164t-249.5 -59q-205 0 -315.5 139t-67.5 362
q29 147 115.5 261t207 174.5t254.5 60.5q135 0 230.5 -61t134 -175t6.5 -260zM270 510h824q28 184 -62 294.5t-262 110.5q-174 0 -312 -109.5t-188 -295.5z" />
    <glyph glyph-name="Eogonek" unicode="&#x118;" horiz-adv-x="1126" 
d="M918 -201h61q-19 -89 -80 -143.5t-143 -54.5q-83 0 -125 49.5t-25 128.5q8 38 33 78l88 143h-502l275 1411h766l-13 -61h-704l-121 -627h616l-14 -61h-616l-117 -601h729l-10 -61h-223l-105 -166q-11 -18 -20 -53q-11 -54 16 -86.5t84 -32.5q53 0 91 36t59 101z" />
    <glyph glyph-name="eogonek" unicode="&#x119;" horiz-adv-x="1155" 
d="M1151 481l-6 -26h-885q-25 -186 68 -300t270 -114q113 0 217 51.5t180 143.5l47 -33q-86 -105 -211 -166l-124 -203q-16 -26 -23 -53q-11 -54 16 -86.5t84 -32.5q53 0 92 36.5t58 100.5h61q-19 -89 -79 -143.5t-142 -54.5q-84 0 -126 49.5t-25 128.5q7 36 34 78l91 147
q-80 -24 -162 -24q-205 0 -315.5 139t-67.5 362q29 147 115.5 261t207 174.5t254.5 60.5q135 0 230.5 -61t134 -175t6.5 -260zM270 510h824q28 184 -62 294.5t-262 110.5q-174 0 -312 -109.5t-188 -295.5z" />
    <glyph glyph-name="Ecaron" unicode="&#x11a;" horiz-adv-x="1126" 
d="M911 1556h-77l-177 310h62l164 -254l262 254h61zM297 61h729l-10 -61h-791l275 1411h766l-13 -61h-704l-121 -627h616l-14 -61h-616z" />
    <glyph glyph-name="ecaron" unicode="&#x11b;" horiz-adv-x="1155" 
d="M827 1102h-77l-177 309h62l166 -254l260 254h61zM1151 481l-6 -26h-885q-25 -186 68 -300t270 -114q113 0 217 51.5t180 143.5l47 -33q-87 -105 -206.5 -164t-249.5 -59q-205 0 -315.5 139t-67.5 362q29 147 115.5 261t207 174.5t254.5 60.5q135 0 230.5 -61t134 -175
t6.5 -260zM270 510h824q28 184 -62 294.5t-262 110.5q-174 0 -312 -109.5t-188 -295.5z" />
    <glyph glyph-name="Gbreve" unicode="&#x11e;" horiz-adv-x="1552" 
d="M1092 1591q-113 0 -156 67.5t-21 174.5h60q-16 -86 13 -136t114 -50q77 0 130.5 48t72.5 138h59q-23 -114 -96 -178t-176 -64zM823 -23q-196 0 -340 97t-204.5 263.5t-22.5 364.5t164 364.5t308 263.5t378 97q227 0 391 -135l-47 -49q-149 123 -356 123
q-179 0 -345.5 -89t-281 -241.5t-150.5 -333.5t20 -333.5t188 -241t311 -88.5q236 0 421.5 134t264.5 390l8 27h-447l11 61h512q-37 -167 -113.5 -297t-181 -211.5t-228 -123.5t-260.5 -42z" />
    <glyph glyph-name="gbreve" unicode="&#x11f;" horiz-adv-x="1282" 
d="M858 1137q-112 0 -154 67t-20 174h59q-18 -85 12 -135.5t115 -50.5q77 0 130.5 48t72.5 138h60q-23 -114 -97.5 -177.5t-177.5 -63.5zM1229 956h59l-160 -819q-28 -141 -73.5 -247.5t-102 -175.5t-130.5 -112.5t-152.5 -61t-173.5 -17.5q-115 0 -208 51t-145 152l60 34
q44 -88 124 -132t179 -44q105 0 189 26t159 87t129 171.5t84 268.5l18 99q-86 -116 -216.5 -186t-270.5 -70q-135 0 -236 66.5t-145 181.5t-18 251q26 135 115 249.5t216.5 181.5t262.5 67q140 0 243.5 -70t145.5 -186zM610 41q119 0 230 54.5t190 153.5t103 220
q25 128 -14.5 231t-128.5 159t-208 56q-118 0 -230 -58.5t-190.5 -159t-101.5 -218.5q-35 -181 67.5 -309.5t282.5 -128.5z" />
    <glyph glyph-name="Gdotaccent" unicode="&#x120;" horiz-adv-x="1552" 
d="M1102 1645q-27 0 -42 16.5t-11 40.5q4 26 26 42.5t49 16.5q28 0 43 -16.5t11 -42.5q-4 -25 -26 -41t-50 -16zM823 -23q-196 0 -340 97t-204.5 263.5t-22.5 364.5t164 364.5t308 263.5t378 97q227 0 391 -135l-47 -49q-149 123 -356 123q-179 0 -345.5 -89t-281 -241.5
t-150.5 -333.5t20 -333.5t188 -241t311 -88.5q236 0 421.5 134t264.5 390l8 27h-447l11 61h512q-37 -167 -113.5 -297t-181 -211.5t-228 -123.5t-260.5 -42z" />
    <glyph glyph-name="gdotaccent" unicode="&#x121;" horiz-adv-x="1282" 
d="M870 1190q-27 0 -42 16.5t-11 40.5q4 26 26.5 43t49.5 17q28 0 43 -17t10 -43q-4 -25 -26 -41t-50 -16zM1229 956h59l-160 -819q-28 -141 -73.5 -247.5t-102 -175.5t-130.5 -112.5t-152.5 -61t-173.5 -17.5q-115 0 -208 51t-145 152l60 34q44 -88 124 -132t179 -44
q105 0 189 26t159 87t129 171.5t84 268.5l18 99q-86 -116 -216.5 -186t-270.5 -70q-135 0 -236 66.5t-145 181.5t-18 251q26 135 115 249.5t216.5 181.5t262.5 67q140 0 243.5 -70t145.5 -186zM610 41q119 0 230 54.5t190 153.5t103 220q25 128 -14.5 231t-128.5 159
t-208 56q-118 0 -230 -58.5t-190.5 -159t-101.5 -218.5q-35 -181 67.5 -309.5t282.5 -128.5z" />
    <glyph glyph-name="Gcommaaccent" unicode="&#x122;" horiz-adv-x="1552" 
d="M823 -23q-196 0 -340 97t-204.5 263.5t-22.5 364.5t164 364.5t308 263.5t378 97q227 0 391 -135l-47 -49q-149 123 -356 123q-179 0 -345.5 -89t-281 -241.5t-150.5 -333.5t20 -333.5t188 -241t311 -88.5q236 0 421.5 134t264.5 390l8 27h-447l11 61h512
q-37 -167 -113.5 -297t-181 -211.5t-228 -123.5t-260.5 -42zM575 -440l-32 24q68 58 119 149.5t71 190.5h68q-20 -95 -85.5 -203.5t-140.5 -160.5z" />
    <glyph glyph-name="gcommaaccent" unicode="&#x123;" horiz-adv-x="1282" 
d="M1049 1442q-69 -58 -119.5 -149.5t-69.5 -190.5h-67q18 94 83.5 203t141.5 161zM1229 956h59l-160 -819q-28 -141 -73.5 -247.5t-102 -175.5t-130.5 -112.5t-152.5 -61t-173.5 -17.5q-115 0 -208 51t-145 152l60 34q44 -88 124 -132t179 -44q105 0 189 26t159 87
t129 171.5t84 268.5l18 99q-86 -116 -216.5 -186t-270.5 -70q-135 0 -236 66.5t-145 181.5t-18 251q26 135 115 249.5t216.5 181.5t262.5 67q140 0 243.5 -70t145.5 -186zM610 41q119 0 230 54.5t190 153.5t103 220q25 128 -14.5 231t-128.5 159t-208 56q-118 0 -230 -58.5
t-190.5 -159t-101.5 -218.5q-35 -181 67.5 -309.5t282.5 -128.5z" />
    <glyph glyph-name="Hbar" unicode="&#x126;" horiz-adv-x="1476" 
d="M1624 1130l-10 -53h-156l-209 -1077h-61l129 674h-901l-129 -674h-62l209 1077h-135l10 53h135l56 281h61l-55 -281h901l55 281h62l-56 -281h156zM1329 729l68 348h-901l-68 -348h901z" />
    <glyph glyph-name="hbar" unicode="&#x127;" horiz-adv-x="1148" 
d="M784 977q170 0 258 -112t52 -302l-109 -563h-61l108 563q32 161 -42.5 256.5t-217.5 95.5q-70 0 -134.5 -20.5t-123.5 -62.5t-103.5 -115t-66.5 -170l-104 -547h-62l219 1135h-82l13 53h82l63 332h62l-64 -332h414l-13 -53h-413l-74 -390q42 81 111.5 135t141 75.5
t146.5 21.5z" />
    <glyph glyph-name="Itilde" unicode="&#x128;" horiz-adv-x="512" 
d="M330 1610q15 70 62 113.5t106 43.5q28 0 50 -11.5t36.5 -28.5t27.5 -34t29.5 -28.5t36.5 -11.5q32 0 59 28t37 74h62q-17 -70 -64 -114t-106 -44q-33 0 -60 18t-42.5 39.5t-36 39.5t-42.5 18q-32 0 -57.5 -28t-36.5 -74h-61zM225 0l275 1411h61l-274 -1411h-62z" />
    <glyph glyph-name="itilde" unicode="&#x129;" horiz-adv-x="417" 
d="M193 1155q17 71 64 114.5t105 43.5q34 0 60.5 -18t40.5 -39.5t35 -39.5t45 -18q32 0 57.5 28t36.5 74h61q-15 -70 -62 -113.5t-106 -43.5q-33 0 -60 18t-42 39t-35.5 39t-42.5 18q-32 0 -58 -28t-38 -74h-61zM178 0l187 956h61l-186 -956h-62z" />
    <glyph glyph-name="Imacron" unicode="&#x12a;" horiz-adv-x="512" 
d="M346 1659l8 55h467l-8 -55h-467zM225 0l275 1411h61l-274 -1411h-62z" />
    <glyph glyph-name="imacron" unicode="&#x12b;" horiz-adv-x="417" 
d="M209 1204l10 56h467l-10 -56h-467zM178 0l187 956h61l-186 -956h-62z" />
    <glyph glyph-name="Iogonek" unicode="&#x12e;" horiz-adv-x="512" 
d="M406 -201h61q-19 -89 -79 -143.5t-142 -54.5q-84 0 -126.5 49.5t-25.5 128.5q6 30 33 78l102 168l271 1386h61l-274 -1411h-6l-103 -166q-15 -23 -22 -53q-11 -54 16 -86.5t84 -32.5q53 0 92 36.5t58 100.5z" />
    <glyph glyph-name="iogonek" unicode="&#x12f;" horiz-adv-x="417" 
d="M453 1251q-27 0 -42.5 17t-11.5 41q4 26 26.5 42.5t49.5 16.5q28 0 42.5 -16.5t10.5 -42.5q-5 -25 -26 -41.5t-49 -16.5zM199 -399q-84 0 -126.5 49.5t-25.5 128.5q6 30 33 78l102 168l183 931h61l-186 -956h-11l-98 -166q-15 -23 -22 -53q-11 -54 16 -86.5t84 -32.5
q53 0 91.5 36.5t57.5 100.5h62q-19 -89 -79 -143.5t-142 -54.5z" />
    <glyph glyph-name="Idotaccent" unicode="&#x130;" horiz-adv-x="512" 
d="M573 1645q-26 0 -40.5 16t-10.5 41q4 26 25.5 42.5t48.5 16.5q28 0 43.5 -16.5t11.5 -42.5q-4 -24 -27 -40.5t-51 -16.5zM225 0l275 1411h61l-274 -1411h-62z" />
    <glyph glyph-name="dotlessi" unicode="&#x131;" horiz-adv-x="417" 
d="M178 0l187 956h61l-186 -956h-62z" />
    <glyph glyph-name="IJ" unicode="&#x132;" horiz-adv-x="1040" 
d="M225 0l275 1411h61l-274 -1411h-62zM317 -477q-45 0 -88 6l19 61q50 -6 82 -6q176 0 277.5 102.5t135.5 270.5l283 1454h64l-285 -1454q-18 -93 -55 -169t-95 -136.5t-144.5 -94.5t-193.5 -34z" />
    <glyph glyph-name="ij" unicode="&#x133;" horiz-adv-x="851" 
d="M451 1251q-26 0 -41 16.5t-11 41.5q4 26 25.5 42.5t48.5 16.5q28 0 43.5 -16.5t11.5 -42.5q-4 -25 -26.5 -41.5t-50.5 -16.5zM885 1251q-26 0 -40.5 16.5t-10.5 41.5q4 26 25 42.5t48 16.5q28 0 44 -16.5t12 -42.5q-4 -25 -27 -41.5t-51 -16.5zM178 0l187 956h61
l-186 -956h-62zM193 -463l12 60h69q257 0 324 342l199 1017h63l-198 -1017q-17 -88 -47.5 -158.5t-77.5 -126.5t-117 -86.5t-158 -30.5h-69z" />
    <glyph glyph-name="Jcircumflex" unicode="&#x134;" horiz-adv-x="528" 
d="M301 1556l295 310h78l176 -310h-62l-163 254l-263 -254h-61zM-193 -477q-45 0 -88 6l19 61q50 -6 82 -6q90 0 162.5 29t121.5 81t80 117.5t47 145.5l283 1454h64l-285 -1454q-18 -93 -55 -169t-95 -136.5t-144 -94.5t-192 -34z" />
    <glyph glyph-name="jcircumflex" unicode="&#x135;" horiz-adv-x="434" 
d="M166 1102l295 309h78l176 -309h-62l-166 254l-260 -254h-61zM381 956h61l-198 -1017q-17 -88 -47 -158.5t-77.5 -126.5t-117 -86.5t-156.5 -30.5h-69l12 60h70q70 0 126 26t94.5 74t63 107.5t39.5 134.5z" />
    <glyph glyph-name="Kcommaaccent" unicode="&#x136;" horiz-adv-x="1050" 
d="M475 664l590 -664h-90l-563 637l-125 -637h-62l275 1411h61l-143 -729l749 729h80zM299 -416q68 58 119 149.5t71 190.5h68q-19 -94 -85 -203t-140 -161z" />
    <glyph glyph-name="kcommaaccent" unicode="&#x137;" horiz-adv-x="864" 
d="M416 537l458 -537h-90l-444 520l-100 -520h-62l295 1520h62l-191 -971l479 407h88zM205 -416q68 58 119 149.5t71 190.5h68q-19 -94 -85 -203t-140 -161z" />
    <glyph glyph-name="kgreenlandic" unicode="&#x138;" horiz-adv-x="854" 
d="M846 0h-94l-433 420l-79 -420h-62l187 956h61l-96 -489l563 489h80l-584 -507z" />
    <glyph glyph-name="Lacute" unicode="&#x139;" horiz-adv-x="970" 
d="M535 1556l256 310h73l-268 -310h-61zM225 0l275 1411h61l-264 -1350h633l-10 -61h-695z" />
    <glyph glyph-name="lacute" unicode="&#x13a;" horiz-adv-x="417" 
d="M481 1556l256 310h74l-268 -310h-62zM178 0l295 1520h62l-295 -1520h-62z" />
    <glyph glyph-name="Lcommaaccent" unicode="&#x13b;" horiz-adv-x="970" 
d="M225 0l275 1411h61l-264 -1350h633l-10 -61h-695zM289 -440l-33 24q68 58 119 149.5t71 190.5h68q-19 -94 -85 -203t-140 -161z" />
    <glyph glyph-name="lcommaaccent" unicode="&#x13c;" horiz-adv-x="417" 
d="M178 0l297 1520h62l-297 -1520h-62zM4 -440l-33 24q67 58 118 149.5t71 190.5h67q-20 -95 -84.5 -203.5t-138.5 -160.5z" />
    <glyph glyph-name="Lcaron" unicode="&#x13d;" horiz-adv-x="976" 
d="M225 0l275 1411h61l-264 -1350h633l-10 -61h-695zM866 1094l-51 8q58 71 96 156.5t43 152.5h64q-20 -100 -54.5 -168t-97.5 -149z" />
    <glyph glyph-name="lcaron" unicode="&#x13e;" horiz-adv-x="458" 
d="M178 0l295 1520h62l-295 -1520h-62zM635 1094l-51 8q58 71 96 156.5t43 152.5h63q-20 -101 -54 -168.5t-97 -148.5z" />
    <glyph glyph-name="Lslash" unicode="&#x141;" horiz-adv-x="978" 
d="M303 61h633l-10 -61h-695l109 563l-188 -104l12 63l190 105l152 784h61l-145 -745l260 145l-12 -63l-260 -146z" />
    <glyph glyph-name="lslash" unicode="&#x142;" horiz-adv-x="563" 
d="M672 860l-13 -63l-247 -140l-127 -657h-62l119 618l-152 -83l13 63l151 84l164 838h62l-158 -799z" />
    <glyph glyph-name="Nacute" unicode="&#x143;" horiz-adv-x="1419" 
d="M1307 1866l-269 -310h-61l256 310h74zM1407 1411h61l-274 -1411h-78l-573 1319l-256 -1319h-62l275 1411h78l569 -1325z" />
    <glyph glyph-name="nacute" unicode="&#x144;" horiz-adv-x="1148" 
d="M1083 1411l-268 -309h-61l256 309h73zM784 977q170 0 258 -112t52 -302l-109 -563h-61l108 563q32 161 -42.5 256.5t-217.5 95.5q-70 0 -134.5 -20.5t-123.5 -62.5t-103.5 -115t-66.5 -170l-104 -547h-62l187 956h61l-41 -211q42 81 111.5 135t141 75.5t146.5 21.5z" />
    <glyph glyph-name="Ncommaaccent" unicode="&#x145;" horiz-adv-x="1419" 
d="M1407 1411h61l-274 -1411h-78l-573 1319l-256 -1319h-62l275 1411h78l569 -1325zM471 -416q68 58 119.5 149.5t71.5 190.5h67q-19 -94 -85 -203t-140 -161z" />
    <glyph glyph-name="ncommaaccent" unicode="&#x146;" horiz-adv-x="1148" 
d="M784 977q170 0 258 -112t52 -302l-109 -563h-61l108 563q32 161 -42.5 256.5t-217.5 95.5q-70 0 -134.5 -20.5t-123.5 -62.5t-103.5 -115t-66.5 -170l-104 -547h-62l187 956h61l-41 -211q42 81 111.5 135t141 75.5t146.5 21.5zM336 -416q68 58 119 149.5t71 190.5h68
q-19 -94 -85 -203t-140 -161z" />
    <glyph glyph-name="Ncaron" unicode="&#x147;" horiz-adv-x="1419" 
d="M1053 1556h-78l-176 310h61l164 -254l262 254h62zM1407 1411h61l-274 -1411h-78l-573 1319l-256 -1319h-62l275 1411h78l569 -1325z" />
    <glyph glyph-name="ncaron" unicode="&#x148;" horiz-adv-x="1148" 
d="M829 1102h-77l-177 309h62l164 -254l262 254h61zM784 977q170 0 258 -112t52 -302l-109 -563h-61l108 563q32 161 -42.5 256.5t-217.5 95.5q-70 0 -134.5 -20.5t-123.5 -62.5t-103.5 -115t-66.5 -170l-104 -547h-62l187 956h61l-41 -211q42 81 111.5 135t141 75.5
t146.5 21.5z" />
    <glyph glyph-name="napostrophe" unicode="&#x149;" horiz-adv-x="1214" 
d="M281 1102q58 71 96 156.5t43 152.5h63q-20 -101 -54 -168.5t-97 -148.5zM850 977q169 0 257 -112t52 -302l-108 -563h-62l109 563q32 161 -42.5 256.5t-217.5 95.5q-70 0 -134.5 -20.5t-123.5 -62.5t-103.5 -115t-66.5 -170l-105 -547h-61l186 956h62l-41 -211
q42 81 111.5 135t141 75.5t146.5 21.5z" />
    <glyph glyph-name="Eng" unicode="&#x14a;" horiz-adv-x="1419" 
d="M1407 1411h61l-280 -1440q-18 -93 -55.5 -169t-96 -136.5t-145 -94.5t-193.5 -34q-42 0 -88 6l19 62q46 -6 82 -6q91 0 164 29t122.5 81t81 117t47.5 145l-12 27l-571 1321l-256 -1319h-62l275 1411h78l569 -1325z" />
    <glyph glyph-name="eng" unicode="&#x14b;" horiz-adv-x="1148" 
d="M784 977q170 0 258.5 -112.5t51.5 -301.5l-121 -624q-17 -88 -47.5 -158.5t-77.5 -126.5t-117 -86.5t-158 -30.5h-69l12 60h70q256 0 323 342l123 624q32 161 -42.5 256.5t-217.5 95.5q-70 0 -134.5 -20.5t-123.5 -62.5t-103.5 -115t-66.5 -170l-104 -547h-62l187 956h61
l-41 -211q42 81 111.5 135t141 75.5t146.5 21.5z" />
    <glyph glyph-name="Omacron" unicode="&#x14c;" horiz-adv-x="1656" 
d="M918 1659l10 55h467l-11 -55h-466zM821 -20q-195 0 -339 96.5t-205 262.5t-23 363q38 198 164.5 364.5t308.5 263.5t377 97q196 0 340.5 -97t205.5 -263.5t23 -364.5q-29 -147 -110.5 -280.5t-195 -230.5t-256.5 -154t-290 -57zM834 41q179 0 346 88.5t282 240.5t150 332
q35 181 -21 333.5t-188 241.5t-311 89q-178 0 -344.5 -89t-282.5 -241.5t-150 -333.5q-35 -180 21.5 -332t188 -240.5t309.5 -88.5z" />
    <glyph glyph-name="omacron" unicode="&#x14d;" horiz-adv-x="1216" 
d="M606 1204l12 56h467l-12 -56h-467zM602 -20q-102 0 -186.5 35.5t-139 100.5t-76.5 158t1 207q29 148 119 262t215 174t262 60q102 0 186 -35t139.5 -99.5t77.5 -156t0 -205.5q-29 -148 -120 -264t-216.5 -176.5t-261.5 -60.5zM614 41q120 0 230.5 53.5t190 155
t104.5 231.5q37 195 -65.5 314.5t-287.5 119.5q-121 0 -231 -52t-189 -152.5t-104 -229.5q-37 -197 64.5 -318.5t287.5 -121.5z" />
    <glyph glyph-name="Ohungarumlaut" unicode="&#x150;" horiz-adv-x="1656" 
d="M993 1556l256 310h74l-268 -310h-62zM1219 1556l256 310h73l-268 -310h-61zM821 -20q-195 0 -339 96.5t-205 262.5t-23 363q38 198 164.5 364.5t308.5 263.5t377 97q196 0 340.5 -97t205.5 -263.5t23 -364.5q-29 -147 -110.5 -280.5t-195 -230.5t-256.5 -154t-290 -57z
M834 41q179 0 346 88.5t282 240.5t150 332q35 181 -21 333.5t-188 241.5t-311 89q-178 0 -344.5 -89t-282.5 -241.5t-150 -333.5q-35 -180 21.5 -332t188 -240.5t309.5 -88.5z" />
    <glyph glyph-name="ohungarumlaut" unicode="&#x151;" horiz-adv-x="1216" 
d="M684 1102l254 309h74l-267 -309h-61zM909 1102l254 309h74l-266 -309h-62zM602 -20q-102 0 -186.5 35.5t-139 100.5t-76.5 158t1 207q29 148 119 262t215 174t262 60q102 0 186 -35t139.5 -99.5t77.5 -156t0 -205.5q-29 -148 -120 -264t-216.5 -176.5t-261.5 -60.5z
M614 41q120 0 230.5 53.5t190 155t104.5 231.5q37 195 -65.5 314.5t-287.5 119.5q-121 0 -231 -52t-189 -152.5t-104 -229.5q-37 -197 64.5 -318.5t287.5 -121.5z" />
    <glyph glyph-name="OE" unicode="&#x152;" horiz-adv-x="2377" 
d="M1548 61h729l-10 -61h-790l77 406q-124 -193 -320.5 -309.5t-412.5 -116.5q-195 0 -339 96.5t-205 262.5t-23 363q38 198 164.5 364.5t308.5 263.5t377 97q217 0 368.5 -117t196.5 -309l82 410h766l-12 -61h-705l-123 -627h617l-13 -61h-616zM834 41q179 0 346 88.5
t282 240.5t150 332q35 181 -21 333.5t-188 241.5t-311 89q-178 0 -344.5 -89t-282.5 -241.5t-150 -333.5q-35 -180 21.5 -332t188 -240.5t309.5 -88.5z" />
    <glyph glyph-name="oe" unicode="&#x153;" horiz-adv-x="2091" 
d="M2087 481l-6 -26h-885q-25 -186 68 -300t270 -114q113 0 217 52t178 143l49 -33q-87 -105 -206.5 -164t-249.5 -59q-157 0 -261.5 83.5t-127.5 229.5q-82 -146 -225.5 -229.5t-305.5 -83.5q-102 0 -186.5 35.5t-139 100.5t-76.5 158t1 207q29 148 119 262t215 174t262 60
q162 0 272.5 -82t136.5 -227q77 145 214.5 227t295.5 82q135 0 230.5 -61t134 -175t6.5 -260zM614 41q120 0 230.5 53.5t190 155t104.5 231.5q37 195 -65.5 314.5t-287.5 119.5q-121 0 -231 -52t-189 -152.5t-104 -229.5q-37 -197 64.5 -318.5t287.5 -121.5zM1206 510h824
q28 184 -62 294.5t-262 110.5q-174 0 -310.5 -109t-189.5 -296z" />
    <glyph glyph-name="Racute" unicode="&#x154;" horiz-adv-x="1243" 
d="M1221 1866l-269 -310h-61l256 310h74zM844 582h-53l296 -582h-75l-301 582h-312l-112 -582h-62l275 1411h516q80 0 141 -23t96 -62.5t55.5 -93t19.5 -113.5t-11 -124q-16 -83 -51.5 -154.5t-92 -130.5t-141 -93.5t-188.5 -34.5zM549 1350l-137 -707h444q87 0 158.5 29
t119 80t77.5 111.5t44 131.5q9 55 9.5 106t-16.5 96.5t-46 79.5t-80 53.5t-118 19.5h-455z" />
    <glyph glyph-name="racute" unicode="&#x155;" horiz-adv-x="731" 
d="M881 1411l-269 -309h-61l256 309h74zM772 977q73 0 129 -19l-31 -59q-49 16 -110 16q-81 0 -150 -36.5t-116 -91.5t-85 -130.5t-59.5 -142t-36.5 -137.5l-73 -377h-62l187 956h61l-53 -268q58 124 164 206.5t235 82.5z" />
    <glyph glyph-name="Rcommaaccent" unicode="&#x156;" horiz-adv-x="1243" 
d="M844 582h-53l296 -582h-75l-301 582h-312l-112 -582h-62l275 1411h516q80 0 141 -23t96 -62.5t55.5 -93t19.5 -113.5t-11 -124q-16 -83 -51.5 -154.5t-92 -130.5t-141 -93.5t-188.5 -34.5zM549 1350l-137 -707h444q87 0 158.5 29t119 80t77.5 111.5t44 131.5
q9 55 9.5 106t-16.5 96.5t-46 79.5t-80 53.5t-118 19.5h-455zM385 -416q68 58 119 149.5t71 190.5h68q-19 -94 -85 -203t-140 -161z" />
    <glyph glyph-name="rcommaaccent" unicode="&#x157;" horiz-adv-x="731" 
d="M772 977q73 0 129 -19l-31 -59q-49 16 -110 16q-81 0 -150 -36.5t-116 -91.5t-85 -130.5t-59.5 -142t-36.5 -137.5l-73 -377h-62l187 956h61l-53 -268q58 124 164 206.5t235 82.5zM-23 -416q67 58 118 149.5t71 190.5h67q-19 -94 -85 -203t-140 -161z" />
    <glyph glyph-name="Rcaron" unicode="&#x158;" horiz-adv-x="1243" 
d="M967 1556h-78l-176 310h61l164 -254l262 254h62zM844 582h-53l296 -582h-75l-301 582h-312l-112 -582h-62l275 1411h516q80 0 141 -23t96 -62.5t55.5 -93t19.5 -113.5t-11 -124q-16 -83 -51.5 -154.5t-92 -130.5t-141 -93.5t-188.5 -34.5zM549 1350l-137 -707h444
q87 0 158.5 29t119 80t77.5 111.5t44 131.5q9 55 9.5 106t-16.5 96.5t-46 79.5t-80 53.5t-118 19.5h-455z" />
    <glyph glyph-name="rcaron" unicode="&#x159;" horiz-adv-x="731" 
d="M627 1102h-78l-176 309h61l164 -254l262 254h62zM772 977q73 0 129 -19l-31 -59q-49 16 -110 16q-81 0 -150 -36.5t-116 -91.5t-85 -130.5t-59.5 -142t-36.5 -137.5l-73 -377h-62l187 956h61l-53 -268q58 124 164 206.5t235 82.5z" />
    <glyph glyph-name="Sacute" unicode="&#x15a;" horiz-adv-x="1144" 
d="M840 1556l256 310h73l-268 -310h-61zM559 -20q-120 0 -208 52.5t-128 133.5t-35 174h62q-3 -122 83.5 -210.5t237.5 -88.5q102 0 189.5 31t145 81t94 106.5t47.5 113.5q24 124 -50 199.5t-211 109.5l-190 47q-311 70 -256 334q21 105 99.5 189.5t185 129.5t215.5 45
q173 0 273 -93.5t83 -250.5h-61q12 129 -74.5 206t-233.5 77q-93 0 -184 -37.5t-157.5 -108t-84.5 -157.5q-42 -213 215 -275l193 -47q354 -88 301 -364q-13 -67 -54.5 -134.5t-108.5 -127.5t-168.5 -97.5t-219.5 -37.5z" />
    <glyph glyph-name="sacute" unicode="&#x15b;" horiz-adv-x="858" 
d="M608 1102l256 309h74l-268 -309h-62zM424 -20q-124 0 -206.5 63t-82.5 180h62q6 -35 20 -64.5t40 -57.5t72.5 -44t108.5 -16q120 0 202 57t101 150q28 148 -145 196l-137 33q-221 52 -183 248q21 112 119.5 182t227.5 70q119 0 186.5 -63.5t58.5 -170.5h-61q3 78 -51 125
t-146 47q-103 0 -179 -51.5t-93 -134.5q-29 -151 147 -192l136 -33q116 -29 158.5 -97.5t23.5 -158.5q-23 -121 -126.5 -194.5t-252.5 -73.5z" />
    <glyph glyph-name="Scedilla" unicode="&#x15e;" horiz-adv-x="1144" 
d="M1110 377q-12 -61 -48.5 -123t-93.5 -119t-143.5 -98t-187.5 -53l29 -127q11 -45 4 -78q-17 -80 -77.5 -129t-143.5 -49q-82 0 -122.5 54.5t-21.5 143.5h62q-6 -65 16.5 -101t75.5 -36q57 0 98 32.5t51 86.5q6 23 -2 53l-35 146h-12q-120 0 -208 52.5t-128 133.5t-35 174
h62q-3 -122 83.5 -210.5t237.5 -88.5q102 0 189.5 31t145 81t94 106.5t47.5 113.5q24 124 -50 199.5t-211 109.5l-190 47q-311 70 -256 334q21 105 99.5 189.5t185 129.5t215.5 45q173 0 273 -93.5t83 -250.5h-61q12 129 -74.5 206t-233.5 77q-93 0 -184 -37.5t-157.5 -108
t-84.5 -157.5q-42 -213 215 -275l193 -47q76 -19 134 -47.5t103 -71.5t62.5 -105.5t1.5 -139.5z" />
    <glyph glyph-name="scedilla" unicode="&#x15f;" horiz-adv-x="858" 
d="M803 248q-20 -104 -102 -174.5t-203 -87.5l28 -129q11 -45 4 -78q-17 -80 -78.5 -129t-144.5 -49q-82 0 -121 54.5t-20 143.5h61q-8 -64 15.5 -100.5t76.5 -36.5q57 0 98.5 32.5t51.5 86.5q6 23 -2 53l-35 146h-8q-124 0 -206.5 63t-82.5 180h62q6 -35 20 -64.5t40 -57.5
t72.5 -44t108.5 -16q120 0 202 57t101 150q28 148 -145 196l-137 33q-221 52 -183 248q21 112 119.5 182t227.5 70q119 0 186.5 -63.5t58.5 -170.5h-61q3 78 -51 125t-146 47q-103 0 -179 -51.5t-93 -134.5q-29 -151 147 -192l136 -33q116 -29 158.5 -97.5t23.5 -158.5z" />
    <glyph glyph-name="Scaron" unicode="&#x160;" horiz-adv-x="1144" 
d="M838 1556l-176 310h61l166 -254l260 254h61l-295 -310h-77zM559 -20q-120 0 -208 52.5t-128 133.5t-35 174h62q-3 -122 83.5 -210.5t237.5 -88.5q102 0 189.5 31t145 81t94 106.5t47.5 113.5q24 124 -50 199.5t-211 109.5l-190 47q-311 70 -256 334q21 105 99.5 189.5
t185 129.5t215.5 45q173 0 273 -93.5t83 -250.5h-61q12 129 -74.5 206t-233.5 77q-93 0 -184 -37.5t-157.5 -108t-84.5 -157.5q-42 -213 215 -275l193 -47q354 -88 301 -364q-13 -67 -54.5 -134.5t-108.5 -127.5t-168.5 -97.5t-219.5 -37.5z" />
    <glyph glyph-name="scaron" unicode="&#x161;" horiz-adv-x="858" 
d="M606 1102l-176 309h62l163 -254l263 254h61l-295 -309h-78zM424 -20q-124 0 -206.5 63t-82.5 180h62q6 -35 20 -64.5t40 -57.5t72.5 -44t108.5 -16q120 0 202 57t101 150q28 148 -145 196l-137 33q-221 52 -183 248q21 112 119.5 182t227.5 70q119 0 186.5 -63.5
t58.5 -170.5h-61q3 78 -51 125t-146 47q-103 0 -179 -51.5t-93 -134.5q-29 -151 147 -192l136 -33q116 -29 158.5 -97.5t23.5 -158.5q-23 -121 -126.5 -194.5t-252.5 -73.5z" />
    <glyph glyph-name="uni0162" unicode="&#x162;" horiz-adv-x="1107" 
d="M1327 1350h-479l-260 -1325l37 -168q11 -45 4 -78q-17 -80 -77.5 -129t-143.5 -49q-82 0 -122.5 54.5t-21.5 143.5h62q-6 -65 16.5 -101t75.5 -36q57 0 98 32.5t51 86.5q6 23 -2 53l-37 166h-6l264 1350h-477l10 61h1018z" />
    <glyph glyph-name="uni0163" unicode="&#x163;" horiz-adv-x="559" 
d="M702 901h-237l-172 -876l37 -168q11 -45 4 -78q-17 -80 -77.5 -129t-143.5 -49q-80 0 -120.5 55t-21.5 143h60q-6 -65 16.5 -101t75.5 -36q57 0 98 32.5t51 86.5q6 23 -2 53l-37 166h-6l176 901h-174l11 55h174l80 406h61l-80 -406h238z" />
    <glyph glyph-name="Tcaron" unicode="&#x164;" horiz-adv-x="1107" 
d="M895 1556h-78l-174 310h62l163 -254l262 254h62zM1335 1411l-10 -61h-479l-262 -1350h-62l262 1350h-477l10 61h1018z" />
    <glyph glyph-name="tcaron" unicode="&#x165;" horiz-adv-x="559" 
d="M858 1411h64q-20 -100 -54.5 -168t-97.5 -149l-51 8q58 71 96 156.5t43 152.5zM553 1362l-78 -406h238l-13 -55h-237l-174 -901h-62l174 901h-174l13 55h174l78 406h61z" />
    <glyph glyph-name="Tbar" unicode="&#x166;" horiz-adv-x="1134" 
d="M1339 1350h-479l-106 -545h256l-13 -57h-256l-143 -748h-61l143 748h-258l12 57h258l107 545h-477l10 61h1018z" />
    <glyph glyph-name="tbar" unicode="&#x167;" horiz-adv-x="561" 
d="M700 901h-237l-68 -360h156l-12 -56h-156l-94 -485h-62l95 485h-127l12 56h127l67 360h-174l13 55h174l80 406h61l-80 -406h238z" />
    <glyph glyph-name="Umacron" unicode="&#x16a;" horiz-adv-x="1388" 
d="M784 1659l11 55h467l-11 -55h-467zM690 -23q-99 0 -181.5 34.5t-136 98.5t-75.5 153.5t0 199.5l184 948h62l-185 -948q-36 -188 64.5 -306t279.5 -118t325.5 118t182.5 306l185 948h61l-184 -948q-42 -215 -210 -350.5t-372 -135.5z" />
    <glyph glyph-name="umacron" unicode="&#x16b;" horiz-adv-x="1148" 
d="M1053 1260l-11 -56h-467l11 56h467zM1096 956h61l-186 -956h-62l39 211q-60 -118 -170 -174.5t-229 -56.5q-170 0 -258 112t-51 301l110 563h62l-111 -563q-32 -161 43.5 -256.5t218.5 -95.5q148 0 265.5 90.5t160.5 278.5z" />
    <glyph glyph-name="Uring" unicode="&#x16e;" horiz-adv-x="1388" 
d="M997 1575q-69 0 -107.5 49t-25.5 119q14 71 72 121.5t127 50.5q72 0 112.5 -50.5t26.5 -121.5q-13 -70 -73 -119t-132 -49zM1010 1630q49 0 88.5 32.5t48.5 80.5q9 50 -17 83.5t-75 33.5q-46 0 -86 -34t-49 -83q-9 -47 17.5 -80t72.5 -33zM690 -23q-99 0 -181.5 34.5
t-136 98.5t-75.5 153.5t0 199.5l184 948h62l-185 -948q-36 -188 64.5 -306t279.5 -118t325.5 118t182.5 306l185 948h61l-184 -948q-42 -215 -210 -350.5t-372 -135.5z" />
    <glyph glyph-name="uring" unicode="&#x16f;" horiz-adv-x="1148" 
d="M791 1120q-69 0 -109 49t-27 119q14 71 73 121.5t128 50.5q71 0 111 -50.5t26 -121.5t-72 -119.5t-130 -48.5zM844 1405q-46 0 -85 -34t-48 -83q-9 -47 17.5 -79.5t72.5 -32.5q49 0 88.5 32.5t48.5 79.5q9 50 -18 83.5t-76 33.5zM1096 956h61l-186 -956h-62l39 211
q-60 -118 -170 -174.5t-229 -56.5q-170 0 -258 112t-51 301l110 563h62l-111 -563q-32 -161 43.5 -256.5t218.5 -95.5q148 0 265.5 90.5t160.5 278.5z" />
    <glyph glyph-name="Uhungarumlaut" unicode="&#x170;" horiz-adv-x="1388" 
d="M860 1556l256 310h74l-268 -310h-62zM1085 1556l256 310h74l-268 -310h-62zM690 -23q-99 0 -181.5 34.5t-136 98.5t-75.5 153.5t0 199.5l184 948h62l-185 -948q-36 -188 64.5 -306t279.5 -118t325.5 118t182.5 306l185 948h61l-184 -948q-42 -215 -210 -350.5
t-372 -135.5z" />
    <glyph glyph-name="uhungarumlaut" unicode="&#x171;" horiz-adv-x="1148" 
d="M981 1411l-266 -309h-62l254 309h74zM940 1102h-61l254 309h73zM1096 956h61l-186 -956h-62l39 211q-60 -118 -170 -174.5t-229 -56.5q-170 0 -258 112t-51 301l110 563h62l-111 -563q-32 -161 43.5 -256.5t218.5 -95.5q148 0 265.5 90.5t160.5 278.5z" />
    <glyph glyph-name="Uogonek" unicode="&#x172;" horiz-adv-x="1388" 
d="M1393 1411h63l-186 -948q-40 -207 -198 -341t-357 -145l-88 -143q-16 -26 -23 -53q-11 -54 16.5 -86.5t84.5 -32.5q53 0 91.5 36.5t57.5 100.5h61q-19 -89 -79 -143.5t-142 -54.5q-84 0 -126 49.5t-25 128.5q5 24 35 78l73 123q-189 12 -291 145t-63 338l184 948h60
l-185 -948q-36 -188 64.5 -306t279.5 -118t325.5 118t182.5 306z" />
    <glyph glyph-name="uogonek" unicode="&#x173;" horiz-adv-x="1148" 
d="M1092 -201h61q-19 -89 -79 -143.5t-142 -54.5q-84 0 -126.5 49.5t-25.5 128.5q6 30 33 78l100 163l35 191q-60 -118 -170 -174.5t-229 -56.5q-170 0 -258 112t-51 301l110 563h62l-111 -563q-32 -161 43.5 -256.5t218.5 -95.5q148 0 265.5 90.5t160.5 278.5l107 546h61
l-186 -956h-4l-103 -166q-15 -23 -22 -53q-11 -54 16 -86.5t84 -32.5q53 0 92 36.5t58 100.5z" />
    <glyph glyph-name="Wcircumflex" unicode="&#x174;" horiz-adv-x="1859" 
d="M1282 1810l-262 -254h-62l295 310h78l176 -310h-61zM2017 1411h66l-754 -1411h-76l-108 1100l-539 -1100h-76l-204 1411h63l191 -1325l540 1100h82l107 -1104z" />
    <glyph glyph-name="wcircumflex" unicode="&#x175;" horiz-adv-x="1646" 
d="M1100 1356l-262 -254h-62l295 309h78l176 -309h-61zM1708 956h66l-547 -956h-64l-168 887l-506 -887h-65l-182 956h65l164 -870l498 870h78l163 -868z" />
    <glyph glyph-name="Ycircumflex" unicode="&#x176;" horiz-adv-x="1165" 
d="M936 1810l-262 -254h-62l295 310h78l176 -310h-61zM1343 1411h74l-674 -735l-131 -676h-61l131 678l-383 733h74l352 -678z" />
    <glyph glyph-name="ycircumflex" unicode="&#x177;" horiz-adv-x="1009" 
d="M770 1356l-260 -254h-61l294 309h78l176 -309h-61zM1075 956h68l-887 -1419h-68l279 453l-219 966h67l203 -893z" />
    <glyph glyph-name="Ydieresis" unicode="&#x178;" horiz-adv-x="1165" 
d="M764 1669q-27 0 -42 16.5t-11 40.5q4 26 26 43t49 17q28 0 43 -17t11 -43q-4 -25 -26 -41t-50 -16zM1051 1669q-27 0 -42.5 16.5t-11.5 40.5q4 26 26.5 43t49.5 17q28 0 43 -17t10 -43q-4 -25 -25.5 -41t-49.5 -16zM1343 1411h74l-674 -735l-131 -676h-61l131 678
l-383 733h74l352 -678z" />
    <glyph glyph-name="Zacute" unicode="&#x179;" horiz-adv-x="1071" 
d="M1133 1866l-269 -310h-61l256 310h74zM1264 1411l-9 -41l-1073 -1309h817l-10 -61h-907l6 33l1077 1317h-821l12 61h908z" />
    <glyph glyph-name="zacute" unicode="&#x17a;" horiz-adv-x="952" 
d="M985 1411l-268 -309h-62l256 309h74zM1053 956l-9 -41l-849 -854h682l-11 -61h-780l6 37l852 858h-686l14 61h781z" />
    <glyph glyph-name="Zdotaccent" unicode="&#x17b;" horiz-adv-x="1071" 
d="M854 1645q-26 0 -40.5 16t-10.5 41q4 26 25.5 42.5t48.5 16.5q28 0 43.5 -16.5t11.5 -42.5q-4 -24 -27 -40.5t-51 -16.5zM1264 1411l-9 -41l-1073 -1309h817l-10 -61h-907l6 33l1077 1317h-821l12 61h908z" />
    <glyph glyph-name="zdotaccent" unicode="&#x17c;" horiz-adv-x="952" 
d="M707 1190q-26 0 -41 16t-11 41q4 26 25.5 43t48.5 17q28 0 43.5 -17t11.5 -43q-4 -25 -26.5 -41t-50.5 -16zM1053 956l-9 -41l-849 -854h682l-11 -61h-780l6 37l852 858h-686l14 61h781z" />
    <glyph glyph-name="Zcaron" unicode="&#x17d;" horiz-adv-x="1071" 
d="M879 1556h-78l-176 310h61l164 -254l262 254h62zM1264 1411l-9 -41l-1073 -1309h817l-10 -61h-907l6 33l1077 1317h-821l12 61h908z" />
    <glyph glyph-name="zcaron" unicode="&#x17e;" horiz-adv-x="952" 
d="M731 1102h-78l-176 309h62l163 -254l263 254h61zM1053 956l-9 -41l-849 -854h682l-11 -61h-780l6 37l852 858h-686l14 61h781z" />
    <glyph glyph-name="longs" unicode="&#x17f;" horiz-adv-x="479" 
d="M854 1520h70l-13 -62h-69q-258 0 -324 -340l-217 -1118h-61l174 901h-197l12 55h197l31 162q77 402 397 402z" />
    <glyph glyph-name="florin" unicode="&#x192;" horiz-adv-x="948" 
d="M1098 1360h69l-24 -62h-70q-257 0 -379 -340l-57 -161h266l-12 -56h-275l-184 -516q-31 -88 -73 -158t-98 -126t-130.5 -86.5t-161.5 -30.5h-69l22 61h70q257 0 379 340l186 516h-195l13 56h200l58 161q31 88 73 158.5t98 126.5t131 86.5t163 30.5z" />
    <glyph glyph-name="uni01CD" unicode="&#x1cd;" horiz-adv-x="1198" 
d="M942 1556h-78l-176 310h62l163 -254l263 254h61zM1106 0l-74 393h-713l-227 -393h-65l815 1411h65l264 -1411h-65zM350 449h670l-162 876z" />
    <glyph glyph-name="uni01CE" unicode="&#x1ce;" horiz-adv-x="1282" 
d="M893 1102h-78l-174 309h61l164 -254l262 254h62zM1229 956h61l-186 -956h-62l45 236q-88 -116 -218.5 -186t-270.5 -70q-135 0 -236 66.5t-145 181.5t-18 251q26 135 115 249.5t216.5 181.5t262.5 67q140 0 243.5 -70t145.5 -186zM610 41q119 0 230 54.5t190 153.5
t103 220q25 128 -14.5 231t-128.5 159t-208 56q-118 0 -230 -58.5t-190.5 -159t-101.5 -218.5q-35 -181 67.5 -309.5t282.5 -128.5z" />
    <glyph glyph-name="uni01CF" unicode="&#x1cf;" horiz-adv-x="512" 
d="M520 1556l-176 310h62l163 -254l262 254h62l-295 -310h-78zM225 0l275 1411h61l-274 -1411h-62z" />
    <glyph glyph-name="uni01D0" unicode="&#x1d0;" horiz-adv-x="417" 
d="M385 1102l-176 309h61l164 -254l262 254h62l-295 -309h-78zM178 0l187 956h61l-186 -956h-62z" />
    <glyph glyph-name="uni01D1" unicode="&#x1d1;" horiz-adv-x="1656" 
d="M1092 1556l-174 310h61l164 -254l262 254h61l-297 -310h-77zM821 -20q-195 0 -339 96.5t-205 262.5t-23 363q38 198 164.5 364.5t308.5 263.5t377 97q196 0 340.5 -97t205.5 -263.5t23 -364.5q-29 -147 -110.5 -280.5t-195 -230.5t-256.5 -154t-290 -57zM834 41
q179 0 346 88.5t282 240.5t150 332q35 181 -21 333.5t-188 241.5t-311 89q-178 0 -344.5 -89t-282.5 -241.5t-150 -333.5q-35 -180 21.5 -332t188 -240.5t309.5 -88.5z" />
    <glyph glyph-name="uni01D2" unicode="&#x1d2;" horiz-adv-x="1216" 
d="M782 1102l-176 309h62l166 -254l260 254h61l-295 -309h-78zM602 -20q-102 0 -186.5 35.5t-139 100.5t-76.5 158t1 207q29 148 119 262t215 174t262 60q102 0 186 -35t139.5 -99.5t77.5 -156t0 -205.5q-29 -148 -120 -264t-216.5 -176.5t-261.5 -60.5zM614 41
q120 0 230.5 53.5t190 155t104.5 231.5q37 195 -65.5 314.5t-287.5 119.5q-121 0 -231 -52t-189 -152.5t-104 -229.5q-37 -197 64.5 -318.5t287.5 -121.5z" />
    <glyph glyph-name="uni01D3" unicode="&#x1d3;" horiz-adv-x="1388" 
d="M958 1556l-174 310h62l164 -254l262 254h61l-297 -310h-78zM690 -23q-99 0 -181.5 34.5t-136 98.5t-75.5 153.5t0 199.5l184 948h62l-185 -948q-36 -188 64.5 -306t279.5 -118t325.5 118t182.5 306l185 948h61l-184 -948q-42 -215 -210 -350.5t-372 -135.5z" />
    <glyph glyph-name="uni01D4" unicode="&#x1d4;" horiz-adv-x="1148" 
d="M829 1102h-77l-177 309h62l164 -254l262 254h61zM1096 956h61l-186 -956h-62l39 211q-60 -118 -170 -174.5t-229 -56.5q-170 0 -258 112t-51 301l110 563h62l-111 -563q-32 -161 43.5 -256.5t218.5 -95.5q148 0 265.5 90.5t160.5 278.5z" />
    <glyph glyph-name="uni01D5" unicode="&#x1d5;" horiz-adv-x="1388" 
d="M844 1962l10 55h467l-10 -55h-467zM874 1669q-26 0 -40.5 16t-10.5 41q4 26 25.5 43t48.5 17q28 0 43.5 -17t11.5 -43q-4 -24 -27 -40.5t-51 -16.5zM1161 1669q-26 0 -40.5 16t-10.5 41q4 26 25.5 43t48.5 17q28 0 43.5 -17t11.5 -43q-4 -24 -27 -40.5t-51 -16.5z
M690 -23q-99 0 -181.5 34.5t-136 98.5t-75.5 153.5t0 199.5l184 948h62l-185 -948q-36 -188 64.5 -306t279.5 -118t325.5 118t182.5 306l185 948h61l-184 -948q-42 -215 -210 -350.5t-372 -135.5z" />
    <glyph glyph-name="uni01D6" unicode="&#x1d6;" horiz-adv-x="1148" 
d="M1110 1548l-12 -55h-467l12 55h467zM612 1272q4 25 27.5 42t50.5 17q28 0 42 -16.5t9 -42.5q-5 -25 -25.5 -41.5t-47.5 -16.5t-43.5 17t-12.5 41zM899 1272q4 25 27.5 42t50.5 17q28 0 42 -16.5t9 -42.5q-5 -25 -25.5 -41.5t-48.5 -16.5q-27 0 -43 17t-12 41zM1096 956
h61l-186 -956h-62l39 211q-60 -118 -170 -174.5t-229 -56.5q-170 0 -258 112t-51 301l110 563h62l-111 -563q-32 -161 43.5 -256.5t218.5 -95.5q148 0 265.5 90.5t160.5 278.5z" />
    <glyph glyph-name="uni01D7" unicode="&#x1d7;" horiz-adv-x="1388" 
d="M1024 1870l256 309h74l-269 -309h-61zM874 1669q-26 0 -40.5 16t-10.5 41q4 26 25.5 43t48.5 17q28 0 43.5 -17t11.5 -43q-4 -24 -27 -40.5t-51 -16.5zM1161 1669q-26 0 -40.5 16t-10.5 41q4 26 25.5 43t48.5 17q28 0 43.5 -17t11.5 -43q-4 -24 -27 -40.5t-51 -16.5z
M690 -23q-99 0 -181.5 34.5t-136 98.5t-75.5 153.5t0 199.5l184 948h62l-185 -948q-36 -188 64.5 -306t279.5 -118t325.5 118t182.5 306l185 948h61l-184 -948q-42 -215 -210 -350.5t-372 -135.5z" />
    <glyph glyph-name="uni01D8" unicode="&#x1d8;" horiz-adv-x="1148" 
d="M1143 1720l-269 -309h-61l256 309h74zM668 1214q-27 0 -43.5 17t-12.5 41q4 25 27.5 42t50.5 17q28 0 42 -16.5t9 -42.5q-5 -25 -25.5 -41.5t-47.5 -16.5zM899 1272q4 25 27.5 42t50.5 17q28 0 42 -16.5t9 -42.5q-5 -25 -25.5 -41.5t-48.5 -16.5q-27 0 -43 17t-12 41z
M1096 956h61l-186 -956h-62l39 211q-60 -118 -170 -174.5t-229 -56.5q-170 0 -258 112t-51 301l110 563h62l-111 -563q-32 -161 43.5 -256.5t218.5 -95.5q148 0 265.5 90.5t160.5 278.5z" />
    <glyph glyph-name="uni01D9" unicode="&#x1d9;" horiz-adv-x="1388" 
d="M1022 1870l-176 309h61l162 -254l264 254h62l-295 -309h-78zM874 1669q-26 0 -40.5 16t-10.5 41q4 26 25.5 43t48.5 17q28 0 43.5 -17t11.5 -43q-4 -24 -27 -40.5t-51 -16.5zM1161 1669q-26 0 -40.5 16t-10.5 41q4 26 25.5 43t48.5 17q28 0 43.5 -17t11.5 -43
q-4 -24 -27 -40.5t-51 -16.5zM690 -23q-99 0 -181.5 34.5t-136 98.5t-75.5 153.5t0 199.5l184 948h62l-185 -948q-36 -188 64.5 -306t279.5 -118t325.5 118t182.5 306l185 948h61l-184 -948q-42 -215 -210 -350.5t-372 -135.5z" />
    <glyph glyph-name="uni01DA" unicode="&#x1da;" horiz-adv-x="1148" 
d="M889 1411h-78l-176 309h61l166 -254l260 254h62zM612 1272q4 25 27.5 42t50.5 17q28 0 42 -16.5t9 -42.5q-5 -25 -25.5 -41.5t-47.5 -16.5t-43.5 17t-12.5 41zM899 1272q4 25 27.5 42t50.5 17q28 0 42 -16.5t9 -42.5q-5 -25 -25.5 -41.5t-48.5 -16.5q-27 0 -43 17t-12 41
zM1096 956h61l-186 -956h-62l39 211q-60 -118 -170 -174.5t-229 -56.5q-170 0 -258 112t-51 301l110 563h62l-111 -563q-32 -161 43.5 -256.5t218.5 -95.5q148 0 265.5 90.5t160.5 278.5z" />
    <glyph glyph-name="uni01DB" unicode="&#x1db;" horiz-adv-x="1388" 
d="M1049 1870l-146 309h74l133 -309h-61zM874 1669q-26 0 -40.5 16t-10.5 41q4 26 25.5 43t48.5 17q28 0 43.5 -17t11.5 -43q-4 -24 -27 -40.5t-51 -16.5zM1161 1669q-26 0 -40.5 16t-10.5 41q4 26 25.5 43t48.5 17q28 0 43.5 -17t11.5 -43q-4 -24 -27 -40.5t-51 -16.5z
M690 -23q-99 0 -181.5 34.5t-136 98.5t-75.5 153.5t0 199.5l184 948h62l-185 -948q-36 -188 64.5 -306t279.5 -118t325.5 118t182.5 306l185 948h61l-184 -948q-42 -215 -210 -350.5t-372 -135.5z" />
    <glyph glyph-name="uni01DC" unicode="&#x1dc;" horiz-adv-x="1148" 
d="M899 1411h-61l-146 309h74zM612 1272q4 25 27.5 42t50.5 17q28 0 42 -16.5t9 -42.5q-5 -25 -25.5 -41.5t-47.5 -16.5t-43.5 17t-12.5 41zM954 1214q-27 0 -43 17t-12 41q4 25 27.5 42t50.5 17q28 0 42 -16.5t9 -42.5q-5 -25 -25.5 -41.5t-48.5 -16.5zM1096 956h61
l-186 -956h-62l39 211q-60 -118 -170 -174.5t-229 -56.5q-170 0 -258 112t-51 301l110 563h62l-111 -563q-32 -161 43.5 -256.5t218.5 -95.5q148 0 265.5 90.5t160.5 278.5z" />
    <glyph glyph-name="uni01E3" unicode="&#x1e3;" horiz-adv-x="1921" 
d="M1436 1260l-13 -56h-467l13 56h467zM1917 481l-6 -26h-885q-23 -188 69 -301t269 -113q113 0 217 51.5t180 143.5l47 -33q-87 -105 -206.5 -164t-249.5 -59q-140 0 -241 67.5t-138 185.5q-259 -256 -553 -256q-151 0 -228.5 74t-54.5 195q25 126 143 203t285 77
q94 0 203.5 -24t192.5 -64l30 150q66 327 -307 327q-97 0 -175.5 -28.5t-156.5 -89.5l-30 45q152 135 391 135q165 0 254.5 -67.5t95.5 -198.5q79 124 208.5 195t274.5 71q135 0 230.5 -61t134 -175t6.5 -260zM1036 510h824q28 184 -62 294.5t-262 110.5q-178 0 -314.5 -108
t-185.5 -297zM424 39q138 0 289.5 75.5t242.5 180.5l-8 80q-81 40 -189 65t-208 25q-138 0 -234 -59t-116 -156q-19 -95 42.5 -153t180.5 -58z" />
    <glyph glyph-name="Aringacute" unicode="&#x1fa;" horiz-adv-x="1198" 
d="M903 1575q-69 0 -108.5 49t-26.5 119q14 68 67 117t119 55l138 170h73l-151 -176q51 -15 76.5 -61.5t15.5 -104.5q-12 -70 -71.5 -119t-131.5 -49zM958 1860q-46 0 -86 -34t-49 -83q-9 -47 17.5 -80t72.5 -33q49 0 89 33t49 80q9 50 -17.5 83.5t-75.5 33.5zM1106 0
l-74 393h-713l-227 -393h-65l815 1411h65l264 -1411h-65zM350 449h670l-162 876z" />
    <glyph glyph-name="aringacute" unicode="&#x1fb;" horiz-adv-x="1282" 
d="M854 1120q-69 0 -107.5 49t-25.5 119q12 66 64.5 115t117.5 57l144 176h73l-159 -182q55 -13 82.5 -59.5t15.5 -106.5q-13 -70 -73 -119t-132 -49zM909 1405q-46 0 -85 -34t-48 -83q-9 -47 17.5 -79.5t72.5 -32.5q49 0 89 32.5t49 79.5q9 50 -18.5 83.5t-76.5 33.5z
M1229 956h61l-186 -956h-62l45 236q-88 -116 -218.5 -186t-270.5 -70q-135 0 -236 66.5t-145 181.5t-18 251q26 135 115 249.5t216.5 181.5t262.5 67q140 0 243.5 -70t145.5 -186zM610 41q119 0 230 54.5t190 153.5t103 220q25 128 -14.5 231t-128.5 159t-208 56
q-118 0 -230 -58.5t-190.5 -159t-101.5 -218.5q-35 -181 67.5 -309.5t282.5 -128.5z" />
    <glyph glyph-name="AEacute" unicode="&#x1fc;" horiz-adv-x="1925" 
d="M1577 1866l-268 -310h-62l256 310h74zM1096 61h729l-10 -61h-791l78 399h-715l-340 -399h-74l1205 1411h886l-12 -61h-704l-121 -627h616l-14 -61h-617zM438 461h674l174 889h-90z" />
    <glyph glyph-name="aeacute" unicode="&#x1fd;" horiz-adv-x="1921" 
d="M1466 1411l-270 -309h-61l258 309h73zM1917 481l-6 -26h-885q-23 -188 69 -301t269 -113q113 0 217 51.5t180 143.5l47 -33q-87 -105 -206.5 -164t-249.5 -59q-140 0 -241 67.5t-138 185.5q-259 -256 -553 -256q-151 0 -228.5 74t-54.5 195q25 126 143 203t285 77
q94 0 203.5 -24t192.5 -64l30 150q66 327 -307 327q-97 0 -175.5 -28.5t-156.5 -89.5l-30 45q152 135 391 135q165 0 254.5 -67.5t95.5 -198.5q79 124 208.5 195t274.5 71q135 0 230.5 -61t134 -175t6.5 -260zM1036 510h824q28 184 -62 294.5t-262 110.5q-178 0 -314.5 -108
t-185.5 -297zM424 39q138 0 289.5 75.5t242.5 180.5l-8 80q-81 40 -189 65t-208 25q-138 0 -234 -59t-116 -156q-19 -95 42.5 -153t180.5 -58z" />
    <glyph glyph-name="Oslashacute" unicode="&#x1fe;" horiz-adv-x="1669" 
d="M1430 1866l-269 -310h-61l256 310h74zM1819 1384l-228 -192q69 -98 92 -223t-4 -269q-38 -197 -164.5 -363t-309 -263t-378.5 -97q-277 0 -444 191l-227 -191l-33 43l227 193q-69 99 -92.5 221.5t2.5 265.5q38 198 164.5 364.5t308.5 263.5t377 97q140 0 256 -50
t193 -142l225 192zM322 700q-50 -257 79 -444l1104 934q-150 174 -405 174q-178 0 -345 -89t-283 -241.5t-150 -333.5zM1618 700q23 131 2.5 243t-80.5 204l-1104 -934q68 -82 174 -128t232 -46q134 0 264.5 52.5t233.5 141t177 210.5t101 257z" />
    <glyph glyph-name="oslashacute" unicode="&#x1ff;" horiz-adv-x="1224" 
d="M1120 1411l-268 -309h-61l256 309h73zM1147 817q97 -133 57 -336q-29 -148 -120 -264t-216.5 -176.5t-261.5 -60.5q-194 0 -311 120l-143 -120l-33 43l141 120q-95 135 -55 338q29 147 119.5 261.5t216 174.5t262.5 60q188 0 311 -117l143 121l35 -41zM266 481
q-33 -172 49 -295l746 629q-95 100 -270 100q-121 0 -231.5 -52t-189.5 -152.5t-104 -229.5zM621 41q120 0 229.5 53.5t188.5 155t104 231.5q34 176 -47 293l-748 -631q102 -102 273 -102z" />
    <glyph glyph-name="Scommaaccent" unicode="&#x218;" horiz-adv-x="1144" 
d="M559 -20q-120 0 -208 52.5t-128 133.5t-35 174h62q-3 -122 83.5 -210.5t237.5 -88.5q102 0 189.5 31t145 81t94 106.5t47.5 113.5q24 124 -50 199.5t-211 109.5l-190 47q-311 70 -256 334q21 105 99.5 189.5t185 129.5t215.5 45q173 0 273 -93.5t83 -250.5h-61
q12 129 -74.5 206t-233.5 77q-93 0 -184 -37.5t-157.5 -108t-84.5 -157.5q-42 -213 215 -275l193 -47q354 -88 301 -364q-13 -67 -54.5 -134.5t-108.5 -127.5t-168.5 -97.5t-219.5 -37.5zM367 -440l-33 24q68 58 119 149.5t71 190.5h68q-19 -94 -85 -203t-140 -161z" />
    <glyph glyph-name="scommaaccent" unicode="&#x219;" horiz-adv-x="858" 
d="M424 -20q-124 0 -206.5 63t-82.5 180h62q6 -35 20 -64.5t40 -57.5t72.5 -44t108.5 -16q120 0 202 57t101 150q28 148 -145 196l-137 33q-221 52 -183 248q21 112 119.5 182t227.5 70q119 0 186.5 -63.5t58.5 -170.5h-61q3 78 -51 125t-146 47q-103 0 -179 -51.5
t-93 -134.5q-29 -151 147 -192l136 -33q116 -29 158.5 -97.5t23.5 -158.5q-23 -121 -126.5 -194.5t-252.5 -73.5zM223 -440l-35 24q70 58 121.5 149.5t71.5 190.5h68q-19 -94 -85.5 -203t-140.5 -161z" />
    <glyph glyph-name="uni021A" unicode="&#x21a;" horiz-adv-x="1107" 
d="M319 1411h1018l-12 -61h-479l-262 -1350h-62l262 1350h-477zM315 -416q68 58 119.5 149.5t71.5 190.5h67q-19 -94 -85 -203t-140 -161z" />
    <glyph glyph-name="uni021B" unicode="&#x21b;" horiz-adv-x="559" 
d="M475 956h238l-13 -55h-237l-174 -901h-62l174 901h-174l13 55h174l78 406h61zM49 -416q68 58 119.5 149.5t71.5 190.5h67q-19 -94 -85 -203t-140 -161z" />
    <glyph glyph-name="circumflex" unicode="&#x2c6;" horiz-adv-x="978" 
d="M430 1102l295 309h78l176 -309h-61l-164 254l-262 -254h-62z" />
    <glyph glyph-name="caron" unicode="&#x2c7;" horiz-adv-x="978" 
d="M666 1102l-177 309h62l164 -254l262 254h61l-295 -309h-77z" />
    <glyph glyph-name="breve" unicode="&#x2d8;" horiz-adv-x="1103" 
d="M770 1137q-112 0 -154 67t-20 174h59q-18 -85 11 -135.5t114 -50.5q78 0 132.5 48.5t72.5 137.5h59q-23 -114 -97 -177.5t-177 -63.5z" />
    <glyph glyph-name="dotaccent" unicode="&#x2d9;" horiz-adv-x="948" 
d="M705 1190q-26 0 -41 16t-11 41q4 26 25.5 43t48.5 17q28 0 43.5 -17t11.5 -43q-4 -25 -26.5 -41t-50.5 -16z" />
    <glyph glyph-name="ring" unicode="&#x2da;" horiz-adv-x="993" 
d="M713 1120q-69 0 -108.5 49t-26.5 119q14 71 72.5 121.5t127.5 50.5q71 0 111 -50.5t26 -121.5t-72 -119.5t-130 -48.5zM723 1176q49 0 88.5 32.5t48.5 79.5q9 50 -18 83.5t-76 33.5q-46 0 -85 -34t-48 -83q-9 -47 17.5 -79.5t72.5 -32.5z" />
    <glyph glyph-name="ogonek" unicode="&#x2db;" horiz-adv-x="1021" 
d="M436 -399q-84 0 -126 49.5t-25 128.5q8 41 32 78l95 153h65l-108 -176q-16 -26 -23 -53q-11 -54 16 -86.5t84 -32.5q53 0 92 36.5t58 100.5h61q-19 -89 -79 -143.5t-142 -54.5z" />
    <glyph glyph-name="tilde" unicode="&#x2dc;" horiz-adv-x="968" 
d="M469 1155q17 70 64 114t106 44q28 0 50 -12t36.5 -28.5t27.5 -33.5t29.5 -29t36.5 -12q32 0 57.5 28t36.5 74h62q-15 -70 -62 -113.5t-106 -43.5q-33 0 -60 18t-42 39t-35.5 39t-42.5 18q-32 0 -59.5 -28t-37.5 -74h-61z" />
    <glyph glyph-name="hungarumlaut" unicode="&#x2dd;" horiz-adv-x="788" 
d="M379 1102l254 309h74l-267 -309h-61zM604 1102l254 309h74l-266 -309h-62z" />
    <glyph glyph-name="gravecomb" unicode="&#x300;" horiz-adv-x="0" 
d="M-207 1102l-145 309h73l134 -309h-62z" />
    <glyph glyph-name="acutecomb" unicode="&#x301;" horiz-adv-x="0" 
d="M-381 1102l256 309h74l-268 -309h-62z" />
    <glyph glyph-name="uni0302" unicode="&#x302;" horiz-adv-x="0" 
d="M-547 1102l295 309h78l174 -309h-59l-164 254l-262 -254h-62z" />
    <glyph glyph-name="tildecomb" unicode="&#x303;" horiz-adv-x="0" 
d="M-498 1155q17 70 64 114t106 44q34 0 60.5 -18t40.5 -39.5t35 -39.5t45 -18q32 0 57.5 28t36.5 74h59q-15 -70 -61 -113.5t-105 -43.5q-33 0 -60 18t-42 39t-35.5 39t-42.5 18q-32 0 -59 -28t-37 -74h-62z" />
    <glyph glyph-name="uni0304" unicode="&#x304;" horiz-adv-x="0" 
d="M-477 1204l12 56h465l-12 -56h-465z" />
    <glyph glyph-name="uni0306" unicode="&#x306;" horiz-adv-x="0" 
d="M-332 1137q-112 0 -154 67t-20 174h60q-18 -85 10.5 -135.5t113.5 -50.5q78 0 132.5 48.5t72.5 137.5h60q-23 -114 -97.5 -177.5t-177.5 -63.5z" />
    <glyph glyph-name="uni0307" unicode="&#x307;" horiz-adv-x="0" 
d="M-242 1190q-26 0 -40.5 16t-10.5 41q4 26 25.5 43t48.5 17q28 0 43.5 -17t11.5 -43q-4 -24 -27 -40.5t-51 -16.5z" />
    <glyph glyph-name="uni0308" unicode="&#x308;" horiz-adv-x="0" 
d="M-360 1214q-27 0 -42.5 17t-11.5 41q4 26 26.5 42.5t49.5 16.5q28 0 42.5 -16.5t10.5 -42.5q-5 -25 -26 -41.5t-49 -16.5zM-74 1214q-26 0 -41.5 16.5t-11.5 41.5q4 26 26.5 42.5t49.5 16.5q26 0 40.5 -16.5t10.5 -42.5q-5 -25 -25.5 -41.5t-48.5 -16.5z" />
    <glyph glyph-name="uni030A" unicode="&#x30a;" horiz-adv-x="0" 
d="M-279 1120q-69 0 -108.5 49t-26.5 119q14 71 73 121.5t128 50.5q71 0 111 -50.5t26 -121.5t-72.5 -119.5t-130.5 -48.5zM-268 1176q49 0 88.5 32.5t48.5 79.5q9 50 -18 83.5t-76 33.5q-46 0 -85 -34t-48 -83q-9 -47 17.5 -79.5t72.5 -32.5z" />
    <glyph glyph-name="uni030B" unicode="&#x30b;" horiz-adv-x="0" 
d="M-408 1102l254 309h74l-266 -309h-62zM-182 1102l252 309h73l-264 -309h-61z" />
    <glyph glyph-name="uni030C" unicode="&#x30c;" horiz-adv-x="0" 
d="M-311 1102l-176 309h61l164 -254l260 254h61l-292 -309h-78z" />
    <glyph glyph-name="uni0326" unicode="&#x326;" horiz-adv-x="0" 
d="M-381 -440l-33 24q68 58 119.5 149.5t71.5 190.5h67q-20 -95 -85 -203.5t-140 -160.5z" />
    <glyph glyph-name="uni0327" unicode="&#x327;" horiz-adv-x="0" 
d="M-588 -399q-82 0 -122 54.5t-21 143.5h61q-6 -65 16.5 -101t75.5 -36q57 0 98.5 32.5t51.5 86.5q6 23 -2 53l-39 176h66l32 -153q11 -45 4 -78q-17 -80 -77.5 -129t-143.5 -49z" />
    <glyph glyph-name="uni0328" unicode="&#x328;" horiz-adv-x="0" 
d="M-584 -399q-84 0 -126 49.5t-25 128.5q8 38 33 78l94 153h65l-108 -176q-16 -26 -23 -53q-11 -54 16.5 -86.5t84.5 -32.5q53 0 91.5 36.5t57.5 100.5h62q-19 -89 -79.5 -143.5t-142.5 -54.5z" />
    <glyph glyph-name="uni0394" unicode="&#x394;" horiz-adv-x="1198" 
d="M907 1411l264 -1411h-1144l815 1411h65zM123 55h973l-238 1270z" />
    <glyph glyph-name="uni03A9" unicode="&#x3a9;" horiz-adv-x="1675" 
d="M1681 702q-43 -221 -194.5 -395.5t-345.5 -245.5h391l-10 -61h-594l10 61q250 34 442.5 213.5t239.5 427.5q29 138 0 259t-96.5 211t-178 142t-243.5 52q-178 0 -344 -89t-281 -241.5t-151 -333.5q-31 -164 14.5 -303t155 -227.5t262.5 -110.5l-10 -61h-594l10 61h391
q-166 71 -250 246t-41 395q38 198 165 364.5t309.5 263.5t377.5 97t338.5 -97t204 -263.5t22.5 -364.5z" />
    <glyph glyph-name="pi" unicode="&#x3c0;" horiz-adv-x="1011" 
d="M811 199q-18 -88 16 -124t117 -36l-14 -62h-10q-8 0 -14 0.5t-20 1.5t-25.5 4t-27 8t-27 14t-24.5 20.5t-20.5 28.5t-13 37t-5 48t6.5 60l135 696h-453l-172 -895h-61l172 895h-117l14 61h826l-15 -61h-133z" />
    <glyph glyph-name="uni0401" unicode="&#x401;" horiz-adv-x="1126" 
d="M750 1669q-27 0 -42.5 16.5t-11.5 40.5q4 26 26.5 43t49.5 17q28 0 43 -17t10 -43q-4 -25 -25.5 -41t-49.5 -16zM1036 1669q-27 0 -42 16.5t-11 40.5q4 26 26.5 43t49.5 17q28 0 43 -17t10 -43q-4 -25 -26 -41t-50 -16zM297 61h729l-10 -61h-791l275 1411h766l-13 -61
h-704l-121 -627h616l-14 -61h-616z" />
    <glyph glyph-name="uni0410" unicode="&#x410;" horiz-adv-x="1198" 
d="M1106 0l-74 393h-713l-227 -393h-65l815 1411h65l264 -1411h-65zM350 449h670l-162 876z" />
    <glyph glyph-name="uni0411" unicode="&#x411;" horiz-adv-x="1214" 
d="M893 829q83 0 146 -22.5t98.5 -62t56 -92t19.5 -112.5t-11 -124q-16 -83 -51.5 -155t-90.5 -131.5t-137 -94.5t-182 -35h-516l275 1411h739l-12 -61h-678l-100 -521h444zM752 61q83 0 152.5 29.5t116 81t76.5 113t44 131.5q9 55 9.5 106t-17 96t-47.5 78t-83.5 52.5
t-123.5 19.5h-445l-137 -707h455z" />
    <glyph glyph-name="uni0412" unicode="&#x412;" horiz-adv-x="1280" 
d="M1028 752q67 -23 113.5 -66t66.5 -93t27 -107.5t-6 -108.5q-30 -155 -158 -266t-297 -111h-549l275 1413h487q166 0 248.5 -86.5t50.5 -245.5q-21 -107 -90.5 -199t-167.5 -130zM975 1352h-426l-113 -574h479q115 0 200.5 87.5t109.5 215.5q26 129 -43.5 200t-206.5 71z
M784 61q143 0 249 93t132 223q28 144 -52 244t-228 100h-459l-129 -660h487z" />
    <glyph glyph-name="uni0413" unicode="&#x413;" horiz-adv-x="925" 
d="M500 1411h651l-12 -61h-590l-262 -1350h-62z" />
    <glyph glyph-name="uni0414" unicode="&#x414;" horiz-adv-x="1298" 
d="M1075 61h92l-69 -354h-62l60 293h-1010l-59 -293h-60l68 354h20q116 0 201.5 101t124.5 297l186 952h770zM442 457q-28 -138 -86 -244t-135 -152h793l252 1289h-650z" />
    <glyph glyph-name="uni0415" unicode="&#x415;" horiz-adv-x="1126" 
d="M297 61h729l-10 -61h-791l275 1411h766l-13 -61h-704l-121 -627h616l-14 -61h-616z" />
    <glyph glyph-name="uni0416" unicode="&#x416;" horiz-adv-x="1605" 
d="M1612 0h-90l-564 639l-124 -639h-62l125 639l-813 -639h-90l844 664l-478 747h80l463 -729l144 729h61l-143 -729l749 729h80l-772 -747z" />
    <glyph glyph-name="uni0417" unicode="&#x417;" horiz-adv-x="1155" 
d="M897 756q120 -29 182.5 -127.5t34.5 -239.5q-24 -121 -109.5 -215.5t-213.5 -145.5t-275 -51t-257.5 73.5t-139.5 191.5l63 26q26 -104 121 -166.5t223 -62.5t241 44t189.5 124.5t96.5 181.5q30 149 -59.5 239.5t-248.5 90.5h-149l10 61h150q128 0 223.5 80t120.5 207
q25 132 -58.5 215.5t-244.5 83.5q-106 0 -205.5 -48t-155.5 -124l-49 33q71 89 188 144.5t236 55.5q189 0 285 -99.5t65 -260.5q-20 -102 -91.5 -187t-172.5 -124z" />
    <glyph glyph-name="uni0418" unicode="&#x418;" horiz-adv-x="1419" 
d="M1391 1411h77l-274 -1411h-61l256 1319l-1086 -1319h-78l275 1411h61l-260 -1325z" />
    <glyph glyph-name="uni0419" unicode="&#x419;" horiz-adv-x="1419" 
d="M1020 1591q-103 0 -151 64t-27 178h59q-18 -89 16.5 -137.5t112.5 -48.5q85 0 135 50.5t66 135.5h59q-20 -107 -88.5 -174.5t-181.5 -67.5zM1391 1411h77l-274 -1411h-61l256 1319l-1086 -1319h-78l275 1411h61l-260 -1325z" />
    <glyph glyph-name="uni041A" unicode="&#x41a;" horiz-adv-x="1050" 
d="M1065 0h-90l-563 637l-125 -637h-62l275 1411h61l-143 -729l749 729h80l-772 -747z" />
    <glyph glyph-name="uni041B" unicode="&#x41b;" horiz-adv-x="1286" 
d="M563 1411h772l-274 -1411h-62l263 1350h-648l-188 -961q-36 -184 -140 -286.5t-245 -102.5h-21l11 61h20q115 0 199.5 86.5t114.5 243.5z" />
    <glyph glyph-name="uni041C" unicode="&#x41c;" horiz-adv-x="1970" 
d="M1829 0h-62l91 1313l-814 -1180h-67l-352 1184l-424 -1317h-60l455 1411h66l360 -1223l838 1223h63z" />
    <glyph glyph-name="uni041D" unicode="&#x41d;" horiz-adv-x="1474" 
d="M1462 1411h62l-275 -1411h-61l129 674h-901l-129 -674h-62l275 1411h61l-133 -682h901z" />
    <glyph glyph-name="uni041E" unicode="&#x41e;" horiz-adv-x="1656" 
d="M821 -20q-195 0 -339 96.5t-205 262.5t-23 363q38 198 164.5 364.5t308.5 263.5t377 97q196 0 340.5 -97t205.5 -263.5t23 -364.5q-29 -147 -110.5 -280.5t-195 -230.5t-256.5 -154t-290 -57zM834 41q179 0 346 88.5t282 240.5t150 332q35 181 -21 333.5t-188 241.5
t-311 89q-178 0 -344.5 -89t-282.5 -241.5t-150 -333.5q-35 -180 21.5 -332t188 -240.5t309.5 -88.5z" />
    <glyph glyph-name="uni041F" unicode="&#x41f;" horiz-adv-x="1441" 
d="M500 1411h991l-274 -1411h-62l262 1350h-868l-262 -1350h-62z" />
    <glyph glyph-name="uni0420" unicode="&#x420;" horiz-adv-x="1236" 
d="M1044 1411q80 0 141 -23t96 -62.5t55.5 -93t20 -113.5t-10.5 -124q-16 -83 -52 -154.5t-92 -130.5t-141 -93.5t-189 -34.5h-473l-112 -582h-62l275 1411h544zM885 643q87 0 158.5 29t119 80t77.5 111.5t44 131.5q9 55 9.5 106t-16.5 96.5t-46.5 79.5t-80.5 53.5
t-118 19.5h-483l-137 -707h473z" />
    <glyph glyph-name="uni0421" unicode="&#x421;" horiz-adv-x="1353" 
d="M807 -20q-115 0 -214.5 37t-170.5 102.5t-119 156t-59 198t10 228.5q29 148 109.5 282t191.5 231t251.5 154.5t283.5 57.5q130 0 239 -46.5t184 -129.5l-49 -45q-150 160 -387 160q-130 0 -258 -52.5t-230 -141.5t-175 -212t-99 -258q-35 -180 19.5 -332t182.5 -240.5
t302 -88.5q239 0 447 158l30 -45q-225 -174 -489 -174z" />
    <glyph glyph-name="uni0422" unicode="&#x422;" horiz-adv-x="1107" 
d="M1335 1411l-10 -61h-479l-262 -1350h-62l262 1350h-477l10 61h1018z" />
    <glyph glyph-name="uni0423" unicode="&#x423;" horiz-adv-x="1132" 
d="M1331 1411h72l-1006 -1411h-71l323 446l-364 965h67l344 -901z" />
    <glyph glyph-name="uni0424" unicode="&#x424;" horiz-adv-x="1662" 
d="M1690 702q-22 -114 -78.5 -203.5t-151.5 -157t-236 -104.5t-323 -40l-39 -197h-61l39 197q-353 6 -495 139t-97 366q46 235 240 368.5t548 139.5l39 201h62l-39 -201q353 -6 495 -139.5t97 -368.5zM309 702q-40 -204 89.5 -321t451.5 -123l176 891q-326 -6 -501.5 -123.5
t-215.5 -323.5zM911 258q326 6 501.5 123t215.5 321q40 206 -89.5 323.5t-451.5 123.5z" />
    <glyph glyph-name="uni0425" unicode="&#x425;" horiz-adv-x="1150" 
d="M1126 0h-75l-338 713l-613 -713h-73l661 764l-309 647h74l280 -598l514 598h76l-563 -647z" />
    <glyph glyph-name="uni0426" unicode="&#x426;" horiz-adv-x="1490" 
d="M1268 61h92l-70 -354h-61l59 293h-1063l275 1411h61l-264 -1350h909l264 1350h62z" />
    <glyph glyph-name="uni0427" unicode="&#x427;" horiz-adv-x="1333" 
d="M1321 1411h61l-274 -1411h-61l110 575q-238 -49 -485 -49q-208 0 -309 119t-54 359l80 407h62l-80 -405q-42 -213 46.5 -315.5t268.5 -102.5q245 0 483 49z" />
    <glyph glyph-name="uni0428" unicode="&#x428;" horiz-adv-x="2113" 
d="M2101 1411h62l-275 -1411h-1663l275 1411h61l-264 -1350h739l264 1350h62l-264 -1350h739z" />
    <glyph glyph-name="uni0429" unicode="&#x429;" horiz-adv-x="2121" 
d="M1898 61h93l-70 -354h-61l59 293h-1694l275 1411h61l-264 -1350h739l264 1350h62l-264 -1350h739l264 1350h62z" />
    <glyph glyph-name="uni042A" unicode="&#x42a;" horiz-adv-x="1323" 
d="M1006 829q83 0 146 -22.5t99 -62t57 -92t20 -112.5t-11 -124q-16 -83 -51.5 -155t-90.5 -131.5t-137 -94.5t-182 -35h-516l262 1350h-321l10 61h383l-113 -582h445zM866 61q83 0 152.5 29.5t116 81t76.5 113t44 131.5q9 55 9.5 106t-17 96t-47.5 78t-83.5 52.5
t-123.5 19.5h-444l-137 -707h454z" />
    <glyph glyph-name="uni042B" unicode="&#x42b;" horiz-adv-x="1648" 
d="M893 829q83 0 146 -22.5t98.5 -62t56 -92t19.5 -112.5t-11 -124q-16 -83 -51.5 -155t-90.5 -131.5t-137 -94.5t-182 -35h-516l275 1411h61l-112 -582h444zM1636 1411h62l-275 -1411h-61zM752 61q83 0 152.5 29.5t116 81t76.5 113t44 131.5q9 55 9.5 106t-17 96t-47.5 78
t-83.5 52.5t-123.5 19.5h-445l-137 -707h455z" />
    <glyph glyph-name="uni042C" unicode="&#x42c;" horiz-adv-x="1208" 
d="M893 829q83 0 146 -22.5t98.5 -62t56 -92t19.5 -112.5t-11 -124q-16 -83 -51.5 -155t-90.5 -131.5t-137 -94.5t-182 -35h-516l275 1411h61l-112 -582h444zM752 61q83 0 152.5 29.5t116 81t76.5 113t44 131.5q9 55 9.5 106t-17 96t-47.5 78t-83.5 52.5t-123.5 19.5h-445
l-137 -707h455z" />
    <glyph glyph-name="uni042D" unicode="&#x42d;" horiz-adv-x="1370" 
d="M836 1427q115 0 214 -37t170 -103t118 -157t58 -199t-10 -229q-29 -147 -109 -280.5t-191.5 -230.5t-251.5 -154t-283 -57q-262 0 -422 174l51 45q145 -158 385 -158q167 0 325 82.5t271.5 225t155.5 313.5h-887l12 61h889q29 176 -27 323.5t-183 233.5t-298 86
q-237 0 -448 -160l-33 45q109 83 236.5 129.5t257.5 46.5z" />
    <glyph glyph-name="uni042E" unicode="&#x42e;" horiz-adv-x="2181" 
d="M1630 1427q118 0 220 -37t175 -103t122 -157t60.5 -199t-9.5 -229q-29 -147 -110.5 -280.5t-195 -230.5t-256.5 -154t-290 -57q-190 0 -332.5 92.5t-206.5 251.5t-35 350h-356l-129 -674h-62l275 1411h61l-133 -682h356q44 192 170.5 352t305.5 253t370 93zM1360 41
q179 0 345.5 88.5t281 240.5t149.5 332q35 181 -21 333.5t-188 241.5t-311 89q-178 0 -344.5 -89t-282 -241.5t-149.5 -333.5q-26 -135 1 -257t96.5 -210.5t179.5 -141t243 -52.5z" />
    <glyph glyph-name="uni042F" unicode="&#x42f;" horiz-adv-x="1243" 
d="M776 1411h516l-274 -1411h-62l113 582h-311l-527 -582h-75l522 582h-53q-83 0 -146 22.5t-99 62t-56.5 92t-19.5 112.5t11 124q16 83 51.5 155t90.5 131.5t137 94.5t182 35zM637 643h444l138 707h-455q-83 0 -152 -29.5t-115.5 -81t-76 -113t-43.5 -131.5
q-9 -55 -10 -106t16.5 -96t47.5 -78t83 -52.5t123 -19.5z" />
    <glyph glyph-name="uni0430" unicode="&#x430;" horiz-adv-x="1282" 
d="M1229 956h61l-186 -956h-62l45 236q-88 -116 -218.5 -186t-270.5 -70q-135 0 -236 66.5t-145 181.5t-18 251q26 135 115 249.5t216.5 181.5t262.5 67q140 0 243.5 -70t145.5 -186zM610 41q119 0 230 54.5t190 153.5t103 220q25 128 -14.5 231t-128.5 159t-208 56
q-118 0 -230 -58.5t-190.5 -159t-101.5 -218.5q-35 -181 67.5 -309.5t282.5 -128.5z" />
    <glyph glyph-name="uni0431" unicode="&#x431;" horiz-adv-x="1249" 
d="M829 977q102 0 186.5 -35t140 -99.5t77.5 -156t0 -205.5q-29 -148 -120 -264t-216.5 -176.5t-261.5 -60.5q-499 0 -379 620q16 82 39 159.5t60.5 163t84 159t113 141.5t144.5 117t181 79t220 33q38 1 66.5 12t42.5 22.5t42 39.5l41 -37q-48 -50 -87.5 -73t-102.5 -23
q-127 0 -240 -40t-194.5 -105t-145 -148.5t-100 -167.5t-51.5 -166q88 100 209 155.5t251 55.5zM647 41q120 0 230 53.5t189.5 155t104.5 231.5q37 195 -65 314.5t-287 119.5q-116 0 -229 -52.5t-186 -131t-89 -156.5q-18 -91 -19.5 -168t16.5 -146t58 -116.5t110 -75.5
t167 -28z" />
    <glyph glyph-name="uni0432" unicode="&#x432;" horiz-adv-x="1075" 
d="M874 510q89 -29 122 -99.5t18 -150.5q-21 -107 -112 -183.5t-216 -76.5h-508l187 956h464q121 0 181 -60.5t39 -168.5q-12 -70 -59 -130t-116 -87zM815 895h-403l-70 -358h436q80 0 137 53t72 133q15 83 -32 127.5t-140 44.5zM690 61q101 0 174.5 59t89.5 142
q18 91 -37.5 155t-158.5 64h-426l-82 -420h440z" />
    <glyph glyph-name="uni0433" unicode="&#x433;" horiz-adv-x="720" 
d="M365 956h499l-14 -61h-438l-172 -895h-62z" />
    <glyph glyph-name="uni0434" unicode="&#x434;" horiz-adv-x="987" 
d="M813 61h70l-58 -284h-61l45 223h-707l-45 -223h-59l55 282h15q84 0 143.5 68.5t85.5 202.5l123 626h567zM358 328q-41 -193 -143 -267h537l159 834h-444z" />
    <glyph glyph-name="uni0435" unicode="&#x435;" horiz-adv-x="1155" 
d="M1151 481l-6 -26h-885q-25 -186 68 -300t270 -114q113 0 217 51.5t180 143.5l47 -33q-87 -105 -206.5 -164t-249.5 -59q-205 0 -315.5 139t-67.5 362q29 147 115.5 261t207 174.5t254.5 60.5q135 0 230.5 -61t134 -175t6.5 -260zM270 510h824q28 184 -62 294.5
t-262 110.5q-174 0 -312 -109.5t-188 -295.5z" />
    <glyph glyph-name="uni0436" unicode="&#x436;" horiz-adv-x="1220" 
d="M1206 0h-88l-395 430l-82 -430h-61l82 432l-562 -432h-86l596 459l-340 497h78l324 -477l94 477h61l-94 -477l512 477h78l-537 -497z" />
    <glyph glyph-name="uni0437" unicode="&#x437;" horiz-adv-x="856" 
d="M649 514q82 -21 125 -87.5t25 -158.5q-25 -126 -140 -204t-270 -78q-103 0 -180 50t-100 134l61 27q19 -69 80.5 -110.5t144.5 -41.5q129 0 226 62t116 159q18 96 -41.5 155.5t-165.5 59.5h-104l12 58h103q88 0 151 50.5t80 133.5t-38 135.5t-159 52.5
q-71 0 -136.5 -30.5t-100.5 -79.5l-47 33q52 61 132.5 99t162.5 38q132 0 201 -69t47 -179q-14 -69 -63 -125t-122 -84z" />
    <glyph glyph-name="uni0438" unicode="&#x438;" horiz-adv-x="1116" 
d="M1059 956h65l-186 -956h-61l167 860l-802 -860h-64l187 956h61l-170 -862z" />
    <glyph glyph-name="uni0439" unicode="&#x439;" horiz-adv-x="1116" 
d="M750 1141q-113 0 -156 67t-21 174h60q-16 -85 14 -135.5t115 -50.5q77 0 129.5 48t71.5 138h59q-21 -114 -95 -177.5t-177 -63.5zM1059 956h65l-186 -956h-61l167 860l-802 -860h-64l187 956h61l-170 -862z" />
    <glyph glyph-name="uni043A" unicode="&#x43a;" horiz-adv-x="815" 
d="M809 0h-90l-397 430l-82 -430h-62l187 956h61l-94 -477l512 477h78l-535 -499z" />
    <glyph glyph-name="uni043B" unicode="&#x43b;" horiz-adv-x="1034" 
d="M420 956h622l-186 -956h-61l172 895h-498l-119 -612q-26 -134 -105 -208.5t-188 -74.5h-16l10 59h15q84 0 143 58t80 168z" />
    <glyph glyph-name="uni043C" unicode="&#x43c;" horiz-adv-x="1452" 
d="M1333 0h-59l51 854l-551 -760h-61l-252 760l-283 -854h-59l315 956h62l264 -800l571 800h60z" />
    <glyph glyph-name="uni043D" unicode="&#x43d;" horiz-adv-x="1146" 
d="M1094 956h61l-186 -956h-62l86 449h-667l-86 -449h-62l187 956h61l-88 -452h668z" />
    <glyph glyph-name="uni043E" unicode="&#x43e;" horiz-adv-x="1216" 
d="M602 -20q-102 0 -186.5 35.5t-139 100.5t-76.5 158t1 207q29 148 119 262t215 174t262 60q102 0 186 -35t139.5 -99.5t77.5 -156t0 -205.5q-29 -148 -120 -264t-216.5 -176.5t-261.5 -60.5zM614 41q120 0 230.5 53.5t190 155t104.5 231.5q37 195 -65.5 314.5
t-287.5 119.5q-121 0 -231 -52t-189 -152.5t-104 -229.5q-37 -197 64.5 -318.5t287.5 -121.5z" />
    <glyph glyph-name="uni043F" unicode="&#x43f;" horiz-adv-x="1110" 
d="M365 956h753l-186 -956h-62l172 895h-630l-172 -895h-62z" />
    <glyph glyph-name="uni0440" unicode="&#x440;" horiz-adv-x="1282" 
d="M868 977q135 0 236.5 -67t145.5 -182t18 -251q-40 -205 -215 -351t-381 -146q-140 0 -243.5 70t-143.5 186l-138 -699h-61l279 1419h61l-47 -235q88 116 218.5 186t270.5 70zM686 41q118 0 229.5 58.5t189.5 159t101 218.5q35 181 -67.5 309.5t-282.5 128.5
q-119 0 -230 -54.5t-189.5 -153.5t-102.5 -220q-20 -98 -0.5 -180t67 -141t122 -92t163.5 -33z" />
    <glyph glyph-name="uni0441" unicode="&#x441;" horiz-adv-x="1007" 
d="M600 -20q-209 0 -325.5 139.5t-73.5 361.5q29 147 119 261t214.5 174.5t260.5 60.5q168 0 290 -103l-45 -49q-107 90 -256 90q-120 0 -229.5 -52.5t-188.5 -152.5t-104 -229q-37 -196 64.5 -318t285.5 -122q154 0 293 90l29 -49q-158 -102 -334 -102z" />
    <glyph glyph-name="uni0442" unicode="&#x442;" horiz-adv-x="798" 
d="M942 956l-12 -61h-328l-172 -895h-61l172 895h-328l12 61h717z" />
    <glyph glyph-name="uni0443" unicode="&#x443;" horiz-adv-x="1009" 
d="M1075 956h68l-887 -1419h-68l279 453l-219 966h67l203 -893z" />
    <glyph glyph-name="uni0444" unicode="&#x444;" horiz-adv-x="1351" 
d="M1333 467q-44 -225 -205 -354t-426 -136l-88 -440h-61l88 440q-263 7 -374 136t-66 354q45 228 208.5 363.5t426.5 144.5l106 545h62l-107 -545q257 -9 368.5 -144.5t67.5 -363.5zM262 467q-39 -196 60 -308.5t331 -119.5l170 874q-231 -7 -375.5 -126.5t-185.5 -319.5z
M715 39q235 7 377.5 119.5t179.5 308.5q38 200 -60.5 319.5t-326.5 126.5z" />
    <glyph glyph-name="uni0445" unicode="&#x445;" horiz-adv-x="907" 
d="M874 0h-77l-250 477l-436 -477h-78l485 530l-223 426h78l196 -372l338 372h78l-387 -424z" />
    <glyph glyph-name="uni0446" unicode="&#x446;" horiz-adv-x="1114" 
d="M936 61h82l-55 -284h-62l45 223h-768l187 956h61l-176 -895h624l177 895h61z" />
    <glyph glyph-name="uni0447" unicode="&#x447;" horiz-adv-x="1001" 
d="M948 956h62l-187 -956h-61l72 369q-158 -33 -336 -33q-154 0 -227 82t-40 248l58 290h59l-55 -288q-27 -141 32 -207t187 -66q174 0 332 33z" />
    <glyph glyph-name="uni0448" unicode="&#x448;" horiz-adv-x="1554" 
d="M1501 956h62l-187 -956h-1198l187 956h61l-176 -895h506l176 895h61l-176 -895h508z" />
    <glyph glyph-name="uni0449" unicode="&#x449;" horiz-adv-x="1568" 
d="M1386 61h99l-55 -284h-62l45 223h-1235l187 956h61l-176 -895h506l176 895h61l-176 -895h508l176 895h62z" />
    <glyph glyph-name="uni044A" unicode="&#x44a;" horiz-adv-x="999" 
d="M743 571q75 0 127.5 -24t75.5 -63.5t31 -91t-6 -105.5q-11 -57 -36 -106.5t-64.5 -91t-99.5 -65.5t-134 -24h-393l172 895h-205l12 61h266l-73 -385h327zM649 61q109 0 175 64.5t85 161.5q20 98 -24 160.5t-164 62.5h-320l-86 -449h334z" />
    <glyph glyph-name="uni044B" unicode="&#x44b;" horiz-adv-x="1236" 
d="M678 571q75 0 128 -24t76 -63.5t31 -91t-6 -105.5q-11 -57 -36.5 -106.5t-65 -91t-100 -65.5t-134.5 -24h-393l187 956h61l-76 -385h328zM1184 956h61l-186 -956h-62zM584 61q109 0 176 64.5t86 161.5q20 97 -24.5 160t-164.5 63h-319l-88 -449h334z" />
    <glyph glyph-name="uni044C" unicode="&#x44c;" horiz-adv-x="933" 
d="M678 571q75 0 128 -24t76 -63.5t31 -91t-6 -105.5q-11 -57 -36.5 -106.5t-65 -91t-100 -65.5t-134.5 -24h-393l187 956h61l-76 -385h328zM584 61q109 0 176 64.5t86 161.5q20 97 -24.5 160t-164.5 63h-319l-88 -449h334z" />
    <glyph glyph-name="uni044D" unicode="&#x44d;" horiz-adv-x="1040" 
d="M621 977q139 0 241.5 -68t146 -183t17.5 -249q-40 -204 -216 -352t-386 -148q-198 0 -311 129l49 41q100 -108 276 -108q175 0 322.5 116.5t193.5 284.5h-616l12 60h619q25 173 -78.5 294t-282.5 121q-178 0 -319 -110l-35 41q170 131 367 131z" />
    <glyph glyph-name="uni044E" unicode="&#x44e;" horiz-adv-x="1550" 
d="M1133 977q102 0 186 -35t139 -99.5t76.5 -156t-0.5 -205.5q-29 -148 -120 -264t-216.5 -176.5t-261.5 -60.5q-99 0 -180.5 33.5t-137 93t-80 148.5t-10.5 194h-202l-86 -449h-62l187 956h61l-88 -452h203q50 213 218 343t374 130zM950 41q120 0 230 53.5t189 155
t104 231.5q37 195 -65.5 314.5t-287.5 119.5q-121 0 -231 -52t-189 -152.5t-104 -229.5q-37 -197 65.5 -318.5t288.5 -121.5z" />
    <glyph glyph-name="uni044F" unicode="&#x44f;" horiz-adv-x="942" 
d="M578 956h372l-186 -956h-62l74 385h-207l-364 -385h-76l363 385h-21q-61 0 -107 16t-73 44t-42.5 65t-15.5 78.5t7 85.5q24 119 110 200.5t228 81.5zM489 446h299l86 449h-311q-111 0 -177 -62t-85 -159q-20 -99 24.5 -163.5t163.5 -64.5z" />
    <glyph glyph-name="uni0451" unicode="&#x451;" horiz-adv-x="1155" 
d="M666 1214q-27 0 -42.5 17t-11.5 41q4 26 26.5 42.5t49.5 16.5q28 0 42.5 -16.5t10.5 -42.5q-5 -25 -26 -41.5t-49 -16.5zM952 1214q-26 0 -41.5 16.5t-11.5 41.5q4 26 26.5 42.5t49.5 16.5q28 0 42.5 -16.5t10.5 -42.5q-4 -25 -26 -41.5t-50 -16.5zM1151 481l-6 -26h-885
q-25 -186 68 -300t270 -114q113 0 217 51.5t180 143.5l47 -33q-87 -105 -206.5 -164t-249.5 -59q-205 0 -315.5 139t-67.5 362q29 147 115.5 261t207 174.5t254.5 60.5q135 0 230.5 -61t134 -175t6.5 -260zM270 510h824q28 184 -62 294.5t-262 110.5q-174 0 -312 -109.5
t-188 -295.5z" />
    <glyph glyph-name="Wgrave" unicode="&#x1e80;" horiz-adv-x="1859" 
d="M1282 1556h-61l-146 310h74zM2017 1411h66l-754 -1411h-76l-108 1100l-539 -1100h-76l-204 1411h63l191 -1325l540 1100h82l107 -1104z" />
    <glyph glyph-name="wgrave" unicode="&#x1e81;" horiz-adv-x="1646" 
d="M1100 1102h-62l-145 309h74zM1708 956h66l-547 -956h-64l-168 887l-506 -887h-65l-182 956h65l164 -870l498 870h78l163 -868z" />
    <glyph glyph-name="Wacute" unicode="&#x1e82;" horiz-adv-x="1859" 
d="M1526 1866l-269 -310h-61l256 310h74zM2017 1411h66l-754 -1411h-76l-108 1100l-539 -1100h-76l-204 1411h63l191 -1325l540 1100h82l107 -1104z" />
    <glyph glyph-name="wacute" unicode="&#x1e83;" horiz-adv-x="1646" 
d="M1343 1411l-268 -309h-61l256 309h73zM1708 956h66l-547 -956h-64l-168 887l-506 -887h-65l-182 956h65l164 -870l498 870h78l163 -868z" />
    <glyph glyph-name="Wdieresis" unicode="&#x1e84;" horiz-adv-x="1859" 
d="M1110 1669q-27 0 -42 16.5t-11 40.5q4 26 26.5 43t49.5 17q28 0 43 -17t10 -43q-4 -25 -26 -41t-50 -16zM1397 1669q-27 0 -42.5 16.5t-11.5 40.5q4 26 26.5 43t49.5 17q28 0 43 -17t11 -43q-4 -25 -26 -41t-50 -16zM2017 1411h66l-754 -1411h-76l-108 1100l-539 -1100
h-76l-204 1411h63l191 -1325l540 1100h82l107 -1104z" />
    <glyph glyph-name="wdieresis" unicode="&#x1e85;" horiz-adv-x="1646" 
d="M928 1214q-27 0 -43.5 17t-12.5 41q4 25 27.5 42t50.5 17q28 0 42 -16.5t9 -42.5q-5 -25 -25.5 -41.5t-47.5 -16.5zM1214 1214q-27 0 -43 17t-12 41q4 25 27.5 42t50.5 17q28 0 42 -16.5t9 -42.5q-5 -25 -25.5 -41.5t-48.5 -16.5zM1708 956h66l-547 -956h-64l-168 887
l-506 -887h-65l-182 956h65l164 -870l498 870h78l163 -868z" />
    <glyph glyph-name="uni1E9E" unicode="&#x1e9e;" horiz-adv-x="1347" 
d="M956 850q199 -19 300 -135.5t67 -288.5q-40 -201 -201 -323.5t-385 -122.5q-114 0 -209 28l31 60q74 -27 191 -27q197 0 337.5 106t174.5 279q28 145 -63.5 246t-268.5 123l-58 4l2 43l426 469q-48 24 -137.5 39.5t-167.5 15.5q-121 0 -209.5 -24.5t-158.5 -83
t-116.5 -155.5t-74.5 -241l-168 -862h-61l168 862q31 157 84 266t133.5 175t181.5 95t236 29q97 0 207.5 -24.5t175.5 -61.5l-4 -16z" />
    <glyph glyph-name="Ygrave" unicode="&#x1ef2;" horiz-adv-x="1165" 
d="M936 1556h-62l-145 310h74zM1343 1411h74l-674 -735l-131 -676h-61l131 678l-383 733h74l352 -678z" />
    <glyph glyph-name="ygrave" unicode="&#x1ef3;" horiz-adv-x="1009" 
d="M772 1102h-61l-146 309h74zM1075 956h68l-887 -1419h-68l279 453l-219 966h67l203 -893z" />
    <glyph glyph-name="endash" unicode="&#x2013;" horiz-adv-x="1206" 
d="M236 422l12 61h895l-13 -61h-894z" />
    <glyph glyph-name="emdash" unicode="&#x2014;" horiz-adv-x="1617" 
d="M236 422l12 61h1306l-12 -61h-1306z" />
    <glyph glyph-name="quoteleft" unicode="&#x2018;" horiz-adv-x="425" 
d="M307 899q31 173 109.5 336t189.5 285l43 -19q-102 -113 -177 -275.5t-103 -326.5h-62z" />
    <glyph glyph-name="quoteright" unicode="&#x2019;" horiz-adv-x="430" 
d="M317 899l-43 19q102 113 177.5 275.5t103.5 326.5h61q-31 -173 -109.5 -336t-189.5 -285z" />
    <glyph glyph-name="quotesinglbase" unicode="&#x201a;" horiz-adv-x="405" 
d="M6 -293l-41 19q101 112 176 274.5t105 327.5h61q-32 -173 -111.5 -336t-189.5 -285z" />
    <glyph glyph-name="quotedblleft" unicode="&#x201c;" horiz-adv-x="649" 
d="M307 899q31 173 109.5 336t189.5 285l43 -19q-102 -113 -177 -275.5t-103 -326.5h-62zM530 899q31 173 109.5 336t189.5 285l43 -19q-102 -113 -177 -275.5t-103 -326.5h-62z" />
    <glyph glyph-name="quotedblright" unicode="&#x201d;" horiz-adv-x="653" 
d="M317 899l-43 19q102 113 177.5 275.5t103.5 326.5h61q-31 -173 -109.5 -336t-189.5 -285zM541 899l-43 19q102 113 177 275.5t103 326.5h62q-31 -173 -109.5 -336t-189.5 -285z" />
    <glyph glyph-name="quotedblbase" unicode="&#x201e;" horiz-adv-x="628" 
d="M6 -293l-41 19q101 112 176 274.5t105 327.5h61q-32 -173 -111.5 -336t-189.5 -285zM229 -293l-43 19q103 112 178 274t105 328h61q-32 -173 -111.5 -336t-189.5 -285z" />
    <glyph glyph-name="dagger" unicode="&#x2020;" horiz-adv-x="819" 
d="M324 -276l237 1214h-276l10 61h276l82 412h62l-82 -412h276l-10 -61h-276l-238 -1214h-61z" />
    <glyph glyph-name="daggerdbl" unicode="&#x2021;" horiz-adv-x="819" 
d="M324 -276l90 466h-277l13 62h276l135 686h-276l10 61h276l82 412h62l-82 -412h276l-10 -61h-276l-136 -686h277l-12 -62h-277l-90 -466h-61z" />
    <glyph glyph-name="bullet" unicode="&#x2022;" horiz-adv-x="856" 
d="M477 252q-99 0 -156 64.5t-38 160.5t100 160.5t180 64.5t157.5 -64.5t39.5 -160.5t-101.5 -160.5t-181.5 -64.5z" />
    <glyph glyph-name="ellipsis" unicode="&#x2026;" horiz-adv-x="1230" 
d="M213 -20q-26 0 -39.5 16.5t-9.5 42.5q4 25 25 41t47 16q28 0 44.5 -16.5t12.5 -40.5q-4 -26 -27.5 -42.5t-52.5 -16.5zM608 -20q-26 0 -39.5 16.5t-9.5 42.5q4 25 25 41t47 16q28 0 44.5 -16.5t12.5 -40.5q-4 -26 -27.5 -42.5t-52.5 -16.5zM1004 -20q-26 0 -40 16.5
t-10 42.5q4 25 25 41t47 16q28 0 44.5 -16.5t12.5 -40.5q-4 -26 -27.5 -42.5t-51.5 -16.5z" />
    <glyph glyph-name="perthousand" unicode="&#x2030;" horiz-adv-x="1773" 
d="M494 885q-104 0 -160.5 70.5t-36.5 174.5q20 103 105.5 175.5t189.5 72.5q103 0 161 -72.5t38 -175.5t-106.5 -174t-190.5 -71zM219 0l928 1360h65l-923 -1360h-70zM508 946q77 0 141.5 53t79.5 131q15 77 -29 132t-120 55q-78 0 -142.5 -55t-79.5 -132
q-15 -78 28.5 -131t121.5 -53zM854 -18q-104 0 -161.5 70.5t-37.5 174.5q20 103 105.5 175.5t189.5 72.5q103 0 161 -72.5t38 -175.5q-20 -104 -106 -174.5t-189 -70.5zM1454 -18q-104 0 -161.5 70.5t-37.5 174.5q20 103 105.5 175.5t189.5 72.5q103 0 161 -72.5t38 -175.5
q-20 -104 -106 -174.5t-189 -70.5zM866 43q77 0 141.5 53t79.5 131q15 76 -29.5 131.5t-121.5 55.5t-140.5 -55t-78.5 -132q-15 -78 28 -131t121 -53zM1466 43q77 0 142 53.5t80 130.5q15 76 -30 131.5t-122 55.5t-140.5 -55t-78.5 -132q-15 -78 28 -131t121 -53z" />
    <glyph glyph-name="guilsinglleft" unicode="&#x2039;" horiz-adv-x="579" 
d="M403 51l-200 424l364 424h74l-365 -424l203 -424h-76z" />
    <glyph glyph-name="guilsinglright" unicode="&#x203a;" horiz-adv-x="579" 
d="M121 51l366 424l-198 424h73l199 -424l-364 -424h-76z" />
    <glyph glyph-name="fraction" unicode="&#x2044;" horiz-adv-x="368" 
d="M-322 -20l1190 1398h74l-1190 -1398h-74z" />
    <glyph glyph-name="uni2070" unicode="&#x2070;" horiz-adv-x="712" 
d="M563 1073q-61 0 -103.5 20t-64.5 53.5t-30 84t-4.5 104.5t16.5 121t30.5 121.5t45.5 104.5t63.5 83.5t85.5 53.5t111 20q76 0 123 -29.5t65 -84t17 -119.5t-17 -150q-16 -84 -41 -149.5t-64.5 -120t-98 -84t-134.5 -29.5zM575 1133q47 0 86.5 17t67.5 45.5t50.5 70.5
t37 88t25.5 102q64 326 -142 326q-59 0 -104.5 -25t-76 -72t-50 -102t-33.5 -127q-16 -91 -15.5 -163t39 -116t115.5 -44z" />
    <glyph glyph-name="uni2074" unicode="&#x2074;" horiz-adv-x="681" 
d="M870 1303l-10 -60h-115l-32 -158h-60l33 158h-393l2 17l549 569h14l-102 -526h114zM403 1303h293l74 383z" />
    <glyph glyph-name="uni2075" unicode="&#x2075;" horiz-adv-x="655" 
d="M645 1546q102 0 155.5 -63.5t33.5 -165.5q-22 -108 -106.5 -176t-192.5 -68q-84 0 -142 41t-82 111l56 26q18 -54 64 -87.5t112 -33.5q85 0 149.5 51t81.5 134q15 79 -27 127.5t-122 48.5q-93 0 -215 -61l-25 32l135 367h365l-13 -57h-313l-102 -277q100 51 188 51z" />
    <glyph glyph-name="uni2076" unicode="&#x2076;" horiz-adv-x="686" 
d="M662 1552q106 0 160.5 -69t35.5 -168q-20 -94 -99 -168t-200 -74q-125 0 -176.5 81.5t-20.5 234.5q91 450 369 450q156 0 191 -137l-58 -25q-31 105 -143 105q-48 0 -90 -20.5t-73 -53t-55.5 -77t-39 -89.5t-23.5 -92q36 46 97.5 74t124.5 28zM567 1133q86 0 151 54
t79 130q14 75 -28 126.5t-122 51.5q-74 0 -143.5 -40.5t-85.5 -119.5q-19 -98 25 -150t124 -52z" />
    <glyph glyph-name="uni2077" unicode="&#x2077;" horiz-adv-x="595" 
d="M430 1829h479l-2 -8l-549 -736h-69l510 687h-381z" />
    <glyph glyph-name="uni2078" unicode="&#x2078;" horiz-adv-x="688" 
d="M748 1518q66 -25 97 -83t17 -130q-20 -99 -108 -165.5t-201 -66.5q-114 0 -176.5 67t-42.5 165q14 72 67 130t129 83q-36 21 -52 58.5t-7 86.5q14 75 78.5 125.5t150.5 50.5q87 0 133.5 -50.5t32.5 -125.5q-9 -49 -40 -86.5t-78 -58.5zM690 1782q-58 0 -103.5 -36
t-54.5 -87q-9 -52 21.5 -87t89.5 -36q60 2 106.5 37t55.5 86t-24 87t-91 36zM563 1133q87 0 155 50t83 124q15 75 -33.5 126.5t-134.5 51.5q-87 0 -154 -51t-82 -125q-15 -75 32.5 -125.5t133.5 -50.5z" />
    <glyph glyph-name="uni2079" unicode="&#x2079;" horiz-adv-x="686" 
d="M694 1839q123 0 174 -83.5t23 -231.5q-9 -46 -20.5 -87.5t-32 -97t-49 -99.5t-66 -83.5t-90 -61.5t-113.5 -22q-154 0 -188 139l59 23q26 -102 141 -102q59 0 109.5 30t84.5 80t56 105.5t33 115.5q-36 -49 -95.5 -76.5t-123.5 -27.5q-108 0 -164 69t-37 168
q19 95 98.5 168.5t200.5 73.5zM606 1417q74 0 144 40.5t86 119.5q19 97 -26 150t-126 53q-85 0 -149 -54.5t-78 -130.5q-14 -75 27.5 -126.5t121.5 -51.5z" />
    <glyph glyph-name="uni207A" unicode="&#x207a;" horiz-adv-x="610" 
d="M805 1407l-12 -57h-197l-39 -197h-57l39 197h-197l12 57h197l37 195h57l-37 -195h197z" />
    <glyph glyph-name="uni207B" unicode="&#x207b;" horiz-adv-x="688" 
d="M371 1354l12 57h471l-12 -57h-471z" />
    <glyph glyph-name="uni207C" unicode="&#x207c;" horiz-adv-x="733" 
d="M395 1450l13 59h507l-12 -59h-508zM350 1219l10 59h508l-10 -59h-508z" />
    <glyph glyph-name="uni207D" unicode="&#x207d;" horiz-adv-x="442" 
d="M555 905q-129 6 -181.5 140.5t-8.5 363.5q44 228 149.5 363t237.5 141l-9 -53q-105 -5 -193.5 -127t-127.5 -324q-39 -204 0 -326t143 -127z" />
    <glyph glyph-name="uni207E" unicode="&#x207e;" horiz-adv-x="442" 
d="M238 905l12 51q104 5 191 127.5t126 325.5q39 202 0 324t-141 127l8 53q129 -6 183 -141.5t10 -362.5q-44 -228 -150 -363t-239 -141z" />
    <glyph glyph-name="colonmonetary" unicode="&#x20a1;" horiz-adv-x="1257" 
d="M756 82q214 0 403 141l33 -45q-208 -158 -447 -158q-83 0 -163 23l-95 -188l-47 18l95 188q-84 32 -138 86l-112 -229l-47 19l120 247q-83 93 -114.5 221t-1.5 273q35 166 133.5 308t240 233t299.5 112l113 232l49 -19l-102 -207h26q77 0 144 -18l86 180l49 -18l-84 -176
q116 -44 193 -127l-52 -45q-72 78 -172 112l-557 -1143q67 -20 148 -20zM426 211q61 -61 135 -90l553 1141q-55 14 -125 14q-29 0 -45 -2zM303 678q-49 -252 88 -426l492 1014q-209 -39 -373.5 -204t-206.5 -384z" />
    <glyph glyph-name="lira" unicode="&#x20a4;" horiz-adv-x="1273" 
d="M731 612l-12 -57h-483l12 57h174l76 383q33 166 171.5 271.5t299.5 105.5q153 0 242 -92t71 -244h-61q13 125 -62 200t-201 75q-137 0 -255.5 -88.5t-145.5 -227.5l-76 -383h250zM1157 244h62l-17 -88q-12 -66 -64 -111t-114 -45h-932l10 61h211l68 336h-174l10 58h483
l-10 -58h-248l-67 -336h659q37 0 68.5 27.5t38.5 67.5z" />
    <glyph glyph-name="uni20A6" unicode="&#x20a6;" horiz-adv-x="1538" 
d="M1583 770h-182l-33 -178h182l-12 -55h-182l-103 -537h-77l-248 537h-479l-103 -537h-61l102 537h-182l12 55h182l33 178h-182l12 55h182l105 535h78l243 -535h482l104 535h62l-105 -535h182zM592 1272l-86 -447h291zM461 592h442l-82 178h-327zM1307 592l32 178h-446
l84 -178h330zM1206 84l88 453h-295z" />
    <glyph glyph-name="peseta" unicode="&#x20a7;" horiz-adv-x="2615" 
d="M1044 1411q80 0 141 -23t96 -62.5t55.5 -93t20 -113.5t-10.5 -124q-16 -83 -52 -154.5t-92 -130.5t-141 -93.5t-189 -34.5h-473l-112 -582h-62l275 1411h544zM1776 1362l-78 -406h237l-12 -55h-237l-175 -901h-61l174 901h-174l12 55h174l78 406h62zM885 643
q87 0 158.5 29t119 80t77.5 111.5t44 131.5q9 55 9.5 106t-16.5 96.5t-46.5 79.5t-80.5 53.5t-118 19.5h-483l-137 -707h473zM2380 504q116 -29 158.5 -97.5t23.5 -158.5q-23 -121 -126.5 -194.5t-252.5 -73.5q-124 0 -206.5 63t-82.5 180h62q6 -35 20 -64.5t40.5 -57.5
t73 -44t108.5 -16q120 0 202 57t101 150q28 149 -146 196l-137 33q-220 52 -182 248q21 113 119 182.5t227 69.5q119 0 187 -63.5t59 -170.5h-62q3 78 -50.5 125t-145.5 47q-103 0 -179.5 -51.5t-93.5 -134.5q-29 -151 146 -192z" />
    <glyph glyph-name="uni20A8" unicode="&#x20a8;" horiz-adv-x="1138" 
d="M965 1298q99 -80 102 -245h201l-41 -62h-166q0 -23 -6 -47q-16 -83 -51.5 -154.5t-91 -131t-140 -94t-188.5 -34.5h-17l271 -530h-74l-272 530h-244l10 62h336q87 0 158.5 29t119 80t77.5 111.5t44 131.5q6 24 6 47h-663l14 62h654q-5 113 -72.5 179t-190.5 66h-346
l15 62h917l-41 -62h-321z" />
    <glyph glyph-name="uni20A9" unicode="&#x20a9;" horiz-adv-x="1945" 
d="M2099 1360l-287 -535h166l-12 -55h-184l-94 -178h245l-12 -55h-264l-285 -537h-76l-55 537h-332l-260 -537h-76l-79 537h-265l13 55h245l-28 178h-185l13 55h166l-78 535h63l78 -535h469l176 361h82l35 -361h471l285 535h65zM1186 1100l-133 -275h161zM522 770l29 -178
h321l84 178h-434zM938 592h299l-20 178h-193zM1624 592l92 178h-434l21 -178h321zM623 86l221 451h-287zM1352 82l241 455h-286z" />
    <glyph glyph-name="uni20AA" unicode="&#x20aa;" horiz-adv-x="1595" 
d="M225 0l264 1360h379q185 0 277 -115.5t59 -286.5l-98 -507h-64l101 507q28 144 -50.5 242t-236.5 98h-317l-252 -1298h-62zM991 0q-185 0 -277 115t-59 286l99 508h61l-98 -508q-28 -145 49 -242.5t235 -97.5h318l254 1299h61l-264 -1360h-379z" />
    <glyph glyph-name="dong" unicode="&#x20ab;" horiz-adv-x="1349" 
d="M1518 1305l-13 -58h-159l-220 -1130h-61l45 235q-88 -116 -218.5 -186t-270.5 -70q-135 0 -236.5 67t-145.5 182t-18 251q26 135 115 249.5t216.5 181.5t262.5 67q140 0 243.5 -70t145.5 -186l80 409h-461l13 58h460l41 215h62l-41 -215h160zM633 158q183 0 335 122.5
t187 305.5q20 98 0.5 180t-66.5 141t-121 92t-163 33q-118 0 -230 -58.5t-190.5 -159t-101.5 -218.5q-35 -181 67.5 -309.5t282.5 -128.5zM225 -129l11 57h806l-10 -57h-807z" />
    <glyph glyph-name="Euro" unicode="&#x20ac;" horiz-adv-x="1552" 
d="M1147 793l-10 -58h-914l10 58h205q96 254 318.5 419.5t478.5 165.5q130 0 239.5 -46.5t184.5 -129.5l-49 -45q-150 160 -387 160q-229 0 -430 -148t-293 -376h647zM975 41q236 0 444 158l33 -45q-228 -174 -491 -174q-170 0 -300.5 76.5t-199.5 210.5t-66 302h-205l13 58
h913l-12 -58h-647q-2 -229 142.5 -378.5t375.5 -149.5z" />
    <glyph glyph-name="uni20AE" unicode="&#x20ae;" horiz-adv-x="1155" 
d="M1343 1298h-479l-88 -456l285 182l-12 -68l-287 -182l-23 -115l287 183l-14 -68l-285 -182l-115 -592h-61l104 545l-284 -183l12 68l287 182l22 115l-286 -182l14 67l285 183l98 503h-477l12 62h1018z" />
    <glyph glyph-name="uni20B1" unicode="&#x20b1;" horiz-adv-x="1325" 
d="M1466 1118l-10 -55h-178q-4 -44 -8 -72q-4 -25 -19 -67h176l-8 -56h-188q-56 -113 -162 -182.5t-264 -69.5h-379l-119 -616h-61l170 868h-131l8 56h131l29 139h-131l10 55h131l47 242h451q151 0 228 -66.5t87 -175.5h190zM559 1298l-35 -180h688q-14 82 -79 131t-185 49
h-389zM1208 991q6 37 9 72h-703l-29 -139h703q14 32 20 67zM817 678q126 0 214 52t134 138h-688l-39 -190h379z" />
    <glyph glyph-name="uni20B4" unicode="&#x20b4;" horiz-adv-x="1148" 
d="M895 793h268l-10 -58h-856l10 58h502l172 139q43 37 63.5 57t43 54.5t30.5 72.5q17 84 -34.5 133t-153.5 49h-463l12 62h463q130 0 195.5 -66t42.5 -178q-3 -17 -8.5 -33.5t-10.5 -29t-15 -28t-15.5 -24t-19.5 -24t-19.5 -21.5t-23 -22t-22 -20t-25 -21.5t-24.5 -20.5z
M262 567l10 58h856l-10 -58h-540l-172 -139q-44 -38 -64 -57t-43 -54t-31 -73q-17 -84 35 -133.5t154 -49.5h504l-11 -61h-504q-130 0 -196 66t-43 178q3 17 8.5 33t10.5 29t15 28t15.5 24t19.5 24t19 21t22.5 22t22 20t25 21t24.5 21l103 80h-230z" />
    <glyph glyph-name="uni20BA" unicode="&#x20ba;" horiz-adv-x="1220" 
d="M1212 831h62l-25 -129q-60 -316 -259.5 -509t-465.5 -193h-258l131 682l-178 -115l12 68l179 115l22 114l-178 -114l14 67l178 115l84 428h62l-74 -383l391 252l-12 -68l-393 -252l-23 -114l393 252l-14 -68l-391 -252l-131 -666h197q238 0 418 176.5t235 464.5z" />
    <glyph glyph-name="uni20BD" unicode="&#x20bd;" horiz-adv-x="1165" 
d="M811 616h-379l-37 -184h574l-11 -61h-573l-72 -371h-61l72 371h-140l11 61h139l37 184h-140l13 62h139l135 682h451q80 0 141.5 -20.5t96.5 -56t56.5 -82.5t21.5 -100t-9 -110q-15 -74 -49 -138.5t-89 -119t-139.5 -86t-187.5 -31.5zM954 1298h-389l-121 -620h379
q87 0 158 26t117.5 71t75 99t40.5 117q8 49 7 93.5t-19 83.5t-48 68t-81.5 45.5t-118.5 16.5z" />
    <glyph glyph-name="uni2113" unicode="&#x2113;" horiz-adv-x="761" 
d="M502 446h-185l-28 -143q-12 -69 -8.5 -123t40.5 -86.5t107 -32.5h180l-12 -61h-180q-71 0 -116.5 23.5t-63.5 64.5t-21 96t12 119l160 823q13 68 35 119.5t57.5 94t89.5 65t125 22.5q238 0 180 -301l-71 -376q-27 -139 -100.5 -221.5t-200.5 -82.5zM680 1368
q-103 0 -155.5 -63.5t-75.5 -178.5l-121 -618h186q179 0 227 242l74 376q22 110 -9 176t-126 66z" />
    <glyph glyph-name="uni2116" unicode="&#x2116;" horiz-adv-x="1947" 
d="M1821 969q-95 0 -149.5 67t-35.5 162q19 96 99 162.5t176 66.5q97 0 150 -66t34 -163q-19 -96 -98.5 -162.5t-175.5 -66.5zM1147 86l260 1325h61l-274 -1411h-78l-573 1319l-256 -1319h-62l275 1411h78zM1896 1366q-69 0 -127 -49t-71 -119q-14 -69 25 -118.5t108 -49.5
q70 0 129.5 49.5t73.5 118.5q13 70 -27 119t-111 49zM1573 827l10 56h440l-10 -56h-440z" />
    <glyph glyph-name="uni2117" unicode="&#x2117;" horiz-adv-x="1665" 
d="M1108 1427q196 0 342 -97.5t208.5 -264t24.5 -363.5q-38 -196 -166 -362.5t-312 -263t-380 -96.5q-147 0 -268.5 57t-197.5 154t-106 230.5t-1 280.5q38 197 165.5 363.5t311 264t379.5 97.5zM838 41q179 0 347.5 88.5t285.5 240.5t151 332q35 180 -22.5 332.5t-191 242
t-312.5 89.5t-347.5 -89.5t-285 -242t-150.5 -332.5q-26 -135 1.5 -257t97.5 -210.5t181 -141t245 -52.5zM1106 1075q113 0 154 -69t22 -170q-9 -46 -28 -85.5t-50.5 -75t-81.5 -56.5t-112 -21h-205l-49 -260h-62l142 737h270zM1022 659q84 0 134 50.5t65 126.5
q15 75 -14 126.5t-111 51.5h-209l-70 -355h205z" />
    <glyph glyph-name="uni2120" unicode="&#x2120;" horiz-adv-x="2007" 
d="M676 1020q215 -55 182 -225q-19 -93 -109 -167.5t-223 -74.5q-114 0 -176 68t-53 161h61q-5 -70 43.5 -120t135.5 -50q106 0 176.5 55.5t83.5 125.5q13 68 -29.5 110.5t-116.5 59.5l-112 26q-185 43 -156 207q20 98 112 161.5t197 63.5q106 0 167 -60t46 -159h-61
q10 73 -36.5 117.5t-129.5 44.5q-80 0 -150.5 -48t-83.5 -120q-20 -115 121 -149zM1964 565h-59l53 742l-453 -658h-59l-195 658l-239 -742h-60l273 846h59l205 -700l477 700h57z" />
    <glyph glyph-name="trademark" unicode="&#x2122;" horiz-adv-x="1955" 
d="M332 1354l12 57h617l-13 -57h-278l-154 -789h-61l153 789h-276zM1903 565h-62l51 742l-450 -658h-60l-196 658l-236 -742h-61l272 846h62l200 -698l480 698h59z" />
    <glyph glyph-name="estimated" unicode="&#x212e;" horiz-adv-x="1351" 
d="M678 -20q-98 0 -180 31t-137 85t-90.5 129t-41.5 163t11 185q32 164 125 298t239 215t316 81q102 0 185.5 -31t138.5 -86t90 -130t39.5 -163t-11.5 -186h-879l-75 -395q107 -129 284 -129q82 0 153.5 20t130.5 59t103 80.5t95 100.5l55 -39q-117 -140 -245 -214t-306 -74
zM498 639h632l64 334q-49 55 -125.5 91t-161.5 36q-198 0 -346 -127z" />
    <glyph glyph-name="oneeighth" unicode="&#x215b;" horiz-adv-x="1466" 
d="M1278 1378h74l-1192 -1398h-74zM342 618l129 664l-176 -72l10 60l238 102h4l-146 -754h-59zM1313 432q66 -25 97 -83t17 -130q-19 -99 -107 -165t-202 -66t-176 66t-43 165q14 72 67.5 130t129.5 83q-36 21 -52.5 59t-7.5 87q14 74 79.5 125t152.5 51q86 0 132 -50.5
t32 -125.5q-9 -49 -40.5 -87t-78.5 -59zM1257 696q-58 0 -104 -36t-55 -87q-9 -52 21 -86.5t89 -35.5q60 2 106.5 36.5t55.5 85.5q9 52 -23 87.5t-90 35.5zM1128 47q87 0 155 50t83 124q15 75 -33.5 126.5t-134.5 51.5t-152 -50.5t-81 -125.5t31 -125.5t132 -50.5z" />
    <glyph glyph-name="threeeighths" unicode="&#x215c;" horiz-adv-x="1701" 
d="M1516 1378h73l-1192 -1398h-73zM719 827q-19 -97 -103.5 -158t-197.5 -61q-77 0 -132.5 39.5t-72.5 106.5l55 26q13 -53 57 -83.5t103 -30.5q87 0 151.5 44t77.5 115q13 73 -27 118.5t-114 45.5h-76l13 55h73q61 0 105.5 37t56.5 97q12 62 -23.5 99.5t-105.5 37.5
q-46 0 -93 -23t-77 -59l-35 33q35 47 95.5 76.5t121.5 29.5q97 0 145.5 -53t31.5 -139q-11 -53 -46.5 -96.5t-85.5 -63.5q58 -18 87 -70t16 -123zM1550 432q66 -25 97.5 -83t17.5 -130q-19 -99 -107 -165t-202 -66t-176 66t-43 165q14 72 67 130t129 83q-36 21 -52 59t-7 87
q14 75 79 125.5t152 50.5q86 0 132 -50.5t32 -125.5q-9 -49 -40.5 -87t-78.5 -59zM1493 696q-58 0 -103.5 -36t-54.5 -87q-9 -52 21.5 -86.5t89.5 -35.5q60 2 106.5 36.5t55.5 85.5t-24 87t-91 36zM1366 47q87 0 155 50t83 124q15 75 -33.5 126.5t-134.5 51.5
q-87 0 -154 -51t-82 -125q-15 -75 32.5 -125.5t133.5 -50.5z" />
    <glyph glyph-name="fiveeighths" unicode="&#x215d;" horiz-adv-x="1712" 
d="M1526 1378h73l-1191 -1398h-74zM743 850q-22 -108 -107.5 -176t-193.5 -68q-83 0 -140 41t-83 111l57 26q18 -54 63.5 -87t111.5 -33q86 0 151 51t82 133q15 79 -27 127.5t-122 48.5q-96 0 -218 -61l-22 32l135 367h365l-13 -57h-313l-104 -277q100 51 190 51
q102 0 155 -63.5t33 -165.5zM1561 432q66 -25 97 -83t17 -130q-19 -99 -107 -165t-202 -66t-176 66t-43 165q14 72 67 130t129 83q-36 21 -52 59t-7 87q14 74 79.5 125t152.5 51q86 0 131.5 -50.5t31.5 -125.5q-9 -49 -40.5 -87t-77.5 -59zM1505 696q-58 0 -104 -36t-55 -87
q-9 -52 21 -86.5t89 -35.5q60 2 106.5 36.5t55.5 85.5q9 52 -23 87.5t-90 35.5zM1376 47q87 0 155 50t83 124q15 75 -33.5 126.5t-134.5 51.5q-87 0 -154 -51t-82 -125q-15 -75 32.5 -125.5t133.5 -50.5z" />
    <glyph glyph-name="seveneighths" unicode="&#x215e;" horiz-adv-x="1523" 
d="M1366 1378h74l-1192 -1398h-74zM307 618h-69l510 687h-381l10 57h479l-2 -8zM1372 432q66 -25 97.5 -83t17.5 -130q-19 -99 -107 -165t-202 -66t-176.5 66t-43.5 165q14 72 67.5 130t129.5 83q-36 21 -52 59t-7 87q14 75 79 125.5t152 50.5q86 0 132 -50.5t32 -125.5
q-9 -49 -40.5 -87t-78.5 -59zM1317 696q-58 0 -104.5 -36t-55.5 -87q-9 -52 21.5 -86.5t89.5 -35.5q60 2 106.5 36.5t55.5 85.5q9 52 -23 87.5t-90 35.5zM1188 47q87 0 154.5 50t82.5 124q15 75 -33.5 126.5t-134.5 51.5t-152 -50.5t-81 -125.5t31.5 -125.5t132.5 -50.5z
" />
    <glyph glyph-name="arrowleft" unicode="&#x2190;" horiz-adv-x="1697" 
d="M1714 737l-12 -61h-1350l324 -400l-51 -40l-381 475l567 475l33 -41l-486 -408h1356z" />
    <glyph glyph-name="arrowup" unicode="&#x2191;" horiz-adv-x="1073" 
d="M1204 999l-49 -43l-321 402l-263 -1358h-61l264 1364l-487 -408l-33 43l567 474z" />
    <glyph glyph-name="arrowright" unicode="&#x2192;" horiz-adv-x="1697" 
d="M1350 1186l379 -475l-566 -475l-37 40l482 400h-1350l10 61h1356l-328 408z" />
    <glyph glyph-name="arrowdown" unicode="&#x2193;" horiz-adv-x="1073" 
d="M1059 455l31 -43l-568 -473l-383 473l51 43l326 -408l266 1364h62l-264 -1358z" />
    <glyph glyph-name="arrowboth" unicode="&#x2194;" horiz-adv-x="2078" 
d="M1733 1174l383 -476l-566 -475l-34 39l483 410l-1659 -2l330 -408l-54 -41l-378 475l565 478l35 -41l-480 -402l1649 2l-326 400z" />
    <glyph glyph-name="arrowupdn" unicode="&#x2195;" horiz-adv-x="1101" 
d="M561 -68l490 408l30 -43l-567 -473l-383 473l51 43l320 -401l321 1648l-477 -401l-33 43l568 473l383 -473l-50 -43l-327 407z" />
    <glyph glyph-name="partialdiff" unicode="&#x2202;" horiz-adv-x="1107" 
d="M885 1378q81 0 140 -22.5t94 -60t52 -94t19 -114.5t-9.5 -133.5t-27.5 -139.5t-42.5 -143t-48 -134t-48.5 -121q-78 -193 -232 -314.5t-325 -121.5q-177 0 -259.5 113t-33.5 290q58 185 212.5 312.5t330.5 127.5q124 0 214.5 -68t96.5 -190q90 269 105 434t-47.5 245.5
t-209.5 80.5zM948 418q45 153 -30 249.5t-228 96.5q-151 0 -284 -110t-179 -267q-43 -152 28 -249t222 -97q148 0 283.5 108t187.5 269z" />
    <glyph glyph-name="emptyset" unicode="&#x2205;" horiz-adv-x="1685" 
d="M1602 1192q68 -99 91 -223t-3 -267q-29 -147 -110.5 -280.5t-195 -230.5t-256.5 -154t-290 -57q-140 0 -255.5 51t-193.5 143l-213 -176l-29 45l209 174q-142 204 -86 485q38 198 164.5 364.5t308.5 263.5t377 97q140 0 255.5 -51t193.5 -143l211 176l32 -41zM332 702
q-49 -254 78 -440l1108 928q-155 176 -410 176q-178 0 -344.5 -89t-282 -241.5t-149.5 -333.5zM850 41q179 0 346 88.5t282 240.5t150 332q24 130 3.5 243t-81.5 202l-1110 -928q72 -85 177.5 -131.5t232.5 -46.5z" />
    <glyph glyph-name="product" unicode="&#x220f;" horiz-adv-x="1478" 
d="M1526 1411l-340 -1741h-62l330 1686h-901l-330 -1686h-61l340 1741h1024z" />
    <glyph glyph-name="summation" unicode="&#x2211;" horiz-adv-x="1157" 
d="M1358 1411l-10 -55h-934l385 -813l-703 -817h934l-12 -56h-1012l10 45l713 828l-391 823l8 45h1012z" />
    <glyph glyph-name="minus" unicode="&#x2212;" horiz-adv-x="1169" 
d="M262 508l12 61h842l-12 -61h-842z" />
    <glyph glyph-name="radical" unicode="&#x221a;" horiz-adv-x="1187" 
d="M1458 1688h66l-1000 -2018h-90l-102 971h-209l12 55h258l103 -956z" />
    <glyph glyph-name="infinity" unicode="&#x221e;" horiz-adv-x="1765" 
d="M1499 915q136 0 205 -87.5t43 -225.5t-131 -225.5t-242 -87.5q-161 0 -276 145l-107 125l-155 -125q-176 -145 -338 -145q-136 0 -206 87.5t-44 225.5q26 137 132 225t243 88q164 0 276 -145l107 -129l155 129q173 145 338 145zM803 471l155 129l-106 133
q-96 121 -244 121q-111 0 -193.5 -68.5t-105.5 -183.5q-23 -114 34 -183t169 -69q138 0 291 121zM1389 350q111 0 192.5 68.5t104.5 183.5q23 114 -33.5 183t-167.5 69q-146 0 -289 -121l-158 -133l105 -129q102 -121 246 -121z" />
    <glyph glyph-name="integral" unicode="&#x222b;" horiz-adv-x="620" 
d="M805 1520h69l-10 -62h-69q-143 0 -232 -97t-92 -243l-27 -1046q-5 -172 -113.5 -287t-285.5 -115h-68l13 62h67q143 0 233 97.5t93 242.5l25 1046q5 174 112.5 288t284.5 114z" />
    <glyph glyph-name="approxequal" unicode="&#x2248;" horiz-adv-x="1402" 
d="M1376 760q-62 -50 -144.5 -85.5t-158.5 -35.5q-42 0 -83.5 9t-60.5 16t-59 26t-45 21q-7 3 -42 20.5t-54.5 25.5t-57.5 16.5t-77 8.5q-59 0 -132 -29.5t-136 -78.5l-23 49q62 50 144.5 85.5t158.5 35.5q42 0 82.5 -8.5t61.5 -16.5t57.5 -25.5t46.5 -21.5l42 -21t54 -25.5
t58 -17t77 -8.5q59 0 133.5 30t133.5 79zM1315 371q-64 -50 -146.5 -85.5t-158.5 -35.5q-42 0 -83.5 9t-60.5 16t-59 26t-45 21q-9 4 -43.5 21t-55 25t-58.5 16.5t-77 8.5q-59 0 -131 -29.5t-135 -78.5l-24 49q62 50 145.5 85.5t159.5 35.5q42 0 83.5 -9t60.5 -16t59 -26
t45 -21q11 -5 43.5 -21t53 -25t58 -17.5t76.5 -8.5q59 0 132 30t134 79z" />
    <glyph glyph-name="notequal" unicode="&#x2260;" horiz-adv-x="1241" 
d="M203 33l213 221h-205l12 61h252l359 375h-539l14 62h586l197 204h73l-196 -204h254l-15 -62h-301l-358 -375h588l-13 -61h-635l-213 -221h-73z" />
    <glyph glyph-name="lessequal" unicode="&#x2264;" horiz-adv-x="1304" 
d="M1200 184l-964 400l14 73l1120 400l-12 -66l-1041 -373l895 -368zM141 0l11 61h1024l-11 -61h-1024z" />
    <glyph glyph-name="greaterequal" unicode="&#x2265;" horiz-adv-x="1304" 
d="M174 184l12 66l1043 368l-897 373l12 66l965 -400l-15 -73zM139 0l11 61h1024l-11 -61h-1024z" />
    <glyph glyph-name="filledbox" unicode="&#x25a0;" horiz-adv-x="1429" 
d="M412 1264h1101l-217 -1102h-1101z" />
    <glyph glyph-name="uni25A1" unicode="&#x25a1;" horiz-adv-x="1228" 
d="M412 1264h1101l-217 -1102h-1101zM459 1202l-191 -979h979l191 979h-979z" />
    <glyph glyph-name="triagup" unicode="&#x25b2;" horiz-adv-x="1595" 
d="M190 141l848 1096l420 -1098z" />
    <glyph glyph-name="uni25B6" unicode="&#x25b6;" horiz-adv-x="1425" 
d="M434 1378l973 -633l-1223 -636z" />
    <glyph glyph-name="triagdn" unicode="&#x25bc;" horiz-adv-x="1595" 
d="M403 1235l1268 2l-850 -1098z" />
    <glyph glyph-name="uni25C0" unicode="&#x25c0;" horiz-adv-x="1425" 
d="M1530 1378l-248 -1269l-973 636z" />
    <glyph glyph-name="lozenge" unicode="&#x25ca;" horiz-adv-x="1228" 
d="M864 1454l316 -729l-598 -725h-41l-316 725l598 729h41zM575 72l539 653l-285 653l-538 -653z" />
    <glyph glyph-name="circle" unicode="&#x25cb;" horiz-adv-x="1421" 
d="M1460 723q-32 -165 -141.5 -305t-266 -221.5t-321.5 -81.5t-289 81.5t-177 221.5t-21 305t141 305t265 221.5t321 81.5t289.5 -81.5t178 -221.5t21.5 -305zM1399 723q29 148 -20.5 274t-162 199.5t-260.5 73.5t-287.5 -73.5t-237 -199.5t-126.5 -274t20 -274
t160.5 -199.5t259.5 -73.5t288.5 73.5t238.5 199.5t127 274z" />
    <glyph glyph-name="uni2605" unicode="&#x2605;" horiz-adv-x="1800" 
d="M1296 512l74 -563l-414 348l-546 -348l292 563l-411 350h594l293 565l73 -565h594z" />
    <glyph glyph-name="uni2610" unicode="&#x2610;" horiz-adv-x="1323" 
d="M657 -12q-152 0 -266 75t-163.5 203.5t-20.5 280.5q29 151 129.5 279.5t244.5 203t296 74.5q114 0 208.5 -44t154 -119t83.5 -178t2 -216q-29 -152 -129 -281t-243.5 -203.5t-295.5 -74.5zM670 41q136 0 266 68.5t221 185t117 252.5q26 135 -19.5 251t-149 184.5
t-239.5 68.5t-266 -68.5t-221 -184.5t-117 -251q-26 -136 20 -252.5t149 -185t239 -68.5z" />
    <glyph glyph-name="uni2611" unicode="&#x2611;" horiz-adv-x="1427" 
d="M1595 1391l-350 -457q60 -76 81.5 -176t0.5 -211q-30 -152 -130.5 -281t-244 -203.5t-295.5 -74.5t-266 75t-163.5 203.5t-20.5 280.5q29 151 129.5 279.5t244.5 203t296 74.5q201 0 333 -129l336 440zM1274 547q37 189 -66 336l-512 -666h-18l-248 475l62 31l210 -410
l469 613q-119 125 -305 125q-136 0 -266 -68.5t-221 -184.5t-117 -251q-26 -136 20 -252.5t149 -185t239 -68.5t266 68.5t221 185t117 252.5z" />
    <glyph glyph-name="uni261C" unicode="&#x261c;" horiz-adv-x="2050" 
d="M250 940q15 63 62 100t118 37l709 -2l-27 96q-19 48 9.5 110.5t70.5 84.5q34 17 61.5 23.5t58.5 2.5t61 -28.5t59 -69.5l274 -444l12 70q6 35 38 61.5t69 26.5h174q34 0 54.5 -27.5t14.5 -60.5l-161 -832q-6 -32 -38.5 -60t-66.5 -28h-174q-36 0 -57 26t-15 62l19 94
h-793q-80 10 -111.5 47t-15.5 90q13 40 43 62q-144 19 -98 149q11 33 31 56q-129 41 -88 145q19 46 45 66l-211 4q-74 2 -109 37.5t-18 101.5zM401 887l576 -10q88 -1 120.5 -48t12.5 -116q-19 -60 -43 -74q62 -8 81.5 -45t10.5 -84q-7 -36 -28.5 -63t-51.5 -39
q36 -10 38 -59t-21 -81l495 -2l90 453l-327 508q-5 6 -18 22t-17.5 21t-15 14.5t-18 11t-19 1t-23.5 -6.5q-33 -17 -41 -45t0.5 -55.5t30.5 -69.5l147 -282q8 -13 2.5 -31.5t-18.5 -24.5q-21 -11 -39 -6t-27 23l-102 178l-776 6q-67 0 -74 -49q-3 -22 10 -34.5t45 -12.5z
M666 674h274q64 0 80 51q11 31 -8.5 51.5t-61.5 20.5l-237 -2q-82 0 -90 -72q-6 -44 43 -49zM723 461l270 -4q30 0 52 14.5t26 40.5q14 70 -53 70l-264 -4q-58 0 -72 -56q-15 -55 41 -61zM799 274l159 -4q69 -3 78 41q6 29 -6.5 40.5t-48.5 13.5l-174 6q-51 3 -59 -41
q-5 -27 4 -41t47 -15z" />
    <glyph glyph-name="uni261E" unicode="&#x261e;" horiz-adv-x="2050" 
d="M2167 940q-10 -66 -58 -101.5t-122 -37.5l-215 -4q3 -2 5 -4.5t3.5 -6t3 -6t2 -7.5t1 -7t1.5 -8t1 -8.5t0.5 -9.5t0.5 -9q1 -54 -35 -89t-110 -56q14 -20 14 -56q-12 -130 -160 -149q24 -27 21 -62q-3 -53 -50 -90t-133 -47h-792l-17 -94q-6 -35 -37.5 -61.5t-68.5 -26.5
h-174q-34 0 -55 28t-15 60l160 832q6 33 38.5 60.5t67.5 27.5h174q37 0 58.5 -26.5t13.5 -61.5l-14 -70l446 444q47 45 87 69.5t73 28.5t58 -2.5t51 -23.5q34 -22 37.5 -82.5t-35.5 -112.5l-64 -96l709 2q71 0 104.5 -37t24.5 -100zM1997 887q62 0 69 47q3 24 -8 36.5
t-43 12.5l-780 -6q-139 -143 -172 -178q-15 -18 -35.5 -23.5t-34.5 6.5q-11 6 -11 25t11 31l260 282q28 30 45 52.5t28 46t6.5 41t-25.5 30.5q-8 5 -16 7t-17 -0.5t-16.5 -5.5t-18.5 -11.5t-18.5 -15t-21.5 -18.5t-23 -19l-529 -508l-86 -453l496 2q-5 39 14 84.5t59 55.5
q-58 27 -43 102q9 46 45 83.5t101 45.5q-25 18 -19 74q6 68 58 115.5t139 48.5zM1647 674q51 5 63 49q19 72 -63 72l-236 2q-43 0 -69.5 -20.5t-28.5 -51.5q-2 -24 13 -37.5t46 -13.5h275zM1505 461q62 6 68 61q6 56 -53 56l-260 4q-66 0 -80 -70q-4 -27 11 -41t44 -14z
M1360 274q37 1 52 15t20 41q4 23 -7 33t-36 8l-179 -6q-36 -1 -51.5 -12.5t-21.5 -41.5q-5 -22 10.5 -32t50.5 -9z" />
    <glyph glyph-name="diamond" unicode="&#x2666;" horiz-adv-x="1228" 
d="M649 -51l-350 747l643 748l354 -748z" />
    <glyph glyph-name="uni267C" unicode="&#x267c;" horiz-adv-x="1777" 
d="M883 -20q-147 0 -270 57.5t-201.5 154.5t-110 231t-2.5 282q38 196 168 363t316 264.5t382 97.5q148 0 271 -57.5t201 -155t109.5 -231.5t2.5 -281q-38 -197 -167.5 -364t-315.5 -264t-383 -97zM885 829l192 256q22 18 31 -4l57 -141l-90 -49l264 2l174 229l-96 -51
l-39 94q-11 26 -33 42.5t-39 20.5l-16 3l-332 2q-39 -4 -71 -21.5t-44 -33.5l-12 -15l-157 -200zM1065 125l20 100l111 2q30 1 59.5 15t43.5 28l14 13l223 286q23 36 29.5 70t2.5 50l-5 16l-80 198l-256 -131l96 -258q3 -9 -4 -15.5t-19 -6.5l-167 -3l20 95l-176 -230z
M662 225h231l49 267h-295q-11 2 -13 9.5t5 18.5l113 146l71 -48l-92 228l-262 -2l78 -49l-72 -97q-20 -27 -27.5 -57t-5.5 -47l2 -16l111 -287q17 -32 44 -48.5t45 -16.5z" />
    <glyph glyph-name="uni2713" unicode="&#x2713;" horiz-adv-x="1228" 
d="M1530 1415l49 -24l-899 -1174h-18l-248 475l61 31l211 -410z" />
    <glyph glyph-name="uni2B24" unicode="&#x2b24;" horiz-adv-x="1544" 
d="M1522 723q-32 -165 -141.5 -305t-266 -221.5t-321.5 -81.5t-289 81.5t-177.5 221.5t-21.5 305t141 305t265 221.5t321 81.5t289.5 -81.5t178.5 -221.5t22 -305z" />
    <glyph glyph-name="uniF6DD" unicode="&#xf6dd;" horiz-adv-x="2385" 
d="M1298 995q-16 -83 -51.5 -154.5t-92 -130.5t-141 -93.5t-188.5 -34.5h-53l297 -582h-76l-301 582h-311l-113 -582h-61l274 1411h516q80 0 141 -23t96 -62.5t55.5 -93t19.5 -113.5t-11 -124zM530 1350l-137 -707h445q87 0 158.5 29t119 80t77.5 111.5t44 131.5
q9 55 9.5 106t-16.5 96.5t-46.5 79.5t-80.5 53.5t-118 19.5h-455zM2007 977q135 0 236 -67t145 -182t18 -251q-40 -205 -215 -351t-381 -146q-140 0 -243.5 70t-143.5 186l-137 -699h-61l278 1419h62l-47 -235q88 116 218.5 186t270.5 70zM1825 41q118 0 229.5 58.5
t189.5 159t101 218.5q35 181 -67.5 309.5t-282.5 128.5q-119 0 -230 -54.5t-189.5 -153.5t-102.5 -220q-20 -98 -0.5 -180t67 -141t122 -92t163.5 -33z" />
    <glyph glyph-name="centsuperior" unicode="&#xf6e0;" horiz-adv-x="612" 
d="M723 1184l29 -43q-75 -60 -183 -66l-24 -123h-47l24 125q-101 11 -156 86t-32 187t106 185.5t189 84.5l22 115h47l-22 -113q47 -3 89.5 -20.5t68.5 -45.5l-46 -43q-55 52 -135 52q-93 0 -168.5 -59.5t-93.5 -155.5t33.5 -156.5t144.5 -60.5q84 0 154 51z" />
    <glyph glyph-name="commasuperior" unicode="&#xf6e2;" horiz-adv-x="309" 
d="M258 889l-41 14q127 140 150 320h59q-12 -94 -57 -182.5t-111 -151.5z" />
    <glyph glyph-name="periodsuperior" unicode="&#xf6e8;" horiz-adv-x="292" 
d="M354 1073q-20 0 -31.5 13.5t-7.5 33.5t21 33.5t37 13.5q22 0 34.5 -13.5t8.5 -33.5t-22 -33.5t-40 -13.5z" />
    <glyph glyph-name="uniF8FF" unicode="&#xf8ff;" horiz-adv-x="2009" 
d="M164 0l-25 1434h1682l24 -1434h-1681zM1055 752q24 0 32 14h3l4 -12h16l-2 149h-23v-39q0 -10 2 -18h-2q-10 16 -30 16q-22 0 -33 -14q-10 -17 -10 -39q0 -28 12 -43q11 -14 31 -14zM1364 891q0 -8 2 -12q2 -2 10 -2t10 2q3 6 3 8t-5 12q-2 2 -8 2q-8 0 -10 -2
q-2 -4 -2 -8zM399 754l39 116h2q0 -8 -2 -20l2 -96h23l-2 141h-33l-39 -113l-41 113h-33l2 -141h21l-2 67q0 33 -2 51h2l43 -118h20zM768 770q-8 0 -10 4q-4 2 -4 12v58h28v16h-30v25h-15l-8 -23l-16 -8v-10h16l2 -60q0 -32 31 -32h12q2 1 5.5 2t4.5 2v16q-4 -2 -16 -2z
M596 805q0 26 -14 43q-11 14 -37 14q-25 0 -39 -14q-12 -15 -12 -39q0 -15 8 -31q6 -14 18 -20q9 -6 27 -6q26 0 37 14q12 15 12 39zM700 784q0 1 -6 13q-2 4 -8 10q-13 7 -20 8q-5 2 -21 10q-4 4 -4 9q0 10 18 10q11 0 29 -6l8 16q-16 8 -37 8q-19 0 -30 -8q-11 -7 -11 -20
q0 -12 7 -19q5 -8 24 -14q4 -1 9.5 -4.5t7.5 -3.5q6 0 6 -5q6 -3 6 -8q0 -12 -23 -12q-10 0 -34 8v-18q12 -6 34 -6t33 8q12 9 12 24zM893 754l-2 71q0 21 -10 29q-8 8 -31 8q-13 0 -19 -2q-13 -3 -20 -8l8 -16q6 6 15 6q6 2 16 2q12 0 14 -4q4 -4 4 -17v-4l-18 -2
q-32 -4 -37 -8q-10 -8 -10 -25q0 -16 8 -24t25 -8q16 0 20 2q6 4 16 14l7 -14h14zM983 862q-12 0 -18 -6q-13 -9 -15 -14h-2l-2 18h-18l2 -106h20v55q0 10 8 22q11 11 23 11q6 0 10 -2l2 22h-10zM1194 752h20l17 6v18l-19 -6q-2 0 -7.5 -1t-8.5 -1q-15 0 -22 10
q-11 7 -11 23h72v12q0 25 -12 37t-35 12q-24 0 -35 -14q-14 -17 -14 -41q0 -25 16 -41q14 -14 39 -14zM1337 782q0 7 -4 15q-2 4 -8 10q-13 7 -20 8q-5 2 -21 10q-4 4 -4 9q0 10 18 10q11 0 29 -6l8 16q-16 8 -37 8q-19 0 -30 -8q-11 -7 -11 -20q0 -12 7 -19q5 -8 24 -14
q3 -1 9 -4.5t8 -3.5q6 0 6 -5q4 -2 4 -8q0 -12 -21 -12q-10 0 -34 8v-18q12 -6 34 -6t33 8q10 8 10 22zM1479 860q-1 0 -4 1t-5 1h-10q-20 0 -30 -10q-13 -10 -13 -27q0 -12 6 -18q6 -9 15 -12q-3 -1 -4.5 -2.5t-2 -3.5t-1.5 -3q-5 -5 -5 -10l2 -8q3 -6 9 -6q-9 -2 -17 -10
q-6 -6 -6 -17q0 -15 10 -22q16 -8 35 -8q26 0 43 10q15 9 15 28q0 14 -9 23q-9 6 -28 6h-19q-4 0 -8 1l-4 1q-4 4 -4 6q0 5 6 11h10q20 0 31 8q12 9 12 26q0 2 -1 6t-1 5l-4 8l19 4v12h-37zM1634 823q0 39 -39 39q-8 0 -20 -4q-8 -3 -14 -12l-5 14h-18l2 -106h23v53
q0 20 6 29q5 8 20 8q11 0 17 -6q4 -4 4 -19l2 -65h24zM1389 860h-25l2 -106h25zM1440 825q0 11 6 17q3 6 14 6q12 0 15 -6q6 -6 6 -17q0 -20 -21 -20q-6 0 -14 4q-6 6 -6 16zM1188 846q8 0 16 -8t8 -21h-49q0 16 8 21q8 8 17 8zM516 809q0 17 8 25q7 10 21 10q26 0 26 -39
q0 -35 -24 -35q-31 0 -31 39zM1061 770q-14 0 -19 8q-8 12 -8 31q0 16 6 25q7 10 19 10q15 0 20 -8q8 -8 8 -29v-4q0 -21 -6 -25q-5 -8 -20 -8zM844 768q-9 0 -13 4q-4 2 -4 12q0 11 4 15q3 1 6 1.5t8.5 1t10.5 1.5l12 2v-10q0 -15 -4 -19q-8 -8 -20 -8zM1434 737q0 11 4 13
q8 4 16 4h16q15 0 19 -4q6 -3 6 -11q0 -9 -10 -12q-9 -6 -27 -6q-10 0 -18 4q-6 3 -6 12zM1382 512q21 0 31 16h2l4 -14h17l-2 152h-23v-39q0 -1 1 -8t1 -11q-12 15 -33 15q-20 0 -32 -15q-11 -18 -11 -39q0 -27 13 -43q11 -14 32 -14zM369 637h43v18h-107v-18h41l2 -123h23
zM872 573h54v19h-54v45h58v18h-80l2 -141h22zM463 514l-4 -10q-6 -19 -23 -19h-12v-16q6 -2 14 -2q32 0 43 33l43 123h-24q-6 -20 -11.5 -36.5t-9.5 -26.5l-4 -11v-12h-2q0 12 -6 24l-25 62h-24zM602 512q17 0 31 14q10 12 10 39q0 31 -12 43q-9 15 -31 15t-33 -17l-4 17
h-18l2 -156h22v59q11 -14 33 -14zM723 512q3 0 9 1t9 1q11 0 17 6v19q-10 -7 -17 -7q-6 -2 -18 -2q-14 0 -23 9q-7 11 -10 24h72v12q0 23 -12 35q-13 13 -33 13q-25 0 -37 -15t-12 -39q0 -29 14 -43t41 -14zM1053 565q0 28 -15 43q-12 15 -37 15q-24 0 -36 -15
q-15 -12 -15 -39q0 -14 8 -30q5 -11 19 -21q12 -6 27 -6q22 0 36 14q13 13 13 39zM1178 514l-2 109h-23v-56q0 -22 -4 -28q-9 -9 -21 -9q-9 0 -16 7q-8 8 -8 18l-2 68h-21l2 -72q0 -18 11 -29q10 -10 28 -10q9 0 21 4q11 7 14 12l4 -14h17zM1307 584q0 39 -37 39
q-14 0 -21 -5q-6 -2 -14 -10l-4 15h-19l2 -109h21v53q0 17 8 29q5 8 21 8q10 0 16 -6q4 -8 4 -18l2 -66h23zM1526 623q-12 0 -19 -5q-6 -4 -14 -16l-4 21h-19l3 -109h20v55q0 15 10 25q5 8 21 8h10l2 21h-10zM1589 514l-4 -10q-6 -19 -22 -19h-13v-16q6 -2 15 -2q32 0 43 33
l43 123h-25q-9 -30 -24 -74v-12h-3q0 12 -6 24l-24 62h-25zM717 606q10 0 16 -6q6 -9 6 -20h-49q3 13 8 20q6 6 19 6zM594 604q13 0 18 -8q6 -9 6 -31q0 -18 -4 -24q-7 -11 -18 -11q-14 0 -21 11q-8 8 -8 26v4q0 19 6 25q5 8 21 8zM975 569q0 18 6 27q5 8 20 8q27 0 27 -39
q0 -35 -24 -35q-29 0 -29 39zM1389 530q-14 0 -21 11q-8 12 -8 28q0 15 6 27q8 8 18 8q15 0 23 -8q6 -9 6 -29v-2q3 -16 -4 -26q-9 -9 -20 -9z" />
    <glyph glyph-name="IJ.alt" horiz-adv-x="1320" 
d="M225 0l275 1411h61l-274 -1411h-62zM700 -23q-37 0 -88 7l21 61q47 -6 82 -6q176 0 277.5 102.5t135.5 270.5l195 999h61l-194 -999q-18 -93 -55.5 -169t-96 -137t-145 -95t-193.5 -34z" />
    <glyph glyph-name="J.alt" horiz-adv-x="739" 
d="M119 -23q-37 0 -88 7l18 61q49 -6 84 -6q176 0 277 102.5t135 270.5l194 999h64l-195 -999q-18 -93 -55.5 -169t-95.5 -137t-144.5 -95t-193.5 -34z" />
    <glyph glyph-name="Jcircumflex.alt" horiz-adv-x="739" 
d="M526 1556l295 310h78l176 -310h-61l-166 254l-260 -254h-62zM119 -23q-37 0 -88 7l18 61q49 -6 84 -6q176 0 277 102.5t135 270.5l194 999h64l-195 -999q-18 -93 -55.5 -169t-95.5 -137t-144.5 -95t-193.5 -34z" />
    <glyph glyph-name="W.alt" horiz-adv-x="1843" 
d="M1989 1411h67l-710 -1411h-76l-103 1270l-594 -1270h-75l-162 1411h67l148 -1323l596 1272h78l100 -1272z" />
    <glyph glyph-name="Wacute.alt" horiz-adv-x="1843" 
d="M1536 1866l-268 -310h-62l256 310h74zM1989 1411h67l-710 -1411h-76l-103 1270l-594 -1270h-75l-162 1411h67l148 -1323l596 1272h78l100 -1272z" />
    <glyph glyph-name="Wcircumflex.alt" horiz-adv-x="1843" 
d="M1292 1810l-262 -254h-61l295 310h77l177 -310h-62zM1989 1411h67l-710 -1411h-76l-103 1270l-594 -1270h-75l-162 1411h67l148 -1323l596 1272h78l100 -1272z" />
    <glyph glyph-name="Wdieresis.alt" horiz-adv-x="1843" 
d="M1120 1669q-27 0 -42 16.5t-11 40.5q4 26 26.5 43t49.5 17q28 0 43 -17t10 -43q-4 -25 -26 -41t-50 -16zM1407 1669q-27 0 -42 16.5t-11 40.5q4 26 26.5 43t49.5 17q28 0 43 -17t10 -43q-4 -25 -26 -41t-50 -16zM1989 1411h67l-710 -1411h-76l-103 1270l-594 -1270h-75
l-162 1411h67l148 -1323l596 1272h78l100 -1272z" />
    <glyph glyph-name="Wgrave.alt" horiz-adv-x="1843" 
d="M1292 1556h-61l-146 310h74zM1989 1411h67l-710 -1411h-76l-103 1270l-594 -1270h-75l-162 1411h67l148 -1323l596 1272h78l100 -1272z" />
    <glyph glyph-name="A.c2sc" horiz-adv-x="1058" 
d="M950 0l-65 311h-592l-184 -311h-66l674 1128h65l232 -1128h-64zM328 367h546l-141 677z" />
    <glyph glyph-name="Aacute.c2sc" horiz-adv-x="1058" 
d="M1024 1493l-225 -248h-62l213 248h74zM950 0l-65 311h-592l-184 -311h-66l674 1128h65l232 -1128h-64zM328 367h546l-141 677z" />
    <glyph glyph-name="Abreve.c2sc" horiz-adv-x="1058" 
d="M774 1272q-96 0 -132 54t-17 140h55q-14 -64 11.5 -102.5t94.5 -38.5q63 0 106 37t58 104h58q-18 -91 -82 -142.5t-152 -51.5zM950 0l-65 311h-592l-184 -311h-66l674 1128h65l232 -1128h-64zM328 367h546l-141 677z" />
    <glyph glyph-name="uni01CD.c2sc" horiz-adv-x="1058" 
d="M809 1245h-74l-151 248h59l139 -197l211 197h60zM950 0l-65 311h-592l-184 -311h-66l674 1128h65l232 -1128h-64zM328 367h546l-141 677z" />
    <glyph glyph-name="Acircumflex.c2sc" horiz-adv-x="1058" 
d="M811 1440l-215 -195h-59l245 248h74l150 -248h-60zM950 0l-65 311h-592l-184 -311h-66l674 1128h65l232 -1128h-64zM328 367h546l-141 677z" />
    <glyph glyph-name="Adieresis.c2sc" horiz-adv-x="1058" 
d="M662 1327q-24 0 -38 14t-10 37t24 38.5t44 15.5q25 0 39 -15.5t10 -38.5t-24 -37t-45 -14zM911 1327q-25 0 -39 14t-10 37t24.5 38.5t45.5 15.5t39 -15.5t10 -38.5t-24.5 -37t-45.5 -14zM950 0l-65 311h-592l-184 -311h-66l674 1128h65l232 -1128h-64zM328 367h546
l-141 677z" />
    <glyph glyph-name="Agrave.c2sc" horiz-adv-x="1058" 
d="M815 1245h-61l-127 248h73zM950 0l-65 311h-592l-184 -311h-66l674 1128h65l232 -1128h-64zM328 367h546l-141 677z" />
    <glyph glyph-name="Amacron.c2sc" horiz-adv-x="1058" 
d="M995 1378l-10 -53h-395l10 53h395zM950 0l-65 311h-592l-184 -311h-66l674 1128h65l232 -1128h-64zM328 367h546l-141 677z" />
    <glyph glyph-name="Aogonek.c2sc" horiz-adv-x="1058" 
d="M1098 -160h57q-13 -72 -65 -117t-121 -45q-70 0 -105.5 40.5t-23.5 105.5q7 28 28 63l78 127l-61 297h-592l-184 -311h-66l674 1128h65l232 -1128h-17l-84 -133q-12 -18 -16 -41q-8 -42 14.5 -67t67.5 -25q43 0 74 28t45 78zM328 367h546l-141 677z" />
    <glyph glyph-name="Aring.c2sc" horiz-adv-x="1058" 
d="M770 1257q-60 0 -94.5 41t-22.5 99q12 59 62 100t110 41q61 0 96 -41t23 -100t-62.5 -99.5t-111.5 -40.5zM815 1489q-38 0 -70 -27t-40 -65q-7 -38 14.5 -64t60.5 -26q41 0 74.5 26t40.5 64q8 38 -15.5 65t-64.5 27zM950 0l-65 311h-592l-184 -311h-66l674 1128h65
l232 -1128h-64zM328 367h546l-141 677z" />
    <glyph glyph-name="Aringacute.c2sc" horiz-adv-x="1058" 
d="M770 1257q-60 0 -94.5 41t-22.5 99q10 54 55 94.5t101 46.5l113 133h73l-129 -139q44 -13 65.5 -50.5t12.5 -84.5q-12 -59 -62.5 -99.5t-111.5 -40.5zM815 1489q-38 0 -70 -27t-40 -65q-7 -38 14.5 -64t60.5 -26q41 0 74.5 26t40.5 64q8 38 -15.5 65t-64.5 27zM950 0
l-65 311h-592l-184 -311h-66l674 1128h65l232 -1128h-64zM328 367h546l-141 677z" />
    <glyph glyph-name="Atilde.c2sc" horiz-adv-x="1058" 
d="M709 1366q-27 0 -48 -22t-28 -58h-58q13 60 54 96.5t92 36.5q23 0 42 -9t31.5 -22t23.5 -26t24.5 -22t29.5 -9q26 0 47.5 21.5t30.5 58.5h56q-15 -62 -55 -97.5t-91 -35.5q-28 0 -51 14t-35.5 30t-30 30t-34.5 14zM950 0l-65 311h-592l-184 -311h-66l674 1128h65
l232 -1128h-64zM328 367h546l-141 677z" />
    <glyph glyph-name="AE.c2sc" horiz-adv-x="1656" 
d="M944 59h608l-10 -59h-670l60 315h-586l-276 -315h-72l993 1128h750l-12 -59h-588l-94 -485h514l-11 -60h-514zM399 375h545l135 694h-69z" />
    <glyph glyph-name="AEacute.c2sc" horiz-adv-x="1656" 
d="M1333 1493l-225 -248h-59l213 248h71zM944 59h608l-10 -59h-670l60 315h-586l-276 -315h-72l993 1128h750l-12 -59h-588l-94 -485h514l-11 -60h-514zM399 375h545l135 694h-69z" />
    <glyph glyph-name="B.c2sc" horiz-adv-x="1122" 
d="M881 602q57 -18 97 -51.5t57 -73.5t23 -86t-5 -88q-26 -125 -131.5 -214t-249.5 -89h-463l219 1130h414q139 0 208.5 -70t45.5 -198q-16 -85 -73 -157.5t-142 -102.5zM829 1071h-350l-86 -444h393q94 0 161 67t87 166q20 100 -36.5 155.5t-168.5 55.5zM680 59
q117 0 204 72.5t107 173.5q22 110 -44 188t-189 78h-377l-100 -512h399z" />
    <glyph glyph-name="C.c2sc" horiz-adv-x="1183" 
d="M700 -16q-161 0 -280.5 77.5t-171 210t-21.5 289.5q30 159 133.5 292.5t254 211.5t311.5 78q110 0 204 -39.5t160 -108.5l-53 -43q-123 129 -322 129q-145 0 -279 -69.5t-226.5 -188.5t-120.5 -262q-27 -141 19 -260t153 -188.5t252 -69.5q199 0 370 129l35 -43
q-192 -145 -418 -145z" />
    <glyph glyph-name="Cacute.c2sc" horiz-adv-x="1183" 
d="M797 1245l213 248h71l-225 -248h-59zM700 -16q-161 0 -280.5 77.5t-171 210t-21.5 289.5q30 159 133.5 292.5t254 211.5t311.5 78q110 0 204 -39.5t160 -108.5l-53 -43q-123 129 -322 129q-145 0 -279 -69.5t-226.5 -188.5t-120.5 -262q-27 -141 19 -260t153 -188.5
t252 -69.5q199 0 370 129l35 -43q-192 -145 -418 -145z" />
    <glyph glyph-name="Ccaron.c2sc" horiz-adv-x="1183" 
d="M868 1245l-149 248h59l137 -197l211 197h60l-244 -248h-74zM700 -16q-161 0 -280.5 77.5t-171 210t-21.5 289.5q30 159 133.5 292.5t254 211.5t311.5 78q110 0 204 -39.5t160 -108.5l-53 -43q-123 129 -322 129q-145 0 -279 -69.5t-226.5 -188.5t-120.5 -262
q-27 -141 19 -260t153 -188.5t252 -69.5q199 0 370 129l35 -43q-192 -145 -418 -145z" />
    <glyph glyph-name="Ccedilla.c2sc" horiz-adv-x="1183" 
d="M1083 172l35 -43q-185 -139 -403 -145l22 -97q8 -39 2 -63q-12 -65 -64 -105.5t-122 -40.5q-69 0 -103.5 45t-19.5 117h57q-6 -50 14 -78t62 -28q46 0 80 25.5t41 66.5q2 14 -2 41l-29 119q-148 11 -256 90.5t-153.5 207.5t-16.5 277q31 159 134.5 292.5t253.5 211.5
t311 78q110 0 204 -39.5t160 -108.5l-53 -43q-123 129 -322 129q-145 0 -279 -69.5t-226.5 -188.5t-120.5 -262q-27 -141 19 -260t153 -188.5t252 -69.5q199 0 370 129z" />
    <glyph glyph-name="Cdotaccent.c2sc" horiz-adv-x="1183" 
d="M922 1309q-24 0 -38 15t-10 36q4 24 24 38.5t44 14.5q27 0 41 -14.5t10 -38.5q-5 -22 -25 -36.5t-46 -14.5zM700 -16q-161 0 -280.5 77.5t-171 210t-21.5 289.5q30 159 133.5 292.5t254 211.5t311.5 78q110 0 204 -39.5t160 -108.5l-53 -43q-123 129 -322 129
q-145 0 -279 -69.5t-226.5 -188.5t-120.5 -262q-27 -141 19 -260t153 -188.5t252 -69.5q199 0 370 129l35 -43q-192 -145 -418 -145z" />
    <glyph glyph-name="D.c2sc" horiz-adv-x="1294" 
d="M209 0l219 1128h438q98 0 177 -28t130 -79t82.5 -121.5t35 -156t-12.5 -182.5q-47 -246 -217 -403.5t-414 -157.5h-438zM281 59h376q216 0 367 141t193 361q28 145 -3 259t-123.5 181.5t-236.5 67.5h-377z" />
    <glyph glyph-name="Eth.c2sc" horiz-adv-x="1302" 
d="M874 1128q98 0 177 -28t130 -79t82.5 -121.5t35 -156t-12.5 -182.5q-47 -246 -217 -403.5t-414 -157.5h-438l102 530h-141l10 54h142l106 544h438zM666 59q216 0 366 141t193 361q28 145 -3.5 259t-124.5 181.5t-237 67.5h-377l-92 -485h377l-10 -54h-377l-92 -471h377z
" />
    <glyph glyph-name="Dcaron.c2sc" horiz-adv-x="1294" 
d="M786 1245l-149 248h59l138 -197l210 197h60l-244 -248h-74zM209 0l219 1128h438q98 0 177 -28t130 -79t82.5 -121.5t35 -156t-12.5 -182.5q-47 -246 -217 -403.5t-414 -157.5h-438zM281 59h376q216 0 367 141t193 361q28 145 -3 259t-123.5 181.5t-236.5 67.5h-377z" />
    <glyph glyph-name="Dcroat.c2sc" horiz-adv-x="1302" 
d="M874 1128q98 0 177 -28t130 -79t82.5 -121.5t35 -156t-12.5 -182.5q-47 -246 -217 -403.5t-414 -157.5h-438l102 530h-141l10 54h142l106 544h438zM666 59q216 0 366 141t193 361q28 145 -3.5 259t-124.5 181.5t-237 67.5h-377l-92 -485h377l-10 -54h-377l-92 -471h377z
" />
    <glyph glyph-name="E.c2sc" horiz-adv-x="993" 
d="M281 59h608l-10 -59h-670l219 1128h649l-12 -59h-588l-94 -485h514l-10 -60h-514z" />
    <glyph glyph-name="Eacute.c2sc" horiz-adv-x="993" 
d="M995 1493l-225 -248h-61l213 248h73zM281 59h608l-10 -59h-670l219 1128h649l-12 -59h-588l-94 -485h514l-10 -60h-514z" />
    <glyph glyph-name="Ecaron.c2sc" horiz-adv-x="993" 
d="M780 1245h-73l-152 248h61l138 -197l211 197h59zM281 59h608l-10 -59h-670l219 1128h649l-12 -59h-588l-94 -485h514l-10 -60h-514z" />
    <glyph glyph-name="Ecircumflex.c2sc" horiz-adv-x="993" 
d="M782 1440l-213 -195h-61l246 248h73l150 -248h-59zM281 59h608l-10 -59h-670l219 1128h649l-12 -59h-588l-94 -485h514l-10 -60h-514z" />
    <glyph glyph-name="Edieresis.c2sc" horiz-adv-x="993" 
d="M633 1327q-24 0 -37.5 14t-9.5 37t23.5 38.5t43.5 15.5q25 0 39 -15.5t10 -38.5t-24 -37t-45 -14zM883 1327q-25 0 -39 14t-10 37t24 38.5t45 15.5t39 -15.5t10 -38.5t-24 -37t-45 -14zM281 59h608l-10 -59h-670l219 1128h649l-12 -59h-588l-94 -485h514l-10 -60h-514z
" />
    <glyph glyph-name="Edotaccent.c2sc" horiz-adv-x="993" 
d="M754 1309q-25 0 -39 14.5t-10 36.5q4 24 24 38.5t45 14.5t39 -14.5t10 -38.5q-4 -22 -24 -36.5t-45 -14.5zM281 59h608l-10 -59h-670l219 1128h649l-12 -59h-588l-94 -485h514l-10 -60h-514z" />
    <glyph glyph-name="Egrave.c2sc" horiz-adv-x="993" 
d="M786 1245h-59l-129 248h74zM281 59h608l-10 -59h-670l219 1128h649l-12 -59h-588l-94 -485h514l-10 -60h-514z" />
    <glyph glyph-name="Emacron.c2sc" horiz-adv-x="993" 
d="M967 1378l-11 -53h-395l10 53h396zM281 59h608l-10 -59h-670l219 1128h649l-12 -59h-588l-94 -485h514l-10 -60h-514z" />
    <glyph glyph-name="Eogonek.c2sc" horiz-adv-x="993" 
d="M688 0l-82 -133q-13 -13 -18 -41q-8 -42 14.5 -67t67.5 -25q44 0 75.5 28t45.5 78h55q-14 -72 -65.5 -117t-121.5 -45q-69 0 -105 40.5t-24 105.5q6 25 29 63l72 113h-422l219 1128h649l-12 -59h-588l-94 -485h514l-10 -60h-514l-92 -465h608l-10 -59h-191z" />
    <glyph glyph-name="F.c2sc" horiz-adv-x="921" 
d="M1057 1069h-580l-94 -485h459l-11 -60h-458l-103 -524h-61l219 1128h641z" />
    <glyph glyph-name="G.c2sc" horiz-adv-x="1345" 
d="M711 -18q-165 0 -287 78t-174.5 210.5t-22.5 290.5q30 159 134.5 292.5t257 211.5t317.5 78q201 0 332 -115l-45 -45q-122 98 -297 98q-225 0 -409.5 -151.5t-227.5 -368.5q-20 -106 3 -201.5t80.5 -165t148.5 -110.5t202 -41q126 0 235 43.5t194.5 135t127.5 222.5
q1 0 3.5 9.5t2.5 13.5h-371l13 59h438q-30 -134 -93.5 -239t-150.5 -171t-191 -100t-220 -34z" />
    <glyph glyph-name="Gbreve.c2sc" horiz-adv-x="1345" 
d="M922 1272q-96 0 -132.5 54.5t-17.5 139.5h55q-14 -63 12 -102t95 -39q63 0 106 37t58 104h57q-18 -91 -81.5 -142.5t-151.5 -51.5zM711 -18q-165 0 -287 78t-174.5 210.5t-22.5 290.5q30 159 134.5 292.5t257 211.5t317.5 78q201 0 332 -115l-45 -45q-122 98 -297 98
q-225 0 -409.5 -151.5t-227.5 -368.5q-20 -106 3 -201.5t80.5 -165t148.5 -110.5t202 -41q126 0 235 43.5t194.5 135t127.5 222.5q1 0 3.5 9.5t2.5 13.5h-371l13 59h438q-30 -134 -93.5 -239t-150.5 -171t-191 -100t-220 -34z" />
    <glyph glyph-name="Gcommaaccent.c2sc" horiz-adv-x="1345" 
d="M711 -18q-165 0 -287 78t-174.5 210.5t-22.5 290.5q30 159 134.5 292.5t257 211.5t317.5 78q201 0 332 -115l-45 -45q-122 98 -297 98q-225 0 -409.5 -151.5t-227.5 -368.5q-20 -106 3 -201.5t80.5 -165t148.5 -110.5t202 -41q126 0 235 43.5t194.5 135t127.5 222.5
q1 0 3.5 9.5t2.5 13.5h-371l13 59h438q-30 -134 -93.5 -239t-150.5 -171t-191 -100t-220 -34zM510 -356l-33 20q58 51 99.5 123t56.5 152h65q-18 -81 -71.5 -167t-116.5 -128z" />
    <glyph glyph-name="Gdotaccent.c2sc" horiz-adv-x="1345" 
d="M930 1309q-25 0 -39 14.5t-10 36.5q4 24 24 38.5t45 14.5t39 -14.5t10 -38.5q-4 -22 -24 -36.5t-45 -14.5zM711 -18q-165 0 -287 78t-174.5 210.5t-22.5 290.5q30 159 134.5 292.5t257 211.5t317.5 78q201 0 332 -115l-45 -45q-122 98 -297 98q-225 0 -409.5 -151.5
t-227.5 -368.5q-20 -106 3 -201.5t80.5 -165t148.5 -110.5t202 -41q126 0 235 43.5t194.5 135t127.5 222.5q1 0 3.5 9.5t2.5 13.5h-371l13 59h438q-30 -134 -93.5 -239t-150.5 -171t-191 -100t-220 -34z" />
    <glyph glyph-name="H.c2sc" horiz-adv-x="1282" 
d="M1231 1128h61l-219 -1128h-61l102 532h-741l-103 -532h-61l219 1128h61l-104 -538h741z" />
    <glyph glyph-name="Hbar.c2sc" horiz-adv-x="1280" 
d="M1376 907l-8 -49h-129l-168 -858h-61l102 532h-739l-103 -532h-61l168 858h-115l8 49h115l43 221h61l-43 -221h740l43 221h61l-43 -221h129zM1124 590l54 268h-740l-53 -268h739z" />
    <glyph glyph-name="I.c2sc" horiz-adv-x="479" 
d="M209 0l219 1128h61l-219 -1128h-61z" />
    <glyph glyph-name="IJ.c2sc" horiz-adv-x="901" 
d="M209 0l219 1128h61l-219 -1128h-61zM276 -381q-38 0 -79 6l18 60q47 -7 74 -7q143 0 226 80t108 209l227 1161h61l-227 -1161q-30 -155 -131.5 -251.5t-276.5 -96.5z" />
    <glyph glyph-name="Iacute.c2sc" horiz-adv-x="479" 
d="M449 1245l213 248h71l-225 -248h-59zM209 0l219 1128h61l-219 -1128h-61z" />
    <glyph glyph-name="uni01CF.c2sc" horiz-adv-x="479" 
d="M444 1245l-149 248h59l138 -197l210 197h60l-244 -248h-74zM209 0l219 1128h61l-219 -1128h-61z" />
    <glyph glyph-name="Icircumflex.c2sc" horiz-adv-x="479" 
d="M248 1245l244 248h73l150 -248h-60l-135 195l-213 -195h-59zM209 0l219 1128h61l-219 -1128h-61z" />
    <glyph glyph-name="Idieresis.c2sc" horiz-adv-x="479" 
d="M371 1327q-24 0 -37.5 14t-9.5 37t23.5 38.5t43.5 15.5q26 0 40 -15.5t9 -38.5q-4 -23 -23.5 -37t-45.5 -14zM621 1327q-25 0 -39.5 14t-10.5 37t24.5 38.5t45.5 15.5t39 -15.5t10 -38.5t-24 -37t-45 -14zM209 0l219 1128h61l-219 -1128h-61z" />
    <glyph glyph-name="Idotaccent.c2sc" horiz-adv-x="479" 
d="M492 1309q-24 0 -38 15t-10 36q4 24 24 38.5t44 14.5q27 0 41 -14.5t10 -38.5q-5 -22 -25 -36.5t-46 -14.5zM209 0l219 1128h61l-219 -1128h-61z" />
    <glyph glyph-name="Igrave.c2sc" horiz-adv-x="479" 
d="M463 1245l-127 248h74l114 -248h-61zM209 0l219 1128h61l-219 -1128h-61z" />
    <glyph glyph-name="Imacron.c2sc" horiz-adv-x="479" 
d="M299 1325l10 53h396l-11 -53h-395zM209 0l219 1128h61l-219 -1128h-61z" />
    <glyph glyph-name="Iogonek.c2sc" horiz-adv-x="479" 
d="M358 -160h58q-13 -72 -65.5 -117t-121.5 -45q-70 0 -106.5 40.5t-24.5 105.5q5 19 31 63l82 131l217 1110h61l-219 -1128h-10l-86 -133q-12 -18 -16 -41q-8 -42 14.5 -67t67.5 -25q42 0 73 28t45 78z" />
    <glyph glyph-name="Itilde.c2sc" horiz-adv-x="479" 
d="M287 1286q13 60 54 96.5t91 36.5q28 0 51 -13.5t35.5 -30.5t29.5 -30.5t36 -13.5q26 0 47.5 21.5t30.5 58.5h55q-15 -62 -55 -97.5t-91 -35.5q-28 0 -51 14t-35.5 30t-30 30t-34.5 14q-27 0 -48 -22t-28 -58h-57zM209 0l219 1128h61l-219 -1128h-61z" />
    <glyph glyph-name="J.c2sc" horiz-adv-x="495" 
d="M-129 -381q-41 0 -78 6l19 60q44 -7 71 -7q143 0 226 80t108 209l227 1161h62l-227 -1161q-30 -155 -131.5 -251.5t-276.5 -96.5z" />
    <glyph glyph-name="Jcircumflex.c2sc" horiz-adv-x="495" 
d="M264 1245l244 248h74l149 -248h-59l-135 195l-213 -195h-60zM-129 -381q-41 0 -78 6l19 60q44 -7 71 -7q143 0 226 80t108 209l227 1161h62l-227 -1161q-30 -155 -131.5 -251.5t-276.5 -96.5z" />
    <glyph glyph-name="K.c2sc" horiz-adv-x="933" 
d="M926 0h-88l-469 508l-99 -508h-61l219 1128h61l-112 -571l610 571h80l-633 -591z" />
    <glyph glyph-name="Kcommaaccent.c2sc" horiz-adv-x="933" 
d="M434 537l492 -537h-88l-469 508l-99 -508h-61l219 1128h61l-112 -571l610 571h80zM279 -336q57 49 97.5 121t57.5 154h66q-18 -80 -72 -166.5t-117 -128.5z" />
    <glyph glyph-name="L.c2sc" horiz-adv-x="862" 
d="M209 0l219 1128h61l-208 -1069h526l-10 -59h-588z" />
    <glyph glyph-name="Lacute.c2sc" horiz-adv-x="862" 
d="M455 1245l213 248h73l-225 -248h-61zM209 0l219 1128h61l-208 -1069h526l-10 -59h-588z" />
    <glyph glyph-name="Lcaron.c2sc" horiz-adv-x="864" 
d="M209 0l219 1128h61l-208 -1069h526l-10 -59h-588zM739 868l-49 9q51 59 82.5 126t34.5 125h63q-17 -84 -47 -139.5t-84 -120.5z" />
    <glyph glyph-name="Lcommaaccent.c2sc" horiz-adv-x="862" 
d="M209 0l219 1128h61l-208 -1069h526l-10 -59h-588zM272 -356l-32 20q57 49 97.5 121t57.5 154h66q-18 -80 -72 -166.5t-117 -128.5z" />
    <glyph glyph-name="Lslash.c2sc" horiz-adv-x="866" 
d="M287 59h528l-12 -59h-590l86 446l-154 -81l11 59l155 82l121 622h62l-115 -585l217 116l-10 -59l-217 -117z" />
    <glyph glyph-name="M.c2sc" horiz-adv-x="1695" 
d="M1556 0h-61l61 1026l-655 -917h-63l-303 921l-336 -1030h-60l371 1128h61l312 -962l680 962h63z" />
    <glyph glyph-name="N.c2sc" horiz-adv-x="1234" 
d="M1184 1128h61l-219 -1128h-74l-481 1034l-201 -1034h-61l219 1128h74l479 -1032z" />
    <glyph glyph-name="Nacute.c2sc" horiz-adv-x="1234" 
d="M1112 1493l-225 -248h-60l211 248h74zM1184 1128h61l-219 -1128h-74l-481 1034l-201 -1034h-61l219 1128h74l479 -1032z" />
    <glyph glyph-name="Ncaron.c2sc" horiz-adv-x="1234" 
d="M897 1245h-74l-149 248h59l137 -197l211 197h60zM1184 1128h61l-219 -1128h-74l-481 1034l-201 -1034h-61l219 1128h74l479 -1032z" />
    <glyph glyph-name="Ncommaaccent.c2sc" horiz-adv-x="1234" 
d="M1184 1128h61l-219 -1128h-74l-481 1034l-201 -1034h-61l219 1128h74l479 -1032zM420 -336q117 104 153 275h66q-18 -80 -71.5 -166.5t-114.5 -128.5z" />
    <glyph glyph-name="Eng.c2sc" horiz-adv-x="1234" 
d="M1184 1128h61l-225 -1148q-14 -74 -45 -135.5t-79.5 -111t-121 -77t-162.5 -27.5q-40 0 -80 6l21 62q41 -6 72 -6q147 0 239.5 86t89.5 203v20l-483 1032l-201 -1032h-61l219 1128h74l479 -1034z" />
    <glyph glyph-name="Ntilde.c2sc" horiz-adv-x="1234" 
d="M797 1366q-25 0 -46 -22t-30 -58h-55q12 60 52 96.5t91 36.5q28 0 51 -13.5t35.5 -30.5t30.5 -30.5t37 -13.5q26 0 46 21.5t29 58.5h58q-15 -62 -55 -97.5t-91 -35.5q-28 0 -51 14t-36 30t-30.5 30t-35.5 14zM1184 1128h61l-219 -1128h-74l-481 1034l-201 -1034h-61
l219 1128h74l479 -1032z" />
    <glyph glyph-name="O.c2sc" horiz-adv-x="1429" 
d="M711 -16q-164 0 -286 77.5t-175 210t-23 289.5q30 159 135 292.5t257.5 211.5t316.5 78q165 0 287 -78t174 -211.5t22 -292.5q-30 -157 -134 -289.5t-256.5 -210t-317.5 -77.5zM723 43q148 0 284.5 69.5t230 188.5t120.5 260q28 143 -18.5 262t-156 188.5t-257.5 69.5
q-224 0 -409 -151.5t-228 -368.5q-27 -141 20.5 -260t157 -188.5t256.5 -69.5z" />
    <glyph glyph-name="Oacute.c2sc" horiz-adv-x="1429" 
d="M924 1245l213 248h73l-225 -248h-61zM711 -16q-164 0 -286 77.5t-175 210t-23 289.5q30 159 135 292.5t257.5 211.5t316.5 78q165 0 287 -78t174 -211.5t22 -292.5q-30 -157 -134 -289.5t-256.5 -210t-317.5 -77.5zM723 43q148 0 284.5 69.5t230 188.5t120.5 260
q28 143 -18.5 262t-156 188.5t-257.5 69.5q-224 0 -409 -151.5t-228 -368.5q-27 -141 20.5 -260t157 -188.5t256.5 -69.5z" />
    <glyph glyph-name="uni01D1.c2sc" horiz-adv-x="1429" 
d="M922 1245l-152 248h59l140 -197l211 197h59l-244 -248h-73zM711 -16q-164 0 -286 77.5t-175 210t-23 289.5q30 159 135 292.5t257.5 211.5t316.5 78q165 0 287 -78t174 -211.5t22 -292.5q-30 -157 -134 -289.5t-256.5 -210t-317.5 -77.5zM723 43q148 0 284.5 69.5
t230 188.5t120.5 260q28 143 -18.5 262t-156 188.5t-257.5 69.5q-224 0 -409 -151.5t-228 -368.5q-27 -141 20.5 -260t157 -188.5t256.5 -69.5z" />
    <glyph glyph-name="Ocircumflex.c2sc" horiz-adv-x="1429" 
d="M723 1245l246 248h73l150 -248h-59l-136 195l-215 -195h-59zM711 -16q-164 0 -286 77.5t-175 210t-23 289.5q30 159 135 292.5t257.5 211.5t316.5 78q165 0 287 -78t174 -211.5t22 -292.5q-30 -157 -134 -289.5t-256.5 -210t-317.5 -77.5zM723 43q148 0 284.5 69.5
t230 188.5t120.5 260q28 143 -18.5 262t-156 188.5t-257.5 69.5q-224 0 -409 -151.5t-228 -368.5q-27 -141 20.5 -260t157 -188.5t256.5 -69.5z" />
    <glyph glyph-name="Odieresis.c2sc" horiz-adv-x="1429" 
d="M848 1327q-24 0 -37.5 14t-9.5 37t23.5 38.5t43.5 15.5q25 0 39.5 -15.5t10.5 -38.5t-24.5 -37t-45.5 -14zM1098 1327q-25 0 -39 14t-10 37t24 38.5t45 15.5t39 -15.5t10 -38.5t-24 -37t-45 -14zM711 -16q-164 0 -286 77.5t-175 210t-23 289.5q30 159 135 292.5
t257.5 211.5t316.5 78q165 0 287 -78t174 -211.5t22 -292.5q-30 -157 -134 -289.5t-256.5 -210t-317.5 -77.5zM723 43q148 0 284.5 69.5t230 188.5t120.5 260q28 143 -18.5 262t-156 188.5t-257.5 69.5q-224 0 -409 -151.5t-228 -368.5q-27 -141 20.5 -260t157 -188.5
t256.5 -69.5z" />
    <glyph glyph-name="Ograve.c2sc" horiz-adv-x="1429" 
d="M940 1245l-127 248h74l114 -248h-61zM711 -16q-164 0 -286 77.5t-175 210t-23 289.5q30 159 135 292.5t257.5 211.5t316.5 78q165 0 287 -78t174 -211.5t22 -292.5q-30 -157 -134 -289.5t-256.5 -210t-317.5 -77.5zM723 43q148 0 284.5 69.5t230 188.5t120.5 260
q28 143 -18.5 262t-156 188.5t-257.5 69.5q-224 0 -409 -151.5t-228 -368.5q-27 -141 20.5 -260t157 -188.5t256.5 -69.5z" />
    <glyph glyph-name="Ohungarumlaut.c2sc" horiz-adv-x="1429" 
d="M836 1245l208 248h70l-219 -248h-59zM1030 1245l209 248h70l-222 -248h-57zM711 -16q-164 0 -286 77.5t-175 210t-23 289.5q30 159 135 292.5t257.5 211.5t316.5 78q165 0 287 -78t174 -211.5t22 -292.5q-30 -157 -134 -289.5t-256.5 -210t-317.5 -77.5zM723 43
q148 0 284.5 69.5t230 188.5t120.5 260q28 143 -18.5 262t-156 188.5t-257.5 69.5q-224 0 -409 -151.5t-228 -368.5q-27 -141 20.5 -260t157 -188.5t256.5 -69.5z" />
    <glyph glyph-name="Omacron.c2sc" horiz-adv-x="1429" 
d="M776 1325l10 53h396l-11 -53h-395zM711 -16q-164 0 -286 77.5t-175 210t-23 289.5q30 159 135 292.5t257.5 211.5t316.5 78q165 0 287 -78t174 -211.5t22 -292.5q-30 -157 -134 -289.5t-256.5 -210t-317.5 -77.5zM723 43q148 0 284.5 69.5t230 188.5t120.5 260
q28 143 -18.5 262t-156 188.5t-257.5 69.5q-224 0 -409 -151.5t-228 -368.5q-27 -141 20.5 -260t157 -188.5t256.5 -69.5z" />
    <glyph glyph-name="Oslash.c2sc" horiz-adv-x="1443" 
d="M1538 1104l-188 -154q58 -77 78 -176.5t-1 -212.5q-30 -157 -134.5 -290t-257.5 -211t-318 -78q-230 0 -375 151l-184 -151l-33 38l186 152q-58 78 -78.5 176.5t0.5 212.5q31 157 135.5 290.5t257 211.5t316.5 78q116 0 213 -40t164 -112l184 152zM295 561
q-40 -197 67 -346l904 733q-130 133 -334 133q-147 0 -284 -69.5t-231.5 -189.5t-121.5 -261zM1366 561q40 197 -68 348l-901 -733q58 -64 143.5 -98.5t188.5 -34.5q225 0 409.5 151t227.5 367z" />
    <glyph glyph-name="Oslashacute.c2sc" horiz-adv-x="1443" 
d="M1214 1493l-223 -248h-59l209 248h73zM1538 1104l-188 -154q58 -77 78 -176.5t-1 -212.5q-30 -157 -134.5 -290t-257.5 -211t-318 -78q-230 0 -375 151l-184 -151l-33 38l186 152q-58 78 -78.5 176.5t0.5 212.5q31 157 135.5 290.5t257 211.5t316.5 78q116 0 213 -40
t164 -112l184 152zM295 561q-40 -197 67 -346l904 733q-130 133 -334 133q-147 0 -284 -69.5t-231.5 -189.5t-121.5 -261zM1366 561q40 197 -68 348l-901 -733q58 -64 143.5 -98.5t188.5 -34.5q225 0 409.5 151t227.5 367z" />
    <glyph glyph-name="Otilde.c2sc" horiz-adv-x="1429" 
d="M762 1286q13 60 54 96.5t91 36.5q28 0 51 -13.5t35.5 -30.5t29.5 -30.5t36 -13.5q26 0 47.5 21.5t30.5 58.5h55q-15 -62 -54.5 -97.5t-90.5 -35.5q-28 0 -51 14t-36 30t-30.5 30t-34.5 14q-26 0 -46.5 -21.5t-29.5 -58.5h-57zM711 -16q-164 0 -286 77.5t-175 210
t-23 289.5q30 159 135 292.5t257.5 211.5t316.5 78q165 0 287 -78t174 -211.5t22 -292.5q-30 -157 -134 -289.5t-256.5 -210t-317.5 -77.5zM723 43q148 0 284.5 69.5t230 188.5t120.5 260q28 143 -18.5 262t-156 188.5t-257.5 69.5q-224 0 -409 -151.5t-228 -368.5
q-27 -141 20.5 -260t157 -188.5t256.5 -69.5z" />
    <glyph glyph-name="OE.c2sc" horiz-adv-x="2033" 
d="M1325 59h606l-12 -59h-668l58 307q-98 -147 -259 -235t-339 -88q-164 0 -286 77.5t-175 210t-23 289.5q30 159 135 292.5t257.5 211.5t316.5 78q178 0 305.5 -89t167.5 -237l61 311h648l-13 -59h-585l-95 -485h512l-10 -60h-512zM723 43q148 0 284.5 69.5t230 188.5
t120.5 260q28 143 -18.5 262t-156 188.5t-257.5 69.5q-224 0 -409 -151.5t-228 -368.5q-27 -141 20.5 -260t157 -188.5t256.5 -69.5z" />
    <glyph glyph-name="P.c2sc" horiz-adv-x="1081" 
d="M887 1128q68 0 119.5 -18.5t81.5 -50.5t47.5 -74.5t17.5 -90.5t-8 -99q-13 -67 -42.5 -124.5t-77 -105.5t-119 -76t-158.5 -28h-390l-88 -461h-61l219 1128h459zM760 520q138 0 219.5 79t103.5 196q14 74 0.5 133.5t-66.5 100t-143 40.5h-397l-106 -549h389z" />
    <glyph glyph-name="Thorn.c2sc" horiz-adv-x="1040" 
d="M766 897q145 0 225 -90.5t51 -237.5q-29 -150 -144.5 -243t-260.5 -93h-322l-45 -233h-61l219 1128h61l-45 -231h322zM649 293q119 0 213.5 76.5t118.5 199.5q24 120 -42.5 194.5t-186.5 74.5h-320l-104 -545h321z" />
    <glyph glyph-name="Q.c2sc" horiz-adv-x="1429" 
d="M1419 561q-32 -162 -141.5 -298t-265.5 -210l98 -211l-55 -32l-105 217q-121 -43 -239 -43q-164 0 -286 77.5t-175 210t-23 289.5q30 159 135 292.5t257.5 211.5t316.5 78q165 0 287 -78t174.5 -211.5t21.5 -292.5zM987 104q141 67 241.5 189.5t129.5 267.5
q28 143 -18.5 262t-156 188.5t-257.5 69.5q-224 0 -409 -151.5t-228 -368.5q-27 -141 20.5 -260t157 -188.5t256.5 -69.5q107 0 203 35l-101 215l58 33z" />
    <glyph glyph-name="R.c2sc" horiz-adv-x="1089" 
d="M723 461h-37l256 -461h-76l-256 461h-252l-88 -461h-61l219 1128h434q69 0 121 -18.5t81.5 -50.5t47 -74.5t17 -90.5t-8.5 -99q-28 -142 -127.5 -238t-269.5 -96zM477 1069l-106 -549h362q139 0 220.5 78t105.5 197q24 116 -26.5 195t-182.5 79h-373z" />
    <glyph glyph-name="Racute.c2sc" horiz-adv-x="1089" 
d="M1040 1493l-225 -248h-59l213 248h71zM723 461h-37l256 -461h-76l-256 461h-252l-88 -461h-61l219 1128h434q69 0 121 -18.5t81.5 -50.5t47 -74.5t17 -90.5t-8.5 -99q-28 -142 -127.5 -238t-269.5 -96zM477 1069l-106 -549h362q139 0 220.5 78t105.5 197
q24 116 -26.5 195t-182.5 79h-373z" />
    <glyph glyph-name="Rcaron.c2sc" horiz-adv-x="1089" 
d="M825 1245h-73l-150 248h60l137 -197l211 197h61zM723 461h-37l256 -461h-76l-256 461h-252l-88 -461h-61l219 1128h434q69 0 121 -18.5t81.5 -50.5t47 -74.5t17 -90.5t-8.5 -99q-28 -142 -127.5 -238t-269.5 -96zM477 1069l-106 -549h362q139 0 220.5 78t105.5 197
q24 116 -26.5 195t-182.5 79h-373z" />
    <glyph glyph-name="Rcommaaccent.c2sc" horiz-adv-x="1089" 
d="M723 461h-37l256 -461h-76l-256 461h-252l-88 -461h-61l219 1128h434q69 0 121 -18.5t81.5 -50.5t47 -74.5t17 -90.5t-8.5 -99q-28 -142 -127.5 -238t-269.5 -96zM477 1069l-106 -549h362q139 0 220.5 78t105.5 197q24 116 -26.5 195t-182.5 79h-373zM348 -336
q58 50 98.5 122t55.5 153h65q-18 -81 -71 -167.5t-115 -127.5z" />
    <glyph glyph-name="S.c2sc" horiz-adv-x="1005" 
d="M494 -16q-154 0 -240 88t-78 207h62q-3 -96 69.5 -166t198.5 -70q83 0 154 24t117.5 62t75.5 82t38 88q34 178 -217 240l-162 39q-260 57 -217 270q17 85 83 153.5t155 105t182 36.5q147 0 232.5 -77t72.5 -206h-62q9 101 -62 161t-191 60t-224.5 -66t-124.5 -167
q-33 -164 183 -213l159 -37q64 -15 114 -38.5t87.5 -58.5t52.5 -85.5t2 -112.5q-11 -55 -46.5 -109.5t-91 -102.5t-140 -77.5t-182.5 -29.5z" />
    <glyph glyph-name="Sacute.c2sc" horiz-adv-x="1005" 
d="M713 1245l211 248h73l-225 -248h-59zM494 -16q-154 0 -240 88t-78 207h62q-3 -96 69.5 -166t198.5 -70q83 0 154 24t117.5 62t75.5 82t38 88q34 178 -217 240l-162 39q-260 57 -217 270q17 85 83 153.5t155 105t182 36.5q147 0 232.5 -77t72.5 -206h-62q9 101 -62 161
t-191 60t-224.5 -66t-124.5 -167q-33 -164 183 -213l159 -37q64 -15 114 -38.5t87.5 -58.5t52.5 -85.5t2 -112.5q-11 -55 -46.5 -109.5t-91 -102.5t-140 -77.5t-182.5 -29.5z" />
    <glyph glyph-name="Scaron.c2sc" horiz-adv-x="1005" 
d="M709 1245l-150 248h59l138 -197l211 197h59l-244 -248h-73zM494 -16q-154 0 -240 88t-78 207h62q-3 -96 69.5 -166t198.5 -70q83 0 154 24t117.5 62t75.5 82t38 88q34 178 -217 240l-162 39q-260 57 -217 270q17 85 83 153.5t155 105t182 36.5q147 0 232.5 -77t72.5 -206
h-62q9 101 -62 161t-191 60t-224.5 -66t-124.5 -167q-33 -164 183 -213l159 -37q64 -15 114 -38.5t87.5 -58.5t52.5 -85.5t2 -112.5q-11 -55 -46.5 -109.5t-91 -102.5t-140 -77.5t-182.5 -29.5z" />
    <glyph glyph-name="Scedilla.c2sc" horiz-adv-x="1005" 
d="M954 303q-21 -108 -125.5 -202t-267.5 -113l25 -101q8 -39 2 -63q-12 -64 -64 -105t-123 -41q-69 0 -103.5 45t-21.5 117h58q-5 -50 15.5 -78t62.5 -28q46 0 79.5 25.5t40.5 66.5q2 14 -2 41l-28 117h-8q-154 0 -240 88t-78 207h62q-3 -96 69.5 -166t198.5 -70
q83 0 154 24t117.5 62t75.5 82t38 88q34 178 -217 240l-162 39q-260 57 -217 270q17 85 83 153.5t155 105t182 36.5q147 0 232.5 -77t72.5 -206h-62q9 101 -62 161t-191 60t-224.5 -66t-124.5 -167q-33 -164 183 -213l159 -37q134 -31 206.5 -103.5t49.5 -191.5z" />
    <glyph glyph-name="Scommaaccent.c2sc" horiz-adv-x="1005" 
d="M494 -16q-154 0 -240 88t-78 207h62q-3 -96 69.5 -166t198.5 -70q83 0 154 24t117.5 62t75.5 82t38 88q34 178 -217 240l-162 39q-260 57 -217 270q17 85 83 153.5t155 105t182 36.5q147 0 232.5 -77t72.5 -206h-62q9 101 -62 161t-191 60t-224.5 -66t-124.5 -167
q-33 -164 183 -213l159 -37q64 -15 114 -38.5t87.5 -58.5t52.5 -85.5t2 -112.5q-11 -55 -46.5 -109.5t-91 -102.5t-140 -77.5t-182.5 -29.5zM338 -356l-35 20q58 51 99.5 123t56.5 152h65q-15 -79 -69.5 -166t-116.5 -129z" />
    <glyph glyph-name="uni1E9E.c2sc" horiz-adv-x="1179" 
d="M831 680q164 -17 247 -111t57 -229q-31 -161 -165 -258.5t-323 -97.5q-93 0 -176 22l27 57q61 -20 159 -20q161 0 274.5 82t141.5 217q23 112 -53 191t-221 94l-47 2l-2 45l340 366q-38 18 -109.5 29.5t-134.5 11.5q-198 0 -306.5 -87t-148.5 -298l-135 -696h-61l135 696
q46 239 173.5 343t352.5 104q82 0 179 -20t151 -50l-4 -14z" />
    <glyph glyph-name="T.c2sc" horiz-adv-x="976" 
d="M1137 1128l-13 -59h-399l-207 -1069h-61l207 1069h-398l13 59h858z" />
    <glyph glyph-name="Tbar.c2sc" horiz-adv-x="997" 
d="M1135 1069h-400l-82 -428h215l-10 -53h-215l-115 -588h-61l115 588h-217l10 53h217l82 428h-398l13 59h858z" />
    <glyph glyph-name="Tcaron.c2sc" horiz-adv-x="976" 
d="M768 1245h-74l-151 248h61l137 -197l211 197h60zM1137 1128l-13 -59h-399l-207 -1069h-61l207 1069h-398l13 59h858z" />
    <glyph glyph-name="uni0162.c2sc" horiz-adv-x="976" 
d="M1124 1069h-399l-203 -1049l33 -133q7 -35 0 -63q-12 -65 -63 -105.5t-121 -40.5q-69 0 -103 45t-20 117h55q-5 -50 15.5 -78t62.5 -28q46 0 80 25.5t41 66.5q2 14 -2 41l-31 133h-12l207 1069h-398l13 59h858z" />
    <glyph glyph-name="uni021A.c2sc" horiz-adv-x="976" 
d="M279 1128h858l-13 -59h-399l-207 -1069h-61l207 1069h-398zM289 -336q124 108 155 275h66q-15 -79 -70 -166t-118 -129z" />
    <glyph glyph-name="U.c2sc" 
d="M602 -18q-174 0 -272 108.5t-64 282.5l148 755h61l-147 -755q-14 -74 1.5 -136.5t54.5 -104.5t98.5 -65.5t131.5 -23.5q149 0 267 90.5t147 239.5l148 755h61l-147 -755q-34 -174 -174.5 -282.5t-313.5 -108.5z" />
    <glyph glyph-name="Uacute.c2sc" 
d="M817 1245l209 248h74l-223 -248h-60zM602 -18q-174 0 -272 108.5t-64 282.5l148 755h61l-147 -755q-14 -74 1.5 -136.5t54.5 -104.5t98.5 -65.5t131.5 -23.5q149 0 267 90.5t147 239.5l148 755h61l-147 -755q-34 -174 -174.5 -282.5t-313.5 -108.5z" />
    <glyph glyph-name="uni01D3.c2sc" 
d="M813 1245l-151 248h59l137 -197l211 197h59l-241 -248h-74zM602 -18q-174 0 -272 108.5t-64 282.5l148 755h61l-147 -755q-14 -74 1.5 -136.5t54.5 -104.5t98.5 -65.5t131.5 -23.5q149 0 267 90.5t147 239.5l148 755h61l-147 -755q-34 -174 -174.5 -282.5t-313.5 -108.5z
" />
    </font>
</defs>
</svg>
