<?xml version="1.0" standalone="no"?>
<!DOCTYPE svg PUBLIC "-//W3C//DTD SVG 1.1//EN" "http://www.w3.org/Graphics/SVG/1.1/DTD/svg11.dtd" >
<svg xmlns="http://www.w3.org/2000/svg" xmlns:xlink="http://www.w3.org/1999/xlink" version="1.1">
<metadata>
Created by FontForge 20170731 at Thu Oct 12 07:34:50 2023
 By Aleksey,,,
Copyright (c) Olivier Gourvat - Mostardesign Type Foundry, 2016. All rights reserved.
</metadata>
<defs>
<font id="SofiaPro-BoldItalic" horiz-adv-x="1249" >
  <font-face 
    font-family="Sofia Pro"
    font-weight="700"
    font-style="italic"
    font-stretch="normal"
    units-per-em="2048"
    panose-1="0 0 5 0 0 0 0 0 0 0"
    ascent="1638"
    descent="-410"
    x-height="954"
    cap-height="1411"
    bbox="-808.882 -530.063 3303 2296"
    underline-thickness="102"
    underline-position="-307"
    slope="-12"
    unicode-range="U+0020-FB04"
  />
<missing-glyph horiz-adv-x="1300" 
d="M164 0l289 1362h972l-288 -1362h-973zM645 455h127l14 67q10 49 42.5 82t80.5 45q80 23 143.5 89.5t84.5 164.5q27 123 -42 200t-188 77q-117 0 -215 -82t-127 -215h127q17 76 70.5 123t118.5 47t105 -42t26 -108q-20 -98 -148 -145q-88 -25 -134.5 -75t-67.5 -151z
M651 180q38 0 71 25.5t40 62.5q9 37 -13.5 62.5t-60.5 25.5q-39 0 -71.5 -25t-41.5 -63q-7 -38 15 -63t61 -25z" />
    <glyph glyph-name="f_f" unicode="ff" horiz-adv-x="1497" 
d="M1712 1214q-202 0 -248 -198l-12 -62h209l-45 -206h-209l-158 -748h-268l158 748h-484l-157 -748h-269l158 748h-180l45 206h180l12 60q44 216 177.5 333t336.5 117h115l-51 -250h-61q-202 0 -248 -198l-13 -62h484l12 60q44 216 177.5 333t336.5 117h115l-51 -250h-62z
" />
    <glyph glyph-name="fi" unicode="fi" horiz-adv-x="1290" 
d="M1358 954l-203 -954h-268l157 748h-389l-157 -748h-269l158 748h-180l45 206h180l12 60q44 216 177.5 333t336.5 117h91l-52 -250h-36q-202 0 -248 -198l-13 -62h658zM1257 1124q-69 0 -108.5 47.5t-26.5 114.5t74 113.5t131 46.5q72 0 110.5 -46t24.5 -114t-73.5 -115
t-131.5 -47z" />
    <glyph glyph-name="fl" unicode="fl" horiz-adv-x="1292" 
d="M1466 1464l-309 -1464h-270l258 1214h-184q-202 0 -248 -198l-13 -62h209l-45 -206h-209l-157 -748h-269l158 748h-180l45 206h180l12 60q44 216 177.5 333t336.5 117h508z" />
    <glyph glyph-name="f_f_i" unicode="ffi" horiz-adv-x="2041" 
d="M2109 954l-202 -954h-269l158 748h-389l-158 -748h-268l158 748h-484l-157 -748h-269l158 748h-180l45 206h180l12 60q44 216 177.5 333t336.5 117h115l-51 -250h-61q-202 0 -248 -198l-13 -62h484l12 60q44 216 177.5 333t336.5 117h62l-52 -250h-28q-95 0 -150.5 -48.5
t-73.5 -131.5l-16 -80h657zM2009 1124q-69 0 -108.5 47.5t-26.5 114.5t74 113.5t131 46.5q72 0 110.5 -46t24.5 -114t-73.5 -115t-131.5 -47z" />
    <glyph glyph-name="f_f_l" unicode="ffl" horiz-adv-x="2043" 
d="M2218 1464l-309 -1464h-269l258 1214h-186q-202 0 -248 -198l-12 -62h209l-45 -206h-209l-158 -748h-268l158 748h-484l-157 -748h-269l158 748h-180l45 206h180l12 60q44 216 177.5 333t336.5 117h115l-51 -250h-61q-202 0 -248 -198l-13 -62h484l12 60
q44 216 177.5 333t336.5 117h508z" />
    <glyph glyph-name=".notdef" horiz-adv-x="1300" 
d="M164 0l289 1362h972l-288 -1362h-973zM645 455h127l14 67q10 49 42.5 82t80.5 45q80 23 143.5 89.5t84.5 164.5q27 123 -42 200t-188 77q-117 0 -215 -82t-127 -215h127q17 76 70.5 123t118.5 47t105 -42t26 -108q-20 -98 -148 -145q-88 -25 -134.5 -75t-67.5 -151z
M651 180q38 0 71 25.5t40 62.5q9 37 -13.5 62.5t-60.5 25.5q-39 0 -71.5 -25t-41.5 -63q-7 -38 15 -63t61 -25z" />
    <glyph glyph-name=".null" horiz-adv-x="0" 
 />
    <glyph glyph-name="nonmarkingreturn" horiz-adv-x="682" 
 />
    <glyph glyph-name="space" unicode=" " horiz-adv-x="487" 
 />
    <glyph glyph-name="exclam" unicode="!" horiz-adv-x="581" 
d="M287 473l162 938h282l-235 -938h-209zM285 -18q-70 0 -110 47t-25 118q15 70 74.5 117t129.5 47q71 0 112 -47t26 -117q-15 -71 -75 -118t-132 -47z" />
    <glyph glyph-name="quotedbl" unicode="&#x22;" horiz-adv-x="817" 
d="M319 805l93 606h239l-168 -606h-164zM674 805l90 606h240l-166 -606h-164z" />
    <glyph glyph-name="numbersign" unicode="#" horiz-adv-x="1441" 
d="M186 0l176 336h-231l94 186h230l176 346h-228l93 187h229l180 356h207l-182 -356h237l183 356h204l-182 -356h234l-93 -187h-233l-178 -346h233l-96 -186h-231l-177 -336h-202l172 336h-238l-174 -336h-203zM657 522h238l178 346h-237z" />
    <glyph glyph-name="dollar" unicode="$" horiz-adv-x="1095" 
d="M1106 420q-24 -111 -98.5 -197.5t-175 -133t-214.5 -56.5l-40 -191l-146 2l41 191q-171 22 -253 131.5t-50 265.5h283q-15 -77 27 -123.5t134 -46.5q81 0 136 40.5t69 103.5q18 100 -121 145l-145 45q-78 22 -133 57t-83 71.5t-40.5 80.5t-12 80.5t8.5 75.5
q32 149 159 251.5t298 124.5l41 191h145l-41 -191q164 -20 241.5 -126.5t41.5 -266.5h-283q17 72 -16.5 117t-106.5 45t-126.5 -40t-65.5 -101q-23 -90 104 -127l133 -41q348 -104 289 -377z" />
    <glyph glyph-name="percent" unicode="%" horiz-adv-x="1308" 
d="M512 827q-115 0 -176.5 78.5t-36.5 194.5q23 114 119 194t211 80q114 0 177 -80t40 -194q-25 -115 -122 -194t-212 -79zM244 0l948 1341h151l-950 -1341h-149zM545 977q52 0 95.5 35t55.5 88q11 51 -18 88t-80 37q-53 0 -95.5 -36.5t-53.5 -88.5q-12 -54 15 -88.5
t81 -34.5zM963 -18q-116 0 -178 78.5t-37 193.5t119.5 194.5t209.5 79.5q114 0 178 -80t39 -194q-25 -115 -121 -193.5t-210 -78.5zM993 131q53 0 96.5 35t55.5 88q11 51 -17.5 88t-80.5 37t-95.5 -37t-54.5 -88q-12 -54 15.5 -88.5t80.5 -34.5z" />
    <glyph glyph-name="ampersand" unicode="&#x26;" horiz-adv-x="1363" 
d="M1284 229h64l-50 -237h-71q-113 2 -189 40.5t-102 110.5q-70 -80 -175.5 -121.5t-223.5 -41.5q-206 0 -305 119t-60 302q27 125 116 219t197 136q-69 34 -99 114t-7 181q32 154 178.5 265t335.5 111q117 0 202.5 -47.5t131.5 -134.5l-246 -162q-14 32 -51 54t-86 22
q-71 0 -125.5 -43t-65.5 -96q-32 -168 164 -168h191l32 154h252l-35 -162h170l-43 -205h-170l-40 -193q-22 -101 5 -159t105 -58zM631 248q40 0 83 12.5t87.5 38.5t79.5 74.5t49 113.5l33 152h-201q-135 0 -210.5 -59.5t-88.5 -143.5q-15 -84 33 -136t135 -52z" />
    <glyph glyph-name="quotesingle" unicode="'" horiz-adv-x="464" 
d="M319 805l93 606h239l-168 -606h-164z" />
    <glyph glyph-name="parenleft" unicode="(" horiz-adv-x="765" 
d="M637 -377q-142 0 -246 67.5t-158.5 189.5t-65.5 291t34 372q57 267 178.5 476t291 327t357.5 118l-41 -198q-56 0 -116 -26t-124.5 -83t-121.5 -139.5t-107 -205t-82 -269.5q-38 -192 -33.5 -329t47 -224.5t101 -128.5t129.5 -41z" />
    <glyph glyph-name="parenright" unicode=")" horiz-adv-x="765" 
d="M-33 -377l41 197q56 0 116 25.5t124.5 82.5t121.5 139t107 205t82 271q38 191 33 327.5t-47 224.5t-100.5 129.5t-129.5 41.5l41 198q141 0 245.5 -68.5t160 -190.5t67 -291.5t-33.5 -370.5q-57 -268 -180 -477.5t-292 -326t-356 -116.5z" />
    <glyph glyph-name="asterisk" unicode="*" horiz-adv-x="929" 
d="M1083 1075l-272 -57l129 -201l-162 -108l-114 231l-215 -231l-115 108l215 201l-248 57l82 170l252 -86l47 283h176l-72 -283l287 86z" />
    <glyph glyph-name="plus" unicode="+" horiz-adv-x="995" 
d="M1047 604l-43 -205h-320l-68 -319h-204l67 319h-317l43 205h317l68 318h205l-68 -318h320z" />
    <glyph glyph-name="comma" unicode="," horiz-adv-x="520" 
d="M57 -334l-137 66q121 131 185.5 252t89.5 282h254q-33 -181 -141.5 -337t-250.5 -263z" />
    <glyph glyph-name="hyphen" unicode="-" horiz-adv-x="970" 
d="M203 371l51 237h721l-51 -237h-721z" />
    <glyph glyph-name="period" unicode="." horiz-adv-x="540" 
d="M264 -18q-70 0 -110 47t-25 118q15 70 75 117t130 47q71 0 112.5 -47t26.5 -117q-15 -71 -76 -118t-133 -47z" />
    <glyph glyph-name="slash" unicode="/" horiz-adv-x="991" 
d="M49 0l979 1411h215l-979 -1411h-215z" />
    <glyph glyph-name="zero" unicode="0" horiz-adv-x="1208" 
d="M602 -18q-114 0 -194.5 35.5t-123.5 96t-59 149t-9.5 187t32.5 218.5q26 122 61 221.5t89.5 189t123.5 150t164 96t209 35.5t193 -35.5t121.5 -96t58 -150.5t8.5 -189t-33 -221q-26 -120 -60.5 -218t-88.5 -187.5t-122 -149.5t-162 -95.5t-208 -35.5zM655 231
q221 0 316 437q94 442 -129 442q-228 0 -322 -442q-95 -437 135 -437z" />
    <glyph glyph-name="one" unicode="1" horiz-adv-x="804" 
d="M899 1360h23l-289 -1360h-271l211 995l-335 -118l55 251z" />
    <glyph glyph-name="two" unicode="2" horiz-adv-x="1103" 
d="M575 252h476l-54 -252h-903l31 145l657 629q115 112 131 182q14 68 -26.5 111t-118.5 43q-87 0 -149.5 -52t-94.5 -143l-235 41q65 186 205.5 295t336.5 109q201 0 298 -111.5t59 -294.5q-39 -176 -221 -340z" />
    <glyph glyph-name="three" unicode="3" horiz-adv-x="1083" 
d="M905 723q101 -40 145.5 -128.5t20.5 -205.5q-38 -181 -200.5 -294t-381.5 -113q-143 0 -243.5 60t-147.5 175l219 145q71 -135 211 -135q106 0 181 50.5t92 132.5q19 85 -34.5 137.5t-156.5 52.5h-129l43 207h76q106 0 177.5 49.5t82.5 122.5q10 61 -29.5 97t-113.5 36
q-64 0 -133.5 -29.5t-116.5 -78.5l-113 167q203 189 447 189q181 0 278 -102t58 -269q-19 -84 -80.5 -154t-151.5 -112z" />
    <glyph glyph-name="four" unicode="4" horiz-adv-x="1224" 
d="M1249 496l-51 -240h-205l-53 -256h-272l53 256h-647l16 80l975 1005h160l-181 -845h205zM508 496h264l76 354z" />
    <glyph glyph-name="five" unicode="5" horiz-adv-x="1173" 
d="M838 909q194 0 290 -126.5t54 -321.5q-31 -145 -126.5 -255.5t-224.5 -167t-270 -56.5q-150 0 -271 76.5t-159 197.5l240 139q19 -70 85.5 -117t145.5 -47q115 0 200.5 64.5t108.5 167.5q20 98 -35.5 161.5t-162.5 63.5q-76 0 -161 -33t-161 -88l-137 101l262 675h762
l-53 -249h-541l-106 -258q117 73 260 73z" />
    <glyph glyph-name="six" unicode="6" horiz-adv-x="1212" 
d="M846 862q131 0 223 -59t126 -157t9 -214q-40 -195 -203.5 -322.5t-386.5 -127.5q-237 0 -341.5 172t-41.5 471q33 151 97.5 282.5t155 233.5t213 160.5t259.5 58.5q138 0 240 -67.5t133 -198.5l-244 -121q-14 67 -63.5 102t-116.5 35q-127 0 -231 -102t-144 -263
q134 117 316 117zM668 231q98 0 173 57t95 146q19 87 -30.5 143t-145.5 58q-99 0 -176 -55.5t-99 -141.5q-19 -89 33 -147t150 -60z" />
    <glyph glyph-name="seven" unicode="7" horiz-adv-x="1064" 
d="M360 1341h971l-6 -26l-879 -1315h-311l733 1092h-561z" />
    <glyph glyph-name="eight" unicode="8" horiz-adv-x="1216" 
d="M1038 754q103 -34 152 -130.5t22 -222.5q-26 -123 -115.5 -219.5t-218.5 -148t-274 -51.5t-253 51.5t-157.5 148t-23.5 219.5q27 126 118 222.5t210 130.5q-58 31 -86 101.5t-9 160.5q32 153 172.5 248.5t321.5 95.5t279.5 -95.5t66.5 -248.5q-20 -90 -77 -160.5
t-128 -101.5zM848 1128q-68 0 -123.5 -42t-67.5 -101t24.5 -100t104.5 -41q69 0 124 41t67 100t-24.5 101t-104.5 42zM653 221q107 0 188.5 59t100.5 146q19 92 -38.5 150.5t-162.5 58.5q-104 0 -185.5 -59t-100.5 -148q-19 -90 37 -148.5t161 -58.5z" />
    <glyph glyph-name="nine" unicode="9" horiz-adv-x="1214" 
d="M883 1360q154 0 256 -82t133 -225t-6 -336q-25 -120 -70.5 -229t-112 -201.5t-147 -160t-182 -106t-211.5 -38.5q-139 0 -242.5 67.5t-134.5 198.5l244 119q17 -66 66.5 -101t117.5 -35q125 0 228 100.5t145 258.5q-137 -113 -316 -113q-80 0 -146.5 22.5t-111.5 62.5
t-74.5 94.5t-35 118t7.5 134.5q40 195 205.5 323t386.5 128zM737 705q100 0 176.5 55t96.5 143q20 89 -31 147t-148 60q-100 0 -174.5 -57t-93.5 -146q-19 -88 30 -144t144 -58z" />
    <glyph glyph-name="colon" unicode=":" horiz-adv-x="579" 
d="M428 647q-72 0 -112 46.5t-25 117.5t75 118.5t132 47.5q70 0 110 -47.5t25 -118.5t-75 -117.5t-130 -46.5zM287 -18q-72 0 -112 47t-25 118q15 70 75 117t131 47q70 0 110.5 -47t25.5 -117q-15 -71 -75 -118t-130 -47z" />
    <glyph glyph-name="semicolon" unicode=";" horiz-adv-x="581" 
d="M500 977q70 0 111 -47.5t26 -118.5t-75.5 -117.5t-131.5 -46.5q-70 0 -110 46.5t-25 117.5t75 118.5t130 47.5zM90 -334l-137 66q121 130 185 251.5t91 282.5h252q-33 -181 -141 -337.5t-250 -262.5z" />
    <glyph glyph-name="less" unicode="&#x3c;" horiz-adv-x="1230" 
d="M1335 1110l-47 -221l-809 -285l688 -282l-47 -222l-946 396l47 221z" />
    <glyph glyph-name="equal" unicode="=" horiz-adv-x="1204" 
d="M281 705l41 196h942l-41 -196h-942zM193 295l43 197h942l-43 -197h-942z" />
    <glyph glyph-name="greater" unicode="&#x3e;" horiz-adv-x="1230" 
d="M367 1110l946 -393l-47 -221l-1114 -396l47 222l807 284l-687 283z" />
    <glyph glyph-name="question" unicode="?" horiz-adv-x="991" 
d="M389 473l8 41q13 124 71 201.5t191 128.5l80 28q57 22 92.5 62t45.5 84q17 73 -21.5 114.5t-112.5 41.5q-70 0 -132.5 -49t-80.5 -130h-249q43 205 187.5 320t332.5 115q186 0 280.5 -109t55.5 -291q-30 -143 -127.5 -243.5t-231.5 -143.5q-40 -13 -59.5 -21t-44.5 -22.5
t-37.5 -36t-18.5 -51.5l-10 -39h-219zM393 -18q-70 0 -110 47t-25 118t75 117.5t130 46.5q72 0 113 -46.5t26 -117.5t-76 -118t-133 -47z" />
    <glyph glyph-name="at" unicode="@" horiz-adv-x="1976" 
d="M889 -352q-147 0 -273.5 45t-216.5 125.5t-149.5 192t-72 244.5t15.5 284q39 184 143.5 350.5t247.5 287.5t323 192t363 71q148 0 278.5 -42.5t227.5 -119.5t162 -184.5t82.5 -238t-11.5 -280.5q-16 -77 -45.5 -156t-76.5 -159.5t-104.5 -142.5t-135 -101t-162.5 -39
q-49 0 -89.5 10t-76 32.5t-55.5 59t-27 89.5t10 123l53 258q23 102 -32.5 173t-155.5 71q-99 0 -185.5 -71t-109.5 -173q-20 -98 37.5 -169t155.5 -71q89 0 180 58l-41 -191q-84 -43 -178 -43q-173 0 -269 122t-61 294q38 176 186 297t322 121q169 0 266.5 -116.5
t69.5 -281.5l-64 -290q-14 -68 17.5 -98.5t83.5 -30.5q51 0 97.5 29.5t79 74t60 104t43.5 112t27 105.5q31 146 -2 274.5t-115 218.5t-207 142t-274 52q-196 0 -379.5 -97.5t-312 -263.5t-170.5 -362q-23 -121 -13 -227.5t57.5 -196t119.5 -153.5t173.5 -100t219.5 -36h94
l-37 -178h-94z" />
    <glyph glyph-name="A" unicode="A" horiz-adv-x="1337" 
d="M1049 0l-43 338h-529l-184 -338h-303l825 1411h307l226 -1411h-299zM612 586h359l-68 530z" />
    <glyph glyph-name="B" unicode="B" horiz-adv-x="1306" 
d="M1110 754q84 -15 135.5 -69.5t62 -126.5t-4.5 -155q-16 -76 -57 -146t-105.5 -128.5t-159.5 -93.5t-207 -35h-602l299 1411h559q187 0 278.5 -101.5t57.5 -262.5q-10 -43 -27.5 -84t-47 -83t-76.5 -75.5t-105 -50.5zM961 1159h-259l-65 -309h258q67 0 115 42t63 114
q14 68 -13 110.5t-99 42.5zM786 252q95 0 158.5 52.5t77.5 127.5q15 73 -23 126.5t-133 53.5h-280l-76 -360h276z" />
    <glyph glyph-name="C" unicode="C" horiz-adv-x="1433" 
d="M799 -18q-98 0 -186 26t-156.5 73t-121 113t-80.5 146.5t-35 173.5t16 193q31 146 115.5 279.5t201 230t261.5 153.5t292 57q177 0 311 -78t201 -214l-250 -158q-89 182 -309 182q-191 0 -345 -130.5t-194 -321.5q-26 -125 7.5 -229.5t121.5 -166t213 -61.5
q225 0 391 184l183 -160q-126 -135 -293.5 -213.5t-343.5 -78.5z" />
    <glyph glyph-name="D" unicode="D" horiz-adv-x="1458" 
d="M172 0l299 1411h553q120 0 215 -35t157 -99t99 -152.5t39 -195t-21 -227.5q-32 -150 -102 -278t-170.5 -222.5t-233.5 -148t-282 -53.5h-553zM510 252h268q169 0 290 129t161 321q22 91 14.5 173.5t-36 145.5t-89.5 100.5t-147 37.5h-269z" />
    <glyph glyph-name="E" unicode="E" horiz-adv-x="1175" 
d="M510 252h618l-53 -252h-903l299 1411h885l-53 -252h-601l-71 -336h526l-55 -256h-527z" />
    <glyph glyph-name="F" unicode="F" horiz-adv-x="1110" 
d="M1290 1159h-588l-71 -340h467l-54 -250h-466l-121 -569h-285l299 1411h872z" />
    <glyph glyph-name="G" unicode="G" horiz-adv-x="1546" 
d="M803 -18q-120 0 -223.5 37t-176.5 102.5t-121.5 156.5t-58.5 198.5t13 228.5q31 148 115.5 282t200.5 231t262.5 154.5t295.5 57.5q156 0 279 -60.5t194 -165.5l-244 -178q-46 65 -120.5 102t-165.5 37q-183 0 -338 -135t-195 -325q-27 -125 7 -232.5t121.5 -172
t207.5 -64.5q139 0 252.5 63t163.5 172q10 16 16 35h-399l49 231h711q-41 -192 -121.5 -337.5t-191.5 -236.5t-244.5 -136t-288.5 -45z" />
    <glyph glyph-name="H" unicode="H" horiz-adv-x="1439" 
d="M1282 1411h285l-299 -1411h-285l121 573h-526l-121 -573h-285l299 1411h285l-123 -582h526z" />
    <glyph glyph-name="I" unicode="I" horiz-adv-x="628" 
d="M172 0l299 1411h285l-299 -1411h-285z" />
    <glyph glyph-name="J" unicode="J" horiz-adv-x="645" 
d="M-86 -481q-94 0 -193 30l80 261q59 -23 168 -23q87 0 142 57.5t75 149.5l301 1417h285l-301 -1417q-21 -100 -64 -183.5t-109.5 -150t-164.5 -104t-219 -37.5z" />
    <glyph glyph-name="K" unicode="K" 
d="M1284 0h-387l-336 496l-104 -496h-285l299 1411h285l-103 -481l453 481h354l-684 -702z" />
    <glyph glyph-name="L" unicode="L" horiz-adv-x="1032" 
d="M172 0l299 1411h285l-246 -1159h534l-53 -252h-819z" />
    <glyph glyph-name="M" unicode="M" horiz-adv-x="1894" 
d="M1798 0h-291l82 874l-495 -714h-224l-196 714l-287 -874h-291l473 1411h242l240 -926l628 926h246z" />
    <glyph glyph-name="N" unicode="N" horiz-adv-x="1396" 
d="M1239 1411h285l-299 -1411h-256l-326 885l-186 -885h-285l299 1411h264l318 -874z" />
    <glyph glyph-name="O" unicode="O" horiz-adv-x="1607" 
d="M799 -18q-197 0 -341.5 97t-204 263t-17.5 363q41 198 171.5 364.5t316 263.5t382.5 97q118 0 220 -37t175.5 -103t122 -157t59 -199t-11.5 -229q-32 -147 -117 -281t-201.5 -230.5t-261.5 -154t-292 -57.5zM854 248q187 0 337.5 132t192.5 325q26 126 -6.5 230t-119 165
t-209.5 61q-188 0 -338.5 -131.5t-190.5 -324.5q-27 -126 5 -230.5t118.5 -165.5t210.5 -61z" />
    <glyph glyph-name="P" unicode="P" horiz-adv-x="1265" 
d="M1047 1411q78 0 141 -18t105.5 -50t72.5 -76t41.5 -95t13.5 -107.5t-12 -114.5q-19 -89 -63.5 -169t-112.5 -145t-167 -103.5t-214 -38.5h-291l-104 -494h-285l299 1411h576zM891 743q95 0 154.5 61t76.5 146q11 38 7 75.5t-18 67t-47 48t-81 18.5h-281l-88 -416h277z
" />
    <glyph glyph-name="Q" unicode="Q" horiz-adv-x="1607" 
d="M1671 705q-39 -182 -155 -339t-279 -257l88 -226l-227 -123l-99 246q-111 -26 -202 -26q-118 0 -220.5 37t-175 103t-120.5 157t-58 199t13 229q31 147 115.5 280.5t200.5 230.5t261 154t293 57q98 0 186 -26t156.5 -72.5t121.5 -112.5t81 -146.5t35.5 -172.5t-15.5 -192
zM854 248q33 0 47 2l-78 201l228 122l92 -231q90 62 153 156.5t88 206.5q26 125 -6.5 228.5t-119 164.5t-209.5 61q-188 0 -338.5 -131.5t-190.5 -322.5q-27 -126 5 -230.5t118.5 -165.5t210.5 -61z" />
    <glyph glyph-name="R" unicode="R" horiz-adv-x="1302" 
d="M889 0l-230 506h-96l-106 -506h-285l299 1411h563q94 0 167 -26t115.5 -70t68.5 -103t26 -125.5t-12 -136.5q-34 -161 -144.5 -278t-289.5 -152l258 -520h-334zM702 1159l-90 -424h228q114 0 182.5 59t87.5 150q20 90 -21 152.5t-137 62.5h-250z" />
    <glyph glyph-name="S" unicode="S" horiz-adv-x="1191" 
d="M596 -18q-224 0 -340 122.5t-76 311.5h285q-15 -78 39 -132.5t151 -54.5q95 0 163 45.5t85 120.5q24 115 -143 170l-162 49q-84 24 -143.5 61t-89.5 77t-44 88t-13.5 88t9.5 82q39 185 205 302.5t373 117.5q204 0 312.5 -117t66.5 -314h-285q18 77 -22.5 128t-130.5 51
q-84 0 -149.5 -46t-80.5 -116q-24 -105 125 -150l150 -45q375 -110 311 -411q-28 -135 -121 -234.5t-216 -146.5t-259 -47z" />
    <glyph glyph-name="T" unicode="T" horiz-adv-x="1144" 
d="M1403 1411l-53 -252h-389l-246 -1159h-285l246 1159h-389l53 252h1063z" />
    <glyph glyph-name="U" unicode="U" horiz-adv-x="1392" 
d="M692 -18q-108 0 -198 35.5t-150 103t-83 164.5t3 219l193 907h284l-190 -891q-27 -134 32 -201t167 -67q70 0 131.5 26.5t111 88.5t68.5 153l190 891h285l-193 -907q-34 -158 -135 -278.5t-235.5 -182t-280.5 -61.5z" />
    <glyph glyph-name="V" unicode="V" horiz-adv-x="1185" 
d="M1151 1411h297l-727 -1411h-256l-129 1411h295l57 -952z" />
    <glyph glyph-name="W" unicode="W" horiz-adv-x="1851" 
d="M1825 1411h309l-778 -1411h-228l-43 766l-362 -766h-227l-179 1411h308l92 -919l350 720h231l43 -720z" />
    <glyph glyph-name="X" unicode="X" horiz-adv-x="1331" 
d="M1325 0h-338l-211 526l-434 -526h-334l647 754l-305 657h344l178 -432l365 432h340l-584 -657z" />
    <glyph glyph-name="Y" unicode="Y" horiz-adv-x="1372" 
d="M1337 1411h338l-712 -774l-136 -637h-284l135 641l-383 770h340l233 -537z" />
    <glyph glyph-name="Z" unicode="Z" horiz-adv-x="1204" 
d="M1409 1411l-47 -219l-864 -940h665l-53 -252h-1028l45 219l858 940h-631l54 252h1001z" />
    <glyph glyph-name="bracketleft" unicode="[" horiz-adv-x="679" 
d="M893 1266h-231l-308 -1440h232l-43 -203h-465l391 1841h465z" />
    <glyph glyph-name="backslash" unicode="\" horiz-adv-x="991" 
d="M727 0l-381 1411h217l381 -1411h-217z" />
    <glyph glyph-name="bracketright" unicode="]" horiz-adv-x="679" 
d="M365 1464h464l-391 -1841h-463l41 203h232l307 1440h-231z" />
    <glyph glyph-name="asciicircum" unicode="^" horiz-adv-x="1081" 
d="M1133 588h-277l-80 522l-301 -522h-276l510 823h262z" />
    <glyph glyph-name="underscore" unicode="_" horiz-adv-x="1466" 
d="M47 -264l43 198h1258l-43 -198h-1258z" />
    <glyph glyph-name="grave" unicode="`" horiz-adv-x="1093" 
d="M772 1128l-197 340h273l123 -340h-199z" />
    <glyph glyph-name="a" unicode="a" horiz-adv-x="1257" 
d="M1057 954h268l-203 -954h-268l25 119q-62 -66 -156 -101.5t-180 -35.5q-92 0 -170 34.5t-129.5 99t-71 156.5t5.5 207q48 222 216 360t360 138q90 0 167.5 -34.5t110.5 -102.5zM647 231q101 0 188.5 70.5t110.5 177.5q24 106 -36 176t-158 70q-102 0 -190 -70.5
t-111 -175.5q-22 -104 36 -176t160 -72z" />
    <glyph glyph-name="b" unicode="b" horiz-adv-x="1255" 
d="M918 977q92 0 169.5 -34.5t128.5 -99t70 -157t-6 -207.5q-32 -149 -122.5 -264t-208.5 -174t-242 -59q-89 0 -167.5 34.5t-111.5 102.5l-25 -119h-268l309 1464h269l-131 -624q62 68 154.5 102.5t181.5 34.5zM709 231q102 0 188.5 72t108.5 176q23 105 -34 175.5
t-159 70.5q-98 0 -187.5 -69.5t-113.5 -176.5q-23 -106 36.5 -177t160.5 -71z" />
    <glyph glyph-name="c" unicode="c" horiz-adv-x="1060" 
d="M596 -18q-104 0 -192 35.5t-146.5 100.5t-82 157t0.5 206q32 147 130 262.5t229.5 175.5t271.5 60q127 0 219 -55t141 -150l-231 -141q-23 44 -72 70t-108 26q-112 0 -197.5 -71t-109.5 -177q-22 -107 34 -178.5t168 -71.5q58 0 118 26.5t103 70.5l170 -142
q-90 -96 -204.5 -150t-241.5 -54z" />
    <glyph glyph-name="d" unicode="d" horiz-adv-x="1257" 
d="M1163 1464h269l-310 -1464h-268l25 119q-62 -66 -156 -101.5t-180 -35.5q-92 0 -170 34.5t-129.5 99t-71 156.5t5.5 207q48 222 216 360t360 138q90 0 167.5 -34.5t110.5 -102.5zM647 231q101 0 188.5 70.5t110.5 177.5q24 106 -36 176t-158 70q-102 0 -190 -70.5
t-111 -175.5q-22 -104 36 -176t160 -72z" />
    <glyph glyph-name="e" unicode="e" horiz-adv-x="1153" 
d="M1186 494q-7 -31 -27 -103h-721q4 -83 59 -127.5t152 -44.5q73 0 146.5 28.5t126.5 78.5l125 -158q-86 -89 -211 -137.5t-254 -48.5q-222 0 -336.5 138t-67.5 357q32 150 127 266t222.5 176t265.5 60q101 0 184.5 -34.5t137 -98t74 -153t-2.5 -199.5zM475 565h457
q12 83 -39.5 131.5t-144.5 48.5q-88 0 -160 -44t-113 -136z" />
    <glyph glyph-name="f" unicode="f" horiz-adv-x="745" 
d="M961 1214q-202 0 -248 -198l-13 -62h209l-45 -206h-209l-157 -748h-269l158 748h-180l45 206h180l12 60q44 216 177.5 333t336.5 117h115l-51 -250h-61z" />
    <glyph glyph-name="g" unicode="g" horiz-adv-x="1257" 
d="M1057 954h268l-176 -823q-64 -306 -240.5 -459t-437.5 -153q-153 0 -262 79t-141 212l243 96q17 -65 75 -106.5t134 -41.5q281 0 354 344l5 15q-64 -65 -157 -100t-179 -35q-92 0 -170 34.5t-129.5 99t-71 156.5t5.5 207q48 222 216 360t360 138q87 0 164.5 -34.5
t113.5 -100.5zM647 231q101 0 188.5 70.5t110.5 177.5q24 106 -36 176t-158 70q-102 0 -190 -70.5t-111 -175.5q-22 -104 36 -176t160 -72z" />
    <glyph glyph-name="h" unicode="h" horiz-adv-x="1191" 
d="M897 979q186 0 258.5 -119t24.5 -336l-111 -524h-268l104 496q23 107 -18 163t-117 56q-39 0 -77 -11.5t-76.5 -36t-68 -70.5t-42.5 -108l-103 -489h-268l309 1464h269l-140 -659q47 83 144.5 128.5t179.5 45.5z" />
    <glyph glyph-name="i" unicode="i" horiz-adv-x="538" 
d="M506 1124q-69 0 -108.5 47.5t-26.5 114.5t73.5 113.5t130.5 46.5q71 0 110 -46.5t26 -113.5t-73.5 -114.5t-131.5 -47.5zM135 0l203 954h268l-203 -954h-268z" />
    <glyph glyph-name="j" unicode="j" horiz-adv-x="555" 
d="M524 1124q-69 0 -109.5 47.5t-27.5 114.5t75 113.5t132 46.5t108.5 -46t24.5 -114q-13 -67 -72.5 -114.5t-130.5 -47.5zM-215 -469l53 250h117q74 0 123 54.5t67 141.5l209 977h269l-209 -979q-45 -212 -174.5 -328t-329.5 -116h-125z" />
    <glyph glyph-name="k" unicode="k" horiz-adv-x="1052" 
d="M1073 0h-334l-250 414l-86 -414h-268l309 1464h269l-170 -800l305 290h344l-463 -419z" />
    <glyph glyph-name="l" unicode="l" horiz-adv-x="538" 
d="M135 0l309 1464h269l-310 -1464h-268z" />
    <glyph glyph-name="m" unicode="m" horiz-adv-x="1785" 
d="M1507 979q178 0 246.5 -119t22.5 -336l-111 -524h-270l106 504q22 107 -14.5 159t-112.5 52q-82 2 -144 -51.5t-89 -157.5l-107 -506h-268l106 506q23 106 -13 157.5t-109 51.5q-39 0 -73.5 -10t-69 -33.5t-60.5 -67.5t-39 -106l-105 -498h-268l203 954h268l-37 -170
q40 92 132 143.5t180 51.5q105 0 175 -48t93 -136q70 95 170 139.5t188 44.5z" />
    <glyph glyph-name="n" unicode="n" horiz-adv-x="1191" 
d="M897 979q186 0 258.5 -119t24.5 -336l-111 -524h-268l104 496q23 107 -18 163t-117 56q-39 0 -77 -11.5t-76.5 -36t-68 -70.5t-42.5 -108l-103 -489h-268l203 954h268l-35 -159q47 88 145 136t181 48z" />
    <glyph glyph-name="o" unicode="o" horiz-adv-x="1179" 
d="M586 -18q-102 0 -188 35.5t-143 100.5t-80 156.5t1 204.5q32 147 129 263t226 176.5t266 60.5q102 0 187.5 -35.5t142.5 -101t79.5 -157.5t-2.5 -206q-31 -146 -127 -261t-225 -175.5t-266 -60.5zM639 231q101 0 185.5 69.5t107.5 178.5q24 110 -31.5 180t-157.5 70
t-186 -69.5t-108 -180.5q-23 -108 32.5 -178t157.5 -70z" />
    <glyph glyph-name="p" unicode="p" horiz-adv-x="1257" 
d="M918 979q92 0 169.5 -35t128.5 -100t70 -157.5t-6 -207.5q-32 -149 -122.5 -264t-208.5 -174t-242 -59q-89 0 -167.5 34.5t-111.5 102.5l-125 -588h-268l303 1423h268l-24 -114q62 68 155 103.5t181 35.5zM709 233q102 0 188.5 70.5t108.5 175.5q23 104 -34 176t-159 72
q-101 0 -189.5 -71t-111.5 -177q-22 -106 38.5 -176t158.5 -70z" />
    <glyph glyph-name="q" unicode="q" horiz-adv-x="1257" 
d="M1057 954h268l-303 -1423h-268l125 590q-63 -68 -154.5 -103.5t-181.5 -35.5q-92 0 -170 34.5t-129.5 99t-71 156.5t5.5 207q32 148 123 264t210 176t243 60q87 0 166 -35.5t112 -103.5zM647 233q98 0 187.5 70t111.5 176q23 106 -35 177t-159 71q-102 0 -190 -72
t-111 -176q-22 -105 36 -175.5t160 -70.5z" />
    <glyph glyph-name="r" unicode="r" horiz-adv-x="843" 
d="M889 979q92 0 145 -31l-116 -256q-55 35 -130 35q-107 0 -190.5 -100.5t-124.5 -298.5l-70 -328h-268l203 954h266l-43 -202q62 115 148 171t180 56z" />
    <glyph glyph-name="s" unicode="s" horiz-adv-x="952" 
d="M469 -18q-76 0 -142.5 21.5t-114 61.5t-68.5 103t-5 139h252q-8 -46 21.5 -80t95.5 -34q60 0 104.5 24t53.5 64q6 30 -14.5 47.5t-73.5 31.5l-121 31q-265 76 -213 303q24 114 148.5 199.5t285.5 85.5q69 0 129.5 -17.5t109 -53t69.5 -97.5t3 -143h-256q9 46 -19 72
t-77 26q-47 0 -83.5 -22t-43.5 -58q-13 -57 76 -82l149 -41q62 -17 105 -45.5t63.5 -57.5t29.5 -64t8 -61t-7 -54q-16 -73 -63 -131.5t-112 -94t-139.5 -54.5t-150.5 -19z" />
    <glyph glyph-name="t" unicode="t" horiz-adv-x="737" 
d="M901 954l-45 -206h-203l-157 -748h-269l158 748h-174l45 206h174l74 351h268l-74 -351h203z" />
    <glyph glyph-name="u" unicode="u" horiz-adv-x="1191" 
d="M991 954h269l-203 -954h-269l33 156q-47 -86 -144.5 -132.5t-180.5 -46.5q-186 0 -258.5 118t-24.5 335l113 524h268l-107 -495q-22 -106 20 -161.5t118 -55.5q54 0 103 18.5t95.5 71t63.5 133.5z" />
    <glyph glyph-name="v" unicode="v" horiz-adv-x="1062" 
d="M965 954h292l-606 -954h-239l-201 954h291l102 -610z" />
    <glyph glyph-name="w" unicode="w" horiz-adv-x="1556" 
d="M1454 954h291l-541 -954h-229l-66 621l-321 -621h-230l-145 954h291l55 -581l307 581h226l57 -581z" />
    <glyph glyph-name="x" unicode="x" horiz-adv-x="1064" 
d="M1059 0h-314l-147 305l-279 -305h-315l488 518l-222 436h318l104 -219l195 219h315l-409 -436z" />
    <glyph glyph-name="y" unicode="y" horiz-adv-x="1048" 
d="M954 954h289l-893 -1423h-287l345 559l-193 864h295l106 -551z" />
    <glyph glyph-name="z" unicode="z" horiz-adv-x="1036" 
d="M1145 954l-45 -204l-584 -500h477l-51 -250h-860l43 203l573 502h-438l53 249h832z" />
    <glyph glyph-name="braceleft" unicode="{" horiz-adv-x="792" 
d="M575 758q-15 -71 -59 -129.5t-100 -85.5q45 -25 64.5 -83.5t4.5 -129.5l-61 -289q-22 -99 20.5 -161t167.5 -62h95l-43 -195h-148q-175 0 -270.5 112.5t-55.5 295.5l68 317q10 52 -21.5 82.5t-80.5 30.5l37 166q50 0 93.5 29.5t53.5 80.5l68 320q25 121 101 214.5
t180 143t218 49.5h148l-41 -196h-94q-125 0 -193.5 -61t-89.5 -160z" />
    <glyph glyph-name="bar" unicode="|" horiz-adv-x="466" 
d="M104 -252l404 1892h145l-403 -1892h-146z" />
    <glyph glyph-name="braceright" unicode="}" horiz-adv-x="792" 
d="M762 737q-10 -51 22 -80.5t80 -29.5l-37 -166q-49 0 -93 -30.5t-54 -82.5l-68 -317q-25 -122 -101 -216t-180 -143t-218 -49h-146l41 195h94q124 0 192 61.5t91 161.5l61 289q15 72 59 130t101 83q-46 26 -65 84.5t-4 130.5l61 289q12 45 6.5 85t-24.5 70t-62.5 48
t-107.5 18h-95l41 196h148q175 0 270 -112.5t55 -294.5z" />
    <glyph glyph-name="asciitilde" unicode="~" horiz-adv-x="1359" 
d="M1374 584q-71 -85 -170 -140t-198 -55q-32 0 -61 4.5t-56 14t-43 16.5t-43.5 21t-36.5 18q-13 6 -42.5 21t-49 23.5t-52.5 16.5t-67 8q-114 0 -258 -129l-72 132q76 81 175 134.5t200 53.5q32 0 60.5 -4.5t55 -14t42 -16.5t41.5 -21t35 -18q11 -5 41 -20.5t49 -24
t51.5 -16.5t66.5 -8q114 0 248 129z" />
    <glyph glyph-name="exclamdown" unicode="&#xa1;" horiz-adv-x="552" 
d="M479 979q72 0 113 -47.5t26 -118.5t-75.5 -118.5t-132.5 -47.5q-69 0 -109 47.5t-25 118.5t74.5 118.5t128.5 47.5zM270 469h209l-162 -938h-282z" />
    <glyph glyph-name="cent" unicode="&#xa2;" horiz-adv-x="1083" 
d="M659 231q59 0 119 26.5t103 70.5l170 -142q-167 -179 -389 -202l-52 -236h-145l51 240q-180 29 -276.5 163t-55.5 330q43 196 196 329.5t345 162.5l51 237h146l-50 -233q104 -12 182 -65.5t122 -137.5l-232 -141q-23 44 -72 70t-108 26q-112 0 -197.5 -71t-109.5 -177
q-22 -107 34 -178.5t168 -71.5z" />
    <glyph glyph-name="sterling" unicode="&#xa3;" horiz-adv-x="1345" 
d="M1090 416h268l-33 -148q-23 -113 -111.5 -190.5t-193.5 -77.5h-940l49 236h201l59 280h-141l26 129h142l55 260q30 141 109 244t187 154t232 51q96 0 170 -25.5t128 -81.5t68.5 -144.5t-9.5 -215.5h-269q22 110 -15 164.5t-122 54.5q-72 0 -130.5 -56.5t-78.5 -148.5
l-55 -256h246l-27 -129h-246l-59 -280h391q33 0 50.5 19t25.5 56z" />
    <glyph glyph-name="currency" unicode="&#xa4;" horiz-adv-x="1208" 
d="M334 1061l158 131l116 -148q116 64 230 64q121 0 206 -64l177 148l104 -131l-180 -148q44 -102 18 -225q-25 -119 -108 -211l114 -147l-159 -131l-115 147q-108 -63 -231 -63t-207 63l-176 -147l-103 131l176 147q-41 96 -16 215q25 121 111 221zM707 489q86 0 159 60
t92 145q17 87 -30 147t-133 60q-85 0 -158 -60.5t-90 -146.5q-19 -85 28 -145t132 -60z" />
    <glyph glyph-name="yen" unicode="&#xa5;" horiz-adv-x="1478" 
d="M594 0l41 199h-326l31 139h326l39 184h-326l29 140h309l-367 749h338l234 -534l469 534h338l-689 -749h310l-29 -140h-326l-39 -184h326l-31 -139h-325l-41 -199h-291z" />
    <glyph glyph-name="brokenbar" unicode="&#xa6;" horiz-adv-x="477" 
d="M346 856l168 784h145l-167 -784h-146zM111 -252l168 787h145l-168 -787h-145z" />
    <glyph glyph-name="section" unicode="&#xa7;" horiz-adv-x="1095" 
d="M582 184q-180 0 -280 118t-60 308l82 383q27 126 106.5 224.5t188 150t225.5 51.5q71 0 133.5 -20t112.5 -59.5t79.5 -103.5t30.5 -146l-246 -68q-7 81 -51.5 118.5t-109.5 37.5q-78 0 -144.5 -51.5t-83.5 -133.5l-82 -383q-19 -86 29 -134t133 -48q49 0 94 10l-51 -241
q-58 -13 -106 -13zM475 -354q-94 0 -172.5 34.5t-130 111t-51.5 183.5l244 68q7 -79 52.5 -117.5t108.5 -38.5q79 0 144.5 51t83.5 134l82 383q18 88 -28.5 135t-131.5 47q-49 0 -94 -10l51 241q56 13 104 13q182 0 282 -118t60 -308l-82 -383q-40 -190 -190 -308t-332 -118
z" />
    <glyph glyph-name="dieresis" unicode="&#xa8;" horiz-adv-x="1204" 
d="M637 1165q-60 0 -93.5 40t-21.5 100q12 57 63 97t111 40t93.5 -40t21.5 -97q-12 -59 -62.5 -99.5t-111.5 -40.5zM1063 1165q-62 0 -95.5 40t-21.5 100q12 57 63.5 97t112.5 40q59 0 92 -40t21 -97q-12 -59 -62.5 -99.5t-109.5 -40.5z" />
    <glyph glyph-name="copyright" unicode="&#xa9;" horiz-adv-x="1603" 
d="M795 -20q-118 0 -220 37t-174.5 102.5t-121 156t-58.5 198t12 228.5q42 198 173 364.5t316.5 263.5t381.5 97q118 0 220 -37t174.5 -103t121 -157t58.5 -199t-13 -229q-31 -147 -115.5 -280.5t-201 -230.5t-261.5 -154t-292 -57zM823 106q161 0 313.5 80t259.5 217
t142 299q29 124 4 233t-85.5 190t-160.5 128t-221 47q-162 0 -315 -80.5t-260 -218t-142 -299.5q-34 -162 15 -299t168.5 -217t281.5 -80zM870 330q-151 0 -232 107t-48 257q32 153 157.5 259t276.5 106q84 0 152 -40.5t110 -111.5l-139 -94q-66 94 -154 94q-86 0 -155 -61
t-88 -152q-20 -88 23.5 -149.5t129.5 -61.5q97 0 197 97l100 -97q-70 -71 -157.5 -112t-172.5 -41z" />
    <glyph glyph-name="ordfeminine" unicode="&#xaa;" horiz-adv-x="1091" 
d="M1040 1456h213l-163 -764h-213l22 99q-52 -57 -127.5 -86t-146.5 -29q-154 0 -241 111t-50 288q26 119 98.5 212t168 140.5t194.5 47.5q71 0 134 -29t91 -84zM707 877q83 0 155 56.5t90 141.5t-30 142t-129 57t-152 -57.5t-90 -141.5q-17 -82 29.5 -140t126.5 -58z
M252 410l33 151h753l-32 -151h-754z" />
    <glyph glyph-name="guillemotleft" unicode="&#xab;" horiz-adv-x="1038" 
d="M367 53l-193 424l373 424h217l-373 -424l193 -424h-217zM752 53l-193 424l373 424h217l-373 -424l193 -424h-217z" />
    <glyph glyph-name="logicalnot" unicode="&#xac;" horiz-adv-x="1261" 
d="M283 760h995l-115 -543h-239l65 305h-756z" />
    <glyph glyph-name="uni00AD" unicode="&#xad;" horiz-adv-x="970" 
d="M203 371l51 237h721l-51 -237h-721z" />
    <glyph glyph-name="registered" unicode="&#xae;" horiz-adv-x="1603" 
d="M1104 1427q118 0 220 -37t174.5 -103t121 -157t58.5 -199t-13 -229q-31 -147 -115.5 -280.5t-201 -230.5t-261.5 -154t-292 -57q-118 0 -220 37t-174.5 102.5t-121 156t-58.5 198t12 228.5q42 198 173 364.5t316.5 263.5t381.5 97zM823 106q161 0 313.5 80t259.5 217
t142 299q29 124 4 233t-85.5 190t-160.5 128t-221 47q-162 0 -315 -80.5t-260 -218t-142 -299.5q-34 -162 15 -299t168.5 -217t281.5 -80zM1251 819q-42 -193 -211 -227l123 -242h-174l-117 234h-36l-50 -234h-157l147 699h285q115 0 162.5 -67t27.5 -163zM905 907l-43 -198
h103q52 0 84 31t41 71q7 36 -11 66t-67 30h-107z" />
    <glyph glyph-name="macron" unicode="&#xaf;" horiz-adv-x="1052" 
d="M500 1200l37 174h561l-37 -174h-561z" />
    <glyph glyph-name="degree" unicode="&#xb0;" horiz-adv-x="729" 
d="M539 827q-117 0 -183 83.5t-41 201.5t126 201.5t218 83.5q119 0 185 -83.5t41 -201.5t-126 -201.5t-220 -83.5zM569 969q60 0 111 41.5t63 101.5t-20 101.5t-92 41.5t-110 -41.5t-62 -101.5t19 -101.5t91 -41.5z" />
    <glyph glyph-name="plusminus" unicode="&#xb1;" horiz-adv-x="1075" 
d="M807 799h317l-43 -205h-317l-62 -293h-204l61 293h-317l43 205h317l62 288h204zM115 -2l45 205h839l-45 -205h-839z" />
    <glyph glyph-name="uni00B2" unicode="&#xb2;" horiz-adv-x="647" 
d="M590 1231h246l-33 -154h-506l20 86l342 330q38 34 56 58t24 51q6 30 -14 48.5t-59 18.5q-46 0 -79 -28.5t-44 -75.5l-142 26q33 105 111 167.5t190 62.5q113 0 168 -63t33 -165q-10 -46 -44.5 -96.5t-80.5 -91.5z" />
    <glyph glyph-name="uni00B3" unicode="&#xb3;" horiz-adv-x="622" 
d="M741 1470q53 -22 76 -68t10 -108q-22 -101 -109 -164t-206 -63q-79 0 -137.5 33t-81.5 90l135 88q15 -28 44.5 -44.5t64.5 -16.5q49 0 83.5 23.5t43.5 62.5q9 43 -18.5 69.5t-82.5 26.5h-55l24 121h29q56 0 92.5 25.5t44.5 66.5q6 30 -14.5 48.5t-54.5 18.5
q-67 0 -125 -51l-64 98q42 42 106.5 68.5t133.5 26.5q100 0 151 -55.5t31 -149.5q-9 -46 -41.5 -85t-79.5 -61z" />
    <glyph glyph-name="acute" unicode="&#xb4;" horiz-adv-x="1093" 
d="M504 1128l266 340h272l-340 -340h-198z" />
    <glyph glyph-name="uni00B5" unicode="&#xb5;" horiz-adv-x="1224" 
d="M358 954h269l-111 -518q-21 -96 17 -145t110 -49q82 0 154.5 50t95.5 154l108 508h269l-203 -954h-268l28 137q-45 -76 -136 -118t-167 -42q-85 0 -129 31l-78 -368h-239z" />
    <glyph glyph-name="paragraph" unicode="&#xb6;" horiz-adv-x="1441" 
d="M471 -102l133 624q-175 11 -271.5 139.5t-58.5 305.5q25 121 106 223t196 161.5t237 59.5h186l-321 -1513h-207zM401 -416l39 183h252q44 0 74.5 29t40.5 71l328 1544h266q117 0 181 -83.5t40 -197.5l-37 -176h-188l33 160q9 41 -13 67.5t-61 26.5h-66l-286 -1343
q-23 -111 -113.5 -195.5t-208.5 -85.5h-281z" />
    <glyph glyph-name="periodcentered" unicode="&#xb7;" horiz-adv-x="567" 
d="M356 350q-70 0 -110 46.5t-25 117.5q15 70 75 117t130 47t111 -47.5t26 -116.5q-15 -71 -75.5 -117.5t-131.5 -46.5z" />
    <glyph glyph-name="cedilla" unicode="&#xb8;" horiz-adv-x="1083" 
d="M455 -432q-96 0 -146.5 62t-25.5 177h141q-11 -48 2 -76t53 -28q31 0 56 21.5t32 56.5q5 27 0 43l-51 231h139l54 -180q9 -36 0 -96q-20 -91 -93.5 -151t-160.5 -60z" />
    <glyph glyph-name="uni00B9" unicode="&#xb9;" horiz-adv-x="485" 
d="M752 1821h10l-158 -744h-162l113 522l-178 -61l33 152z" />
    <glyph glyph-name="ordmasculine" unicode="&#xba;" horiz-adv-x="1052" 
d="M670 678q-170 0 -267.5 111.5t-60.5 287.5q25 117 102.5 209.5t181.5 140.5t214 48q168 0 265 -111t60 -287q-25 -117 -102 -209.5t-180.5 -141t-212.5 -48.5zM711 874q81 0 150 57t87 146q20 89 -24.5 145t-126.5 56q-81 0 -149.5 -56t-88.5 -145q-18 -89 26.5 -146
t125.5 -57zM268 561h754l-33 -151h-753z" />
    <glyph glyph-name="guillemotright" unicode="&#xbb;" horiz-adv-x="1038" 
d="M90 53l373 424l-193 424h217l193 -424l-373 -424h-217zM475 53l373 424l-193 424h217l193 -424l-373 -424h-217z" />
    <glyph glyph-name="onequarter" unicode="&#xbc;" horiz-adv-x="1478" 
d="M1331 1368h170l-1216 -1386h-172zM344 608l111 522l-179 -61l33 152l344 131h11l-158 -744h-162zM1479 274l-29 -137h-109l-28 -137h-162l29 137h-351l9 45l555 551h75l-98 -459h109zM1079 274h129l37 170z" />
    <glyph glyph-name="onehalf" unicode="&#xbd;" horiz-adv-x="1501" 
d="M1331 1368h170l-1216 -1386h-172zM344 608l111 522l-179 -61l33 152l344 131h11l-158 -744h-162zM1214 154h244l-31 -154h-503l18 86l340 328q28 27 41 40.5t25 32t16 37.5q6 29 -15 48.5t-61 19.5q-46 0 -79 -29t-44 -76l-139 27q33 105 111.5 167t189.5 62
q113 0 167 -62.5t32 -164.5q-19 -90 -121 -188z" />
    <glyph glyph-name="threequarters" unicode="&#xbe;" horiz-adv-x="1615" 
d="M1468 1368h170l-1216 -1386h-172zM727 825q-22 -101 -108.5 -164t-204.5 -63q-79 0 -138.5 33t-82.5 90l135 86q32 -59 108 -59q50 0 84 23t43 63q9 43 -18 69.5t-82 26.5h-55l26 121h29q56 0 92.5 25.5t42.5 66.5q6 30 -15 47.5t-55 17.5q-70 0 -122 -49l-66 98
q44 43 108.5 69t133.5 26q100 0 151 -55.5t31 -149.5q-10 -47 -43 -85.5t-80 -60.5q53 -22 76 -68.5t10 -107.5zM1616 274l-29 -137h-108l-29 -137h-162l29 137h-350l8 45l555 551h76l-99 -459h109zM1217 274h129l36 170z" />
    <glyph glyph-name="questiondown" unicode="&#xbf;" horiz-adv-x="968" 
d="M786 979q72 0 112.5 -47.5t25.5 -118.5t-75 -118.5t-132 -47.5q-70 0 -111 47.5t-26 118.5t75.5 118.5t130.5 47.5zM788 485l-8 -53q-14 -125 -71.5 -201.5t-192.5 -128.5l-78 -28q-58 -22 -92.5 -61.5t-44.5 -84.5q-15 -73 22 -114t111 -41q70 0 133 49.5t82 130.5h250
q-30 -138 -108.5 -237.5t-184.5 -148t-229 -48.5q-185 0 -279.5 107.5t-56.5 289.5q30 144 126.5 244t231.5 143q40 13 59.5 21t44.5 22.5t38 36t20 51.5l12 51h215z" />
    <glyph glyph-name="Agrave" unicode="&#xc0;" horiz-adv-x="1337" 
d="M1108 1571h-199l-196 340h272zM1049 0l-43 338h-529l-184 -338h-303l825 1411h307l226 -1411h-299zM612 586h359l-68 530z" />
    <glyph glyph-name="Aacute" unicode="&#xc1;" horiz-adv-x="1337" 
d="M1446 1911l-340 -340h-199l267 340h272zM1049 0l-43 338h-529l-184 -338h-303l825 1411h307l226 -1411h-299zM612 586h359l-68 530z" />
    <glyph glyph-name="Acircumflex" unicode="&#xc2;" horiz-adv-x="1337" 
d="M1038 1751l-196 -180h-199l295 340h270l154 -340h-201zM1049 0l-43 338h-529l-184 -338h-303l825 1411h307l226 -1411h-299zM612 586h359l-68 530z" />
    <glyph glyph-name="Atilde" unicode="&#xc3;" horiz-adv-x="1337" 
d="M938 1696q-16 0 -38.5 -22.5t-33.5 -67.5h-143q24 92 69.5 152t91 82t91.5 22q30 0 56 -13t40.5 -29t32.5 -29t33 -13q17 0 39.5 20t33.5 64h142q-17 -69 -47.5 -120t-66.5 -78t-69.5 -39.5t-66.5 -12.5q-28 0 -54 13t-41.5 29t-34 29t-34.5 13zM1049 0l-43 338h-529
l-184 -338h-303l825 1411h307l226 -1411h-299zM612 586h359l-68 530z" />
    <glyph glyph-name="Adieresis" unicode="&#xc4;" horiz-adv-x="1337" 
d="M797 1602q-61 0 -95 40t-22 99q12 58 62.5 97.5t111.5 39.5q60 0 93.5 -39.5t21.5 -97.5q-12 -60 -61.5 -99.5t-110.5 -39.5zM1223 1602q-62 0 -96.5 39.5t-22.5 99.5q12 58 63 97.5t113 39.5q59 0 92 -39.5t21 -97.5q-12 -59 -61.5 -99t-108.5 -40zM1049 0l-43 338h-529
l-184 -338h-303l825 1411h307l226 -1411h-299zM612 586h359l-68 530z" />
    <glyph glyph-name="Aring" unicode="&#xc5;" horiz-adv-x="1337" 
d="M995 1550q-102 0 -159 70.5t-35 171.5q23 103 110.5 174.5t188.5 71.5q103 0 160 -72t34 -174q-22 -101 -109 -171.5t-190 -70.5zM1075 1919q-51 0 -96 -36.5t-57 -90.5q-10 -52 19 -87.5t81 -35.5q53 0 98.5 35.5t55.5 87.5q12 53 -18 90t-83 37zM1049 0l-43 338h-529
l-184 -338h-303l825 1411h307l226 -1411h-299zM612 586h359l-68 530z" />
    <glyph glyph-name="AE" unicode="&#xc6;" horiz-adv-x="1900" 
d="M1235 252h618l-53 -252h-901l70 328h-441l-237 -328h-338l1059 1411h1069l-53 -252h-601l-71 -340h526l-53 -246h-526zM711 580h309l123 577h-15z" />
    <glyph glyph-name="Ccedilla" unicode="&#xc7;" horiz-adv-x="1433" 
d="M862 250q225 0 391 184l183 -160q-115 -122 -263 -198.5t-307 -89.5l33 -111q9 -36 0 -96q-20 -91 -93.5 -151t-160.5 -60q-96 0 -146.5 62t-25.5 177h141q-11 -48 2.5 -76t53.5 -28q31 0 56 21.5t32 56.5q5 27 0 43l-35 162q-131 14 -236.5 76t-169.5 158.5t-88.5 221.5
t7.5 265q31 146 115.5 279.5t201 230t261.5 153.5t292 57q177 0 311 -78t201 -214l-250 -158q-89 182 -309 182q-191 0 -345 -130.5t-194 -321.5q-26 -125 7.5 -229.5t121.5 -166t213 -61.5z" />
    <glyph glyph-name="Egrave" unicode="&#xc8;" horiz-adv-x="1175" 
d="M1028 1571h-199l-196 340h272zM510 252h618l-53 -252h-903l299 1411h885l-53 -252h-601l-71 -336h526l-55 -256h-527z" />
    <glyph glyph-name="Eacute" unicode="&#xc9;" horiz-adv-x="1175" 
d="M1366 1911l-340 -340h-199l267 340h272zM510 252h618l-53 -252h-903l299 1411h885l-53 -252h-601l-71 -336h526l-55 -256h-527z" />
    <glyph glyph-name="Ecircumflex" unicode="&#xca;" horiz-adv-x="1175" 
d="M958 1751l-196 -180h-199l295 340h270l154 -340h-201zM510 252h618l-53 -252h-903l299 1411h885l-53 -252h-601l-71 -336h526l-55 -256h-527z" />
    <glyph glyph-name="Edieresis" unicode="&#xcb;" horiz-adv-x="1175" 
d="M717 1602q-61 0 -95 40t-22 99q12 58 62.5 97.5t111.5 39.5q60 0 93.5 -39.5t21.5 -97.5q-12 -60 -61.5 -99.5t-110.5 -39.5zM1143 1602q-62 0 -96.5 39.5t-22.5 99.5q12 58 63 97.5t113 39.5q59 0 92 -39.5t21 -97.5q-12 -59 -61.5 -99t-108.5 -40zM510 252h618
l-53 -252h-903l299 1411h885l-53 -252h-601l-71 -336h526l-55 -256h-527z" />
    <glyph glyph-name="Igrave" unicode="&#xcc;" horiz-adv-x="628" 
d="M555 1571l-197 340h273l123 -340h-199zM172 0l299 1411h285l-299 -1411h-285z" />
    <glyph glyph-name="Iacute" unicode="&#xcd;" horiz-adv-x="628" 
d="M553 1571l266 340h273l-340 -340h-199zM172 0l299 1411h285l-299 -1411h-285z" />
    <glyph glyph-name="Icircumflex" unicode="&#xce;" horiz-adv-x="628" 
d="M289 1571l295 340h270l154 -340h-201l-123 180l-197 -180h-198zM172 0l299 1411h285l-299 -1411h-285z" />
    <glyph glyph-name="Idieresis" unicode="&#xcf;" horiz-adv-x="628" 
d="M442 1602q-60 0 -94 39.5t-22 99.5q12 58 62.5 97.5t111.5 39.5q60 0 93 -39.5t21 -97.5q-12 -60 -61.5 -99.5t-110.5 -39.5zM868 1602q-62 0 -96 39.5t-22 99.5q12 58 63 97.5t113 39.5q59 0 91.5 -39.5t20.5 -97.5q-12 -59 -61.5 -99t-108.5 -40zM172 0l299 1411h285
l-299 -1411h-285z" />
    <glyph glyph-name="Eth" unicode="&#xd0;" horiz-adv-x="1478" 
d="M1044 1411q148 0 258.5 -54.5t169 -149.5t77 -225t-16.5 -280q-32 -150 -102.5 -278t-171 -222.5t-233 -148t-280.5 -53.5h-555l125 596h-153l45 209h153l129 606h555zM799 252q167 0 287.5 129t160.5 321q22 91 14.5 173.5t-36 145.5t-89 100.5t-145.5 37.5h-270
l-76 -354h262l-45 -209h-262l-72 -344h271z" />
    <glyph glyph-name="Ntilde" unicode="&#xd1;" horiz-adv-x="1396" 
d="M967 1696q-17 0 -39 -22.5t-33 -67.5h-143q24 92 69.5 152t91 82t91.5 22q30 0 55.5 -13t40.5 -29t32.5 -29t32.5 -13q17 0 40 20.5t34 63.5h141q-17 -69 -47.5 -120t-66.5 -78t-69.5 -39.5t-66.5 -12.5q-28 0 -53.5 13t-41 29t-34 29t-34.5 13zM1239 1411h285
l-299 -1411h-256l-326 885l-186 -885h-285l299 1411h264l318 -874z" />
    <glyph glyph-name="Ograve" unicode="&#xd2;" horiz-adv-x="1607" 
d="M1044 1571l-196 340h272l123 -340h-199zM799 -18q-197 0 -341.5 97t-204 263t-17.5 363q41 198 171.5 364.5t316 263.5t382.5 97q118 0 220 -37t175.5 -103t122 -157t59 -199t-11.5 -229q-32 -147 -117 -281t-201.5 -230.5t-261.5 -154t-292 -57.5zM854 248
q187 0 337.5 132t192.5 325q26 126 -6.5 230t-119 165t-209.5 61q-188 0 -338.5 -131.5t-190.5 -324.5q-27 -126 5 -230.5t118.5 -165.5t210.5 -61z" />
    <glyph glyph-name="Oacute" unicode="&#xd3;" horiz-adv-x="1607" 
d="M1042 1571l267 340h272l-340 -340h-199zM799 -18q-197 0 -341.5 97t-204 263t-17.5 363q41 198 171.5 364.5t316 263.5t382.5 97q118 0 220 -37t175.5 -103t122 -157t59 -199t-11.5 -229q-32 -147 -117 -281t-201.5 -230.5t-261.5 -154t-292 -57.5zM854 248
q187 0 337.5 132t192.5 325q26 126 -6.5 230t-119 165t-209.5 61q-188 0 -338.5 -131.5t-190.5 -324.5q-27 -126 5 -230.5t118.5 -165.5t210.5 -61z" />
    <glyph glyph-name="Ocircumflex" unicode="&#xd4;" horiz-adv-x="1607" 
d="M778 1571l295 340h270l154 -340h-201l-122 180l-197 -180h-199zM799 -18q-197 0 -341.5 97t-204 263t-17.5 363q41 198 171.5 364.5t316 263.5t382.5 97q118 0 220 -37t175.5 -103t122 -157t59 -199t-11.5 -229q-32 -147 -117 -281t-201.5 -230.5t-261.5 -154t-292 -57.5
zM854 248q187 0 337.5 132t192.5 325q26 126 -6.5 230t-119 165t-209.5 61q-188 0 -338.5 -131.5t-190.5 -324.5q-27 -126 5 -230.5t118.5 -165.5t210.5 -61z" />
    <glyph glyph-name="Otilde" unicode="&#xd5;" horiz-adv-x="1607" 
d="M858 1606q24 92 69.5 152t91 82t91.5 22q30 0 56 -13t40.5 -29t32.5 -29t33 -13q17 0 40 20.5t34 63.5h141q-17 -69 -47.5 -120t-66.5 -78t-69.5 -39.5t-66.5 -12.5q-28 0 -54 13t-41.5 29t-34 29t-34.5 13q-17 0 -39 -22.5t-33 -67.5h-143zM799 -18q-197 0 -341.5 97
t-204 263t-17.5 363q41 198 171.5 364.5t316 263.5t382.5 97q118 0 220 -37t175.5 -103t122 -157t59 -199t-11.5 -229q-32 -147 -117 -281t-201.5 -230.5t-261.5 -154t-292 -57.5zM854 248q187 0 337.5 132t192.5 325q26 126 -6.5 230t-119 165t-209.5 61
q-188 0 -338.5 -131.5t-190.5 -324.5q-27 -126 5 -230.5t118.5 -165.5t210.5 -61z" />
    <glyph glyph-name="Odieresis" unicode="&#xd6;" horiz-adv-x="1607" 
d="M932 1602q-61 0 -95 40t-22 99q12 58 62.5 97.5t111.5 39.5q60 0 93.5 -39.5t21.5 -97.5q-12 -60 -61.5 -99.5t-110.5 -39.5zM1358 1602q-62 0 -96.5 39.5t-22.5 99.5q12 58 63 97.5t113 39.5q59 0 92 -39.5t21 -97.5q-12 -59 -61.5 -99t-108.5 -40zM799 -18
q-197 0 -341.5 97t-204 263t-17.5 363q41 198 171.5 364.5t316 263.5t382.5 97q118 0 220 -37t175.5 -103t122 -157t59 -199t-11.5 -229q-32 -147 -117 -281t-201.5 -230.5t-261.5 -154t-292 -57.5zM854 248q187 0 337.5 132t192.5 325q26 126 -6.5 230t-119 165t-209.5 61
q-188 0 -338.5 -131.5t-190.5 -324.5q-27 -126 5 -230.5t118.5 -165.5t210.5 -61z" />
    <glyph glyph-name="multiply" unicode="&#xd7;" horiz-adv-x="968" 
d="M1034 776l-293 -241l191 -240l-174 -148l-193 244l-289 -237l-112 145l287 238l-187 237l174 144l189 -238l295 242z" />
    <glyph glyph-name="Oslash" unicode="&#xd8;" horiz-adv-x="1613" 
d="M1604 1174q61 -96 79.5 -215t-8.5 -254q-32 -147 -117 -281t-201.5 -230.5t-261.5 -154t-292 -57.5q-258 0 -420 159l-197 -166l-75 97l196 166q-126 197 -67 467q41 198 171 364.5t315.5 263.5t383.5 97q259 0 418 -162l201 168l75 -95zM524 705q-33 -144 21 -269
l751 635q-93 90 -245 90q-187 0 -337 -131.5t-190 -324.5zM856 248q188 0 339.5 132t193.5 325q30 152 -23 268l-754 -637q98 -88 244 -88z" />
    <glyph glyph-name="Ugrave" unicode="&#xd9;" horiz-adv-x="1392" 
d="M936 1571l-197 340h273l123 -340h-199zM692 -18q-108 0 -198 35.5t-150 103t-83 164.5t3 219l193 907h284l-190 -891q-27 -134 32 -201t167 -67q70 0 131.5 26.5t111 88.5t68.5 153l190 891h285l-193 -907q-34 -158 -135 -278.5t-235.5 -182t-280.5 -61.5z" />
    <glyph glyph-name="Uacute" unicode="&#xda;" horiz-adv-x="1392" 
d="M934 1571l266 340h273l-340 -340h-199zM692 -18q-108 0 -198 35.5t-150 103t-83 164.5t3 219l193 907h284l-190 -891q-27 -134 32 -201t167 -67q70 0 131.5 26.5t111 88.5t68.5 153l190 891h285l-193 -907q-34 -158 -135 -278.5t-235.5 -182t-280.5 -61.5z" />
    <glyph glyph-name="Ucircumflex" unicode="&#xdb;" horiz-adv-x="1392" 
d="M670 1571l295 340h270l154 -340h-201l-123 180l-197 -180h-198zM692 -18q-108 0 -198 35.5t-150 103t-83 164.5t3 219l193 907h284l-190 -891q-27 -134 32 -201t167 -67q70 0 131.5 26.5t111 88.5t68.5 153l190 891h285l-193 -907q-34 -158 -135 -278.5t-235.5 -182
t-280.5 -61.5z" />
    <glyph glyph-name="Udieresis" unicode="&#xdc;" horiz-adv-x="1392" 
d="M823 1602q-60 0 -94 39.5t-22 99.5q12 58 62.5 97.5t111.5 39.5q60 0 93 -39.5t21 -97.5q-12 -60 -61.5 -99.5t-110.5 -39.5zM1249 1602q-62 0 -96.5 39.5t-22.5 99.5q12 58 63.5 97.5t113.5 39.5q59 0 91.5 -39.5t20.5 -97.5q-12 -59 -61.5 -99t-108.5 -40zM692 -18
q-108 0 -198 35.5t-150 103t-83 164.5t3 219l193 907h284l-190 -891q-27 -134 32 -201t167 -67q70 0 131.5 26.5t111 88.5t68.5 153l190 891h285l-193 -907q-34 -158 -135 -278.5t-235.5 -182t-280.5 -61.5z" />
    <glyph glyph-name="Yacute" unicode="&#xdd;" horiz-adv-x="1372" 
d="M1462 1911l-340 -340h-198l266 340h272zM1337 1411h338l-712 -774l-136 -637h-284l135 641l-383 770h340l233 -537z" />
    <glyph glyph-name="Thorn" unicode="&#xde;" horiz-adv-x="1253" 
d="M963 1165q198 0 302.5 -124.5t61.5 -329.5q-29 -137 -113 -243.5t-200.5 -163t-245.5 -56.5h-260l-51 -248h-285l299 1411h285l-54 -246h261zM803 500q85 0 152 58t87 149q20 94 -24.5 150t-132.5 56h-236l-88 -413h242z" />
    <glyph glyph-name="germandbls" unicode="&#xdf;" horiz-adv-x="1214" 
d="M1016 831q129 -36 187.5 -142.5t25.5 -262.5q-43 -198 -206.5 -321t-387.5 -123q-76 -3 -154 22l109 234q47 -17 104 -17q94 0 170.5 67.5t98.5 166.5q20 98 -33.5 158.5t-157.5 60.5h-76l52 237h47q63 0 112 46t64 118q15 68 -21 108t-110 40q-82 0 -143 -61t-85 -175
l-209 -987h-268l209 987q49 227 201 358.5t356 131.5q192 0 287.5 -101.5t60.5 -267.5q-18 -92 -83 -168t-150 -109z" />
    <glyph glyph-name="agrave" unicode="&#xe0;" horiz-adv-x="1257" 
d="M965 1114h-199l-197 340h273zM1057 954h268l-203 -954h-268l25 119q-62 -66 -156 -101.5t-180 -35.5q-92 0 -170 34.5t-129.5 99t-71 156.5t5.5 207q48 222 216 360t360 138q90 0 167.5 -34.5t110.5 -102.5zM647 231q101 0 188.5 70.5t110.5 177.5q24 106 -36 176
t-158 70q-102 0 -190 -70.5t-111 -175.5q-22 -104 36 -176t160 -72z" />
    <glyph glyph-name="aacute" unicode="&#xe1;" horiz-adv-x="1257" 
d="M1303 1454l-340 -340h-199l266 340h273zM1057 954h268l-203 -954h-268l25 119q-62 -66 -156 -101.5t-180 -35.5q-92 0 -170 34.5t-129.5 99t-71 156.5t5.5 207q48 222 216 360t360 138q90 0 167.5 -34.5t110.5 -102.5zM647 231q101 0 188.5 70.5t110.5 177.5
q24 106 -36 176t-158 70q-102 0 -190 -70.5t-111 -175.5q-22 -104 36 -176t160 -72z" />
    <glyph glyph-name="acircumflex" unicode="&#xe2;" horiz-adv-x="1257" 
d="M897 1294l-199 -180h-198l295 340h270l154 -340h-201zM1057 954h268l-203 -954h-268l25 119q-62 -66 -156 -101.5t-180 -35.5q-92 0 -170 34.5t-129.5 99t-71 156.5t5.5 207q48 222 216 360t360 138q90 0 167.5 -34.5t110.5 -102.5zM647 231q101 0 188.5 70.5
t110.5 177.5q24 106 -36 176t-158 70q-102 0 -190 -70.5t-111 -175.5q-22 -104 36 -176t160 -72z" />
    <glyph glyph-name="atilde" unicode="&#xe3;" horiz-adv-x="1257" 
d="M797 1239q-17 0 -39 -22.5t-33 -67.5h-143q18 70 48 122t64.5 80t68.5 41t68 13q30 0 56 -13t41.5 -29t33.5 -29t33 -13q17 0 40 20.5t32 63.5h141q-17 -69 -47.5 -120t-66.5 -78t-69.5 -39.5t-66.5 -12.5q-28 0 -53.5 13t-40.5 29t-33 29t-34 13zM1057 954h268
l-203 -954h-268l25 119q-62 -66 -156 -101.5t-180 -35.5q-92 0 -170 34.5t-129.5 99t-71 156.5t5.5 207q48 222 216 360t360 138q90 0 167.5 -34.5t110.5 -102.5zM647 231q101 0 188.5 70.5t110.5 177.5q24 106 -36 176t-158 70q-102 0 -190 -70.5t-111 -175.5
q-22 -104 36 -176t160 -72z" />
    <glyph glyph-name="adieresis" unicode="&#xe4;" horiz-adv-x="1257" 
d="M653 1145q-61 0 -94 40t-20 99q12 58 62.5 97.5t111.5 39.5q60 0 93 -39.5t21 -97.5q-13 -60 -63.5 -99.5t-110.5 -39.5zM1079 1145q-62 0 -95.5 39.5t-20.5 99.5q12 58 63 97.5t113 39.5q59 0 91.5 -39.5t20.5 -97.5q-13 -59 -63 -99t-109 -40zM1057 954h268l-203 -954
h-268l25 119q-62 -66 -156 -101.5t-180 -35.5q-92 0 -170 34.5t-129.5 99t-71 156.5t5.5 207q48 222 216 360t360 138q90 0 167.5 -34.5t110.5 -102.5zM647 231q101 0 188.5 70.5t110.5 177.5q24 106 -36 176t-158 70q-102 0 -190 -70.5t-111 -175.5q-22 -104 36 -176
t160 -72z" />
    <glyph glyph-name="aring" unicode="&#xe5;" horiz-adv-x="1257" 
d="M854 1094q-102 0 -159.5 70t-35.5 171q22 102 109.5 174t189.5 72q103 0 160 -71.5t35 -174.5q-22 -101 -109 -171t-190 -70zM932 1462q-51 0 -95.5 -36.5t-56.5 -90.5q-10 -52 19 -87.5t80 -35.5q53 0 99 35.5t56 87.5q12 53 -18.5 90t-83.5 37zM1057 954h268l-203 -954
h-268l25 119q-62 -66 -156 -101.5t-180 -35.5q-92 0 -170 34.5t-129.5 99t-71 156.5t5.5 207q48 222 216 360t360 138q90 0 167.5 -34.5t110.5 -102.5zM647 231q101 0 188.5 70.5t110.5 177.5q24 106 -36 176t-158 70q-102 0 -190 -70.5t-111 -175.5q-22 -104 36 -176
t160 -72z" />
    <glyph glyph-name="ae" unicode="&#xe6;" horiz-adv-x="1796" 
d="M1829 494q-10 -44 -29 -103h-715q5 -78 61 -125t146 -47q73 0 145.5 28t127.5 79l125 -158q-87 -89 -211.5 -137.5t-253.5 -48.5q-118 0 -208 40.5t-134 114.5q-100 -80 -215.5 -117.5t-221.5 -37.5q-169 0 -260.5 80.5t-62.5 216.5q30 137 155 215.5t287 78.5
q161 0 260 -63l13 49q17 83 -29 131.5t-133 48.5q-149 0 -264 -98l-119 147q189 191 465 191q220 0 313 -121q161 121 365 121q101 0 184.5 -34.5t137 -98t74 -153t-2.5 -199.5zM1122 565h453q10 83 -41 131.5t-143 48.5q-90 0 -159.5 -46.5t-109.5 -133.5zM508 190
q66 0 159 37t144 92l-6 23q-38 28 -101 43.5t-124 15.5q-89 0 -133 -34t-52 -76q-9 -44 20.5 -72.5t92.5 -28.5z" />
    <glyph glyph-name="ccedilla" unicode="&#xe7;" horiz-adv-x="1060" 
d="M651 231q58 0 118 26.5t103 70.5l170 -142q-153 -162 -354 -196l35 -115q9 -36 0 -96q-20 -91 -93.5 -151t-160.5 -60q-96 0 -146.5 62t-25.5 177h141q-11 -48 2.5 -76t53.5 -28q31 0 56 21.5t32 56.5q5 27 0 43l-35 160q-95 7 -173.5 46t-129.5 103.5t-70.5 152.5
t2.5 195q32 147 130 262.5t229.5 175.5t271.5 60q127 0 219 -55t141 -150l-231 -141q-23 44 -72 70t-108 26q-112 0 -197.5 -71t-109.5 -177q-22 -107 34 -178.5t168 -71.5z" />
    <glyph glyph-name="egrave" unicode="&#xe8;" horiz-adv-x="1153" 
d="M913 1114h-198l-197 340h273zM1186 494q-7 -31 -27 -103h-721q4 -83 59 -127.5t152 -44.5q73 0 146.5 28.5t126.5 78.5l125 -158q-86 -89 -211 -137.5t-254 -48.5q-222 0 -336.5 138t-67.5 357q32 150 127 266t222.5 176t265.5 60q101 0 184.5 -34.5t137 -98t74 -153
t-2.5 -199.5zM475 565h457q12 83 -39.5 131.5t-144.5 48.5q-88 0 -160 -44t-113 -136z" />
    <glyph glyph-name="eacute" unicode="&#xe9;" horiz-adv-x="1153" 
d="M1251 1454l-340 -340h-198l266 340h272zM1186 494q-7 -31 -27 -103h-721q4 -83 59 -127.5t152 -44.5q73 0 146.5 28.5t126.5 78.5l125 -158q-86 -89 -211 -137.5t-254 -48.5q-222 0 -336.5 138t-67.5 357q32 150 127 266t222.5 176t265.5 60q101 0 184.5 -34.5t137 -98
t74 -153t-2.5 -199.5zM475 565h457q12 83 -39.5 131.5t-144.5 48.5q-88 0 -160 -44t-113 -136z" />
    <glyph glyph-name="ecircumflex" unicode="&#xea;" horiz-adv-x="1153" 
d="M846 1294l-199 -180h-198l294 340h271l153 -340h-200zM1186 494q-7 -31 -27 -103h-721q4 -83 59 -127.5t152 -44.5q73 0 146.5 28.5t126.5 78.5l125 -158q-86 -89 -211 -137.5t-254 -48.5q-222 0 -336.5 138t-67.5 357q32 150 127 266t222.5 176t265.5 60
q101 0 184.5 -34.5t137 -98t74 -153t-2.5 -199.5zM475 565h457q12 83 -39.5 131.5t-144.5 48.5q-88 0 -160 -44t-113 -136z" />
    <glyph glyph-name="edieresis" unicode="&#xeb;" horiz-adv-x="1153" 
d="M602 1145q-61 0 -94.5 40t-20.5 99q12 58 63 97.5t112 39.5q60 0 93 -39.5t21 -97.5q-13 -60 -63.5 -99.5t-110.5 -39.5zM1028 1145q-62 0 -96 40t-21 99q12 58 63 97.5t113 39.5q59 0 92 -39.5t21 -97.5q-13 -59 -63 -99t-109 -40zM1186 494q-7 -31 -27 -103h-721
q4 -83 59 -127.5t152 -44.5q73 0 146.5 28.5t126.5 78.5l125 -158q-86 -89 -211 -137.5t-254 -48.5q-222 0 -336.5 138t-67.5 357q32 150 127 266t222.5 176t265.5 60q101 0 184.5 -34.5t137 -98t74 -153t-2.5 -199.5zM475 565h457q12 83 -39.5 131.5t-144.5 48.5
q-88 0 -160 -44t-113 -136z" />
    <glyph glyph-name="igrave" unicode="&#xec;" horiz-adv-x="538" 
d="M432 1128l-196 340h272l123 -340h-199zM135 0l203 954h268l-203 -954h-268z" />
    <glyph glyph-name="iacute" unicode="&#xed;" horiz-adv-x="538" 
d="M375 1128l266 340h272l-340 -340h-198zM135 0l203 954h268l-203 -954h-268z" />
    <glyph glyph-name="icircumflex" unicode="&#xee;" horiz-adv-x="538" 
d="M150 1128l294 340h271l153 -340h-200l-123 181l-197 -181h-198zM135 0l203 954h268l-203 -954h-268z" />
    <glyph glyph-name="idieresis" unicode="&#xef;" horiz-adv-x="538" 
d="M303 1165q-60 0 -93.5 40t-21.5 100q12 57 63 97t111 40t93.5 -40t21.5 -97q-12 -59 -62.5 -99.5t-111.5 -40.5zM729 1165q-62 0 -95.5 40t-21.5 100q12 57 63.5 97t112.5 40q59 0 92 -40t21 -97q-12 -59 -62.5 -99.5t-109.5 -40.5zM135 0l203 954h268l-203 -954h-268z
" />
    <glyph glyph-name="eth" unicode="&#xf0;" horiz-adv-x="1165" 
d="M1157 784q69 -133 31 -305q-31 -147 -125.5 -262t-221.5 -175t-263 -60q-101 0 -185.5 35t-140.5 100t-78 156.5t2 205.5q30 139 121.5 247t217 165t261.5 57q19 0 27 -2l-92 189l-258 -97l-19 109l228 86l-113 231h276l70 -145l192 72l21 -109l-164 -61zM631 231
q96 0 178.5 70.5t105.5 177.5q23 102 -31.5 169t-150.5 67q-95 0 -178 -67t-106 -169q-23 -106 32 -177t150 -71z" />
    <glyph glyph-name="ntilde" unicode="&#xf1;" horiz-adv-x="1191" 
d="M768 1239q-16 0 -38.5 -22.5t-33.5 -67.5h-143q24 92 69 152t90 82t91 22q30 0 56 -13t41.5 -29t33.5 -29t33 -13q17 0 39.5 20t31.5 64h142q-17 -69 -47.5 -120t-66.5 -78t-69.5 -39.5t-66.5 -12.5q-28 0 -53.5 13t-40.5 29t-33.5 29t-34.5 13zM897 979
q186 0 258.5 -119t24.5 -336l-111 -524h-268l104 496q23 107 -18 163t-117 56q-39 0 -77 -11.5t-76.5 -36t-68 -70.5t-42.5 -108l-103 -489h-268l203 954h268l-35 -159q47 88 145 136t181 48z" />
    <glyph glyph-name="ograve" unicode="&#xf2;" horiz-adv-x="1179" 
d="M735 1114l-196 340h272l123 -340h-199zM586 -18q-102 0 -188 35.5t-143 100.5t-80 156.5t1 204.5q32 147 129 263t226 176.5t266 60.5q102 0 187.5 -35.5t142.5 -101t79.5 -157.5t-2.5 -206q-31 -146 -127 -261t-225 -175.5t-266 -60.5zM639 231q101 0 185.5 69.5
t107.5 178.5q24 110 -31.5 180t-157.5 70t-186 -69.5t-108 -180.5q-23 -108 32.5 -178t157.5 -70z" />
    <glyph glyph-name="oacute" unicode="&#xf3;" horiz-adv-x="1179" 
d="M733 1114l266 340h273l-340 -340h-199zM586 -18q-102 0 -188 35.5t-143 100.5t-80 156.5t1 204.5q32 147 129 263t226 176.5t266 60.5q102 0 187.5 -35.5t142.5 -101t79.5 -157.5t-2.5 -206q-31 -146 -127 -261t-225 -175.5t-266 -60.5zM639 231q101 0 185.5 69.5
t107.5 178.5q24 110 -31.5 180t-157.5 70t-186 -69.5t-108 -180.5q-23 -108 32.5 -178t157.5 -70z" />
    <glyph glyph-name="ocircumflex" unicode="&#xf4;" horiz-adv-x="1179" 
d="M469 1114l295 340h270l154 -340h-201l-121 180l-198 -180h-199zM586 -18q-102 0 -188 35.5t-143 100.5t-80 156.5t1 204.5q32 147 129 263t226 176.5t266 60.5q102 0 187.5 -35.5t142.5 -101t79.5 -157.5t-2.5 -206q-31 -146 -127 -261t-225 -175.5t-266 -60.5zM639 231
q101 0 185.5 69.5t107.5 178.5q24 110 -31.5 180t-157.5 70t-186 -69.5t-108 -180.5q-23 -108 32.5 -178t157.5 -70z" />
    <glyph glyph-name="otilde" unicode="&#xf5;" horiz-adv-x="1179" 
d="M551 1149q24 92 69 152t90 82t91 22q30 0 56 -13t41.5 -29t33.5 -29t33 -13q17 0 39.5 20t31.5 64h142q-17 -69 -47.5 -120t-66.5 -78t-69.5 -39.5t-66.5 -12.5q-28 0 -53.5 13t-40.5 29t-33.5 29t-34.5 13t-38.5 -22.5t-33.5 -67.5h-143zM586 -18q-102 0 -188 35.5
t-143 100.5t-80 156.5t1 204.5q32 147 129 263t226 176.5t266 60.5q102 0 187.5 -35.5t142.5 -101t79.5 -157.5t-2.5 -206q-31 -146 -127 -261t-225 -175.5t-266 -60.5zM639 231q101 0 185.5 69.5t107.5 178.5q24 110 -31.5 180t-157.5 70t-186 -69.5t-108 -180.5
q-23 -108 32.5 -178t157.5 -70z" />
    <glyph glyph-name="odieresis" unicode="&#xf6;" horiz-adv-x="1179" 
d="M623 1145q-61 0 -94.5 40t-20.5 99q12 58 62.5 97.5t111.5 39.5q60 0 93.5 -39.5t21.5 -97.5q-13 -60 -63.5 -99.5t-110.5 -39.5zM1049 1145q-62 0 -96 40t-21 99q12 58 63 97.5t113 39.5q59 0 92 -39.5t21 -97.5q-13 -59 -63 -99t-109 -40zM586 -18q-102 0 -188 35.5
t-143 100.5t-80 156.5t1 204.5q32 147 129 263t226 176.5t266 60.5q102 0 187.5 -35.5t142.5 -101t79.5 -157.5t-2.5 -206q-31 -146 -127 -261t-225 -175.5t-266 -60.5zM639 231q101 0 185.5 69.5t107.5 178.5q24 110 -31.5 180t-157.5 70t-186 -69.5t-108 -180.5
q-23 -108 32.5 -178t157.5 -70z" />
    <glyph glyph-name="divide" unicode="&#xf7;" horiz-adv-x="1153" 
d="M735 762q-66 0 -102 42.5t-23 108.5q13 64 68.5 107t120.5 43t101.5 -43t23.5 -107q-13 -66 -68 -108.5t-121 -42.5zM178 442l43 195h981l-43 -195h-981zM575 10q-65 0 -101 44.5t-21 109.5q13 65 66.5 107t119.5 42t103 -42t24 -107q-15 -65 -70.5 -109.5t-120.5 -44.5z
" />
    <glyph glyph-name="oslash" unicode="&#xf8;" horiz-adv-x="1183" 
d="M1163 797q82 -133 43 -318q-31 -146 -127 -261t-225 -175.5t-266 -60.5q-170 0 -285 92l-137 -117l-70 88l133 111q-91 134 -51 323q32 147 129 263t226 176.5t266 60.5q173 0 291 -98l124 104l70 -86zM451 479q-15 -75 6 -131l411 346q-50 35 -123 35q-102 0 -186 -69.5
t-108 -180.5zM641 231q101 0 185.5 69.5t107.5 178.5q14 66 -2 123l-404 -340q48 -31 113 -31z" />
    <glyph glyph-name="ugrave" unicode="&#xf9;" horiz-adv-x="1191" 
d="M934 1114h-199l-196 340h272zM991 954h269l-203 -954h-269l33 156q-47 -86 -144.5 -132.5t-180.5 -46.5q-186 0 -258.5 118t-24.5 335l113 524h268l-107 -495q-22 -106 20 -161.5t118 -55.5q54 0 103 18.5t95.5 71t63.5 133.5z" />
    <glyph glyph-name="uacute" unicode="&#xfa;" horiz-adv-x="1191" 
d="M1272 1454l-340 -340h-199l266 340h273zM991 954h269l-203 -954h-269l33 156q-47 -86 -144.5 -132.5t-180.5 -46.5q-186 0 -258.5 118t-24.5 335l113 524h268l-107 -495q-22 -106 20 -161.5t118 -55.5q54 0 103 18.5t95.5 71t63.5 133.5z" />
    <glyph glyph-name="ucircumflex" unicode="&#xfb;" horiz-adv-x="1191" 
d="M866 1294l-198 -180h-199l295 340h270l154 -340h-201zM991 954h269l-203 -954h-269l33 156q-47 -86 -144.5 -132.5t-180.5 -46.5q-186 0 -258.5 118t-24.5 335l113 524h268l-107 -495q-22 -106 20 -161.5t118 -55.5q54 0 103 18.5t95.5 71t63.5 133.5z" />
    <glyph glyph-name="udieresis" unicode="&#xfc;" horiz-adv-x="1191" 
d="M623 1145q-61 0 -94.5 40t-20.5 99q12 58 62.5 97.5t111.5 39.5q60 0 93.5 -39.5t21.5 -97.5q-13 -60 -63.5 -99.5t-110.5 -39.5zM1049 1145q-62 0 -96 40t-21 99q12 58 63 97.5t113 39.5q59 0 92 -39.5t21 -97.5q-13 -59 -63 -99t-109 -40zM991 954h269l-203 -954h-269
l33 156q-47 -86 -144.5 -132.5t-180.5 -46.5q-186 0 -258.5 118t-24.5 335l113 524h268l-107 -495q-22 -106 20 -161.5t118 -55.5q54 0 103 18.5t95.5 71t63.5 133.5z" />
    <glyph glyph-name="yacute" unicode="&#xfd;" horiz-adv-x="1048" 
d="M1208 1454l-340 -340h-198l266 340h272zM954 954h289l-893 -1423h-287l345 559l-193 864h295l106 -551z" />
    <glyph glyph-name="thorn" unicode="&#xfe;" horiz-adv-x="1255" 
d="M918 977q92 0 169.5 -34.5t128.5 -99t70 -157t-6 -207.5q-32 -149 -122.5 -264t-208.5 -174t-242 -59q-89 0 -167.5 34.5t-111.5 102.5l-125 -588h-268l409 1933h269l-131 -624q62 68 154.5 102.5t181.5 34.5zM709 231q102 0 188.5 72t108.5 176q23 105 -34 175.5
t-159 70.5q-98 0 -187.5 -69.5t-113.5 -176.5q-23 -106 36.5 -177t160.5 -71z" />
    <glyph glyph-name="ydieresis" unicode="&#xff;" horiz-adv-x="1048" 
d="M559 1145q-61 0 -94.5 40t-20.5 99q12 58 62.5 97.5t111.5 39.5q60 0 93.5 -39.5t21.5 -97.5q-13 -60 -63.5 -99.5t-110.5 -39.5zM985 1145q-62 0 -96 40t-21 99q12 58 63 97.5t113 39.5q59 0 92 -39.5t21 -97.5q-13 -59 -63 -99t-109 -40zM954 954h289l-893 -1423h-287
l345 559l-193 864h295l106 -551z" />
    <glyph glyph-name="Amacron" unicode="&#x100;" horiz-adv-x="1337" 
d="M1335 1821l-35 -172h-561l35 172h561zM1049 0l-43 338h-529l-184 -338h-303l825 1411h307l226 -1411h-299zM612 586h359l-68 530z" />
    <glyph glyph-name="amacron" unicode="&#x101;" horiz-adv-x="1257" 
d="M1194 1364l-37 -172h-561l37 172h561zM1057 954h268l-203 -954h-268l25 119q-62 -66 -156 -101.5t-180 -35.5q-92 0 -170 34.5t-129.5 99t-71 156.5t5.5 207q48 222 216 360t360 138q90 0 167.5 -34.5t110.5 -102.5zM647 231q101 0 188.5 70.5t110.5 177.5
q24 106 -36 176t-158 70q-102 0 -190 -70.5t-111 -175.5q-22 -104 36 -176t160 -72z" />
    <glyph glyph-name="Abreve" unicode="&#x102;" horiz-adv-x="1337" 
d="M1008 1602q-90 0 -145.5 39t-71 98t-0.5 129h170q-22 -109 79 -109q51 0 82 31t41 78h174q-25 -121 -116 -193.5t-213 -72.5zM1049 0l-43 338h-529l-184 -338h-303l825 1411h307l226 -1411h-299zM612 586h359l-68 530z" />
    <glyph glyph-name="abreve" unicode="&#x103;" horiz-adv-x="1257" 
d="M864 1145q-90 0 -145 39t-70 97.5t0 129.5h170q-22 -108 80 -108q51 0 82 30.5t41 77.5h174q-26 -121 -118 -193.5t-214 -72.5zM1057 954h268l-203 -954h-268l25 119q-62 -66 -156 -101.5t-180 -35.5q-92 0 -170 34.5t-129.5 99t-71 156.5t5.5 207q48 222 216 360
t360 138q90 0 167.5 -34.5t110.5 -102.5zM647 231q101 0 188.5 70.5t110.5 177.5q24 106 -36 176t-158 70q-102 0 -190 -70.5t-111 -175.5q-22 -104 36 -176t160 -72z" />
    <glyph glyph-name="Aogonek" unicode="&#x104;" horiz-adv-x="1337" 
d="M1176 -193h141q-25 -115 -102.5 -177t-174.5 -62q-87 0 -135 60t-28 151q8 53 43 96l120 172l-34 291h-529l-184 -338h-303l825 1411h307l226 -1411h-197l-117 -176q-11 -26 -14 -43q-7 -35 8 -56.5t45 -21.5q79 0 103 104zM612 586h359l-68 530z" />
    <glyph glyph-name="aogonek" unicode="&#x105;" horiz-adv-x="1257" 
d="M860 -432q-88 0 -136 60t-28 151q8 53 43 96l125 176l15 68q-64 -67 -156 -102t-180 -35q-92 0 -170 34.5t-129.5 99t-71 156.5t5.5 207q48 222 216 360t360 138q89 0 165.5 -35t112.5 -102l25 114h268l-203 -954h-151l-117 -176q-12 -22 -16 -43q-7 -34 9 -56t46 -22
q78 0 102 104h142q-25 -115 -103 -177t-174 -62zM647 231q101 0 188.5 70.5t110.5 177.5q24 106 -36 176t-158 70q-102 0 -190 -70.5t-111 -175.5q-22 -104 36 -176t160 -72z" />
    <glyph glyph-name="Cacute" unicode="&#x106;" horiz-adv-x="1433" 
d="M952 1571l267 340h272l-340 -340h-199zM799 -18q-98 0 -186 26t-156.5 73t-121 113t-80.5 146.5t-35 173.5t16 193q31 146 115.5 279.5t201 230t261.5 153.5t292 57q177 0 311 -78t201 -214l-250 -158q-89 182 -309 182q-191 0 -345 -130.5t-194 -321.5
q-26 -125 7.5 -229.5t121.5 -166t213 -61.5q225 0 391 184l183 -160q-126 -135 -293.5 -213.5t-343.5 -78.5z" />
    <glyph glyph-name="cacute" unicode="&#x107;" horiz-adv-x="1060" 
d="M678 1114l266 340h273l-340 -340h-199zM596 -18q-104 0 -192 35.5t-146.5 100.5t-82 157t0.5 206q32 147 130 262.5t229.5 175.5t271.5 60q127 0 219 -55t141 -150l-231 -141q-23 44 -72 70t-108 26q-112 0 -197.5 -71t-109.5 -177q-22 -107 34 -178.5t168 -71.5
q58 0 118 26.5t103 70.5l170 -142q-90 -96 -204.5 -150t-241.5 -54z" />
    <glyph glyph-name="Cdotaccent" unicode="&#x10a;" horiz-adv-x="1433" 
d="M1133 1587q-65 0 -100.5 42.5t-22.5 107.5q12 62 66.5 104.5t119.5 42.5q63 0 99 -42t24 -105q-13 -65 -67.5 -107.5t-118.5 -42.5zM799 -18q-98 0 -186 26t-156.5 73t-121 113t-80.5 146.5t-35 173.5t16 193q31 146 115.5 279.5t201 230t261.5 153.5t292 57
q177 0 311 -78t201 -214l-250 -158q-89 182 -309 182q-191 0 -345 -130.5t-194 -321.5q-26 -125 7.5 -229.5t121.5 -166t213 -61.5q225 0 391 184l183 -160q-126 -135 -293.5 -213.5t-343.5 -78.5z" />
    <glyph glyph-name="cdotaccent" unicode="&#x10b;" horiz-adv-x="1060" 
d="M819 1130q-65 0 -101.5 42.5t-23.5 107.5q13 62 68.5 104.5t120.5 42.5q64 0 99 -42.5t22 -104.5q-13 -65 -67 -107.5t-118 -42.5zM596 -18q-104 0 -192 35.5t-146.5 100.5t-82 157t0.5 206q32 147 130 262.5t229.5 175.5t271.5 60q127 0 219 -55t141 -150l-231 -141
q-23 44 -72 70t-108 26q-112 0 -197.5 -71t-109.5 -177q-22 -107 34 -178.5t168 -71.5q58 0 118 26.5t103 70.5l170 -142q-90 -96 -204.5 -150t-241.5 -54z" />
    <glyph glyph-name="Ccaron" unicode="&#x10c;" horiz-adv-x="1433" 
d="M985 1571l-151 340h198l121 -182l199 182h200l-297 -340h-270zM799 -18q-98 0 -186 26t-156.5 73t-121 113t-80.5 146.5t-35 173.5t16 193q31 146 115.5 279.5t201 230t261.5 153.5t292 57q177 0 311 -78t201 -214l-250 -158q-89 182 -309 182q-191 0 -345 -130.5
t-194 -321.5q-26 -125 7.5 -229.5t121.5 -166t213 -61.5q225 0 391 184l183 -160q-126 -135 -293.5 -213.5t-343.5 -78.5z" />
    <glyph glyph-name="ccaron" unicode="&#x10d;" horiz-adv-x="1060" 
d="M672 1114l-152 340h199l121 -182l198 182h201l-297 -340h-270zM596 -18q-104 0 -192 35.5t-146.5 100.5t-82 157t0.5 206q32 147 130 262.5t229.5 175.5t271.5 60q127 0 219 -55t141 -150l-231 -141q-23 44 -72 70t-108 26q-112 0 -197.5 -71t-109.5 -177
q-22 -107 34 -178.5t168 -71.5q58 0 118 26.5t103 70.5l170 -142q-90 -96 -204.5 -150t-241.5 -54z" />
    <glyph glyph-name="Dcaron" unicode="&#x10e;" horiz-adv-x="1458" 
d="M854 1571l-152 340h199l121 -182l199 182h200l-297 -340h-270zM172 0l299 1411h553q120 0 215 -35t157 -99t99 -152.5t39 -195t-21 -227.5q-32 -150 -102 -278t-170.5 -222.5t-233.5 -148t-282 -53.5h-553zM510 252h268q169 0 290 129t161 321q22 91 14.5 173.5
t-36 145.5t-89.5 100.5t-147 37.5h-269z" />
    <glyph glyph-name="dcaron" unicode="&#x10f;" horiz-adv-x="1339" 
d="M1032 840l131 624h269l-310 -1464h-268l25 119q-62 -66 -156 -101.5t-180 -35.5q-92 0 -170 34.5t-129.5 99t-71 156.5t5.5 207q48 222 216 360t360 138q90 0 167.5 -34.5t110.5 -102.5zM1606 1411h233q-89 -307 -311 -463l-121 68q86 92 130 176.5t69 218.5zM647 231
q101 0 188.5 70.5t110.5 177.5q24 106 -36 176t-158 70q-102 0 -190 -70.5t-111 -175.5q-22 -104 36 -176t160 -72z" />
    <glyph glyph-name="Dcroat" unicode="&#x110;" horiz-adv-x="1478" 
d="M1044 1411q148 0 258.5 -54.5t169 -149.5t77 -225t-16.5 -280q-32 -150 -102.5 -278t-171 -222.5t-233 -148t-280.5 -53.5h-555l125 596h-153l45 209h153l129 606h555zM799 252q167 0 287.5 129t160.5 321q22 91 14.5 173.5t-36 145.5t-89 100.5t-145.5 37.5h-270
l-76 -354h262l-45 -209h-262l-72 -344h271z" />
    <glyph glyph-name="dcroat" unicode="&#x111;" horiz-adv-x="1257" 
d="M1536 1274l-33 -150h-143l-238 -1124h-268l25 119q-62 -66 -156 -101.5t-180 -35.5q-92 0 -170 34.5t-129.5 99t-71 156.5t5.5 207q48 222 216 360t360 138q90 0 167.5 -34.5t110.5 -102.5l60 284h-287l33 150h286l39 190h269l-39 -190h143zM647 231q101 0 188.5 70.5
t110.5 177.5q24 106 -36 176t-158 70q-102 0 -190 -70.5t-111 -175.5q-22 -104 36 -176t160 -72z" />
    <glyph glyph-name="Emacron" unicode="&#x112;" horiz-adv-x="1175" 
d="M1255 1821l-34 -172h-562l35 172h561zM510 252h618l-53 -252h-903l299 1411h885l-53 -252h-601l-71 -336h526l-55 -256h-527z" />
    <glyph glyph-name="emacron" unicode="&#x113;" horiz-adv-x="1153" 
d="M1143 1364l-37 -172h-561l37 172h561zM1186 494q-7 -31 -27 -103h-721q4 -83 59 -127.5t152 -44.5q73 0 146.5 28.5t126.5 78.5l125 -158q-86 -89 -211 -137.5t-254 -48.5q-222 0 -336.5 138t-67.5 357q32 150 127 266t222.5 176t265.5 60q101 0 184.5 -34.5t137 -98
t74 -153t-2.5 -199.5zM475 565h457q12 83 -39.5 131.5t-144.5 48.5q-88 0 -160 -44t-113 -136z" />
    <glyph glyph-name="Edotaccent" unicode="&#x116;" horiz-adv-x="1175" 
d="M926 1587q-65 0 -100.5 42.5t-22.5 107.5q12 62 66.5 104.5t119.5 42.5q63 0 99 -42t24 -105q-13 -65 -67.5 -107.5t-118.5 -42.5zM510 252h618l-53 -252h-903l299 1411h885l-53 -252h-601l-71 -336h526l-55 -256h-527z" />
    <glyph glyph-name="edotaccent" unicode="&#x117;" horiz-adv-x="1153" 
d="M813 1130q-65 0 -101.5 42.5t-23.5 107.5q13 62 68.5 104.5t120.5 42.5q63 0 98 -42t22 -105q-13 -65 -66.5 -107.5t-117.5 -42.5zM1186 494q-7 -31 -27 -103h-721q4 -83 59 -127.5t152 -44.5q73 0 146.5 28.5t126.5 78.5l125 -158q-86 -89 -211 -137.5t-254 -48.5
q-222 0 -336.5 138t-67.5 357q32 150 127 266t222.5 176t265.5 60q101 0 184.5 -34.5t137 -98t74 -153t-2.5 -199.5zM475 565h457q12 83 -39.5 131.5t-144.5 48.5q-88 0 -160 -44t-113 -136z" />
    <glyph glyph-name="Eogonek" unicode="&#x118;" horiz-adv-x="1175" 
d="M854 0l-117 -176q-12 -22 -16 -43q-7 -35 8.5 -56.5t46.5 -21.5q77 0 101 104h143q-25 -115 -103 -177t-174 -62q-87 0 -135 60t-28 151q8 52 41 96l90 125h-539l299 1411h885l-53 -252h-601l-71 -336h526l-55 -256h-527l-65 -315h618l-53 -252h-221z" />
    <glyph glyph-name="eogonek" unicode="&#x119;" horiz-adv-x="1153" 
d="M1186 494q-7 -31 -27 -103h-721q4 -83 59 -127.5t152 -44.5q73 0 146.5 28.5t126.5 78.5l125 -158q-78 -84 -207 -135l-138 -209q-11 -26 -14 -43q-7 -35 8 -56.5t45 -21.5q79 0 103 104h141q-25 -115 -102 -177t-174 -62q-88 0 -136 60t-28 151q8 53 43 96l78 113
q-40 -6 -84 -6q-222 0 -336.5 138t-67.5 357q32 150 127 266t222.5 176t265.5 60q101 0 184.5 -34.5t137 -98t74 -153t-2.5 -199.5zM475 565h457q12 83 -39.5 131.5t-144.5 48.5q-88 0 -160 -44t-113 -136z" />
    <glyph glyph-name="Ecaron" unicode="&#x11a;" horiz-adv-x="1175" 
d="M1057 1571h-271l-151 340h199l120 -182l199 182h201zM510 252h618l-53 -252h-903l299 1411h885l-53 -252h-601l-71 -336h526l-55 -256h-527z" />
    <glyph glyph-name="ecaron" unicode="&#x11b;" horiz-adv-x="1153" 
d="M942 1114h-270l-152 340h199l121 -182l198 182h201zM1186 494q-7 -31 -27 -103h-721q4 -83 59 -127.5t152 -44.5q73 0 146.5 28.5t126.5 78.5l125 -158q-86 -89 -211 -137.5t-254 -48.5q-222 0 -336.5 138t-67.5 357q32 150 127 266t222.5 176t265.5 60
q101 0 184.5 -34.5t137 -98t74 -153t-2.5 -199.5zM475 565h457q12 83 -39.5 131.5t-144.5 48.5q-88 0 -160 -44t-113 -136z" />
    <glyph glyph-name="Gbreve" unicode="&#x11e;" horiz-adv-x="1546" 
d="M1110 1602q-90 0 -145.5 39t-71 98t-0.5 129h170q-22 -109 80 -109q51 0 82 31t41 78h174q-25 -120 -116 -193t-214 -73zM803 -18q-120 0 -223.5 37t-176.5 102.5t-121.5 156.5t-58.5 198.5t13 228.5q31 148 115.5 282t200.5 231t262.5 154.5t295.5 57.5q156 0 279 -60.5
t194 -165.5l-244 -178q-46 65 -120.5 102t-165.5 37q-183 0 -338 -135t-195 -325q-27 -125 7 -232.5t121.5 -172t207.5 -64.5q139 0 252.5 63t163.5 172q10 16 16 35h-399l49 231h711q-41 -192 -121.5 -337.5t-191.5 -236.5t-244.5 -136t-288.5 -45z" />
    <glyph glyph-name="gbreve" unicode="&#x11f;" horiz-adv-x="1257" 
d="M864 1145q-90 0 -145 39t-70 97.5t0 129.5h170q-22 -108 80 -108q51 0 82 30.5t41 77.5h174q-26 -121 -118 -193.5t-214 -72.5zM1057 954h268l-176 -823q-64 -306 -240.5 -459t-437.5 -153q-153 0 -262 79t-141 212l243 96q17 -65 75 -106.5t134 -41.5q281 0 354 344
l5 15q-64 -65 -157 -100t-179 -35q-92 0 -170 34.5t-129.5 99t-71 156.5t5.5 207q48 222 216 360t360 138q87 0 164.5 -34.5t113.5 -100.5zM647 231q101 0 188.5 70.5t110.5 177.5q24 106 -36 176t-158 70q-102 0 -190 -70.5t-111 -175.5q-22 -104 36 -176t160 -72z" />
    <glyph glyph-name="Gdotaccent" unicode="&#x120;" horiz-adv-x="1546" 
d="M1108 1587q-65 0 -100.5 42.5t-22.5 107.5q12 62 66.5 104.5t119.5 42.5q63 0 99 -42t24 -105q-13 -65 -67.5 -107.5t-118.5 -42.5zM803 -18q-120 0 -223.5 37t-176.5 102.5t-121.5 156.5t-58.5 198.5t13 228.5q31 148 115.5 282t200.5 231t262.5 154.5t295.5 57.5
q156 0 279 -60.5t194 -165.5l-244 -178q-46 65 -120.5 102t-165.5 37q-183 0 -338 -135t-195 -325q-27 -125 7 -232.5t121.5 -172t207.5 -64.5q139 0 252.5 63t163.5 172q10 16 16 35h-399l49 231h711q-41 -192 -121.5 -337.5t-191.5 -236.5t-244.5 -136t-288.5 -45z" />
    <glyph glyph-name="gdotaccent" unicode="&#x121;" horiz-adv-x="1257" 
d="M864 1130q-65 0 -101.5 42.5t-23.5 107.5q13 62 68.5 104.5t120.5 42.5q64 0 99 -42.5t22 -104.5q-13 -65 -67 -107.5t-118 -42.5zM1057 954h268l-176 -823q-64 -306 -240.5 -459t-437.5 -153q-153 0 -262 79t-141 212l243 96q17 -65 75 -106.5t134 -41.5q281 0 354 344
l5 15q-64 -65 -157 -100t-179 -35q-92 0 -170 34.5t-129.5 99t-71 156.5t5.5 207q48 222 216 360t360 138q87 0 164.5 -34.5t113.5 -100.5zM647 231q101 0 188.5 70.5t110.5 177.5q24 106 -36 176t-158 70q-102 0 -190 -70.5t-111 -175.5q-22 -104 36 -176t160 -72z" />
    <glyph glyph-name="Gcommaaccent" unicode="&#x122;" horiz-adv-x="1546" 
d="M803 -18q-120 0 -223.5 37t-176.5 102.5t-121.5 156.5t-58.5 198.5t13 228.5q31 148 115.5 282t200.5 231t262.5 154.5t295.5 57.5q156 0 279 -60.5t194 -165.5l-244 -178q-46 65 -120.5 102t-165.5 37q-183 0 -338 -135t-195 -325q-27 -125 7 -232.5t121.5 -172
t207.5 -64.5q139 0 252.5 63t163.5 172q10 16 16 35h-399l49 231h711q-41 -192 -121.5 -337.5t-191.5 -236.5t-244.5 -136t-288.5 -45zM586 -485l-123 67q133 124 164 336h254q-26 -123 -108.5 -229t-186.5 -174z" />
    <glyph glyph-name="gcommaaccent" unicode="&#x123;" horiz-adv-x="1257" 
d="M956 1128h-251q25 124 106.5 230t185.5 174l121 -68q-126 -123 -162 -336zM1057 954h268l-176 -823q-64 -306 -240.5 -459t-437.5 -153q-153 0 -262 79t-141 212l243 96q17 -65 75 -106.5t134 -41.5q281 0 354 344l5 15q-64 -65 -157 -100t-179 -35q-92 0 -170 34.5
t-129.5 99t-71 156.5t5.5 207q48 222 216 360t360 138q87 0 164.5 -34.5t113.5 -100.5zM647 231q101 0 188.5 70.5t110.5 177.5q24 106 -36 176t-158 70q-102 0 -190 -70.5t-111 -175.5q-22 -104 36 -176t160 -72z" />
    <glyph glyph-name="Hbar" unicode="&#x126;" horiz-adv-x="1470" 
d="M1683 1188l-32 -150h-150l-219 -1038h-285l121 573h-526l-121 -573h-285l220 1038h-148l33 150h147l47 223h285l-47 -223h526l47 223h285l-47 -223h149zM1174 829l43 209h-527l-43 -209h527z" />
    <glyph glyph-name="hbar" unicode="&#x127;" horiz-adv-x="1191" 
d="M897 979q186 0 258.5 -119t24.5 -336l-111 -524h-268l104 496q23 107 -18 163t-117 56q-39 0 -77 -11.5t-76.5 -36t-68 -70.5t-42.5 -108l-103 -489h-268l232 1090h-103l31 149h102l47 225h269l-47 -225h325l-30 -149h-326l-62 -285q47 83 144.5 128.5t179.5 45.5z" />
    <glyph glyph-name="Itilde" unicode="&#x128;" horiz-adv-x="628" 
d="M369 1606q24 92 69.5 152t91 82t91.5 22q30 0 55.5 -13t40.5 -29t32.5 -29t32.5 -13q17 0 40 20.5t34 63.5h141q-17 -69 -47.5 -120t-66 -78t-69 -39.5t-66.5 -12.5q-28 0 -54 13t-41.5 29t-34 29t-34.5 13t-38.5 -22.5t-33.5 -67.5h-143zM172 0l299 1411h285l-299 -1411
h-285z" />
    <glyph glyph-name="itilde" unicode="&#x129;" horiz-adv-x="538" 
d="M227 1149q24 92 69 152t90 82t91 22q30 0 56 -13t41.5 -29t33.5 -29t33 -13q17 0 40 20.5t32 63.5h141q-17 -69 -47.5 -120t-66.5 -78t-69.5 -39.5t-66.5 -12.5q-28 0 -53.5 13t-40.5 29t-33.5 29t-34.5 13t-38 -22.5t-33 -67.5h-144zM135 0l203 954h268l-203 -954h-268z
" />
    <glyph glyph-name="Imacron" unicode="&#x12a;" horiz-adv-x="628" 
d="M385 1649l35 172h561l-35 -172h-561zM172 0l299 1411h285l-299 -1411h-285z" />
    <glyph glyph-name="imacron" unicode="&#x12b;" horiz-adv-x="538" 
d="M242 1192l37 172h561l-37 -172h-561zM135 0l203 954h268l-203 -954h-268z" />
    <glyph glyph-name="Iogonek" unicode="&#x12e;" horiz-adv-x="628" 
d="M330 -193h141q-25 -115 -101.5 -177t-172.5 -62q-89 0 -137.5 60t-28.5 151q8 53 43 96l100 141l297 1395h285l-299 -1411h-150l-119 -176q-11 -26 -14 -43q-7 -35 8 -56.5t45 -21.5q79 0 103 104z" />
    <glyph glyph-name="iogonek" unicode="&#x12f;" horiz-adv-x="540" 
d="M508 1124q-69 0 -108.5 47.5t-26.5 114.5t74 113.5t131 46.5t109.5 -46t25.5 -114q-13 -67 -73.5 -114.5t-131.5 -47.5zM147 -432q-87 0 -134 60t-27 151q8 55 39 96l120 170l195 909h268l-202 -954h-148l-117 -176q-12 -22 -16 -43q-7 -35 8.5 -56.5t46.5 -21.5
q77 0 101 104h143q-25 -115 -103 -177t-174 -62z" />
    <glyph glyph-name="Idotaccent" unicode="&#x130;" horiz-adv-x="628" 
d="M651 1587q-65 0 -100.5 42.5t-22.5 107.5q12 62 67 104.5t120 42.5q63 0 99 -42t24 -105q-13 -65 -68 -107.5t-119 -42.5zM172 0l299 1411h285l-299 -1411h-285z" />
    <glyph glyph-name="dotlessi" unicode="&#x131;" horiz-adv-x="538" 
d="M135 0l203 954h268l-203 -954h-268z" />
    <glyph glyph-name="IJ" unicode="&#x132;" horiz-adv-x="1273" 
d="M172 0l299 1411h285l-299 -1411h-285zM541 -481q-94 0 -193 30l80 261q59 -23 168 -23q89 0 144 57.5t75 149.5l301 1417h285l-301 -1417q-21 -100 -64 -183.5t-110 -150t-165.5 -104t-219.5 -37.5z" />
    <glyph glyph-name="ij" unicode="&#x133;" horiz-adv-x="1093" 
d="M506 1124q-69 0 -108.5 47.5t-26.5 114.5t73.5 113.5t130.5 46.5q71 0 110 -46.5t26 -113.5t-73.5 -114.5t-131.5 -47.5zM1063 1124q-69 0 -109.5 47.5t-27.5 114.5t75 113.5t132 46.5t108.5 -46t24.5 -114q-13 -67 -72.5 -114.5t-130.5 -47.5zM135 0l203 954h268
l-203 -954h-268zM322 -469l53 250h117q76 0 125 54.5t67 141.5l209 977h268l-209 -979q-45 -213 -175 -328.5t-331 -115.5h-124z" />
    <glyph glyph-name="Jcircumflex" unicode="&#x134;" horiz-adv-x="645" 
d="M305 1571l295 340h270l154 -340h-201l-123 180l-196 -180h-199zM-86 -481q-94 0 -193 30l80 261q59 -23 168 -23q87 0 142 57.5t75 149.5l301 1417h285l-301 -1417q-21 -100 -64 -183.5t-109.5 -150t-164.5 -104t-219 -37.5z" />
    <glyph glyph-name="jcircumflex" unicode="&#x135;" horiz-adv-x="555" 
d="M166 1128l295 340h270l154 -340h-201l-123 181l-196 -181h-199zM354 954h269l-209 -979q-45 -212 -174.5 -328t-329.5 -116h-125l53 250h117q74 0 123 54.5t67 141.5z" />
    <glyph glyph-name="Kcommaaccent" unicode="&#x136;" 
d="M776 709l508 -709h-387l-336 496l-104 -496h-285l299 1411h285l-103 -481l453 481h354zM319 -418q133 124 164 336h254q-26 -123 -108.5 -229t-186.5 -174z" />
    <glyph glyph-name="kcommaaccent" unicode="&#x137;" horiz-adv-x="1052" 
d="M729 535l344 -535h-334l-250 414l-86 -414h-268l309 1464h269l-170 -800l305 290h344zM223 -418q133 124 164 336h254q-26 -123 -108.5 -229t-186.5 -174z" />
    <glyph glyph-name="kgreenlandic" unicode="&#x138;" horiz-adv-x="1003" 
d="M1016 0h-354l-189 342l-72 -342h-266l203 956h266l-67 -319l299 319h321l-457 -473z" />
    <glyph glyph-name="Lacute" unicode="&#x139;" horiz-adv-x="1032" 
d="M514 1571l266 340h273l-340 -340h-199zM172 0l299 1411h285l-246 -1159h534l-53 -252h-819z" />
    <glyph glyph-name="lacute" unicode="&#x13a;" horiz-adv-x="538" 
d="M475 1571l266 340h273l-340 -340h-199zM135 0l309 1464h269l-310 -1464h-268z" />
    <glyph glyph-name="Lcommaaccent" unicode="&#x13b;" horiz-adv-x="1032" 
d="M172 0l299 1411h285l-246 -1159h534l-53 -252h-819zM334 -485l-123 67q133 124 164 336h254q-26 -123 -108.5 -229t-186.5 -174z" />
    <glyph glyph-name="lcommaaccent" unicode="&#x13c;" horiz-adv-x="538" 
d="M135 0l309 1464h269l-310 -1464h-268zM84 -485l-121 67q131 125 162 336h254q-26 -123 -108.5 -229t-186.5 -174z" />
    <glyph glyph-name="Lcaron" unicode="&#x13d;" horiz-adv-x="1060" 
d="M172 0l299 1411h285l-246 -1159h534l-53 -252h-819zM948 952l-110 64q86 94 130.5 178.5t69.5 216.5h217q-26 -92 -62 -168.5t-78.5 -130.5t-81.5 -91t-85 -69z" />
    <glyph glyph-name="lcaron" unicode="&#x13e;" horiz-adv-x="620" 
d="M135 0l309 1464h269l-310 -1464h-268zM811 948l-121 68q86 94 130 178t69 217h231q-85 -303 -309 -463z" />
    <glyph glyph-name="Lslash" unicode="&#x141;" horiz-adv-x="1056" 
d="M535 252h532l-53 -252h-817l108 512l-168 -92l37 174l168 92l154 725h284l-116 -547l231 127l-37 -174l-231 -127z" />
    <glyph glyph-name="lslash" unicode="&#x142;" horiz-adv-x="708" 
d="M866 985l-37 -172l-198 -106l-150 -707h-268l115 543l-162 -86l37 174l162 86l157 747h269l-123 -585z" />
    <glyph glyph-name="Nacute" unicode="&#x143;" horiz-adv-x="1396" 
d="M1475 1911l-340 -340h-199l266 340h273zM1239 1411h285l-299 -1411h-256l-326 885l-186 -885h-285l299 1411h264l318 -874z" />
    <glyph glyph-name="nacute" unicode="&#x144;" horiz-adv-x="1191" 
d="M1274 1454l-340 -340h-199l266 340h273zM897 979q186 0 258.5 -119t24.5 -336l-111 -524h-268l104 496q23 107 -18 163t-117 56q-39 0 -77 -11.5t-76.5 -36t-68 -70.5t-42.5 -108l-103 -489h-268l203 954h268l-35 -159q47 88 145 136t181 48z" />
    <glyph glyph-name="Ncommaaccent" unicode="&#x145;" horiz-adv-x="1396" 
d="M1239 1411h285l-299 -1411h-256l-326 885l-186 -885h-285l299 1411h264l318 -874zM389 -418q133 124 164 336h254q-26 -123 -108.5 -229t-186.5 -174z" />
    <glyph glyph-name="ncommaaccent" unicode="&#x146;" horiz-adv-x="1191" 
d="M897 979q186 0 258.5 -119t24.5 -336l-111 -524h-268l104 496q23 107 -18 163t-117 56q-39 0 -77 -11.5t-76.5 -36t-68 -70.5t-42.5 -108l-103 -489h-268l203 954h268l-35 -159q47 88 145 136t181 48zM287 -418q133 124 164 336h254q-26 -123 -108.5 -229t-186.5 -174z
" />
    <glyph glyph-name="Ncaron" unicode="&#x147;" horiz-adv-x="1396" 
d="M1165 1571h-270l-152 340h199l121 -182l199 182h200zM1239 1411h285l-299 -1411h-256l-326 885l-186 -885h-285l299 1411h264l318 -874z" />
    <glyph glyph-name="ncaron" unicode="&#x148;" horiz-adv-x="1191" 
d="M965 1114h-271l-151 340h198l121 -182l199 182h201zM897 979q186 0 258.5 -119t24.5 -336l-111 -524h-268l104 496q23 107 -18 163t-117 56q-39 0 -77 -11.5t-76.5 -36t-68 -70.5t-42.5 -108l-103 -489h-268l203 954h268l-35 -159q47 88 145 136t181 48z" />
    <glyph glyph-name="napostrophe" unicode="&#x149;" horiz-adv-x="1415" 
d="M223 1016q87 93 131.5 177.5t69.5 217.5h231q-88 -305 -309 -463zM1120 979q186 0 258.5 -119t26.5 -336l-111 -524h-270l104 496q23 107 -18 163t-117 56q-38 0 -76 -11.5t-76.5 -36t-68.5 -70.5t-43 -108l-102 -489h-269l203 954h268l-34 -159q47 88 144.5 136
t180.5 48z" />
    <glyph glyph-name="Eng" unicode="&#x14a;" horiz-adv-x="1396" 
d="M1239 1411h285l-301 -1413q-21 -100 -63.5 -183t-109.5 -150t-166 -104.5t-220 -37.5q-98 0 -193 33l80 258q59 -21 170 -21q89 0 143.5 57t73.5 148l12 53l-307 832l-186 -883h-285l299 1411h264l318 -872z" />
    <glyph glyph-name="eng" unicode="&#x14b;" horiz-adv-x="1191" 
d="M897 979q186 0 258.5 -119t24.5 -336l-117 -549q-45 -213 -174.5 -328.5t-331.5 -115.5h-125l53 250h119q76 0 124.5 54t66.5 142l110 519q23 107 -18 163t-117 56q-39 0 -77 -11.5t-76.5 -36t-68 -70.5t-42.5 -108l-103 -489h-268l203 954h268l-35 -159q47 88 145 136
t181 48z" />
    <glyph glyph-name="Omacron" unicode="&#x14c;" horiz-adv-x="1607" 
d="M874 1649l35 172h561l-34 -172h-562zM799 -18q-197 0 -341.5 97t-204 263t-17.5 363q41 198 171.5 364.5t316 263.5t382.5 97q118 0 220 -37t175.5 -103t122 -157t59 -199t-11.5 -229q-32 -147 -117 -281t-201.5 -230.5t-261.5 -154t-292 -57.5zM854 248q187 0 337.5 132
t192.5 325q26 126 -6.5 230t-119 165t-209.5 61q-188 0 -338.5 -131.5t-190.5 -324.5q-27 -126 5 -230.5t118.5 -165.5t210.5 -61z" />
    <glyph glyph-name="omacron" unicode="&#x14d;" horiz-adv-x="1179" 
d="M565 1192l37 172h561l-37 -172h-561zM586 -18q-102 0 -188 35.5t-143 100.5t-80 156.5t1 204.5q32 147 129 263t226 176.5t266 60.5q102 0 187.5 -35.5t142.5 -101t79.5 -157.5t-2.5 -206q-31 -146 -127 -261t-225 -175.5t-266 -60.5zM639 231q101 0 185.5 69.5
t107.5 178.5q24 110 -31.5 180t-157.5 70t-186 -69.5t-108 -180.5q-23 -108 32.5 -178t157.5 -70z" />
    <glyph glyph-name="Ohungarumlaut" unicode="&#x150;" horiz-adv-x="1607" 
d="M920 1571l251 340h201l-274 -340h-178zM1208 1571l277 340h207l-299 -340h-185zM799 -18q-197 0 -341.5 97t-204 263t-17.5 363q41 198 171.5 364.5t316 263.5t382.5 97q118 0 220 -37t175.5 -103t122 -157t59 -199t-11.5 -229q-32 -147 -117 -281t-201.5 -230.5
t-261.5 -154t-292 -57.5zM854 248q187 0 337.5 132t192.5 325q26 126 -6.5 230t-119 165t-209.5 61q-188 0 -338.5 -131.5t-190.5 -324.5q-27 -126 5 -230.5t118.5 -165.5t210.5 -61z" />
    <glyph glyph-name="ohungarumlaut" unicode="&#x151;" horiz-adv-x="1179" 
d="M610 1114l252 340h201l-275 -340h-178zM899 1114l277 340h206l-299 -340h-184zM586 -18q-102 0 -188 35.5t-143 100.5t-80 156.5t1 204.5q32 147 129 263t226 176.5t266 60.5q102 0 187.5 -35.5t142.5 -101t79.5 -157.5t-2.5 -206q-31 -146 -127 -261t-225 -175.5
t-266 -60.5zM639 231q101 0 185.5 69.5t107.5 178.5q24 110 -31.5 180t-157.5 70t-186 -69.5t-108 -180.5q-23 -108 32.5 -178t157.5 -70z" />
    <glyph glyph-name="OE" unicode="&#x152;" horiz-adv-x="2242" 
d="M1575 252h618l-53 -252h-901l31 150q-98 -81 -222 -124.5t-249 -43.5q-197 0 -341.5 97t-204 263t-17.5 363q41 198 171.5 364.5t316 263.5t382.5 97q262 0 399 -168l33 149h883l-54 -252h-600l-71 -336h526l-55 -256h-527zM854 248q187 0 337.5 132t192.5 325
q26 126 -6.5 230t-119 165t-209.5 61q-188 0 -338.5 -131.5t-190.5 -324.5q-27 -126 5 -230.5t118.5 -165.5t210.5 -61z" />
    <glyph glyph-name="oe" unicode="&#x153;" horiz-adv-x="1906" 
d="M1942 494q-10 -44 -29 -103h-721q6 -83 60 -127.5t151 -44.5q74 0 146 28t126 79l125 -158q-86 -89 -210 -137.5t-253 -48.5q-116 0 -205.5 39t-142.5 112q-180 -151 -403 -151q-102 0 -188 35.5t-143 100.5t-80 156.5t1 204.5q32 147 129 263t226 176.5t266 60.5
q108 0 197.5 -40t146.5 -114q87 74 192 114t213 40q137 0 237.5 -59.5t144.5 -171t14 -254.5zM1229 565h457q12 83 -40 131.5t-145 48.5q-85 0 -157.5 -44t-114.5 -136zM639 231q101 0 185.5 69.5t107.5 178.5q24 110 -31.5 180t-157.5 70t-186 -69.5t-108 -180.5
q-23 -108 32.5 -178t157.5 -70z" />
    <glyph glyph-name="Racute" unicode="&#x154;" horiz-adv-x="1302" 
d="M1425 1911l-340 -340h-198l266 340h272zM889 0l-230 506h-96l-106 -506h-285l299 1411h563q94 0 167 -26t115.5 -70t68.5 -103t26 -125.5t-12 -136.5q-34 -161 -144.5 -278t-289.5 -152l258 -520h-334zM702 1159l-90 -424h228q114 0 182.5 59t87.5 150q20 90 -21 152.5
t-137 62.5h-250z" />
    <glyph glyph-name="racute" unicode="&#x155;" horiz-adv-x="843" 
d="M1102 1454l-340 -340h-199l266 340h273zM889 979q92 0 145 -31l-116 -256q-55 35 -130 35q-107 0 -190.5 -100.5t-124.5 -298.5l-70 -328h-268l203 954h266l-43 -202q62 115 148 171t180 56z" />
    <glyph glyph-name="Rcommaaccent" unicode="&#x156;" horiz-adv-x="1302" 
d="M965 520l258 -520h-334l-230 506h-96l-106 -506h-285l299 1411h563q94 0 167 -26t115.5 -70t68.5 -103t26 -125.5t-12 -136.5q-34 -161 -144.5 -278t-289.5 -152zM702 1159l-90 -424h228q114 0 182.5 59t87.5 150q20 90 -21 152.5t-137 62.5h-250zM340 -418
q133 124 164 336h254q-26 -123 -108.5 -229t-186.5 -174z" />
    <glyph glyph-name="rcommaaccent" unicode="&#x157;" horiz-adv-x="843" 
d="M889 979q92 0 145 -31l-116 -256q-55 35 -130 35q-107 0 -190.5 -100.5t-124.5 -298.5l-70 -328h-268l203 954h266l-43 -202q62 115 148 171t180 56zM125 -82h252q-25 -124 -107.5 -229.5t-187.5 -173.5l-119 67q126 123 162 336z" />
    <glyph glyph-name="Rcaron" unicode="&#x158;" horiz-adv-x="1302" 
d="M1116 1571h-270l-152 340h199l121 -182l198 182h201zM889 0l-230 506h-96l-106 -506h-285l299 1411h563q94 0 167 -26t115.5 -70t68.5 -103t26 -125.5t-12 -136.5q-34 -161 -144.5 -278t-289.5 -152l258 -520h-334zM702 1159l-90 -424h228q114 0 182.5 59t87.5 150
q20 90 -21 152.5t-137 62.5h-250z" />
    <glyph glyph-name="rcaron" unicode="&#x159;" horiz-adv-x="843" 
d="M793 1114h-271l-151 340h198l121 -182l199 182h201zM889 979q92 0 145 -31l-116 -256q-55 35 -130 35q-107 0 -190.5 -100.5t-124.5 -298.5l-70 -328h-268l203 954h266l-43 -202q62 115 148 171t180 56z" />
    <glyph glyph-name="Sacute" unicode="&#x15a;" horiz-adv-x="1191" 
d="M836 1571l266 340h272l-340 -340h-198zM596 -18q-224 0 -340 122.5t-76 311.5h285q-15 -78 39 -132.5t151 -54.5q95 0 163 45.5t85 120.5q24 115 -143 170l-162 49q-84 24 -143.5 61t-89.5 77t-44 88t-13.5 88t9.5 82q39 185 205 302.5t373 117.5q204 0 312.5 -117
t66.5 -314h-285q18 77 -22.5 128t-130.5 51q-84 0 -149.5 -46t-80.5 -116q-24 -105 125 -150l150 -45q375 -110 311 -411q-28 -135 -121 -234.5t-216 -146.5t-259 -47z" />
    <glyph glyph-name="sacute" unicode="&#x15b;" horiz-adv-x="952" 
d="M614 1114l267 340h272l-340 -340h-199zM469 -18q-76 0 -142.5 21.5t-114 61.5t-68.5 103t-5 139h252q-8 -46 21.5 -80t95.5 -34q60 0 104.5 24t53.5 64q6 30 -14.5 47.5t-73.5 31.5l-121 31q-265 76 -213 303q24 114 148.5 199.5t285.5 85.5q69 0 129.5 -17.5t109 -53
t69.5 -97.5t3 -143h-256q9 46 -19 72t-77 26q-47 0 -83.5 -22t-43.5 -58q-13 -57 76 -82l149 -41q62 -17 105 -45.5t63.5 -57.5t29.5 -64t8 -61t-7 -54q-16 -73 -63 -131.5t-112 -94t-139.5 -54.5t-150.5 -19z" />
    <glyph glyph-name="Scedilla" unicode="&#x15e;" horiz-adv-x="1191" 
d="M1192 410q-38 -179 -181 -290t-331 -134l33 -111q9 -36 0 -96q-20 -91 -93.5 -151t-160.5 -60q-96 0 -146.5 62t-25.5 177h141q-11 -48 2 -76t53 -28q31 0 56 21.5t32 56.5q5 27 0 43l-34 160q-198 17 -296.5 137t-60.5 295h285q-15 -78 39 -132.5t151 -54.5
q95 0 163 45.5t85 120.5q24 115 -143 170l-162 49q-84 24 -143.5 61t-89.5 77t-44 88t-13.5 88t9.5 82q39 185 205 302.5t373 117.5q204 0 312.5 -117t66.5 -314h-285q18 77 -22.5 128t-130.5 51q-84 0 -149.5 -46t-80.5 -116q-24 -105 125 -150l150 -45q375 -110 311 -411z
" />
    <glyph glyph-name="scedilla" unicode="&#x15f;" horiz-adv-x="952" 
d="M934 281q-26 -119 -129.5 -194t-239.5 -97l35 -115q9 -36 0 -96q-20 -91 -93.5 -151t-160.5 -60q-96 0 -146.5 62t-25.5 177h141q-11 -48 2.5 -76t53.5 -28q31 0 56 21.5t32 56.5q5 27 0 43l-35 160q-144 13 -228.5 98.5t-56.5 224.5h252q-8 -46 21.5 -80t95.5 -34
q60 0 104.5 24t53.5 64q6 30 -14.5 47.5t-73.5 31.5l-121 31q-265 76 -213 303q24 114 148.5 199.5t285.5 85.5q69 0 129.5 -17.5t109 -53t69.5 -97.5t3 -143h-256q9 46 -19 72t-77 26q-47 0 -83.5 -22t-43.5 -58q-13 -57 76 -82l149 -41q62 -17 105 -45.5t63.5 -57.5
t29.5 -64t8 -61t-7 -54z" />
    <glyph glyph-name="Scaron" unicode="&#x160;" horiz-adv-x="1191" 
d="M795 1571l-152 340h199l121 -182l198 182h201l-297 -340h-270zM596 -18q-224 0 -340 122.5t-76 311.5h285q-15 -78 39 -132.5t151 -54.5q95 0 163 45.5t85 120.5q24 115 -143 170l-162 49q-84 24 -143.5 61t-89.5 77t-44 88t-13.5 88t9.5 82q39 185 205 302.5t373 117.5
q204 0 312.5 -117t66.5 -314h-285q18 77 -22.5 128t-130.5 51q-84 0 -149.5 -46t-80.5 -116q-24 -105 125 -150l150 -45q375 -110 311 -411q-28 -135 -121 -234.5t-216 -146.5t-259 -47z" />
    <glyph glyph-name="scaron" unicode="&#x161;" horiz-adv-x="952" 
d="M573 1114l-151 340h199l120 -182l199 182h201l-297 -340h-271zM469 -18q-76 0 -142.5 21.5t-114 61.5t-68.5 103t-5 139h252q-8 -46 21.5 -80t95.5 -34q60 0 104.5 24t53.5 64q6 30 -14.5 47.5t-73.5 31.5l-121 31q-265 76 -213 303q24 114 148.5 199.5t285.5 85.5
q69 0 129.5 -17.5t109 -53t69.5 -97.5t3 -143h-256q9 46 -19 72t-77 26q-47 0 -83.5 -22t-43.5 -58q-13 -57 76 -82l149 -41q62 -17 105 -45.5t63.5 -57.5t29.5 -64t8 -61t-7 -54q-16 -73 -63 -131.5t-112 -94t-139.5 -54.5t-150.5 -19z" />
    <glyph glyph-name="uni0162" unicode="&#x162;" horiz-adv-x="1144" 
d="M1350 1159h-389l-240 -1128l45 -156q11 -36 2 -96q-20 -91 -93.5 -151t-160.5 -60q-96 0 -147.5 62t-26.5 177h141q-11 -48 3 -76t55 -28q30 0 54.5 21.5t31.5 56.5q4 26 2 43l-39 176h-158l246 1159h-389l53 252h1063z" />
    <glyph glyph-name="uni0163" unicode="&#x163;" horiz-adv-x="737" 
d="M856 748h-203l-151 -717l47 -156q9 -36 0 -96q-20 -91 -93.5 -151t-160.5 -60q-96 0 -147.5 62t-26.5 177h143q-11 -48 2 -76t53 -28q31 0 56.5 21.5t32.5 56.5q5 27 0 43l-39 176h-142l158 748h-174l45 206h174l74 351h268l-74 -351h203z" />
    <glyph glyph-name="Tcaron" unicode="&#x164;" horiz-adv-x="1144" 
d="M1040 1571h-270l-152 340h199l121 -182l199 182h200zM1403 1411l-53 -252h-389l-246 -1159h-285l246 1159h-389l53 252h1063z" />
    <glyph glyph-name="tcaron" unicode="&#x165;" horiz-adv-x="737" 
d="M1077 1487h234q-88 -304 -310 -463l-122 68q86 92 129 176.5t69 218.5zM772 1305l-74 -351h203l-45 -206h-203l-157 -748h-269l158 748h-174l45 206h174l74 351h268z" />
    <glyph glyph-name="Tbar" unicode="&#x166;" horiz-adv-x="1173" 
d="M1364 1159h-389l-88 -409h223l-31 -150h-223l-127 -600h-285l127 600h-223l31 150h223l88 409h-389l53 252h1063z" />
    <glyph glyph-name="tbar" unicode="&#x167;" horiz-adv-x="739" 
d="M856 748h-203l-47 -224h121l-31 -145h-121l-79 -379h-269l80 379h-112l30 145h113l47 224h-174l45 206h174l74 351h268l-74 -351h203z" />
    <glyph glyph-name="Umacron" unicode="&#x16a;" horiz-adv-x="1392" 
d="M766 1649l35 172h561l-35 -172h-561zM692 -18q-108 0 -198 35.5t-150 103t-83 164.5t3 219l193 907h284l-190 -891q-27 -134 32 -201t167 -67q70 0 131.5 26.5t111 88.5t68.5 153l190 891h285l-193 -907q-34 -158 -135 -278.5t-235.5 -182t-280.5 -61.5z" />
    <glyph glyph-name="umacron" unicode="&#x16b;" horiz-adv-x="1191" 
d="M1163 1364l-37 -172h-561l37 172h561zM991 954h269l-203 -954h-269l33 156q-47 -86 -144.5 -132.5t-180.5 -46.5q-186 0 -258.5 118t-24.5 335l113 524h268l-107 -495q-22 -106 20 -161.5t118 -55.5q54 0 103 18.5t95.5 71t63.5 133.5z" />
    <glyph glyph-name="Uring" unicode="&#x16e;" horiz-adv-x="1392" 
d="M1022 1550q-102 0 -159.5 70.5t-35.5 171.5q23 103 110.5 174.5t188.5 71.5q103 0 160.5 -72t34.5 -174q-22 -101 -109 -171.5t-190 -70.5zM1049 1669q53 0 98 35.5t55 87.5q12 54 -17.5 90.5t-82.5 36.5q-52 0 -97 -37t-57 -90q-10 -52 19.5 -87.5t81.5 -35.5zM692 -18
q-108 0 -198 35.5t-150 103t-83 164.5t3 219l193 907h284l-190 -891q-27 -134 32 -201t167 -67q70 0 131.5 26.5t111 88.5t68.5 153l190 891h285l-193 -907q-34 -158 -135 -278.5t-235.5 -182t-280.5 -61.5z" />
    <glyph glyph-name="uring" unicode="&#x16f;" horiz-adv-x="1191" 
d="M823 1094q-102 0 -159 70t-35 171q22 102 109.5 174t189.5 72q103 0 159.5 -71.5t34.5 -174.5q-22 -101 -109 -171t-190 -70zM901 1462q-51 0 -95 -36.5t-56 -90.5q-10 -52 18.5 -87.5t79.5 -35.5q53 0 99.5 35.5t56.5 87.5q12 53 -19 90t-84 37zM991 954h269l-203 -954
h-269l33 156q-47 -86 -144.5 -132.5t-180.5 -46.5q-186 0 -258.5 118t-24.5 335l113 524h268l-107 -495q-22 -106 20 -161.5t118 -55.5q54 0 103 18.5t95.5 71t63.5 133.5z" />
    <glyph glyph-name="Uhungarumlaut" unicode="&#x170;" horiz-adv-x="1392" 
d="M811 1571l252 340h201l-275 -340h-178zM1100 1571l276 340h207l-299 -340h-184zM692 -18q-108 0 -198 35.5t-150 103t-83 164.5t3 219l193 907h284l-190 -891q-27 -134 32 -201t167 -67q70 0 131.5 26.5t111 88.5t68.5 153l190 891h285l-193 -907q-34 -158 -135 -278.5
t-235.5 -182t-280.5 -61.5z" />
    <glyph glyph-name="uhungarumlaut" unicode="&#x171;" horiz-adv-x="1191" 
d="M1063 1454l-275 -340h-178l252 340h201zM1083 1114h-184l277 340h206zM887 465l104 489h269l-203 -954h-269l33 156q-47 -86 -144.5 -132.5t-180.5 -46.5q-186 0 -258.5 118t-24.5 335l113 524h268l-107 -495q-22 -106 20 -161.5t118 -55.5q54 0 103 18.5t95.5 71
t63.5 133.5z" />
    <glyph glyph-name="Uogonek" unicode="&#x172;" horiz-adv-x="1392" 
d="M1251 1411h285l-193 -907q-46 -216 -209 -355t-370 -163l-107 -162q-12 -22 -16 -43q-7 -35 8.5 -56.5t46.5 -21.5q77 0 101 104h143q-25 -115 -102.5 -177t-173.5 -62q-88 0 -136 60t-28 151q8 52 41 96l77 111q-94 12 -169 52.5t-124.5 107t-66.5 157t6 201.5l193 907
h284l-190 -891q-27 -134 32 -201t167 -67q70 0 131.5 26.5t111 88.5t68.5 153z" />
    <glyph glyph-name="uogonek" unicode="&#x173;" horiz-adv-x="1191" 
d="M934 -193h141q-25 -115 -102.5 -177t-173.5 -62q-88 0 -136 60t-28 151q8 53 43 96l119 168l24 113q-47 -86 -144.5 -132.5t-180.5 -46.5q-186 0 -258.5 118t-24.5 335l113 524h268l-107 -495q-22 -106 20 -161.5t118 -55.5q54 0 103 18.5t95.5 71t63.5 133.5l104 489
h269l-203 -954h-148l-116 -176q-14 -24 -17 -43q-7 -34 9 -56t46 -22q79 0 103 104z" />
    <glyph glyph-name="Wcircumflex" unicode="&#x174;" horiz-adv-x="1851" 
d="M1296 1751l-196 -180h-199l295 340h270l154 -340h-201zM1825 1411h309l-778 -1411h-228l-43 766l-362 -766h-227l-179 1411h308l92 -919l350 720h231l43 -720z" />
    <glyph glyph-name="wcircumflex" unicode="&#x175;" horiz-adv-x="1556" 
d="M1051 1294l-199 -180h-199l295 340h271l153 -340h-201zM1454 954h291l-541 -954h-229l-66 621l-321 -621h-230l-145 954h291l55 -581l307 581h226l57 -581z" />
    <glyph glyph-name="Ycircumflex" unicode="&#x176;" horiz-adv-x="1372" 
d="M1055 1751l-197 -180h-199l295 340h271l153 -340h-200zM1337 1411h338l-712 -774l-136 -637h-284l135 641l-383 770h340l233 -537z" />
    <glyph glyph-name="ycircumflex" unicode="&#x177;" horiz-adv-x="1048" 
d="M803 1294l-199 -180h-198l294 340h271l153 -340h-200zM954 954h289l-893 -1423h-287l345 559l-193 864h295l106 -551z" />
    <glyph glyph-name="Ydieresis" unicode="&#x178;" horiz-adv-x="1372" 
d="M813 1602q-61 0 -95 40t-22 99q12 58 62.5 97.5t111.5 39.5q60 0 93.5 -39.5t21.5 -97.5q-12 -60 -61.5 -99.5t-110.5 -39.5zM1239 1602q-62 0 -96.5 39.5t-22.5 99.5q12 58 63 97.5t113 39.5q59 0 92 -39.5t21 -97.5q-12 -59 -61.5 -99t-108.5 -40zM1337 1411h338
l-712 -774l-136 -637h-284l135 641l-383 770h340l233 -537z" />
    <glyph glyph-name="Zacute" unicode="&#x179;" horiz-adv-x="1204" 
d="M1378 1911l-340 -340h-198l266 340h272zM1409 1411l-47 -219l-864 -940h665l-53 -252h-1028l45 219l858 940h-631l54 252h1001z" />
    <glyph glyph-name="zacute" unicode="&#x17a;" horiz-adv-x="1036" 
d="M1196 1454l-340 -340h-199l267 340h272zM1145 954l-45 -204l-584 -500h477l-51 -250h-860l43 203l573 502h-438l53 249h832z" />
    <glyph glyph-name="Zdotaccent" unicode="&#x17b;" horiz-adv-x="1204" 
d="M938 1587q-65 0 -100.5 42.5t-22.5 107.5q12 62 66.5 104.5t119.5 42.5q63 0 99 -42t24 -105q-13 -65 -67.5 -107.5t-118.5 -42.5zM1409 1411l-47 -219l-864 -940h665l-53 -252h-1028l45 219l858 940h-631l54 252h1001z" />
    <glyph glyph-name="zdotaccent" unicode="&#x17c;" horiz-adv-x="1036" 
d="M758 1130q-65 0 -101.5 42.5t-23.5 107.5q13 62 68 104.5t120 42.5q64 0 99 -42.5t22 -104.5q-13 -65 -66.5 -107.5t-117.5 -42.5zM1145 954l-45 -204l-584 -500h477l-51 -250h-860l43 203l573 502h-438l53 249h832z" />
    <glyph glyph-name="Zcaron" unicode="&#x17d;" horiz-adv-x="1204" 
d="M1069 1571h-270l-152 340h199l121 -182l198 182h201zM1409 1411l-47 -219l-864 -940h665l-53 -252h-1028l45 219l858 940h-631l54 252h1001z" />
    <glyph glyph-name="zcaron" unicode="&#x17e;" horiz-adv-x="1036" 
d="M887 1114h-271l-151 340h199l120 -182l199 182h201zM1145 954l-45 -204l-584 -500h477l-51 -250h-860l43 203l573 502h-438l53 249h832z" />
    <glyph glyph-name="longs" unicode="&#x17f;" horiz-adv-x="632" 
d="M958 1464h115l-51 -250h-61q-202 0 -248 -198l-215 -1016h-269l158 748h-180l45 206h180l12 60q44 216 177.5 333t336.5 117z" />
    <glyph glyph-name="florin" unicode="&#x192;" horiz-adv-x="1175" 
d="M1305 1341h129l-103 -249h-84q-105 0 -159.5 -49t-96.5 -150l-26 -66h192l-45 -213h-235l-150 -364q-76 -188 -211 -299t-311 -111l-176 2l102 238h107q75 0 132.5 51.5t94.5 140.5l139 342h-139l45 213h182l31 70q42 106 92 183.5t119 138t162 91.5t209 31z" />
    <glyph glyph-name="uni01CD" unicode="&#x1cd;" horiz-adv-x="1337" 
d="M1137 1571h-271l-151 340h198l121 -182l199 182h201zM1049 0l-43 338h-529l-184 -338h-303l825 1411h307l226 -1411h-299zM612 586h359l-68 530z" />
    <glyph glyph-name="uni01CE" unicode="&#x1ce;" horiz-adv-x="1257" 
d="M993 1114h-270l-152 340h199l121 -182l199 182h200zM1057 954h268l-203 -954h-268l25 119q-62 -66 -156 -101.5t-180 -35.5q-92 0 -170 34.5t-129.5 99t-71 156.5t5.5 207q48 222 216 360t360 138q90 0 167.5 -34.5t110.5 -102.5zM647 231q101 0 188.5 70.5t110.5 177.5
q24 106 -36 176t-158 70q-102 0 -190 -70.5t-111 -175.5q-22 -104 36 -176t160 -72z" />
    <glyph glyph-name="uni01CF" unicode="&#x1cf;" horiz-adv-x="628" 
d="M512 1571l-152 340h199l121 -182l199 182h200l-297 -340h-270zM172 0l299 1411h285l-299 -1411h-285z" />
    <glyph glyph-name="uni01D0" unicode="&#x1d0;" horiz-adv-x="538" 
d="M369 1114l-152 340h199l121 -182l198 182h201l-297 -340h-270zM135 0l203 954h268l-203 -954h-268z" />
    <glyph glyph-name="uni01D1" unicode="&#x1d1;" horiz-adv-x="1607" 
d="M1001 1571l-151 340h199l120 -182l199 182h201l-297 -340h-271zM799 -18q-197 0 -341.5 97t-204 263t-17.5 363q41 198 171.5 364.5t316 263.5t382.5 97q118 0 220 -37t175.5 -103t122 -157t59 -199t-11.5 -229q-32 -147 -117 -281t-201.5 -230.5t-261.5 -154t-292 -57.5
zM854 248q187 0 337.5 132t192.5 325q26 126 -6.5 230t-119 165t-209.5 61q-188 0 -338.5 -131.5t-190.5 -324.5q-27 -126 5 -230.5t118.5 -165.5t210.5 -61z" />
    <glyph glyph-name="uni01D2" unicode="&#x1d2;" horiz-adv-x="1179" 
d="M692 1114l-151 340h198l121 -182l199 182h201l-297 -340h-271zM586 -18q-102 0 -188 35.5t-143 100.5t-80 156.5t1 204.5q32 147 129 263t226 176.5t266 60.5q102 0 187.5 -35.5t142.5 -101t79.5 -157.5t-2.5 -206q-31 -146 -127 -261t-225 -175.5t-266 -60.5zM639 231
q101 0 185.5 69.5t107.5 178.5q24 110 -31.5 180t-157.5 70t-186 -69.5t-108 -180.5q-23 -108 32.5 -178t157.5 -70z" />
    <glyph glyph-name="uni01D3" unicode="&#x1d3;" horiz-adv-x="1392" 
d="M893 1571l-152 340h199l121 -182l199 182h200l-297 -340h-270zM692 -18q-108 0 -198 35.5t-150 103t-83 164.5t3 219l193 907h284l-190 -891q-27 -134 32 -201t167 -67q70 0 131.5 26.5t111 88.5t68.5 153l190 891h285l-193 -907q-34 -158 -135 -278.5t-235.5 -182
t-280.5 -61.5z" />
    <glyph glyph-name="uni01D4" unicode="&#x1d4;" horiz-adv-x="1191" 
d="M963 1114h-271l-151 340h198l121 -182l199 182h201zM991 954h269l-203 -954h-269l33 156q-47 -86 -144.5 -132.5t-180.5 -46.5q-186 0 -258.5 118t-24.5 335l113 524h268l-107 -495q-22 -106 20 -161.5t118 -55.5q54 0 103 18.5t95.5 71t63.5 133.5z" />
    <glyph glyph-name="uni01D5" unicode="&#x1d5;" horiz-adv-x="1392" 
d="M844 2019l37 172h561l-37 -172h-561zM823 1602q-60 0 -94 39.5t-22 99.5q12 58 62.5 97.5t111.5 39.5q60 0 93 -39.5t21 -97.5q-12 -60 -61.5 -99.5t-110.5 -39.5zM1249 1602q-62 0 -96.5 39.5t-22.5 99.5q12 58 63.5 97.5t113.5 39.5q59 0 91.5 -39.5t20.5 -97.5
q-12 -59 -61.5 -99t-108.5 -40zM692 -18q-108 0 -198 35.5t-150 103t-83 164.5t3 219l193 907h284l-190 -891q-27 -134 32 -201t167 -67q70 0 131.5 26.5t111 88.5t68.5 153l190 891h285l-193 -907q-34 -158 -135 -278.5t-235.5 -182t-280.5 -61.5z" />
    <glyph glyph-name="uni01D6" unicode="&#x1d6;" horiz-adv-x="1191" 
d="M1247 1761l-37 -172h-561l37 172h561zM623 1145q-61 0 -94.5 40t-20.5 99q12 58 62.5 97.5t111.5 39.5q60 0 93.5 -39.5t21.5 -97.5q-13 -60 -63.5 -99.5t-110.5 -39.5zM932 1284q12 58 63 97.5t113 39.5q59 0 92 -39.5t21 -97.5q-13 -59 -63 -99t-109 -40q-62 0 -96 40
t-21 99zM991 954h269l-203 -954h-269l33 156q-47 -86 -144.5 -132.5t-180.5 -46.5q-186 0 -258.5 118t-24.5 335l113 524h268l-107 -495q-22 -106 20 -161.5t118 -55.5q54 0 103 18.5t95.5 71t63.5 133.5z" />
    <glyph glyph-name="uni01D7" unicode="&#x1d7;" horiz-adv-x="1392" 
d="M1016 1956l268 340h272l-342 -340h-198zM823 1602q-60 0 -94 39.5t-22 99.5q12 58 62.5 97.5t111.5 39.5q60 0 93 -39.5t21 -97.5q-12 -60 -61.5 -99.5t-110.5 -39.5zM1249 1602q-62 0 -96.5 39.5t-22.5 99.5q12 58 63.5 97.5t113.5 39.5q59 0 91.5 -39.5t20.5 -97.5
q-12 -59 -61.5 -99t-108.5 -40zM692 -18q-108 0 -198 35.5t-150 103t-83 164.5t3 219l193 907h284l-190 -891q-27 -134 32 -201t167 -67q70 0 131.5 26.5t111 88.5t68.5 153l190 891h285l-193 -907q-34 -158 -135 -278.5t-235.5 -182t-280.5 -61.5z" />
    <glyph glyph-name="uni01D8" unicode="&#x1d8;" horiz-adv-x="1191" 
d="M1362 1868l-340 -340h-199l267 340h272zM623 1145q-61 0 -94.5 40t-20.5 99q12 58 62.5 97.5t111.5 39.5q60 0 93.5 -39.5t21.5 -97.5q-13 -60 -63.5 -99.5t-110.5 -39.5zM932 1284q12 58 63 97.5t113 39.5q59 0 92 -39.5t21 -97.5q-13 -59 -63 -99t-109 -40
q-62 0 -96 40t-21 99zM991 954h269l-203 -954h-269l33 156q-47 -86 -144.5 -132.5t-180.5 -46.5q-186 0 -258.5 118t-24.5 335l113 524h268l-107 -495q-22 -106 20 -161.5t118 -55.5q54 0 103 18.5t95.5 71t63.5 133.5z" />
    <glyph glyph-name="uni01D9" unicode="&#x1d9;" horiz-adv-x="1392" 
d="M973 1956l-150 340h199l121 -182l198 182h201l-299 -340h-270zM823 1602q-60 0 -94 39.5t-22 99.5q12 58 62.5 97.5t111.5 39.5q60 0 93 -39.5t21 -97.5q-12 -60 -61.5 -99.5t-110.5 -39.5zM1249 1602q-62 0 -96.5 39.5t-22.5 99.5q12 58 63.5 97.5t113.5 39.5
q59 0 91.5 -39.5t20.5 -97.5q-12 -59 -61.5 -99t-108.5 -40zM692 -18q-108 0 -198 35.5t-150 103t-83 164.5t3 219l193 907h284l-190 -891q-27 -134 32 -201t167 -67q70 0 131.5 26.5t111 88.5t68.5 153l190 891h285l-193 -907q-34 -158 -135 -278.5t-235.5 -182
t-280.5 -61.5z" />
    <glyph glyph-name="uni01DA" unicode="&#x1da;" horiz-adv-x="1191" 
d="M1051 1528h-271l-151 340h198l121 -182l199 182h201zM508 1284q12 58 62.5 97.5t111.5 39.5q60 0 93.5 -39.5t21.5 -97.5q-13 -60 -63.5 -99.5t-110.5 -39.5q-61 0 -94.5 40t-20.5 99zM932 1284q12 58 63 97.5t113 39.5q59 0 92 -39.5t21 -97.5q-13 -59 -63 -99t-109 -40
q-62 0 -96 40t-21 99zM991 954h269l-203 -954h-269l33 156q-47 -86 -144.5 -132.5t-180.5 -46.5q-186 0 -258.5 118t-24.5 335l113 524h268l-107 -495q-22 -106 20 -161.5t118 -55.5q54 0 103 18.5t95.5 71t63.5 133.5z" />
    <glyph glyph-name="uni01DB" unicode="&#x1db;" horiz-adv-x="1392" 
d="M1016 1954l-195 340h273l120 -340h-198zM823 1602q-60 0 -94 39.5t-22 99.5q12 58 62.5 97.5t111.5 39.5q60 0 93 -39.5t21 -97.5q-12 -60 -61.5 -99.5t-110.5 -39.5zM1249 1602q-62 0 -96.5 39.5t-22.5 99.5q12 58 63.5 97.5t113.5 39.5q59 0 91.5 -39.5t20.5 -97.5
q-12 -59 -61.5 -99t-108.5 -40zM692 -18q-108 0 -198 35.5t-150 103t-83 164.5t3 219l193 907h284l-190 -891q-27 -134 32 -201t167 -67q70 0 131.5 26.5t111 88.5t68.5 153l190 891h285l-193 -907q-34 -158 -135 -278.5t-235.5 -182t-280.5 -61.5z" />
    <glyph glyph-name="uni01DC" unicode="&#x1dc;" horiz-adv-x="1191" 
d="M1022 1528h-199l-196 340h272zM682 1421q60 0 93.5 -39.5t21.5 -97.5q-13 -60 -63.5 -99.5t-110.5 -39.5q-61 0 -94.5 40t-20.5 99q12 58 62.5 97.5t111.5 39.5zM932 1284q12 58 63 97.5t113 39.5q59 0 92 -39.5t21 -97.5q-13 -59 -63 -99t-109 -40q-62 0 -96 40t-21 99z
M991 954h269l-203 -954h-269l33 156q-47 -86 -144.5 -132.5t-180.5 -46.5q-186 0 -258.5 118t-24.5 335l113 524h268l-107 -495q-22 -106 20 -161.5t118 -55.5q54 0 103 18.5t95.5 71t63.5 133.5z" />
    <glyph glyph-name="uni01E3" unicode="&#x1e3;" horiz-adv-x="1796" 
d="M1464 1364l-37 -172h-561l37 172h561zM1829 494q-10 -44 -29 -103h-715q5 -78 61 -125t146 -47q73 0 145.5 28t127.5 79l125 -158q-87 -89 -211.5 -137.5t-253.5 -48.5q-118 0 -208 40.5t-134 114.5q-100 -80 -215.5 -117.5t-221.5 -37.5q-169 0 -260.5 80.5t-62.5 216.5
q30 137 155 215.5t287 78.5q161 0 260 -63l13 49q17 83 -29 131.5t-133 48.5q-149 0 -264 -98l-119 147q189 191 465 191q220 0 313 -121q161 121 365 121q101 0 184.5 -34.5t137 -98t74 -153t-2.5 -199.5zM1122 565h453q10 83 -41 131.5t-143 48.5q-90 0 -159.5 -46.5
t-109.5 -133.5zM508 190q66 0 159 37t144 92l-6 23q-38 28 -101 43.5t-124 15.5q-89 0 -133 -34t-52 -76q-9 -44 20.5 -72.5t92.5 -28.5z" />
    <glyph glyph-name="Aringacute" unicode="&#x1fa;" horiz-adv-x="1337" 
d="M995 1548q-102 0 -159 70.5t-35 171.5q17 77 71 138t127 89l144 185h272l-207 -193q54 -31 77.5 -89.5t8.5 -129.5q-22 -101 -109 -171.5t-190 -70.5zM1022 1669q53 0 98.5 34.5t55.5 86.5q12 54 -18 91.5t-83 37.5q-51 0 -96 -37.5t-57 -91.5q-10 -52 19 -86.5t81 -34.5
zM1049 0l-43 338h-529l-184 -338h-303l825 1411h307l226 -1411h-299zM612 586h359l-68 530z" />
    <glyph glyph-name="aringacute" unicode="&#x1fb;" horiz-adv-x="1257" 
d="M852 1094q-100 0 -157.5 70t-35.5 171q18 88 88 155t156 85l135 172h273l-226 -207q45 -33 63 -87t5 -118q-22 -101 -109.5 -171t-191.5 -70zM930 1462q-50 0 -94 -37t-56 -90q-10 -52 18.5 -87.5t78.5 -35.5q55 0 101 35.5t56 87.5q12 54 -18.5 90.5t-85.5 36.5z
M1057 954h268l-203 -954h-268l25 119q-62 -66 -156 -101.5t-180 -35.5q-92 0 -170 34.5t-129.5 99t-71 156.5t5.5 207q48 222 216 360t360 138q90 0 167.5 -34.5t110.5 -102.5zM647 231q101 0 188.5 70.5t110.5 177.5q24 106 -36 176t-158 70q-102 0 -190 -70.5t-111 -175.5
q-22 -104 36 -176t160 -72z" />
    <glyph glyph-name="AEacute" unicode="&#x1fc;" horiz-adv-x="1900" 
d="M1722 1911l-340 -340h-198l266 340h272zM1235 252h618l-53 -252h-901l70 328h-441l-237 -328h-338l1059 1411h1069l-53 -252h-601l-71 -340h526l-53 -246h-526zM711 580h309l123 577h-15z" />
    <glyph glyph-name="aeacute" unicode="&#x1fd;" horiz-adv-x="1796" 
d="M1573 1454l-340 -340h-199l266 340h273zM1829 494q-10 -44 -29 -103h-715q5 -78 61 -125t146 -47q73 0 145.5 28t127.5 79l125 -158q-87 -89 -211.5 -137.5t-253.5 -48.5q-118 0 -208 40.5t-134 114.5q-100 -80 -215.5 -117.5t-221.5 -37.5q-169 0 -260.5 80.5
t-62.5 216.5q30 137 155 215.5t287 78.5q161 0 260 -63l13 49q17 83 -29 131.5t-133 48.5q-149 0 -264 -98l-119 147q189 191 465 191q220 0 313 -121q161 121 365 121q101 0 184.5 -34.5t137 -98t74 -153t-2.5 -199.5zM1122 565h453q10 83 -41 131.5t-143 48.5
q-90 0 -159.5 -46.5t-109.5 -133.5zM508 190q66 0 159 37t144 92l-6 23q-38 28 -101 43.5t-124 15.5q-89 0 -133 -34t-52 -76q-9 -44 20.5 -72.5t92.5 -28.5z" />
    <glyph glyph-name="Oslashacute" unicode="&#x1fe;" horiz-adv-x="1613" 
d="M1583 1911l-340 -340h-199l267 340h272zM1604 1174q61 -96 79.5 -215t-8.5 -254q-32 -147 -117 -281t-201.5 -230.5t-261.5 -154t-292 -57.5q-258 0 -420 159l-197 -166l-75 97l196 166q-126 197 -67 467q41 198 171 364.5t315.5 263.5t383.5 97q259 0 418 -162l201 168
l75 -95zM524 705q-33 -144 21 -269l751 635q-93 90 -245 90q-187 0 -337 -131.5t-190 -324.5zM856 248q188 0 339.5 132t193.5 325q30 152 -23 268l-754 -637q98 -88 244 -88z" />
    <glyph glyph-name="oslashacute" unicode="&#x1ff;" horiz-adv-x="1183" 
d="M1272 1454l-340 -340h-199l266 340h273zM1163 797q82 -133 43 -318q-31 -146 -127 -261t-225 -175.5t-266 -60.5q-170 0 -285 92l-137 -117l-70 88l133 111q-91 134 -51 323q32 147 129 263t226 176.5t266 60.5q173 0 291 -98l124 104l70 -86zM451 479q-15 -75 6 -131
l411 346q-50 35 -123 35q-102 0 -186 -69.5t-108 -180.5zM641 231q101 0 185.5 69.5t107.5 178.5q14 66 -2 123l-404 -340q48 -31 113 -31z" />
    <glyph glyph-name="Scommaaccent" unicode="&#x218;" horiz-adv-x="1191" 
d="M596 -18q-224 0 -340 122.5t-76 311.5h285q-15 -78 39 -132.5t151 -54.5q95 0 163 45.5t85 120.5q24 115 -143 170l-162 49q-84 24 -143.5 61t-89.5 77t-44 88t-13.5 88t9.5 82q39 185 205 302.5t373 117.5q204 0 312.5 -117t66.5 -314h-285q18 77 -22.5 128t-130.5 51
q-84 0 -149.5 -46t-80.5 -116q-24 -105 125 -150l150 -45q375 -110 311 -411q-28 -135 -121 -234.5t-216 -146.5t-259 -47zM412 -485l-123 67q133 124 164 336h254q-26 -123 -108.5 -229t-186.5 -174z" />
    <glyph glyph-name="scommaaccent" unicode="&#x219;" horiz-adv-x="952" 
d="M469 -18q-76 0 -142.5 21.5t-114 61.5t-68.5 103t-5 139h252q-8 -46 21.5 -80t95.5 -34q60 0 104.5 24t53.5 64q6 30 -14.5 47.5t-73.5 31.5l-121 31q-265 76 -213 303q24 114 148.5 199.5t285.5 85.5q69 0 129.5 -17.5t109 -53t69.5 -97.5t3 -143h-256q9 46 -19 72
t-77 26q-47 0 -83.5 -22t-43.5 -58q-13 -57 76 -82l149 -41q62 -17 105 -45.5t63.5 -57.5t29.5 -64t8 -61t-7 -54q-16 -73 -63 -131.5t-112 -94t-139.5 -54.5t-150.5 -19zM289 -485l-123 67q133 124 164 336h254q-26 -123 -108.5 -229t-186.5 -174z" />
    <glyph glyph-name="uni021A" unicode="&#x21a;" horiz-adv-x="1144" 
d="M1403 1411l-53 -252h-389l-246 -1159h-285l246 1159h-389l53 252h1063zM264 -418q133 124 164 336h254q-26 -123 -108.5 -229t-186.5 -174z" />
    <glyph glyph-name="uni021B" unicode="&#x21b;" horiz-adv-x="737" 
d="M698 954h203l-45 -206h-203l-157 -748h-269l158 748h-174l45 206h174l74 351h268zM66 -418q132 123 163 336h254q-26 -123 -108.5 -229t-186.5 -174z" />
    <glyph glyph-name="circumflex" unicode="&#x2c6;" horiz-adv-x="1148" 
d="M455 1128l295 340h270l154 -340h-201l-123 181l-197 -181h-198z" />
    <glyph glyph-name="caron" unicode="&#x2c7;" horiz-adv-x="1148" 
d="M678 1128l-152 340h199l121 -182l198 182h201l-297 -340h-270z" />
    <glyph glyph-name="breve" unicode="&#x2d8;" horiz-adv-x="1034" 
d="M762 1157q-90 0 -145.5 39.5t-71 99t-0.5 129.5h170q-22 -110 80 -110q51 0 82 31.5t41 78.5h174q-25 -121 -116.5 -194.5t-213.5 -73.5z" />
    <glyph glyph-name="dotaccent" unicode="&#x2d9;" horiz-adv-x="829" 
d="M659 1151q-65 0 -101 42t-23 107q13 63 68 105.5t120 42.5q63 0 98.5 -42.5t22.5 -105.5q-13 -65 -67 -107t-118 -42z" />
    <glyph glyph-name="ring" unicode="&#x2da;" horiz-adv-x="1142" 
d="M801 1094q-102 0 -159.5 70t-35.5 171q22 102 109.5 174t189.5 72q103 0 160 -71.5t35 -174.5q-22 -101 -109 -171t-190 -70zM825 1212q53 0 99.5 35.5t56.5 87.5q12 53 -18.5 90t-83.5 37q-51 0 -95.5 -36.5t-56.5 -90.5q-10 -52 18.5 -87.5t79.5 -35.5z" />
    <glyph glyph-name="ogonek" unicode="&#x2db;" horiz-adv-x="1083" 
d="M442 -432q-87 0 -135 60t-28 151q8 54 40 96l127 180h142l-152 -231q-12 -22 -16 -43q-7 -35 8.5 -56.5t46.5 -21.5q76 0 100 104h144q-25 -115 -103 -177t-174 -62z" />
    <glyph glyph-name="tilde" unicode="&#x2dc;" horiz-adv-x="901" 
d="M410 1163q24 92 69.5 152t91 82t91.5 22q30 0 55.5 -13t40.5 -29t32.5 -29t32.5 -13q17 0 40 20.5t34 63.5h141q-17 -69 -47.5 -120t-66.5 -78t-69.5 -39.5t-66.5 -12.5q-28 0 -53.5 13t-40.5 29t-33 29t-34 13q-17 0 -40 -22.5t-34 -67.5h-143z" />
    <glyph glyph-name="hungarumlaut" unicode="&#x2dd;" horiz-adv-x="1095" 
d="M403 1128l252 340h201l-274 -340h-179zM692 1128l277 340h207l-299 -340h-185z" />
    <glyph glyph-name="gravecomb" unicode="&#x300;" horiz-adv-x="0" 
d="M-324 1114l-196 340h272l123 -340h-199z" />
    <glyph glyph-name="acutecomb" unicode="&#x301;" horiz-adv-x="0" 
d="M-592 1114l266 340h273l-340 -340h-199z" />
    <glyph glyph-name="uni0302" unicode="&#x302;" horiz-adv-x="0" 
d="M-696 1114l295 340h270l151 -340h-198l-121 180l-199 -180h-198z" />
    <glyph glyph-name="tildecomb" unicode="&#x303;" horiz-adv-x="0" 
d="M-492 1149q24 92 69 152t90 82t91 22q30 0 56 -13t41.5 -29t33.5 -29t33 -13q17 0 40 20.5t32 63.5h139q-17 -69 -47.5 -120t-65.5 -78t-68.5 -39.5t-66.5 -12.5q-28 0 -53.5 13t-40.5 29t-33 29t-34 13t-38.5 -22.5t-33.5 -67.5h-144z" />
    <glyph glyph-name="uni0304" unicode="&#x304;" horiz-adv-x="0" 
d="M-553 1192l37 172h559l-37 -172h-559z" />
    <glyph glyph-name="uni0306" unicode="&#x306;" horiz-adv-x="0" 
d="M-274 1145q-90 0 -145 39t-70 97.5t0 129.5h170q-22 -108 79 -108q51 0 82 30.5t41 77.5h172q-26 -121 -116.5 -193.5t-212.5 -72.5z" />
    <glyph glyph-name="uni0307" unicode="&#x307;" horiz-adv-x="0" 
d="M-172 1130q-65 0 -101.5 42.5t-23.5 107.5q13 62 68 104.5t120 42.5q63 0 97.5 -42t21.5 -105q-12 -65 -65 -107.5t-117 -42.5z" />
    <glyph glyph-name="uni0308" unicode="&#x308;" horiz-adv-x="0" 
d="M-569 1145q-61 0 -94.5 40t-20.5 99q12 58 62.5 97.5t111.5 39.5q60 0 93.5 -39.5t21.5 -97.5q-13 -60 -63.5 -99.5t-110.5 -39.5zM-143 1145q-62 0 -96 40t-21 99q12 58 63 97.5t113 39.5q59 0 91 -39.5t20 -97.5q-13 -60 -62 -99.5t-108 -39.5z" />
    <glyph glyph-name="uni030A" unicode="&#x30a;" horiz-adv-x="0" 
d="M-340 1094q-102 0 -159.5 70t-35.5 171q22 102 109.5 174t189.5 72q103 0 160 -71.5t35 -174.5q-22 -101 -109 -171t-190 -70zM-315 1212q53 0 99 35.5t56 87.5q12 53 -18.5 90t-83.5 37q-51 0 -95.5 -36.5t-56.5 -90.5q-10 -52 19 -87.5t80 -35.5z" />
    <glyph glyph-name="uni030B" unicode="&#x30b;" horiz-adv-x="0" 
d="M-694 1114l252 340h200l-274 -340h-178zM-406 1114l277 340h205l-297 -340h-185z" />
    <glyph glyph-name="uni030C" unicode="&#x30c;" horiz-adv-x="0" 
d="M-473 1114l-152 340h199l121 -182l199 182h198l-295 -340h-270z" />
    <glyph glyph-name="uni0326" unicode="&#x326;" horiz-adv-x="0" 
d="M-434 -485l-123 67q133 124 164 336h254q-26 -123 -108.5 -229t-186.5 -174z" />
    <glyph glyph-name="uni0327" unicode="&#x327;" horiz-adv-x="0" 
d="M-627 -432q-96 0 -146.5 62t-25.5 177h142q-11 -48 2 -76t53 -28q31 0 56 21.5t32 56.5q5 27 0 43l-51 231h139l53 -180q9 -36 0 -96q-20 -91 -93.5 -151t-160.5 -60z" />
    <glyph glyph-name="uni0328" unicode="&#x328;" horiz-adv-x="0" 
d="M-639 -432q-88 0 -136 60t-28 151q8 52 41 96l127 180h141l-151 -231q-14 -24 -17 -43q-7 -35 9 -56.5t47 -21.5q76 0 100 104h144q-25 -115 -103 -177t-174 -62z" />
    <glyph glyph-name="uni0394" unicode="&#x394;" horiz-adv-x="1366" 
d="M1137 1411l225 -1411h-1360l825 1411h310zM442 248h586l-110 868z" />
    <glyph glyph-name="uni03A9" unicode="&#x3a9;" horiz-adv-x="1705" 
d="M1395 256h241l-53 -256h-627l48 227q145 43 270 179.5t162 308.5q40 192 -54.5 319t-283.5 127q-188 0 -337.5 -127.5t-189.5 -318.5q-37 -171 31 -308t195 -180l-47 -227h-629l53 256h244q-85 62 -122.5 194.5t-4.5 282.5q31 147 114.5 277t198.5 222t259 145t292 53
q199 0 344.5 -90.5t206.5 -250.5t20 -356q-33 -150 -127 -282.5t-204 -194.5z" />
    <glyph glyph-name="pi" unicode="&#x3c0;" horiz-adv-x="1253" 
d="M1317 705h-154l-73 -343q-19 -84 3.5 -118.5t92.5 -34.5l-47 -227h-35q-29 0 -58.5 3.5t-64.5 12.5t-63.5 24t-56 38.5t-41.5 56t-20.5 76.5t7.5 100l88 412h-246l-149 -705h-271l150 705h-162l53 249h1100z" />
    <glyph glyph-name="uni0401" unicode="&#x401;" horiz-adv-x="1175" 
d="M717 1602q-61 0 -95 40t-22 99q12 58 62.5 97.5t111.5 39.5q60 0 93.5 -39.5t21.5 -97.5q-12 -60 -61.5 -99.5t-110.5 -39.5zM1143 1602q-62 0 -96.5 39.5t-22.5 99.5q12 58 63 97.5t113 39.5q59 0 92 -39.5t21 -97.5q-12 -59 -61.5 -99t-108.5 -40zM510 252h618
l-53 -252h-903l299 1411h885l-53 -252h-601l-71 -336h526l-55 -256h-527z" />
    <glyph glyph-name="uni0410" unicode="&#x410;" horiz-adv-x="1337" 
d="M1049 0l-43 338h-529l-184 -338h-303l825 1411h307l226 -1411h-299zM612 586h359l-68 530z" />
    <glyph glyph-name="uni0411" unicode="&#x411;" horiz-adv-x="1267" 
d="M909 905q98 0 173.5 -23.5t121 -65t73 -97.5t29 -121t-11.5 -137q-19 -90 -63.5 -170t-112 -146.5t-167 -105.5t-216.5 -39h-563l299 1411h862l-53 -252h-578l-55 -254h262zM760 252q96 0 162 58.5t86 146.5q20 91 -24.5 150t-158.5 59h-227l-88 -414h250z" />
    <glyph glyph-name="uni0412" unicode="&#x412;" horiz-adv-x="1306" 
d="M1110 754q84 -15 135.5 -69.5t62 -126.5t-4.5 -155q-16 -76 -57 -146t-105.5 -128.5t-159.5 -93.5t-207 -35h-602l299 1411h559q187 0 278.5 -101.5t57.5 -262.5q-10 -43 -27.5 -84t-47 -83t-76.5 -75.5t-105 -50.5zM961 1159h-259l-65 -309h258q67 0 115 42t63 114
q14 68 -13 110.5t-99 42.5zM786 252q95 0 158.5 52.5t77.5 127.5q15 73 -23 126.5t-133 53.5h-280l-76 -360h276z" />
    <glyph glyph-name="uni0413" unicode="&#x413;" horiz-adv-x="989" 
d="M471 1411h776l-53 -252h-492l-245 -1159h-285z" />
    <glyph glyph-name="uni0414" unicode="&#x414;" horiz-adv-x="1464" 
d="M1292 178h123l-100 -471h-285l64 293h-772l-64 -293h-283l107 514h20q118 0 208 114t141 353l153 723h950zM723 629q-59 -270 -201 -377h504l193 907h-383z" />
    <glyph glyph-name="uni0415" unicode="&#x415;" horiz-adv-x="1175" 
d="M510 252h618l-53 -252h-903l299 1411h885l-53 -252h-601l-71 -336h526l-55 -256h-527z" />
    <glyph glyph-name="uni0416" unicode="&#x416;" horiz-adv-x="1873" 
d="M1907 0h-387l-334 502l-107 -502h-284l106 504l-549 -504h-387l809 709l-387 702h354l248 -491l105 491h284l-104 -493l457 493h352l-684 -702z" />
    <glyph glyph-name="uni0417" unicode="&#x417;" horiz-adv-x="1181" 
d="M997 762q113 -41 160 -134t21 -218q-40 -191 -214.5 -309.5t-422.5 -118.5q-164 0 -279 62.5t-174 182.5l254 160q86 -143 246 -143q121 0 204.5 50.5t102.5 135.5q19 89 -43 141t-182 52h-166l51 235h102q125 0 200.5 42t90.5 118q13 64 -35 105.5t-133 41.5
q-72 0 -150 -31.5t-132 -82.5l-138 180q230 199 508 199q206 0 308.5 -106t64.5 -286q-19 -90 -82 -162.5t-162 -113.5z" />
    <glyph glyph-name="uni0418" unicode="&#x418;" horiz-adv-x="1396" 
d="M1260 1411h264l-299 -1411h-285l186 885l-698 -885h-256l299 1411h285l-187 -874z" />
    <glyph glyph-name="uni0419" unicode="&#x419;" horiz-adv-x="1396" 
d="M1040 1602q-122 0 -183 72.5t-36 193.5h174q-10 -47 8.5 -78t69.5 -31q103 0 125 109h170q-24 -111 -109.5 -188.5t-218.5 -77.5zM1260 1411h264l-299 -1411h-285l186 885l-698 -885h-256l299 1411h285l-187 -874z" />
    <glyph glyph-name="uni041A" unicode="&#x41a;" 
d="M1284 0h-387l-336 496l-104 -496h-285l299 1411h285l-103 -481l453 481h354l-684 -702z" />
    <glyph glyph-name="uni041B" unicode="&#x41b;" horiz-adv-x="1429" 
d="M606 1411h950l-299 -1411h-282l246 1159h-383l-125 -584q-59 -277 -210.5 -426t-357.5 -149h-106l53 252h35q55 0 98.5 15t83.5 51.5t70.5 103t50.5 162.5z" />
    <glyph glyph-name="uni041C" unicode="&#x41c;" horiz-adv-x="1894" 
d="M1798 0h-291l82 874l-495 -714h-224l-196 714l-287 -874h-291l473 1411h242l240 -926l628 926h246z" />
    <glyph glyph-name="uni041D" unicode="&#x41d;" horiz-adv-x="1439" 
d="M1282 1411h285l-299 -1411h-285l121 573h-526l-121 -573h-285l299 1411h285l-123 -582h526z" />
    <glyph glyph-name="uni041E" unicode="&#x41e;" horiz-adv-x="1607" 
d="M799 -18q-197 0 -341.5 97t-204 263t-17.5 363q41 198 171.5 364.5t316 263.5t382.5 97q118 0 220 -37t175.5 -103t122 -157t59 -199t-11.5 -229q-32 -147 -117 -281t-201.5 -230.5t-261.5 -154t-292 -57.5zM854 248q187 0 337.5 132t192.5 325q26 126 -6.5 230t-119 165
t-209.5 61q-188 0 -338.5 -131.5t-190.5 -324.5q-27 -126 5 -230.5t118.5 -165.5t210.5 -61z" />
    <glyph glyph-name="uni041F" unicode="&#x41f;" horiz-adv-x="1409" 
d="M471 1411h1065l-299 -1411h-285l246 1157h-496l-245 -1157h-285z" />
    <glyph glyph-name="uni0420" unicode="&#x420;" horiz-adv-x="1265" 
d="M1047 1411q78 0 141 -18t105.5 -50t72.5 -76t41.5 -95t13.5 -107.5t-12 -114.5q-19 -89 -63.5 -169t-112.5 -145t-167 -103.5t-214 -38.5h-291l-104 -494h-285l299 1411h576zM891 743q95 0 154.5 61t76.5 146q11 38 7 75.5t-18 67t-47 48t-81 18.5h-281l-88 -416h277z
" />
    <glyph glyph-name="uni0421" unicode="&#x421;" horiz-adv-x="1433" 
d="M799 -18q-98 0 -186 26t-156.5 73t-121 113t-80.5 146.5t-35 173.5t16 193q31 146 115.5 279.5t201 230t261.5 153.5t292 57q177 0 311 -78t201 -214l-250 -158q-89 182 -309 182q-191 0 -345 -130.5t-194 -321.5q-26 -125 7.5 -229.5t121.5 -166t213 -61.5
q225 0 391 184l183 -160q-126 -135 -293.5 -213.5t-343.5 -78.5z" />
    <glyph glyph-name="uni0422" unicode="&#x422;" horiz-adv-x="1144" 
d="M1403 1411l-53 -252h-389l-246 -1159h-285l246 1159h-389l53 252h1063z" />
    <glyph glyph-name="uni0423" unicode="&#x423;" horiz-adv-x="1312" 
d="M1315 1411h317l-1030 -1411h-313l329 446l-333 965h315l227 -696z" />
    <glyph glyph-name="uni0424" unicode="&#x424;" horiz-adv-x="1781" 
d="M1847 702q-52 -245 -248.5 -396.5t-545.5 -178.5l-27 -127h-270l26 127q-172 13 -294 61t-184.5 123t-83.5 175t7 216q53 246 252.5 399.5t546.5 178.5l29 131h270l-29 -131q138 -11 243.5 -44.5t172.5 -85t105.5 -120.5t43 -151t-13.5 -177zM514 702q-26 -124 53 -204
t273 -101l129 613q-202 -21 -314.5 -102t-140.5 -206zM1561 702q29 124 -49.5 205.5t-272.5 102.5l-129 -613q201 21 313 101.5t138 203.5z" />
    <glyph glyph-name="uni0425" unicode="&#x425;" horiz-adv-x="1331" 
d="M1325 0h-338l-211 526l-434 -526h-334l647 754l-305 657h344l178 -432l365 432h340l-584 -657z" />
    <glyph glyph-name="uni0426" unicode="&#x426;" horiz-adv-x="1456" 
d="M1284 178h123l-100 -471h-285l63 293h-913l299 1411h285l-246 -1157h506l246 1157h284z" />
    <glyph glyph-name="uni0427" unicode="&#x427;" horiz-adv-x="1327" 
d="M1169 1411h285l-299 -1411h-285l103 485q-159 -24 -318 -24q-236 0 -323 132t-27 413l86 405h285l-84 -397q-35 -164 12 -228.5t178 -64.5q114 0 246 22z" />
    <glyph glyph-name="uni0428" unicode="&#x428;" horiz-adv-x="2004" 
d="M1847 1411h285l-299 -1411h-1661l299 1411h285l-246 -1157h403l246 1157h285l-246 -1157h404z" />
    <glyph glyph-name="uni0429" unicode="&#x429;" horiz-adv-x="2039" 
d="M1870 178h123l-101 -471h-286l63 293h-1497l299 1411h285l-246 -1157h403l246 1157h285l-246 -1157h404l245 1157h285z" />
    <glyph glyph-name="uni042A" unicode="&#x42a;" horiz-adv-x="1384" 
d="M1038 905q98 0 173.5 -23.5t121 -65t73 -97.5t29 -121t-11.5 -137q-19 -90 -63.5 -170t-112 -146.5t-166.5 -105.5t-215 -39h-565l246 1159h-264l53 252h549l-109 -506h262zM889 252q97 0 163.5 58.5t86.5 146.5q20 91 -25 150t-158 59h-229l-88 -414h250z" />
    <glyph glyph-name="uni042B" unicode="&#x42b;" horiz-adv-x="1857" 
d="M909 905q98 0 173.5 -23.5t121 -65t73 -97.5t29 -121t-11.5 -137q-19 -90 -63.5 -170t-112 -146.5t-167 -105.5t-216.5 -39h-563l299 1411h285l-109 -506h262zM1700 1411h285l-299 -1411h-285zM760 252q96 0 162 58.5t86 146.5q20 91 -24.5 150t-158.5 59h-227l-88 -414
h250z" />
    <glyph glyph-name="uni042C" unicode="&#x42c;" horiz-adv-x="1255" 
d="M909 905q98 0 173.5 -23.5t121 -65t73 -97.5t29 -121t-11.5 -137q-19 -90 -63.5 -170t-112 -146.5t-167 -105.5t-216.5 -39h-563l299 1411h285l-109 -506h262zM760 252q96 0 162 58.5t86 146.5q20 91 -24.5 150t-158.5 59h-227l-88 -414h250z" />
    <glyph glyph-name="uni042D" unicode="&#x42d;" horiz-adv-x="1445" 
d="M946 1427q98 0 185.5 -26t155.5 -72.5t121 -112.5t81 -146t35.5 -172t-15.5 -191q-42 -197 -173 -364t-316.5 -264t-380.5 -97q-176 0 -310.5 78.5t-203.5 213.5l252 160q88 -184 309 -184q152 0 283 88t202 229h-600l56 256h606q-5 149 -101 242.5t-253 93.5
q-219 0 -387 -182l-185 158q127 136 294.5 214t344.5 78z" />
    <glyph glyph-name="uni042E" unicode="&#x42e;" horiz-adv-x="2162" 
d="M1663 1430q118 0 220 -37t175.5 -103t122 -157t59 -199t-11.5 -229q-32 -147 -117 -281t-201.5 -230.5t-261.5 -154t-292 -57.5q-176 0 -311.5 77.5t-206 212t-64.5 301.5h-196l-121 -573h-285l299 1411h285l-123 -582h194q98 259 333 430t503 171zM1409 248
q188 0 339.5 132t193.5 325q40 193 -55 324.5t-283 131.5q-187 0 -337 -131.5t-190 -324.5q-27 -126 5 -230.5t118 -165.5t209 -61z" />
    <glyph glyph-name="uni042F" unicode="&#x42f;" horiz-adv-x="1302" 
d="M866 1411h564l-300 -1411h-284l106 506h-96l-442 -506h-334l475 520q-161 35 -222.5 152.5t-27.5 277.5q19 89 63.5 169.5t113 147t168 105.5t216.5 39zM774 735h227l91 424h-250q-95 0 -163.5 -62.5t-88.5 -152.5q-19 -91 25.5 -150t158.5 -59z" />
    <glyph glyph-name="uni0430" unicode="&#x430;" horiz-adv-x="1257" 
d="M1057 954h268l-203 -954h-268l25 119q-62 -66 -156 -101.5t-180 -35.5q-92 0 -170 34.5t-129.5 99t-71 156.5t5.5 207q48 222 216 360t360 138q90 0 167.5 -34.5t110.5 -102.5zM647 231q101 0 188.5 70.5t110.5 177.5q24 106 -36 176t-158 70q-102 0 -190 -70.5
t-111 -175.5q-22 -104 36 -176t160 -72z" />
    <glyph glyph-name="uni0431" unicode="&#x431;" horiz-adv-x="1204" 
d="M872 940q88 0 162 -33t124 -94.5t69 -149.5t-4 -198q-45 -216 -218.5 -349.5t-398.5 -133.5q-229 0 -337.5 163t-45.5 455q23 110 60 207.5t96 191.5t135 167t181.5 127.5t230.5 78.5q128 28 186 101l180 -127q-26 -57 -98 -106.5t-180 -76.5q-109 -21 -191 -57
t-135 -84.5t-85.5 -98.5t-55.5 -114q57 57 149 94t176 37zM655 221q104 0 188 68.5t107 175.5q23 108 -31.5 176t-158.5 68t-187 -67.5t-106 -176.5q-23 -108 30.5 -176t157.5 -68z" />
    <glyph glyph-name="uni0432" unicode="&#x432;" horiz-adv-x="1132" 
d="M969 510q83 -13 123.5 -79.5t21.5 -154.5q-9 -40 -26.5 -77.5t-50.5 -74.5t-76.5 -64t-107.5 -43.5t-140 -16.5h-578l203 954h565q142 0 207.5 -68.5t44.5 -170.5q-6 -28 -17.5 -54.5t-32 -58.5t-56 -56.5t-80.5 -35.5zM811 719h-256l-29 -135h258q75 0 90 65
q6 33 -10 51.5t-53 18.5zM731 242q50 0 80.5 20t36.5 55q8 35 -13.5 57.5t-70.5 22.5h-277l-32 -155h276z" />
    <glyph glyph-name="uni0433" unicode="&#x433;" horiz-adv-x="843" 
d="M338 954h666l-54 -249h-397l-150 -705h-268z" />
    <glyph glyph-name="uni0434" unicode="&#x434;" horiz-adv-x="1157" 
d="M1020 145h90l-82 -383h-270l51 238h-498l-51 -238h-266l90 437h14q182 0 258 352l86 403h750zM608 481q-33 -169 -137 -245h299l100 469h-213z" />
    <glyph glyph-name="uni0435" unicode="&#x435;" horiz-adv-x="1153" 
d="M1186 494q-7 -31 -27 -103h-721q4 -83 59 -127.5t152 -44.5q73 0 146.5 28.5t126.5 78.5l125 -158q-86 -89 -211 -137.5t-254 -48.5q-222 0 -336.5 138t-67.5 357q32 150 127 266t222.5 176t265.5 60q101 0 184.5 -34.5t137 -98t74 -153t-2.5 -199.5zM475 565h457
q12 83 -39.5 131.5t-144.5 48.5q-88 0 -160 -44t-113 -136z" />
    <glyph glyph-name="uni0436" unicode="&#x436;" horiz-adv-x="1472" 
d="M1493 0h-371l-198 305l-64 -305h-248l66 313l-328 -313h-368l593 492l-294 462h337l138 -278l59 278h248l-59 -272l256 272h337l-491 -460z" />
    <glyph glyph-name="uni0437" unicode="&#x437;" horiz-adv-x="929" 
d="M784 520q82 -31 113.5 -94t15.5 -143q-28 -132 -165.5 -216.5t-329.5 -84.5q-248 0 -344 159l198 133q66 -75 187 -75q77 0 127.5 33t60.5 77q9 47 -27 77t-108 30h-131l35 168h96q71 0 112.5 25.5t49.5 64.5q8 36 -23 60t-90 24q-52 0 -108 -19t-95 -49l-104 156
q189 133 395 133q156 0 243 -76.5t60 -202.5q-13 -55 -56 -103.5t-112 -76.5z" />
    <glyph glyph-name="uni0438" unicode="&#x438;" horiz-adv-x="1146" 
d="M977 954h237l-202 -954h-269l111 524l-492 -524h-227l203 954h268l-108 -505z" />
    <glyph glyph-name="uni0439" unicode="&#x439;" horiz-adv-x="1146" 
d="M778 1151q-90 0 -145 39t-70 97.5t0 129.5h170q-25 -108 78 -108q51 0 83 31t42 77h174q-26 -121 -118 -193.5t-214 -72.5zM977 954h237l-202 -954h-269l111 524l-492 -524h-227l203 954h268l-108 -505z" />
    <glyph glyph-name="uni043A" unicode="&#x43a;" horiz-adv-x="991" 
d="M1012 0h-350l-201 311l-66 -311h-260l203 954h260l-66 -307l269 307h315l-436 -458z" />
    <glyph glyph-name="uni043B" unicode="&#x43b;" horiz-adv-x="1148" 
d="M449 954h770l-203 -954h-271l150 705h-231l-56 -254q-45 -216 -161 -333.5t-273 -117.5h-125l49 233h35q40 0 68 8t56 31t49 69t36 118z" />
    <glyph glyph-name="uni043C" unicode="&#x43c;" horiz-adv-x="1427" 
d="M1346 0h-279l45 494l-274 -377h-199l-115 377l-166 -494h-278l332 954h213l170 -561l407 561h217z" />
    <glyph glyph-name="uni043D" unicode="&#x43d;" horiz-adv-x="1169" 
d="M969 954h268l-203 -954h-268l74 354h-363l-74 -354h-268l203 954h268l-78 -360h363z" />
    <glyph glyph-name="uni043E" unicode="&#x43e;" horiz-adv-x="1179" 
d="M586 -18q-102 0 -188 35.5t-143 100.5t-80 156.5t1 204.5q32 147 129 263t226 176.5t266 60.5q102 0 187.5 -35.5t142.5 -101t79.5 -157.5t-2.5 -206q-31 -146 -127 -261t-225 -175.5t-266 -60.5zM639 231q101 0 185.5 69.5t107.5 178.5q24 110 -31.5 180t-157.5 70
t-186 -69.5t-108 -180.5q-23 -108 32.5 -178t157.5 -70z" />
    <glyph glyph-name="uni043F" unicode="&#x43f;" horiz-adv-x="1142" 
d="M338 954h872l-202 -954h-269l150 705h-336l-150 -705h-268z" />
    <glyph glyph-name="uni0440" unicode="&#x440;" horiz-adv-x="1257" 
d="M918 979q92 0 169.5 -35t128.5 -100t70 -157.5t-6 -207.5q-32 -149 -122.5 -264t-208.5 -174t-242 -59q-89 0 -167.5 34.5t-111.5 102.5l-125 -588h-268l303 1423h268l-24 -114q62 68 155 103.5t181 35.5zM709 233q102 0 188.5 70.5t108.5 175.5q23 104 -34 176t-159 72
q-101 0 -189.5 -71t-111.5 -177q-22 -106 38.5 -176t158.5 -70z" />
    <glyph glyph-name="uni0441" unicode="&#x441;" horiz-adv-x="1060" 
d="M596 -18q-104 0 -192 35.5t-146.5 100.5t-82 157t0.5 206q32 147 130 262.5t229.5 175.5t271.5 60q127 0 219 -55t141 -150l-231 -141q-23 44 -72 70t-108 26q-112 0 -197.5 -71t-109.5 -177q-22 -107 34 -178.5t168 -71.5q58 0 118 26.5t103 70.5l170 -142
q-90 -96 -204.5 -150t-241.5 -54z" />
    <glyph glyph-name="uni0442" unicode="&#x442;" horiz-adv-x="917" 
d="M1075 954l-53 -249h-279l-149 -705h-268l149 705h-280l53 249h827z" />
    <glyph glyph-name="uni0443" unicode="&#x443;" horiz-adv-x="1048" 
d="M954 954h289l-893 -1423h-287l345 559l-193 864h295l106 -551z" />
    <glyph glyph-name="uni0444" unicode="&#x444;" horiz-adv-x="1445" 
d="M1051 971q253 -27 357 -159.5t60 -338.5q-44 -203 -203.5 -332t-422.5 -155l-92 -437h-248l92 437q-252 26 -357 155.5t-61 331.5q43 204 203.5 337.5t423.5 160.5l104 493h248zM1196 473q22 95 -28 159t-171 85l-102 -479q128 21 204 82t97 153zM449 473
q-21 -92 28.5 -153t169.5 -82l103 479q-128 -21 -204 -84.5t-97 -159.5z" />
    <glyph glyph-name="uni0445" unicode="&#x445;" horiz-adv-x="1064" 
d="M1059 0h-314l-147 305l-279 -305h-315l488 518l-222 436h318l104 -219l195 219h315l-409 -436z" />
    <glyph glyph-name="uni0446" unicode="&#x446;" horiz-adv-x="1167" 
d="M1001 250h134l-103 -488h-256l51 238h-692l203 954h268l-151 -704h278l152 704h268z" />
    <glyph glyph-name="uni0447" unicode="&#x447;" horiz-adv-x="1077" 
d="M877 954h268l-203 -954h-268l63 301q-120 -16 -266 -16q-169 0 -232.5 96t-21.5 299l59 274h271l-58 -268q-20 -92 13.5 -125t109.5 -33q66 0 174 11z" />
    <glyph glyph-name="uni0448" unicode="&#x448;" horiz-adv-x="1490" 
d="M1290 954h271l-203 -954h-1223l203 954h268l-151 -704h215l151 704h256l-151 -704h213z" />
    <glyph glyph-name="uni0449" unicode="&#x449;" horiz-adv-x="1566" 
d="M1409 250h123l-102 -488h-254l51 238h-1092l203 954h268l-151 -704h209l151 704h268l-151 -704h207l151 704h271z" />
    <glyph glyph-name="uni044A" unicode="&#x44a;" horiz-adv-x="1114" 
d="M842 641q167 0 243.5 -87t47.5 -226q-32 -143 -145 -235.5t-277 -92.5h-471l151 721h-188l51 233h457l-68 -313h199zM733 238q55 0 87 23t40 61q8 40 -13.5 64t-76.5 24h-176l-37 -172h176z" />
    <glyph glyph-name="uni044B" unicode="&#x44b;" horiz-adv-x="1480" 
d="M737 641q167 0 243.5 -87t47.5 -226q-32 -143 -145 -235.5t-275 -92.5h-473l203 954h268l-67 -313h198zM1280 954h268l-202 -954h-269zM629 238q55 0 87 23t40 61q8 40 -13.5 64t-76.5 24h-177l-36 -172h176z" />
    <glyph glyph-name="uni044C" unicode="&#x44c;" horiz-adv-x="1009" 
d="M737 641q167 0 243.5 -87t47.5 -226q-32 -143 -145 -235.5t-275 -92.5h-473l203 954h268l-67 -313h198zM629 238q55 0 87 23t40 61q8 40 -13.5 64t-76.5 24h-177l-36 -172h176z" />
    <glyph glyph-name="uni044D" unicode="&#x44d;" horiz-adv-x="1064" 
d="M676 979q148 0 253.5 -65.5t148 -179.5t12.5 -253q-29 -140 -120 -254t-224 -179.5t-281 -65.5q-120 0 -220.5 43.5t-154.5 119.5l184 172q38 -45 97 -71.5t129 -26.5q89 0 162.5 43t117.5 115h-364l41 196h368q-11 75 -68 120.5t-147 45.5q-143 0 -266 -98l-113 172
q88 77 207 121.5t238 44.5z" />
    <glyph glyph-name="uni044E" unicode="&#x44e;" horiz-adv-x="1613" 
d="M1229 979q102 0 188 -35.5t143 -101t80 -157.5t-2 -206q-31 -146 -127.5 -261t-226 -175.5t-266.5 -60.5q-178 0 -294 101.5t-120 270.5h-127l-74 -354h-268l203 954h268l-78 -360h125q75 176 235.5 280.5t340.5 104.5zM1071 231q101 0 185.5 69.5t107.5 178.5
q24 110 -31 180t-157 70q-100 0 -184.5 -70t-108.5 -180q-23 -108 32.5 -178t155.5 -70z" />
    <glyph glyph-name="uni044F" unicode="&#x44f;" horiz-adv-x="1028" 
d="M659 954h439l-203 -954h-270l67 326h-24l-291 -326h-311l331 340q-112 30 -153.5 107.5t-18.5 185.5q29 132 144 226.5t290 94.5zM598 512h135l41 197h-141q-61 0 -96 -28t-43 -69q-9 -42 15 -71t89 -29z" />
    <glyph glyph-name="uni0451" unicode="&#x451;" horiz-adv-x="1153" 
d="M602 1145q-61 0 -94.5 40t-20.5 99q12 58 63 97.5t112 39.5q60 0 93 -39.5t21 -97.5q-13 -60 -63.5 -99.5t-110.5 -39.5zM1028 1145q-62 0 -96 40t-21 99q12 58 63 97.5t113 39.5q59 0 92 -39.5t21 -97.5q-13 -59 -63 -99t-109 -40zM1186 494q-7 -31 -27 -103h-721
q4 -83 59 -127.5t152 -44.5q73 0 146.5 28.5t126.5 78.5l125 -158q-86 -89 -211 -137.5t-254 -48.5q-222 0 -336.5 138t-67.5 357q32 150 127 266t222.5 176t265.5 60q101 0 184.5 -34.5t137 -98t74 -153t-2.5 -199.5zM475 565h457q12 83 -39.5 131.5t-144.5 48.5
q-88 0 -160 -44t-113 -136z" />
    <glyph glyph-name="Wgrave" unicode="&#x1e80;" horiz-adv-x="1851" 
d="M1366 1571h-199l-196 340h272zM1825 1411h309l-778 -1411h-228l-43 766l-362 -766h-227l-179 1411h308l92 -919l350 720h231l43 -720z" />
    <glyph glyph-name="wgrave" unicode="&#x1e81;" horiz-adv-x="1556" 
d="M1118 1114h-198l-197 340h272zM1454 954h291l-541 -954h-229l-66 621l-321 -621h-230l-145 954h291l55 -581l307 581h226l57 -581z" />
    <glyph glyph-name="Wacute" unicode="&#x1e82;" horiz-adv-x="1851" 
d="M1704 1911l-340 -340h-199l267 340h272zM1825 1411h309l-778 -1411h-228l-43 766l-362 -766h-227l-179 1411h308l92 -919l350 720h231l43 -720z" />
    <glyph glyph-name="wacute" unicode="&#x1e83;" horiz-adv-x="1556" 
d="M1456 1454l-340 -340h-198l266 340h272zM1454 954h291l-541 -954h-229l-66 621l-321 -621h-230l-145 954h291l55 -581l307 581h226l57 -581z" />
    <glyph glyph-name="Wdieresis" unicode="&#x1e84;" horiz-adv-x="1851" 
d="M1055 1602q-61 0 -95 40t-22 99q12 58 62.5 97.5t111.5 39.5q60 0 93.5 -39.5t21.5 -97.5q-12 -60 -61.5 -99.5t-110.5 -39.5zM1481 1602q-62 0 -96.5 39.5t-22.5 99.5q12 58 63 97.5t113 39.5q59 0 92 -39.5t21 -97.5q-12 -59 -61.5 -99t-108.5 -40zM1825 1411h309
l-778 -1411h-228l-43 766l-362 -766h-227l-179 1411h308l92 -919l350 720h231l43 -720z" />
    <glyph glyph-name="wdieresis" unicode="&#x1e85;" horiz-adv-x="1556" 
d="M807 1145q-61 0 -94.5 40t-20.5 99q12 58 62.5 97.5t111.5 39.5q60 0 93.5 -39.5t21.5 -97.5q-13 -60 -63.5 -99.5t-110.5 -39.5zM1233 1145q-62 0 -96 40t-21 99q12 58 63 97.5t113 39.5q59 0 92 -39.5t21 -97.5q-13 -59 -63 -99t-109 -40zM1454 954h291l-541 -954h-229
l-66 621l-321 -621h-230l-145 954h291l55 -581l307 581h226l57 -581z" />
    <glyph glyph-name="uni1E9E" unicode="&#x1e9e;" horiz-adv-x="1415" 
d="M1161 854q154 -37 226 -146.5t40 -263.5q-45 -205 -210 -334.5t-388 -129.5q-144 0 -223 32l88 246q50 -27 158 -27q111 0 191.5 64t103.5 172q22 105 -41 171.5t-188 66.5h-70l14 124l248 326q-74 19 -143 19q-121 0 -217 -81.5t-127 -228.5l-183 -864h-284l182 862
q39 183 140.5 312t241 191t306.5 62q123 0 257.5 -33t215.5 -85l-6 -29z" />
    <glyph glyph-name="Ygrave" unicode="&#x1ef2;" horiz-adv-x="1372" 
d="M1124 1571h-198l-197 340h272zM1337 1411h338l-712 -774l-136 -637h-284l135 641l-383 770h340l233 -537z" />
    <glyph glyph-name="ygrave" unicode="&#x1ef3;" horiz-adv-x="1048" 
d="M870 1114h-198l-197 340h273zM954 954h289l-893 -1423h-287l345 559l-193 864h295l106 -551z" />
    <glyph glyph-name="endash" unicode="&#x2013;" horiz-adv-x="1288" 
d="M205 371l49 231h1034l-49 -231h-1034z" />
    <glyph glyph-name="emdash" unicode="&#x2014;" horiz-adv-x="1722" 
d="M205 369l49 231h1468l-49 -231h-1468z" />
    <glyph glyph-name="quoteleft" unicode="&#x2018;" horiz-adv-x="522" 
d="M276 862q33 183 141.5 339t250.5 263l110 -65q-123 -129 -187.5 -251.5t-90.5 -285.5h-224z" />
    <glyph glyph-name="quoteright" unicode="&#x2019;" horiz-adv-x="507" 
d="M358 836l-110 65q122 130 187.5 252.5t92.5 284.5h222q-32 -182 -140.5 -338.5t-251.5 -263.5z" />
    <glyph glyph-name="quotesinglbase" unicode="&#x201a;" horiz-adv-x="493" 
d="M39 -307l-111 65q123 129 187.5 250t91.5 285h221q-32 -181 -140 -337t-249 -263z" />
    <glyph glyph-name="quotedblleft" unicode="&#x201c;" horiz-adv-x="858" 
d="M276 862q33 183 141.5 339t250.5 263l110 -65q-123 -129 -187.5 -251.5t-90.5 -285.5h-224zM614 862q16 94 55.5 184.5t93.5 166.5t114 138t127 113l112 -65q-123 -129 -188 -251t-92 -286h-222z" />
    <glyph glyph-name="quotedblright" unicode="&#x201d;" horiz-adv-x="845" 
d="M358 836l-110 65q122 130 187.5 252.5t92.5 284.5h222q-32 -182 -140.5 -338.5t-251.5 -263.5zM694 836l-108 65q122 130 187.5 252.5t92.5 284.5h221q-33 -183 -141.5 -339.5t-251.5 -262.5z" />
    <glyph glyph-name="quotedblbase" unicode="&#x201e;" horiz-adv-x="831" 
d="M39 -307l-111 65q122 130 187 251.5t92 283.5h221q-32 -181 -140 -337t-249 -263zM375 -307l-111 65q123 130 188.5 251t90.5 284h223q-33 -181 -141 -337.5t-250 -262.5z" />
    <glyph glyph-name="dagger" unicode="&#x2020;" horiz-adv-x="905" 
d="M279 -240l233 1104h-238l43 199h238l72 338h245l-71 -338h237l-43 -199h-237l-234 -1104h-245z" />
    <glyph glyph-name="daggerdbl" unicode="&#x2021;" horiz-adv-x="905" 
d="M279 -240l96 455h-238l41 195h238l96 454h-238l43 199h238l72 338h245l-71 -338h237l-43 -199h-237l-96 -454h237l-41 -195h-237l-97 -455h-245z" />
    <glyph glyph-name="bullet" unicode="&#x2022;" horiz-adv-x="923" 
d="M500 176q-136 0 -212.5 89t-47.5 222q29 134 142.5 223t248.5 89q134 0 210.5 -89.5t47.5 -222.5t-142 -222t-247 -89z" />
    <glyph glyph-name="ellipsis" unicode="&#x2026;" horiz-adv-x="1701" 
d="M264 -18q-70 0 -110 46t-25 117t75 118.5t130 47.5q72 0 113 -47.5t26 -118.5t-76 -117t-133 -46zM846 -18q-70 0 -110 46t-25 117t74.5 118.5t129.5 47.5q72 0 113.5 -47.5t26.5 -118.5t-76 -117t-133 -46zM1427 -18q-70 0 -110 46t-25 117t75 118.5t130 47.5t111 -47.5
t26 -118.5q-15 -70 -75.5 -116.5t-131.5 -46.5z" />
    <glyph glyph-name="perthousand" unicode="&#x2030;" horiz-adv-x="1943" 
d="M512 827q-115 0 -176.5 78.5t-36.5 194.5q23 114 119 194t211 80q114 0 177 -80t40 -194q-25 -115 -122 -194t-212 -79zM244 0l948 1341h151l-950 -1341h-149zM545 977q52 0 95.5 35t55.5 88q11 51 -18 88t-80 37q-53 0 -95.5 -36.5t-53.5 -88.5q-12 -54 15 -88.5
t81 -34.5zM963 -18q-116 0 -178 78.5t-37 193.5t119.5 194.5t209.5 79.5q114 0 178 -80t39 -194q-25 -115 -121 -193.5t-210 -78.5zM1606 -18q-116 0 -178 78.5t-37 193.5t119.5 194.5t209.5 79.5q114 0 178 -80t39 -194q-25 -115 -121 -193.5t-210 -78.5zM993 131
q53 0 96.5 35t55.5 88q11 51 -17.5 88t-80.5 37t-95.5 -37t-54.5 -88q-12 -54 15.5 -88.5t80.5 -34.5zM1636 131q52 0 96 35t56 88q11 51 -18 88t-80 37q-53 0 -96 -36.5t-54 -88.5q-12 -54 15 -88.5t81 -34.5z" />
    <glyph glyph-name="guilsinglleft" unicode="&#x2039;" horiz-adv-x="653" 
d="M367 53l-193 424l373 424h217l-373 -424l193 -424h-217z" />
    <glyph glyph-name="guilsinglright" unicode="&#x203a;" horiz-adv-x="653" 
d="M90 53l373 424l-193 424h217l193 -424l-373 -424h-217z" />
    <glyph glyph-name="fraction" unicode="&#x2044;" horiz-adv-x="368" 
d="M-371 -18l1217 1386h170l-1215 -1386h-172z" />
    <glyph glyph-name="uni2070" unicode="&#x2070;" horiz-adv-x="702" 
d="M578 1067q-275 0 -197 375q18 84 45 149t68.5 118.5t103 82.5t139.5 29q276 0 195 -379q-78 -375 -354 -375zM610 1217q109 0 158 225q49 227 -61 227q-113 0 -162 -227q-49 -225 65 -225z" />
    <glyph glyph-name="uni2074" unicode="&#x2074;" horiz-adv-x="708" 
d="M940 1354l-29 -137h-106l-31 -140h-164l31 140h-350l8 43l557 552h76l-98 -458h106zM543 1354h127l35 166z" />
    <glyph glyph-name="uni2075" unicode="&#x2075;" horiz-adv-x="673" 
d="M711 1581q107 0 157.5 -69.5t26.5 -178.5q-25 -121 -124 -193.5t-220 -72.5q-85 0 -149.5 42.5t-88.5 109.5l144 77q12 -34 45 -55.5t73 -21.5q59 0 101.5 30.5t52.5 81.5q11 53 -13.5 84t-78.5 31q-84 0 -170 -70l-86 66l145 370h422l-33 -151h-288l-49 -113
q61 33 133 33z" />
    <glyph glyph-name="uni2076" unicode="&#x2076;" horiz-adv-x="700" 
d="M719 1548q110 0 162.5 -67.5t31.5 -167.5q-23 -108 -113.5 -177t-211.5 -69q-130 0 -189.5 91.5t-23.5 260.5q40 190 147.5 296t241.5 106q72 0 131.5 -37t81.5 -94l-141 -88q-29 67 -99 67q-58 0 -111 -48t-77 -132q69 59 170 59zM625 1219q45 0 81 30.5t44 69.5
t-13.5 68.5t-70.5 29.5q-44 0 -81 -27t-46 -67q-10 -46 14.5 -75t71.5 -29z" />
    <glyph glyph-name="uni2077" unicode="&#x2077;" horiz-adv-x="628" 
d="M442 1812h543l-4 -16l-467 -719h-190l381 584h-295z" />
    <glyph glyph-name="uni2078" unicode="&#x2078;" horiz-adv-x="714" 
d="M840 1493q52 -24 75.5 -76.5t8.5 -118.5q-22 -102 -118 -166.5t-222 -64.5q-127 0 -196.5 64t-47.5 165q13 66 58.5 119t107.5 78q-57 50 -39 131q19 86 97 141.5t179 55.5q102 0 158 -55.5t37 -141.5q-19 -85 -98 -131zM711 1675q-34 0 -59 -20t-31 -51q-6 -30 11 -50
t50 -20q35 0 61.5 20t32.5 50q6 31 -12 51t-53 20zM616 1214q54 0 93.5 29t48.5 74q11 46 -16.5 75t-82.5 29q-52 0 -90 -29t-49 -75q-9 -45 17.5 -74t78.5 -29z" />
    <glyph glyph-name="uni2079" unicode="&#x2079;" horiz-adv-x="698" 
d="M723 1821q129 0 189.5 -91.5t27.5 -252.5q-42 -193 -150 -301.5t-243 -108.5q-72 0 -130.5 37t-80.5 94l141 88q29 -67 98 -67q59 0 112 48t77 134q-73 -62 -170 -62q-110 0 -163 68t-32 168q23 109 113 177.5t211 68.5zM647 1473q44 0 81 26t46 66q9 47 -15.5 75.5
t-70.5 28.5q-45 0 -82 -30.5t-45 -69.5q-8 -38 14 -67t72 -29z" />
    <glyph glyph-name="uni207A" unicode="&#x207a;" horiz-adv-x="593" 
d="M834 1423l-27 -131h-170l-37 -170h-131l37 170h-168l27 131h167l37 170h131l-36 -170h170z" />
    <glyph glyph-name="uni207B" unicode="&#x207b;" horiz-adv-x="645" 
d="M371 1309l28 129h455l-29 -129h-454z" />
    <glyph glyph-name="uni207C" unicode="&#x207c;" horiz-adv-x="714" 
d="M406 1460l26 121h522l-26 -121h-522zM354 1221l27 120h522l-26 -120h-523z" />
    <glyph glyph-name="uni207D" unicode="&#x207d;" horiz-adv-x="477" 
d="M606 874q-159 -3 -225.5 137t-20.5 363q46 222 174 364t285 138l-26 -123q-79 3 -163.5 -98t-123.5 -281q-37 -180 4.5 -280t122.5 -97z" />
    <glyph glyph-name="uni207E" unicode="&#x207e;" horiz-adv-x="477" 
d="M240 874l26 123q81 -3 166.5 97t122.5 280q27 128 13 213t-52 126.5t-90 39.5l27 123q106 3 173.5 -63t83.5 -178.5t-12 -260.5q-46 -223 -172.5 -363t-285.5 -137z" />
    <glyph glyph-name="colonmonetary" unicode="&#x20a1;" horiz-adv-x="1339" 
d="M811 281q93 0 182.5 42.5t157.5 116.5l176 -151q-111 -123 -265 -196t-314 -73q-12 0 -80 5l-93 -185l-94 29l88 176q-53 17 -104 45l-92 -186l-97 28l109 213q-108 91 -152.5 230.5t-9.5 300.5q27 127 100.5 244t174.5 204t226.5 142t254.5 63l117 230l96 -29l-102 -203
q51 -5 114 -22l96 190l97 -29l-103 -200q138 -77 199 -205l-242 -152q-30 61 -84 103l-368 -731h12zM598 350q45 -36 98 -53l383 760q-43 14 -98 14h-20zM506 676q-30 -140 24 -242l310 615q-123 -39 -215 -139.5t-119 -233.5z" />
    <glyph glyph-name="lira" unicode="&#x20a4;" horiz-adv-x="1359" 
d="M961 741l-25 -120h-655l24 120h141l35 164q45 211 191 330t336 119q96 0 170.5 -25.5t128.5 -81.5t68.5 -144.5t-9.5 -215.5h-270q22 110 -15.5 164.5t-122.5 54.5q-71 0 -129.5 -57t-78.5 -148l-35 -160h246zM1098 416h268l-33 -148q-23 -114 -111 -191t-194 -77h-938
l49 236h201l33 153h-142l25 121h655l-24 -121h-246l-33 -153h393q32 0 49 19t25 56z" />
    <glyph glyph-name="uni20A6" unicode="&#x20a6;" horiz-adv-x="1533" 
d="M1599 743h-149l-33 -147h150l-25 -119h-149l-101 -477h-254l-190 477h-223l-101 -477h-284l100 477h-147l24 119h148l32 147h-147l24 121h148l102 477h264l189 -477h213l102 477h285l-102 -477h149zM649 596h152l-58 147h-61zM1133 596l32 147h-139l57 -147h50z" />
    <glyph glyph-name="peseta" unicode="&#x20a7;" horiz-adv-x="2965" 
d="M1049 1411q93 0 164.5 -26t114 -70t68 -103t25.5 -125.5t-12 -136.5q-19 -89 -63.5 -169t-112 -145t-166 -103.5t-213.5 -38.5h-291l-104 -494h-285l299 1411h576zM2052 1305l-74 -351h201l-45 -206h-201l-157 -748h-271l158 748h-172l45 206h172l74 351h270zM893 743
q94 0 154 61.5t77 145.5q11 38 7 75.5t-18 67t-47 48t-81 18.5h-280l-89 -416h277zM2753 563q62 -17 105 -45.5t63.5 -57.5t29 -64t7.5 -61t-7 -54q-20 -96 -95.5 -166t-170.5 -101.5t-197 -31.5q-161 0 -264.5 87t-87.5 238h272q-8 -46 21.5 -80t95.5 -34q60 0 104.5 24
t53.5 64q6 30 -14.5 47.5t-73.5 31.5l-121 31q-265 76 -213 303q24 114 148.5 199.5t285.5 85.5q69 0 129.5 -17.5t109 -53t69.5 -97.5t3 -143h-256q9 46 -19 72t-77 26q-47 0 -83.5 -22t-43.5 -58q-13 -57 76 -82z" />
    <glyph glyph-name="uni20A8" unicode="&#x20a8;" horiz-adv-x="1282" 
d="M1112 1223q87 -90 66 -262h239l-84 -119h-178q-42 -157 -140 -261t-245 -139l221 -442h-334l-192 426l-252 -2l53 250h379q165 0 223 168h-565l25 119h559q-3 129 -152 129h-379l52 251h1091l-86 -118h-301z" />
    <glyph glyph-name="uni20A9" unicode="&#x20a9;" horiz-adv-x="1955" 
d="M2148 1341l-266 -481h148l-27 -119h-188l-99 -180h250l-27 -119h-288l-244 -442h-225l-27 442h-172l-209 -442h-227l-58 442h-288l26 119h248l-24 180h-187l27 119h147l-61 481h307l49 -481h213l172 352h232l22 -352h215l252 481h309zM743 741l19 -180h39l86 180h-144z
M1042 561h107l-12 180h-11zM1432 561l92 180h-146l13 -180h41z" />
    <glyph glyph-name="uni20AA" unicode="&#x20aa;" horiz-adv-x="1771" 
d="M172 0l285 1341h567q214 0 313 -118t60 -308l-90 -423h-238l82 393q18 82 -28 138t-142 56h-313l-230 -1079h-266zM1032 0q-214 0 -314 119t-59 307l91 426h237l-84 -393q-18 -82 29 -139.5t143 -57.5h314l229 1079h266l-285 -1341h-567z" />
    <glyph glyph-name="dong" unicode="&#x20ab;" horiz-adv-x="1361" 
d="M1575 1346l-27 -132h-170l-239 -1120h-256l26 119q-62 -66 -156.5 -101.5t-181.5 -35.5q-92 0 -169.5 34.5t-128.5 99t-70 156.5t6 207q32 149 122.5 264t208.5 174.5t242 59.5q90 0 168 -34.5t111 -102.5l61 280h-299l27 132h299l25 118h256l-25 -118h170zM674 326
q102 0 191 70.5t112 176.5q22 107 -38 176.5t-159 69.5q-101 0 -188.5 -71t-110.5 -175q-22 -103 35 -175t158 -72zM180 -160l29 131h835l-28 -131h-836z" />
    <glyph glyph-name="Euro" unicode="&#x20ac;" horiz-adv-x="1630" 
d="M1233 846l-27 -125h-981l27 125h213q114 227 327 367.5t457 140.5q181 0 315.5 -76t200.5 -209l-258 -160q-43 83 -125.5 130.5t-189.5 47.5q-125 0 -237.5 -65.5t-186.5 -175.5h465zM1413 436l191 -162q-125 -136 -294 -214t-352 -78q-245 0 -399.5 144t-169.5 372h-211
l27 127h981l-27 -127h-469q27 -115 112.5 -183.5t211.5 -68.5q109 0 214.5 51t184.5 139z" />
    <glyph glyph-name="uni20AE" unicode="&#x20ae;" horiz-adv-x="1198" 
d="M1364 1092h-387l-47 -222l186 119l-31 -141l-186 -119l-20 -94l188 119l-31 -140l-186 -118l-105 -496h-286l59 285l-188 -121l28 141l191 121l18 94l-188 -121l29 140l190 120l92 433h-389l53 249h1063z" />
    <glyph glyph-name="uni20B1" unicode="&#x20b1;" horiz-adv-x="1447" 
d="M1599 1026l-20 -92h-160q0 -20 -6 -41q-4 -25 -10 -37h160l-19 -94h-174q-65 -135 -193.5 -215t-312.5 -80h-243l-99 -467h-284l161 762h-143l18 94h144l16 78h-143l20 92h144l67 315h529q181 0 273.5 -87.5t100.5 -227.5h174zM754 1092l-15 -66h373q-42 66 -143 66h-215
zM1128 887q5 40 5 47h-414l-17 -78h416q2 5 5 15.5t5 15.5zM879 688q112 0 186 74h-381l-16 -74h211z" />
    <glyph glyph-name="uni20B4" unicode="&#x20b4;" horiz-adv-x="1204" 
d="M1098 836h151l-22 -107h-944l22 107h453l76 53q62 45 91.5 74.5t35.5 58.5q5 27 -12.5 45t-53.5 18h-481l55 256h598q129 0 194 -65.5t42 -173.5q-16 -75 -50 -121t-100 -102zM236 506l22 106h944l-22 -106h-461l-76 -53q-62 -46 -90.5 -75t-34.5 -59q-6 -27 11.5 -45
t52.5 -18h514l-54 -256h-630q-129 0 -195 67t-41 175q16 73 51.5 121t100.5 102l53 41h-145z" />
    <glyph glyph-name="uni20BA" unicode="&#x20ba;" horiz-adv-x="1273" 
d="M1106 762h258l-27 -125q-62 -289 -260.5 -463t-468.5 -174h-381l113 530l-147 -92l28 140l148 92l20 94l-147 -92l30 141l146 92l94 436h266l-51 -241l254 162l-29 -140l-256 -161l-20 -95l256 162l-29 -141l-256 -162l-98 -463h94q163 0 282.5 110t159.5 296z" />
    <glyph glyph-name="uni20BD" unicode="&#x20bd;" horiz-adv-x="1314" 
d="M895 518h-244l-22 -112h487l-35 -162h-487l-51 -244h-285l51 244h-153l34 162h154l23 112h-154l37 168h153l140 655h528q78 0 141.5 -15.5t107 -43.5t74 -67t43.5 -86t15 -100.5t-12 -110.5q-39 -182 -177 -291t-368 -109zM1008 1092h-234l-76 -351h230q97 0 153 46
t72 126q18 80 -16 129.5t-129 49.5z" />
    <glyph glyph-name="uni2113" unicode="&#x2113;" horiz-adv-x="819" 
d="M485 371h-45l-6 -31q-13 -65 5 -97t85 -32h195l-43 -211h-248q-305 0 -231 344l157 739q74 347 377 347q82 0 135.5 -28.5t75.5 -77t26 -114t-14 -139.5l-82 -383q-17 -83 -40.5 -136.5t-66.5 -97t-111.5 -63.5t-168.5 -20zM684 1210q-36 0 -55.5 -23.5t-30.5 -72.5
l-121 -569h43q52 0 73 26t32 78l98 465q12 47 3.5 71.5t-42.5 24.5z" />
    <glyph glyph-name="uni2116" unicode="&#x2116;" horiz-adv-x="1976" 
d="M1817 879q-114 0 -177 78t-38 192q23 113 119 192.5t210 79.5q112 0 175 -79.5t40 -192.5q-25 -114 -120.5 -192t-208.5 -78zM1055 537l186 874h285l-299 -1411h-256l-326 885l-186 -885h-285l299 1411h264zM1901 1274q-52 0 -96.5 -37t-55.5 -88q-11 -53 17.5 -88
t80.5 -35t97 35.5t55 87.5q11 51 -18 88t-80 37zM1511 668l25 120h518l-24 -120h-519z" />
    <glyph glyph-name="uni2117" unicode="&#x2117;" horiz-adv-x="1603" 
d="M1104 1427q118 0 220 -37t174.5 -103t121 -157t58.5 -199t-13 -229q-31 -147 -115.5 -280.5t-201 -230.5t-261.5 -154t-292 -57q-118 0 -220 37t-174.5 102.5t-121 156t-58.5 198t12 228.5q42 198 173 364.5t316.5 263.5t381.5 97zM823 106q161 0 313.5 80t259.5 217
t142 299q29 124 4 233t-85.5 190t-160.5 128t-221 47q-162 0 -315 -80.5t-260 -218t-142 -299.5q-34 -162 15 -299t168.5 -217t281.5 -80zM1092 1049q59 0 102 -20.5t63 -54t27.5 -76t-4.5 -87.5q-21 -93 -98 -164.5t-191 -71.5h-127l-49 -229h-160l150 703h287zM1018 723
q38 0 65 26.5t35 61.5q7 35 -8 61.5t-51 26.5h-125l-37 -176h121z" />
    <glyph glyph-name="uni2120" unicode="&#x2120;" horiz-adv-x="1970" 
d="M719 1071q108 -34 159 -93.5t29 -164.5q-14 -66 -52 -117.5t-89.5 -82t-108.5 -45.5t-116 -15q-138 0 -209 78t-45 200h211q-7 -42 12 -69t70 -27q44 0 75 19t37 49q10 56 -63 82l-88 30q-218 64 -179 246q24 117 127 189.5t234 72.5q127 0 192 -74.5t39 -201.5h-213
q6 39 -10 63.5t-57 24.5q-36 0 -62 -18t-32 -48q-9 -51 57 -71zM1972 565h-217l45 443l-233 -340h-164l-92 338l-144 -441h-217l281 846h182l121 -498l336 498h182z" />
    <glyph glyph-name="trademark" unicode="&#x2122;" horiz-adv-x="1927" 
d="M330 1225l39 186h647l-39 -186h-217l-142 -660h-215l142 660h-215zM1923 565h-217l45 445l-233 -342h-164l-92 338l-144 -441h-217l283 846h178l123 -498l334 498h182z" />
    <glyph glyph-name="estimated" unicode="&#x212e;" horiz-adv-x="1296" 
d="M649 -20q-98 0 -179 31t-135.5 85t-88.5 129t-38.5 163t13.5 185q26 122 88.5 230t151 189t205.5 128t245 47q102 0 185 -31t137 -86t87.5 -130t37 -163t-14.5 -186h-878l-84 -395q107 -129 283 -129q82 0 153.5 20t131 59t104 80.5t96.5 100.5l55 -39q-77 -91 -150 -150
t-177.5 -98.5t-227.5 -39.5zM479 639h633l70 334q-47 54 -123.5 90.5t-161.5 36.5q-197 0 -348 -127z" />
    <glyph glyph-name="oneeighth" unicode="&#x215b;" horiz-adv-x="1568" 
d="M1331 1368h170l-1216 -1386h-172zM344 608l111 522l-179 -61l33 152l344 131h11l-158 -744h-162zM1466 416q51 -24 74 -76.5t8 -118.5q-22 -102 -118 -166.5t-222 -64.5q-127 0 -196 64t-47 165q15 68 60.5 120.5t107.5 76.5q-56 49 -41 131q19 86 97.5 141t180.5 55
t157 -55t36 -141q-7 -39 -34 -74.5t-63 -56.5zM1339 608q-35 0 -63.5 -22t-34.5 -54q-6 -31 12 -52t54 -21q37 0 65.5 21t34.5 52q6 33 -13 54.5t-55 21.5zM1241 137q53 0 92.5 29t48.5 74q11 46 -16 75t-82 29q-52 0 -90 -29t-49 -75q-9 -45 17.5 -74t78.5 -29z" />
    <glyph glyph-name="threeeighths" unicode="&#x215c;" horiz-adv-x="1705" 
d="M1468 1368h170l-1216 -1386h-172zM727 825q-22 -101 -108.5 -164t-204.5 -63q-79 0 -138.5 33t-82.5 90l135 86q32 -59 108 -59q50 0 84 23t43 63q9 43 -18 69.5t-82 26.5h-55l26 121h29q56 0 92.5 25.5t42.5 66.5q6 30 -15 47.5t-55 17.5q-70 0 -122 -49l-66 98
q44 43 108.5 69t133.5 26q100 0 151 -55.5t31 -149.5q-10 -47 -43 -85.5t-80 -60.5q53 -22 76 -68.5t10 -107.5zM1604 416q51 -24 74 -76.5t8 -118.5q-22 -102 -118 -166.5t-222 -64.5q-127 0 -196.5 64t-47.5 165q15 68 60.5 120.5t107.5 76.5q-56 49 -41 131
q19 86 97.5 141t180.5 55t157 -55t36 -141q-7 -40 -34 -75t-62 -56zM1477 608q-35 0 -64 -22t-35 -54q-6 -31 12 -52t54 -21q37 0 65.5 21t34.5 52q6 33 -12.5 54.5t-54.5 21.5zM1378 137q54 0 93.5 29t48.5 74q11 46 -16.5 75t-82.5 29q-52 0 -90 -29t-49 -75
q-9 -45 17.5 -74t78.5 -29z" />
    <glyph glyph-name="fiveeighths" unicode="&#x215d;" horiz-adv-x="1757" 
d="M1520 1368h170l-1217 -1386h-172zM795 864q-25 -121 -123 -193.5t-219 -72.5q-86 0 -151.5 42t-88.5 110l143 77q12 -35 45.5 -56t73.5 -21q59 0 101.5 30.5t52.5 81.5q11 52 -14 83.5t-78 31.5q-85 0 -168 -70l-88 66l145 370h422l-33 -151h-289l-47 -113q61 33 131 33
q107 0 158 -69.5t27 -178.5zM1655 416q51 -24 74 -76.5t8 -118.5q-22 -102 -118 -166.5t-222 -64.5q-127 0 -196.5 64t-47.5 165q15 68 60.5 120.5t107.5 76.5q-56 49 -41 131q19 86 98 141t181 55t156.5 -55t35.5 -141q-7 -40 -34 -75t-62 -56zM1528 608q-35 0 -63.5 -22
t-34.5 -54q-6 -31 11.5 -52t53.5 -21q37 0 65.5 21t34.5 52q6 33 -12.5 54.5t-54.5 21.5zM1430 137q53 0 92.5 29t48.5 74q11 46 -16 75t-82 29q-52 0 -90.5 -29t-49.5 -75q-9 -45 18 -74t79 -29z" />
    <glyph glyph-name="seveneighths" unicode="&#x215e;" horiz-adv-x="1679" 
d="M1446 1368h170l-1217 -1386h-172zM438 608h-190l379 584h-295l33 149h544l-4 -14zM1577 416q51 -24 74 -76.5t8 -118.5q-22 -102 -118 -166.5t-222 -64.5q-127 0 -196.5 64t-47.5 165q15 68 60.5 120.5t107.5 76.5q-56 49 -41 131q19 86 98 141t181 55t156.5 -55
t35.5 -141q-7 -40 -34 -75t-62 -56zM1450 608q-35 0 -63.5 -22t-34.5 -54q-6 -31 11.5 -52t53.5 -21q37 0 66 21t35 52q6 33 -13 54.5t-55 21.5zM1352 137q53 0 92.5 29t48.5 74q11 46 -16 75t-82 29q-52 0 -90.5 -29t-49.5 -75q-9 -45 18 -74t79 -29z" />
    <glyph glyph-name="arrowleft" unicode="&#x2190;" horiz-adv-x="1800" 
d="M1886 813l-45 -211h-1243l256 -326l-180 -149l-459 584l707 583l116 -149l-401 -332h1249z" />
    <glyph glyph-name="arrowup" unicode="&#x2191;" horiz-adv-x="1267" 
d="M1401 874l-180 -149l-256 326l-224 -1051h-213l224 1053l-400 -328l-116 149l706 582z" />
    <glyph glyph-name="arrowright" unicode="&#x2192;" horiz-adv-x="1800" 
d="M1427 1294l457 -583l-704 -584l-119 149l395 326h-1243l45 211h1249l-262 332z" />
    <glyph glyph-name="arrowdown" unicode="&#x2193;" horiz-adv-x="1263" 
d="M1204 662l119 -150l-709 -582l-456 582l178 150l260 -328l229 1077h213l-229 -1075z" />
    <glyph glyph-name="arrowboth" unicode="&#x2194;" horiz-adv-x="2134" 
d="M1778 1327l458 -584l-706 -583l-117 149l402 332l-1227 -2l262 -332l-180 -149l-459 583l704 586l119 -151l-393 -324h1210l-254 326z" />
    <glyph glyph-name="arrowupdn" unicode="&#x2195;" horiz-adv-x="1292" 
d="M776 131l400 330l118 -150l-708 -581l-457 581l178 150l258 -324l256 1211l-393 -324l-117 150l707 581l459 -581l-181 -150l-260 330z" />
    <glyph glyph-name="partialdiff" unicode="&#x2202;" horiz-adv-x="1189" 
d="M938 1360q100 2 173 -24.5t114 -74t61 -115t19 -143t-18 -162t-44.5 -169t-64.5 -166.5q-103 -241 -286 -382.5t-392 -141.5q-217 0 -305 128t-21 322q37 103 106 187.5t150 136t162.5 79t152.5 27.5q93 0 160.5 -35.5t98.5 -97.5q44 112 47.5 203.5t-44.5 150t-147 58.5
zM852 434q25 78 -15.5 133.5t-127.5 55.5q-88 -1 -163 -58.5t-102 -134.5q-31 -85 8 -142t128 -57q88 1 164.5 59.5t107.5 143.5z" />
    <glyph glyph-name="emptyset" unicode="&#x2205;" horiz-adv-x="1644" 
d="M1837 1343l-213 -176q119 -196 64 -460q-42 -197 -172 -363.5t-315.5 -264t-383.5 -97.5q-131 0 -240.5 44.5t-185.5 125.5l-213 -177l-72 97l213 176q-117 197 -61 459q31 148 114.5 282t199 231t260 154.5t292.5 57.5q260 0 428 -168l211 174zM418 707
q-43 -190 41 -345l952 785q-127 121 -324 121q-152 0 -294.5 -75t-242 -204t-132.5 -282zM1526 707q40 194 -41 346l-955 -787q125 -119 320 -119q154 0 298.5 75t245.5 204t132 281z" />
    <glyph glyph-name="product" unicode="&#x220f;" horiz-adv-x="1439" 
d="M1567 1411l-367 -1724h-285l314 1470h-527l-313 -1470h-285l367 1724h1096z" />
    <glyph glyph-name="summation" unicode="&#x2211;" horiz-adv-x="1318" 
d="M1538 1411l-53 -254h-791l224 -604l-482 -610h791l-56 -256h-1169l25 112l598 754l-281 747l25 111h1169z" />
    <glyph glyph-name="minus" unicode="&#x2212;" horiz-adv-x="1064" 
d="M223 434l43 203h803l-43 -203h-803z" />
    <glyph glyph-name="radical" unicode="&#x221a;" horiz-adv-x="1353" 
d="M1526 1810h252l-1096 -2123h-256l-84 837h-248l41 193h451l51 -643z" />
    <glyph glyph-name="infinity" unicode="&#x221e;" horiz-adv-x="1746" 
d="M1473 991q168 0 256 -100.5t51 -274.5q-36 -175 -167 -276.5t-300 -101.5q-80 0 -138 28t-116 84l-90 96l-154 -110q-146 -98 -278 -98q-171 0 -259.5 101t-52.5 277q25 116 95.5 202t168 129.5t207.5 43.5q144 0 254 -110l90 -99l140 103q80 53 148.5 79.5t144.5 26.5z
M592 494q83 0 178 63l86 57l-65 64q-37 35 -70.5 47t-77.5 12q-55 0 -104.5 -30.5t-63.5 -92.5q-12 -60 25 -90t92 -30zM1366 494q55 0 103.5 29.5t62.5 90.5q12 62 -24 92.5t-91 30.5q-84 0 -182 -65l-84 -58l59 -57q70 -63 156 -63z" />
    <glyph glyph-name="integral" unicode="&#x222b;" horiz-adv-x="802" 
d="M934 1464h117l-52 -250h-63q-111 0 -173 -53.5t-73 -144.5l-69 -916q-9 -126 -81 -221.5t-183.5 -143.5t-243.5 -48h-115l51 250h62q112 0 175.5 53t69.5 139l64 885q9 140 80.5 243.5t184 155t249.5 51.5z" />
    <glyph glyph-name="approxequal" unicode="&#x2248;" horiz-adv-x="1374" 
d="M1421 784q-70 -85 -169.5 -139.5t-198.5 -54.5q-32 0 -61 4t-57 14t-43.5 16.5t-44.5 21.5t-36 18t-40.5 21t-50 25t-49.5 15t-67 8q-116 0 -260 -129l-72 131q76 81 174.5 135t198.5 54q32 0 60.5 -4.5t55.5 -14t42.5 -16t42.5 -21t35 -18.5q12 -6 40.5 -21t48 -24
t51.5 -17t66 -8q110 0 250 129zM1337 358q-76 -89 -176 -144.5t-200 -55.5q-37 0 -75.5 9t-57 16t-57.5 26.5t-44 21.5q-8 4 -41.5 21.5t-51.5 25t-52.5 15.5t-69.5 8q-63 0 -130.5 -37.5t-123.5 -89.5l-74 133q74 80 174.5 133.5t196.5 53.5q40 0 79 -8.5t60 -17.5
t55.5 -26t45.5 -22q8 -4 40.5 -21.5t49.5 -25t50 -15.5t66 -8q127 0 254 127z" />
    <glyph glyph-name="notequal" unicode="&#x2260;" horiz-adv-x="1204" 
d="M301 78l150 217h-258l43 197h354l147 213h-456l41 196h555l141 201h145l-141 -201h242l-41 -196h-338l-150 -213h443l-43 -197h-541l-150 -217h-143z" />
    <glyph glyph-name="lessequal" unicode="&#x2264;" horiz-adv-x="1280" 
d="M1202 307l-948 375l45 211l1108 377l-45 -211l-803 -271l688 -272zM117 0l39 184h1022l-39 -184h-1022z" />
    <glyph glyph-name="greaterequal" unicode="&#x2265;" horiz-adv-x="1280" 
d="M205 307l45 209l801 272l-686 271l45 211l948 -377l-45 -211zM139 0l39 184h1024l-39 -184h-1024z" />
    <glyph glyph-name="filledbox" unicode="&#x25a0;" horiz-adv-x="1429" 
d="M432 1264h1102l-236 -1102h-1101z" />
    <glyph glyph-name="uni25A1" unicode="&#x25a1;" horiz-adv-x="1306" 
d="M371 1264h1102l-236 -1102h-1102zM506 1092l-162 -758h758l162 758h-758z" />
    <glyph glyph-name="triagup" unicode="&#x25b2;" horiz-adv-x="1595" 
d="M193 141l866 1096l401 -1098z" />
    <glyph glyph-name="uni25B6" unicode="&#x25b6;" horiz-adv-x="1425" 
d="M459 1378l960 -633l-1233 -636z" />
    <glyph glyph-name="triagdn" unicode="&#x25bc;" horiz-adv-x="1595" 
d="M426 1235l1268 2l-869 -1098z" />
    <glyph glyph-name="uni25C0" unicode="&#x25c0;" horiz-adv-x="1425" 
d="M1552 1378l-268 -1269l-962 636z" />
    <glyph glyph-name="lozenge" unicode="&#x25ca;" horiz-adv-x="1228" 
d="M889 1454l303 -729l-610 -725h-41l-303 725l610 729h41zM958 725l-161 387l-326 -389l160 -387z" />
    <glyph glyph-name="circle" unicode="&#x25cb;" horiz-adv-x="1421" 
d="M1473 723q-35 -165 -147 -305t-270 -221.5t-323 -81.5t-287.5 81.5t-173.5 221.5t-16 305q34 165 145.5 305t269 221.5t322.5 81.5t288 -81.5t174.5 -221.5t17.5 -305zM1300 723q24 118 -13 218.5t-125 159t-206 58.5q-180 0 -335.5 -128.5t-192.5 -307.5
q-25 -118 12 -218.5t124.5 -159t205.5 -58.5t231.5 58.5t193.5 159t105 218.5z" />
    <glyph glyph-name="uni2605" unicode="&#x2605;" horiz-adv-x="1800" 
d="M1305 512l63 -563l-407 348l-553 -348l303 563l-406 350h594l303 565l64 -565h594z" />
    <glyph glyph-name="uni2610" unicode="&#x2610;" horiz-adv-x="1492" 
d="M741 -12q-174 0 -303.5 86.5t-184 234.5t-17.5 322q37 175 155 323t284.5 234t340.5 86q175 0 305.5 -86.5t185 -234.5t17.5 -322t-155.5 -322t-285.5 -234.5t-342 -86.5zM782 174q193 0 353.5 132.5t201.5 324.5q22 96 3 179.5t-66.5 144.5t-125.5 96.5t-173 35.5
q-192 0 -352 -131.5t-201 -324.5q-41 -192 63.5 -324.5t296.5 -132.5z" />
    <glyph glyph-name="uni2611" unicode="&#x2611;" horiz-adv-x="1525" 
d="M1724 1372l-282 -332q110 -175 61 -409q-37 -174 -155 -322t-285 -234.5t-342 -86.5q-174 0 -304 86.5t-184.5 234.5t-17.5 322q37 175 155 323t284.5 234t340.5 86q192 0 326 -103l260 304zM1317 631q27 136 -17 243l-481 -565h-55l-223 443l164 143l137 -279l346 402
q-94 69 -234 69q-192 0 -352 -131.5t-201 -324.5q-41 -192 64 -324.5t297 -132.5q193 0 353.5 132.5t201.5 324.5z" />
    <glyph glyph-name="uni261C" unicode="&#x261c;" horiz-adv-x="2019" 
d="M256 940q18 63 65 100t117 37l709 -2l-25 96q-19 48 10.5 110.5t71.5 84.5q35 17 62.5 23.5t59 2.5t61 -28.5t57.5 -69.5l266 -444l14 70q8 36 39.5 62t67.5 26h174q34 0 55 -27.5t15 -60.5l-177 -832q-8 -32 -40 -60t-66 -28h-174q-36 0 -57 26t-13 62l19 94h-793
q-81 10 -112 47t-13 90q12 38 45 62q-142 19 -96 149q14 34 33 56q-65 21 -86.5 55t0.5 90q19 47 47 66l-211 4q-74 2 -108 37.5t-17 101.5zM406 887l577 -10q86 -1 118.5 -48t10.5 -116q-18 -59 -45 -74q43 -6 67 -27.5t25.5 -48t-2.5 -53.5q-7 -36 -29.5 -63t-52.5 -39
q35 -10 36.5 -59.5t-21.5 -80.5l495 -2l98 453l-319 508q-4 6 -14.5 19.5t-14.5 18.5t-13 14t-15 11.5t-14.5 5.5t-17.5 1t-20 -7q-33 -17 -41.5 -45t0 -55.5t29.5 -69.5l141 -282q7 -14 1.5 -32t-19.5 -24q-21 -11 -39 -6t-27 23l-98 178l-776 6q-64 0 -74 -49
q-3 -22 9.5 -34.5t44.5 -12.5zM666 674h274q66 0 82 51q11 31 -8 51.5t-62 20.5l-235 -2q-84 0 -92 -72q-6 -44 41 -49zM719 461l272 -4q29 0 50.5 14t27.5 41q14 70 -53 70l-262 -4q-57 0 -74 -56q-15 -55 39 -61zM793 274l159 -4q69 -3 78 41q6 29 -6 40.5t-49 13.5
l-172 6q-51 3 -60 -41q-5 -27 3.5 -41t46.5 -15z" />
    <glyph glyph-name="uni261E" unicode="&#x261e;" horiz-adv-x="2019" 
d="M2161 940q-10 -66 -59.5 -101.5t-123.5 -37.5l-215 -4q19 -17 19 -66q3 -103 -148 -145q13 -23 13 -56q-15 -131 -162 -149q20 -23 20 -62q-5 -53 -52.5 -90t-133.5 -47h-793l-18 -94q-8 -36 -39.5 -62t-67.5 -26h-174q-34 0 -55.5 28t-13.5 60l176 832q6 33 38.5 60.5
t67.5 27.5h174q36 0 57 -26t13 -62l-14 -70l454 444q62 59 114 82t85.5 18t69.5 -28q34 -22 36.5 -82.5t-36.5 -112.5l-66 -96l709 2q71 0 103.5 -37t21.5 -100zM1991 887q62 0 69 47q10 49 -49 49l-780 -6q-143 -143 -176 -178q-15 -18 -35.5 -23.5t-34.5 6.5
q-10 6 -9.5 24t11.5 32l264 282q29 31 45.5 52.5t29 45.5t8.5 41.5t-25 30.5q-8 5 -16 7t-17.5 -0.5t-17 -5.5t-19 -12t-18.5 -14.5t-22 -18t-23 -19.5l-537 -508l-94 -453l495 2q-5 38 15.5 84t60.5 56q-57 26 -41 102q11 46 47 83.5t101 45.5q-23 16 -17 74q8 69 60 116
t139 48zM1636 674q54 6 66 49q19 72 -64 72l-235 2q-43 0 -69.5 -20.5t-28.5 -51.5q-2 -24 12 -37.5t45 -13.5h274zM1493 461q59 6 68 61q6 56 -54 56l-258 4q-68 0 -82 -70q-6 -27 9.5 -41t44.5 -14zM1341 274q38 1 53.5 15t20.5 41q4 23 -6 33t-37 8l-176 -6
q-37 -2 -53.5 -13.5t-22.5 -40.5q-9 -44 62 -41z" />
    <glyph glyph-name="diamond" unicode="&#x2666;" horiz-adv-x="1325" 
d="M649 -51l-338 747l656 748l342 -748z" />
    <glyph glyph-name="uni267C" unicode="&#x267c;" horiz-adv-x="1777" 
d="M885 -18q-196 0 -343 97t-209 264t-20 364q41 196 174 363t321 264.5t384 97.5q99 0 187.5 -26t157.5 -73.5t122.5 -113.5t82 -146.5t36.5 -173t-15 -192.5q-42 -197 -174 -364t-319.5 -264t-384.5 -97zM899 831l199 256q21 17 30 -4l54 -141l-90 -49l264 2l178 229
l-96 -51l-37 94q-11 26 -33 42.5t-38 20.5l-17 3l-330 2q-40 -4 -72.5 -21.5t-45.5 -33.5l-13 -15l-158 -200zM1069 127l21 100l110 2q31 1 61 15t44 28l14 13l227 286q24 36 31 70t3 50l-5 16l-76 198l-258 -131l92 -258q3 -9 -3.5 -15.5t-18.5 -6.5l-166 -2l18 94
l-180 -230zM666 227h231l55 267h-295q-11 2 -13 9.5t7 18.5l113 146l72 -47l-88 227l-263 -2l76 -49l-74 -97q-20 -27 -27.5 -57t-5.5 -47l3 -16l104 -287q16 -32 42.5 -48.5t44.5 -16.5z" />
    <glyph glyph-name="uni2713" unicode="&#x2713;" horiz-adv-x="1228" 
d="M1534 1444l147 -103l-905 -1060h-57l-223 440l166 145l139 -280z" />
    <glyph glyph-name="uni2B24" unicode="&#x2b24;" horiz-adv-x="1544" 
d="M1534 723q-35 -165 -146.5 -305t-269.5 -221.5t-323 -81.5t-288 81.5t-174 221.5t-16 305q34 165 145.5 305t269.5 221.5t323 81.5t287.5 -81.5t174 -221.5t17.5 -305z" />
    <glyph glyph-name="uniF6DD" unicode="&#xf6dd;" horiz-adv-x="2496" 
d="M1395 950q-34 -161 -144.5 -278t-289.5 -152l258 -520h-334l-230 506h-96l-106 -506h-285l299 1411h563q78 0 142 -18t106.5 -50t73 -76t42 -95t13.5 -107.5t-12 -114.5zM698 1159l-90 -424h228q114 0 182.5 59t87.5 150q20 90 -21.5 152.5t-138.5 62.5h-248zM2173 979
q92 0 169 -35t128 -100t69.5 -157.5t-6.5 -207.5q-32 -149 -122 -264t-207.5 -174t-241.5 -59q-89 0 -167.5 34.5t-111.5 100.5l-124 -586h-269l303 1423h269l-25 -112q62 67 155 102t181 35zM1964 233q102 0 188.5 70.5t108.5 175.5q23 104 -34 176t-159 72
q-101 0 -189.5 -71t-111.5 -177q-22 -106 38.5 -176t158.5 -70z" />
    <glyph glyph-name="centsuperior" unicode="&#xf6e0;" horiz-adv-x="616" 
d="M598 1219q34 0 66.5 15t54.5 40l98 -88q-89 -102 -219 -117l-27 -127h-90l29 129q-98 20 -149 92.5t-29 177.5q23 107 105.5 180t187.5 91l26 131h90l-26 -129q120 -15 170 -117l-137 -86q-10 24 -37.5 38.5t-61.5 14.5q-56 0 -98 -35t-53 -88q-11 -52 16.5 -87t83.5 -35
z" />
    <glyph glyph-name="commasuperior" unicode="&#xf6e2;" horiz-adv-x="376" 
d="M319 903l-88 37q72 77 104.5 135.5t45.5 151.5h154q-14 -101 -74 -186t-142 -138z" />
    <glyph glyph-name="periodsuperior" unicode="&#xf6e8;" horiz-adv-x="344" 
d="M397 1067q-42 0 -66 28.5t-14 71.5q9 42 45 71.5t78 29.5t67.5 -29.5t16.5 -71.5q-10 -43 -47.5 -71.5t-79.5 -28.5z" />
    <glyph glyph-name="uniF8FF" unicode="&#xf8ff;" horiz-adv-x="2009" 
d="M164 0v1434h1681v-1434h-1681zM1067 752q25 0 33 14h2l4 -12h16v149h-22v-39q0 -10 2 -18h-2q-10 16 -31 16q-22 0 -33 -14q-10 -17 -10 -41t10 -41q11 -14 31 -14zM1378 889q0 -6 2 -10q2 -2 11 -2q8 0 10 2q2 4 2 10t-2 10q-2 2 -10 2q-9 0 -11 -2q-2 -4 -2 -10z
M412 754l41 116h2q0 -8 -2 -20v-96h22v141h-33l-41 -113l-39 113h-32v-141h20v67q0 33 -2 51h2l41 -118h21zM780 770q-8 0 -10 4q-4 2 -4 12v58h31v16h-31v25h-14l-9 -23l-16 -8v-10h16v-60q0 -32 31 -32h12q2 1 6 2t5 2v16q-4 -2 -17 -2zM610 807q0 24 -14 41
q-11 14 -37 14q-25 0 -39 -14q-12 -15 -12 -41q0 -17 6 -29q6 -14 18 -20q9 -6 27 -6q26 0 37 14q14 18 14 41zM713 784q0 5 -4 13q-1 2 -9 10q-13 7 -20 8q-5 2 -21 10q-4 4 -4 9q0 10 19 10q10 0 28 -6l9 16q-16 8 -37 8q-20 0 -31 -8q-10 -7 -10 -20t6 -19q5 -7 25 -14
l16 -8q6 0 6 -5q4 -4 4 -8q0 -12 -22 -12q-11 0 -35 8v-18q12 -6 35 -6q21 0 32 8q13 10 13 24zM905 754v71q0 21 -10 29q-8 8 -31 8q-12 0 -18 -2q-14 -4 -21 -8l9 -16q6 6 14 6q6 2 16 2q13 0 15 -4q4 -4 4 -17v-4l-19 -2q-26 0 -37 -8q-12 -9 -12 -25t8 -24t25 -8
q16 0 20 2q9 6 17 14l6 -14h14zM997 862q-12 0 -18 -6q-12 -8 -14 -14h-2l-2 18h-19v-106h23v55q0 10 8 22q11 11 22 11q7 0 11 -2l2 22h-11zM1206 752h21l16 6v18l-18 -6q-2 0 -8 -1t-9 -1q-15 0 -22 10q-8 5 -8 23h71v12q0 25 -12 37t-35 12q-24 0 -35 -14
q-14 -14 -14 -43q0 -25 14 -39t39 -14zM1350 784q0 9 -2 13q-1 2 -9 10q-13 7 -20 8q-5 2 -21 10q-4 4 -4 9q0 10 19 10q10 0 28 -6l9 16q-16 8 -37 8q-20 0 -31 -8q-10 -7 -10 -20t6 -19q5 -7 25 -14l16 -8q6 0 6 -5q2 -2 2 -8q0 -12 -20 -12q-11 0 -35 8v-18q12 -6 35 -6
q21 0 32 8t11 24zM1493 860q-1 0 -3.5 1t-4.5 1h-10q-21 0 -31 -10q-12 -9 -12 -27q0 -12 6 -18q6 -9 14 -12q-2 -1 -10 -9q-4 -4 -4 -10l2 -8q3 -6 8 -6q-8 -2 -16 -10q-7 -7 -7 -17q0 -14 11 -22q16 -8 34 -8q26 0 43 10q15 9 15 28q0 15 -8 23q-9 6 -29 6h-18q-3 0 -8 1
l-5 1q-4 4 -4 6q0 7 8 11h11q19 0 30 8q13 10 13 26q0 2 -1 6t-1 5q-3 6 -5 8l19 4v12h-37zM1649 823q0 39 -39 39q-9 0 -21 -4q-8 -3 -14 -12l-4 14h-19v-106h25v53q0 20 6 29q5 8 21 8q10 0 16 -6q4 -4 4 -19v-65h25v69zM1403 860h-25v-106h25v106zM1454 825q0 11 6 17
q3 6 15 6q11 0 14 -6q6 -6 6 -17q0 -20 -20 -20q-7 0 -15 4q-6 6 -6 16zM1202 846q9 0 17 -8t8 -21h-49q0 16 8 21q8 8 16 8zM530 807q0 18 9 27q7 10 20 10q27 0 27 -37t-27 -37q-29 0 -29 37zM1073 770q-13 0 -18 8q-6 9 -6 29q0 18 6 27q7 10 18 10q16 0 21 -8
q8 -8 8 -29v-4q0 -20 -8 -25q-5 -8 -21 -8zM856 768q-8 0 -12 4q-4 2 -4 12q0 9 6 15q12 4 24 4l13 2v-10q0 -13 -6 -19q-8 -8 -21 -8zM1446 735q0 11 4 15q8 4 16 4h17q14 0 18 -4q6 -3 6 -11q0 -9 -10 -12q-9 -6 -27 -6q-10 0 -18 4q-6 3 -6 10zM1391 512q20 0 30 16h2
l4 -14h17v152h-23v-39q0 -1 1 -8t1 -11q-12 15 -32 15q-21 0 -33 -15q-10 -17 -10 -41t10 -41q11 -14 33 -14zM379 637h43v18h-107v-18h41v-123h23v123zM883 573h53v19h-53v45h57v18h-80v-141h23v59zM471 514l-4 -10q-6 -19 -23 -19h-12v-16q6 -2 14 -2q32 0 43 33l46 123
h-25q-6 -20 -11.5 -36.5t-9.5 -26.5l-4 -11q-2 -4 -2 -12h-2q0 12 -6 24l-22 62h-25zM610 512q17 0 31 14q12 15 12 41q0 29 -12 41q-9 15 -31 15q-21 0 -32 -17l-5 17h-18v-156h23v59q11 -14 32 -14zM731 512q13 0 19 2q10 0 16 6v19q-10 -7 -16 -7q-6 -2 -19 -2t-22 9
q-9 13 -9 24h72v12q0 23 -12 35q-13 13 -33 13q-25 0 -37 -15t-12 -41t12 -41q14 -14 41 -14zM1063 567q0 27 -14 41q-12 15 -37 15t-37 -15q-14 -11 -14 -41q0 -16 6 -28t18 -21q12 -6 27 -6q23 0 37 14t14 41zM1186 514v109h-23v-56q0 -19 -6 -28q-9 -9 -20 -9
q-10 0 -17 7q-6 6 -6 18v68h-22v-72q0 -19 10 -29t28 -10q9 0 21 4q11 7 14 12l4 -14h17zM1317 584q0 39 -37 39q-12 0 -20 -5q-8 -2 -15 -10l-4 15h-18v-109h22v53q0 17 8 29q5 8 21 8q10 0 16 -6q4 -8 4 -18v-66h23v70zM1536 623q-10 0 -18 -5t-15 -16l-4 21h-18v-109h22
v55q0 15 10 25q5 8 21 8h10l2 21h-10zM1597 514l-4 -10q-6 -19 -22 -19h-12v-16q6 -2 14 -2q32 0 43 33l45 123h-25q-9 -30 -24 -74q-2 -4 -2 -12h-2q0 12 -6 24l-23 62h-25zM727 606q10 0 16 -6q7 -10 7 -20h-50q3 10 9 20q6 6 18 6zM604 604q14 0 19 -8q6 -9 6 -29
q0 -17 -6 -26q-7 -11 -19 -11q-13 0 -20 11q-6 6 -6 26v4q0 19 6 25q5 8 20 8zM985 567q0 20 6 29q5 8 21 8q26 0 26 -37t-26 -37q-27 0 -27 37zM1397 530q-14 0 -21 11q-6 9 -6 26t6 29q8 8 19 8q14 0 22 -8q6 -9 6 -29v-2q0 -17 -6 -26q-9 -9 -20 -9z" />
    <glyph glyph-name="IJ.alt" horiz-adv-x="1497" 
d="M172 0l299 1411h285l-299 -1411h-285zM877 -18q-100 0 -195 32l82 258q56 -22 168 -22q89 0 144 57.5t75 149.5l203 954h284l-202 -954q-21 -100 -64 -183.5t-110 -150t-165.5 -104t-219.5 -37.5z" />
    <glyph glyph-name="J.alt" horiz-adv-x="847" 
d="M225 -18q-100 0 -192 32l80 258q56 -22 168 -22q89 0 144 57.5t75 149.5l202 954h285l-203 -954q-21 -101 -64 -184t-109.5 -149.5t-165 -104t-220.5 -37.5z" />
    <glyph glyph-name="Jcircumflex.alt" horiz-adv-x="847" 
d="M518 1569l297 342h270l152 -342h-201l-121 180l-198 -180h-199zM225 -18q-100 0 -192 32l80 258q56 -22 168 -22q89 0 144 57.5t75 149.5l202 954h285l-203 -954q-21 -101 -64 -184t-109.5 -149.5t-165 -104t-220.5 -37.5z" />
    <glyph glyph-name="W.alt" horiz-adv-x="1873" 
d="M1825 1411h317l-719 -1411h-239l-60 883l-434 -883h-239l-121 1411h317l47 -876l414 827h235l62 -827z" />
    <glyph glyph-name="Wacute.alt" horiz-adv-x="1873" 
d="M1714 1911l-342 -342h-196l266 342h272zM1825 1411h317l-719 -1411h-239l-60 883l-434 -883h-239l-121 1411h317l47 -876l414 827h235l62 -827z" />
    <glyph glyph-name="Wcircumflex.alt" horiz-adv-x="1873" 
d="M1307 1749l-197 -180h-201l299 342h269l151 -342h-201zM1825 1411h317l-719 -1411h-239l-60 883l-434 -883h-239l-121 1411h317l47 -876l414 827h235l62 -827z" />
    <glyph glyph-name="Wdieresis.alt" horiz-adv-x="1873" 
d="M1067 1602q-60 0 -94.5 39.5t-22.5 97.5t62.5 97.5t111.5 39.5q59 0 92 -39.5t21 -97.5t-61.5 -97.5t-108.5 -39.5zM1491 1602q-60 0 -94.5 39.5t-22.5 97.5t62.5 97.5t111.5 39.5q60 0 93.5 -39.5t21.5 -97.5t-62 -97.5t-110 -39.5zM1825 1411h317l-719 -1411h-239
l-60 883l-434 -883h-239l-121 1411h317l47 -876l414 827h235l62 -827z" />
    <glyph glyph-name="Wgrave.alt" horiz-adv-x="1873" 
d="M1372 1569h-198l-193 342h272zM1825 1411h317l-719 -1411h-239l-60 883l-434 -883h-239l-121 1411h317l47 -876l414 827h235l62 -827z" />
    <glyph glyph-name="A.c2sc" horiz-adv-x="1212" 
d="M922 0l-37 276h-443l-151 -276h-289l707 1184h295l204 -1184h-286zM569 510h283l-53 414z" />
    <glyph glyph-name="Aacute.c2sc" horiz-adv-x="1212" 
d="M1274 1618l-299 -295h-178l229 295h248zM922 0l-37 276h-443l-151 -276h-289l707 1184h295l204 -1184h-286zM569 510h283l-53 414z" />
    <glyph glyph-name="Abreve.c2sc" horiz-adv-x="1212" 
d="M893 1350q-118 0 -166.5 66t-28.5 159h152q-18 -90 72 -90q43 0 68.5 25t33.5 65h156q-22 -101 -102 -163t-185 -62zM922 0l-37 276h-443l-151 -276h-289l707 1184h295l204 -1184h-286zM569 510h283l-53 414z" />
    <glyph glyph-name="uni01CD.c2sc" horiz-adv-x="1212" 
d="M1012 1323h-254l-135 295h182l108 -156l174 156h183zM922 0l-37 276h-443l-151 -276h-289l707 1184h295l204 -1184h-286zM569 510h283l-53 414z" />
    <glyph glyph-name="Acircumflex.c2sc" horiz-adv-x="1212" 
d="M918 1475l-175 -152h-182l258 295h254l135 -295h-182zM922 0l-37 276h-443l-151 -276h-289l707 1184h295l204 -1184h-286zM569 510h283l-53 414z" />
    <glyph glyph-name="Adieresis.c2sc" horiz-adv-x="1212" 
d="M705 1354q-54 0 -84.5 36t-20.5 87q11 50 56.5 85t99.5 35t83.5 -35t18.5 -85q-11 -51 -55 -87t-98 -36zM1083 1354q-55 0 -86 36t-20 87q11 50 57 85t101 35q53 0 82.5 -35.5t19.5 -84.5q-10 -51 -55.5 -87t-98.5 -36zM922 0l-37 276h-443l-151 -276h-289l707 1184h295
l204 -1184h-286zM569 510h283l-53 414z" />
    <glyph glyph-name="Agrave.c2sc" horiz-adv-x="1212" 
d="M981 1323h-176l-178 295h247zM922 0l-37 276h-443l-151 -276h-289l707 1184h295l204 -1184h-286zM569 510h283l-53 414z" />
    <glyph glyph-name="Amacron.c2sc" horiz-adv-x="1212" 
d="M1182 1534l-33 -148h-502l33 148h502zM922 0l-37 276h-443l-151 -276h-289l707 1184h295l204 -1184h-286zM569 510h283l-53 414z" />
    <glyph glyph-name="Aogonek.c2sc" horiz-adv-x="1212" 
d="M948 -248q68 0 86 86h129q-22 -101 -91.5 -153t-153.5 -52q-76 0 -118.5 50.5t-25.5 126.5q9 54 37 86l104 139l-30 241h-443l-151 -276h-289l707 1184h295l204 -1184h-188l-105 -147q-10 -15 -14 -39q-6 -28 7.5 -45t39.5 -17zM569 510h283l-53 414z" />
    <glyph glyph-name="Aring.c2sc" horiz-adv-x="1212" 
d="M879 1300q-91 0 -142.5 62t-31.5 151q19 89 97 152.5t169 63.5q92 0 144.5 -63.5t33.5 -152.5q-20 -89 -99 -151t-171 -62zM948 1626q-46 0 -87 -33t-50 -80q-10 -47 16.5 -78.5t73.5 -31.5q48 0 90.5 32t52.5 78q9 47 -19.5 80t-76.5 33zM922 0l-37 276h-443l-151 -276
h-289l707 1184h295l204 -1184h-286zM569 510h283l-53 414z" />
    <glyph glyph-name="Aringacute.c2sc" horiz-adv-x="1212" 
d="M879 1300q-91 0 -142.5 62t-31.5 151q13 65 61.5 118.5t114.5 78.5l129 164h247l-190 -170q50 -26 72 -77t10 -114q-20 -89 -99 -151t-171 -62zM901 1403q48 0 90.5 32t52.5 78q9 47 -19.5 80t-76.5 33q-46 0 -87 -33t-50 -80q-10 -47 16.5 -78.5t73.5 -31.5zM922 0
l-37 276h-443l-151 -276h-289l707 1184h295l204 -1184h-286zM569 510h283l-53 414z" />
    <glyph glyph-name="Atilde.c2sc" horiz-adv-x="1212" 
d="M831 1427q-16 0 -36 -18t-29 -55h-127q30 114 93 167.5t130 53.5q32 0 58 -18t46.5 -36t37.5 -18q13 0 32 18t27 54h129q-15 -59 -41.5 -103.5t-58.5 -68t-62 -34.5t-59 -11q-32 0 -58 17t-46 34.5t-36 17.5zM922 0l-37 276h-443l-151 -276h-289l707 1184h295l204 -1184
h-286zM569 510h283l-53 414z" />
    <glyph glyph-name="AE.c2sc" horiz-adv-x="1697" 
d="M1114 238h531l-50 -238h-798l55 266h-365l-190 -266h-324l895 1184h961l-49 -238h-514l-54 -248h451l-49 -229h-451zM659 502h242l94 444h-14z" />
    <glyph glyph-name="AEacute.c2sc" horiz-adv-x="1697" 
d="M1518 1618l-301 -295h-177l230 295h248zM1114 238h531l-50 -238h-798l55 266h-365l-190 -266h-324l895 1184h961l-49 -238h-514l-54 -248h451l-49 -229h-451zM659 502h242l94 444h-14z" />
    <glyph glyph-name="B.c2sc" horiz-adv-x="1175" 
d="M983 631q112 -16 155.5 -99t20.5 -192q-14 -64 -48.5 -122t-90.5 -108t-141.5 -80t-188.5 -30h-530l250 1184h493q166 0 249.5 -86t55.5 -219q-17 -79 -71.5 -149.5t-153.5 -98.5zM838 946h-207l-49 -225h204q55 0 93.5 30t48.5 83q10 49 -11.5 80.5t-78.5 31.5zM707 236
q74 0 123.5 39t60.5 92q10 54 -21 93.5t-108 39.5h-227l-56 -264h228z" />
    <glyph glyph-name="C.c2sc" horiz-adv-x="1282" 
d="M707 -14q-171 0 -298 81.5t-180 221.5t-18 305q35 164 148 302.5t274 220t332 81.5q157 0 276.5 -70.5t179.5 -191.5l-241 -148q-72 154 -260 154q-157 0 -281.5 -100.5t-155.5 -247.5q-31 -149 49.5 -250.5t239.5 -101.5q189 0 326 153l176 -147
q-109 -121 -259.5 -191.5t-307.5 -70.5z" />
    <glyph glyph-name="Cacute.c2sc" horiz-adv-x="1282" 
d="M831 1323l230 295h248l-299 -295h-179zM707 -14q-171 0 -298 81.5t-180 221.5t-18 305q35 164 148 302.5t274 220t332 81.5q157 0 276.5 -70.5t179.5 -191.5l-241 -148q-72 154 -260 154q-157 0 -281.5 -100.5t-155.5 -247.5q-31 -149 49.5 -250.5t239.5 -101.5
q189 0 326 153l176 -147q-109 -121 -259.5 -191.5t-307.5 -70.5z" />
    <glyph glyph-name="Ccaron.c2sc" horiz-adv-x="1282" 
d="M854 1323l-135 295h182l109 -156l174 156h182l-258 -295h-254zM707 -14q-171 0 -298 81.5t-180 221.5t-18 305q35 164 148 302.5t274 220t332 81.5q157 0 276.5 -70.5t179.5 -191.5l-241 -148q-72 154 -260 154q-157 0 -281.5 -100.5t-155.5 -247.5q-31 -149 49.5 -250.5
t239.5 -101.5q189 0 326 153l176 -147q-109 -121 -259.5 -191.5t-307.5 -70.5z" />
    <glyph glyph-name="Ccedilla.c2sc" horiz-adv-x="1282" 
d="M772 242q189 0 326 153l176 -147q-100 -109 -233.5 -178t-276.5 -82l33 -92q9 -35 0 -86q-17 -75 -82 -126t-140 -51q-85 0 -131 52t-24 153h129q-18 -86 47 -86q27 0 48.5 17t27.5 45q4 26 0 39l-39 137q-151 17 -259 101.5t-151.5 217t-11.5 285.5q35 164 148 302.5
t274 220t332 81.5q157 0 276.5 -70.5t179.5 -191.5l-241 -148q-72 154 -260 154q-157 0 -281.5 -100.5t-155.5 -247.5q-31 -149 49.5 -250.5t239.5 -101.5z" />
    <glyph glyph-name="Cdotaccent.c2sc" horiz-adv-x="1282" 
d="M989 1337q-59 0 -90.5 38t-19.5 98q12 56 60.5 93.5t107.5 37.5t91.5 -37t20.5 -94q-12 -59 -61 -97.5t-109 -38.5zM707 -14q-171 0 -298 81.5t-180 221.5t-18 305q35 164 148 302.5t274 220t332 81.5q157 0 276.5 -70.5t179.5 -191.5l-241 -148q-72 154 -260 154
q-157 0 -281.5 -100.5t-155.5 -247.5q-31 -149 49.5 -250.5t239.5 -101.5q189 0 326 153l176 -147q-109 -121 -259.5 -191.5t-307.5 -70.5z" />
    <glyph glyph-name="D.c2sc" horiz-adv-x="1296" 
d="M160 0l250 1184h485q104 0 187.5 -29.5t138 -83t88 -127.5t37 -163t-16.5 -191q-27 -126 -88 -234t-148.5 -187t-203 -124t-244.5 -45h-485zM479 236h215q134 0 233 104t130 250q17 68 10 132.5t-30.5 114t-73 79.5t-117.5 30h-215z" />
    <glyph glyph-name="Eth.c2sc" horiz-adv-x="1316" 
d="M915 1184q173 0 285 -79t149 -212.5t1 -302.5q-56 -259 -240.5 -424.5t-443.5 -165.5h-486l103 487h-133l40 195h134l106 502h485zM715 236q135 0 233 104t129 250q17 68 10 132.5t-30 114t-72.5 79.5t-118.5 30h-215l-57 -264h213l-41 -195h-213l-53 -251h215z" />
    <glyph glyph-name="Dcaron.c2sc" horiz-adv-x="1296" 
d="M741 1323l-133 295h180l109 -156l176 156h182l-260 -295h-254zM160 0l250 1184h485q104 0 187.5 -29.5t138 -83t88 -127.5t37 -163t-16.5 -191q-27 -126 -88 -234t-148.5 -187t-203 -124t-244.5 -45h-485zM479 236h215q134 0 233 104t130 250q17 68 10 132.5t-30.5 114
t-73 79.5t-117.5 30h-215z" />
    <glyph glyph-name="Dcroat.c2sc" horiz-adv-x="1316" 
d="M915 1184q173 0 285 -79t149 -212.5t1 -302.5q-56 -259 -240.5 -424.5t-443.5 -165.5h-486l103 487h-133l40 195h134l106 502h485zM715 236q135 0 233 104t129 250q17 68 10 132.5t-30 114t-72.5 79.5t-118.5 30h-215l-57 -264h213l-41 -195h-213l-53 -251h215z" />
    <glyph glyph-name="E.c2sc" horiz-adv-x="1062" 
d="M479 236h531l-49 -236h-801l250 1184h784l-49 -238h-514l-53 -244h450l-49 -239h-451z" />
    <glyph glyph-name="Eacute.c2sc" horiz-adv-x="1062" 
d="M1202 1618l-301 -295h-176l227 295h250zM479 236h531l-49 -236h-801l250 1184h784l-49 -238h-514l-53 -244h450l-49 -239h-451z" />
    <glyph glyph-name="Ecaron.c2sc" horiz-adv-x="1062" 
d="M940 1323h-256l-133 295h180l111 -156l174 156h182zM479 236h531l-49 -236h-801l250 1184h784l-49 -238h-514l-53 -244h450l-49 -239h-451z" />
    <glyph glyph-name="Ecircumflex.c2sc" horiz-adv-x="1062" 
d="M846 1475l-176 -152h-181l256 295h256l136 -295h-183zM479 236h531l-49 -236h-801l250 1184h784l-49 -238h-514l-53 -244h450l-49 -239h-451z" />
    <glyph glyph-name="Edieresis.c2sc" horiz-adv-x="1062" 
d="M631 1354q-54 0 -84.5 36t-20.5 87q11 50 56.5 85t99.5 35t84.5 -35t19.5 -85q-11 -51 -56 -87t-99 -36zM1010 1354q-54 0 -84.5 36t-20.5 87q11 50 56.5 85t99.5 35t83.5 -35t18.5 -85q-11 -51 -55 -87t-98 -36zM479 236h531l-49 -236h-801l250 1184h784l-49 -238h-514
l-53 -244h450l-49 -239h-451z" />
    <glyph glyph-name="Edotaccent.c2sc" horiz-adv-x="1062" 
d="M815 1337q-59 0 -90.5 38t-19.5 98q12 57 60 94t107 37t92 -37.5t21 -93.5q-12 -59 -61 -97.5t-109 -38.5zM479 236h531l-49 -236h-801l250 1184h784l-49 -238h-514l-53 -244h450l-49 -239h-451z" />
    <glyph glyph-name="Egrave.c2sc" horiz-adv-x="1062" 
d="M907 1323h-174l-178 295h248zM479 236h531l-49 -236h-801l250 1184h784l-49 -238h-514l-53 -244h450l-49 -239h-451z" />
    <glyph glyph-name="Emacron.c2sc" horiz-adv-x="1062" 
d="M1110 1534l-33 -148h-502l33 148h502zM479 236h531l-49 -236h-801l250 1184h784l-49 -238h-514l-53 -244h450l-49 -239h-451z" />
    <glyph glyph-name="Eogonek.c2sc" horiz-adv-x="1062" 
d="M766 0l-104 -147q-10 -19 -13 -39q-6 -28 7.5 -45t39.5 -17q68 0 86 86h127q-22 -101 -90.5 -153t-152.5 -52q-75 0 -119 51t-27 126q9 52 39 86l80 104h-479l250 1184h784l-49 -238h-514l-53 -244h450l-49 -239h-451l-49 -227h531l-49 -236h-195z" />
    <glyph glyph-name="F.c2sc" horiz-adv-x="1003" 
d="M1133 946h-502l-53 -248h397l-49 -233h-398l-98 -465h-270l250 1184h772z" />
    <glyph glyph-name="G.c2sc" horiz-adv-x="1378" 
d="M713 -14q-174 0 -302 81.5t-182 220t-18 302.5q36 166 148.5 306t275 222t336.5 82q141 0 251 -55t173 -150l-236 -168q-84 121 -241 121q-152 0 -278 -104t-157 -254q-31 -147 50 -256t231 -109q112 0 201 41.5t131 116.5q10 16 14 29h-348l47 215h643
q-36 -165 -107 -289t-168 -200.5t-213 -114t-251 -37.5z" />
    <glyph glyph-name="Gbreve.c2sc" horiz-adv-x="1378" 
d="M975 1350q-116 0 -165.5 66t-29.5 159h154q-9 -45 7.5 -67.5t62.5 -22.5q43 0 68.5 25t33.5 65h156q-22 -101 -102 -163t-185 -62zM713 -14q-174 0 -302 81.5t-182 220t-18 302.5q36 166 148.5 306t275 222t336.5 82q141 0 251 -55t173 -150l-236 -168q-84 121 -241 121
q-152 0 -278 -104t-157 -254q-31 -147 50 -256t231 -109q112 0 201 41.5t131 116.5q10 16 14 29h-348l47 215h643q-36 -165 -107 -289t-168 -200.5t-213 -114t-251 -37.5z" />
    <glyph glyph-name="Gcommaaccent.c2sc" horiz-adv-x="1378" 
d="M713 -14q-174 0 -302 81.5t-182 220t-18 302.5q36 166 148.5 306t275 222t336.5 82q141 0 251 -55t173 -150l-236 -168q-84 121 -241 121q-152 0 -278 -104t-157 -254q-31 -147 50 -256t231 -109q112 0 201 41.5t131 116.5q10 16 14 29h-348l47 215h643
q-36 -165 -107 -289t-168 -200.5t-213 -114t-251 -37.5zM520 -408l-108 66q107 90 139 274h235q-19 -96 -95.5 -189t-170.5 -151z" />
    <glyph glyph-name="Gdotaccent.c2sc" horiz-adv-x="1378" 
d="M971 1337q-60 0 -92.5 38t-20.5 98q12 57 61 94t109 37q59 0 91 -37t20 -94q-12 -59 -60.5 -97.5t-107.5 -38.5zM713 -14q-174 0 -302 81.5t-182 220t-18 302.5q36 166 148.5 306t275 222t336.5 82q141 0 251 -55t173 -150l-236 -168q-84 121 -241 121q-152 0 -278 -104
t-157 -254q-31 -147 50 -256t231 -109q112 0 201 41.5t131 116.5q10 16 14 29h-348l47 215h643q-36 -165 -107 -289t-168 -200.5t-213 -114t-251 -37.5z" />
    <glyph glyph-name="H.c2sc" horiz-adv-x="1284" 
d="M1104 1184h270l-250 -1184h-270l98 467h-424l-98 -467h-270l250 1184h270l-100 -475h424z" />
    <glyph glyph-name="Hbar.c2sc" horiz-adv-x="1314" 
d="M1483 1008l-29 -134h-131l-184 -874h-271l99 467h-422l-99 -467h-270l184 874h-131l29 134h131l37 176h270l-37 -176h422l37 176h271l-37 -176h131zM1018 709l35 165h-422l-35 -165h422z" />
    <glyph glyph-name="I.c2sc" horiz-adv-x="589" 
d="M160 0l250 1184h270l-250 -1184h-270z" />
    <glyph glyph-name="IJ.c2sc" horiz-adv-x="1150" 
d="M160 0l250 1184h270l-250 -1184h-270zM496 -406q-95 0 -177 31l78 244q49 -21 154 -21q68 0 110.5 42t55.5 108l252 1186h270l-252 -1186q-18 -85 -55 -155.5t-95.5 -127.5t-145.5 -89t-195 -32z" />
    <glyph glyph-name="Iacute.c2sc" horiz-adv-x="589" 
d="M487 1323l230 295h248l-301 -295h-177zM160 0l250 1184h270l-250 -1184h-270z" />
    <glyph glyph-name="uni01CF.c2sc" horiz-adv-x="589" 
d="M449 1323l-136 295h181l108 -156l176 156h183l-259 -295h-253zM160 0l250 1184h270l-250 -1184h-270z" />
    <glyph glyph-name="Icircumflex.c2sc" horiz-adv-x="589" 
d="M252 1323l258 295h254l135 -295h-182l-111 152l-174 -152h-180zM160 0l250 1184h270l-250 -1184h-270z" />
    <glyph glyph-name="Idieresis.c2sc" horiz-adv-x="589" 
d="M393 1354q-53 0 -83.5 36t-20.5 87q10 49 56 84.5t99 35.5q54 0 85 -35t20 -85q-10 -51 -56 -87t-100 -36zM772 1354q-55 0 -86 36t-20 87q11 50 56.5 85t100.5 35q53 0 83 -35.5t20 -84.5q-10 -51 -55.5 -87t-98.5 -36zM160 0l250 1184h270l-250 -1184h-270z" />
    <glyph glyph-name="Idotaccent.c2sc" horiz-adv-x="589" 
d="M578 1337q-59 0 -91 38.5t-20 97.5q12 56 60.5 93.5t107.5 37.5t92 -37.5t21 -93.5q-12 -59 -61 -97.5t-109 -38.5zM160 0l250 1184h270l-250 -1184h-270z" />
    <glyph glyph-name="Igrave.c2sc" horiz-adv-x="589" 
d="M494 1323l-177 295h248l107 -295h-178zM160 0l250 1184h270l-250 -1184h-270z" />
    <glyph glyph-name="Imacron.c2sc" horiz-adv-x="589" 
d="M338 1386l33 148h501l-32 -148h-502zM160 0l250 1184h270l-250 -1184h-270z" />
    <glyph glyph-name="Iogonek.c2sc" horiz-adv-x="591" 
d="M299 -162h127q-22 -101 -90.5 -153t-153.5 -52q-75 0 -118.5 51t-26.5 126q8 49 39 86l86 114l250 1174h270l-250 -1184h-147l-107 -147q-11 -22 -14 -39q-6 -28 8.5 -45t40.5 -17q68 0 86 86z" />
    <glyph glyph-name="Itilde.c2sc" horiz-adv-x="589" 
d="M328 1354q20 78 60.5 130t81 71.5t81.5 19.5q26 0 48.5 -11.5t35.5 -24.5t28.5 -24.5t28.5 -11.5q16 0 35.5 17.5t28.5 54.5h127q-15 -59 -42.5 -103.5t-59.5 -68t-62.5 -34.5t-59.5 -11q-24 0 -46 11t-35 23.5t-29 23.5t-29 11q-14 0 -34 -18t-29 -55h-129zM160 0
l250 1184h270l-250 -1184h-270z" />
    <glyph glyph-name="J.c2sc" horiz-adv-x="606" 
d="M-45 -406q-96 0 -176 31l76 244q54 -21 153 -21q68 0 110.5 42t55.5 108l252 1186h270l-252 -1186q-18 -84 -55 -155t-95 -128t-145 -89t-194 -32z" />
    <glyph glyph-name="Jcircumflex.c2sc" horiz-adv-x="606" 
d="M270 1323l256 295h254l135 -295h-180l-110 152l-174 -152h-181zM-45 -406q-96 0 -176 31l76 244q54 -21 153 -21q68 0 110.5 42t55.5 108l252 1186h270l-252 -1186q-18 -84 -55 -155t-95 -128t-145 -89t-194 -32z" />
    <glyph glyph-name="K.c2sc" horiz-adv-x="1138" 
d="M1157 0h-371l-276 381l-80 -381h-270l250 1184h270l-76 -363l354 363h338l-589 -586z" />
    <glyph glyph-name="Kcommaaccent.c2sc" horiz-adv-x="1138" 
d="M707 598l450 -598h-371l-276 381l-80 -381h-270l250 1184h270l-76 -363l354 363h338zM434 -68h236q-19 -96 -95.5 -189t-171.5 -151l-108 66q107 90 139 274z" />
    <glyph glyph-name="L.c2sc" horiz-adv-x="937" 
d="M160 0l250 1184h270l-201 -948h457l-49 -236h-727z" />
    <glyph glyph-name="Lacute.c2sc" horiz-adv-x="937" 
d="M449 1323l229 295h248l-301 -295h-176zM160 0l250 1184h270l-201 -948h457l-49 -236h-727z" />
    <glyph glyph-name="Lcaron.c2sc" horiz-adv-x="974" 
d="M160 0l250 1184h270l-201 -948h457l-49 -236h-727zM860 776l-96 62q75 81 114.5 156t63.5 190h197q-24 -83 -57.5 -151t-72.5 -116t-73 -80t-76 -61z" />
    <glyph glyph-name="Lcommaaccent.c2sc" horiz-adv-x="937" 
d="M160 0l250 1184h270l-201 -948h457l-49 -236h-727zM305 -408l-108 66q109 95 137 274h237q-21 -96 -96.5 -189t-169.5 -151z" />
    <glyph glyph-name="Lslash.c2sc" horiz-adv-x="964" 
d="M506 236h455l-50 -236h-725l90 428l-153 -82l33 154l153 82l127 602h271l-93 -436l201 108l-33 -154l-200 -108z" />
    <glyph glyph-name="M.c2sc" horiz-adv-x="1677" 
d="M1581 0h-276l57 674l-389 -537h-209l-166 537l-225 -674h-279l404 1184h227l209 -740l518 740h229z" />
    <glyph glyph-name="N.c2sc" horiz-adv-x="1247" 
d="M1065 1184h270l-250 -1184h-237l-275 680l-143 -680h-270l250 1184h247l267 -670z" />
    <glyph glyph-name="Nacute.c2sc" horiz-adv-x="1247" 
d="M1292 1618l-301 -295h-176l229 295h248zM1065 1184h270l-250 -1184h-237l-275 680l-143 -680h-270l250 1184h247l267 -670z" />
    <glyph glyph-name="Ncaron.c2sc" horiz-adv-x="1247" 
d="M1028 1323h-254l-133 295h180l109 -156l176 156h180zM1065 1184h270l-250 -1184h-237l-275 680l-143 -680h-270l250 1184h247l267 -670z" />
    <glyph glyph-name="Ncommaaccent.c2sc" horiz-adv-x="1247" 
d="M1065 1184h270l-250 -1184h-237l-275 680l-143 -680h-270l250 1184h247l267 -670zM348 -342q109 95 137 274h238q-21 -97 -97 -190t-171 -150z" />
    <glyph glyph-name="Eng.c2sc" horiz-adv-x="1247" 
d="M1065 1184h270l-250 -1184q-18 -85 -55.5 -156t-96.5 -128.5t-146 -89.5t-195 -32q-81 0 -176 31l76 246q51 -21 155 -21q69 0 111 41.5t57 108.5l10 57l-252 621l-143 -678h-270l250 1184h247l267 -668z" />
    <glyph glyph-name="Ntilde.c2sc" horiz-adv-x="1247" 
d="M848 1427q-15 0 -35 -18.5t-29 -54.5h-129q30 114 93.5 167.5t130.5 53.5q32 0 58.5 -18t46.5 -36t36 -18q14 0 33 17.5t28 54.5h129q-20 -78 -61 -129t-81.5 -69.5t-80.5 -18.5q-24 0 -46 11t-35 23.5t-29 23.5t-29 11zM1065 1184h270l-250 -1184h-237l-275 680
l-143 -680h-270l250 1184h247l267 -670z" />
    <glyph glyph-name="O.c2sc" horiz-adv-x="1427" 
d="M709 -14q-172 0 -299.5 81.5t-180.5 220.5t-18 304q36 165 148.5 304.5t274 221.5t333.5 82t299 -82t180 -221.5t18 -304.5q-36 -165 -148 -304t-273.5 -220.5t-333.5 -81.5zM762 240q155 0 278 101.5t154 250.5t-48.5 250.5t-234.5 101.5q-156 0 -276.5 -101
t-151.5 -251t46 -251t233 -101z" />
    <glyph glyph-name="Oacute.c2sc" horiz-adv-x="1427" 
d="M905 1323l230 295h247l-299 -295h-178zM709 -14q-172 0 -299.5 81.5t-180.5 220.5t-18 304q36 165 148.5 304.5t274 221.5t333.5 82t299 -82t180 -221.5t18 -304.5q-36 -165 -148 -304t-273.5 -220.5t-333.5 -81.5zM762 240q155 0 278 101.5t154 250.5t-48.5 250.5
t-234.5 101.5q-156 0 -276.5 -101t-151.5 -251t46 -251t233 -101z" />
    <glyph glyph-name="uni01D1.c2sc" horiz-adv-x="1427" 
d="M866 1323l-135 295h182l109 -156l174 156h182l-258 -295h-254zM709 -14q-172 0 -299.5 81.5t-180.5 220.5t-18 304q36 165 148.5 304.5t274 221.5t333.5 82t299 -82t180 -221.5t18 -304.5q-36 -165 -148 -304t-273.5 -220.5t-333.5 -81.5zM762 240q155 0 278 101.5
t154 250.5t-48.5 250.5t-234.5 101.5q-156 0 -276.5 -101t-151.5 -251t46 -251t233 -101z" />
    <glyph glyph-name="Ocircumflex.c2sc" horiz-adv-x="1427" 
d="M670 1323l258 295h254l135 -295h-182l-109 152l-174 -152h-182zM709 -14q-172 0 -299.5 81.5t-180.5 220.5t-18 304q36 165 148.5 304.5t274 221.5t333.5 82t299 -82t180 -221.5t18 -304.5q-36 -165 -148 -304t-273.5 -220.5t-333.5 -81.5zM762 240q155 0 278 101.5
t154 250.5t-48.5 250.5t-234.5 101.5q-156 0 -276.5 -101t-151.5 -251t46 -251t233 -101z" />
    <glyph glyph-name="Odieresis.c2sc" horiz-adv-x="1427" 
d="M813 1354q-54 0 -84.5 36t-19.5 87q11 50 56 85t99 35t84 -35t19 -85q-11 -51 -55.5 -87t-98.5 -36zM1192 1354q-55 0 -86.5 36t-20.5 87q11 50 57 85t101 35q53 0 83 -35.5t20 -84.5q-10 -51 -55.5 -87t-98.5 -36zM709 -14q-172 0 -299.5 81.5t-180.5 220.5t-18 304
q36 165 148.5 304.5t274 221.5t333.5 82t299 -82t180 -221.5t18 -304.5q-36 -165 -148 -304t-273.5 -220.5t-333.5 -81.5zM762 240q155 0 278 101.5t154 250.5t-48.5 250.5t-234.5 101.5q-156 0 -276.5 -101t-151.5 -251t46 -251t233 -101z" />
    <glyph glyph-name="Ograve.c2sc" horiz-adv-x="1427" 
d="M913 1323l-178 295h248l107 -295h-177zM709 -14q-172 0 -299.5 81.5t-180.5 220.5t-18 304q36 165 148.5 304.5t274 221.5t333.5 82t299 -82t180 -221.5t18 -304.5q-36 -165 -148 -304t-273.5 -220.5t-333.5 -81.5zM762 240q155 0 278 101.5t154 250.5t-48.5 250.5
t-234.5 101.5q-156 0 -276.5 -101t-151.5 -251t46 -251t233 -101z" />
    <glyph glyph-name="Ohungarumlaut.c2sc" horiz-adv-x="1427" 
d="M803 1323l223 295h180l-241 -295h-162zM1057 1323l246 295h184l-262 -295h-168zM709 -14q-172 0 -299.5 81.5t-180.5 220.5t-18 304q36 165 148.5 304.5t274 221.5t333.5 82t299 -82t180 -221.5t18 -304.5q-36 -165 -148 -304t-273.5 -220.5t-333.5 -81.5zM762 240
q155 0 278 101.5t154 250.5t-48.5 250.5t-234.5 101.5q-156 0 -276.5 -101t-151.5 -251t46 -251t233 -101z" />
    <glyph glyph-name="Omacron.c2sc" horiz-adv-x="1427" 
d="M756 1386l32 148h502l-33 -148h-501zM709 -14q-172 0 -299.5 81.5t-180.5 220.5t-18 304q36 165 148.5 304.5t274 221.5t333.5 82t299 -82t180 -221.5t18 -304.5q-36 -165 -148 -304t-273.5 -220.5t-333.5 -81.5zM762 240q155 0 278 101.5t154 250.5t-48.5 250.5
t-234.5 101.5q-156 0 -276.5 -101t-151.5 -251t46 -251t233 -101z" />
    <glyph glyph-name="Oslash.c2sc" horiz-adv-x="1431" 
d="M1405 985q110 -166 63 -393q-35 -165 -148 -304t-274.5 -220.5t-332.5 -81.5q-226 0 -367 135l-174 -141l-63 79l170 140q-113 171 -64 393q36 165 148 304.5t273.5 221.5t334.5 82q221 0 366 -135l170 139l68 -80zM485 592q-25 -120 19 -209l608 498q-75 63 -199 63
q-156 0 -276.5 -101t-151.5 -251zM764 240q156 0 278.5 101t153.5 251q25 120 -20 207l-607 -496q72 -63 195 -63z" />
    <glyph glyph-name="Oslashacute.c2sc" horiz-adv-x="1431" 
d="M1384 1618l-301 -295h-176l228 295h249zM1405 985q110 -166 63 -393q-35 -165 -148 -304t-274.5 -220.5t-332.5 -81.5q-226 0 -367 135l-174 -141l-63 79l170 140q-113 171 -64 393q36 165 148 304.5t273.5 221.5t334.5 82q221 0 366 -135l170 139l68 -80zM485 592
q-25 -120 19 -209l608 498q-75 63 -199 63q-156 0 -276.5 -101t-151.5 -251zM764 240q156 0 278.5 101t153.5 251q25 120 -20 207l-607 -496q72 -63 195 -63z" />
    <glyph glyph-name="Otilde.c2sc" horiz-adv-x="1427" 
d="M748 1354q20 78 60 130t80 71.5t81 19.5q26 0 48.5 -11.5t35.5 -24.5t28.5 -24.5t28.5 -11.5q15 0 34 18t27 54h129q-20 -78 -61 -129t-81.5 -69.5t-80.5 -18.5q-24 0 -46 11t-34.5 23.5t-28.5 23.5t-30 11q-13 0 -34 -18.5t-30 -54.5h-126zM709 -14q-172 0 -299.5 81.5
t-180.5 220.5t-18 304q36 165 148.5 304.5t274 221.5t333.5 82t299 -82t180 -221.5t18 -304.5q-36 -165 -148 -304t-273.5 -220.5t-333.5 -81.5zM762 240q155 0 278 101.5t154 250.5t-48.5 250.5t-234.5 101.5q-156 0 -276.5 -101t-151.5 -251t46 -251t233 -101z" />
    <glyph glyph-name="OE.c2sc" horiz-adv-x="1972" 
d="M1389 236h530l-49 -236h-799l23 111q-80 -62 -181 -93.5t-204 -31.5q-172 0 -299.5 81.5t-180.5 220.5t-18 304q36 165 148.5 304.5t274 221.5t333.5 82q218 0 331 -125l23 109h782l-49 -238h-514l-53 -244h450l-49 -239h-450zM762 240q155 0 278 101.5t154 250.5
t-48.5 250.5t-234.5 101.5q-156 0 -276.5 -101t-151.5 -251t46 -251t233 -101z" />
    <glyph glyph-name="P.c2sc" horiz-adv-x="1136" 
d="M915 1184q82 0 146.5 -22t103 -59.5t62.5 -88t25 -107t-9 -116.5q-17 -76 -56.5 -144.5t-99.5 -124t-147.5 -88.5t-189.5 -33h-236l-84 -401h-270l250 1184h505zM788 637q76 0 124 45t61 109q12 64 -15.5 109.5t-101.5 45.5h-225l-66 -309h223z" />
    <glyph glyph-name="Thorn.c2sc" horiz-adv-x="1138" 
d="M860 983q176 0 269.5 -106t56.5 -281q-38 -177 -178.5 -286t-315.5 -109h-221l-41 -201h-270l250 1184h270l-41 -201h221zM723 438q69 0 122 42.5t68 111.5q15 71 -20.5 113.5t-106.5 42.5h-198l-66 -310h201z" />
    <glyph glyph-name="Q.c2sc" horiz-adv-x="1427" 
d="M1464 590q-32 -150 -128.5 -279.5t-235.5 -214.5l78 -186l-217 -113l-82 205q-95 -20 -170 -20q-172 0 -299.5 82t-180.5 221.5t-18 304.5q35 166 148 305t274.5 220t333.5 81t299 -81t180 -220t18 -305zM762 238h18l-61 153l213 113l76 -189q147 103 186 275
q31 151 -48.5 251.5t-234.5 100.5q-157 0 -277 -100.5t-151 -251.5q-33 -150 45 -251t234 -101z" />
    <glyph glyph-name="R.c2sc" horiz-adv-x="1173" 
d="M780 0l-200 416h-62l-88 -416h-270l250 1184h499q69 0 126 -15.5t95.5 -42.5t66 -64.5t38.5 -81t13.5 -92t-9.5 -97.5q-29 -133 -124 -231t-247 -130l228 -430h-316zM631 946l-68 -317h187q90 0 147 45.5t70 109.5t-23 113t-117 49h-196z" />
    <glyph glyph-name="Racute.c2sc" horiz-adv-x="1173" 
d="M1253 1618l-301 -295h-176l230 295h247zM780 0l-200 416h-62l-88 -416h-270l250 1184h499q69 0 126 -15.5t95.5 -42.5t66 -64.5t38.5 -81t13.5 -92t-9.5 -97.5q-29 -133 -124 -231t-247 -130l228 -430h-316zM631 946l-68 -317h187q90 0 147 45.5t70 109.5t-23 113
t-117 49h-196z" />
    <glyph glyph-name="Rcaron.c2sc" horiz-adv-x="1173" 
d="M991 1323h-254l-133 295h180l109 -156l174 156h182zM780 0l-200 416h-62l-88 -416h-270l250 1184h499q69 0 126 -15.5t95.5 -42.5t66 -64.5t38.5 -81t13.5 -92t-9.5 -97.5q-29 -133 -124 -231t-247 -130l228 -430h-316zM631 946l-68 -317h187q90 0 147 45.5t70 109.5
t-23 113t-117 49h-196z" />
    <glyph glyph-name="Rcommaaccent.c2sc" horiz-adv-x="1173" 
d="M868 430l228 -430h-316l-200 416h-62l-88 -416h-270l250 1184h499q69 0 126 -15.5t95.5 -42.5t66 -64.5t38.5 -81t13.5 -92t-9.5 -97.5q-29 -133 -124 -231t-247 -130zM631 946l-68 -317h187q90 0 147 45.5t70 109.5t-23 113t-117 49h-196zM309 -342q108 91 140 274h235
q-21 -96 -96.5 -189t-169.5 -151z" />
    <glyph glyph-name="S.c2sc" horiz-adv-x="1077" 
d="M535 -14q-199 0 -300.5 100t-66.5 264h270q-12 -56 33 -94.5t121 -38.5t129 30.5t65 86.5q18 77 -116 121l-142 45q-61 17 -107.5 42t-74.5 54t-45.5 59.5t-23 63.5t-4.5 62t8 59q22 104 97 187t183 128t227 45q181 0 277.5 -100t60.5 -269h-270q11 57 -20.5 94.5
t-102.5 37.5q-66 0 -116.5 -33.5t-61.5 -81.5q-12 -76 104 -111l125 -37q34 -10 61.5 -20.5t58 -25.5t53 -31t45 -37t35 -45t23 -54.5t8 -64.5t-8.5 -76q-19 -92 -72 -163t-126 -113t-156 -63t-170 -21z" />
    <glyph glyph-name="Sacute.c2sc" horiz-adv-x="1077" 
d="M731 1323l227 295h250l-301 -295h-176zM535 -14q-199 0 -300.5 100t-66.5 264h270q-12 -56 33 -94.5t121 -38.5t129 30.5t65 86.5q18 77 -116 121l-142 45q-61 17 -107.5 42t-74.5 54t-45.5 59.5t-23 63.5t-4.5 62t8 59q22 104 97 187t183 128t227 45q181 0 277.5 -100
t60.5 -269h-270q11 57 -20.5 94.5t-102.5 37.5q-66 0 -116.5 -33.5t-61.5 -81.5q-12 -76 104 -111l125 -37q34 -10 61.5 -20.5t58 -25.5t53 -31t45 -37t35 -45t23 -54.5t8 -64.5t-8.5 -76q-19 -92 -72 -163t-126 -113t-156 -63t-170 -21z" />
    <glyph glyph-name="Scaron.c2sc" horiz-adv-x="1077" 
d="M690 1323l-133 295h180l109 -156l174 156h184l-260 -295h-254zM535 -14q-199 0 -300.5 100t-66.5 264h270q-12 -56 33 -94.5t121 -38.5t129 30.5t65 86.5q18 77 -116 121l-142 45q-61 17 -107.5 42t-74.5 54t-45.5 59.5t-23 63.5t-4.5 62t8 59q22 104 97 187t183 128
t227 45q181 0 277.5 -100t60.5 -269h-270q11 57 -20.5 94.5t-102.5 37.5q-66 0 -116.5 -33.5t-61.5 -81.5q-12 -76 104 -111l125 -37q34 -10 61.5 -20.5t58 -25.5t53 -31t45 -37t35 -45t23 -54.5t8 -64.5t-8.5 -76q-19 -92 -72 -163t-126 -113t-156 -63t-170 -21z" />
    <glyph glyph-name="Scedilla.c2sc" horiz-adv-x="1077" 
d="M1059 346q-22 -109 -93.5 -188t-162.5 -118t-199 -50l33 -94q10 -30 0 -86q-17 -75 -81.5 -126t-139.5 -51q-85 0 -131.5 52t-24.5 153h129q-18 -86 49 -86q26 0 46 17t26 45q4 26 2 39l-37 135q-171 15 -255 113t-52 249h270q-12 -56 33 -94.5t121 -38.5t129 30.5
t65 86.5q18 77 -116 121l-142 45q-61 17 -107.5 42t-74.5 54t-45.5 59.5t-23 63.5t-4.5 62t8 59q22 104 97 187t183 128t227 45q181 0 277.5 -100t60.5 -269h-270q11 57 -20.5 94.5t-102.5 37.5q-66 0 -116.5 -33.5t-61.5 -81.5q-12 -76 104 -111l125 -37q34 -10 61.5 -20.5
t58 -25.5t53 -31t45 -37t35 -45t23 -54.5t8 -64.5t-8.5 -76z" />
    <glyph glyph-name="Scommaaccent.c2sc" horiz-adv-x="1077" 
d="M535 -14q-199 0 -300.5 100t-66.5 264h270q-12 -56 33 -94.5t121 -38.5t129 30.5t65 86.5q18 77 -116 121l-142 45q-61 17 -107.5 42t-74.5 54t-45.5 59.5t-23 63.5t-4.5 62t8 59q22 104 97 187t183 128t227 45q181 0 277.5 -100t60.5 -269h-270q11 57 -20.5 94.5
t-102.5 37.5q-66 0 -116.5 -33.5t-61.5 -81.5q-12 -76 104 -111l125 -37q34 -10 61.5 -20.5t58 -25.5t53 -31t45 -37t35 -45t23 -54.5t8 -64.5t-8.5 -76q-19 -92 -72 -163t-126 -113t-156 -63t-170 -21zM371 -408l-109 66q107 93 139 274h238q-22 -97 -98.5 -190
t-169.5 -150z" />
    <glyph glyph-name="uni1E9E.c2sc" horiz-adv-x="1271" 
d="M1038 719q131 -30 194.5 -118.5t35.5 -219.5q-37 -173 -181 -286t-337 -113q-133 3 -201 30l80 234q42 -23 135 -23q90 0 154 48.5t81 131.5q19 86 -34.5 139.5t-157.5 53.5h-68l15 94l204 256q-55 12 -106 12q-97 0 -178 -65t-107 -188l-149 -705h-271l148 698
q27 126 86.5 222.5t141 156t178.5 89.5t206 30t225 -31.5t191 -79.5l-4 -24z" />
    <glyph glyph-name="T.c2sc" horiz-adv-x="1034" 
d="M1231 1184l-49 -238h-330l-201 -946h-270l201 946h-330l49 238h930z" />
    <glyph glyph-name="Tbar.c2sc" horiz-adv-x="1054" 
d="M1194 946h-332l-69 -328h184l-29 -129h-184l-102 -489h-271l103 489h-183l29 129h182l70 328h-330l49 238h932z" />
    <glyph glyph-name="Tcaron.c2sc" horiz-adv-x="1034" 
d="M924 1323h-256l-133 295h182l108 -156l174 156h183zM1231 1184l-49 -238h-330l-201 -946h-270l201 946h-330l49 238h930z" />
    <glyph glyph-name="uni0162.c2sc" horiz-adv-x="1034" 
d="M1182 946h-330l-197 -923l43 -127q9 -35 0 -86q-17 -75 -82.5 -126t-140.5 -51q-84 0 -129.5 52t-23.5 153h127q-18 -86 49 -86q26 0 46.5 17t26.5 45q4 26 2 39l-41 147h-151l201 946h-330l49 238h930z" />
    <glyph glyph-name="uni021A.c2sc" horiz-adv-x="1034" 
d="M1231 1184l-49 -238h-330l-201 -946h-270l201 946h-330l49 238h930zM242 -342q108 92 137 274h237q-21 -96 -96.5 -189t-169.5 -151z" />
    <glyph glyph-name="U.c2sc" 
d="M621 -14q-95 0 -174.5 31.5t-133 87.5t-75 140t-0.5 183l159 756h271l-156 -735q-22 -103 28 -155t136 -52t157 52t93 155l155 735h271l-160 -756q-28 -132 -116 -234t-207.5 -155t-247.5 -53z" />
    <glyph glyph-name="Uacute.c2sc" 
d="M817 1323l227 295h250l-301 -295h-176zM621 -14q-95 0 -174.5 31.5t-133 87.5t-75 140t-0.5 183l159 756h271l-156 -735q-22 -103 28 -155t136 -52t157 52t93 155l155 735h271l-160 -756q-28 -132 -116 -234t-207.5 -155t-247.5 -53z" />
    <glyph glyph-name="uni01D3.c2sc" 
d="M776 1323l-133 295h180l109 -156l174 156h184l-260 -295h-254zM621 -14q-95 0 -174.5 31.5t-133 87.5t-75 140t-0.5 183l159 756h271l-156 -735q-22 -103 28 -155t136 -52t157 52t93 155l155 735h271l-160 -756q-28 -132 -116 -234t-207.5 -155t-247.5 -53z" />
    <glyph glyph-name="Ucircumflex.c2sc" 
d="M582 1323l256 295h254l137 -295h-185l-108 152l-174 -152h-180zM621 -14q-95 0 -174.5 31.5t-133 87.5t-75 140t-0.5 183l159 756h271l-156 -735q-22 -103 28 -155t136 -52t157 52t93 155l155 735h271l-160 -756q-28 -132 -116 -234t-207.5 -155t-247.5 -53z" />
    <glyph glyph-name="Udieresis.c2sc" 
d="M723 1354q-54 0 -84.5 36t-20.5 87q11 50 56.5 85t99.5 35t85 -35t20 -85q-10 -51 -56 -87t-100 -36zM1102 1354q-55 0 -86.5 36t-20.5 87q11 50 57 85t101 35q53 0 82.5 -35.5t19.5 -84.5q-10 -51 -55 -87t-98 -36zM621 -14q-95 0 -174.5 31.5t-133 87.5t-75 140
t-0.5 183l159 756h271l-156 -735q-22 -103 28 -155t136 -52t157 52t93 155l155 735h271l-160 -756q-28 -132 -116 -234t-207.5 -155t-247.5 -53z" />
    <glyph glyph-name="uni01D7.c2sc" 
d="M889 1659l227 297h250l-301 -297h-176zM723 1354q-54 0 -84.5 36t-20.5 87q11 50 56.5 85t99.5 35t85 -35t20 -85q-10 -51 -56 -87t-100 -36zM1102 1354q-55 0 -86.5 36t-20.5 87q11 50 57 85t101 35q53 0 82.5 -35.5t19.5 -84.5q-10 -51 -55 -87t-98 -36zM621 -14
q-95 0 -174.5 31.5t-133 87.5t-75 140t-0.5 183l159 756h271l-156 -735q-22 -103 28 -155t136 -52t157 52t93 155l155 735h271l-160 -756q-28 -132 -116 -234t-207.5 -155t-247.5 -53z" />
    <glyph glyph-name="uni01D9.c2sc" 
d="M848 1659l-133 297h180l109 -156l174 156h184l-260 -297h-254zM723 1354q-54 0 -84.5 36t-20.5 87q11 50 56.5 85t99.5 35t85 -35t20 -85q-10 -51 -56 -87t-100 -36zM1102 1354q-55 0 -86.5 36t-20.5 87q11 50 57 85t101 35q53 0 82.5 -35.5t19.5 -84.5q-10 -51 -55 -87
t-98 -36zM621 -14q-95 0 -174.5 31.5t-133 87.5t-75 140t-0.5 183l159 756h271l-156 -735q-22 -103 28 -155t136 -52t157 52t93 155l155 735h271l-160 -756q-28 -132 -116 -234t-207.5 -155t-247.5 -53z" />
    </font>
</defs>
</svg>
