<?xml version="1.0" standalone="no"?>
<!DOCTYPE svg PUBLIC "-//W3C//DTD SVG 1.1//EN" "http://www.w3.org/Graphics/SVG/1.1/DTD/svg11.dtd" >
<svg xmlns="http://www.w3.org/2000/svg" xmlns:xlink="http://www.w3.org/1999/xlink" version="1.1">
<metadata>
Created by FontForge 20170731 at Thu Oct 12 07:34:50 2023
 By Aleksey,,,
Copyright (c) Olivier Gourvat - Mostardesign Type Foundry, 2016. All rights reserved.
</metadata>
<defs>
<font id="SofiaProBlack" horiz-adv-x="1253" >
  <font-face 
    font-family="Sofia Pro Black"
    font-weight="900"
    font-stretch="normal"
    units-per-em="2048"
    panose-1="0 0 5 0 0 0 0 0 0 0"
    ascent="1638"
    descent="-410"
    x-height="954"
    cap-height="1411"
    bbox="-987 -520.338 3224 2329"
    underline-thickness="102"
    underline-position="-307"
    unicode-range="U+0020-FB04"
  />
<missing-glyph horiz-adv-x="1300" 
d="M164 0v1362h973v-1362h-973zM549 455h127v67q0 49 25.5 82t70.5 45q75 23 124.5 89.5t49.5 164.5q0 123 -85 200t-204 77q-117 0 -197.5 -82t-80.5 -215h127q0 76 43 123t108 47t114.5 -42t49.5 -108q0 -99 -116 -145q-84 -25 -120 -75.5t-36 -150.5v-77zM614 180
q38 0 65.5 25.5t27.5 62.5t-27.5 62.5t-65.5 25.5q-39 0 -66.5 -25t-27.5 -63t27.5 -63t66.5 -25z" />
    <glyph glyph-name="f_f" unicode="ff" horiz-adv-x="1542" 
d="M1442 1458h121v-278h-58q-199 0 -202 -189v-37h202v-227h-202v-727h-304v727h-469v-727h-303v727h-178v227h178v43q0 223 117 342t326 119h121v-278h-58q-200 0 -203 -189v-37h469v43q0 224 116 342.5t327 118.5z" />
    <glyph glyph-name="fi" unicode="fi" horiz-adv-x="1333" 
d="M1206 954v-954h-303v727h-373v-727h-303v727h-178v227h178v43q0 223 117 342t326 119h98v-278h-35q-200 0 -203 -189v-37h676zM1053 1100q-75 0 -131 52t-56 124q0 74 55.5 125t131.5 51q78 0 132 -50.5t54 -125.5q0 -72 -54 -124t-132 -52z" />
    <glyph glyph-name="fl" unicode="fl" horiz-adv-x="1333" 
d="M1206 1458v-1458h-303v1180h-170q-200 0 -203 -189v-37h205v-227h-205v-727h-303v727h-178v227h178v43q0 223 117 342t326 119h536z" />
    <glyph glyph-name="f_f_i" unicode="ffi" horiz-adv-x="2103" 
d="M1976 954v-954h-303v727h-370v-727h-304v727h-469v-727h-303v727h-178v227h178v43q0 223 117 342t326 119h121v-278h-58q-200 0 -203 -189v-37h469v43q0 224 116 342.5t327 118.5h59v-278h-26q-85 0 -128.5 -44.5t-43.5 -119.5v-62h673zM1825 1100q-77 0 -133 52t-56 124
q0 74 56 125t133 51t131.5 -51t54.5 -125q0 -72 -55 -124t-131 -52z" />
    <glyph glyph-name="f_f_l" unicode="ffl" horiz-adv-x="2103" 
d="M1976 1458v-1458h-301v1180h-170q-199 0 -202 -189v-37h202v-227h-202v-727h-304v727h-469v-727h-303v727h-178v227h178v43q0 223 117 342t326 119h121v-278h-58q-200 0 -203 -189v-37h469v43q0 224 116 342.5t327 118.5h534z" />
    <glyph glyph-name=".notdef" horiz-adv-x="1300" 
d="M164 0v1362h973v-1362h-973zM549 455h127v67q0 49 25.5 82t70.5 45q75 23 124.5 89.5t49.5 164.5q0 123 -85 200t-204 77q-117 0 -197.5 -82t-80.5 -215h127q0 76 43 123t108 47t114.5 -42t49.5 -108q0 -99 -116 -145q-84 -25 -120 -75.5t-36 -150.5v-77zM614 180
q38 0 65.5 25.5t27.5 62.5t-27.5 62.5t-65.5 25.5q-39 0 -66.5 -25t-27.5 -63t27.5 -63t66.5 -25z" />
    <glyph glyph-name=".null" horiz-adv-x="0" 
 />
    <glyph glyph-name="nonmarkingreturn" horiz-adv-x="682" 
 />
    <glyph glyph-name="space" unicode=" " horiz-adv-x="477" 
 />
    <glyph glyph-name="exclam" unicode="!" horiz-adv-x="598" 
d="M182 498l-43 913h320l-43 -913h-234zM297 -18q-76 0 -130 52t-54 130q0 76 54 127t130 51q78 0 133 -51t55 -127q0 -78 -55 -130t-133 -52z" />
    <glyph glyph-name="quotedbl" unicode="&#x22;" horiz-adv-x="851" 
d="M150 799l-48 612h271l-47 -612h-176zM526 799l-47 612h271l-48 -612h-176z" />
    <glyph glyph-name="numbersign" unicode="#" horiz-adv-x="1488" 
d="M188 0l109 330h-238l56 192h235l105 340h-234l55 193h238l107 356h221l-109 -356h238l112 356h217l-110 -356h240l-54 -193h-241l-107 -340h240l-58 -192h-237l-111 -330h-215l105 330h-240l-106 -330h-218zM567 522h240l108 340h-239z" />
    <glyph glyph-name="dollar" unicode="$" horiz-adv-x="1107" 
d="M1034 422q0 -90 -33.5 -162.5t-91.5 -119t-129.5 -74.5t-154.5 -37v-199l-154 2v197q-180 22 -287.5 131t-107.5 272h317q0 -72 44 -110.5t126 -38.5q71 0 110.5 33t39.5 87q0 84 -129 125l-152 47q-103 29 -175.5 75.5t-107.5 101t-49 102.5t-14 100q0 152 107 257.5
t278 127.5v203h154v-203q170 -22 271.5 -130t98.5 -271h-317q2 65 -33.5 103t-99.5 38q-62 0 -99.5 -33t-37.5 -85q0 -78 118 -113l133 -41q61 -19 110 -39.5t100.5 -54t86 -72.5t56.5 -95.5t22 -123.5z" />
    <glyph glyph-name="percent" unicode="%" horiz-adv-x="1314" 
d="M336 825q-116 0 -194.5 78.5t-78.5 194.5q0 114 79 194t194 80q114 0 194 -80t80 -194q0 -115 -80 -194t-194 -79zM242 0l669 1343h160l-672 -1343h-157zM336 981q50 0 84.5 33.5t34.5 83.5q0 47 -35 81.5t-84 34.5q-50 0 -82.5 -34t-32.5 -82q0 -51 32 -84t83 -33z
M977 -18q-115 0 -193.5 78t-78.5 194q0 115 78.5 194.5t193.5 79.5q114 0 194 -80t80 -194q0 -115 -79.5 -193.5t-194.5 -78.5zM977 137q50 0 83.5 33t33.5 84q0 50 -34 84.5t-83 34.5q-50 0 -83.5 -34.5t-33.5 -84.5q0 -51 33 -84t84 -33z" />
    <glyph glyph-name="ampersand" unicode="&#x26;" horiz-adv-x="1386" 
d="M1253 262h74v-264h-86q-234 0 -334 149q-54 -83 -152 -125t-220 -42q-206 0 -328.5 115t-122.5 296q0 129 71 222t171 130q-81 33 -131 113.5t-50 183.5q0 159 130 273t329 114q241 0 381 -176l-231 -190q-19 24 -58 43.5t-82 19.5q-63 0 -103 -39.5t-40 -80.5
q0 -152 182 -152h172v147h279v-157h166v-228h-166v-163q0 -92 40 -140.5t109 -48.5zM588 283q25 0 52.5 5t62 20t61 39.5t44.5 68t17 100.5v98h-188q-124 0 -179 -52.5t-50 -125.5q4 -70 55.5 -111.5t124.5 -41.5z" />
    <glyph glyph-name="quotesingle" unicode="'" horiz-adv-x="475" 
d="M150 799l-48 612h271l-47 -612h-176z" />
    <glyph glyph-name="parenleft" unicode="(" horiz-adv-x="786" 
d="M741 -397q-196 0 -347 119.5t-232.5 330t-81.5 477.5q0 199 47.5 370.5t133 294.5t209.5 193t271 70v-213q-51 0 -103.5 -22t-107 -76t-96.5 -133t-69 -204.5t-27 -279.5q0 -112 14 -209.5t38 -168.5t56.5 -129t68.5 -95.5t76 -62.5t77 -36t73 -11v-215z" />
    <glyph glyph-name="parenright" unicode=")" horiz-adv-x="786" 
d="M45 -397v215q51 0 103 21.5t106.5 74.5t96 131t68.5 204t27 281q0 154 -26.5 279.5t-68.5 204.5t-96.5 133t-107 76t-102.5 22v213q196 0 347.5 -120t233 -331t81.5 -477q0 -267 -81.5 -477.5t-233 -330t-347.5 -119.5z" />
    <glyph glyph-name="asterisk" unicode="*" horiz-adv-x="927" 
d="M856 1067l-244 -51l164 -187l-153 -122l-160 221l-160 -221l-153 122l163 187l-241 51l49 190l258 -81l-14 268h198l-12 -268l254 81z" />
    <glyph glyph-name="plus" unicode="+" horiz-adv-x="989" 
d="M915 596v-215h-313v-313h-217v313h-311v215h311v313h217v-313h313z" />
    <glyph glyph-name="comma" unicode="," horiz-adv-x="534" 
d="M131 -336l-166 76q95 125 134 248.5t36 281.5h279q1 -96 -22.5 -188.5t-66 -168.5t-90.5 -137t-104 -112z" />
    <glyph glyph-name="hyphen" unicode="-" horiz-adv-x="964" 
d="M119 362v263h725v-263h-725z" />
    <glyph glyph-name="period" unicode="." horiz-adv-x="557" 
d="M276 -18q-76 0 -130 52t-54 130q0 76 54 127t130 51q78 0 133.5 -51.5t55.5 -126.5q0 -78 -55.5 -130t-133.5 -52z" />
    <glyph glyph-name="slash" unicode="/" horiz-adv-x="995" 
d="M47 0l672 1411h231l-674 -1411h-229z" />
    <glyph glyph-name="zero" unicode="0" horiz-adv-x="1206" 
d="M606 -18q-115 0 -203.5 35t-145 95.5t-92.5 149.5t-50.5 188t-14.5 220t14.5 221t50.5 189.5t92.5 150t145 96t203.5 35.5q114 0 201.5 -35.5t143.5 -96t91.5 -150t49.5 -189t14 -221.5q0 -121 -14 -220t-49.5 -188t-91.5 -149.5t-143.5 -95.5t-201.5 -35zM606 262
q191 0 191 408q0 413 -191 413q-71 0 -116.5 -56.5t-63.5 -145t-18 -211.5q0 -122 18 -209.5t63.5 -143t116.5 -55.5z" />
    <glyph glyph-name="one" unicode="1" horiz-adv-x="837" 
d="M647 1362h27v-1362h-301v961l-322 -121v278z" />
    <glyph glyph-name="two" unicode="2" horiz-adv-x="1122" 
d="M565 281h453v-281h-928v170l533 639q73 82 73 147q0 56 -43 91.5t-112 35.5q-77 0 -123 -51.5t-58 -140.5l-276 43q29 197 148.5 312.5t324.5 115.5t327 -112.5t122 -297.5q0 -177 -144 -338z" />
    <glyph glyph-name="three" unicode="3" horiz-adv-x="1089" 
d="M760 725q112 -42 176.5 -130.5t64.5 -205.5q0 -181 -141.5 -294t-365.5 -113q-293 0 -443 217l201 170q53 -57 106.5 -86t120.5 -29q96 0 153.5 45.5t57.5 118.5q0 74 -58.5 122t-152.5 48h-123v223h54q108 0 167.5 48t53.5 116q-4 51 -47.5 80.5t-110.5 29.5
q-62 0 -123.5 -27.5t-99.5 -74.5l-156 195q181 184 420 184q184 0 307 -103t119 -272q0 -81 -47.5 -150t-132.5 -112z" />
    <glyph glyph-name="four" unicode="4" horiz-adv-x="1247" 
d="M1171 516v-266h-210v-250h-310v250h-633v94l732 999h211v-827h210zM430 516h221v311z" />
    <glyph glyph-name="five" unicode="5" horiz-adv-x="1187" 
d="M662 930q193 0 316.5 -131.5t123.5 -325.5q0 -113 -45 -207.5t-120 -155.5t-172 -94.5t-202 -33.5q-141 0 -281.5 73.5t-205.5 188.5l231 162q29 -60 103 -101t139 -41q110 0 178 58t68 153q0 90 -63.5 148.5t-164.5 58.5q-75 0 -150 -32t-132 -85l-176 103l116 678h785
v-279h-533l-45 -201q100 64 230 64z" />
    <glyph glyph-name="six" unicode="6" horiz-adv-x="1216" 
d="M676 862q198 0 323 -122.5t125 -301.5q0 -202 -138.5 -329t-364.5 -127q-232 0 -379.5 175.5t-147.5 463.5q0 214 68 381.5t199.5 263.5t306.5 96q141 0 261 -70t177 -192l-238 -144q-26 59 -79.5 93t-116.5 34q-118 0 -192 -87.5t-85 -233.5q107 100 281 100zM623 262
q89 0 143.5 49t54.5 127q0 77 -54 126t-140 50q-90 0 -146.5 -48.5t-56.5 -125.5q0 -78 55 -128t144 -50z" />
    <glyph glyph-name="seven" unicode="7" horiz-adv-x="1073" 
d="M66 1343h991v-30l-551 -1313h-348l450 1063h-542v280z" />
    <glyph glyph-name="eight" unicode="8" horiz-adv-x="1220" 
d="M887 745q110 -30 181 -123.5t71 -218.5q0 -124 -71.5 -221t-191.5 -148.5t-266 -51.5q-145 0 -264.5 51.5t-191.5 148.5t-72 221q0 125 71.5 218.5t182.5 123.5q-67 28 -113.5 101.5t-46.5 167.5q0 156 124.5 252t309.5 96t309.5 -96t124.5 -252q0 -94 -45.5 -167.5
t-111.5 -101.5zM610 1108q-62 0 -104.5 -39t-42.5 -92t42.5 -91t104.5 -38q64 0 107 38t43 91t-43 92t-107 39zM610 250q96 0 156.5 51.5t60.5 130.5q0 80 -60.5 133t-156.5 53t-156.5 -53t-60.5 -133q0 -78 61 -130t156 -52z" />
    <glyph glyph-name="nine" unicode="9" horiz-adv-x="1218" 
d="M598 1362q231 0 378.5 -177t147.5 -462q0 -160 -39.5 -296t-112 -235t-181 -154.5t-240.5 -55.5q-141 0 -261 70t-177 194l235 141q27 -59 81 -92t118 -33q116 0 190 87t86 231q-111 -99 -280 -99q-198 0 -323.5 123.5t-125.5 302.5q0 202 139 328.5t365 126.5zM592 729
q89 0 145 49t58 127q0 78 -55.5 127t-145.5 49q-88 0 -142.5 -49t-54.5 -127q0 -76 54.5 -125t140.5 -51z" />
    <glyph glyph-name="colon" unicode=":" horiz-adv-x="595" 
d="M297 616q-76 0 -130 51.5t-54 127.5q0 78 54 130t130 52q77 0 130.5 -51.5t53.5 -130.5q0 -76 -53.5 -127.5t-130.5 -51.5zM297 -18q-76 0 -130 52t-54 130q0 76 54 127t130 51q77 0 130.5 -51t53.5 -127q0 -79 -53.5 -130.5t-130.5 -51.5z" />
    <glyph glyph-name="semicolon" unicode=";" horiz-adv-x="593" 
d="M301 977q76 0 130 -52t54 -130q0 -76 -54 -127.5t-130 -51.5t-130 51.5t-54 127.5q0 78 54 130t130 52zM160 -336l-164 76q93 125 132 248.5t36 281.5h278q1 -96 -22.5 -188.5t-65.5 -168.5t-90 -137t-104 -112z" />
    <glyph glyph-name="less" unicode="&#x3c;" horiz-adv-x="1230" 
d="M1096 1141v-232l-731 -282l731 -281v-231l-1026 393v242z" />
    <glyph glyph-name="equal" unicode="=" horiz-adv-x="1193" 
d="M127 737v205h942v-205h-942zM127 322v204h942v-204h-942z" />
    <glyph glyph-name="greater" unicode="&#x3e;" horiz-adv-x="1230" 
d="M135 1141l1026 -391v-242l-1026 -393v231l731 281l-731 282v232z" />
    <glyph glyph-name="question" unicode="?" horiz-adv-x="999" 
d="M293 498v26q-9 53 -5 103t21 91.5t60 79t112 66.5l76 33q82 33 82 117q0 60 -39.5 93.5t-105.5 33.5q-60 0 -104 -41.5t-44 -106.5h-278q0 209 118 323t312 114q191 0 309.5 -108t118.5 -290q0 -145 -72 -244.5t-195 -142.5q-37 -13 -53.5 -20t-38 -21.5t-29.5 -34
t-8 -47.5l-2 -24h-235zM412 -18q-77 0 -132 52t-55 130q0 75 55.5 126.5t131.5 51.5t131 -51.5t55 -126.5q0 -78 -55 -130t-131 -52z" />
    <glyph glyph-name="at" unicode="@" horiz-adv-x="1966" 
d="M958 -344q-183 0 -347.5 70t-282 189.5t-186 284.5t-68.5 349q0 183 68.5 349t186 287t282 192t347.5 71q247 0 458.5 -111t338.5 -310.5t127 -442.5q0 -77 -12.5 -156t-43 -160t-75 -144t-114.5 -102.5t-156 -39.5q-49 0 -93 10t-84.5 34t-69.5 60t-46 91t-17 124v258
q0 98 -68 166t-165 68q-94 0 -162.5 -68.5t-68.5 -165.5q0 -94 68.5 -162.5t162.5 -68.5q89 0 154 41v-197q-64 -33 -154 -33q-174 0 -298 123t-124 297q0 177 124 299.5t298 122.5q172 0 295 -118t129 -285v-287q0 -65 35.5 -96t83.5 -31q50 0 88.5 29.5t61 73.5t37 103
t19.5 110.5t5 103.5q0 191 -101 347t-269 242.5t-364 86.5q-144 0 -273 -56.5t-221 -152.5t-146 -227t-54 -275q0 -194 91.5 -355t251 -253.5t351.5 -92.5h115v-192h-115z" />
    <glyph glyph-name="A" unicode="A" horiz-adv-x="1357" 
d="M1034 0l-106 328h-496l-104 -328h-344l522 1411h350l520 -1411h-342zM520 606h318l-160 494z" />
    <glyph glyph-name="B" unicode="B" horiz-adv-x="1312" 
d="M958 754q132 -19 202.5 -118t70.5 -230q0 -60 -15.5 -116.5t-50.5 -109.5t-86.5 -92.5t-130 -63.5t-174.5 -24h-612v1411h571q191 0 307.5 -102.5t116.5 -261.5q0 -41 -9 -81.5t-29.5 -83.5t-61.5 -77t-99 -51zM711 1130h-228v-270h226q58 0 92.5 35.5t34.5 99.5
q0 58 -31.5 96.5t-93.5 38.5zM735 281q82 0 127 46t45 111q0 63 -44 110.5t-128 47.5h-252v-315h252z" />
    <glyph glyph-name="C" unicode="C" horiz-adv-x="1439" 
d="M797 -16q-146 0 -279 57.5t-229 154.5t-152.5 231t-56.5 282q0 146 56.5 279.5t152.5 230t229 154t279 57.5q182 0 338.5 -85t255.5 -229l-250 -174q-119 182 -330 182q-177 0 -292.5 -119.5t-115.5 -295.5q0 -178 114 -300t292 -122q214 0 332 184l250 -176
q-99 -144 -255 -227.5t-339 -83.5z" />
    <glyph glyph-name="D" unicode="D" horiz-adv-x="1447" 
d="M162 0v1411h557q150 0 272 -54.5t203 -150t124.5 -224.5t43.5 -280q0 -150 -43.5 -278t-124.5 -222.5t-203 -148t-272 -53.5h-557zM483 281h236q77 0 138.5 35t100.5 94t59.5 134t20.5 158q0 114 -34.5 209t-109 157t-175.5 62h-236v-849z" />
    <glyph glyph-name="E" unicode="E" horiz-adv-x="1185" 
d="M483 281h602v-281h-923v1411h905v-281h-584v-290h512v-289h-512v-270z" />
    <glyph glyph-name="F" unicode="F" horiz-adv-x="1122" 
d="M1055 1130h-572v-296h453v-279h-453v-555h-321v1411h893v-281z" />
    <glyph glyph-name="G" unicode="G" horiz-adv-x="1548" 
d="M805 -18q-200 0 -367 97.5t-262.5 263.5t-95.5 362q0 198 95.5 364.5t262.5 263.5t367 97q164 0 305.5 -64.5t235.5 -177.5l-238 -199q-122 141 -303 141q-170 0 -286 -123.5t-116 -301.5q0 -115 52.5 -215t145.5 -161t204 -61q125 0 213.5 49t118.5 140q8 20 10 32h-397
v261h747q0 -196 -50.5 -345t-143.5 -240.5t-218 -137t-280 -45.5z" />
    <glyph glyph-name="H" unicode="H" horiz-adv-x="1433" 
d="M948 1411h322v-1411h-322v557h-465v-557h-321v1411h321v-565h465v565z" />
    <glyph glyph-name="I" unicode="I" horiz-adv-x="647" 
d="M162 0v1411h321v-1411h-321z" />
    <glyph glyph-name="J" unicode="J" horiz-adv-x="663" 
d="M33 -483q-108 0 -217 34l28 291q60 -22 189 -22q74 0 109.5 49.5t35.5 128.5v1413h322v-1413q0 -101 -25.5 -185.5t-79 -152t-146 -105.5t-216.5 -38z" />
    <glyph glyph-name="K" unicode="K" horiz-adv-x="1277" 
d="M1319 0h-440l-396 455v-455h-321v1411h321v-432l308 432h401l-533 -698z" />
    <glyph glyph-name="L" unicode="L" horiz-adv-x="1042" 
d="M162 0v1411h321v-1130h518v-281h-839z" />
    <glyph glyph-name="M" unicode="M" horiz-adv-x="1884" 
d="M1796 0h-330l-92 803l-307 -641h-246l-307 639l-94 -801h-330l174 1411h268l412 -883l406 883h274z" />
    <glyph glyph-name="N" unicode="N" horiz-adv-x="1390" 
d="M907 1411h322v-1411h-283l-463 811v-811h-321v1411h295l450 -801v801z" />
    <glyph glyph-name="O" unicode="O" horiz-adv-x="1599" 
d="M801 -18q-198 0 -364 97.5t-261.5 264t-95.5 363.5t95.5 363t261.5 263t364 97q146 0 279.5 -57.5t229.5 -154t153 -230.5t57 -281t-57 -281t-153 -231.5t-229.5 -155t-279.5 -57.5zM799 285q175 0 286 121t111 301q0 179 -111 299t-286 120q-176 0 -286 -119.5
t-110 -299.5t110 -301t286 -121z" />
    <glyph glyph-name="P" unicode="P" horiz-adv-x="1271" 
d="M743 1411q118 0 212 -40t150 -107t85 -148.5t29 -171.5q0 -91 -29 -172.5t-85.5 -148t-149.5 -105.5t-212 -39h-260v-479h-321v1411h581zM729 760q84 0 125 54t41 130t-40.5 131t-123.5 55h-248v-370h246z" />
    <glyph glyph-name="Q" unicode="Q" horiz-adv-x="1599" 
d="M1520 705q0 -178 -79.5 -332t-217.5 -256l135 -223l-225 -136l-148 246q-89 -24 -184 -24q-198 0 -364 97.5t-261.5 264t-95.5 363.5q0 147 56.5 280.5t152.5 230.5t230 154t282 57q146 0 279.5 -57t229.5 -154t153 -230.5t57 -280.5zM799 283h16l-110 184l225 133
l133 -219q64 59 98.5 143t34.5 181q0 179 -111 299t-286 120q-176 0 -286 -119.5t-110 -299.5t110 -301t286 -121z" />
    <glyph glyph-name="R" unicode="R" horiz-adv-x="1314" 
d="M872 0l-325 496h-64v-496h-321v1411h577q118 0 211.5 -40t149.5 -107t85 -148.5t29 -171.5q0 -157 -83.5 -273t-247.5 -157l364 -514h-375zM483 1130v-380h205q99 0 151 54.5t52 131.5t-51.5 135.5t-143.5 58.5h-213z" />
    <glyph glyph-name="S" unicode="S" horiz-adv-x="1202" 
d="M598 -18q-226 0 -368 120.5t-142 315.5h322q0 -67 58 -113.5t142 -46.5q81 0 133 36t52 103q0 46 -34.5 82.5t-121.5 65.5l-168 51q-89 24 -157.5 62t-108 79t-64 90.5t-33 91t-8.5 85.5q0 188 142 307t356 119q208 0 342.5 -118t134.5 -319h-321q0 67 -41.5 111.5
t-120.5 44.5q-74 0 -120 -39.5t-46 -99.5q0 -90 139 -129l148 -45q67 -20 120 -42.5t108.5 -58.5t92.5 -79.5t60.5 -105.5t23.5 -136q0 -109 -44.5 -194.5t-119.5 -136t-165.5 -76t-190.5 -25.5z" />
    <glyph glyph-name="T" unicode="T" horiz-adv-x="1148" 
d="M1108 1411v-281h-373v-1130h-321v1130h-373v281h1067z" />
    <glyph glyph-name="U" unicode="U" horiz-adv-x="1394" 
d="M698 -18q-147 0 -271.5 63t-202 185t-77.5 280v901h322v-876q0 -125 66 -186.5t163 -61.5q96 0 162 61.5t66 186.5v876h321v-901q0 -158 -77 -280t-201 -185t-271 -63z" />
    <glyph glyph-name="V" unicode="V" horiz-adv-x="1206" 
d="M838 1411h338l-431 -1411h-284l-430 1411h334l237 -893z" />
    <glyph glyph-name="W" unicode="W" horiz-adv-x="1853" 
d="M1491 1411h350l-479 -1411h-250l-188 717l-183 -717h-252l-475 1411h346l261 -844l174 643h264l172 -647z" />
    <glyph glyph-name="X" unicode="X" horiz-adv-x="1363" 
d="M1362 0h-379l-301 496l-301 -496h-377l485 752l-444 659h389l248 -403l252 403h385l-447 -659z" />
    <glyph glyph-name="Y" unicode="Y" horiz-adv-x="1406" 
d="M1032 1411h383l-551 -780v-631h-323v637l-549 774h383l325 -520z" />
    <glyph glyph-name="Z" unicode="Z" horiz-adv-x="1220" 
d="M1126 1411v-240l-632 -890h632v-281h-1044v240l623 890h-596v281h1017z" />
    <glyph glyph-name="bracketleft" unicode="[" horiz-adv-x="690" 
d="M637 1245h-231v-1423h231v-219h-485v1855h485v-213z" />
    <glyph glyph-name="backslash" unicode="\" horiz-adv-x="995" 
d="M719 0l-674 1411h231l672 -1411h-229z" />
    <glyph glyph-name="bracketright" unicode="]" horiz-adv-x="690" 
d="M53 1458h486v-1855h-486v219h232v1423h-232v213z" />
    <glyph glyph-name="asciicircum" unicode="^" horiz-adv-x="1122" 
d="M1053 571h-314l-180 506l-176 -506h-313l344 840h295z" />
    <glyph glyph-name="underscore" unicode="_" horiz-adv-x="1492" 
d="M94 -281v213h1303v-213h-1303z" />
    <glyph glyph-name="grave" unicode="`" horiz-adv-x="1110" 
d="M541 1126l-277 351h293l191 -351h-207z" />
    <glyph glyph-name="a" unicode="a" horiz-adv-x="1261" 
d="M834 954h301v-954h-301v109q-49 -63 -132 -95t-165 -32q-90 0 -173 35t-147.5 97t-103.5 157.5t-39 207.5t39 207.5t103.5 158t147.5 97.5t173 35q82 0 165 -32t132 -95v104zM602 264q89 0 154 62t65 153t-65.5 153t-153.5 62q-90 0 -155.5 -62.5t-65.5 -152.5
t65.5 -152.5t155.5 -62.5z" />
    <glyph glyph-name="b" unicode="b" horiz-adv-x="1261" 
d="M725 977q90 0 174 -35t148.5 -97.5t103.5 -158t39 -207.5t-39 -207t-103.5 -157.5t-148.5 -97.5t-174 -35q-82 0 -164 31t-131 93v-106h-303v1458h303v-606q49 62 131.5 93.5t163.5 31.5zM662 264q90 0 155.5 62.5t65.5 152.5t-65.5 152.5t-155.5 62.5q-88 0 -155 -62.5
t-67 -152.5q0 -91 66 -153t156 -62z" />
    <glyph glyph-name="c" unicode="c" horiz-adv-x="1069" 
d="M598 -18q-140 0 -259.5 60.5t-193 176t-73.5 262.5q0 111 43 205.5t115.5 158t168 99t199.5 35.5q134 0 240 -60t178 -165l-234 -148q-29 42 -80 67t-102 25q-101 0 -161 -62.5t-60 -154.5q0 -94 60 -156.5t161 -62.5q51 0 102 25t80 67l234 -147q-72 -105 -178 -165
t-240 -60z" />
    <glyph glyph-name="d" unicode="d" horiz-adv-x="1261" 
d="M834 1458h301v-1458h-301v109q-49 -63 -132 -95t-165 -32q-90 0 -173 35t-147.5 97t-103.5 157.5t-39 207.5t39 207.5t103.5 158t147.5 97.5t173 35q82 0 165 -32t132 -95v608zM602 264q89 0 154 62t65 153t-65.5 153t-153.5 62q-90 0 -155.5 -62.5t-65.5 -152.5
t65.5 -152.5t155.5 -62.5z" />
    <glyph glyph-name="e" unicode="e" horiz-adv-x="1157" 
d="M1092 498q0 -27 -7 -109h-698q22 -68 79.5 -105.5t143.5 -37.5q67 0 131.5 24.5t110.5 67.5l156 -197q-69 -75 -182.5 -117t-237.5 -42q-226 0 -371 137.5t-145 355.5q0 113 42 209t113 160t164.5 99.5t196.5 35.5q136 0 250.5 -58.5t184 -170t69.5 -252.5zM385 567h403
q-1 70 -56 113t-138 43q-75 0 -131 -37.5t-78 -118.5z" />
    <glyph glyph-name="f" unicode="f" horiz-adv-x="772" 
d="M733 1180q-200 0 -203 -189v-37h205v-227h-205v-727h-303v727h-178v227h178v43q0 223 117 342t326 119h121v-278h-58z" />
    <glyph glyph-name="g" unicode="g" horiz-adv-x="1261" 
d="M834 954h301v-829q0 -299 -147.5 -453.5t-412.5 -154.5q-161 0 -290 84t-187 221l250 100q27 -60 90.5 -100.5t136.5 -40.5q259 0 259 307v18q-50 -62 -133 -93t-164 -31q-90 0 -173 35t-147.5 97t-103.5 157.5t-39 207.5t39 207.5t103.5 158t147.5 97.5t173 35
q81 0 163.5 -31.5t133.5 -93.5v102zM602 264q89 0 154 62t65 153t-65.5 153t-153.5 62q-90 0 -155.5 -62.5t-65.5 -152.5t65.5 -152.5t155.5 -62.5z" />
    <glyph glyph-name="h" unicode="h" horiz-adv-x="1198" 
d="M705 979q188 0 283 -121t95 -344v-514h-303v479q0 101 -50 152t-116 51q-34 0 -64 -9.5t-58.5 -31.5t-45 -63.5t-16.5 -98.5v-479h-303v1458h303v-655q16 57 67.5 99t106 59.5t101.5 17.5z" />
    <glyph glyph-name="i" unicode="i" horiz-adv-x="557" 
d="M279 1100q-77 0 -133 52t-56 124q0 74 56 125t133 51t130.5 -50.5t53.5 -125.5q0 -72 -54 -124t-130 -52zM127 0v954h303v-954h-303z" />
    <glyph glyph-name="j" unicode="j" horiz-adv-x="573" 
d="M295 1100q-75 0 -130.5 52t-55.5 124q0 74 55 125t131 51q78 0 132 -50.5t54 -125.5q0 -72 -54 -124t-132 -52zM-119 -471v281h121q66 0 103.5 49t37.5 131v964h303v-964q0 -224 -115.5 -342.5t-324.5 -118.5h-125z" />
    <glyph glyph-name="k" unicode="k" horiz-adv-x="1073" 
d="M1094 0h-369l-295 389v-389h-303v1458h303v-772l205 268h381l-361 -422z" />
    <glyph glyph-name="l" unicode="l" horiz-adv-x="557" 
d="M127 0v1458h303v-1458h-303z" />
    <glyph glyph-name="m" unicode="m" horiz-adv-x="1781" 
d="M1305 979q178 0 270 -121t92 -344v-514h-303v489q0 102 -43 147.5t-109 45.5q-160 0 -163 -201v-481h-304v489q0 102 -42 147.5t-107 45.5q-166 0 -166 -193v-489h-303v954h303v-176q9 50 37 90t65.5 63t77.5 35.5t78 12.5q105 0 183.5 -46.5t119.5 -133.5
q46 89 136.5 134.5t177.5 45.5z" />
    <glyph glyph-name="n" unicode="n" horiz-adv-x="1198" 
d="M705 979q188 0 283 -121t95 -344v-514h-303v479q0 101 -50 152t-116 51q-34 0 -64 -9.5t-58.5 -31.5t-45 -63.5t-16.5 -98.5v-479h-303v954h303v-170q23 92 109 143.5t166 51.5z" />
    <glyph glyph-name="o" unicode="o" horiz-adv-x="1179" 
d="M590 -18q-137 0 -254.5 60.5t-190.5 175.5t-73 261q0 110 42.5 205t114.5 159t165.5 100t195.5 36t196 -36t166 -100t115 -159t43 -205q0 -146 -73.5 -261t-191.5 -175.5t-255 -60.5zM590 262q90 0 150.5 60.5t60.5 156.5q0 97 -61 158t-150 61t-150 -61t-61 -158
q0 -96 60.5 -156.5t150.5 -60.5z" />
    <glyph glyph-name="p" unicode="p" horiz-adv-x="1261" 
d="M725 979q90 0 174 -35t148.5 -98t103.5 -158t39 -207t-39 -207t-103.5 -157.5t-148.5 -97.5t-174 -35q-81 0 -163.5 31.5t-131.5 93.5v-580h-303v1425h303v-102q49 63 131.5 95t163.5 32zM662 264q90 0 155.5 63t65.5 154q0 90 -65.5 152.5t-155.5 62.5t-156 -62
t-66 -153q0 -92 66.5 -154.5t155.5 -62.5z" />
    <glyph glyph-name="q" unicode="q" horiz-adv-x="1261" 
d="M834 954h301v-1425h-301v580q-49 -62 -132.5 -93.5t-164.5 -31.5q-90 0 -173 35t-147.5 97t-103.5 157.5t-39 207.5t39 207t103.5 158t148 98t172.5 35q82 0 165 -32t132 -95v102zM602 264q88 0 153.5 62.5t65.5 154.5q0 91 -65 153t-154 62q-90 0 -155.5 -62.5
t-65.5 -152.5q0 -91 65.5 -154t155.5 -63z" />
    <glyph glyph-name="r" unicode="r" horiz-adv-x="864" 
d="M713 979q86 0 143 -29l-72 -288q-64 36 -137 36q-98 0 -157.5 -91t-59.5 -290v-317h-303v954h299v-200q39 113 116.5 169t170.5 56z" />
    <glyph glyph-name="s" unicode="s" horiz-adv-x="974" 
d="M489 -18q-109 0 -202 37t-153 114.5t-60 181.5h286q0 -40 30.5 -71t90.5 -31q49 0 83 19.5t34 52.5q0 23 -20 36t-74 25l-125 33q-58 16 -104.5 37.5t-76 43.5t-51 50t-32.5 50t-17 50t-7 45t-1 39q0 111 112 198t279 87q57 0 111 -10.5t107 -35t92.5 -60.5t63 -92.5
t22.5 -125.5h-287q0 44 -28.5 67t-74.5 23q-41 0 -67.5 -16t-26.5 -45q0 -50 82 -70l166 -45q68 -19 118.5 -49t77 -59.5t42 -65.5t19 -59.5t3.5 -48.5q0 -76 -37 -136t-97.5 -96t-131.5 -54.5t-146 -18.5z" />
    <glyph glyph-name="t" unicode="t" horiz-adv-x="768" 
d="M729 954v-227h-201v-727h-303v727h-174v227h174v344h303v-344h201z" />
    <glyph glyph-name="u" unicode="u" horiz-adv-x="1198" 
d="M768 954h303v-954h-303v164q-15 -62 -66 -107t-105 -63.5t-103 -18.5q-188 0 -283.5 121t-95.5 344v514h303v-479q0 -101 50 -152t116 -51q33 0 63 9.5t58.5 31.5t45.5 63.5t17 98.5v479z" />
    <glyph glyph-name="v" unicode="v" horiz-adv-x="1077" 
d="M745 954h330l-405 -954h-264l-406 954h330l209 -567z" />
    <glyph glyph-name="w" unicode="w" horiz-adv-x="1542" 
d="M1206 954h328l-332 -954h-258l-174 590l-166 -590h-258l-342 954h328l157 -544l158 544h244l158 -544z" />
    <glyph glyph-name="x" unicode="x" horiz-adv-x="1089" 
d="M1087 0h-352l-190 279l-191 -279h-354l377 516l-316 438h355l133 -194l127 194h352l-315 -438z" />
    <glyph glyph-name="y" unicode="y" horiz-adv-x="1056" 
d="M731 954h326l-590 -1425h-324l236 584l-377 841h336l199 -493z" />
    <glyph glyph-name="z" unicode="z" horiz-adv-x="1042" 
d="M948 954v-225l-430 -448h430v-281h-866v223l424 451h-397v280h839z" />
    <glyph glyph-name="braceleft" unicode="{" horiz-adv-x="796" 
d="M432 754q0 -76 -31 -135t-79 -87q49 -30 79.5 -87.5t30.5 -135.5v-282q0 -93 52 -152t167 -59h99v-213h-154q-175 0 -296 114t-120 297v318q0 56 -37.5 84t-87.5 28v174q49 0 87 28t38 85v316q-1 184 119.5 297.5t296.5 113.5h154v-211h-99q-115 0 -167 -59.5t-52 -153.5
v-280z" />
    <glyph glyph-name="bar" unicode="|" horiz-adv-x="456" 
d="M152 -256v1903h153v-1903h-153z" />
    <glyph glyph-name="braceright" unicode="}" horiz-adv-x="796" 
d="M616 731q0 -57 38 -85t87 -28v-174q-50 0 -87.5 -28t-37.5 -84v-318q0 -183 -120 -297t-295 -114h-156v213h100q115 0 167.5 59.5t52.5 151.5v282q0 76 30.5 134.5t77.5 88.5q-47 28 -77.5 87t-30.5 135v280q0 94 -52.5 153.5t-167.5 59.5h-100v211h156q175 0 295 -113.5
t120 -297.5v-316z" />
    <glyph glyph-name="asciitilde" unicode="~" horiz-adv-x="1343" 
d="M1247 573q-55 -93 -143.5 -150.5t-192.5 -57.5q-31 0 -59.5 4t-59 14t-45.5 15.5t-49 21.5t-39 18q-10 4 -45 21t-54 25t-53.5 16t-68.5 8q-112 0 -225 -131l-113 139q62 89 149.5 146t192.5 57q39 0 77.5 -8.5t61 -17.5t58 -25.5t49.5 -22.5q10 -4 45.5 -21t54.5 -25
t53 -16t66 -8q111 0 215 132z" />
    <glyph glyph-name="exclamdown" unicode="&#xa1;" horiz-adv-x="569" 
d="M283 979q77 0 132.5 -52t55.5 -130q0 -77 -55.5 -128t-132.5 -51q-76 0 -130.5 51t-54.5 128q0 78 54.5 130t130.5 52zM168 442h233l43 -913h-319z" />
    <glyph glyph-name="cent" unicode="&#xa2;" horiz-adv-x="1095" 
d="M610 262q52 0 103 25t80 67l235 -147q-138 -195 -354 -221v-242h-154v244q-188 29 -313 162.5t-125 330.5q0 196 125 329.5t313 162.5v246h154v-244q216 -26 354 -221l-235 -148q-29 42 -80 67t-103 25q-101 0 -161 -62.5t-60 -154.5q0 -94 60 -156.5t161 -62.5z" />
    <glyph glyph-name="sterling" unicode="&#xa3;" horiz-adv-x="1376" 
d="M1004 442h301v-163q0 -118 -81.5 -198.5t-191.5 -80.5h-956v258h207v258h-138v131h138v260q0 208 119.5 328.5t314.5 120.5q102 0 184.5 -24.5t150 -78.5t105 -150.5t37.5 -230.5h-305q0 201 -158 201q-66 0 -105.5 -48.5t-39.5 -123.5v-254h219v-131h-219v-258h358
q34 0 47 21.5t13 60.5v102z" />
    <glyph glyph-name="currency" unicode="&#xa4;" horiz-adv-x="1208" 
d="M102 1061l138 137l147 -147q104 63 219 63q116 0 217 -63l146 147l137 -137l-148 -150q66 -111 66 -225q0 -115 -63 -209l145 -147l-137 -137l-146 147q-103 -64 -219 -64t-219 64l-145 -147l-138 137l146 147q-62 95 -62 215q0 118 64 221zM604 498q83 0 141 57t58 139
q0 83 -58 141t-141 58q-82 0 -139 -58t-57 -141q0 -82 57 -139t139 -57z" />
    <glyph glyph-name="yen" unicode="&#xa5;" horiz-adv-x="1515" 
d="M594 0v188h-307v140h307v196h-307v144h284l-524 743h383l326 -520l331 520h381l-522 -743h283v-144h-307v-196h307v-140h-307v-188h-328z" />
    <glyph glyph-name="brokenbar" unicode="&#xa6;" horiz-adv-x="468" 
d="M158 866v781h153v-781h-153zM158 -256v784h153v-784h-153z" />
    <glyph glyph-name="section" unicode="&#xa7;" horiz-adv-x="1116" 
d="M549 145q-186 0 -314.5 122t-128.5 317v405q0 129 60.5 230t161 153.5t221.5 52.5q72 0 141.5 -21t131.5 -62t106.5 -110t60.5 -157l-256 -76q-21 83 -72 120.5t-112 37.5q-73 0 -123.5 -46.5t-50.5 -121.5v-405q0 -82 54.5 -125t133.5 -43q41 0 86 6v-264
q-59 -13 -100 -13zM567 -401q-58 0 -114 12.5t-109.5 40.5t-97 68.5t-75.5 99.5t-44 131l254 76q23 -84 74.5 -122t111.5 -38q71 0 121.5 47.5t50.5 122.5v405q0 82 -54 125t-134 43q-39 0 -84 -8v266q47 11 100 11q185 0 314 -121.5t129 -315.5v-405q0 -130 -61 -231.5
t-161 -154t-221 -52.5z" />
    <glyph glyph-name="dieresis" unicode="&#xa8;" horiz-adv-x="1232" 
d="M399 1163q-63 0 -108 42.5t-45 103.5t45 103t108 42t106.5 -42t43.5 -103t-43.5 -103.5t-106.5 -42.5zM838 1163q-65 0 -110.5 42.5t-45.5 103.5t45.5 103t110.5 42q62 0 105.5 -42t43.5 -103t-43.5 -103.5t-105.5 -42.5z" />
    <glyph glyph-name="copyright" unicode="&#xa9;" horiz-adv-x="1593" 
d="M795 -20q-147 0 -279.5 57t-228 154t-151.5 230.5t-56 280.5q0 198 95 364.5t259.5 263.5t360.5 97t361 -97.5t260 -264t95 -363.5q0 -147 -56 -280.5t-151.5 -230.5t-228.5 -154t-280 -57zM795 106q121 0 230.5 47.5t188 127.5t124.5 190t46 231q0 163 -78 300.5
t-213.5 217.5t-297.5 80q-161 0 -297 -80.5t-214.5 -218t-78.5 -299.5t78.5 -299t214.5 -217t297 -80zM795 332q-150 0 -253.5 107t-103.5 257q0 151 103.5 257t253.5 106q88 0 165.5 -42.5t131.5 -115.5l-131 -94q-76 94 -166 94q-83 0 -136 -58.5t-53 -146.5
q0 -86 53.5 -144t135.5 -58q94 0 170 96l131 -94q-52 -75 -132.5 -119.5t-168.5 -44.5z" />
    <glyph glyph-name="ordfeminine" unicode="&#xaa;" horiz-adv-x="1085" 
d="M711 1450h233v-764h-233v90q-39 -52 -106.5 -78t-135.5 -26q-151 0 -262 110.5t-111 286.5q0 90 31 166.5t83 126.5t119 78t140 28q68 0 135.5 -26t106.5 -78v86zM518 889q75 0 129.5 52.5t54.5 127.5q0 77 -55 128.5t-129 51.5t-128 -52t-54 -126q0 -76 54 -129t128 -53
zM166 401v156h752v-156h-752z" />
    <glyph glyph-name="guillemotleft" unicode="&#xab;" horiz-adv-x="1054" 
d="M352 53l-282 424l282 424h234l-283 -424l283 -424h-234zM745 53l-282 424l282 424h234l-283 -424l283 -424h-234z" />
    <glyph glyph-name="logicalnot" unicode="&#xac;" horiz-adv-x="1245" 
d="M113 770h995v-563h-264v303h-731v260z" />
    <glyph glyph-name="uni00AD" unicode="&#xad;" horiz-adv-x="964" 
d="M119 362v263h725v-263h-725z" />
    <glyph glyph-name="registered" unicode="&#xae;" horiz-adv-x="1593" 
d="M795 1427q196 0 361 -97.5t260 -264t95 -363.5q0 -147 -56 -280.5t-151.5 -230.5t-228.5 -154t-280 -57t-279.5 57t-228 154t-151.5 230.5t-56 280.5q0 198 95 364.5t259.5 263.5t360.5 97zM795 106q121 0 230.5 47.5t188 127.5t124.5 190t46 231q0 163 -78 300.5
t-213.5 217.5t-297.5 80q-161 0 -297 -80.5t-214.5 -218t-78.5 -299.5t78.5 -299t214.5 -217t297 -80zM1075 817q0 -103 -44.5 -158.5t-117.5 -70.5l170 -234h-184l-160 228h-24v-228h-168v697h289q116 0 177.5 -68.5t61.5 -165.5zM715 901v-190h90q52 0 76 30.5t24 67.5
q0 34 -23.5 63t-72.5 29h-94z" />
    <glyph glyph-name="macron" unicode="&#xaf;" horiz-adv-x="1071" 
d="M246 1200v176h579v-176h-579z" />
    <glyph glyph-name="degree" unicode="&#xb0;" horiz-adv-x="731" 
d="M365 801q-119 0 -204 86t-85 207q0 120 85 205t204 85q121 0 206.5 -85t85.5 -205q0 -122 -85.5 -207.5t-206.5 -85.5zM365 952q61 0 101 40t40 102q0 59 -40 100t-101 41q-58 0 -99 -41t-41 -100q0 -61 40.5 -101.5t99.5 -40.5z" />
    <glyph glyph-name="plusminus" unicode="&#xb1;" horiz-adv-x="1073" 
d="M645 819h313v-215h-313v-291h-215v291h-315v215h315v289h215v-289zM115 -2v217h843v-217h-843z" />
    <glyph glyph-name="uni00B2" unicode="&#xb2;" horiz-adv-x="643" 
d="M340 1241h233v-158h-503l2 82l254 312q27 33 37 47t20 36t10 42q0 27 -23.5 45t-62.5 18q-48 0 -74 -28.5t-24 -75.5l-148 28q6 104 71.5 168t178.5 64q114 0 182 -64t68 -166q0 -41 -24.5 -94t-61.5 -98z" />
    <glyph glyph-name="uni00B3" unicode="&#xb3;" horiz-adv-x="606" 
d="M426 1473q53 -22 83 -66.5t30 -101.5q0 -104 -70.5 -168t-185.5 -64q-81 0 -148.5 35t-97.5 96l125 84q19 -28 49.5 -44.5t64.5 -16.5q43 0 69 21.5t26 56.5q0 43 -33 69.5t-88 26.5h-49v125h28q54 0 84.5 24t30.5 64q-1 28 -24.5 45.5t-51.5 17.5q-62 0 -104 -45l-88 97
q29 42 87.5 67t127.5 25q98 0 158.5 -55t60.5 -148q0 -102 -84 -145z" />
    <glyph glyph-name="acute" unicode="&#xb4;" horiz-adv-x="1110" 
d="M264 1126l193 351h291l-277 -351h-207z" />
    <glyph glyph-name="uni00B5" unicode="&#xb5;" horiz-adv-x="1241" 
d="M145 954h304v-505q0 -89 47.5 -132t111.5 -43q45 0 84.5 15.5t69 57.5t29.5 104v503h303v-954h-303v145q-16 -55 -66 -95.5t-103 -57.5t-100 -17q-60 0 -112 19v-373h-265v1333z" />
    <glyph glyph-name="paragraph" unicode="&#xb6;" horiz-adv-x="1488" 
d="M494 -96v618q-176 11 -300 139.5t-124 305.5q0 185 129 314.5t315 129.5h199v-1507h-219zM489 -430v192h279q41 0 64.5 28.5t23.5 68.5v1552h295q119 0 200 -84t81 -197v-176h-197v154q0 40 -27 64t-65 24h-78v-1346q0 -111 -77 -195.5t-195 -84.5h-304z" />
    <glyph glyph-name="periodcentered" unicode="&#xb7;" horiz-adv-x="577" 
d="M289 334q-78 0 -131.5 51t-53.5 129q0 77 53.5 127.5t131.5 50.5q77 0 131.5 -50.5t54.5 -127.5q0 -78 -54.5 -129t-131.5 -51z" />
    <glyph glyph-name="cedilla" unicode="&#xb8;" horiz-adv-x="1089" 
d="M551 -436q-97 0 -163 61.5t-66 181.5h147q0 -104 76 -104q29 0 49 21t20 55q0 24 -8 45l-106 225h147l92 -172q23 -39 23 -102q0 -91 -62 -151t-149 -60z" />
    <glyph glyph-name="uni00B9" unicode="&#xb9;" horiz-adv-x="475" 
d="M365 1821h8v-738h-166v506l-158 -57v158z" />
    <glyph glyph-name="ordmasculine" unicode="&#xba;" horiz-adv-x="1042" 
d="M520 672q-109 0 -203 48.5t-152.5 141t-58.5 209.5q0 118 58.5 210.5t152.5 140.5t203 48t203.5 -48t153.5 -140.5t59 -210.5q0 -117 -59 -209.5t-153.5 -141t-203.5 -48.5zM520 889q75 0 125.5 50t50.5 132t-50.5 132t-125.5 50q-74 0 -125 -50.5t-51 -131.5t51 -131.5
t125 -50.5zM145 557h752v-156h-752v156z" />
    <glyph glyph-name="guillemotright" unicode="&#xbb;" horiz-adv-x="1054" 
d="M76 53l282 424l-282 424h233l283 -424l-283 -424h-233zM469 53l283 424l-283 424h233l283 -424l-283 -424h-233z" />
    <glyph glyph-name="onequarter" unicode="&#xbc;" horiz-adv-x="1437" 
d="M1026 1366h182l-923 -1384h-185zM207 614v508l-158 -57v158l316 131h8v-740h-166zM1382 276v-139h-100v-137h-166v137h-348v41l463 551h51v-453h100zM1006 276h110v134z" />
    <glyph glyph-name="onehalf" unicode="&#xbd;" horiz-adv-x="1486" 
d="M1026 1366h182l-923 -1384h-185zM207 614v508l-158 -57v158l316 131h8v-740h-166zM1180 158h235v-158h-504l2 84l254 309q28 35 37.5 48t20 35.5t10.5 43.5q0 26 -24 45t-62 19q-48 0 -74 -30t-24 -77l-148 31q6 104 71.5 166.5t178.5 62.5q115 0 182.5 -63t67.5 -166
q0 -41 -24.5 -94.5t-61.5 -96.5z" />
    <glyph glyph-name="threequarters" unicode="&#xbe;" horiz-adv-x="1568" 
d="M1157 1366h182l-923 -1384h-185zM539 836q0 -103 -70.5 -167.5t-185.5 -64.5q-80 0 -147.5 35.5t-98.5 95.5l125 86q19 -28 49.5 -44.5t64.5 -16.5q43 0 69 21.5t26 56.5q0 43 -33 68.5t-88 25.5h-49v127h28q54 0 84.5 24t30.5 64q-1 28 -24.5 44.5t-51.5 16.5
q-61 0 -104 -43l-88 97q30 41 88.5 66.5t126.5 25.5q98 0 158.5 -55.5t60.5 -149.5q0 -99 -84 -145q53 -22 83 -66t30 -102zM1513 276v-139h-100v-137h-166v137h-348v41l463 551h51v-453h100zM1137 276h110v134z" />
    <glyph glyph-name="questiondown" unicode="&#xbf;" horiz-adv-x="974" 
d="M573 979q76 0 130.5 -52t54.5 -130q0 -77 -54.5 -128t-130.5 -51q-78 0 -133 51t-55 128q0 78 55 130t133 52zM686 463l6 -41q9 -53 4.5 -103t-21.5 -92t-60.5 -80t-112.5 -67l-74 -31q-84 -37 -84 -119q0 -60 40.5 -92.5t107.5 -32.5q59 0 102.5 40.5t44.5 107.5h279
q0 -211 -118.5 -323.5t-314.5 -112.5q-190 0 -309 107.5t-119 289.5q0 144 72.5 243t196.5 144q75 27 96 45q33 28 33 78v39h231z" />
    <glyph glyph-name="Agrave" unicode="&#xc0;" horiz-adv-x="1357" 
d="M791 1577h-207l-277 350h293zM1034 0l-106 328h-496l-104 -328h-344l522 1411h350l520 -1411h-342zM520 606h318l-160 494z" />
    <glyph glyph-name="Aacute" unicode="&#xc1;" horiz-adv-x="1357" 
d="M1059 1927l-277 -350h-207l193 350h291zM1034 0l-106 328h-496l-104 -328h-344l522 1411h350l520 -1411h-342zM520 606h318l-160 494z" />
    <glyph glyph-name="Acircumflex" unicode="&#xc2;" horiz-adv-x="1357" 
d="M678 1759l-162 -182h-213l223 350h303l226 -350h-215zM1034 0l-106 328h-496l-104 -328h-344l522 1411h350l520 -1411h-342zM520 606h318l-160 494z" />
    <glyph glyph-name="Atilde" unicode="&#xc3;" horiz-adv-x="1357" 
d="M590 1704q-15 0 -33.5 -22.5t-19.5 -65.5h-150q4 70 24 123.5t50 82t62.5 42.5t66.5 14q29 0 57.5 -13t46.5 -29t38.5 -29t35.5 -13q17 0 35.5 20t19.5 64h150q-3 -71 -23.5 -123.5t-52 -80.5t-64 -41t-65.5 -13q-34 0 -68 21t-62 42t-48 21zM1034 0l-106 328h-496
l-104 -328h-344l522 1411h350l520 -1411h-342zM520 606h318l-160 494z" />
    <glyph glyph-name="Adieresis" unicode="&#xc4;" horiz-adv-x="1357" 
d="M463 1614q-64 0 -109 42t-45 103q0 60 45.5 102t108.5 42t106 -42t43 -102q0 -61 -43 -103t-106 -42zM901 1614q-65 0 -110.5 42t-45.5 103q0 60 45.5 102t110.5 42q62 0 106 -42t44 -102q0 -61 -44 -103t-106 -42zM1034 0l-106 328h-496l-104 -328h-344l522 1411h350
l520 -1411h-342zM520 606h318l-160 494z" />
    <glyph glyph-name="Aring" unicode="&#xc5;" horiz-adv-x="1357" 
d="M678 1550q-105 0 -181.5 74t-76.5 180q0 107 76.5 182.5t181.5 75.5q108 0 185 -75.5t77 -182.5q0 -106 -77 -180t-185 -74zM678 1939q-54 0 -93.5 -39.5t-39.5 -95.5t39 -92.5t94 -36.5q57 0 98 36.5t41 92.5t-41.5 95.5t-97.5 39.5zM1034 0l-106 328h-496l-104 -328
h-344l522 1411h350l520 -1411h-342zM520 606h318l-160 494z" />
    <glyph glyph-name="AE" unicode="&#xc6;" horiz-adv-x="1914" 
d="M1212 283h603v-283h-922v317h-404l-151 -317h-387l731 1411h1116v-283h-586v-294h512v-275h-512v-276zM621 596h270v532h-17z" />
    <glyph glyph-name="Ccedilla" unicode="&#xc7;" horiz-adv-x="1439" 
d="M809 287q214 0 332 184l250 -176q-89 -131 -227 -212.5t-302 -96.5l60 -109q22 -37 22 -102q0 -91 -62 -151t-149 -60q-97 0 -163 61.5t-66 181.5h147q0 -104 76 -104q29 0 49.5 21t20.5 55q0 21 -9 45l-77 166q-176 20 -320.5 120t-227.5 258t-83 341q0 146 56.5 279.5
t152.5 230t229 154t279 57.5q182 0 338.5 -85t255.5 -229l-250 -174q-119 182 -330 182q-177 0 -292.5 -119.5t-115.5 -295.5q0 -178 114 -300t292 -122z" />
    <glyph glyph-name="Egrave" unicode="&#xc8;" horiz-adv-x="1185" 
d="M705 1577h-207l-277 350h293zM483 281h602v-281h-923v1411h905v-281h-584v-290h512v-289h-512v-270z" />
    <glyph glyph-name="Eacute" unicode="&#xc9;" horiz-adv-x="1185" 
d="M973 1927l-277 -350h-207l193 350h291zM483 281h602v-281h-923v1411h905v-281h-584v-290h512v-289h-512v-270z" />
    <glyph glyph-name="Ecircumflex" unicode="&#xca;" horiz-adv-x="1185" 
d="M592 1759l-162 -182h-213l223 350h303l226 -350h-215zM483 281h602v-281h-923v1411h905v-281h-584v-290h512v-289h-512v-270z" />
    <glyph glyph-name="Edieresis" unicode="&#xcb;" horiz-adv-x="1185" 
d="M377 1614q-64 0 -109 42t-45 103q0 60 45.5 102t108.5 42t106 -42t43 -102q0 -61 -43 -103t-106 -42zM815 1614q-65 0 -110.5 42t-45.5 103q0 60 45.5 102t110.5 42q62 0 106 -42t44 -102q0 -61 -44 -103t-106 -42zM483 281h602v-281h-923v1411h905v-281h-584v-290h512
v-289h-512v-270z" />
    <glyph glyph-name="Igrave" unicode="&#xcc;" horiz-adv-x="647" 
d="M227 1577l-276 350h293l190 -350h-207zM162 0v1411h321v-1411h-321z" />
    <glyph glyph-name="Iacute" unicode="&#xcd;" horiz-adv-x="647" 
d="M219 1577l193 350h290l-276 -350h-207zM162 0v1411h321v-1411h-321z" />
    <glyph glyph-name="Icircumflex" unicode="&#xce;" horiz-adv-x="647" 
d="M-53 1577l223 350h303l225 -350h-215l-161 182l-162 -182h-213zM162 0v1411h321v-1411h-321z" />
    <glyph glyph-name="Idieresis" unicode="&#xcf;" horiz-adv-x="647" 
d="M106 1614q-63 0 -108 42t-45 103q0 60 45 102t108 42t106.5 -42t43.5 -102q0 -61 -43.5 -103t-106.5 -42zM545 1614q-65 0 -110.5 42t-45.5 103q0 60 45.5 102t110.5 42q62 0 105.5 -42t43.5 -102q0 -61 -43.5 -103t-105.5 -42zM162 0v1411h321v-1411h-321z" />
    <glyph glyph-name="Eth" unicode="&#xd0;" horiz-adv-x="1472" 
d="M743 1411q198 0 345 -94t221.5 -253.5t74.5 -361.5q0 -150 -43.5 -278t-124 -222.5t-202.5 -148t-271 -53.5h-557v580h-153v235h153v596h557zM743 281q101 0 175 60.5t108.5 154t34.5 206.5q0 114 -34.5 209t-108.5 157t-175 62h-235v-315h231v-235h-231v-299h235z" />
    <glyph glyph-name="Ntilde" unicode="&#xd1;" horiz-adv-x="1390" 
d="M606 1704q-15 0 -33.5 -22.5t-19.5 -65.5h-150q4 70 24 123.5t50 82t62.5 42.5t66.5 14q29 0 57.5 -13t46.5 -29t38.5 -29t35.5 -13q17 0 36 20.5t20 63.5h149q-3 -71 -23.5 -123.5t-52 -80.5t-64 -41t-65.5 -13q-34 0 -68 21t-62 42t-48 21zM907 1411h322v-1411h-283
l-463 811v-811h-321v1411h295l450 -801v801z" />
    <glyph glyph-name="Ograve" unicode="&#xd2;" horiz-adv-x="1599" 
d="M705 1577l-277 350h293l190 -350h-206zM801 -18q-198 0 -364 97.5t-261.5 264t-95.5 363.5t95.5 363t261.5 263t364 97q146 0 279.5 -57.5t229.5 -154t153 -230.5t57 -281t-57 -281t-153 -231.5t-229.5 -155t-279.5 -57.5zM799 285q175 0 286 121t111 301q0 179 -111 299
t-286 120q-176 0 -286 -119.5t-110 -299.5t110 -301t286 -121z" />
    <glyph glyph-name="Oacute" unicode="&#xd3;" horiz-adv-x="1599" 
d="M696 1577l193 350h291l-277 -350h-207zM801 -18q-198 0 -364 97.5t-261.5 264t-95.5 363.5t95.5 363t261.5 263t364 97q146 0 279.5 -57.5t229.5 -154t153 -230.5t57 -281t-57 -281t-153 -231.5t-229.5 -155t-279.5 -57.5zM799 285q175 0 286 121t111 301q0 179 -111 299
t-286 120q-176 0 -286 -119.5t-110 -299.5t110 -301t286 -121z" />
    <glyph glyph-name="Ocircumflex" unicode="&#xd4;" horiz-adv-x="1599" 
d="M424 1577l223 350h303l226 -350h-215l-162 182l-162 -182h-213zM801 -18q-198 0 -364 97.5t-261.5 264t-95.5 363.5t95.5 363t261.5 263t364 97q146 0 279.5 -57.5t229.5 -154t153 -230.5t57 -281t-57 -281t-153 -231.5t-229.5 -155t-279.5 -57.5zM799 285q175 0 286 121
t111 301q0 179 -111 299t-286 120q-176 0 -286 -119.5t-110 -299.5t110 -301t286 -121z" />
    <glyph glyph-name="Otilde" unicode="&#xd5;" horiz-adv-x="1599" 
d="M508 1616q4 70 24 123.5t50 82t62.5 42.5t66.5 14q29 0 57.5 -13t46.5 -29t38.5 -29t35.5 -13q17 0 35.5 20t19.5 64h150q-3 -71 -23.5 -123.5t-52 -80.5t-64 -41t-65.5 -13q-34 0 -68 21t-62 42t-48 21q-15 0 -34 -22.5t-20 -65.5h-149zM801 -18q-198 0 -364 97.5
t-261.5 264t-95.5 363.5t95.5 363t261.5 263t364 97q146 0 279.5 -57.5t229.5 -154t153 -230.5t57 -281t-57 -281t-153 -231.5t-229.5 -155t-279.5 -57.5zM799 285q175 0 286 121t111 301q0 179 -111 299t-286 120q-176 0 -286 -119.5t-110 -299.5t110 -301t286 -121z" />
    <glyph glyph-name="Odieresis" unicode="&#xd6;" horiz-adv-x="1599" 
d="M584 1614q-64 0 -109 42t-45 103q0 60 45.5 102t108.5 42t106 -42t43 -102q0 -61 -43 -103t-106 -42zM1022 1614q-65 0 -110.5 42t-45.5 103q0 60 45.5 102t110.5 42q62 0 105.5 -42t43.5 -102q0 -61 -43.5 -103t-105.5 -42zM801 -18q-198 0 -364 97.5t-261.5 264
t-95.5 363.5t95.5 363t261.5 263t364 97q146 0 279.5 -57.5t229.5 -154t153 -230.5t57 -281t-57 -281t-153 -231.5t-229.5 -155t-279.5 -57.5zM799 285q175 0 286 121t111 301q0 179 -111 299t-286 120q-176 0 -286 -119.5t-110 -299.5t110 -301t286 -121z" />
    <glyph glyph-name="multiply" unicode="&#xd7;" horiz-adv-x="960" 
d="M868 762l-235 -236l235 -235l-151 -154l-238 238l-231 -232l-152 154l232 229l-234 232l152 153l233 -233l238 235z" />
    <glyph glyph-name="Oslash" unicode="&#xd8;" horiz-adv-x="1603" 
d="M1352 1176q170 -204 170 -469q0 -196 -96 -363t-261.5 -264.5t-361.5 -97.5q-261 0 -455 161l-162 -168l-96 97l162 166q-168 205 -168 469q0 197 95 363t260.5 263t363.5 97q255 0 452 -160l162 166l96 -95zM408 707q0 -139 65 -242l567 584q-104 77 -239 77
q-174 0 -283.5 -119.5t-109.5 -299.5zM801 285q175 0 286 121t111 301q0 133 -68 241l-567 -586q99 -77 238 -77z" />
    <glyph glyph-name="Ugrave" unicode="&#xd9;" horiz-adv-x="1394" 
d="M602 1577l-276 350h292l191 -350h-207zM698 -18q-147 0 -271.5 63t-202 185t-77.5 280v901h322v-876q0 -125 66 -186.5t163 -61.5q96 0 162 61.5t66 186.5v876h321v-901q0 -158 -77 -280t-201 -185t-271 -63z" />
    <glyph glyph-name="Uacute" unicode="&#xda;" horiz-adv-x="1394" 
d="M594 1577l192 350h291l-276 -350h-207zM698 -18q-147 0 -271.5 63t-202 185t-77.5 280v901h322v-876q0 -125 66 -186.5t163 -61.5q96 0 162 61.5t66 186.5v876h321v-901q0 -158 -77 -280t-201 -185t-271 -63z" />
    <glyph glyph-name="Ucircumflex" unicode="&#xdb;" horiz-adv-x="1394" 
d="M322 1577l223 350h303l225 -350h-215l-162 182l-161 -182h-213zM698 -18q-147 0 -271.5 63t-202 185t-77.5 280v901h322v-876q0 -125 66 -186.5t163 -61.5q96 0 162 61.5t66 186.5v876h321v-901q0 -158 -77 -280t-201 -185t-271 -63z" />
    <glyph glyph-name="Udieresis" unicode="&#xdc;" horiz-adv-x="1394" 
d="M481 1614q-63 0 -108 42t-45 103q0 60 45 102t108 42t106.5 -42t43.5 -102q0 -61 -43.5 -103t-106.5 -42zM920 1614q-65 0 -110.5 42t-45.5 103q0 60 45.5 102t110.5 42q62 0 105.5 -42t43.5 -102q0 -61 -43.5 -103t-105.5 -42zM698 -18q-147 0 -271.5 63t-202 185
t-77.5 280v901h322v-876q0 -125 66 -186.5t163 -61.5q96 0 162 61.5t66 186.5v876h321v-901q0 -158 -77 -280t-201 -185t-271 -63z" />
    <glyph glyph-name="Yacute" unicode="&#xdd;" horiz-adv-x="1406" 
d="M1083 1927l-276 -350h-207l193 350h290zM1032 1411h383l-551 -780v-631h-323v637l-549 774h383l325 -520z" />
    <glyph glyph-name="Thorn" unicode="&#xde;" horiz-adv-x="1277" 
d="M733 1174q203 0 337 -127t134 -336q0 -210 -134 -340.5t-337 -130.5h-250v-240h-321v1411h321v-237h250zM709 520q77 0 125.5 51.5t48.5 133.5q0 85 -49 136.5t-127 51.5h-224v-373h226z" />
    <glyph glyph-name="germandbls" unicode="&#xdf;" horiz-adv-x="1224" 
d="M846 823q142 -31 224.5 -136.5t82.5 -266.5q0 -197 -139.5 -317.5t-366.5 -120.5q-73 0 -145 20l69 262q43 -14 91 -14q81 0 132.5 60t51.5 147q0 84 -56.5 135t-146.5 51h-76v270h45q51 0 83 40.5t32 103.5q0 60 -39 94.5t-104 34.5q-70 0 -112 -57.5t-42 -157.5v-971
h-303v971q0 228 127.5 363.5t339.5 135.5q198 0 319 -104t121 -274q0 -92 -53.5 -166.5t-134.5 -102.5z" />
    <glyph glyph-name="agrave" unicode="&#xe0;" horiz-adv-x="1261" 
d="M737 1120h-207l-276 350h293zM834 954h301v-954h-301v109q-49 -63 -132 -95t-165 -32q-90 0 -173 35t-147.5 97t-103.5 157.5t-39 207.5t39 207.5t103.5 158t147.5 97.5t173 35q82 0 165 -32t132 -95v104zM602 264q89 0 154 62t65 153t-65.5 153t-153.5 62
q-90 0 -155.5 -62.5t-65.5 -152.5t65.5 -152.5t155.5 -62.5z" />
    <glyph glyph-name="aacute" unicode="&#xe1;" horiz-adv-x="1261" 
d="M1006 1470l-277 -350h-207l193 350h291zM834 954h301v-954h-301v109q-49 -63 -132 -95t-165 -32q-90 0 -173 35t-147.5 97t-103.5 157.5t-39 207.5t39 207.5t103.5 158t147.5 97.5t173 35q82 0 165 -32t132 -95v104zM602 264q89 0 154 62t65 153t-65.5 153t-153.5 62
q-90 0 -155.5 -62.5t-65.5 -152.5t65.5 -152.5t155.5 -62.5z" />
    <glyph glyph-name="acircumflex" unicode="&#xe2;" horiz-adv-x="1261" 
d="M625 1303l-162 -183h-213l223 350h303l225 -350h-215zM834 954h301v-954h-301v109q-49 -63 -132 -95t-165 -32q-90 0 -173 35t-147.5 97t-103.5 157.5t-39 207.5t39 207.5t103.5 158t147.5 97.5t173 35q82 0 165 -32t132 -95v104zM602 264q89 0 154 62t65 153t-65.5 153
t-153.5 62q-90 0 -155.5 -62.5t-65.5 -152.5t65.5 -152.5t155.5 -62.5z" />
    <glyph glyph-name="atilde" unicode="&#xe3;" horiz-adv-x="1261" 
d="M537 1247q-15 0 -34 -22.5t-20 -65.5h-149q4 70 24 123.5t50 82t62.5 42.5t66.5 14q29 0 57.5 -13t46.5 -29t38.5 -29t35.5 -13q17 0 35.5 20t19.5 64h150q-3 -71 -23.5 -123.5t-52 -80.5t-64 -41t-65.5 -13q-34 0 -68 21t-62 42t-48 21zM834 954h301v-954h-301v109
q-49 -63 -132 -95t-165 -32q-90 0 -173 35t-147.5 97t-103.5 157.5t-39 207.5t39 207.5t103.5 158t147.5 97.5t173 35q82 0 165 -32t132 -95v104zM602 264q89 0 154 62t65 153t-65.5 153t-153.5 62q-90 0 -155.5 -62.5t-65.5 -152.5t65.5 -152.5t155.5 -62.5z" />
    <glyph glyph-name="adieresis" unicode="&#xe4;" horiz-adv-x="1261" 
d="M410 1157q-63 0 -108.5 42.5t-45.5 103.5q0 60 45.5 101.5t108.5 41.5t106 -41.5t43 -101.5q0 -62 -43 -104t-106 -42zM848 1157q-65 0 -110.5 42.5t-45.5 103.5q0 60 45.5 101.5t110.5 41.5q62 0 105.5 -41.5t43.5 -101.5q0 -61 -43.5 -103.5t-105.5 -42.5zM834 954h301
v-954h-301v109q-49 -63 -132 -95t-165 -32q-90 0 -173 35t-147.5 97t-103.5 157.5t-39 207.5t39 207.5t103.5 158t147.5 97.5t173 35q82 0 165 -32t132 -95v104zM602 264q89 0 154 62t65 153t-65.5 153t-153.5 62q-90 0 -155.5 -62.5t-65.5 -152.5t65.5 -152.5t155.5 -62.5z
" />
    <glyph glyph-name="aring" unicode="&#xe5;" horiz-adv-x="1261" 
d="M625 1094q-105 0 -181.5 74t-76.5 180q0 107 76.5 182.5t181.5 75.5q108 0 185 -75.5t77 -182.5q0 -106 -77 -180t-185 -74zM625 1483q-55 0 -94 -39.5t-39 -95.5t39 -92.5t94 -36.5q57 0 98 36.5t41 92.5t-41.5 95.5t-97.5 39.5zM834 954h301v-954h-301v109
q-49 -63 -132 -95t-165 -32q-90 0 -173 35t-147.5 97t-103.5 157.5t-39 207.5t39 207.5t103.5 158t147.5 97.5t173 35q82 0 165 -32t132 -95v104zM602 264q89 0 154 62t65 153t-65.5 153t-153.5 62q-90 0 -155.5 -62.5t-65.5 -152.5t65.5 -152.5t155.5 -62.5z" />
    <glyph glyph-name="ae" unicode="&#xe6;" horiz-adv-x="1781" 
d="M1718 498q0 -38 -6 -109h-694q24 -65 82 -104t137 -39q67 0 131.5 24.5t108.5 67.5l157 -197q-69 -75 -182.5 -117t-237.5 -42q-114 0 -208 35.5t-154 101.5q-83 -73 -189 -105t-206 -32q-173 0 -285.5 81t-112.5 218q0 96 57 163.5t140 97t180 29.5q151 0 262 -59v41
q0 73 -53 116.5t-127 43.5q-137 0 -227 -88l-164 161q157 193 434 193q207 0 326 -107q135 107 325 107q137 0 252 -58.5t184.5 -169.5t69.5 -253zM1018 567h397q-3 69 -58 112.5t-136 43.5q-74 0 -127 -39t-76 -117zM483 209q55 0 132.5 31t111.5 75l-10 19
q-35 24 -94.5 38.5t-120.5 14.5q-75 0 -105 -27.5t-30 -62.5q0 -39 31.5 -63.5t84.5 -24.5z" />
    <glyph glyph-name="ccedilla" unicode="&#xe7;" horiz-adv-x="1069" 
d="M600 262q51 0 102 25t80 67l234 -147q-126 -183 -330 -219l59 -111q23 -39 23 -102q0 -91 -62 -151t-149 -60q-97 0 -163 61.5t-66 181.5h147q0 -104 76 -104q29 0 49.5 21t20.5 55q0 21 -9 45l-75 162q-95 10 -179 49.5t-148 102t-101 151.5t-37 192q0 111 43 205.5
t115.5 158t168 99t199.5 35.5q134 0 240 -60t178 -165l-234 -148q-29 42 -80 67t-102 25q-101 0 -161 -62.5t-60 -154.5q0 -94 60 -156.5t161 -62.5z" />
    <glyph glyph-name="egrave" unicode="&#xe8;" horiz-adv-x="1157" 
d="M686 1120h-207l-276 350h293zM1092 498q0 -27 -7 -109h-698q22 -68 79.5 -105.5t143.5 -37.5q67 0 131.5 24.5t110.5 67.5l156 -197q-69 -75 -182.5 -117t-237.5 -42q-226 0 -371 137.5t-145 355.5q0 113 42 209t113 160t164.5 99.5t196.5 35.5q136 0 250.5 -58.5
t184 -170t69.5 -252.5zM385 567h403q-1 70 -56 113t-138 43q-75 0 -131 -37.5t-78 -118.5z" />
    <glyph glyph-name="eacute" unicode="&#xe9;" horiz-adv-x="1157" 
d="M954 1470l-276 -350h-207l193 350h290zM1092 498q0 -27 -7 -109h-698q22 -68 79.5 -105.5t143.5 -37.5q67 0 131.5 24.5t110.5 67.5l156 -197q-69 -75 -182.5 -117t-237.5 -42q-226 0 -371 137.5t-145 355.5q0 113 42 209t113 160t164.5 99.5t196.5 35.5
q136 0 250.5 -58.5t184 -170t69.5 -252.5zM385 567h403q-1 70 -56 113t-138 43q-75 0 -131 -37.5t-78 -118.5z" />
    <glyph glyph-name="ecircumflex" unicode="&#xea;" horiz-adv-x="1157" 
d="M573 1303l-161 -183h-213l223 350h303l225 -350h-215zM1092 498q0 -27 -7 -109h-698q22 -68 79.5 -105.5t143.5 -37.5q67 0 131.5 24.5t110.5 67.5l156 -197q-69 -75 -182.5 -117t-237.5 -42q-226 0 -371 137.5t-145 355.5q0 113 42 209t113 160t164.5 99.5t196.5 35.5
q136 0 250.5 -58.5t184 -170t69.5 -252.5zM385 567h403q-1 70 -56 113t-138 43q-75 0 -131 -37.5t-78 -118.5z" />
    <glyph glyph-name="edieresis" unicode="&#xeb;" horiz-adv-x="1157" 
d="M358 1157q-63 0 -108 42.5t-45 103.5q0 60 45 101.5t108 41.5t106.5 -41.5t43.5 -101.5q0 -61 -43.5 -103.5t-106.5 -42.5zM797 1157q-65 0 -110.5 42.5t-45.5 103.5q0 60 45.5 101.5t110.5 41.5q62 0 105.5 -41.5t43.5 -101.5q0 -61 -43.5 -103.5t-105.5 -42.5z
M1092 498q0 -27 -7 -109h-698q22 -68 79.5 -105.5t143.5 -37.5q67 0 131.5 24.5t110.5 67.5l156 -197q-69 -75 -182.5 -117t-237.5 -42q-226 0 -371 137.5t-145 355.5q0 113 42 209t113 160t164.5 99.5t196.5 35.5q136 0 250.5 -58.5t184 -170t69.5 -252.5zM385 567h403
q-1 70 -56 113t-138 43q-75 0 -131 -37.5t-78 -118.5z" />
    <glyph glyph-name="igrave" unicode="&#xec;" horiz-adv-x="557" 
d="M209 1126l-277 351h293l191 -351h-207zM127 0v954h303v-954h-303z" />
    <glyph glyph-name="iacute" unicode="&#xed;" horiz-adv-x="557" 
d="M131 1126l193 351h290l-276 -351h-207zM127 0v954h303v-954h-303z" />
    <glyph glyph-name="icircumflex" unicode="&#xee;" horiz-adv-x="557" 
d="M-96 1126l223 351h303l225 -351h-215l-161 181l-162 -181h-213zM127 0v954h303v-954h-303z" />
    <glyph glyph-name="idieresis" unicode="&#xef;" horiz-adv-x="557" 
d="M61 1163q-63 0 -108 42.5t-45 103.5t45 103t108 42t106.5 -42t43.5 -103t-43.5 -103.5t-106.5 -42.5zM500 1163q-65 0 -110.5 42.5t-45.5 103.5t45.5 103t110.5 42q62 0 105.5 -42t43.5 -103t-43.5 -103.5t-105.5 -42.5zM127 0v954h303v-954h-303z" />
    <glyph glyph-name="eth" unicode="&#xf0;" horiz-adv-x="1159" 
d="M995 778q90 -125 90 -301q0 -146 -70.5 -260.5t-185.5 -174.5t-251 -60q-135 0 -249.5 60t-185.5 174.5t-71 260.5q0 134 68 240.5t181 163.5t248 57h13l-125 182l-232 -94l-45 111l209 84l-164 237h303l99 -141l168 67l43 -110l-144 -57zM578 262q81 0 140.5 61.5
t59.5 153.5q0 88 -59 145.5t-141 57.5q-79 0 -139 -57.5t-60 -145.5q0 -91 60 -153t139 -62z" />
    <glyph glyph-name="ntilde" unicode="&#xf1;" horiz-adv-x="1198" 
d="M508 1247q-15 0 -33.5 -22.5t-19.5 -65.5h-150q4 70 24 123.5t50 82t62.5 42.5t66.5 14q29 0 57.5 -13t46.5 -29t38.5 -29t35.5 -13q17 0 35.5 20t19.5 64h150q-3 -71 -23.5 -123.5t-52 -80.5t-64 -41t-65.5 -13q-34 0 -68 21t-62 42t-48 21zM705 979q188 0 283 -121
t95 -344v-514h-303v479q0 101 -50 152t-116 51q-34 0 -64 -9.5t-58.5 -31.5t-45 -63.5t-16.5 -98.5v-479h-303v954h303v-170q23 92 109 143.5t166 51.5z" />
    <glyph glyph-name="ograve" unicode="&#xf2;" horiz-adv-x="1179" 
d="M498 1120l-277 350h293l191 -350h-207zM590 -18q-137 0 -254.5 60.5t-190.5 175.5t-73 261q0 110 42.5 205t114.5 159t165.5 100t195.5 36t196 -36t166 -100t115 -159t43 -205q0 -146 -73.5 -261t-191.5 -175.5t-255 -60.5zM590 262q90 0 150.5 60.5t60.5 156.5
q0 97 -61 158t-150 61t-150 -61t-61 -158q0 -96 60.5 -156.5t150.5 -60.5z" />
    <glyph glyph-name="oacute" unicode="&#xf3;" horiz-adv-x="1179" 
d="M489 1120l193 350h291l-277 -350h-207zM590 -18q-137 0 -254.5 60.5t-190.5 175.5t-73 261q0 110 42.5 205t114.5 159t165.5 100t195.5 36t196 -36t166 -100t115 -159t43 -205q0 -146 -73.5 -261t-191.5 -175.5t-255 -60.5zM590 262q90 0 150.5 60.5t60.5 156.5
q0 97 -61 158t-150 61t-150 -61t-61 -158q0 -96 60.5 -156.5t150.5 -60.5z" />
    <glyph glyph-name="ocircumflex" unicode="&#xf4;" horiz-adv-x="1179" 
d="M217 1120l223 350h303l226 -350h-215l-162 183l-162 -183h-213zM590 -18q-137 0 -254.5 60.5t-190.5 175.5t-73 261q0 110 42.5 205t114.5 159t165.5 100t195.5 36t196 -36t166 -100t115 -159t43 -205q0 -146 -73.5 -261t-191.5 -175.5t-255 -60.5zM590 262
q90 0 150.5 60.5t60.5 156.5q0 97 -61 158t-150 61t-150 -61t-61 -158q0 -96 60.5 -156.5t150.5 -60.5z" />
    <glyph glyph-name="otilde" unicode="&#xf5;" horiz-adv-x="1179" 
d="M301 1159q4 70 24 123.5t50 82t62.5 42.5t66.5 14q29 0 57.5 -13t46.5 -29t38.5 -29t35.5 -13q17 0 35.5 20t19.5 64h150q-3 -71 -23.5 -123.5t-52 -80.5t-64 -41t-65.5 -13q-34 0 -68 21t-62 42t-48 21q-15 0 -33.5 -22.5t-19.5 -65.5h-150zM590 -18q-137 0 -254.5 60.5
t-190.5 175.5t-73 261q0 110 42.5 205t114.5 159t165.5 100t195.5 36t196 -36t166 -100t115 -159t43 -205q0 -146 -73.5 -261t-191.5 -175.5t-255 -60.5zM590 262q90 0 150.5 60.5t60.5 156.5q0 97 -61 158t-150 61t-150 -61t-61 -158q0 -96 60.5 -156.5t150.5 -60.5z" />
    <glyph glyph-name="odieresis" unicode="&#xf6;" horiz-adv-x="1179" 
d="M377 1157q-63 0 -108.5 42.5t-45.5 103.5q0 60 45.5 101.5t108.5 41.5t106 -41.5t43 -101.5q0 -62 -43 -104t-106 -42zM815 1157q-65 0 -110.5 42.5t-45.5 103.5q0 60 45.5 101.5t110.5 41.5q62 0 106 -41.5t44 -101.5q0 -61 -44 -103.5t-106 -42.5zM590 -18
q-137 0 -254.5 60.5t-190.5 175.5t-73 261q0 110 42.5 205t114.5 159t165.5 100t195.5 36t196 -36t166 -100t115 -159t43 -205q0 -146 -73.5 -261t-191.5 -175.5t-255 -60.5zM590 262q90 0 150.5 60.5t60.5 156.5q0 97 -61 158t-150 61t-150 -61t-61 -158q0 -96 60.5 -156.5
t150.5 -60.5z" />
    <glyph glyph-name="divide" unicode="&#xf7;" horiz-adv-x="1189" 
d="M592 772q-69 0 -116.5 44.5t-47.5 115.5q0 68 48 114t116 46q70 0 119 -46t49 -114q0 -71 -48.5 -115.5t-119.5 -44.5zM76 444v205h1036v-205h-1036zM592 -8q-68 0 -116 47t-48 115q0 69 47.5 114t116.5 45q70 0 119 -45t49 -114q0 -68 -49 -115t-119 -47z" />
    <glyph glyph-name="oslash" unicode="&#xf8;" horiz-adv-x="1181" 
d="M993 801q117 -137 117 -322q0 -146 -73.5 -261t-191.5 -175.5t-255 -60.5q-168 0 -305 92l-111 -115l-84 86l105 107q-123 136 -123 327q0 110 42.5 205t114.5 159t165.5 100t195.5 36q175 0 315 -98l103 104l84 -84zM379 479q0 -58 27 -110l294 301q-51 28 -110 28
q-89 0 -150 -61t-61 -158zM590 262q91 0 151 60t60 157q0 49 -21 103l-288 -297q48 -23 98 -23z" />
    <glyph glyph-name="ugrave" unicode="&#xf9;" horiz-adv-x="1198" 
d="M707 1120h-207l-277 350h293zM768 954h303v-954h-303v164q-15 -62 -66 -107t-105 -63.5t-103 -18.5q-188 0 -283.5 121t-95.5 344v514h303v-479q0 -101 50 -152t116 -51q33 0 63 9.5t58.5 31.5t45.5 63.5t17 98.5v479z" />
    <glyph glyph-name="uacute" unicode="&#xfa;" horiz-adv-x="1198" 
d="M975 1470l-277 -350h-206l192 350h291zM768 954h303v-954h-303v164q-15 -62 -66 -107t-105 -63.5t-103 -18.5q-188 0 -283.5 121t-95.5 344v514h303v-479q0 -101 50 -152t116 -51q33 0 63 9.5t58.5 31.5t45.5 63.5t17 98.5v479z" />
    <glyph glyph-name="ucircumflex" unicode="&#xfb;" horiz-adv-x="1198" 
d="M594 1303l-162 -183h-213l223 350h303l226 -350h-215zM768 954h303v-954h-303v164q-15 -62 -66 -107t-105 -63.5t-103 -18.5q-188 0 -283.5 121t-95.5 344v514h303v-479q0 -101 50 -152t116 -51q33 0 63 9.5t58.5 31.5t45.5 63.5t17 98.5v479z" />
    <glyph glyph-name="udieresis" unicode="&#xfc;" horiz-adv-x="1198" 
d="M379 1157q-63 0 -108.5 42.5t-45.5 103.5q0 60 45.5 101.5t108.5 41.5t106 -41.5t43 -101.5q0 -62 -43 -104t-106 -42zM817 1157q-65 0 -110 42.5t-45 103.5q0 60 45 101.5t110 41.5q62 0 106 -41.5t44 -101.5q0 -61 -44 -103.5t-106 -42.5zM768 954h303v-954h-303v164
q-15 -62 -66 -107t-105 -63.5t-103 -18.5q-188 0 -283.5 121t-95.5 344v514h303v-479q0 -101 50 -152t116 -51q33 0 63 9.5t58.5 31.5t45.5 63.5t17 98.5v479z" />
    <glyph glyph-name="yacute" unicode="&#xfd;" horiz-adv-x="1056" 
d="M913 1470l-276 -350h-207l193 350h290zM731 954h326l-590 -1425h-324l236 584l-377 841h336l199 -493z" />
    <glyph glyph-name="thorn" unicode="&#xfe;" horiz-adv-x="1261" 
d="M725 977q90 0 174 -35t148.5 -97.5t103.5 -158t39 -207.5t-39 -207t-103.5 -157.5t-148.5 -97.5t-174 -35q-82 0 -164 31t-131 93v-577h-303v1929h303v-606q49 62 131.5 93.5t163.5 31.5zM662 264q90 0 155.5 62.5t65.5 152.5t-65.5 152.5t-155.5 62.5q-88 0 -155 -62.5
t-67 -152.5q0 -91 66 -153t156 -62z" />
    <glyph glyph-name="ydieresis" unicode="&#xff;" horiz-adv-x="1056" 
d="M317 1157q-63 0 -108 42.5t-45 103.5q0 60 45 101.5t108 41.5t106.5 -41.5t43.5 -101.5q0 -61 -43.5 -103.5t-106.5 -42.5zM756 1157q-65 0 -110.5 42.5t-45.5 103.5q0 60 45.5 101.5t110.5 41.5q62 0 105.5 -41.5t43.5 -101.5q0 -61 -43.5 -103.5t-105.5 -42.5zM731 954
h326l-590 -1425h-324l236 584l-377 841h336l199 -493z" />
    <glyph glyph-name="Amacron" unicode="&#x100;" horiz-adv-x="1357" 
d="M969 1831v-178h-580v178h580zM1034 0l-106 328h-496l-104 -328h-344l522 1411h350l520 -1411h-342zM520 606h318l-160 494z" />
    <glyph glyph-name="amacron" unicode="&#x101;" horiz-adv-x="1261" 
d="M915 1374v-178h-579v178h579zM834 954h301v-954h-301v109q-49 -63 -132 -95t-165 -32q-90 0 -173 35t-147.5 97t-103.5 157.5t-39 207.5t39 207.5t103.5 158t147.5 97.5t173 35q82 0 165 -32t132 -95v104zM602 264q89 0 154 62t65 153t-65.5 153t-153.5 62
q-90 0 -155.5 -62.5t-65.5 -152.5t65.5 -152.5t155.5 -62.5z" />
    <glyph glyph-name="Abreve" unicode="&#x102;" horiz-adv-x="1357" 
d="M680 1608q-133 0 -205 80t-72 190h179q0 -54 22.5 -80t75.5 -26q96 0 96 106h182q0 -121 -78 -195.5t-200 -74.5zM1034 0l-106 328h-496l-104 -328h-344l522 1411h350l520 -1411h-342zM520 606h318l-160 494z" />
    <glyph glyph-name="abreve" unicode="&#x103;" horiz-adv-x="1261" 
d="M627 1151q-133 0 -205 80t-72 190h178q0 -54 23 -80t76 -26q96 0 96 106h182q0 -121 -78 -195.5t-200 -74.5zM834 954h301v-954h-301v109q-49 -63 -132 -95t-165 -32q-90 0 -173 35t-147.5 97t-103.5 157.5t-39 207.5t39 207.5t103.5 158t147.5 97.5t173 35q82 0 165 -32
t132 -95v104zM602 264q89 0 154 62t65 153t-65.5 153t-153.5 62q-90 0 -155.5 -62.5t-65.5 -152.5t65.5 -152.5t155.5 -62.5z" />
    <glyph glyph-name="Aogonek" unicode="&#x104;" horiz-adv-x="1357" 
d="M1128 -297q76 0 76 104h150q0 -120 -67 -181.5t-165 -61.5q-87 0 -149 60t-62 151q0 63 23 102l88 164l-94 287h-496l-104 -328h-344l522 1411h350l520 -1411h-225l-84 -176q-8 -21 -8 -45q0 -34 20 -55t49 -21zM520 606h318l-160 494z" />
    <glyph glyph-name="aogonek" unicode="&#x105;" horiz-adv-x="1261" 
d="M932 -436q-88 0 -150.5 60t-62.5 151q0 59 22 102l93 168v61q-51 -61 -134 -92.5t-163 -31.5q-90 0 -173 35t-147.5 97t-103.5 157.5t-39 207.5t39 207.5t103.5 158t147.5 97.5t173 35q81 0 163.5 -32t133.5 -93v102h301v-954h-174l-84 -176q-9 -24 -9 -45q0 -34 20 -55
t48 -21q76 0 76 104h149q0 -120 -66 -181.5t-163 -61.5zM602 264q89 0 154 62t65 153t-65.5 153t-153.5 62q-90 0 -155.5 -62.5t-65.5 -152.5t65.5 -152.5t155.5 -62.5z" />
    <glyph glyph-name="Cacute" unicode="&#x106;" horiz-adv-x="1439" 
d="M614 1577l193 350h291l-277 -350h-207zM797 -16q-146 0 -279 57.5t-229 154.5t-152.5 231t-56.5 282q0 146 56.5 279.5t152.5 230t229 154t279 57.5q182 0 338.5 -85t255.5 -229l-250 -174q-119 182 -330 182q-177 0 -292.5 -119.5t-115.5 -295.5q0 -178 114 -300
t292 -122q214 0 332 184l250 -176q-99 -144 -255 -227.5t-339 -83.5z" />
    <glyph glyph-name="cacute" unicode="&#x107;" horiz-adv-x="1069" 
d="M438 1120l193 350h291l-277 -350h-207zM598 -18q-140 0 -259.5 60.5t-193 176t-73.5 262.5q0 111 43 205.5t115.5 158t168 99t199.5 35.5q134 0 240 -60t178 -165l-234 -148q-29 42 -80 67t-102 25q-101 0 -161 -62.5t-60 -154.5q0 -94 60 -156.5t161 -62.5q51 0 102 25
t80 67l234 -147q-72 -105 -178 -165t-240 -60z" />
    <glyph glyph-name="Cdotaccent" unicode="&#x10a;" horiz-adv-x="1439" 
d="M793 1593q-70 0 -117 45t-47 115q0 68 47 113t117 45t117.5 -45t47.5 -113q0 -70 -47.5 -115t-117.5 -45zM797 -16q-146 0 -279 57.5t-229 154.5t-152.5 231t-56.5 282q0 146 56.5 279.5t152.5 230t229 154t279 57.5q182 0 338.5 -85t255.5 -229l-250 -174
q-119 182 -330 182q-177 0 -292.5 -119.5t-115.5 -295.5q0 -178 114 -300t292 -122q214 0 332 184l250 -176q-99 -144 -255 -227.5t-339 -83.5z" />
    <glyph glyph-name="cdotaccent" unicode="&#x10b;" horiz-adv-x="1069" 
d="M582 1137q-70 0 -117 44.5t-47 114.5q0 68 47 113t117 45t118 -45t48 -113q0 -69 -48 -114t-118 -45zM598 -18q-140 0 -259.5 60.5t-193 176t-73.5 262.5q0 111 43 205.5t115.5 158t168 99t199.5 35.5q134 0 240 -60t178 -165l-234 -148q-29 42 -80 67t-102 25
q-101 0 -161 -62.5t-60 -154.5q0 -94 60 -156.5t161 -62.5q51 0 102 25t80 67l234 -147q-72 -105 -178 -165t-240 -60z" />
    <glyph glyph-name="Ccaron" unicode="&#x10c;" horiz-adv-x="1439" 
d="M635 1577l-223 350h213l161 -182l162 182h215l-225 -350h-303zM797 -16q-146 0 -279 57.5t-229 154.5t-152.5 231t-56.5 282q0 146 56.5 279.5t152.5 230t229 154t279 57.5q182 0 338.5 -85t255.5 -229l-250 -174q-119 182 -330 182q-177 0 -292.5 -119.5t-115.5 -295.5
q0 -178 114 -300t292 -122q214 0 332 184l250 -176q-99 -144 -255 -227.5t-339 -83.5z" />
    <glyph glyph-name="ccaron" unicode="&#x10d;" horiz-adv-x="1069" 
d="M420 1120l-223 350h213l161 -182l162 182h215l-225 -350h-303zM598 -18q-140 0 -259.5 60.5t-193 176t-73.5 262.5q0 111 43 205.5t115.5 158t168 99t199.5 35.5q134 0 240 -60t178 -165l-234 -148q-29 42 -80 67t-102 25q-101 0 -161 -62.5t-60 -154.5q0 -94 60 -156.5
t161 -62.5q51 0 102 25t80 67l234 -147q-72 -105 -178 -165t-240 -60z" />
    <glyph glyph-name="Dcaron" unicode="&#x10e;" horiz-adv-x="1447" 
d="M506 1577l-223 350h213l161 -182l162 182h215l-225 -350h-303zM162 0v1411h557q150 0 272 -54.5t203 -150t124.5 -224.5t43.5 -280q0 -150 -43.5 -278t-124.5 -222.5t-203 -148t-272 -53.5h-557zM483 281h236q77 0 138.5 35t100.5 94t59.5 134t20.5 158q0 114 -34.5 209
t-109 157t-175.5 62h-236v-849z" />
    <glyph glyph-name="dcaron" unicode="&#x10f;" horiz-adv-x="1359" 
d="M834 850v608h301v-1458h-301v109q-49 -63 -132 -95t-165 -32q-90 0 -173 35t-147.5 97t-103.5 157.5t-39 207.5t39 207.5t103.5 158t147.5 97.5t173 35q82 0 165 -32t132 -95zM1323 1411h252q-32 -322 -232 -489l-143 77q68 97 95.5 185t27.5 227zM602 264q89 0 154 62
t65 153t-65.5 153t-153.5 62q-90 0 -155.5 -62.5t-65.5 -152.5t65.5 -152.5t155.5 -62.5z" />
    <glyph glyph-name="Dcroat" unicode="&#x110;" horiz-adv-x="1472" 
d="M743 1411q198 0 345 -94t221.5 -253.5t74.5 -361.5q0 -150 -43.5 -278t-124 -222.5t-202.5 -148t-271 -53.5h-557v580h-153v235h153v596h557zM743 281q101 0 175 60.5t108.5 154t34.5 206.5q0 114 -34.5 209t-108.5 157t-175 62h-235v-315h231v-235h-231v-299h235z" />
    <glyph glyph-name="dcroat" unicode="&#x111;" horiz-adv-x="1261" 
d="M1276 1276v-160h-141v-1116h-301v109q-49 -63 -132 -95t-165 -32q-90 0 -173 35t-147.5 97t-103.5 157.5t-39 207.5t39 207.5t103.5 158t147.5 97.5t173 35q82 0 165 -32t132 -95v266h-279v160h279v182h301v-182h141zM602 264q89 0 154 62t65 153t-65.5 153t-153.5 62
q-90 0 -155.5 -62.5t-65.5 -152.5t65.5 -152.5t155.5 -62.5z" />
    <glyph glyph-name="Emacron" unicode="&#x112;" horiz-adv-x="1185" 
d="M883 1831v-178h-580v178h580zM483 281h602v-281h-923v1411h905v-281h-584v-290h512v-289h-512v-270z" />
    <glyph glyph-name="emacron" unicode="&#x113;" horiz-adv-x="1157" 
d="M864 1374v-178h-579v178h579zM1092 498q0 -27 -7 -109h-698q22 -68 79.5 -105.5t143.5 -37.5q67 0 131.5 24.5t110.5 67.5l156 -197q-69 -75 -182.5 -117t-237.5 -42q-226 0 -371 137.5t-145 355.5q0 113 42 209t113 160t164.5 99.5t196.5 35.5q136 0 250.5 -58.5
t184 -170t69.5 -252.5zM385 567h403q-1 70 -56 113t-138 43q-75 0 -131 -37.5t-78 -118.5z" />
    <glyph glyph-name="Edotaccent" unicode="&#x116;" horiz-adv-x="1185" 
d="M594 1593q-70 0 -117 45t-47 115q0 68 47 113t117 45t118 -45t48 -113q0 -70 -48 -115t-118 -45zM483 281h602v-281h-923v1411h905v-281h-584v-290h512v-289h-512v-270z" />
    <glyph glyph-name="edotaccent" unicode="&#x117;" horiz-adv-x="1157" 
d="M575 1137q-70 0 -116.5 44.5t-46.5 114.5q0 69 46.5 113.5t116.5 44.5t118 -45t48 -113q0 -69 -48 -114t-118 -45zM1092 498q0 -27 -7 -109h-698q22 -68 79.5 -105.5t143.5 -37.5q67 0 131.5 24.5t110.5 67.5l156 -197q-69 -75 -182.5 -117t-237.5 -42q-226 0 -371 137.5
t-145 355.5q0 113 42 209t113 160t164.5 99.5t196.5 35.5q136 0 250.5 -58.5t184 -170t69.5 -252.5zM385 567h403q-1 70 -56 113t-138 43q-75 0 -131 -37.5t-78 -118.5z" />
    <glyph glyph-name="Eogonek" unicode="&#x118;" horiz-adv-x="1185" 
d="M864 0l-84 -176q-6 -24 -6 -45q0 -34 19.5 -55t48.5 -21q76 0 76 104h149q0 -120 -66.5 -181.5t-162.5 -61.5q-88 0 -150.5 60t-62.5 151q0 59 22 102l66 123h-551v1411h905v-281h-584v-290h512v-289h-512v-270h602v-281h-221z" />
    <glyph glyph-name="eogonek" unicode="&#x119;" horiz-adv-x="1157" 
d="M1092 498q0 -27 -7 -109h-698q22 -68 79.5 -105.5t143.5 -37.5q67 0 131.5 24.5t110.5 67.5l156 -197q-62 -68 -168 -110l-99 -207q-8 -21 -8 -45q0 -34 20.5 -55t49.5 -21q76 0 76 104h149q0 -120 -67 -181.5t-164 -61.5q-87 0 -149 60t-62 151q0 59 22 102l58 109
q-50 -4 -78 -4q-226 0 -371 137.5t-145 355.5q0 113 42 209t113 160t164.5 99.5t196.5 35.5q136 0 250.5 -58.5t184 -170t69.5 -252.5zM385 567h403q-1 70 -56 113t-138 43q-75 0 -131 -37.5t-78 -118.5z" />
    <glyph glyph-name="Ecaron" unicode="&#x11a;" horiz-adv-x="1185" 
d="M743 1577h-303l-223 350h213l162 -182l162 182h215zM483 281h602v-281h-923v1411h905v-281h-584v-290h512v-289h-512v-270z" />
    <glyph glyph-name="ecaron" unicode="&#x11b;" horiz-adv-x="1157" 
d="M725 1120h-303l-223 350h213l161 -182l162 182h215zM1092 498q0 -27 -7 -109h-698q22 -68 79.5 -105.5t143.5 -37.5q67 0 131.5 24.5t110.5 67.5l156 -197q-69 -75 -182.5 -117t-237.5 -42q-226 0 -371 137.5t-145 355.5q0 113 42 209t113 160t164.5 99.5t196.5 35.5
q136 0 250.5 -58.5t184 -170t69.5 -252.5zM385 567h403q-1 70 -56 113t-138 43q-75 0 -131 -37.5t-78 -118.5z" />
    <glyph glyph-name="Gbreve" unicode="&#x11e;" horiz-adv-x="1548" 
d="M772 1608q-90 0 -154 40t-93 100t-29 130h178q0 -54 22.5 -80t75.5 -26q96 0 96 106h183q0 -121 -78.5 -195.5t-200.5 -74.5zM805 -18q-200 0 -367 97.5t-262.5 263.5t-95.5 362q0 198 95.5 364.5t262.5 263.5t367 97q164 0 305.5 -64.5t235.5 -177.5l-238 -199
q-122 141 -303 141q-170 0 -286 -123.5t-116 -301.5q0 -115 52.5 -215t145.5 -161t204 -61q125 0 213.5 49t118.5 140q8 20 10 32h-397v261h747q0 -196 -50.5 -345t-143.5 -240.5t-218 -137t-280 -45.5z" />
    <glyph glyph-name="gbreve" unicode="&#x11f;" horiz-adv-x="1261" 
d="M627 1151q-133 0 -205 80t-72 190h178q0 -54 23 -80t76 -26q96 0 96 106h182q0 -121 -78 -195.5t-200 -74.5zM834 954h301v-829q0 -299 -147.5 -453.5t-412.5 -154.5q-161 0 -290 84t-187 221l250 100q27 -60 90.5 -100.5t136.5 -40.5q259 0 259 307v18q-50 -62 -133 -93
t-164 -31q-90 0 -173 35t-147.5 97t-103.5 157.5t-39 207.5t39 207.5t103.5 158t147.5 97.5t173 35q81 0 163.5 -31.5t133.5 -93.5v102zM602 264q89 0 154 62t65 153t-65.5 153t-153.5 62q-90 0 -155.5 -62.5t-65.5 -152.5t65.5 -152.5t155.5 -62.5z" />
    <glyph glyph-name="Gdotaccent" unicode="&#x120;" horiz-adv-x="1548" 
d="M772 1593q-70 0 -117 45t-47 115q0 68 47 113t117 45t118 -45t48 -113q0 -70 -48 -115t-118 -45zM805 -18q-200 0 -367 97.5t-262.5 263.5t-95.5 362q0 198 95.5 364.5t262.5 263.5t367 97q164 0 305.5 -64.5t235.5 -177.5l-238 -199q-122 141 -303 141
q-170 0 -286 -123.5t-116 -301.5q0 -115 52.5 -215t145.5 -161t204 -61q125 0 213.5 49t118.5 140q8 20 10 32h-397v261h747q0 -196 -50.5 -345t-143.5 -240.5t-218 -137t-280 -45.5z" />
    <glyph glyph-name="gdotaccent" unicode="&#x121;" horiz-adv-x="1261" 
d="M627 1137q-70 0 -117 44.5t-47 114.5q0 68 47 113t117 45t118 -45t48 -113q0 -69 -48 -114t-118 -45zM834 954h301v-829q0 -299 -147.5 -453.5t-412.5 -154.5q-161 0 -290 84t-187 221l250 100q27 -60 90.5 -100.5t136.5 -40.5q259 0 259 307v18q-50 -62 -133 -93
t-164 -31q-90 0 -173 35t-147.5 97t-103.5 157.5t-39 207.5t39 207.5t103.5 158t147.5 97.5t173 35q81 0 163.5 -31.5t133.5 -93.5v102zM602 264q89 0 154 62t65 153t-65.5 153t-153.5 62q-90 0 -155.5 -62.5t-65.5 -152.5t65.5 -152.5t155.5 -62.5z" />
    <glyph glyph-name="Gcommaaccent" unicode="&#x122;" horiz-adv-x="1548" 
d="M805 -18q-200 0 -367 97.5t-262.5 263.5t-95.5 362q0 198 95.5 364.5t262.5 263.5t367 97q164 0 305.5 -64.5t235.5 -177.5l-238 -199q-122 141 -303 141q-170 0 -286 -123.5t-116 -301.5q0 -115 52.5 -215t145.5 -161t204 -61q125 0 213.5 49t118.5 140q8 20 10 32h-397
v261h747q0 -196 -50.5 -345t-143.5 -240.5t-218 -137t-280 -45.5zM680 -487l-143 79q96 106 92 328h278q0 -116 -66 -226.5t-161 -180.5z" />
    <glyph glyph-name="gcommaaccent" unicode="&#x123;" horiz-adv-x="1261" 
d="M819 1454q-99 -107 -92 -328h-281q0 115 67 226t163 182zM834 954h301v-829q0 -299 -147.5 -453.5t-412.5 -154.5q-161 0 -290 84t-187 221l250 100q27 -60 90.5 -100.5t136.5 -40.5q259 0 259 307v18q-50 -62 -133 -93t-164 -31q-90 0 -173 35t-147.5 97t-103.5 157.5
t-39 207.5t39 207.5t103.5 158t147.5 97.5t173 35q81 0 163.5 -31.5t133.5 -93.5v102zM602 264q89 0 154 62t65 153t-65.5 153t-153.5 62q-90 0 -155.5 -62.5t-65.5 -152.5t65.5 -152.5t155.5 -62.5z" />
    <glyph glyph-name="Hbar" unicode="&#x126;" horiz-adv-x="1472" 
d="M1442 1200v-158h-152v-1042h-321v557h-465v-557h-322v1042h-151v158h151v211h322v-211h465v211h321v-211h152zM969 846v196h-465v-196h465z" />
    <glyph glyph-name="hbar" unicode="&#x127;" horiz-adv-x="1198" 
d="M705 979q188 0 283 -121t95 -344v-514h-303v479q0 101 -50 152t-116 51q-34 0 -64 -9.5t-58.5 -31.5t-45 -63.5t-16.5 -98.5v-479h-303v1090h-102v157h102v211h303v-211h315v-157h-315v-287q16 57 67.5 99t106 59.5t101.5 17.5z" />
    <glyph glyph-name="Itilde" unicode="&#x128;" horiz-adv-x="647" 
d="M31 1616q4 70 24 123.5t50 82t62 42.5t66 14q37 0 71.5 -21t62 -42t45.5 -21q17 0 35.5 20t19.5 64h149q-3 -71 -23.5 -123.5t-51.5 -80.5t-63.5 -41t-65.5 -13q-34 0 -68.5 21t-62.5 42t-48 21q-15 0 -33.5 -22.5t-19.5 -65.5h-149zM162 0v1411h321v-1411h-321z" />
    <glyph glyph-name="itilde" unicode="&#x129;" horiz-adv-x="557" 
d="M-14 1159q4 70 24 123.5t50 82t62 42.5t66 14q37 0 71.5 -21t62 -42t45.5 -21q17 0 35.5 20t19.5 64h149q-3 -71 -23.5 -123.5t-51.5 -80.5t-63.5 -41t-65.5 -13q-34 0 -68.5 21t-62.5 42t-48 21q-15 0 -33.5 -22.5t-19.5 -65.5h-149zM127 0v954h303v-954h-303z" />
    <glyph glyph-name="Imacron" unicode="&#x12a;" horiz-adv-x="647" 
d="M33 1653v178h579v-178h-579zM162 0v1411h321v-1411h-321z" />
    <glyph glyph-name="imacron" unicode="&#x12b;" horiz-adv-x="557" 
d="M-12 1196v178h579v-178h-579zM127 0v954h303v-954h-303z" />
    <glyph glyph-name="Iogonek" unicode="&#x12e;" horiz-adv-x="647" 
d="M360 -193h150q0 -120 -67 -181.5t-164 -61.5q-87 0 -149 60t-62 151q0 59 22 102l72 135v1399h321v-1411h-174l-86 -176q-8 -21 -8 -45q0 -34 20.5 -55t49.5 -21q43 0 59 27t16 77z" />
    <glyph glyph-name="iogonek" unicode="&#x12f;" horiz-adv-x="559" 
d="M281 1100q-77 0 -133 52t-56 124q0 74 56 125t133 51t130.5 -50.5t53.5 -125.5q0 -72 -54 -124t-130 -52zM231 -436q-87 0 -149 60t-62 151q0 63 23 102l86 162v915h303v-954h-172l-84 -176q-8 -21 -8 -45q0 -34 20.5 -55t49.5 -21q75 0 75 104h150q0 -120 -67 -181.5
t-165 -61.5z" />
    <glyph glyph-name="Idotaccent" unicode="&#x130;" horiz-adv-x="647" 
d="M324 1593q-70 0 -117 45t-47 115q0 68 47 113t117 45t117.5 -45t47.5 -113q0 -70 -47.5 -115t-117.5 -45zM162 0v1411h321v-1411h-321z" />
    <glyph glyph-name="dotlessi" unicode="&#x131;" horiz-adv-x="557" 
d="M127 0v954h303v-954h-303z" />
    <glyph glyph-name="IJ" unicode="&#x132;" horiz-adv-x="1310" 
d="M162 0v1411h321v-1411h-321zM680 -483q-108 0 -217 34l29 291q60 -22 188 -22q74 0 109.5 49.5t35.5 128.5v1413h322v-1413q0 -101 -25.5 -185.5t-79 -152t-146 -105.5t-216.5 -38z" />
    <glyph glyph-name="ij" unicode="&#x133;" horiz-adv-x="1130" 
d="M279 1100q-77 0 -133 52t-56 124q0 74 56 125t133 51t130.5 -50.5t53.5 -125.5q0 -72 -54 -124t-130 -52zM852 1100q-75 0 -130.5 52t-55.5 124q0 74 55 125t131 51q78 0 132 -50.5t54 -125.5q0 -72 -54 -124t-132 -52zM127 0v954h303v-954h-303zM438 -471v281h121
q66 0 103.5 49t37.5 131v964h304v-964q0 -223 -116 -342t-325 -119h-125z" />
    <glyph glyph-name="Jcircumflex" unicode="&#x134;" horiz-adv-x="663" 
d="M-37 1577l223 350h303l226 -350h-215l-162 182l-162 -182h-213zM33 -483q-108 0 -217 34l28 291q60 -22 189 -22q74 0 109.5 49.5t35.5 128.5v1413h322v-1413q0 -101 -25.5 -185.5t-79 -152t-146 -105.5t-216.5 -38z" />
    <glyph glyph-name="jcircumflex" unicode="&#x135;" horiz-adv-x="573" 
d="M-80 1126l223 351h301l226 -351h-213l-164 181l-162 -181h-211zM143 954h303v-964q0 -224 -115.5 -342.5t-324.5 -118.5h-125v281h121q66 0 103.5 49t37.5 131v964z" />
    <glyph glyph-name="Kcommaaccent" unicode="&#x136;" horiz-adv-x="1277" 
d="M659 713l660 -713h-440l-396 455v-455h-321v1411h321v-432l308 432h401zM406 -408q96 106 92 328h278q0 -116 -66 -226.5t-161 -180.5z" />
    <glyph glyph-name="kcommaaccent" unicode="&#x137;" horiz-adv-x="1073" 
d="M655 532l439 -532h-369l-295 389v-389h-303v1458h303v-772l205 268h381zM307 -408q96 106 92 328h279q0 -116 -66 -226.5t-161 -180.5z" />
    <glyph glyph-name="kgreenlandic" unicode="&#x138;" horiz-adv-x="1030" 
d="M1049 0h-396l-225 322v-322h-301v956h301v-294l199 294h352l-340 -471z" />
    <glyph glyph-name="Lacute" unicode="&#x139;" horiz-adv-x="1042" 
d="M172 1577l193 350h290l-276 -350h-207zM162 0v1411h321v-1130h518v-281h-839z" />
    <glyph glyph-name="lacute" unicode="&#x13a;" horiz-adv-x="557" 
d="M135 1577l193 350h290l-276 -350h-207zM127 0v1458h303v-1458h-303z" />
    <glyph glyph-name="Lcommaaccent" unicode="&#x13b;" horiz-adv-x="1042" 
d="M162 0v1411h321v-1130h518v-281h-839zM432 -487l-143 79q96 106 92 328h278q0 -116 -66 -226.5t-161 -180.5z" />
    <glyph glyph-name="lcommaaccent" unicode="&#x13c;" horiz-adv-x="557" 
d="M127 0v1458h303v-1458h-303zM186 -487l-143 79q96 106 92 328h279q0 -116 -66.5 -226.5t-161.5 -180.5z" />
    <glyph glyph-name="Lcaron" unicode="&#x13d;" horiz-adv-x="1081" 
d="M162 0v1411h321v-1130h518v-281h-839zM788 928l-124 71q67 97 95 185.5t29 226.5h230q-9 -99 -32 -179.5t-56.5 -137t-66.5 -94.5t-75 -72z" />
    <glyph glyph-name="lcaron" unicode="&#x13e;" horiz-adv-x="655" 
d="M127 0v1458h303v-1458h-303zM639 922l-143 77q68 97 96 185t29 227h251q-32 -321 -233 -489z" />
    <glyph glyph-name="Lslash" unicode="&#x141;" horiz-adv-x="1075" 
d="M516 281h518v-281h-839v510l-156 -96v184l156 96v717h321v-516l203 125v-184l-203 -125v-430z" />
    <glyph glyph-name="lslash" unicode="&#x142;" horiz-adv-x="729" 
d="M674 981v-184l-168 -101v-696h-303v516l-137 -82v184l137 82v758h303v-577z" />
    <glyph glyph-name="Nacute" unicode="&#x143;" horiz-adv-x="1390" 
d="M1075 1927l-276 -350h-207l192 350h291zM907 1411h322v-1411h-283l-463 811v-811h-321v1411h295l450 -801v801z" />
    <glyph glyph-name="nacute" unicode="&#x144;" horiz-adv-x="1198" 
d="M977 1470l-277 -350h-206l192 350h291zM705 979q188 0 283 -121t95 -344v-514h-303v479q0 101 -50 152t-116 51q-34 0 -64 -9.5t-58.5 -31.5t-45 -63.5t-16.5 -98.5v-479h-303v954h303v-170q23 92 109 143.5t166 51.5z" />
    <glyph glyph-name="Ncommaaccent" unicode="&#x145;" horiz-adv-x="1390" 
d="M907 1411h322v-1411h-283l-463 811v-811h-321v1411h295l450 -801v801zM461 -408q96 106 92 328h278q0 -116 -66 -226.5t-161 -180.5z" />
    <glyph glyph-name="ncommaaccent" unicode="&#x146;" horiz-adv-x="1198" 
d="M705 979q188 0 283 -121t95 -344v-514h-303v479q0 101 -50 152t-116 51q-34 0 -64 -9.5t-58.5 -31.5t-45 -63.5t-16.5 -98.5v-479h-303v954h303v-170q23 92 109 143.5t166 51.5zM362 -408q97 108 93 328h278q0 -116 -66 -226.5t-161 -180.5z" />
    <glyph glyph-name="Ncaron" unicode="&#x147;" horiz-adv-x="1390" 
d="M846 1577h-303l-224 350h213l162 -182l162 182h215zM907 1411h322v-1411h-283l-463 811v-811h-321v1411h295l450 -801v801z" />
    <glyph glyph-name="ncaron" unicode="&#x148;" horiz-adv-x="1198" 
d="M748 1120h-304l-223 350h213l162 -182l162 182h215zM705 979q188 0 283 -121t95 -344v-514h-303v479q0 101 -50 152t-116 51q-34 0 -64 -9.5t-58.5 -31.5t-45 -63.5t-16.5 -98.5v-479h-303v954h303v-170q23 92 109 143.5t166 51.5z" />
    <glyph glyph-name="napostrophe" unicode="&#x149;" horiz-adv-x="1462" 
d="M0 999q68 97 95.5 185t27.5 227h252q-32 -322 -232 -489zM969 979q188 0 283.5 -121t95.5 -344v-514h-304v479q0 102 -49.5 152.5t-115.5 50.5q-34 0 -64 -9.5t-58.5 -31.5t-45.5 -63.5t-17 -98.5v-479h-303v954h303v-170q23 92 109 143.5t166 51.5z" />
    <glyph glyph-name="Eng" unicode="&#x14a;" horiz-adv-x="1390" 
d="M907 1411h322v-1411q0 -101 -26 -185.5t-79.5 -152.5t-146.5 -106.5t-217 -38.5q-34 0 -98 10t-119 27l28 290q69 -24 189 -24q74 0 110.5 50.5t36.5 129.5v68l-424 743v-811h-321v1411h295l450 -799v799z" />
    <glyph glyph-name="eng" unicode="&#x14b;" horiz-adv-x="1198" 
d="M705 979q188 0 283 -121t95 -344v-524q0 -224 -115.5 -342.5t-326.5 -118.5h-123v281h121q64 0 102.5 49t38.5 131v489q0 101 -50 152t-116 51q-34 0 -64 -9.5t-58.5 -31.5t-45 -63.5t-16.5 -98.5v-479h-303v954h303v-170q23 92 109 143.5t166 51.5z" />
    <glyph glyph-name="Omacron" unicode="&#x14c;" horiz-adv-x="1599" 
d="M510 1653v178h580v-178h-580zM801 -18q-198 0 -364 97.5t-261.5 264t-95.5 363.5t95.5 363t261.5 263t364 97q146 0 279.5 -57.5t229.5 -154t153 -230.5t57 -281t-57 -281t-153 -231.5t-229.5 -155t-279.5 -57.5zM799 285q175 0 286 121t111 301q0 179 -111 299t-286 120
q-176 0 -286 -119.5t-110 -299.5t110 -301t286 -121z" />
    <glyph glyph-name="omacron" unicode="&#x14d;" horiz-adv-x="1179" 
d="M303 1196v178h580v-178h-580zM590 -18q-137 0 -254.5 60.5t-190.5 175.5t-73 261q0 110 42.5 205t114.5 159t165.5 100t195.5 36t196 -36t166 -100t115 -159t43 -205q0 -146 -73.5 -261t-191.5 -175.5t-255 -60.5zM590 262q90 0 150.5 60.5t60.5 156.5q0 97 -61 158
t-150 61t-150 -61t-61 -158q0 -96 60.5 -156.5t150.5 -60.5z" />
    <glyph glyph-name="Ohungarumlaut" unicode="&#x150;" horiz-adv-x="1599" 
d="M580 1577l186 350h211l-211 -350h-186zM870 1577l215 350h215l-231 -350h-199zM801 -18q-198 0 -364 97.5t-261.5 264t-95.5 363.5t95.5 363t261.5 263t364 97q146 0 279.5 -57.5t229.5 -154t153 -230.5t57 -281t-57 -281t-153 -231.5t-229.5 -155t-279.5 -57.5zM799 285
q175 0 286 121t111 301q0 179 -111 299t-286 120q-176 0 -286 -119.5t-110 -299.5t110 -301t286 -121z" />
    <glyph glyph-name="ohungarumlaut" unicode="&#x151;" horiz-adv-x="1179" 
d="M373 1120l186 350h211l-211 -350h-186zM664 1120l215 350h215l-232 -350h-198zM590 -18q-137 0 -254.5 60.5t-190.5 175.5t-73 261q0 110 42.5 205t114.5 159t165.5 100t195.5 36t196 -36t166 -100t115 -159t43 -205q0 -146 -73.5 -261t-191.5 -175.5t-255 -60.5z
M590 262q90 0 150.5 60.5t60.5 156.5q0 97 -61 158t-150 61t-150 -61t-61 -158q0 -96 60.5 -156.5t150.5 -60.5z" />
    <glyph glyph-name="OE" unicode="&#x152;" horiz-adv-x="2217" 
d="M1518 281h602v-281h-922v125q-74 -71 -179.5 -107t-217.5 -36q-198 0 -364 97.5t-261.5 264t-95.5 363.5t95.5 363t261.5 263t364 97q241 0 397 -146v127h903v-281h-583v-290h512v-289h-512v-270zM799 285q175 0 286 121t111 301q0 179 -111 299t-286 120
q-176 0 -286 -119.5t-110 -299.5t110 -301t286 -121z" />
    <glyph glyph-name="oe" unicode="&#x153;" horiz-adv-x="1886" 
d="M1821 498q0 -38 -6 -109h-699q23 -69 80.5 -106t142.5 -37q67 0 131.5 24.5t110.5 67.5l156 -197q-69 -75 -182.5 -117t-237.5 -42q-229 0 -367 135q-151 -135 -360 -135q-137 0 -254.5 60.5t-190.5 175.5t-73 261q0 110 42.5 205t114.5 159t165.5 100t195.5 36t196 -36
t166 -103q70 67 164 103t199 36q137 0 252 -58.5t184.5 -169.5t69.5 -253zM1116 567h402q-1 69 -57.5 112.5t-137.5 43.5q-74 0 -130.5 -37.5t-76.5 -118.5zM590 262q90 0 150.5 60.5t60.5 156.5q0 97 -61 158t-150 61t-150 -61t-61 -158q0 -96 60.5 -156.5t150.5 -60.5z
" />
    <glyph glyph-name="Racute" unicode="&#x154;" horiz-adv-x="1314" 
d="M1034 1927l-276 -350h-207l192 350h291zM872 0l-325 496h-64v-496h-321v1411h577q118 0 211.5 -40t149.5 -107t85 -148.5t29 -171.5q0 -157 -83.5 -273t-247.5 -157l364 -514h-375zM483 1130v-380h205q99 0 151 54.5t52 131.5t-51.5 135.5t-143.5 58.5h-213z" />
    <glyph glyph-name="racute" unicode="&#x155;" horiz-adv-x="864" 
d="M811 1470l-276 -350h-207l192 350h291zM713 979q86 0 143 -29l-72 -288q-64 36 -137 36q-98 0 -157.5 -91t-59.5 -290v-317h-303v954h299v-200q39 113 116.5 169t170.5 56z" />
    <glyph glyph-name="Rcommaaccent" unicode="&#x156;" horiz-adv-x="1314" 
d="M883 514l364 -514h-375l-325 496h-64v-496h-321v1411h577q118 0 211.5 -40t149.5 -107t85 -148.5t29 -171.5q0 -157 -83.5 -273t-247.5 -157zM483 1130v-380h205q99 0 151 54.5t52 131.5t-51.5 135.5t-143.5 58.5h-213zM420 -408q96 106 92 328h279q0 -116 -66.5 -226.5
t-161.5 -180.5z" />
    <glyph glyph-name="rcommaaccent" unicode="&#x157;" horiz-adv-x="864" 
d="M713 979q86 0 143 -29l-72 -288q-64 36 -137 36q-98 0 -157.5 -91t-59.5 -290v-317h-303v954h299v-200q39 113 116.5 169t170.5 56zM47 -408q96 104 92 328h281q0 -116 -67 -226.5t-163 -180.5z" />
    <glyph glyph-name="Rcaron" unicode="&#x158;" horiz-adv-x="1314" 
d="M805 1577h-303l-223 350h213l161 -182l162 182h215zM872 0l-325 496h-64v-496h-321v1411h577q118 0 211.5 -40t149.5 -107t85 -148.5t29 -171.5q0 -157 -83.5 -273t-247.5 -157l364 -514h-375zM483 1130v-380h205q99 0 151 54.5t52 131.5t-51.5 135.5t-143.5 58.5h-213z
" />
    <glyph glyph-name="rcaron" unicode="&#x159;" horiz-adv-x="864" 
d="M582 1120h-303l-224 350h213l162 -182l162 182h215zM713 979q86 0 143 -29l-72 -288q-64 36 -137 36q-98 0 -157.5 -91t-59.5 -290v-317h-303v954h299v-200q39 113 116.5 169t170.5 56z" />
    <glyph glyph-name="Sacute" unicode="&#x15a;" horiz-adv-x="1202" 
d="M498 1577l192 350h291l-276 -350h-207zM598 -18q-226 0 -368 120.5t-142 315.5h322q0 -67 58 -113.5t142 -46.5q81 0 133 36t52 103q0 46 -34.5 82.5t-121.5 65.5l-168 51q-89 24 -157.5 62t-108 79t-64 90.5t-33 91t-8.5 85.5q0 188 142 307t356 119q208 0 342.5 -118
t134.5 -319h-321q0 67 -41.5 111.5t-120.5 44.5q-74 0 -120 -39.5t-46 -99.5q0 -90 139 -129l148 -45q67 -20 120 -42.5t108.5 -58.5t92.5 -79.5t60.5 -105.5t23.5 -136q0 -109 -44.5 -194.5t-119.5 -136t-165.5 -76t-190.5 -25.5z" />
    <glyph glyph-name="sacute" unicode="&#x15b;" horiz-adv-x="974" 
d="M385 1120l193 350h290l-276 -350h-207zM489 -18q-109 0 -202 37t-153 114.5t-60 181.5h286q0 -40 30.5 -71t90.5 -31q49 0 83 19.5t34 52.5q0 23 -20 36t-74 25l-125 33q-58 16 -104.5 37.5t-76 43.5t-51 50t-32.5 50t-17 50t-7 45t-1 39q0 111 112 198t279 87
q57 0 111 -10.5t107 -35t92.5 -60.5t63 -92.5t22.5 -125.5h-287q0 44 -28.5 67t-74.5 23q-41 0 -67.5 -16t-26.5 -45q0 -50 82 -70l166 -45q68 -19 118.5 -49t77 -59.5t42 -65.5t19 -59.5t3.5 -48.5q0 -76 -37 -136t-97.5 -96t-131.5 -54.5t-146 -18.5z" />
    <glyph glyph-name="Scedilla" unicode="&#x15e;" horiz-adv-x="1202" 
d="M1118 414q0 -98 -36 -177t-98.5 -130t-139 -81t-164.5 -40l57 -109q23 -39 23 -102q0 -91 -62 -151t-149 -60q-97 0 -163.5 61.5t-66.5 181.5h148q0 -104 76 -104q29 0 49 21t20 55q0 24 -8 45l-76 162q-199 19 -319.5 136t-120.5 296h322q0 -67 58 -113.5t142 -46.5
q81 0 133 36t52 103q0 46 -34.5 82.5t-121.5 65.5l-168 51q-89 24 -157.5 62t-108 79t-64 90.5t-33 91t-8.5 85.5q0 188 142 307t356 119q208 0 342.5 -118t134.5 -319h-321q0 67 -41.5 111.5t-120.5 44.5q-74 0 -120 -39.5t-46 -99.5q0 -90 139 -129l148 -45
q67 -20 120 -42.5t108.5 -58.5t92.5 -79.5t60.5 -105.5t23.5 -136z" />
    <glyph glyph-name="scedilla" unicode="&#x15f;" horiz-adv-x="974" 
d="M901 287q0 -125 -93 -201.5t-230 -97.5l59 -111q22 -37 22 -102q0 -91 -62 -151t-148 -60q-97 0 -163.5 61.5t-66.5 181.5h148q0 -104 75 -104q29 0 49.5 21t20.5 55q0 24 -8 45l-76 162q-97 10 -175.5 49.5t-128.5 112t-50 167.5h286q0 -40 30.5 -71t90.5 -31
q49 0 83 19.5t34 52.5q0 23 -20 36t-74 25l-125 33q-58 16 -104.5 37.5t-76 43.5t-51 50t-32.5 50t-17 50t-7 45t-1 39q0 111 112 198t279 87q57 0 111 -10.5t107 -35t92.5 -60.5t63 -92.5t22.5 -125.5h-287q0 44 -28.5 67t-74.5 23q-41 0 -67.5 -16t-26.5 -45q0 -50 82 -70
l166 -45q68 -19 118.5 -49t77 -59.5t42 -65.5t19 -59.5t3.5 -48.5z" />
    <glyph glyph-name="Scaron" unicode="&#x160;" horiz-adv-x="1202" 
d="M449 1577l-224 350h213l162 -182l162 182h215l-225 -350h-303zM598 -18q-226 0 -368 120.5t-142 315.5h322q0 -67 58 -113.5t142 -46.5q81 0 133 36t52 103q0 46 -34.5 82.5t-121.5 65.5l-168 51q-89 24 -157.5 62t-108 79t-64 90.5t-33 91t-8.5 85.5q0 188 142 307
t356 119q208 0 342.5 -118t134.5 -319h-321q0 67 -41.5 111.5t-120.5 44.5q-74 0 -120 -39.5t-46 -99.5q0 -90 139 -129l148 -45q67 -20 120 -42.5t108.5 -58.5t92.5 -79.5t60.5 -105.5t23.5 -136q0 -109 -44.5 -194.5t-119.5 -136t-165.5 -76t-190.5 -25.5z" />
    <glyph glyph-name="scaron" unicode="&#x161;" horiz-adv-x="974" 
d="M336 1120l-223 350h213l161 -182l162 182h215l-225 -350h-303zM489 -18q-109 0 -202 37t-153 114.5t-60 181.5h286q0 -40 30.5 -71t90.5 -31q49 0 83 19.5t34 52.5q0 23 -20 36t-74 25l-125 33q-58 16 -104.5 37.5t-76 43.5t-51 50t-32.5 50t-17 50t-7 45t-1 39
q0 111 112 198t279 87q57 0 111 -10.5t107 -35t92.5 -60.5t63 -92.5t22.5 -125.5h-287q0 44 -28.5 67t-74.5 23q-41 0 -67.5 -16t-26.5 -45q0 -50 82 -70l166 -45q68 -19 118.5 -49t77 -59.5t42 -65.5t19 -59.5t3.5 -48.5q0 -76 -37 -136t-97.5 -96t-131.5 -54.5t-146 -18.5
z" />
    <glyph glyph-name="uni0162" unicode="&#x162;" horiz-adv-x="1148" 
d="M1108 1130h-373v-1107l78 -146q23 -39 23 -102q0 -91 -62 -151t-149 -60q-98 0 -165 61.5t-67 181.5h150q0 -104 75 -104q29 0 49.5 21t20.5 55q0 24 -8 45l-84 176h-182v1130h-373v281h1067v-281z" />
    <glyph glyph-name="uni0163" unicode="&#x163;" horiz-adv-x="768" 
d="M729 727h-201v-700l82 -150q21 -41 21 -102q0 -91 -61.5 -151t-149.5 -60q-97 0 -163.5 61.5t-66.5 181.5h150q0 -104 76 -104q27 0 47 21t20 55q0 24 -8 45l-84 176h-166v727h-174v227h174v344h303v-344h201v-227z" />
    <glyph glyph-name="Tcaron" unicode="&#x164;" horiz-adv-x="1148" 
d="M725 1577h-303l-223 350h213l161 -182l162 182h215zM1108 1411v-281h-373v-1130h-321v1130h-373v281h1067z" />
    <glyph glyph-name="tcaron" unicode="&#x165;" horiz-adv-x="768" 
d="M793 1518h251q-32 -322 -233 -490l-143 78q68 97 96 185t29 227zM528 1298v-344h201v-227h-201v-727h-303v727h-174v227h174v344h303z" />
    <glyph glyph-name="Tbar" unicode="&#x166;" horiz-adv-x="1173" 
d="M1120 1130h-372v-391h204v-155h-204v-584h-322v584h-205v155h205v391h-373v281h1067v-281z" />
    <glyph glyph-name="tbar" unicode="&#x167;" horiz-adv-x="770" 
d="M729 727h-201v-209h123v-153h-123v-365h-303v365h-110v153h110v209h-174v227h174v344h303v-344h201v-227z" />
    <glyph glyph-name="Umacron" unicode="&#x16a;" horiz-adv-x="1394" 
d="M408 1653v178h579v-178h-579zM698 -18q-147 0 -271.5 63t-202 185t-77.5 280v901h322v-876q0 -125 66 -186.5t163 -61.5q96 0 162 61.5t66 186.5v876h321v-901q0 -158 -77 -280t-201 -185t-271 -63z" />
    <glyph glyph-name="umacron" unicode="&#x16b;" horiz-adv-x="1198" 
d="M885 1374v-178h-580v178h580zM768 954h303v-954h-303v164q-15 -62 -66 -107t-105 -63.5t-103 -18.5q-188 0 -283.5 121t-95.5 344v514h303v-479q0 -101 50 -152t116 -51q33 0 63 9.5t58.5 31.5t45.5 63.5t17 98.5v479z" />
    <glyph glyph-name="Uring" unicode="&#x16e;" horiz-adv-x="1394" 
d="M696 1550q-105 0 -181.5 74t-76.5 180q0 107 76.5 182.5t181.5 75.5q108 0 185 -75.5t77 -182.5q0 -106 -77 -180t-185 -74zM696 1675q57 0 98.5 36.5t41.5 92.5t-42 95.5t-98 39.5q-54 0 -93.5 -39.5t-39.5 -95.5t39 -92.5t94 -36.5zM698 -18q-147 0 -271.5 63t-202 185
t-77.5 280v901h322v-876q0 -125 66 -186.5t163 -61.5q96 0 162 61.5t66 186.5v876h321v-901q0 -158 -77 -280t-201 -185t-271 -63z" />
    <glyph glyph-name="uring" unicode="&#x16f;" horiz-adv-x="1198" 
d="M594 1094q-105 0 -181.5 74t-76.5 180q0 107 76.5 182.5t181.5 75.5q108 0 185 -75.5t77 -182.5q0 -106 -77 -180t-185 -74zM594 1483q-54 0 -93.5 -39.5t-39.5 -95.5t39 -92.5t94 -36.5q57 0 98 36.5t41 92.5t-41.5 95.5t-97.5 39.5zM768 954h303v-954h-303v164
q-15 -62 -66 -107t-105 -63.5t-103 -18.5q-188 0 -283.5 121t-95.5 344v514h303v-479q0 -101 50 -152t116 -51q33 0 63 9.5t58.5 31.5t45.5 63.5t17 98.5v479z" />
    <glyph glyph-name="Uhungarumlaut" unicode="&#x170;" horiz-adv-x="1394" 
d="M477 1577l187 350h210l-210 -350h-187zM768 1577l215 350h215l-231 -350h-199zM698 -18q-147 0 -271.5 63t-202 185t-77.5 280v901h322v-876q0 -125 66 -186.5t163 -61.5q96 0 162 61.5t66 186.5v876h321v-901q0 -158 -77 -280t-201 -185t-271 -63z" />
    <glyph glyph-name="uhungarumlaut" unicode="&#x171;" horiz-adv-x="1198" 
d="M772 1470l-211 -350h-186l186 350h211zM864 1120h-198l215 350h215zM768 475v479h303v-954h-303v164q-15 -62 -66 -107t-105 -63.5t-103 -18.5q-188 0 -283.5 121t-95.5 344v514h303v-479q0 -101 50 -152t116 -51q33 0 63 9.5t58.5 31.5t45.5 63.5t17 98.5z" />
    <glyph glyph-name="Uogonek" unicode="&#x172;" horiz-adv-x="1394" 
d="M926 1411h321v-901q0 -108 -37 -201t-101.5 -158.5t-149 -108t-181.5 -54.5l-78 -164q-6 -24 -6 -45q0 -34 19.5 -55t48.5 -21q76 0 76 104h149q0 -120 -66.5 -181.5t-162.5 -61.5q-88 0 -150.5 60t-62.5 151q0 59 22 102l58 109q-132 16 -239 82t-173 181.5t-66 260.5
v901h322v-876q0 -125 66 -186.5t163 -61.5q96 0 162 61.5t66 186.5v876z" />
    <glyph glyph-name="uogonek" unicode="&#x173;" horiz-adv-x="1198" 
d="M950 -193h150q0 -120 -66.5 -181.5t-163.5 -61.5q-88 0 -150.5 60t-62.5 151q0 57 23 102l88 162v125q-15 -62 -66 -107t-105 -63.5t-103 -18.5q-188 0 -283.5 121t-95.5 344v514h303v-479q0 -101 50 -152t116 -51q33 0 63 9.5t58.5 31.5t45.5 63.5t17 98.5v479h303v-954
h-172l-84 -176q-8 -21 -8 -45q0 -34 20 -55t47 -21q76 0 76 104z" />
    <glyph glyph-name="Wcircumflex" unicode="&#x174;" horiz-adv-x="1853" 
d="M926 1759l-162 -182h-213l223 350h303l226 -350h-216zM1491 1411h350l-479 -1411h-250l-188 717l-183 -717h-252l-475 1411h346l261 -844l174 643h264l172 -647z" />
    <glyph glyph-name="wcircumflex" unicode="&#x175;" horiz-adv-x="1542" 
d="M770 1303l-162 -183h-213l223 350h304l225 -350h-215zM1206 954h328l-332 -954h-258l-174 590l-166 -590h-258l-342 954h328l157 -544l158 544h244l158 -544z" />
    <glyph glyph-name="Ycircumflex" unicode="&#x176;" horiz-adv-x="1406" 
d="M702 1759l-161 -182h-213l223 350h303l225 -350h-215zM1032 1411h383l-551 -780v-631h-323v637l-549 774h383l325 -520z" />
    <glyph glyph-name="ycircumflex" unicode="&#x177;" horiz-adv-x="1056" 
d="M532 1303l-161 -183h-213l223 350h303l225 -350h-215zM731 954h326l-590 -1425h-324l236 584l-377 841h336l199 -493z" />
    <glyph glyph-name="Ydieresis" unicode="&#x178;" horiz-adv-x="1406" 
d="M487 1614q-63 0 -108 42t-45 103q0 60 45 102t108 42t106.5 -42t43.5 -102q0 -61 -43.5 -103t-106.5 -42zM926 1614q-65 0 -110.5 42t-45.5 103q0 60 45.5 102t110.5 42q62 0 105.5 -42t43.5 -102q0 -61 -43.5 -103t-105.5 -42zM1032 1411h383l-551 -780v-631h-323v637
l-549 774h383l325 -520z" />
    <glyph glyph-name="Zacute" unicode="&#x179;" horiz-adv-x="1220" 
d="M989 1927l-276 -350h-207l192 350h291zM1126 1411v-240l-632 -890h632v-281h-1044v240l623 890h-596v281h1017z" />
    <glyph glyph-name="zacute" unicode="&#x17a;" horiz-adv-x="1042" 
d="M901 1470l-276 -350h-207l192 350h291zM948 954v-225l-430 -448h430v-281h-866v223l424 451h-397v280h839z" />
    <glyph glyph-name="Zdotaccent" unicode="&#x17b;" horiz-adv-x="1220" 
d="M610 1593q-70 0 -117 45t-47 115q0 68 47 113t117 45t118 -45t48 -113q0 -70 -48 -115t-118 -45zM1126 1411v-240l-632 -890h632v-281h-1044v240l623 890h-596v281h1017z" />
    <glyph glyph-name="zdotaccent" unicode="&#x17c;" horiz-adv-x="1042" 
d="M522 1137q-70 0 -117 44.5t-47 114.5q0 68 47 113t117 45t118 -45t48 -113q0 -69 -48 -114t-118 -45zM948 954v-225l-430 -448h430v-281h-866v223l424 451h-397v280h839z" />
    <glyph glyph-name="Zcaron" unicode="&#x17d;" horiz-adv-x="1220" 
d="M760 1577h-303l-224 350h213l162 -182l162 182h215zM1126 1411v-240l-632 -890h632v-281h-1044v240l623 890h-596v281h1017z" />
    <glyph glyph-name="zcaron" unicode="&#x17e;" horiz-adv-x="1042" 
d="M672 1120h-303l-224 350h213l162 -182l162 182h215zM948 954v-225l-430 -448h430v-281h-866v223l424 451h-397v280h839z" />
    <glyph glyph-name="longs" unicode="&#x17f;" horiz-adv-x="657" 
d="M670 1458h121v-278h-58q-200 0 -203 -189v-991h-303v727h-178v227h178v43q0 223 117 342t326 119z" />
    <glyph glyph-name="florin" unicode="&#x192;" horiz-adv-x="1177" 
d="M1030 1343h121l-55 -282h-72q-55 0 -92.5 -11t-60.5 -36.5t-35.5 -56t-22.5 -80.5l-12 -62h188v-229h-231l-70 -371q-35 -184 -156.5 -285.5t-302.5 -101.5h-170l58 268h100q67 0 113 44.5t61 127.5l62 318h-136v229h181l12 66q21 115 57.5 197.5t97.5 143.5t151.5 91
t213.5 30z" />
    <glyph glyph-name="uni01CD" unicode="&#x1cd;" horiz-adv-x="1357" 
d="M829 1577h-303l-223 350h213l162 -182l162 182h215zM1034 0l-106 328h-496l-104 -328h-344l522 1411h350l520 -1411h-342zM520 606h318l-160 494z" />
    <glyph glyph-name="uni01CE" unicode="&#x1ce;" horiz-adv-x="1261" 
d="M776 1120h-303l-223 350h213l162 -182l161 182h215zM834 954h301v-954h-301v109q-49 -63 -132 -95t-165 -32q-90 0 -173 35t-147.5 97t-103.5 157.5t-39 207.5t39 207.5t103.5 158t147.5 97.5t173 35q82 0 165 -32t132 -95v104zM602 264q89 0 154 62t65 153t-65.5 153
t-153.5 62q-90 0 -155.5 -62.5t-65.5 -152.5t65.5 -152.5t155.5 -62.5z" />
    <glyph glyph-name="uni01CF" unicode="&#x1cf;" horiz-adv-x="647" 
d="M170 1577l-223 350h213l162 -182l161 182h215l-225 -350h-303zM162 0v1411h321v-1411h-321z" />
    <glyph glyph-name="uni01D0" unicode="&#x1d0;" horiz-adv-x="557" 
d="M125 1120l-223 350h213l161 -182l162 182h215l-225 -350h-303zM127 0v954h303v-954h-303z" />
    <glyph glyph-name="uni01D1" unicode="&#x1d1;" horiz-adv-x="1599" 
d="M647 1577l-223 350h213l162 -182l162 182h215l-226 -350h-303zM801 -18q-198 0 -364 97.5t-261.5 264t-95.5 363.5t95.5 363t261.5 263t364 97q146 0 279.5 -57.5t229.5 -154t153 -230.5t57 -281t-57 -281t-153 -231.5t-229.5 -155t-279.5 -57.5zM799 285q175 0 286 121
t111 301q0 179 -111 299t-286 120q-176 0 -286 -119.5t-110 -299.5t110 -301t286 -121z" />
    <glyph glyph-name="uni01D2" unicode="&#x1d2;" horiz-adv-x="1179" 
d="M440 1120l-223 350h213l162 -182l162 182h215l-226 -350h-303zM590 -18q-137 0 -254.5 60.5t-190.5 175.5t-73 261q0 110 42.5 205t114.5 159t165.5 100t195.5 36t196 -36t166 -100t115 -159t43 -205q0 -146 -73.5 -261t-191.5 -175.5t-255 -60.5zM590 262
q90 0 150.5 60.5t60.5 156.5q0 97 -61 158t-150 61t-150 -61t-61 -158q0 -96 60.5 -156.5t150.5 -60.5z" />
    <glyph glyph-name="uni01D3" unicode="&#x1d3;" horiz-adv-x="1394" 
d="M545 1577l-223 350h213l161 -182l162 182h215l-225 -350h-303zM698 -18q-147 0 -271.5 63t-202 185t-77.5 280v901h322v-876q0 -125 66 -186.5t163 -61.5q96 0 162 61.5t66 186.5v876h321v-901q0 -158 -77 -280t-201 -185t-271 -63z" />
    <glyph glyph-name="uni01D4" unicode="&#x1d4;" horiz-adv-x="1198" 
d="M745 1120h-303l-223 350h213l162 -182l162 182h215zM768 954h303v-954h-303v164q-15 -62 -66 -107t-105 -63.5t-103 -18.5q-188 0 -283.5 121t-95.5 344v514h303v-479q0 -101 50 -152t116 -51q33 0 63 9.5t58.5 31.5t45.5 63.5t17 98.5v479z" />
    <glyph glyph-name="uni01D5" unicode="&#x1d5;" horiz-adv-x="1394" 
d="M408 2048v178h579v-178h-579zM481 1614q-63 0 -108 42t-45 103q0 60 45 102t108 42t106.5 -42t43.5 -102q0 -61 -43.5 -103t-106.5 -42zM920 1614q-65 0 -110.5 42t-45.5 103q0 60 45.5 102t110.5 42q62 0 105.5 -42t43.5 -102q0 -61 -43.5 -103t-105.5 -42zM698 -18
q-147 0 -271.5 63t-202 185t-77.5 280v901h322v-876q0 -125 66 -186.5t163 -61.5q96 0 162 61.5t66 186.5v876h321v-901q0 -158 -77 -280t-201 -185t-271 -63z" />
    <glyph glyph-name="uni01D6" unicode="&#x1d6;" horiz-adv-x="1198" 
d="M885 1792v-178h-580v178h580zM379 1157q-63 0 -108.5 42.5t-45.5 103.5q0 60 45.5 101.5t108.5 41.5t106 -41.5t43 -101.5q0 -62 -43 -104t-106 -42zM662 1303q0 60 45 101.5t110 41.5q62 0 106 -41.5t44 -101.5q0 -61 -44 -103.5t-106 -42.5q-65 0 -110 42.5t-45 103.5z
M768 954h303v-954h-303v164q-15 -62 -66 -107t-105 -63.5t-103 -18.5q-188 0 -283.5 121t-95.5 344v514h303v-479q0 -101 50 -152t116 -51q33 0 63 9.5t58.5 31.5t45.5 63.5t17 98.5v479z" />
    <glyph glyph-name="uni01D7" unicode="&#x1d7;" horiz-adv-x="1394" 
d="M592 1978l192 351h291l-276 -351h-207zM481 1614q-63 0 -108 42t-45 103q0 60 45 102t108 42t106.5 -42t43.5 -102q0 -61 -43.5 -103t-106.5 -42zM920 1614q-65 0 -110.5 42t-45.5 103q0 60 45.5 102t110.5 42q62 0 105.5 -42t43.5 -102q0 -61 -43.5 -103t-105.5 -42z
M698 -18q-147 0 -271.5 63t-202 185t-77.5 280v901h322v-876q0 -125 66 -186.5t163 -61.5q96 0 162 61.5t66 186.5v876h321v-901q0 -158 -77 -280t-201 -185t-271 -63z" />
    <glyph glyph-name="uni01D8" unicode="&#x1d8;" horiz-adv-x="1198" 
d="M973 1905l-277 -351h-207l193 351h291zM379 1157q-63 0 -108.5 42.5t-45.5 103.5q0 60 45.5 101.5t108.5 41.5t106 -41.5t43 -101.5q0 -62 -43 -104t-106 -42zM662 1303q0 60 45 101.5t110 41.5q62 0 106 -41.5t44 -101.5q0 -61 -44 -103.5t-106 -42.5q-65 0 -110 42.5
t-45 103.5zM768 954h303v-954h-303v164q-15 -62 -66 -107t-105 -63.5t-103 -18.5q-188 0 -283.5 121t-95.5 344v514h303v-479q0 -101 50 -152t116 -51q33 0 63 9.5t58.5 31.5t45.5 63.5t17 98.5v479z" />
    <glyph glyph-name="uni01D9" unicode="&#x1d9;" horiz-adv-x="1394" 
d="M545 1978l-223 351h213l161 -183l162 183h215l-225 -351h-303zM481 1614q-63 0 -108 42t-45 103q0 60 45 102t108 42t106.5 -42t43.5 -102q0 -61 -43.5 -103t-106.5 -42zM920 1614q-65 0 -110.5 42t-45.5 103q0 60 45.5 102t110.5 42q62 0 105.5 -42t43.5 -102
q0 -61 -43.5 -103t-105.5 -42zM698 -18q-147 0 -271.5 63t-202 185t-77.5 280v901h322v-876q0 -125 66 -186.5t163 -61.5q96 0 162 61.5t66 186.5v876h321v-901q0 -158 -77 -280t-201 -185t-271 -63z" />
    <glyph glyph-name="uni01DA" unicode="&#x1da;" horiz-adv-x="1198" 
d="M745 1554h-303l-223 351h213l162 -183l162 183h215zM225 1303q0 60 45.5 101.5t108.5 41.5t106 -41.5t43 -101.5q0 -62 -43 -104t-106 -42t-108.5 42.5t-45.5 103.5zM662 1303q0 60 45 101.5t110 41.5q62 0 106 -41.5t44 -101.5q0 -61 -44 -103.5t-106 -42.5
q-65 0 -110 42.5t-45 103.5zM768 954h303v-954h-303v164q-15 -62 -66 -107t-105 -63.5t-103 -18.5q-188 0 -283.5 121t-95.5 344v514h303v-479q0 -101 50 -152t116 -51q33 0 63 9.5t58.5 31.5t45.5 63.5t17 98.5v479z" />
    <glyph glyph-name="uni01DB" unicode="&#x1db;" horiz-adv-x="1394" 
d="M602 1976l-276 351h292l191 -351h-207zM481 1614q-63 0 -108 42t-45 103q0 60 45 102t108 42t106.5 -42t43.5 -102q0 -61 -43.5 -103t-106.5 -42zM920 1614q-65 0 -110.5 42t-45.5 103q0 60 45.5 102t110.5 42q62 0 105.5 -42t43.5 -102q0 -61 -43.5 -103t-105.5 -42z
M698 -18q-147 0 -271.5 63t-202 185t-77.5 280v901h322v-876q0 -125 66 -186.5t163 -61.5q96 0 162 61.5t66 186.5v876h321v-901q0 -158 -77 -280t-201 -185t-271 -63z" />
    <glyph glyph-name="uni01DC" unicode="&#x1dc;" horiz-adv-x="1198" 
d="M707 1554h-207l-277 351h293zM379 1446q63 0 106 -41.5t43 -101.5q0 -62 -43 -104t-106 -42t-108.5 42.5t-45.5 103.5q0 60 45.5 101.5t108.5 41.5zM662 1303q0 60 45 101.5t110 41.5q62 0 106 -41.5t44 -101.5q0 -61 -44 -103.5t-106 -42.5q-65 0 -110 42.5t-45 103.5z
M768 954h303v-954h-303v164q-15 -62 -66 -107t-105 -63.5t-103 -18.5q-188 0 -283.5 121t-95.5 344v514h303v-479q0 -101 50 -152t116 -51q33 0 63 9.5t58.5 31.5t45.5 63.5t17 98.5v479z" />
    <glyph glyph-name="uni01E3" unicode="&#x1e3;" horiz-adv-x="1781" 
d="M1180 1374v-178h-580v178h580zM1718 498q0 -38 -6 -109h-694q24 -65 82 -104t137 -39q67 0 131.5 24.5t108.5 67.5l157 -197q-69 -75 -182.5 -117t-237.5 -42q-114 0 -208 35.5t-154 101.5q-83 -73 -189 -105t-206 -32q-173 0 -285.5 81t-112.5 218q0 96 57 163.5t140 97
t180 29.5q151 0 262 -59v41q0 73 -53 116.5t-127 43.5q-137 0 -227 -88l-164 161q157 193 434 193q207 0 326 -107q135 107 325 107q137 0 252 -58.5t184.5 -169.5t69.5 -253zM1018 567h397q-3 69 -58 112.5t-136 43.5q-74 0 -127 -39t-76 -117zM483 209q55 0 132.5 31
t111.5 75l-10 19q-35 24 -94.5 38.5t-120.5 14.5q-75 0 -105 -27.5t-30 -62.5q0 -39 31.5 -63.5t84.5 -24.5z" />
    <glyph glyph-name="Aringacute" unicode="&#x1fa;" horiz-adv-x="1357" 
d="M678 1550q-105 0 -181.5 74t-76.5 180q0 78 44 142t114 94l108 192h293l-180 -200q64 -33 102.5 -93.5t38.5 -134.5q0 -106 -77 -180t-185 -74zM678 1673q57 0 98 37.5t41 93.5q0 55 -41.5 95t-97.5 40q-54 0 -93.5 -40t-39.5 -95q0 -56 39 -93.5t94 -37.5zM1034 0
l-106 328h-496l-104 -328h-344l522 1411h350l520 -1411h-342zM520 606h318l-160 494z" />
    <glyph glyph-name="aringacute" unicode="&#x1fb;" horiz-adv-x="1261" 
d="M623 1094q-105 0 -180.5 74t-75.5 180q0 91 55 159.5t141 89.5l101 181h290l-190 -213q56 -34 88.5 -91.5t32.5 -125.5q0 -107 -76.5 -180.5t-185.5 -73.5zM623 1483q-53 0 -92 -39.5t-39 -95.5t38.5 -92.5t92.5 -36.5q57 0 98 36.5t41 92.5t-41.5 95.5t-97.5 39.5z
M834 954h301v-954h-301v109q-49 -63 -132 -95t-165 -32q-90 0 -173 35t-147.5 97t-103.5 157.5t-39 207.5t39 207.5t103.5 158t147.5 97.5t173 35q82 0 165 -32t132 -95v104zM602 264q89 0 154 62t65 153t-65.5 153t-153.5 62q-90 0 -155.5 -62.5t-65.5 -152.5t65.5 -152.5
t155.5 -62.5z" />
    <glyph glyph-name="AEacute" unicode="&#x1fc;" horiz-adv-x="1914" 
d="M1337 1927l-276 -350h-207l193 350h290zM1212 283h603v-283h-922v317h-404l-151 -317h-387l731 1411h1116v-283h-586v-294h512v-275h-512v-276zM621 596h270v532h-17z" />
    <glyph glyph-name="aeacute" unicode="&#x1fd;" horiz-adv-x="1781" 
d="M1270 1470l-277 -350h-207l193 350h291zM1718 498q0 -38 -6 -109h-694q24 -65 82 -104t137 -39q67 0 131.5 24.5t108.5 67.5l157 -197q-69 -75 -182.5 -117t-237.5 -42q-114 0 -208 35.5t-154 101.5q-83 -73 -189 -105t-206 -32q-173 0 -285.5 81t-112.5 218
q0 96 57 163.5t140 97t180 29.5q151 0 262 -59v41q0 73 -53 116.5t-127 43.5q-137 0 -227 -88l-164 161q157 193 434 193q207 0 326 -107q135 107 325 107q137 0 252 -58.5t184.5 -169.5t69.5 -253zM1018 567h397q-3 69 -58 112.5t-136 43.5q-74 0 -127 -39t-76 -117z
M483 209q55 0 132.5 31t111.5 75l-10 19q-35 24 -94.5 38.5t-120.5 14.5q-75 0 -105 -27.5t-30 -62.5q0 -39 31.5 -63.5t84.5 -24.5z" />
    <glyph glyph-name="Oslashacute" unicode="&#x1fe;" horiz-adv-x="1603" 
d="M1180 1927l-277 -350h-207l193 350h291zM1352 1176q170 -204 170 -469q0 -196 -96 -363t-261.5 -264.5t-361.5 -97.5q-261 0 -455 161l-162 -168l-96 97l162 166q-168 205 -168 469q0 197 95 363t260.5 263t363.5 97q255 0 452 -160l162 166l96 -95zM408 707
q0 -139 65 -242l567 584q-104 77 -239 77q-174 0 -283.5 -119.5t-109.5 -299.5zM801 285q175 0 286 121t111 301q0 133 -68 241l-567 -586q99 -77 238 -77z" />
    <glyph glyph-name="oslashacute" unicode="&#x1ff;" horiz-adv-x="1181" 
d="M973 1470l-277 -350h-207l193 350h291zM993 801q117 -137 117 -322q0 -146 -73.5 -261t-191.5 -175.5t-255 -60.5q-168 0 -305 92l-111 -115l-84 86l105 107q-123 136 -123 327q0 110 42.5 205t114.5 159t165.5 100t195.5 36q175 0 315 -98l103 104l84 -84zM379 479
q0 -58 27 -110l294 301q-51 28 -110 28q-89 0 -150 -61t-61 -158zM590 262q91 0 151 60t60 157q0 49 -21 103l-288 -297q48 -23 98 -23z" />
    <glyph glyph-name="Scommaaccent" unicode="&#x218;" horiz-adv-x="1202" 
d="M598 -18q-226 0 -368 120.5t-142 315.5h322q0 -67 58 -113.5t142 -46.5q81 0 133 36t52 103q0 46 -34.5 82.5t-121.5 65.5l-168 51q-89 24 -157.5 62t-108 79t-64 90.5t-33 91t-8.5 85.5q0 188 142 307t356 119q208 0 342.5 -118t134.5 -319h-321q0 67 -41.5 111.5
t-120.5 44.5q-74 0 -120 -39.5t-46 -99.5q0 -90 139 -129l148 -45q67 -20 120 -42.5t108.5 -58.5t92.5 -79.5t60.5 -105.5t23.5 -136q0 -109 -44.5 -194.5t-119.5 -136t-165.5 -76t-190.5 -25.5zM510 -487l-143 79q96 106 92 328h278q0 -116 -66 -226.5t-161 -180.5z" />
    <glyph glyph-name="scommaaccent" unicode="&#x219;" horiz-adv-x="974" 
d="M489 -18q-109 0 -202 37t-153 114.5t-60 181.5h286q0 -40 30.5 -71t90.5 -31q49 0 83 19.5t34 52.5q0 23 -20 36t-74 25l-125 33q-58 16 -104.5 37.5t-76 43.5t-51 50t-32.5 50t-17 50t-7 45t-1 39q0 111 112 198t279 87q57 0 111 -10.5t107 -35t92.5 -60.5t63 -92.5
t22.5 -125.5h-287q0 44 -28.5 67t-74.5 23q-41 0 -67.5 -16t-26.5 -45q0 -50 82 -70l166 -45q68 -19 118.5 -49t77 -59.5t42 -65.5t19 -59.5t3.5 -48.5q0 -76 -37 -136t-97.5 -96t-131.5 -54.5t-146 -18.5zM397 -487l-143 79q96 106 92 328h279q0 -116 -66.5 -226.5
t-161.5 -180.5z" />
    <glyph glyph-name="uni021A" unicode="&#x21a;" horiz-adv-x="1148" 
d="M1108 1411v-281h-373v-1130h-321v1130h-373v281h1067zM340 -408q96 106 92 328h279q0 -116 -66.5 -226.5t-161.5 -180.5z" />
    <glyph glyph-name="uni021B" unicode="&#x21b;" horiz-adv-x="768" 
d="M729 954v-227h-201v-727h-303v727h-174v227h174v344h303v-344h201zM154 -408q96 106 92 328h278q0 -116 -66 -226.5t-161 -180.5z" />
    <glyph glyph-name="circumflex" unicode="&#x2c6;" horiz-adv-x="1181" 
d="M215 1126l223 351h303l226 -351h-215l-162 181l-162 -181h-213z" />
    <glyph glyph-name="caron" unicode="&#x2c7;" horiz-adv-x="1181" 
d="M438 1126l-223 351h213l162 -185l162 185h215l-226 -351h-303z" />
    <glyph glyph-name="breve" unicode="&#x2d8;" horiz-adv-x="1054" 
d="M526 1155q-90 0 -154 40t-93 100t-29 130h178q0 -54 22.5 -79t75.5 -25q97 0 97 104h182q0 -121 -78.5 -195.5t-200.5 -74.5z" />
    <glyph glyph-name="dotaccent" unicode="&#x2d9;" horiz-adv-x="731" 
d="M365 1145q-70 0 -117 45t-47 115q0 67 47.5 112t116.5 45t117 -45t48 -112q0 -70 -47.5 -115t-117.5 -45z" />
    <glyph glyph-name="ring" unicode="&#x2da;" horiz-adv-x="1163" 
d="M580 1094q-105 0 -181.5 74t-76.5 180q0 107 76.5 182.5t181.5 75.5q108 0 185 -75.5t77 -182.5q0 -106 -77 -180t-185 -74zM580 1219q57 0 98 36.5t41 92.5t-41.5 95.5t-97.5 39.5q-55 0 -94.5 -39.5t-39.5 -95.5t39.5 -92.5t94.5 -36.5z" />
    <glyph glyph-name="ogonek" unicode="&#x2db;" horiz-adv-x="1089" 
d="M537 -436q-88 0 -150.5 60t-62.5 151q0 59 22 102l92 172h150l-109 -225q-6 -24 -6 -45q0 -34 19.5 -55t48.5 -21q43 0 59 27t16 77h150q0 -120 -66.5 -181.5t-162.5 -61.5z" />
    <glyph glyph-name="tilde" unicode="&#x2dc;" horiz-adv-x="913" 
d="M164 1163q7 136 67.5 199t135.5 63q29 0 57.5 -13t46.5 -29t38.5 -29t35.5 -13q17 0 35.5 20t19.5 64h150q-3 -70 -23.5 -122.5t-51.5 -81t-64 -41.5t-66 -13q-34 0 -68 21t-62 42t-48 21q-15 0 -34 -22.5t-20 -65.5h-149z" />
    <glyph glyph-name="hungarumlaut" unicode="&#x2dd;" horiz-adv-x="1142" 
d="M164 1126l186 351h211l-211 -351h-186zM455 1126l215 351h215l-232 -351h-198z" />
    <glyph glyph-name="gravecomb" unicode="&#x300;" horiz-adv-x="0" 
d="M-569 1120l-277 350h293l191 -350h-207z" />
    <glyph glyph-name="acutecomb" unicode="&#x301;" horiz-adv-x="0" 
d="M-846 1120l193 350h291l-277 -350h-207z" />
    <glyph glyph-name="uni0302" unicode="&#x302;" horiz-adv-x="0" 
d="M-967 1120l224 350h303l225 -350h-215l-162 183l-162 -183h-213z" />
    <glyph glyph-name="tildecomb" unicode="&#x303;" horiz-adv-x="0" 
d="M-750 1159q4 70 24 123.5t50 82t62.5 42.5t66.5 14q29 0 57.5 -13t46.5 -29t38.5 -29t35.5 -13q17 0 36 20.5t20 63.5h149q-3 -71 -23.5 -123.5t-52 -80.5t-64 -41t-65.5 -13q-34 0 -68 21t-62 42t-48 21q-15 0 -33.5 -22.5t-19.5 -65.5h-150z" />
    <glyph glyph-name="uni0304" unicode="&#x304;" horiz-adv-x="0" 
d="M-825 1196v178h579v-178h-579z" />
    <glyph glyph-name="uni0306" unicode="&#x306;" horiz-adv-x="0" 
d="M-528 1151q-133 0 -205 80t-72 190h178q0 -54 23 -80t76 -26q96 0 96 106h182q0 -121 -78 -195.5t-200 -74.5z" />
    <glyph glyph-name="uni0307" unicode="&#x307;" horiz-adv-x="0" 
d="M-367 1137q-70 0 -116.5 44.5t-46.5 114.5q0 69 46.5 113.5t116.5 44.5t118 -45t48 -113q0 -69 -48 -114t-118 -45z" />
    <glyph glyph-name="uni0308" unicode="&#x308;" horiz-adv-x="0" 
d="M-834 1157q-63 0 -108 42.5t-45 103.5q0 60 45 101.5t108 41.5t106.5 -41.5t43.5 -101.5q0 -61 -43.5 -103.5t-106.5 -42.5zM-395 1157q-65 0 -110.5 42.5t-45.5 103.5q0 60 45.5 101.5t110.5 41.5q62 0 105.5 -41.5t43.5 -101.5q0 -61 -43.5 -103.5t-105.5 -42.5z" />
    <glyph glyph-name="uni030A" unicode="&#x30a;" horiz-adv-x="0" 
d="M-584 1094q-105 0 -181.5 74t-76.5 180q0 107 76.5 182.5t181.5 75.5q108 0 185 -75.5t77 -182.5q0 -106 -77 -180t-185 -74zM-584 1219q57 0 98.5 36.5t41.5 92.5t-42 95.5t-98 39.5q-54 0 -93.5 -39.5t-39.5 -95.5t39 -92.5t94 -36.5z" />
    <glyph glyph-name="uni030B" unicode="&#x30b;" horiz-adv-x="0" 
d="M-979 1120l186 350h211l-211 -350h-186zM-688 1120l215 350h215l-231 -350h-199z" />
    <glyph glyph-name="uni030C" unicode="&#x30c;" horiz-adv-x="0" 
d="M-743 1120l-224 350h213l162 -182l162 182h215l-225 -350h-303z" />
    <glyph glyph-name="uni0326" unicode="&#x326;" horiz-adv-x="0" 
d="M-342 -487l-143 79q96 106 92 328h278q0 -116 -66 -226.5t-161 -180.5z" />
    <glyph glyph-name="uni0327" unicode="&#x327;" horiz-adv-x="0" 
d="M-539 -436q-97 0 -163 61.5t-66 181.5h147q0 -104 76 -104q29 0 49.5 21t20.5 55q0 24 -8 45l-107 225h148l92 -172q22 -37 22 -102q0 -91 -62 -151t-149 -60z" />
    <glyph glyph-name="uni0328" unicode="&#x328;" horiz-adv-x="0" 
d="M-553 -436q-88 0 -150.5 60t-62.5 151q0 57 23 102l92 172h149l-108 -225q-6 -24 -6 -45q0 -34 19 -55t48 -21q76 0 76 104h149q0 -120 -66.5 -181.5t-162.5 -61.5z" />
    <glyph glyph-name="uni0394" unicode="&#x394;" horiz-adv-x="1394" 
d="M872 1411l521 -1411h-1393l522 1411h350zM432 279h531l-269 821z" />
    <glyph glyph-name="uni03A9" unicode="&#x3a9;" horiz-adv-x="1712" 
d="M1372 289h227v-289h-645v252q124 40 211.5 168t87.5 289q0 179 -110.5 298t-286.5 119q-175 0 -286 -119t-111 -298q0 -161 87.5 -289t211.5 -168v-252h-645v289h227q-83 58 -143 183.5t-60 262.5q0 196 95 355.5t260 249.5t364 90t364 -90t260 -249.5t95 -355.5
q0 -137 -60 -262.5t-143 -183.5z" />
    <glyph glyph-name="pi" unicode="&#x3c0;" horiz-adv-x="1292" 
d="M1206 674h-145v-283q0 -87 26.5 -124.5t92.5 -37.5v-247h-43q-36 0 -75.5 4.5t-97 24t-100.5 50.5t-74.5 91.5t-31.5 140.5v381h-221v-674h-304v674h-167v280h1140v-280z" />
    <glyph glyph-name="uni0401" unicode="&#x401;" horiz-adv-x="1185" 
d="M377 1614q-64 0 -109 42t-45 103q0 60 45.5 102t108.5 42t106 -42t43 -102q0 -61 -43 -103t-106 -42zM815 1614q-65 0 -110.5 42t-45.5 103q0 60 45.5 102t110.5 42q62 0 106 -42t44 -102q0 -61 -44 -103t-106 -42zM483 281h602v-281h-923v1411h905v-281h-584v-290h512
v-289h-512v-270z" />
    <glyph glyph-name="uni0410" unicode="&#x410;" horiz-adv-x="1357" 
d="M1034 0l-106 328h-496l-104 -328h-344l522 1411h350l520 -1411h-342zM520 606h318l-160 494z" />
    <glyph glyph-name="uni0411" unicode="&#x411;" horiz-adv-x="1280" 
d="M715 915q125 0 222.5 -35.5t157 -98t89.5 -142t30 -172.5q0 -90 -29 -171.5t-85 -148.5t-149.5 -107t-211.5 -40h-577v1411h880v-281h-559v-215h232zM696 281q93 0 144 53t51 129q0 77 -52 131.5t-151 54.5h-205v-368h213z" />
    <glyph glyph-name="uni0412" unicode="&#x412;" horiz-adv-x="1312" 
d="M958 754q132 -19 202.5 -118t70.5 -230q0 -60 -15.5 -116.5t-50.5 -109.5t-86.5 -92.5t-130 -63.5t-174.5 -24h-612v1411h571q191 0 307.5 -102.5t116.5 -261.5q0 -41 -9 -81.5t-29.5 -83.5t-61.5 -77t-99 -51zM711 1130h-228v-270h226q58 0 92.5 35.5t34.5 99.5
q0 58 -31.5 96.5t-93.5 38.5zM735 281q82 0 127 46t45 111q0 63 -44 110.5t-128 47.5h-252v-315h252z" />
    <glyph glyph-name="uni0413" unicode="&#x413;" horiz-adv-x="999" 
d="M162 1411h794v-281h-473v-1130h-321v1411z" />
    <glyph glyph-name="uni0414" unicode="&#x414;" horiz-adv-x="1497" 
d="M1296 178h123v-471h-323v293h-738v-293h-321v531h20q248 0 248 497v676h991v-1233zM627 651q0 -265 -121 -370h469v849h-348v-479z" />
    <glyph glyph-name="uni0415" unicode="&#x415;" horiz-adv-x="1185" 
d="M483 281h602v-281h-923v1411h905v-281h-584v-290h512v-289h-512v-270z" />
    <glyph glyph-name="uni0416" unicode="&#x416;" horiz-adv-x="1910" 
d="M1950 0h-439l-395 461v-461h-321v461l-396 -461h-438l660 713l-535 698h403l306 -438v438h321v-440l305 440h402l-533 -698z" />
    <glyph glyph-name="uni0417" unicode="&#x417;" horiz-adv-x="1193" 
d="M852 764q125 -42 192.5 -135t67.5 -219q0 -192 -153.5 -310t-409.5 -118q-335 0 -510 227l237 188q121 -118 265 -118q114 0 179.5 43t65.5 118q0 77 -67 121.5t-178 44.5h-168v262h86q256 0 256 140q0 53 -53.5 89t-129.5 36q-69 0 -141.5 -31t-116.5 -78l-186 211
q209 195 485 195q208 0 337.5 -107t129.5 -289q0 -87 -48.5 -158t-139.5 -112z" />
    <glyph glyph-name="uni0418" unicode="&#x418;" horiz-adv-x="1390" 
d="M934 1411h295v-1411h-322v811l-463 -811h-282v1411h321v-801z" />
    <glyph glyph-name="uni0419" unicode="&#x419;" horiz-adv-x="1390" 
d="M694 1608q-122 0 -200 74.5t-78 195.5h182q0 -106 96 -106q53 0 76 26t23 80h178q0 -110 -72 -190t-205 -80zM934 1411h295v-1411h-322v811l-463 -811h-282v1411h321v-801z" />
    <glyph glyph-name="uni041A" unicode="&#x41a;" horiz-adv-x="1277" 
d="M1319 0h-440l-396 455v-455h-321v1411h321v-432l308 432h401l-533 -698z" />
    <glyph glyph-name="uni041B" unicode="&#x41b;" horiz-adv-x="1462" 
d="M309 1411h991v-1411h-321v1130h-348v-528q0 -288 -123.5 -445t-333.5 -157h-133v281h39q55 0 94 13.5t71 48.5t48 101.5t16 165.5v801z" />
    <glyph glyph-name="uni041C" unicode="&#x41c;" horiz-adv-x="1884" 
d="M1796 0h-330l-92 803l-307 -641h-246l-307 639l-94 -801h-330l174 1411h268l412 -883l406 883h274z" />
    <glyph glyph-name="uni041D" unicode="&#x41d;" horiz-adv-x="1433" 
d="M948 1411h322v-1411h-322v557h-465v-557h-321v1411h321v-565h465v565z" />
    <glyph glyph-name="uni041E" unicode="&#x41e;" horiz-adv-x="1599" 
d="M801 -18q-198 0 -364 97.5t-261.5 264t-95.5 363.5t95.5 363t261.5 263t364 97q146 0 279.5 -57.5t229.5 -154t153 -230.5t57 -281t-57 -281t-153 -231.5t-229.5 -155t-279.5 -57.5zM799 285q175 0 286 121t111 301q0 179 -111 299t-286 120q-176 0 -286 -119.5
t-110 -299.5t110 -301t286 -121z" />
    <glyph glyph-name="uni041F" unicode="&#x41f;" horiz-adv-x="1404" 
d="M162 1411h1079v-1411h-321v1124h-437v-1124h-321v1411z" />
    <glyph glyph-name="uni0420" unicode="&#x420;" horiz-adv-x="1271" 
d="M743 1411q118 0 212 -40t150 -107t85 -148.5t29 -171.5q0 -91 -29 -172.5t-85.5 -148t-149.5 -105.5t-212 -39h-260v-479h-321v1411h581zM729 760q84 0 125 54t41 130t-40.5 131t-123.5 55h-248v-370h246z" />
    <glyph glyph-name="uni0421" unicode="&#x421;" horiz-adv-x="1439" 
d="M797 -16q-146 0 -279 57.5t-229 154.5t-152.5 231t-56.5 282q0 146 56.5 279.5t152.5 230t229 154t279 57.5q182 0 338.5 -85t255.5 -229l-250 -174q-119 182 -330 182q-177 0 -292.5 -119.5t-115.5 -295.5q0 -178 114 -300t292 -122q214 0 332 184l250 -176
q-99 -144 -255 -227.5t-339 -83.5z" />
    <glyph glyph-name="uni0422" unicode="&#x422;" horiz-adv-x="1148" 
d="M1108 1411v-281h-373v-1130h-321v1130h-373v281h1067z" />
    <glyph glyph-name="uni0423" unicode="&#x423;" horiz-adv-x="1345" 
d="M1012 1411h358l-731 -1411h-352l233 438l-538 973h354l354 -666z" />
    <glyph glyph-name="uni0424" unicode="&#x424;" horiz-adv-x="1798" 
d="M1049 1290q344 -28 508.5 -183.5t162.5 -404.5q0 -121 -38.5 -219.5t-118 -176t-210 -126.5t-304.5 -63v-117h-299v117q-343 28 -508.5 183t-165.5 402q0 121 39 220.5t119 177.5t211 127t305 63v121h299v-121zM1397 702q3 111 -82.5 186t-265.5 97v-563q178 22 263 96
t85 184zM399 702q0 -110 86 -184t265 -96v563q-179 -22 -265 -97t-86 -186z" />
    <glyph glyph-name="uni0425" unicode="&#x425;" horiz-adv-x="1363" 
d="M1362 0h-379l-301 496l-301 -496h-377l485 752l-444 659h389l248 -403l252 403h385l-447 -659z" />
    <glyph glyph-name="uni0426" unicode="&#x426;" horiz-adv-x="1445" 
d="M1245 178h123v-471h-324v293h-882v1411h321v-1124h441v1124h321v-1233z" />
    <glyph glyph-name="uni0427" unicode="&#x427;" horiz-adv-x="1327" 
d="M842 1411h321v-1411h-321v469q-150 -25 -291 -25q-234 0 -348.5 135.5t-114.5 424.5v407h322v-397q0 -158 58.5 -217.5t176.5 -59.5q81 0 197 21v653z" />
    <glyph glyph-name="uni0428" unicode="&#x428;" horiz-adv-x="1984" 
d="M1499 1411h322v-1411h-1659v1411h321v-1124h348v1124h322v-1124h346v1124z" />
    <glyph glyph-name="uni0429" unicode="&#x429;" horiz-adv-x="2021" 
d="M1821 178h123v-471h-324v293h-1458v1411h321v-1124h348v1124h322v-1124h346v1124h322v-1233z" />
    <glyph glyph-name="uni042A" unicode="&#x42a;" horiz-adv-x="1400" 
d="M848 915q125 0 222.5 -35.5t157 -98t90 -142t30.5 -172.5q0 -90 -29 -171.5t-85 -148.5t-150 -107t-212 -40h-575v1130h-258v281h579v-496h230zM829 281q93 0 145 53t52 129q0 77 -53 131.5t-152 54.5h-203v-368h211z" />
    <glyph glyph-name="uni042B" unicode="&#x42b;" horiz-adv-x="1904" 
d="M715 915q125 0 222.5 -35.5t157 -98t89.5 -142t30 -172.5q0 -90 -29 -171.5t-85 -148.5t-149.5 -107t-211.5 -40h-577v1411h321v-496h232zM1419 1411h322v-1411h-322v1411zM696 281q93 0 144 53t51 129q0 77 -52 131.5t-151 54.5h-205v-368h213z" />
    <glyph glyph-name="uni042C" unicode="&#x42c;" horiz-adv-x="1267" 
d="M715 915q125 0 222.5 -35.5t157 -98t89.5 -142t30 -172.5q0 -90 -29 -171.5t-85 -148.5t-149.5 -107t-211.5 -40h-577v1411h321v-496h232zM696 281q93 0 144 53t51 129q0 77 -52 131.5t-151 54.5h-205v-368h213z" />
    <glyph glyph-name="uni042D" unicode="&#x42d;" horiz-adv-x="1454" 
d="M655 1430q196 0 361 -97t260.5 -262.5t95.5 -361.5q0 -197 -95.5 -364t-260.5 -264t-361 -97q-181 0 -337 83.5t-255 227.5l248 176q122 -184 332 -184q137 0 238 72t143 192h-557v289h565q-39 128 -143.5 206t-245.5 78q-210 0 -332 -182l-248 174q99 144 255 229
t337 85z" />
    <glyph glyph-name="uni042E" unicode="&#x42e;" horiz-adv-x="2168" 
d="M1370 1430q196 0 361.5 -97t261.5 -263.5t96 -362.5t-96 -363t-261.5 -264.5t-361.5 -97.5q-261 0 -456.5 163t-247.5 412h-183v-557h-321v1411h321v-565h181q23 123 87.5 231t156.5 185.5t212 122.5t250 45zM1368 285q175 0 286 121t111 301q0 179 -111 299t-286 120
q-174 0 -283.5 -119.5t-109.5 -299.5t109.5 -301t283.5 -121z" />
    <glyph glyph-name="uni042F" unicode="&#x42f;" horiz-adv-x="1314" 
d="M575 1411h578v-1411h-322v496h-63l-326 -496h-374l364 514q-164 41 -248 157.5t-84 272.5q0 90 29 171.5t85 148.5t149.5 107t211.5 40zM627 750h204v380h-213q-92 0 -143 -58.5t-51 -135.5t52 -131.5t151 -54.5z" />
    <glyph glyph-name="uni0430" unicode="&#x430;" horiz-adv-x="1261" 
d="M834 954h301v-954h-301v109q-49 -63 -132 -95t-165 -32q-90 0 -173 35t-147.5 97t-103.5 157.5t-39 207.5t39 207.5t103.5 158t147.5 97.5t173 35q82 0 165 -32t132 -95v104zM602 264q89 0 154 62t65 153t-65.5 153t-153.5 62q-90 0 -155.5 -62.5t-65.5 -152.5
t65.5 -152.5t155.5 -62.5z" />
    <glyph glyph-name="uni0431" unicode="&#x431;" horiz-adv-x="1202" 
d="M688 924q115 0 214 -55t161.5 -163t62.5 -247q0 -214 -143.5 -345.5t-374.5 -131.5q-234 0 -377 167.5t-143 450.5q0 136 27.5 254.5t84.5 222t156 176.5t232 103q64 14 113 46t65 64l229 -147q-13 -57 -72 -109.5t-165 -83.5q-94 -21 -162 -55t-107.5 -78t-60 -91
t-27.5 -105q40 55 124 91t163 36zM608 250q93 0 152 57.5t59 151.5q0 95 -59 153t-152 58q-94 0 -152.5 -58t-58.5 -153q0 -94 58.5 -151.5t152.5 -57.5z" />
    <glyph glyph-name="uni0432" unicode="&#x432;" horiz-adv-x="1138" 
d="M858 508q86 -9 147.5 -74t61.5 -155q0 -34 -6.5 -65t-21.5 -63.5t-42.5 -59t-65 -47.5t-93.5 -32.5t-125 -11.5h-586v954h582q146 0 225.5 -69t79.5 -168q0 -27 -5.5 -54t-20.5 -60.5t-48.5 -59.5t-81.5 -35zM655 694h-225v-106h225q62 0 62 51q0 25 -16.5 40t-45.5 15z
M674 270q40 0 62 15t22 43t-22.5 45.5t-61.5 17.5h-244v-121h244z" />
    <glyph glyph-name="uni0433" unicode="&#x433;" horiz-adv-x="864" 
d="M127 954h694v-280h-391v-674h-303v954z" />
    <glyph glyph-name="uni0434" unicode="&#x434;" horiz-adv-x="1185" 
d="M1022 160h92v-398h-305v238h-467v-238h-301v457h14q185 0 185 369v366h782v-794zM543 506q0 -163 -82 -242h258v410h-176v-168z" />
    <glyph glyph-name="uni0435" unicode="&#x435;" horiz-adv-x="1157" 
d="M1092 498q0 -27 -7 -109h-698q22 -68 79.5 -105.5t143.5 -37.5q67 0 131.5 24.5t110.5 67.5l156 -197q-69 -75 -182.5 -117t-237.5 -42q-226 0 -371 137.5t-145 355.5q0 113 42 209t113 160t164.5 99.5t196.5 35.5q136 0 250.5 -58.5t184 -170t69.5 -252.5zM385 567h403
q-1 70 -56 113t-138 43q-75 0 -131 -37.5t-78 -118.5z" />
    <glyph glyph-name="uni0436" unicode="&#x436;" horiz-adv-x="1517" 
d="M1542 0h-418l-229 279v-279h-272v291l-230 -291h-418l494 498l-393 456h381l166 -245v245h272v-237l164 237h383l-395 -456z" />
    <glyph glyph-name="uni0437" unicode="&#x437;" horiz-adv-x="946" 
d="M702 520q88 -33 132.5 -95.5t44.5 -139.5q0 -131 -127.5 -217t-325.5 -86q-250 0 -385 157l182 146q85 -70 201 -70q70 0 108.5 32t38.5 70q0 40 -37.5 65.5t-103.5 25.5h-137v180h102q65 0 95 21t30 55q0 32 -32.5 54.5t-88.5 22.5q-49 0 -100.5 -18.5t-85.5 -44.5
l-145 168q83 64 173 98.5t208 34.5q160 0 269 -78t109 -205q-2 -54 -33.5 -101t-91.5 -75z" />
    <glyph glyph-name="uni0438" unicode="&#x438;" horiz-adv-x="1157" 
d="M764 954h266v-954h-303v473l-342 -473h-258v954h303v-456z" />
    <glyph glyph-name="uni0439" unicode="&#x439;" horiz-adv-x="1157" 
d="M537 1157q-133 0 -205 80t-72 190h178q0 -54 23 -80t76 -26q96 0 96 106h182q0 -121 -78 -195.5t-200 -74.5zM764 954h266v-954h-303v473l-342 -473h-258v954h303v-456z" />
    <glyph glyph-name="uni043A" unicode="&#x43a;" horiz-adv-x="1021" 
d="M1047 0h-392l-235 291v-291h-293v954h293v-288l172 288h352l-321 -452z" />
    <glyph glyph-name="uni043B" unicode="&#x43b;" horiz-adv-x="1175" 
d="M248 954h801v-954h-304v674h-194v-195q0 -230 -95.5 -354.5t-258.5 -124.5h-148v262h39q41 0 66.5 6.5t49 28.5t34 68t10.5 120v469z" />
    <glyph glyph-name="uni043C" unicode="&#x43c;" horiz-adv-x="1429" 
d="M1354 0h-316l-51 444l-162 -323h-221l-164 325l-51 -446h-315l131 954h233l277 -530l270 530h242z" />
    <glyph glyph-name="uni043D" unicode="&#x43d;" horiz-adv-x="1181" 
d="M752 954h303v-954h-303v338h-322v-338h-303v954h303v-346h322v346z" />
    <glyph glyph-name="uni043E" unicode="&#x43e;" horiz-adv-x="1179" 
d="M590 -18q-137 0 -254.5 60.5t-190.5 175.5t-73 261q0 110 42.5 205t114.5 159t165.5 100t195.5 36t196 -36t166 -100t115 -159t43 -205q0 -146 -73.5 -261t-191.5 -175.5t-255 -60.5zM590 262q90 0 150.5 60.5t60.5 156.5q0 97 -61 158t-150 61t-150 -61t-61 -158
q0 -96 60.5 -156.5t150.5 -60.5z" />
    <glyph glyph-name="uni043F" unicode="&#x43f;" horiz-adv-x="1155" 
d="M127 954h901v-954h-303v674h-295v-674h-303v954z" />
    <glyph glyph-name="uni0440" unicode="&#x440;" horiz-adv-x="1261" 
d="M725 979q90 0 174 -35t148.5 -98t103.5 -158t39 -207t-39 -207t-103.5 -157.5t-148.5 -97.5t-174 -35q-81 0 -163.5 31.5t-131.5 93.5v-580h-303v1425h303v-102q49 63 131.5 95t163.5 32zM662 264q90 0 155.5 63t65.5 154q0 90 -65.5 152.5t-155.5 62.5t-156 -62
t-66 -153q0 -92 66.5 -154.5t155.5 -62.5z" />
    <glyph glyph-name="uni0441" unicode="&#x441;" horiz-adv-x="1069" 
d="M598 -18q-140 0 -259.5 60.5t-193 176t-73.5 262.5q0 111 43 205.5t115.5 158t168 99t199.5 35.5q134 0 240 -60t178 -165l-234 -148q-29 42 -80 67t-102 25q-101 0 -161 -62.5t-60 -154.5q0 -94 60 -156.5t161 -62.5q51 0 102 25t80 67l234 -147q-72 -105 -178 -165
t-240 -60z" />
    <glyph glyph-name="uni0442" unicode="&#x442;" horiz-adv-x="948" 
d="M903 954v-280h-278v-674h-301v674h-279v280h858z" />
    <glyph glyph-name="uni0443" unicode="&#x443;" horiz-adv-x="1056" 
d="M731 954h326l-590 -1425h-324l236 584l-377 841h336l199 -493z" />
    <glyph glyph-name="uni0444" unicode="&#x444;" horiz-adv-x="1466" 
d="M1397 473q0 -200 -132 -329.5t-393 -157.5v-430h-276v430q-262 28 -394 157.5t-132 329.5q0 203 132.5 335.5t393.5 162.5v487h276v-489q261 -28 393 -160.5t132 -335.5zM379 473q0 -77 54.5 -129.5t162.5 -73.5v414q-107 -21 -162 -76.5t-55 -134.5zM1087 473
q2 79 -52 134.5t-163 76.5v-412q108 20 161.5 72t53.5 129z" />
    <glyph glyph-name="uni0445" unicode="&#x445;" horiz-adv-x="1089" 
d="M1087 0h-352l-190 279l-191 -279h-354l377 516l-316 438h355l133 -194l127 194h352l-315 -438z" />
    <glyph glyph-name="uni0446" unicode="&#x446;" horiz-adv-x="1189" 
d="M967 281h141v-519h-285v238h-696v954h303v-673h236v673h301v-673z" />
    <glyph glyph-name="uni0447" unicode="&#x447;" horiz-adv-x="1093" 
d="M664 954h303v-954h-303v291q-146 -17 -256 -17q-171 0 -254.5 99t-83.5 309v272h303v-266q0 -45 11 -74t33.5 -42.5t44.5 -18t54 -4.5q42 0 148 8v397z" />
    <glyph glyph-name="uni0448" unicode="&#x448;" horiz-adv-x="1486" 
d="M1057 954h303v-954h-1233v954h303v-673h172v673h285v-673h170v673z" />
    <glyph glyph-name="uni0449" unicode="&#x449;" horiz-adv-x="1572" 
d="M1360 281h131v-519h-285v238h-1079v954h303v-673h162v673h303v-673h162v673h303v-673z" />
    <glyph glyph-name="uni044A" unicode="&#x44a;" horiz-adv-x="1134" 
d="M723 651q167 0 265.5 -87.5t98.5 -229.5q0 -149 -98 -241.5t-264 -92.5h-487v698h-185v256h486v-303h184zM698 264q84 0 84 64q0 69 -84 69h-159v-133h159z" />
    <glyph glyph-name="uni044B" unicode="&#x44b;" horiz-adv-x="1527" 
d="M612 651q167 0 267 -87.5t100 -229.5q0 -149 -99.5 -241.5t-265.5 -92.5h-487v954h303v-303h182zM1098 954h301v-954h-301v954zM590 264q84 0 84 64q0 32 -21.5 50.5t-62.5 18.5h-160v-133h160z" />
    <glyph glyph-name="uni044C" unicode="&#x44c;" horiz-adv-x="1024" 
d="M612 651q167 0 267 -87.5t100 -229.5q0 -149 -99.5 -241.5t-265.5 -92.5h-487v954h303v-303h182zM590 264q84 0 84 64q0 32 -21.5 50.5t-62.5 18.5h-160v-133h160z" />
    <glyph glyph-name="uni044D" unicode="&#x44d;" horiz-adv-x="1058" 
d="M467 979q227 0 373.5 -141.5t146.5 -356.5q0 -216 -146 -357.5t-374 -141.5q-120 0 -231 40t-181 111l152 201q47 -41 110 -64.5t129 -23.5q78 0 133.5 33.5t82.5 93.5h-326v209h328q-25 61 -82.5 97t-135.5 36q-139 0 -239 -90l-152 202q70 70 181.5 111t230.5 41z" />
    <glyph glyph-name="uni044E" unicode="&#x44e;" horiz-adv-x="1626" 
d="M1036 979q102 0 195.5 -36t165.5 -100t114.5 -159t42.5 -205q0 -146 -73 -261t-190.5 -175.5t-254.5 -60.5q-173 0 -310.5 97t-182.5 259h-113v-338h-303v954h303v-346h111q41 169 179.5 270t315.5 101zM1036 262q90 0 150.5 60.5t60.5 156.5q0 97 -61 158t-150 61
q-91 0 -152 -61t-61 -158t61 -157t152 -60z" />
    <glyph glyph-name="uni044F" unicode="&#x44f;" horiz-adv-x="1048" 
d="M469 954h453v-954h-304v317l-212 -317h-351l260 336q-114 31 -169.5 107.5t-55.5 183.5q0 63 24 120.5t69 104t119 74.5t167 28zM500 678q-103 0 -103 -78q0 -36 23.5 -61t81.5 -25h116v164h-118z" />
    <glyph glyph-name="uni0451" unicode="&#x451;" horiz-adv-x="1157" 
d="M358 1157q-63 0 -108 42.5t-45 103.5q0 60 45 101.5t108 41.5t106.5 -41.5t43.5 -101.5q0 -61 -43.5 -103.5t-106.5 -42.5zM797 1157q-65 0 -110.5 42.5t-45.5 103.5q0 60 45.5 101.5t110.5 41.5q62 0 105.5 -41.5t43.5 -101.5q0 -61 -43.5 -103.5t-105.5 -42.5z
M1092 498q0 -27 -7 -109h-698q22 -68 79.5 -105.5t143.5 -37.5q67 0 131.5 24.5t110.5 67.5l156 -197q-69 -75 -182.5 -117t-237.5 -42q-226 0 -371 137.5t-145 355.5q0 113 42 209t113 160t164.5 99.5t196.5 35.5q136 0 250.5 -58.5t184 -170t69.5 -252.5zM385 567h403
q-1 70 -56 113t-138 43q-75 0 -131 -37.5t-78 -118.5z" />
    <glyph glyph-name="Wgrave" unicode="&#x1e80;" horiz-adv-x="1853" 
d="M1038 1577h-207l-276 350h293zM1491 1411h350l-479 -1411h-250l-188 717l-183 -717h-252l-475 1411h346l261 -844l174 643h264l172 -647z" />
    <glyph glyph-name="wgrave" unicode="&#x1e81;" horiz-adv-x="1542" 
d="M883 1120h-207l-277 350h293zM1206 954h328l-332 -954h-258l-174 590l-166 -590h-258l-342 954h328l157 -544l158 544h244l158 -544z" />
    <glyph glyph-name="Wacute" unicode="&#x1e82;" horiz-adv-x="1853" 
d="M1307 1927l-277 -350h-207l193 350h291zM1491 1411h350l-479 -1411h-250l-188 717l-183 -717h-252l-475 1411h346l261 -844l174 643h264l172 -647z" />
    <glyph glyph-name="wacute" unicode="&#x1e83;" horiz-adv-x="1542" 
d="M1151 1470l-277 -350h-206l192 350h291zM1206 954h328l-332 -954h-258l-174 590l-166 -590h-258l-342 954h328l157 -544l158 544h244l158 -544z" />
    <glyph glyph-name="Wdieresis" unicode="&#x1e84;" horiz-adv-x="1853" 
d="M711 1614q-64 0 -109 42t-45 103q0 60 45.5 102t108.5 42t106 -42t43 -102q0 -61 -43 -103t-106 -42zM1149 1614q-65 0 -110.5 42t-45.5 103q0 60 45.5 102t110.5 42q62 0 105.5 -42t43.5 -102q0 -61 -43.5 -103t-105.5 -42zM1491 1411h350l-479 -1411h-250l-188 717
l-183 -717h-252l-475 1411h346l261 -844l174 643h264l172 -647z" />
    <glyph glyph-name="wdieresis" unicode="&#x1e85;" horiz-adv-x="1542" 
d="M555 1157q-63 0 -108.5 42.5t-45.5 103.5q0 60 45.5 101.5t108.5 41.5t106.5 -41.5t43.5 -101.5q0 -61 -43.5 -103.5t-106.5 -42.5zM993 1157q-65 0 -110 42.5t-45 103.5q0 60 45 101.5t110 41.5q62 0 106 -41.5t44 -101.5q0 -61 -44 -103.5t-106 -42.5zM1206 954h328
l-332 -954h-258l-174 590l-166 -590h-258l-342 954h328l157 -544l158 544h244l158 -544z" />
    <glyph glyph-name="uni1E9E" unicode="&#x1e9e;" horiz-adv-x="1425" 
d="M1004 856q157 -36 250.5 -141.5t93.5 -261.5q0 -205 -138 -339t-360 -134q-154 0 -240 34l37 279q52 -29 156 -29q100 0 160.5 59t60.5 156q0 103 -72 166.5t-190 63.5h-82l-4 116l170 301q-58 17 -117 17q-106 0 -183 -78.5t-77 -222.5v-842h-322v836q0 148 45.5 263
t126 185.5t185 106.5t229.5 36q128 0 269 -37t237 -94v-28z" />
    <glyph glyph-name="Ygrave" unicode="&#x1ef2;" horiz-adv-x="1406" 
d="M815 1577h-207l-276 350h293zM1032 1411h383l-551 -780v-631h-323v637l-549 774h383l325 -520z" />
    <glyph glyph-name="ygrave" unicode="&#x1ef3;" horiz-adv-x="1056" 
d="M645 1120h-207l-276 350h293zM731 954h326l-590 -1425h-324l236 584l-377 841h336l199 -493z" />
    <glyph glyph-name="endash" unicode="&#x2013;" horiz-adv-x="1318" 
d="M121 358v260h1077v-260h-1077z" />
    <glyph glyph-name="emdash" unicode="&#x2014;" horiz-adv-x="1757" 
d="M121 356v260h1517v-260h-1517z" />
    <glyph glyph-name="quoteleft" unicode="&#x2018;" horiz-adv-x="532" 
d="M86 852q-1 96 22.5 188.5t66 169t89.5 137t103 111.5l131 -76q-94 -126 -133.5 -249.5t-36.5 -280.5h-242z" />
    <glyph glyph-name="quoteright" unicode="&#x2019;" horiz-adv-x="514" 
d="M180 815l-129 76q94 128 133.5 251t36.5 279h242q1 -96 -22.5 -188.5t-66 -168.5t-90.5 -137t-104 -112z" />
    <glyph glyph-name="quotesinglbase" unicode="&#x201a;" horiz-adv-x="503" 
d="M102 -311l-131 75q94 127 133.5 249t36.5 282h242q1 -96 -22.5 -188.5t-66 -169t-89.5 -137t-103 -111.5z" />
    <glyph glyph-name="quotedblleft" unicode="&#x201c;" horiz-adv-x="882" 
d="M86 852q-1 96 22.5 188.5t66 169t89.5 137t103 111.5l131 -76q-94 -126 -133.5 -249.5t-36.5 -280.5h-242zM436 852q-1 96 22.5 188.5t66 168.5t90.5 137t104 112l129 -76q-94 -126 -133.5 -249.5t-36.5 -280.5h-242z" />
    <glyph glyph-name="quotedblright" unicode="&#x201d;" horiz-adv-x="866" 
d="M180 815l-129 76q94 128 133.5 251t36.5 279h242q1 -96 -22.5 -188.5t-66 -168.5t-90.5 -137t-104 -112zM532 815l-131 76q94 128 133.5 251t36.5 279h242q1 -96 -22.5 -188.5t-66 -169t-89.5 -137t-103 -111.5z" />
    <glyph glyph-name="quotedblbase" unicode="&#x201e;" horiz-adv-x="854" 
d="M102 -311l-131 75q94 128 133.5 251t36.5 280h242q1 -96 -22.5 -188.5t-66 -169t-89.5 -137t-103 -111.5zM453 -311l-131 75q95 126 134 248t36 283h243q1 -184 -80.5 -339t-201.5 -267z" />
    <glyph glyph-name="dagger" unicode="&#x2020;" horiz-adv-x="915" 
d="M324 -236v1113h-236v204h236v326h268v-326h235v-204h-235v-1113h-268z" />
    <glyph glyph-name="daggerdbl" unicode="&#x2021;" horiz-adv-x="915" 
d="M324 -236v467h-236v203h236v443h-236v204h236v326h268v-326h235v-204h-235v-443h235v-203h-235v-467h-268z" />
    <glyph glyph-name="bullet" unicode="&#x2022;" horiz-adv-x="925" 
d="M463 166q-137 0 -234.5 92t-97.5 229q0 136 97.5 228t234.5 92t234.5 -92t97.5 -228q0 -137 -97.5 -229t-234.5 -92z" />
    <glyph glyph-name="ellipsis" unicode="&#x2026;" horiz-adv-x="1812" 
d="M276 -18q-76 0 -130 50.5t-54 127.5q0 78 54 130t130 52q78 0 133.5 -52t55.5 -130q0 -77 -55.5 -127.5t-133.5 -50.5zM905 -18q-76 0 -130 50.5t-54 127.5q0 78 54 130t130 52q78 0 133.5 -52t55.5 -130q0 -77 -55.5 -127.5t-133.5 -50.5zM1534 -18q-76 0 -130 50.5
t-54 127.5q0 78 54 130t130 52t131 -52t55 -130q0 -77 -54.5 -127.5t-131.5 -50.5z" />
    <glyph glyph-name="perthousand" unicode="&#x2030;" horiz-adv-x="1945" 
d="M336 825q-116 0 -194.5 78.5t-78.5 194.5q0 114 79 194t194 80q114 0 194 -80t80 -194q0 -115 -80 -194t-194 -79zM242 0l669 1343h160l-672 -1343h-157zM336 981q50 0 84.5 33.5t34.5 83.5q0 47 -35 81.5t-84 34.5q-50 0 -82.5 -34t-32.5 -82q0 -51 32 -84t83 -33z
M977 -18q-115 0 -193.5 78t-78.5 194q0 115 78.5 194.5t193.5 79.5q114 0 194 -80t80 -194q0 -115 -79.5 -193.5t-194.5 -78.5zM1612 -18q-116 0 -194.5 78.5t-78.5 193.5q0 114 79 194t194 80q114 0 194 -80t80 -194q0 -115 -79.5 -193.5t-194.5 -78.5zM977 137
q50 0 83.5 33t33.5 84q0 50 -34 84.5t-83 34.5q-50 0 -83.5 -34.5t-33.5 -84.5q0 -51 33 -84t84 -33zM1612 137q50 0 84.5 33.5t34.5 83.5t-34.5 84.5t-84.5 34.5t-83.5 -34.5t-33.5 -84.5q0 -51 33 -84t84 -33z" />
    <glyph glyph-name="guilsinglleft" unicode="&#x2039;" horiz-adv-x="659" 
d="M352 53l-282 424l282 424h234l-283 -424l283 -424h-234z" />
    <glyph glyph-name="guilsinglright" unicode="&#x203a;" horiz-adv-x="659" 
d="M76 53l282 424l-282 424h233l283 -424l-283 -424h-233z" />
    <glyph glyph-name="fraction" unicode="&#x2044;" horiz-adv-x="368" 
d="M-375 -18l926 1384h182l-923 -1384h-185z" />
    <glyph glyph-name="uni2070" unicode="&#x2070;" horiz-adv-x="696" 
d="M348 1073q-78 0 -133 28.5t-85 81t-43 116t-13 145.5q0 66 7.5 120t27 103t50 82t78.5 52.5t111 19.5t112 -19.5t79.5 -52.5t50 -82t27.5 -103t8 -120q0 -371 -277 -371zM348 1227q109 0 109 217q0 221 -109 221q-106 0 -106 -221q0 -217 106 -217z" />
    <glyph glyph-name="uni2074" unicode="&#x2074;" horiz-adv-x="694" 
d="M643 1360v-139h-100v-138h-166v138h-348v41l463 550h51v-452h100zM266 1360h111v135z" />
    <glyph glyph-name="uni2075" unicode="&#x2075;" horiz-adv-x="669" 
d="M373 1583q108 0 171.5 -68.5t63.5 -179.5q0 -119 -79.5 -190.5t-200.5 -71.5q-92 0 -166 44.5t-109 115.5l131 76q19 -36 54.5 -58t78.5 -22q56 0 89.5 28.5t33.5 75.5q0 51 -30.5 81t-81.5 30q-78 0 -148 -76l-106 76l63 368h424v-155h-287l-22 -109q44 35 121 35z" />
    <glyph glyph-name="uni2076" unicode="&#x2076;" horiz-adv-x="696" 
d="M389 1552q110 0 178 -68.5t68 -168.5q0 -106 -77.5 -174t-195.5 -68q-133 0 -212.5 94t-79.5 263q0 99 27 176t71.5 122.5t97.5 69t109 23.5q71 0 138.5 -36t102.5 -93l-127 -93q-23 33 -52.5 49.5t-55.5 16.5q-52 0 -97 -45.5t-48 -130.5q53 63 153 63zM365 1227
q44 0 72 30t28 68q0 34 -26.5 63t-73.5 29q-43 0 -72 -27t-29 -65q0 -40 29.5 -69t71.5 -29z" />
    <glyph glyph-name="uni2077" unicode="&#x2077;" horiz-adv-x="626" 
d="M57 1812h547v-14l-328 -715h-196l260 574h-283v155z" />
    <glyph glyph-name="uni2078" unicode="&#x2078;" horiz-adv-x="712" 
d="M528 1499q56 -24 89.5 -76t33.5 -120q0 -102 -82 -166t-211 -64q-131 0 -213 63.5t-82 166.5q0 68 33.5 120t89.5 76q-63 47 -63 127q0 86 65.5 140.5t169.5 54.5q103 0 168.5 -54.5t65.5 -140.5q0 -79 -64 -127zM356 1665q-31 0 -49 -17.5t-18 -48.5q0 -28 18.5 -45.5
t48.5 -17.5q31 0 50.5 17.5t19.5 45.5q0 30 -19.5 48t-50.5 18zM358 1225q52 0 84.5 27.5t32.5 70.5q0 45 -32 72.5t-85 27.5q-49 0 -79.5 -28t-30.5 -72q0 -43 30.5 -70.5t79.5 -27.5z" />
    <glyph glyph-name="uni2079" unicode="&#x2079;" horiz-adv-x="696" 
d="M334 1821q133 0 213 -94.5t80 -260.5q0 -99 -26.5 -176.5t-71 -123.5t-97.5 -69.5t-110 -23.5q-71 0 -139 35.5t-103 93.5l127 92q44 -65 108 -65q52 0 97.5 45.5t48.5 128.5q-54 -64 -154 -64q-110 0 -178 69t-68 169q0 108 77.5 176t195.5 68zM332 1477q43 0 71.5 27
t28.5 63q0 41 -28.5 69.5t-71.5 28.5q-42 0 -71.5 -30t-29.5 -66q0 -35 27 -63.5t74 -28.5z" />
    <glyph glyph-name="uni207A" unicode="&#x207a;" horiz-adv-x="595" 
d="M537 1444v-146h-164v-165h-146v165h-166v146h166v166h146v-166h164z" />
    <glyph glyph-name="uni207B" unicode="&#x207b;" horiz-adv-x="657" 
d="M92 1311v139h473v-139h-473z" />
    <glyph glyph-name="uni207C" unicode="&#x207c;" horiz-adv-x="714" 
d="M94 1444v133h527v-133h-527zM94 1204v133h527v-133h-527z" />
    <glyph glyph-name="uni207D" unicode="&#x207d;" horiz-adv-x="468" 
d="M416 891q-158 -7 -253 130t-95 359q0 221 95.5 362t252.5 134v-131q-82 5 -139.5 -97t-57.5 -268q0 -164 57.5 -264.5t139.5 -95.5v-129z" />
    <glyph glyph-name="uni207E" unicode="&#x207e;" horiz-adv-x="468" 
d="M53 891v129q82 -5 140.5 95.5t58.5 264.5q0 166 -58.5 268t-140.5 97v131q158 7 253 -133.5t95 -362.5t-94.5 -359t-253.5 -130z" />
    <glyph glyph-name="colonmonetary" unicode="&#x20a1;" horiz-adv-x="1357" 
d="M770 311q84 3 157 47.5t120 116.5l241 -170q-86 -130 -231.5 -208.5t-311.5 -78.5q-41 0 -61 2l-53 -182l-101 29l50 172q-61 16 -115 39l-51 -176l-101 28l58 201q-136 89 -215.5 233.5t-79.5 313.5q0 130 51 249.5t137.5 207t206 141.5t252.5 59l63 221l103 -28
l-58 -199q54 -6 117 -26l56 190l102 -29l-59 -202q149 -77 241 -215l-241 -170q-33 53 -86 94zM551 373q54 -37 113 -49l202 698q-49 18 -106 18h-15zM397 678q0 -130 68 -223l166 565q-107 -38 -170.5 -128t-63.5 -214z" />
    <glyph glyph-name="lira" unicode="&#x20a4;" horiz-adv-x="1388" 
d="M811 743v-118h-657v118h135v164q0 208 119.5 328.5t314.5 120.5q81 0 149.5 -14.5t130.5 -50t105 -89.5t68.5 -138t25.5 -192h-305q0 201 -158 201q-66 0 -106.5 -48.5t-40.5 -123.5v-158h219zM1010 442h301v-163q0 -118 -81 -198.5t-190 -80.5h-956v258h205v135h-135
v119h657v-119h-219v-135h360q34 0 46 21t12 61v102z" />
    <glyph glyph-name="uni20A6" unicode="&#x20a6;" horiz-adv-x="1531" 
d="M1444 754h-146v-166h146v-125h-146v-463h-282l-275 463h-186v-463h-322v463h-145v125h145v166h-145v123h145v466h293l279 -466h172v466h321v-466h146v-123zM555 588h113l-99 166h-14v-166zM977 588v166h-100l98 -166h2z" />
    <glyph glyph-name="peseta" unicode="&#x20a7;" horiz-adv-x="3049" 
d="M745 1411q118 0 212 -40t150 -107t85 -148.5t29 -171.5q0 -91 -29 -172.5t-85.5 -148t-149.5 -105.5t-212 -39h-260v-479h-319v1411h579zM1829 1298v-344h201v-227h-201v-727h-303v727h-174v227h174v344h303zM731 760q84 0 125 54t41 130t-40.5 131t-123.5 55h-248v-370
h246zM2718 569q68 -19 118.5 -49t77 -59.5t42 -65.5t19 -59.5t3.5 -48.5q0 -76 -37 -136t-97.5 -96t-131.5 -54.5t-146 -18.5q-109 0 -202.5 37t-155.5 114.5t-66 181.5h293q0 -40 31.5 -71t91.5 -31q49 0 83 19.5t34 52.5q0 23 -20.5 36t-74.5 25l-124 33
q-58 16 -104.5 37.5t-76 43.5t-51 50t-32.5 50t-17 50t-7 45t-1 39q0 111 112 198t279 87q57 0 111 -10.5t106.5 -35t92 -60.5t63 -92.5t22.5 -125.5h-287q0 44 -28 67t-74 23q-41 0 -67.5 -16t-26.5 -45q0 -50 82 -70z" />
    <glyph glyph-name="uni20A8" unicode="&#x20a8;" horiz-adv-x="1304" 
d="M885 1223q109 -95 125 -283h229l-65 -123h-164q-14 -151 -89.5 -249.5t-205.5 -135.5l307 -432h-375l-268 414l-258 -2v278h401q137 0 162 127h-563v123h563q-23 123 -162 123h-401v280h1118l-65 -120h-289z" />
    <glyph glyph-name="uni20A9" unicode="&#x20a9;" horiz-adv-x="1959" 
d="M1872 1343l-154 -454h135v-125h-178l-69 -209h247v-125h-290l-146 -430h-252l-112 430h-148l-110 -430h-252l-146 430h-291v125h248l-69 209h-179v125h136l-154 454h348l139 -454h185l88 321h266l86 -321h184l140 454h348zM727 764h-113l60 -197zM1284 567l62 197h-113z
M938 555h82l-41 158z" />
    <glyph glyph-name="uni20AA" unicode="&#x20aa;" horiz-adv-x="1810" 
d="M162 0v1343h598q223 0 348 -117.5t125 -310.5v-411h-258v366q0 75 -55 127t-146 52h-311v-1049h-301zM1053 0q-223 0 -349 118t-126 310v412h258v-367q0 -75 54.5 -126.5t145.5 -51.5h314v1048h299v-1343h-596z" />
    <glyph glyph-name="dong" unicode="&#x20ab;" horiz-adv-x="1363" 
d="M1294 1335v-133h-164v-1118h-286v106q-49 -61 -132 -92.5t-163 -31.5q-90 0 -174 35t-148.5 97.5t-103.5 157.5t-39 207t39 207.5t103.5 158t148.5 97.5t174 35q81 0 163.5 -31.5t131.5 -93.5v266h-293v133h293v123h286v-123h164zM612 346q89 0 155.5 63t66.5 154
q0 90 -67 152.5t-155 62.5q-90 0 -154.5 -62.5t-64.5 -152.5t64.5 -153.5t154.5 -63.5zM207 -172v133h860v-133h-860z" />
    <glyph glyph-name="Euro" unicode="&#x20ac;" horiz-adv-x="1658" 
d="M1061 852v-131h-989v131h213q68 224 255 364t431 140q195 0 353.5 -83t250.5 -226l-266 -175q-53 85 -141.5 133t-196.5 48q-112 0 -200 -53.5t-140 -147.5h430zM1317 477l264 -174q-90 -150 -250.5 -235.5t-359.5 -85.5q-247 0 -435 143.5t-255 372.5h-209v133h989v-133
h-436q48 -101 139.5 -159t206.5 -58q108 0 200.5 53.5t145.5 142.5z" />
    <glyph glyph-name="uni20AE" unicode="&#x20ae;" horiz-adv-x="1202" 
d="M1139 1063h-373v-195l156 115v-145l-156 -115v-82l156 115v-144l-156 -114v-498h-324v262l-155 -115v144l155 115v81l-155 -114v145l155 115v430h-372v280h1069v-280z" />
    <glyph glyph-name="uni20B1" unicode="&#x20b1;" horiz-adv-x="1468" 
d="M1405 1006v-91h-158v-24q0 -27 -2 -41h160v-92h-174q-39 -138 -154.5 -220.5t-304.5 -82.5h-215v-455h-321v758h-146v92h146v65h-146v91h146v337h536q194 0 312 -94t151 -243h170zM557 1063v-57h326q-47 57 -148 57h-178zM924 883q0 22 -2 32h-365v-65h365q2 10 2 33z
M733 694q100 0 150 64h-326v-64h176z" />
    <glyph glyph-name="uni20B4" unicode="&#x20b4;" horiz-adv-x="1212" 
d="M938 836h149v-101h-962v101h432l61 51q50 43 70 68t19 49q0 22 -16.5 36.5t-45.5 14.5h-467v288h621q129 0 207.5 -65t78.5 -174q0 -72 -22 -117.5t-70 -97.5zM125 508v102h962v-102h-438l-59 -49q-48 -42 -68.5 -68t-19.5 -51q0 -20 16 -35.5t45 -15.5h496v-289h-649
q-129 0 -208 66.5t-79 173.5q0 73 21.5 119.5t68.5 95.5l55 53h-143z" />
    <glyph glyph-name="uni20BA" unicode="&#x20ba;" horiz-adv-x="1306" 
d="M946 762h291v-131q0 -286 -166 -458.5t-440 -172.5h-410v516l-123 -90v145l123 91v79l-123 -90v146l123 90v456h299v-237l211 156v-146l-211 -155v-80l211 155v-145l-211 -156v-440h84q155 0 248.5 103.5t93.5 275.5v88z" />
    <glyph glyph-name="uni20BD" unicode="&#x20bd;" horiz-adv-x="1331" 
d="M788 514h-217v-104h484v-170h-484v-240h-321v240h-148v170h148v104h-148v172h148v657h538q119 0 211 -33.5t148.5 -92t85.5 -134.5t29 -165q0 -185 -119 -294.5t-355 -109.5zM774 1063h-203v-309h203q166 0 166 157q0 152 -166 152z" />
    <glyph glyph-name="uni2113" unicode="&#x2113;" horiz-adv-x="825" 
d="M403 367h-26v-23q0 -58 25 -90.5t92 -32.5h194v-221h-258q-311 0 -311 352v723q0 355 311 355q305 0 305 -373v-379q0 -63 -6.5 -107t-27 -85t-56.5 -65.5t-96.5 -39t-145.5 -14.5zM430 1194q-29 0 -41 -18.5t-12 -61.5v-567h26q26 0 42 7.5t22.5 23t8 29t1.5 36.5v471
q0 43 -10.5 61.5t-36.5 18.5z" />
    <glyph glyph-name="uni2116" unicode="&#x2116;" horiz-adv-x="1980" 
d="M1634 881q-114 0 -192 78t-78 192t78 194t192 80t194.5 -80t80.5 -194t-80.5 -192t-194.5 -78zM911 610v801h322v-1411h-283l-463 811v-811h-321v1411h295zM1634 1274q-51 0 -84.5 -35.5t-33.5 -87.5q0 -51 33.5 -86t84.5 -35t87 35t36 86t-36 87t-87 36zM1374 657v131
h520v-131h-520z" />
    <glyph glyph-name="uni2117" unicode="&#x2117;" horiz-adv-x="1593" 
d="M795 1427q196 0 361 -97.5t260 -264t95 -363.5q0 -147 -56 -280.5t-151.5 -230.5t-228.5 -154t-280 -57t-279.5 57t-228 154t-151.5 230.5t-56 280.5q0 198 95 364.5t259.5 263.5t360.5 97zM795 106q121 0 230.5 47.5t188 127.5t124.5 190t46 231q0 163 -78 300.5
t-213.5 217.5t-297.5 80q-161 0 -297 -80.5t-214.5 -218t-78.5 -299.5t78.5 -299t214.5 -217t297 -80zM866 1049q117 0 178.5 -69t61.5 -167q0 -95 -62 -165t-178 -70h-121v-222h-167v693h288zM860 727q36 0 57 27t21 59t-20 58t-54 26h-119v-170h115z" />
    <glyph glyph-name="uni2120" unicode="&#x2120;" horiz-adv-x="1959" 
d="M489 1077q122 -36 185 -97.5t63 -164.5q0 -68 -27.5 -120t-73.5 -82t-99 -45t-111 -15q-142 0 -232 81.5t-90 207.5h228q4 -94 90 -94q40 0 62 15.5t22 41.5q0 24 -18.5 44t-51.5 30l-92 30q-233 66 -233 248q0 118 88 192t221 74q130 0 211.5 -77.5t81.5 -208.5h-232
q0 38 -18.5 62t-56.5 24q-28 0 -47 -16t-19 -40q0 -46 66 -63zM1849 565h-233l-43 408l-143 -301h-179l-145 297l-45 -404h-232l99 846h194l217 -471l215 471h197z" />
    <glyph glyph-name="trademark" unicode="&#x2122;" horiz-adv-x="1923" 
d="M68 1208v203h651v-203h-211v-643h-229v643h-211zM1804 565h-231l-45 410l-144 -303h-178l-145 303l-45 -410h-232l101 846h192l215 -471l215 471h197z" />
    <glyph glyph-name="estimated" unicode="&#x212e;" horiz-adv-x="1290" 
d="M651 -20q-122 0 -227 47.5t-176.5 128t-111.5 189t-40 228.5q0 164 66.5 298t196.5 215t300 81q127 0 233.5 -48t177.5 -129.5t110 -189.5t39 -229h-879v-395q135 -129 311 -129q67 0 124.5 14.5t99.5 36.5t81 58t66.5 70t58.5 81l64 -39q-43 -67 -87 -115.5t-103 -89.5
t-135 -62t-169 -21zM340 639h633v334q-59 54 -144 90.5t-170 36.5q-195 0 -319 -127v-334z" />
    <glyph glyph-name="oneeighth" unicode="&#x215b;" horiz-adv-x="1556" 
d="M1026 1366h182l-923 -1384h-185zM207 614v508l-158 -57v158l316 131h8v-740h-166zM1372 418q56 -24 89.5 -76.5t33.5 -120.5q0 -104 -81.5 -167.5t-211.5 -63.5q-131 0 -213 63.5t-82 165.5q0 69 34 122.5t91 76.5q-65 46 -65 125q0 87 65 140.5t170 53.5
q103 0 168.5 -53.5t65.5 -140.5q0 -77 -64 -125zM1200 598q-34 0 -55 -20t-21 -52q0 -31 21 -50t55 -19t56 19t22 50q0 32 -22 52t-56 20zM1202 141q52 0 84.5 28t32.5 73t-32 72.5t-85 27.5q-49 0 -79.5 -28t-30.5 -72q0 -45 30.5 -73t79.5 -28z" />
    <glyph glyph-name="threeeighths" unicode="&#x215c;" horiz-adv-x="1687" 
d="M1157 1366h182l-923 -1384h-185zM539 836q0 -103 -70.5 -167.5t-185.5 -64.5q-80 0 -147.5 35.5t-98.5 95.5l125 86q19 -28 49.5 -44.5t64.5 -16.5q43 0 69 21.5t26 56.5q0 43 -33 68.5t-88 25.5h-49v127h28q54 0 84.5 24t30.5 64q-1 28 -24.5 44.5t-51.5 16.5
q-61 0 -104 -43l-88 97q30 41 88.5 66.5t126.5 25.5q98 0 158.5 -55.5t60.5 -149.5q0 -99 -84 -145q53 -22 83 -66t30 -102zM1503 418q56 -24 89.5 -76.5t33.5 -120.5q0 -104 -81.5 -167.5t-211.5 -63.5q-131 0 -213 63.5t-82 165.5q0 69 34 122.5t91 76.5q-65 46 -65 125
q0 87 65 140.5t170 53.5q103 0 168.5 -53.5t65.5 -140.5q0 -77 -64 -125zM1331 598q-34 0 -55 -20t-21 -52q0 -31 21 -50t55 -19t56 19t22 50q0 32 -22 52t-56 20zM1333 141q52 0 84.5 28t32.5 73t-32 72.5t-85 27.5q-49 0 -79.5 -28t-30.5 -72q0 -45 30.5 -73t79.5 -28z
" />
    <glyph glyph-name="fiveeighths" unicode="&#x215d;" horiz-adv-x="1751" 
d="M1221 1366h182l-924 -1384h-184zM608 868q0 -119 -79.5 -191.5t-200.5 -72.5q-91 0 -165.5 45.5t-109.5 116.5l131 74q20 -35 55 -57.5t78 -22.5q55 0 89 29t34 75q0 51 -30.5 81t-81.5 30q-80 0 -148 -74l-106 74l63 371h424v-156h-287l-22 -111q47 37 121 37
q108 0 171.5 -68.5t63.5 -179.5zM1567 418q56 -24 89.5 -76.5t33.5 -120.5q0 -104 -81.5 -167.5t-211.5 -63.5q-131 0 -213 63.5t-82 165.5q0 69 34 122.5t91 76.5q-66 47 -66 125q0 87 65.5 140.5t170.5 53.5q103 0 168 -53.5t65 -140.5q0 -78 -63 -125zM1395 598
q-34 0 -55 -20t-21 -52q0 -31 21 -50t55 -19t56 19t22 50q0 32 -22 52t-56 20zM1397 141q52 0 84 28t32 73t-31.5 72.5t-84.5 27.5q-49 0 -80 -28t-31 -72t31 -72.5t80 -28.5z" />
    <glyph glyph-name="seveneighths" unicode="&#x215e;" horiz-adv-x="1693" 
d="M1161 1366h182l-923 -1384h-184zM301 614h-197l265 576h-287v153h547v-12zM1507 418q56 -24 89.5 -76.5t33.5 -120.5q0 -104 -81.5 -167.5t-211.5 -63.5q-131 0 -213 63.5t-82 165.5q0 69 34 122.5t91 76.5q-65 46 -65 125q0 87 65 140.5t170 53.5q103 0 168.5 -53.5
t65.5 -140.5q0 -77 -64 -125zM1335 598q-34 0 -54.5 -20t-20.5 -52q0 -31 20.5 -50t54.5 -19t56 19t22 50q0 32 -22 52t-56 20zM1337 141q52 0 84.5 28t32.5 73t-32 72.5t-85 27.5q-49 0 -79.5 -28t-30.5 -72q0 -45 30.5 -73t79.5 -28z" />
    <glyph glyph-name="arrowleft" unicode="&#x2190;" horiz-adv-x="1812" 
d="M1731 821v-227h-1233l317 -318l-160 -159l-592 594l592 594l160 -160l-323 -324h1239z" />
    <glyph glyph-name="arrowup" unicode="&#x2191;" horiz-adv-x="1284" 
d="M1237 864l-160 -159l-319 317v-1022h-228v1026l-321 -321l-160 159l594 592z" />
    <glyph glyph-name="arrowright" unicode="&#x2192;" horiz-adv-x="1812" 
d="M1157 1305l594 -594l-594 -594l-160 159l320 318h-1233v227h1239l-326 324z" />
    <glyph glyph-name="arrowdown" unicode="&#x2193;" horiz-adv-x="1280" 
d="M1075 682l160 -160l-594 -592l-594 592l160 160l321 -322v1051h228v-1046z" />
    <glyph glyph-name="arrowboth" unicode="&#x2194;" horiz-adv-x="2117" 
d="M1475 1335l591 -594l-591 -594l-160 160l323 324h-1159l324 -324l-160 -160l-592 594l592 594l160 -159l-318 -318h1147l-317 318z" />
    <glyph glyph-name="arrowupdn" unicode="&#x2195;" horiz-adv-x="1308" 
d="M766 164l324 321l159 -159l-594 -592l-594 592l160 159l318 -317v1147l-318 -318l-160 160l594 592l594 -592l-159 -160l-324 322v-1155z" />
    <glyph glyph-name="partialdiff" unicode="&#x2202;" horiz-adv-x="1204" 
d="M653 1362q106 3 189 -24.5t136 -76.5t88 -119t49 -149t13.5 -169.5t-13.5 -177.5t-36 -175q-57 -224 -208.5 -356.5t-350.5 -132.5q-157 0 -264 60t-151 162.5t-25 233.5q12 88 51 161.5t90 121t112.5 80.5t118 47t107.5 14q97 0 170.5 -34t116.5 -93q19 75 12.5 145.5
t-30 124.5t-76.5 86.5t-127 32.5zM748 434q9 66 -37 117t-123 51q-82 -1 -138.5 -52t-64.5 -118q-11 -72 34 -123t126 -51q80 0 137 51.5t66 124.5z" />
    <glyph glyph-name="emptyset" unicode="&#x2205;" horiz-adv-x="1636" 
d="M1550 1341l-176 -176q160 -200 160 -458q0 -197 -94.5 -363.5t-259.5 -264t-363 -97.5q-260 0 -459 168l-176 -177l-96 101l176 176q-158 202 -158 457q0 198 94 364.5t258 263.5t361 97q261 0 461 -166l174 174zM279 707q0 -186 108 -332l764 764q-144 116 -336 116
q-149 0 -272.5 -73.5t-193.5 -199t-70 -275.5zM1360 707q0 187 -111 333l-766 -766q143 -114 332 -114q150 0 276 73.5t198 199.5t71 274z" />
    <glyph glyph-name="product" unicode="&#x220f;" horiz-adv-x="1433" 
d="M1270 1411v-1718h-322v1431h-465v-1431h-321v1718h1108z" />
    <glyph glyph-name="summation" unicode="&#x2211;" horiz-adv-x="1351" 
d="M1270 1411v-287h-781l322 -567l-322 -575h781v-289h-1200v123l415 741l-415 733v121h1200z" />
    <glyph glyph-name="minus" unicode="&#x2212;" horiz-adv-x="1026" 
d="M125 424v219h774v-219h-774z" />
    <glyph glyph-name="radical" unicode="&#x221a;" horiz-adv-x="1374" 
d="M1145 1835h276l-655 -2142h-285l-268 848h-231v207h454l189 -644z" />
    <glyph glyph-name="infinity" unicode="&#x221e;" horiz-adv-x="1742" 
d="M1247 1004q176 0 290 -103.5t114 -282.5q0 -183 -113 -288t-291 -105q-132 0 -260 99l-119 100l-139 -119q-112 -80 -231 -80q-178 0 -292 105t-114 288q0 179 115 282.5t291 103.5q131 0 256 -97l118 -102l125 106q124 93 250 93zM489 514q79 0 158 57l62 45l-64 48
q-46 33 -81 43t-75 10q-19 0 -37.5 -5t-37 -16t-30.5 -31.5t-13 -48.5q1 -36 22 -60.5t45.5 -33t50.5 -8.5zM1255 514q41 0 78.5 25t38.5 77q-1 52 -38.5 76.5t-78.5 24.5t-76.5 -10t-82.5 -45l-62 -46l62 -45q78 -57 159 -57z" />
    <glyph glyph-name="integral" unicode="&#x222b;" horiz-adv-x="829" 
d="M649 1458h119v-278h-57q-108 0 -160 -51.5t-41 -137.5l117 -850q15 -106 -13.5 -192t-90 -141.5t-148.5 -85t-191 -29.5h-121v280h58q108 0 161 51t42 136l-117 837q-21 146 33.5 252t160.5 157.5t248 51.5z" />
    <glyph glyph-name="approxequal" unicode="&#x2248;" horiz-adv-x="1359" 
d="M1253 799q-55 -93 -143.5 -151t-191.5 -58q-30 0 -58.5 4t-58 14t-46 16.5t-48.5 21.5t-39 18q-6 3 -45 21t-56.5 25t-52.5 15t-68 8q-117 0 -227 -131l-110 139q60 88 147.5 145.5t192.5 57.5q39 0 79 -9t59 -16t61 -26.5t48 -22.5q9 -4 45 -21t54.5 -24.5t52.5 -15.5
t67 -8q110 0 213 131zM1257 362q-56 -96 -146.5 -154t-195.5 -58q-29 0 -56.5 4t-56.5 14t-45 16t-48 21t-39 18q-13 5 -46 20.5t-54.5 24.5t-57 17t-70.5 8q-114 0 -221 -133l-112 145q59 87 148 142t189 55q40 0 81.5 -9.5t58.5 -15t64 -27.5l48 -22q8 -3 56.5 -26.5
t83.5 -33.5t77 -10q126 0 224 134z" />
    <glyph glyph-name="notequal" unicode="&#x2260;" horiz-adv-x="1193" 
d="M276 111l105 211h-254v204h354l101 211h-455v205h557l92 193h146l-93 -193h240v-205h-340l-104 -211h444v-204h-545l-104 -211h-144z" />
    <glyph glyph-name="lessequal" unicode="&#x2264;" horiz-adv-x="1269" 
d="M1133 313l-1024 367v225l1024 367v-215l-730 -264l730 -263v-217zM111 0v195h1024v-195h-1024z" />
    <glyph glyph-name="greaterequal" unicode="&#x2265;" horiz-adv-x="1269" 
d="M135 313v217l731 263l-731 264v215l1026 -367v-225zM135 0v195h1024v-195h-1024z" />
    <glyph glyph-name="filledbox" unicode="&#x25a0;" horiz-adv-x="1429" 
d="M164 1264h1102v-1102h-1102v1102z" />
    <glyph glyph-name="uni25A1" unicode="&#x25a1;" horiz-adv-x="1306" 
d="M102 1264h1102v-1102h-1102v1102zM285 1081v-737h737v737h-737z" />
    <glyph glyph-name="triagup" unicode="&#x25b2;" horiz-adv-x="1595" 
d="M164 141l633 1096l635 -1098z" />
    <glyph glyph-name="uni25B6" unicode="&#x25b6;" horiz-adv-x="1425" 
d="M166 1378l1096 -633l-1098 -636z" />
    <glyph glyph-name="triagdn" unicode="&#x25bc;" horiz-adv-x="1595" 
d="M164 1235l1268 2l-635 -1098z" />
    <glyph glyph-name="uni25C0" unicode="&#x25c0;" horiz-adv-x="1425" 
d="M1260 1378l2 -1269l-1098 636z" />
    <glyph glyph-name="lozenge" unicode="&#x25ca;" horiz-adv-x="1228" 
d="M582 1454l456 -729l-456 -725h-41l-457 725l457 729h41zM782 725l-221 354l-223 -356l221 -354z" />
    <glyph glyph-name="circle" unicode="&#x25cb;" horiz-adv-x="1421" 
d="M1319 723q0 -165 -81.5 -305t-221.5 -221.5t-305 -81.5t-305.5 81.5t-222 221.5t-81.5 305t81.5 305t222 221.5t305.5 81.5t305 -81.5t221.5 -221.5t81.5 -305zM1137 723q0 175 -125.5 300.5t-300.5 125.5t-300.5 -125.5t-125.5 -300.5t125.5 -300.5t300.5 -125.5
t300.5 125.5t125.5 300.5z" />
    <glyph glyph-name="uni2605" unicode="&#x2605;" horiz-adv-x="1800" 
d="M1196 512l184 -563l-481 348l-479 -348l182 563l-479 350h594l182 565l184 -565h594z" />
    <glyph glyph-name="uni2610" unicode="&#x2610;" horiz-adv-x="1517" 
d="M760 -12q-135 0 -256.5 51.5t-209.5 139.5t-140 210t-52 256q0 133 52 254t140 208.5t210 139t256 51.5q133 0 254.5 -52t209 -139.5t139.5 -208t52 -253.5q0 -134 -52 -256t-139.5 -210t-209 -139.5t-254.5 -51.5zM760 186q192 0 324.5 133t132.5 326q0 191 -132.5 323
t-324.5 132q-194 0 -326.5 -131.5t-132.5 -323.5q0 -193 132.5 -326t326.5 -133z" />
    <glyph glyph-name="uni2611" unicode="&#x2611;" horiz-adv-x="1542" 
d="M1444 1384l-195 -311q160 -188 160 -428q0 -134 -52 -256t-140 -210t-210 -139.5t-255 -51.5q-178 0 -329.5 87.5t-240 239t-88.5 330.5q0 178 88.5 328.5t240 237.5t329.5 87q182 0 338 -94l184 291zM1210 645q0 138 -73 250l-359 -571h-57l-315 438l137 153l192 -270
l250 393q-108 62 -233 62q-194 0 -326.5 -131.5t-132.5 -323.5q0 -193 132.5 -326t326.5 -133q193 0 325.5 132.5t132.5 326.5z" />
    <glyph glyph-name="uni261C" unicode="&#x261c;" horiz-adv-x="2015" 
d="M55 940q3 63 43 100t111 37l709 -2l-46 96q-28 53 -12.5 113t53.5 82q31 17 57 23.5t58 2.5t66.5 -28.5t72.5 -69.5l361 -444v70q0 36 26 62t62 26h174q35 0 61.5 -27.5t26.5 -60.5v-832q0 -32 -27 -60t-61 -28h-174q-36 0 -62 26t-26 62v94h-793q-83 10 -122 47t-33 90
q6 39 32 62q-144 18 -129 149q7 34 23 56q-69 21 -99 56t-18 89q10 48 33 66l-213 4q-74 2 -115.5 37.5t-38.5 101.5zM215 887l582 -10q86 -1 128 -48t36 -116q-6 -58 -31 -74q64 -8 91.5 -45.5t27.5 -83.5q0 -75 -62 -102q38 -10 49 -59.5t-4 -80.5l496 -2l2 453l-428 508
q-6 6 -18.5 19t-18.5 18.5t-16 14.5t-16.5 12t-15.5 5.5t-18 0.5t-18 -7q-30 -17 -32.5 -45t11.5 -55.5t44 -69.5l202 -282q9 -13 6.5 -31.5t-14.5 -24.5q-18 -11 -37 -6t-31 23l-137 178l-778 6q-61 0 -61 -49q0 -47 61 -47zM522 674h275q62 0 69 51q5 31 -18 51.5
t-66 20.5l-235 -2q-40 0 -60.5 -17t-17.5 -55q3 -44 53 -49zM621 461l272 -4q29 0 47 14t18 41q0 70 -67 70l-260 -4q-31 0 -46 -13.5t-18 -42.5q-3 -55 54 -61zM733 274l160 -4q70 -3 70 41q0 29 -14.5 40.5t-51.5 13.5l-174 6q-51 3 -51 -41q0 -27 11.5 -41t49.5 -15z" />
    <glyph glyph-name="uni261E" unicode="&#x261e;" horiz-adv-x="2015" 
d="M1960 940q3 -66 -38.5 -101.5t-115.5 -37.5l-213 -4q23 -18 33 -66q12 -54 -18 -89t-99 -56q16 -22 23 -56q15 -131 -129 -149q27 -24 33 -62q6 -53 -33.5 -90t-122.5 -47h-793v-94q0 -36 -26 -62t-62 -26h-174q-34 0 -61 28t-27 60v832q0 33 26.5 60.5t61.5 27.5h174
q36 0 62 -26t26 -62v-70l361 444q38 45 72.5 69.5t66.5 28.5t58 -2.5t57 -23.5q38 -22 53.5 -82t-12.5 -113l-45 -96l708 2q71 0 111 -37t43 -100zM1800 887q62 0 62 47q0 49 -62 49l-778 -6q-112 -143 -137 -178q-12 -18 -31 -23t-37 6q-12 6 -14.5 24.5t6.5 31.5l203 282
q30 42 43.5 69.5t11 55.5t-32.5 45q-9 5 -18 7t-18 -0.5t-15.5 -5.5t-16.5 -12t-16 -14.5t-18.5 -18.5t-18.5 -19l-428 -508l2 -453l496 2q-15 31 -4 80.5t49 59.5q-28 12 -44.5 39t-16.5 63q0 47 27 84t91 45q-24 15 -30 74q-6 69 36 116t128 48zM1493 674q50 5 53 49
q3 38 -17.5 55t-60.5 17l-235 2q-43 0 -66 -20.5t-18 -51.5q7 -51 70 -51h274zM1395 461q56 6 53 61q-3 29 -18 42.5t-46 13.5l-260 4q-67 0 -67 -70q0 -27 18 -41t47 -14zM1282 274q38 1 49.5 15t11.5 41q0 44 -51 41l-174 -6q-37 -2 -51 -13.5t-14 -40.5q0 -44 69 -41z
" />
    <glyph glyph-name="diamond" unicode="&#x2666;" horiz-adv-x="1325" 
d="M662 -51l-498 747l498 748l499 -748z" />
    <glyph glyph-name="uni267C" unicode="&#x267c;" horiz-adv-x="1777" 
d="M889 -18q-196 0 -363 97t-264.5 264t-97.5 364q0 196 97.5 363t264.5 264.5t363 97.5q197 0 364 -97.5t264 -264.5t97 -363q0 -197 -97 -364t-264 -264t-364 -97zM723 831l145 256q18 18 31 -4l84 -141l-80 -49l264 2l129 229l-86 -51l-57 94q-16 26 -41 42.5t-42 20.5
l-17 3l-332 2q-39 -4 -68 -21.5t-38 -33.5l-9 -15l-117 -200zM1042 127v100l111 2q30 1 57 15t38 28l12 13l165 286q16 36 16 70t-8 50l-8 16l-116 198l-232 -131l148 -258q4 -9 -1.5 -15.5t-17.5 -6.5l-166 -2v94l-131 -230zM618 227h232l-2 267h-295q-11 2 -14.5 9.5
t2.5 18.5l82 146l82 -47l-136 227l-262 -2l86 -49l-53 -97q-15 -27 -16.5 -57t4.5 -47l6 -16l166 -287q24 -32 53.5 -48.5t46.5 -16.5z" />
    <glyph glyph-name="uni2713" unicode="&#x2713;" horiz-adv-x="1228" 
d="M1217 1454l169 -111l-667 -1060h-57l-314 438l135 153l193 -268z" />
    <glyph glyph-name="uni2B24" unicode="&#x2b24;" horiz-adv-x="1544" 
d="M1380 723q0 -165 -81.5 -305t-221.5 -221.5t-305 -81.5t-305 81.5t-221.5 221.5t-81.5 305t81.5 305t221.5 221.5t305 81.5t305 -81.5t221.5 -221.5t81.5 -305z" />
    <glyph glyph-name="uniF6DD" unicode="&#xf6dd;" horiz-adv-x="2539" 
d="M1214 944q0 -156 -84 -272t-247 -156l362 -516h-375l-323 496h-64v-496h-321v1411h575q119 0 213 -40t150 -107t85 -148.5t29 -171.5zM483 1130v-380h203q99 0 152 54.5t53 131.5t-52.5 135.5t-144.5 58.5h-211zM2015 979q90 0 173.5 -35t148.5 -98t104 -158t39 -207
t-39 -207t-103.5 -157.5t-148.5 -97.5t-174 -35q-82 0 -164 30.5t-131 91.5v-577h-303v1425h303v-100q49 62 131.5 93.5t163.5 31.5zM1950 264q91 0 156 62.5t65 154.5q0 90 -65 152.5t-156 62.5q-89 0 -154 -62t-65 -153q0 -92 65.5 -154.5t153.5 -62.5z" />
    <glyph glyph-name="centsuperior" unicode="&#xf6e0;" horiz-adv-x="612" 
d="M340 1227q36 0 66 16t45 43l114 -96q-64 -99 -194 -115v-125h-97v129q-98 20 -163.5 92t-65.5 175q0 105 65.5 176.5t163.5 91.5v131h97v-127q129 -12 196 -115l-116 -94q-33 57 -111 57q-55 0 -91 -34.5t-36 -85.5q0 -50 36 -84.5t91 -34.5z" />
    <glyph glyph-name="commasuperior" unicode="&#xf6e2;" horiz-adv-x="376" 
d="M133 918l-102 36q22 30 31.5 43t24 37.5t19 40.5t10 41t4.5 52.5t-5 62.5h161q13 -100 -26.5 -184t-116.5 -129z" />
    <glyph glyph-name="periodsuperior" unicode="&#xf6e8;" horiz-adv-x="346" 
d="M174 1073q-45 0 -76.5 29.5t-31.5 75.5q0 44 31.5 73t76.5 29q44 0 75.5 -29.5t31.5 -72.5q0 -46 -31.5 -75.5t-75.5 -29.5z" />
    <glyph glyph-name="uniF8FF" unicode="&#xf8ff;" horiz-adv-x="2009" 
d="M164 0v1434h1681v-1434h-1681zM1067 752q25 0 33 14h2l4 -12h16v149h-22v-39q0 -10 2 -18h-2q-10 16 -31 16q-22 0 -33 -14q-10 -17 -10 -41t10 -41q11 -14 31 -14zM1378 889q0 -6 2 -10q2 -2 11 -2q8 0 10 2q2 4 2 10t-2 10q-2 2 -10 2q-9 0 -11 -2q-2 -4 -2 -10z
M412 754l41 116h2q0 -8 -2 -20v-96h22v141h-33l-41 -113l-39 113h-32v-141h20v67q0 33 -2 51h2l41 -118h21zM780 770q-8 0 -10 4q-4 2 -4 12v58h31v16h-31v25h-14l-9 -23l-16 -8v-10h16v-60q0 -32 31 -32h12q2 1 6 2t5 2v16q-4 -2 -17 -2zM610 807q0 24 -14 41
q-11 14 -37 14q-25 0 -39 -14q-12 -15 -12 -41q0 -17 6 -29q6 -14 18 -20q9 -6 27 -6q26 0 37 14q14 18 14 41zM713 784q0 5 -4 13q-1 2 -9 10q-13 7 -20 8q-5 2 -21 10q-4 4 -4 9q0 10 19 10q10 0 28 -6l9 16q-16 8 -37 8q-20 0 -31 -8q-10 -7 -10 -20t6 -19q5 -7 25 -14
l16 -8q6 0 6 -5q4 -4 4 -8q0 -12 -22 -12q-11 0 -35 8v-18q12 -6 35 -6q21 0 32 8q13 10 13 24zM905 754v71q0 21 -10 29q-8 8 -31 8q-12 0 -18 -2q-14 -4 -21 -8l9 -16q6 6 14 6q6 2 16 2q13 0 15 -4q4 -4 4 -17v-4l-19 -2q-26 0 -37 -8q-12 -9 -12 -25t8 -24t25 -8
q16 0 20 2q9 6 17 14l6 -14h14zM997 862q-12 0 -18 -6q-12 -8 -14 -14h-2l-2 18h-19v-106h23v55q0 10 8 22q11 11 22 11q7 0 11 -2l2 22h-11zM1206 752h21l16 6v18l-18 -6q-2 0 -8 -1t-9 -1q-15 0 -22 10q-8 5 -8 23h71v12q0 25 -12 37t-35 12q-24 0 -35 -14
q-14 -14 -14 -43q0 -25 14 -39t39 -14zM1350 784q0 9 -2 13q-1 2 -9 10q-13 7 -20 8q-5 2 -21 10q-4 4 -4 9q0 10 19 10q10 0 28 -6l9 16q-16 8 -37 8q-20 0 -31 -8q-10 -7 -10 -20t6 -19q5 -7 25 -14l16 -8q6 0 6 -5q2 -2 2 -8q0 -12 -20 -12q-11 0 -35 8v-18q12 -6 35 -6
q21 0 32 8t11 24zM1493 860q-1 0 -3.5 1t-4.5 1h-10q-21 0 -31 -10q-12 -9 -12 -27q0 -12 6 -18q6 -9 14 -12q-2 -1 -10 -9q-4 -4 -4 -10l2 -8q3 -6 8 -6q-8 -2 -16 -10q-7 -7 -7 -17q0 -14 11 -22q16 -8 34 -8q26 0 43 10q15 9 15 28q0 15 -8 23q-9 6 -29 6h-18q-3 0 -8 1
l-5 1q-4 4 -4 6q0 7 8 11h11q19 0 30 8q13 10 13 26q0 2 -1 6t-1 5q-3 6 -5 8l19 4v12h-37zM1649 823q0 39 -39 39q-9 0 -21 -4q-8 -3 -14 -12l-4 14h-19v-106h25v53q0 20 6 29q5 8 21 8q10 0 16 -6q4 -4 4 -19v-65h25v69zM1403 860h-25v-106h25v106zM1454 825q0 11 6 17
q3 6 15 6q11 0 14 -6q6 -6 6 -17q0 -20 -20 -20q-7 0 -15 4q-6 6 -6 16zM1202 846q9 0 17 -8t8 -21h-49q0 16 8 21q8 8 16 8zM530 807q0 18 9 27q7 10 20 10q27 0 27 -37t-27 -37q-29 0 -29 37zM1073 770q-13 0 -18 8q-6 9 -6 29q0 18 6 27q7 10 18 10q16 0 21 -8
q8 -8 8 -29v-4q0 -20 -8 -25q-5 -8 -21 -8zM856 768q-8 0 -12 4q-4 2 -4 12q0 9 6 15q12 4 24 4l13 2v-10q0 -13 -6 -19q-8 -8 -21 -8zM1446 735q0 11 4 15q8 4 16 4h17q14 0 18 -4q6 -3 6 -11q0 -9 -10 -12q-9 -6 -27 -6q-10 0 -18 4q-6 3 -6 10zM1391 512q20 0 30 16h2
l4 -14h17v152h-23v-39q0 -1 1 -8t1 -11q-12 15 -32 15q-21 0 -33 -15q-10 -17 -10 -41t10 -41q11 -14 33 -14zM379 637h43v18h-107v-18h41v-123h23v123zM883 573h53v19h-53v45h57v18h-80v-141h23v59zM471 514l-4 -10q-6 -19 -23 -19h-12v-16q6 -2 14 -2q32 0 43 33l46 123
h-25q-6 -20 -11.5 -36.5t-9.5 -26.5l-4 -11q-2 -4 -2 -12h-2q0 12 -6 24l-22 62h-25zM610 512q17 0 31 14q12 15 12 41q0 29 -12 41q-9 15 -31 15q-21 0 -32 -17l-5 17h-18v-156h23v59q11 -14 32 -14zM731 512q13 0 19 2q10 0 16 6v19q-10 -7 -16 -7q-6 -2 -19 -2t-22 9
q-9 13 -9 24h72v12q0 23 -12 35q-13 13 -33 13q-25 0 -37 -15t-12 -41t12 -41q14 -14 41 -14zM1063 567q0 27 -14 41q-12 15 -37 15t-37 -15q-14 -11 -14 -41q0 -16 6 -28t18 -21q12 -6 27 -6q23 0 37 14t14 41zM1186 514v109h-23v-56q0 -19 -6 -28q-9 -9 -20 -9
q-10 0 -17 7q-6 6 -6 18v68h-22v-72q0 -19 10 -29t28 -10q9 0 21 4q11 7 14 12l4 -14h17zM1317 584q0 39 -37 39q-12 0 -20 -5q-8 -2 -15 -10l-4 15h-18v-109h22v53q0 17 8 29q5 8 21 8q10 0 16 -6q4 -8 4 -18v-66h23v70zM1536 623q-10 0 -18 -5t-15 -16l-4 21h-18v-109h22
v55q0 15 10 25q5 8 21 8h10l2 21h-10zM1597 514l-4 -10q-6 -19 -22 -19h-12v-16q6 -2 14 -2q32 0 43 33l45 123h-25q-9 -30 -24 -74q-2 -4 -2 -12h-2q0 12 -6 24l-23 62h-25zM727 606q10 0 16 -6q7 -10 7 -20h-50q3 10 9 20q6 6 18 6zM604 604q14 0 19 -8q6 -9 6 -29
q0 -17 -6 -26q-7 -11 -19 -11q-13 0 -20 11q-6 6 -6 26v4q0 19 6 25q5 8 20 8zM985 567q0 20 6 29q5 8 21 8q26 0 26 -37t-26 -37q-27 0 -27 37zM1397 530q-14 0 -21 11q-6 9 -6 26t6 29q8 8 19 8q14 0 22 -8q6 -9 6 -29v-2q0 -17 -6 -26q-9 -9 -20 -9z" />
    <glyph glyph-name="IJ.alt" horiz-adv-x="1540" 
d="M162 0v1411h321v-1411h-321zM922 -18q-113 0 -217 36l28 289q60 -22 189 -22q74 0 109.5 49.5t35.5 128.5v948h322v-948q0 -101 -25.5 -185.5t-79 -152t-146 -105.5t-216.5 -38z" />
    <glyph glyph-name="J.alt" horiz-adv-x="864" 
d="M246 -18q-110 0 -217 36l28 289q63 -22 189 -22q74 0 110.5 49.5t36.5 128.5v948h322v-948q0 -80 -15.5 -150t-51 -131.5t-89 -105t-133.5 -69t-180 -25.5z" />
    <glyph glyph-name="Jcircumflex.alt" horiz-adv-x="864" 
d="M178 1577l223 350h304l225 -350h-215l-162 182l-162 -182h-213zM246 -18q-110 0 -217 36l28 289q63 -22 189 -22q74 0 110.5 49.5t36.5 128.5v948h322v-948q0 -80 -15.5 -150t-51 -131.5t-89 -105t-133.5 -69t-180 -25.5z" />
    <glyph glyph-name="W.alt" horiz-adv-x="1875" 
d="M1487 1411h364l-415 -1411h-269l-227 827l-229 -827h-269l-417 1411h364l205 -793l211 746h266l211 -746z" />
    <glyph glyph-name="Wacute.alt" horiz-adv-x="1875" 
d="M1319 1927l-279 -350h-206l192 350h293zM1487 1411h364l-415 -1411h-269l-227 827l-229 -827h-269l-417 1411h364l205 -793l211 746h266l211 -746z" />
    <glyph glyph-name="Wcircumflex.alt" horiz-adv-x="1875" 
d="M938 1759l-162 -182h-213l223 350h301l226 -350h-213zM1487 1411h364l-415 -1411h-269l-227 827l-229 -827h-269l-417 1411h364l205 -793l211 746h266l211 -746z" />
    <glyph glyph-name="Wdieresis.alt" horiz-adv-x="1875" 
d="M721 1614q-64 0 -109 42t-45 103q0 60 45.5 102t108.5 42t106 -42t43 -102q0 -61 -43 -103t-106 -42zM1161 1614q-65 0 -110 42t-45 103q0 60 45 102t110 42q62 0 105 -42t43 -102q0 -61 -43 -103t-105 -42zM1487 1411h364l-415 -1411h-269l-227 827l-229 -827h-269
l-417 1411h364l205 -793l211 746h266l211 -746z" />
    <glyph glyph-name="Wgrave.alt" horiz-adv-x="1875" 
d="M1051 1577h-207l-277 350h293zM1487 1411h364l-415 -1411h-269l-227 827l-229 -827h-269l-417 1411h364l205 -793l211 746h266l211 -746z" />
    <glyph glyph-name="A.c2sc" horiz-adv-x="1232" 
d="M915 0l-88 270h-419l-86 -270h-326l455 1194h331l453 -1194h-320zM492 532h249l-127 386z" />
    <glyph glyph-name="Aacute.c2sc" horiz-adv-x="1232" 
d="M952 1645l-247 -306h-187l168 306h266zM915 0l-88 270h-419l-86 -270h-326l455 1194h331l453 -1194h-320zM492 532h249l-127 386z" />
    <glyph glyph-name="Abreve.c2sc" horiz-adv-x="1232" 
d="M616 1366q-117 0 -180 67.5t-63 161.5h159q0 -45 19 -65.5t65 -20.5q82 0 82 86h164q0 -101 -69 -165t-177 -64zM915 0l-88 270h-419l-86 -270h-326l455 1194h331l453 -1194h-320zM492 532h249l-127 386z" />
    <glyph glyph-name="uni01CD.c2sc" horiz-adv-x="1232" 
d="M756 1339h-283l-197 306h195l143 -156l144 156h196zM915 0l-88 270h-419l-86 -270h-326l455 1194h331l453 -1194h-320zM492 532h249l-127 386z" />
    <glyph glyph-name="Acircumflex.c2sc" horiz-adv-x="1232" 
d="M614 1495l-143 -156h-195l197 306h283l198 -306h-196zM915 0l-88 270h-419l-86 -270h-326l455 1194h331l453 -1194h-320zM492 532h249l-127 386z" />
    <glyph glyph-name="Adieresis.c2sc" horiz-adv-x="1232" 
d="M422 1374q-57 0 -97 37.5t-40 91.5t40 91.5t97 37.5q58 0 96.5 -37.5t38.5 -91.5t-38.5 -91.5t-96.5 -37.5zM815 1374q-59 0 -100 37.5t-41 91.5t41 91.5t100 37.5q56 0 94.5 -37.5t38.5 -91.5t-38.5 -91.5t-94.5 -37.5zM915 0l-88 270h-419l-86 -270h-326l455 1194h331
l453 -1194h-320zM492 532h249l-127 386z" />
    <glyph glyph-name="Agrave.c2sc" horiz-adv-x="1232" 
d="M721 1339h-186l-248 306h266zM915 0l-88 270h-419l-86 -270h-326l455 1194h331l453 -1194h-320zM492 532h249l-127 386z" />
    <glyph glyph-name="Amacron.c2sc" horiz-adv-x="1232" 
d="M877 1556v-153h-521v153h521zM915 0l-88 270h-419l-86 -270h-326l455 1194h331l453 -1194h-320zM492 532h249l-127 386z" />
    <glyph glyph-name="Aogonek.c2sc" horiz-adv-x="1232" 
d="M997 -250q39 0 52.5 22t13.5 64h135q0 -106 -60.5 -158.5t-146.5 -52.5q-75 0 -130.5 52.5t-55.5 127.5q0 56 20 91l80 137l-78 237h-419l-86 -270h-326l455 1194h331l453 -1194h-211l-78 -150q-6 -12 -6 -40t16.5 -44t40.5 -16zM492 532h249l-127 386z" />
    <glyph glyph-name="Aring.c2sc" horiz-adv-x="1232" 
d="M614 1313q-96 0 -164.5 65t-68.5 160q0 93 68.5 159t164.5 66q97 0 167.5 -66t70.5 -159q0 -94 -70 -159.5t-168 -65.5zM614 1657q-48 0 -84 -35t-36 -84q0 -51 35.5 -85t84.5 -34q52 0 89.5 34t37.5 85q0 49 -38 84t-89 35zM915 0l-88 270h-419l-86 -270h-326l455 1194
h331l453 -1194h-320zM492 532h249l-127 386z" />
    <glyph glyph-name="Aringacute.c2sc" horiz-adv-x="1232" 
d="M614 1313q-96 0 -164.5 65t-68.5 160q0 69 39.5 125.5t103.5 83.5l99 170h268l-166 -180q57 -28 92 -82t35 -117q0 -94 -70 -159.5t-168 -65.5zM614 1419q52 0 89.5 34t37.5 85q0 49 -38 84t-89 35q-48 0 -84 -35t-36 -84q0 -51 35.5 -85t84.5 -34zM915 0l-88 270h-419
l-86 -270h-326l455 1194h331l453 -1194h-320zM492 532h249l-127 386z" />
    <glyph glyph-name="Atilde.c2sc" horiz-adv-x="1232" 
d="M539 1448q-13 0 -29.5 -19t-17.5 -55h-136q5 116 60.5 172t122.5 56q32 0 61.5 -18t53 -36t40.5 -18q14 0 29.5 18t15.5 54h135q-2 -61 -20 -107t-45.5 -70t-56.5 -35.5t-58 -11.5q-39 0 -89 35t-66 35zM915 0l-88 270h-419l-86 -270h-326l455 1194h331l453 -1194h-320z
M492 532h249l-127 386z" />
    <glyph glyph-name="AE.c2sc" horiz-adv-x="1714" 
d="M1098 264h518v-264h-821v260h-336l-123 -260h-367l625 1194h1005v-264h-501v-213h440v-254h-440v-199zM584 520h209v410h-15z" />
    <glyph glyph-name="AEacute.c2sc" horiz-adv-x="1714" 
d="M1198 1645l-248 -306h-186l168 306h266zM1098 264h518v-264h-821v260h-336l-123 -260h-367l625 1194h1005v-264h-501v-213h440v-254h-440v-199zM584 520h209v410h-15z" />
    <glyph glyph-name="B.c2sc" horiz-adv-x="1185" 
d="M864 637q79 -11 134.5 -55.5t80.5 -105t25 -130.5q0 -51 -13 -98.5t-44.5 -93t-77.5 -79.5t-117.5 -54.5t-159.5 -20.5h-540v1194h505q170 0 275.5 -88t105.5 -221q0 -32 -7.5 -65.5t-25.5 -70t-54 -67t-87 -45.5zM635 930h-180v-193h178q46 0 74 24t28 70
q0 42 -24.5 70.5t-75.5 28.5zM659 262q65 0 101.5 35t36.5 80q0 44 -35.5 78t-104.5 34h-202v-227h204z" />
    <glyph glyph-name="C.c2sc" horiz-adv-x="1292" 
d="M709 -12q-171 0 -316 81.5t-229 222.5t-84 308q0 165 84 305.5t229 222.5t316 82q163 0 303.5 -76t226.5 -206l-238 -162q-97 156 -278 156q-148 0 -243 -92t-95 -230t93.5 -232t244.5 -94q181 0 278 156l238 -162q-86 -128 -226.5 -204t-303.5 -76z" />
    <glyph glyph-name="Cacute.c2sc" horiz-adv-x="1292" 
d="M549 1339l168 306h266l-248 -306h-186zM709 -12q-171 0 -316 81.5t-229 222.5t-84 308q0 165 84 305.5t229 222.5t316 82q163 0 303.5 -76t226.5 -206l-238 -162q-97 156 -278 156q-148 0 -243 -92t-95 -230t93.5 -232t244.5 -94q181 0 278 156l238 -162
q-86 -128 -226.5 -204t-303.5 -76z" />
    <glyph glyph-name="Ccaron.c2sc" horiz-adv-x="1292" 
d="M561 1339l-196 306h194l143 -156l144 156h196l-198 -306h-283zM709 -12q-171 0 -316 81.5t-229 222.5t-84 308q0 165 84 305.5t229 222.5t316 82q163 0 303.5 -76t226.5 -206l-238 -162q-97 156 -278 156q-148 0 -243 -92t-95 -230t93.5 -232t244.5 -94q181 0 278 156
l238 -162q-86 -128 -226.5 -204t-303.5 -76z" />
    <glyph glyph-name="Ccedilla.c2sc" horiz-adv-x="1292" 
d="M723 274q181 0 278 156l238 -162q-77 -117 -201 -191t-270 -87l55 -94q19 -37 19 -91q0 -75 -56 -127.5t-131 -52.5q-85 0 -144.5 52.5t-59.5 158.5h135q0 -43 12.5 -64.5t50.5 -21.5q25 0 43.5 16t18.5 44q0 22 -9 40l-75 142q-233 29 -390 202t-157 406q0 165 84 305.5
t229 222.5t316 82q163 0 303.5 -76t226.5 -206l-238 -162q-97 156 -278 156q-148 0 -243 -92t-95 -230t93.5 -232t244.5 -94z" />
    <glyph glyph-name="Cdotaccent.c2sc" horiz-adv-x="1292" 
d="M709 1354q-65 0 -108.5 40.5t-43.5 104.5q0 61 43.5 101t108.5 40q62 0 105.5 -40t43.5 -101q0 -63 -43 -104t-106 -41zM709 -12q-171 0 -316 81.5t-229 222.5t-84 308q0 165 84 305.5t229 222.5t316 82q163 0 303.5 -76t226.5 -206l-238 -162q-97 156 -278 156
q-148 0 -243 -92t-95 -230t93.5 -232t244.5 -94q181 0 278 156l238 -162q-86 -128 -226.5 -204t-303.5 -76z" />
    <glyph glyph-name="D.c2sc" horiz-adv-x="1292" 
d="M152 0v1194h489q174 0 303.5 -79.5t195.5 -214.5t66 -306q0 -170 -66 -303.5t-195.5 -212t-303.5 -78.5h-489zM455 262h186q82 0 143 49t89 123t28 160q0 64 -17 123.5t-48.5 107.5t-82 76.5t-112.5 28.5h-186v-668z" />
    <glyph glyph-name="Eth.c2sc" horiz-adv-x="1318" 
d="M668 1194q175 0 304 -79.5t194 -214.5t65 -306q0 -170 -65 -303.5t-194 -212t-304 -78.5h-490v477h-135v221h135v496h490zM668 262q82 0 142.5 49t88 123t27.5 160q0 87 -27.5 161.5t-88 124.5t-142.5 50h-187v-232h187v-221h-187v-215h187z" />
    <glyph glyph-name="Dcaron.c2sc" horiz-adv-x="1292" 
d="M449 1339l-195 306h192l144 -156l145 156h195l-199 -306h-282zM152 0v1194h489q174 0 303.5 -79.5t195.5 -214.5t66 -306q0 -170 -66 -303.5t-195.5 -212t-303.5 -78.5h-489zM455 262h186q82 0 143 49t89 123t28 160q0 64 -17 123.5t-48.5 107.5t-82 76.5t-112.5 28.5
h-186v-668z" />
    <glyph glyph-name="Dcroat.c2sc" horiz-adv-x="1318" 
d="M668 1194q175 0 304 -79.5t194 -214.5t65 -306q0 -170 -65 -303.5t-194 -212t-304 -78.5h-490v477h-135v221h135v496h490zM668 262q82 0 142.5 49t88 123t27.5 160q0 87 -27.5 161.5t-88 124.5t-142.5 50h-187v-232h187v-221h-187v-215h187z" />
    <glyph glyph-name="E.c2sc" horiz-adv-x="1073" 
d="M455 262h518v-262h-821v1194h804v-264h-501v-207h442v-270h-442v-191z" />
    <glyph glyph-name="Eacute.c2sc" horiz-adv-x="1073" 
d="M874 1645l-249 -306h-185l166 306h268zM455 262h518v-262h-821v1194h804v-264h-501v-207h442v-270h-442v-191z" />
    <glyph glyph-name="Ecaron.c2sc" horiz-adv-x="1073" 
d="M678 1339h-283l-196 306h192l146 -156l143 156h197zM455 262h518v-262h-821v1194h804v-264h-501v-207h442v-270h-442v-191z" />
    <glyph glyph-name="Ecircumflex.c2sc" horiz-adv-x="1073" 
d="M537 1495l-146 -156h-192l196 306h283l199 -306h-197zM455 262h518v-262h-821v1194h804v-264h-501v-207h442v-270h-442v-191z" />
    <glyph glyph-name="Edieresis.c2sc" horiz-adv-x="1073" 
d="M342 1374q-56 0 -97.5 38t-41.5 91t41.5 91t97.5 38q57 0 97 -37.5t40 -91.5t-40 -91.5t-97 -37.5zM737 1374q-59 0 -100 37.5t-41 91.5t41 91.5t100 37.5q55 0 93 -37.5t38 -91.5t-38 -91.5t-93 -37.5zM455 262h518v-262h-821v1194h804v-264h-501v-207h442v-270h-442
v-191z" />
    <glyph glyph-name="Edotaccent.c2sc" horiz-adv-x="1073" 
d="M539 1354q-65 0 -108.5 40.5t-43.5 104.5q0 61 43.5 101t108.5 40q62 0 105.5 -40t43.5 -101q0 -63 -43 -104t-106 -41zM455 262h518v-262h-821v1194h804v-264h-501v-207h442v-270h-442v-191z" />
    <glyph glyph-name="Egrave.c2sc" horiz-adv-x="1073" 
d="M641 1339h-184l-250 306h266zM455 262h518v-262h-821v1194h804v-264h-501v-207h442v-270h-442v-191z" />
    <glyph glyph-name="Emacron.c2sc" horiz-adv-x="1073" 
d="M797 1556v-153h-518v153h518zM455 262h518v-262h-821v1194h804v-264h-501v-207h442v-270h-442v-191z" />
    <glyph glyph-name="Eogonek.c2sc" horiz-adv-x="1073" 
d="M782 0l-80 -150q-6 -12 -6 -40t17.5 -44t40.5 -16q39 0 52 21.5t13 64.5h135q0 -106 -60 -158.5t-144 -52.5q-75 0 -131 52.5t-56 127.5q0 59 21 91l61 104h-493v1194h804v-264h-501v-207h442v-270h-442v-191h518v-262h-191z" />
    <glyph glyph-name="F.c2sc" horiz-adv-x="1015" 
d="M946 930h-491v-213h389v-260h-389v-457h-303v1194h794v-264z" />
    <glyph glyph-name="G.c2sc" horiz-adv-x="1382" 
d="M717 -14q-175 0 -321.5 82t-231 222t-84.5 306q0 168 84.5 309t231 223t321.5 82q149 0 275 -58.5t210 -160.5l-225 -186q-104 123 -260 123q-139 0 -235.5 -97t-96.5 -235q0 -136 97.5 -240t234.5 -104q100 0 170.5 31t99.5 90q7 12 10 28h-346v242h676
q0 -170 -45 -297.5t-127 -205.5t-192 -116t-246 -38z" />
    <glyph glyph-name="Gbreve.c2sc" horiz-adv-x="1382" 
d="M690 1366q-116 0 -181 68t-65 161h162q0 -45 19 -65.5t65 -20.5q80 0 80 86h164q0 -101 -69 -165t-175 -64zM717 -14q-175 0 -321.5 82t-231 222t-84.5 306q0 168 84.5 309t231 223t321.5 82q149 0 275 -58.5t210 -160.5l-225 -186q-104 123 -260 123q-139 0 -235.5 -97
t-96.5 -235q0 -136 97.5 -240t234.5 -104q100 0 170.5 31t99.5 90q7 12 10 28h-346v242h676q0 -170 -45 -297.5t-127 -205.5t-192 -116t-246 -38z" />
    <glyph glyph-name="Gcommaaccent.c2sc" horiz-adv-x="1382" 
d="M717 -14q-175 0 -321.5 82t-231 222t-84.5 306q0 168 84.5 309t231 223t321.5 82q149 0 275 -58.5t210 -160.5l-225 -186q-104 123 -260 123q-139 0 -235.5 -97t-96.5 -235q0 -136 97.5 -240t234.5 -104q100 0 170.5 31t99.5 90q7 12 10 28h-346v242h676
q0 -170 -45 -297.5t-127 -205.5t-192 -116t-246 -38zM604 -414l-131 76q78 75 82 270h260q0 -89 -63 -187t-148 -159z" />
    <glyph glyph-name="Gdotaccent.c2sc" horiz-adv-x="1382" 
d="M690 1354q-65 0 -107 40.5t-42 104.5q0 61 42 101t107 40q64 0 107 -40t43 -101q0 -64 -43 -104.5t-107 -40.5zM717 -14q-175 0 -321.5 82t-231 222t-84.5 306q0 168 84.5 309t231 223t321.5 82q149 0 275 -58.5t210 -160.5l-225 -186q-104 123 -260 123
q-139 0 -235.5 -97t-96.5 -235q0 -136 97.5 -240t234.5 -104q100 0 170.5 31t99.5 90q7 12 10 28h-346v242h676q0 -170 -45 -297.5t-127 -205.5t-192 -116t-246 -38z" />
    <glyph glyph-name="H.c2sc" horiz-adv-x="1282" 
d="M827 1194h303v-1194h-303v457h-372v-457h-303v1194h303v-465h372v465z" />
    <glyph glyph-name="Hbar.c2sc" horiz-adv-x="1323" 
d="M1286 1028v-143h-135v-885h-303v457h-373v-457h-303v885h-135v143h135v166h303v-166h373v166h303v-166h135zM848 729v156h-373v-156h373z" />
    <glyph glyph-name="I.c2sc" horiz-adv-x="606" 
d="M152 0v1194h303v-1194h-303z" />
    <glyph glyph-name="IJ.c2sc" horiz-adv-x="1187" 
d="M152 0v1194h303v-1194h-303zM618 -412q-31 0 -89.5 9t-108.5 26l26 273q61 -23 172 -23q57 0 86 36t29 93v1192h303v-1192q0 -87 -23 -159.5t-71 -130.5t-130.5 -91t-193.5 -33z" />
    <glyph glyph-name="Iacute.c2sc" horiz-adv-x="606" 
d="M207 1339l166 306h268l-248 -306h-186zM152 0v1194h303v-1194h-303z" />
    <glyph glyph-name="uni01CF.c2sc" horiz-adv-x="606" 
d="M162 1339l-197 306h193l145 -156l143 156h197l-199 -306h-282zM152 0v1194h303v-1194h-303z" />
    <glyph glyph-name="Icircumflex.c2sc" horiz-adv-x="606" 
d="M-35 1339l197 306h282l199 -306h-197l-143 156l-145 -156h-193zM152 0v1194h303v-1194h-303z" />
    <glyph glyph-name="Idieresis.c2sc" horiz-adv-x="606" 
d="M109 1374q-56 0 -97 37.5t-41 91.5t41 91.5t97 37.5q57 0 97 -37.5t40 -91.5t-40 -91.5t-97 -37.5zM502 1374q-59 0 -99.5 37.5t-40.5 91.5t40.5 91.5t99.5 37.5q56 0 94.5 -37.5t38.5 -91.5t-38.5 -91.5t-94.5 -37.5zM152 0v1194h303v-1194h-303z" />
    <glyph glyph-name="Idotaccent.c2sc" horiz-adv-x="606" 
d="M305 1354q-65 0 -108 40.5t-43 104.5q0 61 43 101t108 40q62 0 106 -40t44 -101q0 -63 -43.5 -104t-106.5 -41zM152 0v1194h303v-1194h-303z" />
    <glyph glyph-name="Igrave.c2sc" horiz-adv-x="606" 
d="M223 1339l-250 306h269l166 -306h-185zM152 0v1194h303v-1194h-303z" />
    <glyph glyph-name="Imacron.c2sc" horiz-adv-x="606" 
d="M45 1403v153h518v-153h-518zM152 0v1194h303v-1194h-303z" />
    <glyph glyph-name="Iogonek.c2sc" horiz-adv-x="608" 
d="M326 -164h135q0 -106 -60 -158.5t-145 -52.5q-75 0 -130.5 52.5t-55.5 127.5q0 58 18 91l64 110l2 1188h303v-1194h-170l-78 -150q-6 -18 -6 -40q0 -28 17 -44t40 -16q39 0 52.5 22t13.5 64z" />
    <glyph glyph-name="Itilde.c2sc" horiz-adv-x="606" 
d="M43 1374q3 61 21 107t45 71.5t57 37.5t61 12q32 0 61 -18t53 -36t42 -18q13 0 29.5 18t17.5 54h133q-2 -61 -20.5 -107t-46 -70t-56 -35.5t-57.5 -11.5q-31 0 -61.5 17.5t-55 35t-39.5 17.5q-14 0 -30 -18.5t-17 -55.5h-137zM152 0v1194h303v-1194h-303z" />
    <glyph glyph-name="J.c2sc" horiz-adv-x="622" 
d="M57 -412q-33 0 -92.5 9t-109.5 26l28 273q61 -23 174 -23q56 0 83.5 35.5t27.5 93.5v1192h303v-1192q0 -87 -22.5 -159.5t-70 -130.5t-129.5 -91t-192 -33z" />
    <glyph glyph-name="Jcircumflex.c2sc" horiz-adv-x="622" 
d="M-16 1339l194 306h283l198 -306h-194l-143 156l-148 -156h-190zM57 -412q-33 0 -92.5 9t-109.5 26l28 273q61 -23 174 -23q56 0 83.5 35.5t27.5 93.5v1192h303v-1192q0 -87 -22.5 -159.5t-70 -130.5t-129.5 -91t-192 -33z" />
    <glyph glyph-name="K.c2sc" horiz-adv-x="1167" 
d="M1192 0h-418l-319 350v-350h-303v1194h303v-324l241 324h381l-465 -588z" />
    <glyph glyph-name="Kcommaaccent.c2sc" horiz-adv-x="1167" 
d="M612 606l580 -606h-418l-319 350v-350h-303v1194h303v-324l241 324h381zM367 -338q82 77 82 270h262q0 -90 -63.5 -188t-149.5 -158z" />
    <glyph glyph-name="L.c2sc" horiz-adv-x="950" 
d="M152 0v1194h303v-932h444v-262h-747z" />
    <glyph glyph-name="Lacute.c2sc" horiz-adv-x="950" 
d="M162 1339l166 306h268l-250 -306h-184zM152 0v1194h303v-932h444v-262h-747z" />
    <glyph glyph-name="Lcaron.c2sc" horiz-adv-x="997" 
d="M152 0v1194h303v-932h444v-262h-747zM733 764l-110 70q59 85 84 163t26 197h211q-9 -89 -30.5 -161t-53 -123t-60.5 -83t-67 -63z" />
    <glyph glyph-name="Lcommaaccent.c2sc" horiz-adv-x="950" 
d="M152 0v1194h303v-932h444v-262h-747zM389 -414l-129 76q41 41 60.5 115.5t19.5 154.5h260q0 -90 -62.5 -188t-148.5 -158z" />
    <glyph glyph-name="Lslash.c2sc" horiz-adv-x="985" 
d="M489 262h443v-262h-746v430l-141 -86v166l141 86v598h303v-414l177 107v-164l-177 -109v-352z" />
    <glyph glyph-name="M.c2sc" horiz-adv-x="1675" 
d="M1585 0h-311l-76 618l-244 -479h-229l-248 482l-78 -621h-311l154 1194h252l344 -711l344 711h254z" />
    <glyph glyph-name="N.c2sc" horiz-adv-x="1247" 
d="M793 1194h303v-1194h-265l-376 625v-625h-303v1194h274l367 -616v616z" />
    <glyph glyph-name="Nacute.c2sc" horiz-adv-x="1247" 
d="M958 1645l-247 -306h-187l168 306h266zM793 1194h303v-1194h-265l-376 625v-625h-303v1194h274l367 -616v616z" />
    <glyph glyph-name="Ncaron.c2sc" horiz-adv-x="1247" 
d="M762 1339h-283l-194 306h192l144 -156l145 156h195zM793 1194h303v-1194h-265l-376 625v-625h-303v1194h274l367 -616v616z" />
    <glyph glyph-name="Ncommaaccent.c2sc" horiz-adv-x="1247" 
d="M793 1194h303v-1194h-265l-376 625v-625h-303v1194h274l367 -616v616zM406 -338q42 41 61.5 115t19.5 155h261q0 -90 -63 -188t-150 -158z" />
    <glyph glyph-name="Eng.c2sc" horiz-adv-x="1247" 
d="M793 1194h303v-1192q0 -88 -23 -160.5t-71 -131t-130.5 -91.5t-193.5 -33q-31 0 -90.5 9t-110.5 26l27 273q58 -21 174 -21q57 0 86 36t29 93v70l-338 553v-625h-303v1194h274l367 -614v614z" />
    <glyph glyph-name="Ntilde.c2sc" horiz-adv-x="1247" 
d="M545 1448q-13 0 -29.5 -19t-17.5 -55h-136q3 61 20.5 107t45 71.5t57 37.5t60.5 12q32 0 61.5 -18t53 -36t40.5 -18q14 0 30.5 18t17.5 54h135q-3 -61 -21 -107t-46 -70t-57 -35.5t-59 -11.5q-39 0 -88.5 35t-66.5 35zM793 1194h303v-1194h-265l-376 625v-625h-303v1194
h274l367 -616v616z" />
    <glyph glyph-name="O.c2sc" horiz-adv-x="1425" 
d="M713 -14q-130 0 -247 48.5t-201 130.5t-133.5 195t-49.5 238t49.5 238t133.5 195t201 130.5t247 48.5q172 0 317 -82t229 -223t84 -307t-84 -307t-229 -223t-317 -82zM711 270q145 0 236 94.5t91 233.5q0 140 -90.5 233t-236.5 93q-145 0 -235.5 -93t-90.5 -233
q0 -139 90.5 -233.5t235.5 -94.5z" />
    <glyph glyph-name="Oacute.c2sc" horiz-adv-x="1425" 
d="M616 1339l166 306h269l-250 -306h-185zM713 -14q-130 0 -247 48.5t-201 130.5t-133.5 195t-49.5 238t49.5 238t133.5 195t201 130.5t247 48.5q172 0 317 -82t229 -223t84 -307t-84 -307t-229 -223t-317 -82zM711 270q145 0 236 94.5t91 233.5q0 140 -90.5 233t-236.5 93
q-145 0 -235.5 -93t-90.5 -233q0 -139 90.5 -233.5t235.5 -94.5z" />
    <glyph glyph-name="uni01D1.c2sc" horiz-adv-x="1425" 
d="M569 1339l-196 306h194l144 -156l145 156h195l-199 -306h-283zM713 -14q-130 0 -247 48.5t-201 130.5t-133.5 195t-49.5 238t49.5 238t133.5 195t201 130.5t247 48.5q172 0 317 -82t229 -223t84 -307t-84 -307t-229 -223t-317 -82zM711 270q145 0 236 94.5t91 233.5
q0 140 -90.5 233t-236.5 93q-145 0 -235.5 -93t-90.5 -233q0 -139 90.5 -233.5t235.5 -94.5z" />
    <glyph glyph-name="Ocircumflex.c2sc" horiz-adv-x="1425" 
d="M373 1339l196 306h283l199 -306h-195l-145 156l-144 -156h-194zM713 -14q-130 0 -247 48.5t-201 130.5t-133.5 195t-49.5 238t49.5 238t133.5 195t201 130.5t247 48.5q172 0 317 -82t229 -223t84 -307t-84 -307t-229 -223t-317 -82zM711 270q145 0 236 94.5t91 233.5
q0 140 -90.5 233t-236.5 93q-145 0 -235.5 -93t-90.5 -233q0 -139 90.5 -233.5t235.5 -94.5z" />
    <glyph glyph-name="Odieresis.c2sc" horiz-adv-x="1425" 
d="M518 1374q-57 0 -97 37.5t-40 91.5t40 91.5t97 37.5q58 0 96.5 -37.5t38.5 -91.5t-38.5 -91.5t-96.5 -37.5zM911 1374q-59 0 -100 37.5t-41 91.5t41 91.5t100 37.5q56 0 94.5 -37.5t38.5 -91.5t-38.5 -91.5t-94.5 -37.5zM713 -14q-130 0 -247 48.5t-201 130.5t-133.5 195
t-49.5 238t49.5 238t133.5 195t201 130.5t247 48.5q172 0 317 -82t229 -223t84 -307t-84 -307t-229 -223t-317 -82zM711 270q145 0 236 94.5t91 233.5q0 140 -90.5 233t-236.5 93q-145 0 -235.5 -93t-90.5 -233q0 -139 90.5 -233.5t235.5 -94.5z" />
    <glyph glyph-name="Ograve.c2sc" horiz-adv-x="1425" 
d="M631 1339l-248 306h268l166 -306h-186zM713 -14q-130 0 -247 48.5t-201 130.5t-133.5 195t-49.5 238t49.5 238t133.5 195t201 130.5t247 48.5q172 0 317 -82t229 -223t84 -307t-84 -307t-229 -223t-317 -82zM711 270q145 0 236 94.5t91 233.5q0 140 -90.5 233t-236.5 93
q-145 0 -235.5 -93t-90.5 -233q0 -139 90.5 -233.5t235.5 -94.5z" />
    <glyph glyph-name="Ohungarumlaut.c2sc" horiz-adv-x="1425" 
d="M520 1339l166 306h191l-189 -306h-168zM778 1339l191 306h196l-207 -306h-180zM713 -14q-130 0 -247 48.5t-201 130.5t-133.5 195t-49.5 238t49.5 238t133.5 195t201 130.5t247 48.5q172 0 317 -82t229 -223t84 -307t-84 -307t-229 -223t-317 -82zM711 270
q145 0 236 94.5t91 233.5q0 140 -90.5 233t-236.5 93q-145 0 -235.5 -93t-90.5 -233q0 -139 90.5 -233.5t235.5 -94.5z" />
    <glyph glyph-name="Omacron.c2sc" horiz-adv-x="1425" 
d="M455 1403v153h518v-153h-518zM713 -14q-130 0 -247 48.5t-201 130.5t-133.5 195t-49.5 238t49.5 238t133.5 195t201 130.5t247 48.5q172 0 317 -82t229 -223t84 -307t-84 -307t-229 -223t-317 -82zM711 270q145 0 236 94.5t91 233.5q0 140 -90.5 233t-236.5 93
q-145 0 -235.5 -93t-90.5 -233q0 -139 90.5 -233.5t235.5 -94.5z" />
    <glyph glyph-name="Oslash.c2sc" horiz-adv-x="1429" 
d="M1196 993q150 -169 150 -395q0 -166 -84 -307t-229.5 -223t-317.5 -82q-223 0 -398 135l-143 -141l-84 81l141 142q-147 169 -147 395q0 125 49.5 238t133.5 195t201 130.5t247 48.5q228 0 397 -137l143 141l84 -79zM389 598q0 -108 53 -188l463 458q-85 56 -192 56
q-145 0 -234.5 -92.5t-89.5 -233.5zM713 270q145 0 236 94.5t91 233.5q0 109 -53 186l-463 -458q82 -56 189 -56z" />
    <glyph glyph-name="Oslashacute.c2sc" horiz-adv-x="1429" 
d="M1051 1645l-250 -306h-185l166 306h269zM1196 993q150 -169 150 -395q0 -166 -84 -307t-229.5 -223t-317.5 -82q-223 0 -398 135l-143 -141l-84 81l141 142q-147 169 -147 395q0 125 49.5 238t133.5 195t201 130.5t247 48.5q228 0 397 -137l143 141l84 -79zM389 598
q0 -108 53 -188l463 458q-85 56 -192 56q-145 0 -234.5 -92.5t-89.5 -233.5zM713 270q145 0 236 94.5t91 233.5q0 109 -53 186l-463 -458q82 -56 189 -56z" />
    <glyph glyph-name="Otilde.c2sc" horiz-adv-x="1425" 
d="M453 1374q5 116 60 172t122 56q32 0 61.5 -18t53.5 -36t41 -18q14 0 29.5 18t15.5 54h135q-2 -61 -20 -107t-45.5 -70t-56.5 -35.5t-58 -11.5q-39 0 -89 35t-67 35q-13 0 -29.5 -19t-17.5 -55h-135zM713 -14q-130 0 -247 48.5t-201 130.5t-133.5 195t-49.5 238t49.5 238
t133.5 195t201 130.5t247 48.5q172 0 317 -82t229 -223t84 -307t-84 -307t-229 -223t-317 -82zM711 270q145 0 236 94.5t91 233.5q0 140 -90.5 233t-236.5 93q-145 0 -235.5 -93t-90.5 -233q0 -139 90.5 -233.5t235.5 -94.5z" />
    <glyph glyph-name="OE.c2sc" horiz-adv-x="1959" 
d="M1341 262h519v-262h-820v90q-121 -104 -327 -104q-130 0 -247 48.5t-201 130.5t-133.5 195t-49.5 238t49.5 238t133.5 195t201 130.5t247 48.5q201 0 327 -104v88h803v-264h-502v-207h443v-270h-443v-191zM711 270q145 0 236 94.5t91 233.5q0 140 -90.5 233t-236.5 93
q-145 0 -235.5 -93t-90.5 -233q0 -139 90.5 -233.5t235.5 -94.5z" />
    <glyph glyph-name="P.c2sc" horiz-adv-x="1146" 
d="M664 1194q106 0 189.5 -34.5t134 -92t76.5 -127.5t26 -147q0 -78 -26 -148.5t-76.5 -127.5t-134 -90.5t-189.5 -33.5h-209v-393h-303v1194h512zM651 655q68 0 100.5 40t32.5 98t-32.5 97.5t-100.5 39.5h-196v-275h196z" />
    <glyph glyph-name="Thorn.c2sc" horiz-adv-x="1163" 
d="M668 999q182 0 300.5 -108.5t118.5 -288.5q0 -182 -119 -294.5t-300 -112.5h-213v-195h-303v1194h303v-195h213zM641 459q63 0 102 37t39 100q0 64 -38 102.5t-103 38.5h-186v-278h186z" />
    <glyph glyph-name="Q.c2sc" horiz-adv-x="1425" 
d="M1343 596q0 -149 -67 -277.5t-184 -214.5l114 -184l-211 -125l-127 205q-74 -18 -155 -18q-130 0 -247 48.5t-201 131t-133.5 196t-49.5 238.5t49.5 237.5t133.5 194.5t201 130t247 48q172 0 317 -81.5t229 -222t84 -306.5zM385 596q0 -138 87.5 -230.5t229.5 -95.5
l-84 138l209 122l111 -176q100 94 100 242q0 140 -90.5 233t-236.5 93q-145 0 -235.5 -93t-90.5 -233z" />
    <glyph glyph-name="R.c2sc" horiz-adv-x="1189" 
d="M770 0l-278 410h-37v-410h-303v1194h514q105 0 188.5 -34.5t134 -92t77 -127.5t26.5 -147q0 -130 -72.5 -228t-212.5 -135l313 -430h-350zM455 930v-285h166q80 0 122.5 42t42.5 95q0 55 -43.5 101.5t-121.5 46.5h-166z" />
    <glyph glyph-name="Racute.c2sc" horiz-adv-x="1189" 
d="M928 1645l-250 -306h-184l168 306h266zM770 0l-278 410h-37v-410h-303v1194h514q105 0 188.5 -34.5t134 -92t77 -127.5t26.5 -147q0 -130 -72.5 -228t-212.5 -135l313 -430h-350zM455 930v-285h166q80 0 122.5 42t42.5 95q0 55 -43.5 101.5t-121.5 46.5h-166z" />
    <glyph glyph-name="Rcaron.c2sc" horiz-adv-x="1189" 
d="M731 1339h-282l-197 306h192l146 -156l145 156h193zM770 0l-278 410h-37v-410h-303v1194h514q105 0 188.5 -34.5t134 -92t77 -127.5t26.5 -147q0 -130 -72.5 -228t-212.5 -135l313 -430h-350zM455 930v-285h166q80 0 122.5 42t42.5 95q0 55 -43.5 101.5t-121.5 46.5h-166
z" />
    <glyph glyph-name="Rcommaaccent.c2sc" horiz-adv-x="1189" 
d="M807 430l313 -430h-350l-278 410h-37v-410h-303v1194h514q105 0 188.5 -34.5t134 -92t77 -127.5t26.5 -147q0 -130 -72.5 -228t-212.5 -135zM455 930v-285h166q80 0 122.5 42t42.5 95q0 55 -43.5 101.5t-121.5 46.5h-166zM373 -338q82 77 82 270h262q0 -90 -63.5 -188
t-149.5 -158z" />
    <glyph glyph-name="S.c2sc" horiz-adv-x="1087" 
d="M539 -14q-202 0 -326.5 99t-124.5 269h303q1 -49 48 -79.5t112 -30.5q145 0 145 96q0 61 -123 102l-147 47q-97 26 -165 68.5t-101.5 93t-47.5 96.5t-14 95q0 161 126.5 264.5t314.5 103.5t308 -100t120 -276h-305q0 49 -31 80.5t-96 31.5q-58 0 -93.5 -28t-35.5 -68
q0 -61 114 -96l123 -37q59 -18 103 -35.5t95 -48t83.5 -67t54.5 -92t22 -122.5q0 -79 -27.5 -143t-72 -104.5t-105.5 -68t-124.5 -39t-132.5 -11.5z" />
    <glyph glyph-name="Sacute.c2sc" horiz-adv-x="1087" 
d="M446 1339l166 306h269l-248 -306h-187zM539 -14q-202 0 -326.5 99t-124.5 269h303q1 -49 48 -79.5t112 -30.5q145 0 145 96q0 61 -123 102l-147 47q-97 26 -165 68.5t-101.5 93t-47.5 96.5t-14 95q0 161 126.5 264.5t314.5 103.5t308 -100t120 -276h-305q0 49 -31 80.5
t-96 31.5q-58 0 -93.5 -28t-35.5 -68q0 -61 114 -96l123 -37q59 -18 103 -35.5t95 -48t83.5 -67t54.5 -92t22 -122.5q0 -79 -27.5 -143t-72 -104.5t-105.5 -68t-124.5 -39t-132.5 -11.5z" />
    <glyph glyph-name="Scaron.c2sc" horiz-adv-x="1087" 
d="M401 1339l-196 306h192l146 -156l143 156h197l-199 -306h-283zM539 -14q-202 0 -326.5 99t-124.5 269h303q1 -49 48 -79.5t112 -30.5q145 0 145 96q0 61 -123 102l-147 47q-97 26 -165 68.5t-101.5 93t-47.5 96.5t-14 95q0 161 126.5 264.5t314.5 103.5t308 -100
t120 -276h-305q0 49 -31 80.5t-96 31.5q-58 0 -93.5 -28t-35.5 -68q0 -61 114 -96l123 -37q59 -18 103 -35.5t95 -48t83.5 -67t54.5 -92t22 -122.5q0 -79 -27.5 -143t-72 -104.5t-105.5 -68t-124.5 -39t-132.5 -11.5z" />
    <glyph glyph-name="Scedilla.c2sc" horiz-adv-x="1087" 
d="M1001 352q0 -89 -33 -157.5t-90 -110.5t-124.5 -65t-145.5 -29l54 -94q20 -35 20 -91q0 -75 -55.5 -127.5t-130.5 -52.5q-85 0 -145 52.5t-60 158.5h135q0 -43 12 -64.5t51 -21.5q25 0 42.5 16t17.5 44q0 24 -8 40l-74 140q-173 18 -276 114t-103 250h303q1 -49 48 -79.5
t112 -30.5q145 0 145 96q0 61 -123 102l-147 47q-97 26 -165 68.5t-101.5 93t-47.5 96.5t-14 95q0 161 126.5 264.5t314.5 103.5t308 -100t120 -276h-305q0 49 -31 80.5t-96 31.5q-58 0 -93.5 -28t-35.5 -68q0 -61 114 -96l123 -37q59 -18 103 -35.5t95 -48t83.5 -67
t54.5 -92t22 -122.5z" />
    <glyph glyph-name="Scommaaccent.c2sc" horiz-adv-x="1087" 
d="M539 -14q-202 0 -326.5 99t-124.5 269h303q1 -49 48 -79.5t112 -30.5q145 0 145 96q0 61 -123 102l-147 47q-97 26 -165 68.5t-101.5 93t-47.5 96.5t-14 95q0 161 126.5 264.5t314.5 103.5t308 -100t120 -276h-305q0 49 -31 80.5t-96 31.5q-58 0 -93.5 -28t-35.5 -68
q0 -61 114 -96l123 -37q59 -18 103 -35.5t95 -48t83.5 -67t54.5 -92t22 -122.5q0 -79 -27.5 -143t-72 -104.5t-105.5 -68t-124.5 -39t-132.5 -11.5zM457 -414l-129 76q41 41 60.5 115.5t19.5 154.5h262q-1 -90 -64 -188t-149 -158z" />
    <glyph glyph-name="uni1E9E.c2sc" horiz-adv-x="1284" 
d="M911 727q133 -29 213 -116t80 -222q0 -172 -121.5 -289.5t-314.5 -117.5q-144 3 -213 32l33 262q42 -24 131 -24q82 0 131 45.5t49 120.5q0 85 -60.5 136.5t-158.5 51.5h-78v86l141 240q-36 10 -84 10q-38 0 -75.5 -15t-70.5 -43.5t-53 -78.5t-20 -113v-692h-303v684
q0 108 27.5 196t75.5 148t115.5 100.5t144.5 59t164 18.5q117 0 238.5 -34t209.5 -89v-24z" />
    <glyph glyph-name="T.c2sc" horiz-adv-x="1040" 
d="M991 1194v-264h-319v-930h-303v930h-320v264h942z" />
    <glyph glyph-name="Tbar.c2sc" horiz-adv-x="1058" 
d="M999 930h-319v-314h170v-135h-170v-481h-303v481h-168v135h168v314h-318v264h940v-264z" />
    <glyph glyph-name="Tcaron.c2sc" horiz-adv-x="1040" 
d="M659 1339h-282l-195 306h193l145 -156l144 156h194zM991 1194v-264h-319v-930h-303v930h-320v264h942z" />
    <glyph glyph-name="uni0162.c2sc" horiz-adv-x="1040" 
d="M991 930h-319v-918l69 -116q19 -37 19 -91q0 -75 -57 -127.5t-132 -52.5q-84 0 -144 52.5t-60 158.5h137q0 -43 12.5 -64.5t50.5 -21.5q24 0 42 16t18 44q0 22 -9 40l-77 150h-172v930h-320v264h942v-264z" />
    <glyph glyph-name="uni021A.c2sc" horiz-adv-x="1040" 
d="M991 1194v-264h-319v-930h-303v930h-320v264h942zM303 -338q42 41 62 115.5t20 154.5h260q0 -90 -62.5 -188t-148.5 -158z" />
    <glyph glyph-name="U.c2sc" 
d="M627 -14q-129 0 -239.5 54.5t-179.5 158.5t-69 237v758h303v-729q0 -98 54.5 -145.5t130.5 -47.5q77 0 130.5 47.5t53.5 145.5v729h303v-758q0 -133 -68 -237t-178.5 -158.5t-240.5 -54.5z" />
    <glyph glyph-name="Uacute.c2sc" 
d="M530 1339l166 306h269l-250 -306h-185zM627 -14q-129 0 -239.5 54.5t-179.5 158.5t-69 237v758h303v-729q0 -98 54.5 -145.5t130.5 -47.5q77 0 130.5 47.5t53.5 145.5v729h303v-758q0 -133 -68 -237t-178.5 -158.5t-240.5 -54.5z" />
    <glyph glyph-name="uni01D3.c2sc" 
d="M483 1339l-196 306h194l144 -156l145 156h195l-199 -306h-283zM627 -14q-129 0 -239.5 54.5t-179.5 158.5t-69 237v758h303v-729q0 -98 54.5 -145.5t130.5 -47.5q77 0 130.5 47.5t53.5 145.5v729h303v-758q0 -133 -68 -237t-178.5 -158.5t-240.5 -54.5z" />
    <glyph glyph-name="Ucircumflex.c2sc" 
d="M287 1339l196 306h283l199 -306h-195l-145 156l-144 -156h-194zM627 -14q-129 0 -239.5 54.5t-179.5 158.5t-69 237v758h303v-729q0 -98 54.5 -145.5t130.5 -47.5q77 0 130.5 47.5t53.5 145.5v729h303v-758q0 -133 -68 -237t-178.5 -158.5t-240.5 -54.5z" />
    <glyph glyph-name="Udieresis.c2sc" 
d="M432 1374q-57 0 -97 37.5t-40 91.5t40 91.5t97 37.5q58 0 96.5 -37.5t38.5 -91.5t-38.5 -91.5t-96.5 -37.5zM825 1374q-59 0 -100 37.5t-41 91.5t41 91.5t100 37.5q56 0 94.5 -37.5t38.5 -91.5t-38.5 -91.5t-94.5 -37.5zM627 -14q-129 0 -239.5 54.5t-179.5 158.5
t-69 237v758h303v-729q0 -98 54.5 -145.5t130.5 -47.5q77 0 130.5 47.5t53.5 145.5v729h303v-758q0 -133 -68 -237t-178.5 -158.5t-240.5 -54.5z" />
    <glyph glyph-name="uni01D7.c2sc" 
d="M530 1692l166 307h269l-250 -307h-185zM432 1374q-57 0 -97 37.5t-40 91.5t40 91.5t97 37.5q58 0 96.5 -37.5t38.5 -91.5t-38.5 -91.5t-96.5 -37.5zM825 1374q-59 0 -100 37.5t-41 91.5t41 91.5t100 37.5q56 0 94.5 -37.5t38.5 -91.5t-38.5 -91.5t-94.5 -37.5zM627 -14
q-129 0 -239.5 54.5t-179.5 158.5t-69 237v758h303v-729q0 -98 54.5 -145.5t130.5 -47.5q77 0 130.5 47.5t53.5 145.5v729h303v-758q0 -133 -68 -237t-178.5 -158.5t-240.5 -54.5z" />
    <glyph glyph-name="uni01D9.c2sc" 
d="M483 1692l-196 307h194l144 -158l145 158h195l-199 -307h-283zM432 1374q-57 0 -97 37.5t-40 91.5t40 91.5t97 37.5q58 0 96.5 -37.5t38.5 -91.5t-38.5 -91.5t-96.5 -37.5zM825 1374q-59 0 -100 37.5t-41 91.5t41 91.5t100 37.5q56 0 94.5 -37.5t38.5 -91.5t-38.5 -91.5
t-94.5 -37.5zM627 -14q-129 0 -239.5 54.5t-179.5 158.5t-69 237v758h303v-729q0 -98 54.5 -145.5t130.5 -47.5q77 0 130.5 47.5t53.5 145.5v729h303v-758q0 -133 -68 -237t-178.5 -158.5t-240.5 -54.5z" />
    <glyph glyph-name="uni01DB.c2sc" 
d="M545 1690l-248 305h266l168 -305h-186zM432 1374q-57 0 -97 37.5t-40 91.5t40 91.5t97 37.5q58 0 96.5 -37.5t38.5 -91.5t-38.5 -91.5t-96.5 -37.5zM825 1374q-59 0 -100 37.5t-41 91.5t41 91.5t100 37.5q56 0 94.5 -37.5t38.5 -91.5t-38.5 -91.5t-94.5 -37.5zM627 -14
q-129 0 -239.5 54.5t-179.5 158.5t-69 237v758h303v-729q0 -98 54.5 -145.5t130.5 -47.5q77 0 130.5 47.5t53.5 145.5v729h303v-758q0 -133 -68 -237t-178.5 -158.5t-240.5 -54.5z" />
    <glyph glyph-name="uni01D5.c2sc" 
d="M369 1759v150h518v-150h-518zM432 1374q-57 0 -97 37.5t-40 91.5t40 91.5t97 37.5q58 0 96.5 -37.5t38.5 -91.5t-38.5 -91.5t-96.5 -37.5zM825 1374q-59 0 -100 37.5t-41 91.5t41 91.5t100 37.5q56 0 94.5 -37.5t38.5 -91.5t-38.5 -91.5t-94.5 -37.5zM627 -14
q-129 0 -239.5 54.5t-179.5 158.5t-69 237v758h303v-729q0 -98 54.5 -145.5t130.5 -47.5q77 0 130.5 47.5t53.5 145.5v729h303v-758q0 -133 -68 -237t-178.5 -158.5t-240.5 -54.5z" />
    <glyph glyph-name="Ugrave.c2sc" 
d="M545 1339l-248 306h266l168 -306h-186zM627 -14q-129 0 -239.5 54.5t-179.5 158.5t-69 237v758h303v-729q0 -98 54.5 -145.5t130.5 -47.5q77 0 130.5 47.5t53.5 145.5v729h303v-758q0 -133 -68 -237t-178.5 -158.5t-240.5 -54.5z" />
    <glyph glyph-name="Uhungarumlaut.c2sc" 
d="M434 1339l166 306h191l-189 -306h-168zM690 1339l193 306h196l-207 -306h-182zM627 -14q-129 0 -239.5 54.5t-179.5 158.5t-69 237v758h303v-729q0 -98 54.5 -145.5t130.5 -47.5q77 0 130.5 47.5t53.5 145.5v729h303v-758q0 -133 -68 -237t-178.5 -158.5t-240.5 -54.5z
" />
    <glyph glyph-name="Umacron.c2sc" 
d="M369 1403v153h518v-153h-518zM627 -14q-129 0 -239.5 54.5t-179.5 158.5t-69 237v758h303v-729q0 -98 54.5 -145.5t130.5 -47.5q77 0 130.5 47.5t53.5 145.5v729h303v-758q0 -133 -68 -237t-178.5 -158.5t-240.5 -54.5z" />
    <glyph glyph-name="Uogonek.c2sc" 
d="M811 1194h303v-758q0 -178 -116.5 -298t-290.5 -146l-74 -142q-8 -16 -8 -40q0 -28 18 -44t43 -16q38 0 51 22t13 64h135q0 -106 -60.5 -158.5t-144.5 -52.5q-75 0 -130.5 52.5t-55.5 127.5q0 59 18 91l55 94q-181 20 -304.5 141t-123.5 305v758h303v-729
q0 -98 54.5 -145.5t130.5 -47.5q77 0 130.5 47.5t53.5 145.5v729z" />
    <glyph glyph-name="Uring.c2sc" 
d="M625 1313q-95 0 -164.5 65.5t-69.5 159.5q0 93 69.5 159t164.5 66q98 0 167.5 -65.5t69.5 -159.5q0 -95 -69 -160t-168 -65zM625 1419q52 0 89.5 34t37.5 85q0 49 -38 84t-89 35q-48 0 -84.5 -35t-36.5 -84q0 -51 36 -85t85 -34zM627 -14q-129 0 -239.5 54.5
t-179.5 158.5t-69 237v758h303v-729q0 -98 54.5 -145.5t130.5 -47.5q77 0 130.5 47.5t53.5 145.5v729h303v-758q0 -133 -68 -237t-178.5 -158.5t-240.5 -54.5z" />
    <glyph glyph-name="V.c2sc" horiz-adv-x="1095" 
d="M739 1194h322l-381 -1194h-266l-377 1194h315l195 -711z" />
    <glyph glyph-name="W.c2sc" horiz-adv-x="1652" 
d="M1300 1194h332l-420 -1194h-233l-156 563l-149 -563h-236l-415 1194h327l211 -651l139 477h252l138 -477z" />
    <glyph glyph-name="Wacute.c2sc" horiz-adv-x="1652" 
d="M1163 1645l-248 -306h-186l168 306h266zM1300 1194h332l-420 -1194h-233l-156 563l-149 -563h-236l-415 1194h327l211 -651l139 477h252l138 -477z" />
    <glyph glyph-name="Wcircumflex.c2sc" horiz-adv-x="1652" 
d="M825 1495l-143 -156h-195l197 306h283l198 -306h-196zM1300 1194h332l-420 -1194h-233l-156 563l-149 -563h-236l-415 1194h327l211 -651l139 477h252l138 -477z" />
    <glyph glyph-name="Wdieresis.c2sc" horiz-adv-x="1652" 
d="M633 1374q-57 0 -98 37.5t-41 91.5t41 91.5t98 37.5t96 -37.5t39 -91.5t-39 -91.5t-96 -37.5zM1026 1374q-59 0 -100 37.5t-41 91.5t41 91.5t100 37.5q56 0 94.5 -37.5t38.5 -91.5t-38.5 -91.5t-94.5 -37.5zM1300 1194h332l-420 -1194h-233l-156 563l-149 -563h-236
l-415 1194h327l211 -651l139 477h252l138 -477z" />
    <glyph glyph-name="Wgrave.c2sc" horiz-adv-x="1652" 
d="M932 1339h-187l-247 306h266zM1300 1194h332l-420 -1194h-233l-156 563l-149 -563h-236l-415 1194h327l211 -651l139 477h252l138 -477z" />
    <glyph glyph-name="X.c2sc" horiz-adv-x="1243" 
d="M1229 0h-357l-249 393l-252 -393h-357l426 635l-391 559h367l207 -322l206 322h365l-391 -561z" />
    <glyph glyph-name="Y.c2sc" horiz-adv-x="1271" 
d="M911 1194h361l-484 -664v-530h-305v537l-483 657h360l275 -428z" />
    <glyph glyph-name="Yacute.c2sc" horiz-adv-x="1271" 
d="M973 1645l-248 -306h-184l166 306h266zM911 1194h361l-484 -664v-530h-305v537l-483 657h360l275 -428z" />
    <glyph glyph-name="Ycircumflex.c2sc" horiz-adv-x="1271" 
d="M635 1495l-143 -156h-193l195 306h284l197 -306h-195zM911 1194h361l-484 -664v-530h-305v537l-483 657h360l275 -428z" />
    <glyph glyph-name="Ydieresis.c2sc" horiz-adv-x="1271" 
d="M442 1374q-57 0 -98 37.5t-41 91.5t41 91.5t98 37.5t96.5 -37.5t39.5 -91.5t-39.5 -91.5t-96.5 -37.5zM836 1374q-59 0 -100.5 37.5t-41.5 91.5t41.5 91.5t100.5 37.5q56 0 94.5 -37.5t38.5 -91.5t-38.5 -91.5t-94.5 -37.5zM911 1194h361l-484 -664v-530h-305v537
l-483 657h360l275 -428z" />
    <glyph glyph-name="Ygrave.c2sc" horiz-adv-x="1271" 
d="M739 1339h-184l-250 306h268zM911 1194h361l-484 -664v-530h-305v537l-483 657h360l275 -428z" />
    <glyph glyph-name="Z.c2sc" horiz-adv-x="1112" 
d="M1014 1194v-221l-535 -711h535v-262h-926v221l524 709h-501v264h903z" />
    <glyph glyph-name="Zacute.c2sc" horiz-adv-x="1112" 
d="M893 1645l-248 -306h-186l166 306h268zM1014 1194v-221l-535 -711h535v-262h-926v221l524 709h-501v264h903z" />
    <glyph glyph-name="Zcaron.c2sc" horiz-adv-x="1112" 
d="M696 1339h-282l-197 306h193l145 -156l143 156h197zM1014 1194v-221l-535 -711h535v-262h-926v221l524 709h-501v264h903z" />
    <glyph glyph-name="Zdotaccent.c2sc" horiz-adv-x="1112" 
d="M557 1354q-65 0 -108 40.5t-43 104.5q0 61 43 101t108 40q62 0 106 -40t44 -101q0 -63 -43.5 -104t-106.5 -41zM1014 1194v-221l-535 -711h535v-262h-926v221l524 709h-501v264h903z" />
    <glyph glyph-name="IJ.alt.c2sc" horiz-adv-x="1402" 
d="M152 0v1194h303v-1194h-303zM848 -14q-108 0 -203 32l27 273q58 -21 176 -21q56 0 83 35.5t27 91.5v797h304v-797q0 -87 -22.5 -159t-70 -129.5t-129.5 -90t-192 -32.5z" />
    <glyph glyph-name="J.alt.c2sc" horiz-adv-x="796" 
d="M242 -14q-108 0 -203 32l29 273q56 -21 174 -21q56 0 83 35.5t27 91.5v797h303v-797q0 -87 -22.5 -159t-69.5 -129.5t-129 -90t-192 -32.5z" />
    <glyph glyph-name="Jcircumflex.alt.c2sc" horiz-adv-x="796" 
d="M168 1339l194 306h283l199 -306h-195l-143 156l-148 -156h-190zM242 -14q-108 0 -203 32l29 273q56 -21 174 -21q56 0 83 35.5t27 91.5v797h303v-797q0 -87 -22.5 -159t-69.5 -129.5t-129 -90t-192 -32.5z" />
    <glyph glyph-name="W.alt.c2sc" horiz-adv-x="1665" 
d="M1282 1194h346l-358 -1194h-254l-187 653l-186 -653h-250l-360 1194h346l158 -604l168 565h251l168 -565z" />
    <glyph glyph-name="Wacute.alt.c2sc" horiz-adv-x="1665" 
d="M1167 1645l-247 -306h-187l166 306h268zM1282 1194h346l-358 -1194h-254l-187 653l-186 -653h-250l-360 1194h346l158 -604l168 565h251l168 -565z" />
    <glyph glyph-name="Wcircumflex.alt.c2sc" horiz-adv-x="1665" 
d="M829 1495l-143 -156h-194l196 306h283l198 -306h-196zM1282 1194h346l-358 -1194h-254l-187 653l-186 -653h-250l-360 1194h346l158 -604l168 565h251l168 -565z" />
    <glyph glyph-name="Wdieresis.alt.c2sc" horiz-adv-x="1665" 
d="M637 1374q-57 0 -98 37.5t-41 91.5t41 91.5t98 37.5q56 0 95.5 -37.5t39.5 -91.5t-39.5 -91.5t-95.5 -37.5zM1030 1374q-59 0 -100 37.5t-41 91.5t41 91.5t100 37.5q56 0 94.5 -37.5t38.5 -91.5t-38.5 -91.5t-94.5 -37.5zM1282 1194h346l-358 -1194h-254l-187 653
l-186 -653h-250l-360 1194h346l158 -604l168 565h251l168 -565z" />
    <glyph glyph-name="Wgrave.alt.c2sc" horiz-adv-x="1665" 
d="M936 1339h-186l-250 306h266zM1282 1194h346l-358 -1194h-254l-187 653l-186 -653h-250l-360 1194h346l158 -604l168 565h251l168 -565z" />
    <glyph glyph-name="i.loclTRK" horiz-adv-x="557" 
d="M279 1137q-70 0 -117 44.5t-47 114.5q0 68 47 113t117 45t117.5 -45t47.5 -113q0 -70 -47.5 -114.5t-117.5 -44.5zM127 0v954h303v-954h-303z" />
    <glyph glyph-name="a.alt" horiz-adv-x="1165" 
d="M569 979q99 0 184 -25t152 -73.5t105.5 -128.5t38.5 -183v-569h-320v106q-51 -58 -145.5 -91t-182.5 -33q-144 0 -243 82t-99 217q0 59 22 108t59 82t86.5 56t105 33.5t114.5 10.5q162 0 283 -59v41q0 73 -53 121.5t-141 48.5q-71 0 -138 -22.5t-106 -61.5l-164 170
q67 77 185.5 123.5t256.5 46.5zM500 209q60 0 126.5 25t102.5 69v25q-84 59 -211 59q-78 0 -114.5 -27.5t-36.5 -62.5q0 -40 37 -64t96 -24z" />
    <glyph glyph-name="aacute.alt" horiz-adv-x="1165" 
d="M961 1470l-277 -350h-207l191 350h293zM569 979q99 0 184 -25t152 -73.5t105.5 -128.5t38.5 -183v-569h-320v106q-51 -58 -145.5 -91t-182.5 -33q-144 0 -243 82t-99 217q0 59 22 108t59 82t86.5 56t105 33.5t114.5 10.5q162 0 283 -59v41q0 73 -53 121.5t-141 48.5
q-71 0 -138 -22.5t-106 -61.5l-164 170q67 77 185.5 123.5t256.5 46.5zM500 209q60 0 126.5 25t102.5 69v25q-84 59 -211 59q-78 0 -114.5 -27.5t-36.5 -62.5q0 -40 37 -64t96 -24z" />
    <glyph glyph-name="abreve.alt" horiz-adv-x="1165" 
d="M575 1151q-90 0 -154 40t-93 100t-29 130h178q0 -54 22.5 -80t75.5 -26q95 0 95 106h182q0 -121 -77.5 -195.5t-199.5 -74.5zM569 979q99 0 184 -25t152 -73.5t105.5 -128.5t38.5 -183v-569h-320v106q-51 -58 -145.5 -91t-182.5 -33q-144 0 -243 82t-99 217q0 59 22 108
t59 82t86.5 56t105 33.5t114.5 10.5q162 0 283 -59v41q0 73 -53 121.5t-141 48.5q-71 0 -138 -22.5t-106 -61.5l-164 170q67 77 185.5 123.5t256.5 46.5zM500 209q60 0 126.5 25t102.5 69v25q-84 59 -211 59q-78 0 -114.5 -27.5t-36.5 -62.5q0 -40 37 -64t96 -24z" />
    <glyph glyph-name="uni01CE.alt" horiz-adv-x="1165" 
d="M717 1120h-303l-224 350h213l162 -182l162 182h215zM569 979q99 0 184 -25t152 -73.5t105.5 -128.5t38.5 -183v-569h-320v106q-51 -58 -145.5 -91t-182.5 -33q-144 0 -243 82t-99 217q0 59 22 108t59 82t86.5 56t105 33.5t114.5 10.5q162 0 283 -59v41q0 73 -53 121.5
t-141 48.5q-71 0 -138 -22.5t-106 -61.5l-164 170q67 77 185.5 123.5t256.5 46.5zM500 209q60 0 126.5 25t102.5 69v25q-84 59 -211 59q-78 0 -114.5 -27.5t-36.5 -62.5q0 -40 37 -64t96 -24z" />
    </font>
</defs>
</svg>
