<?xml version="1.0" standalone="no"?>
<!DOCTYPE svg PUBLIC "-//W3C//DTD SVG 1.1//EN" "http://www.w3.org/Graphics/SVG/1.1/DTD/svg11.dtd" >
<svg xmlns="http://www.w3.org/2000/svg" xmlns:xlink="http://www.w3.org/1999/xlink" version="1.1">
<metadata>
Created by FontForge 20170731 at Thu Oct 12 07:28:59 2023
 By Aleksey,,,
Copyright (c) Olivier Gourvat - Mostardesign Type Foundry, 2016. All rights reserved.
</metadata>
<defs>
<font id="SofiaProRegular" horiz-adv-x="1153" >
  <font-face 
    font-family="Sofia Pro Regular"
    font-weight="400"
    font-stretch="normal"
    units-per-em="2048"
    panose-1="0 0 5 0 0 0 0 0 0 0"
    ascent="1638"
    descent="-410"
    x-height="956"
    cap-height="1411"
    bbox="-881 -553 3011 2212"
    underline-thickness="102"
    underline-position="-307"
    unicode-range="U+0020-FB04"
  />
<missing-glyph horiz-adv-x="1300" 
d="M164 0v1362h973v-1362h-973zM549 455h127v67q0 49 25.5 82t70.5 45q75 23 124.5 89.5t49.5 164.5q0 123 -85 200t-204 77q-117 0 -197.5 -82t-80.5 -215h127q0 76 43 123t108 47t114.5 -42t49.5 -108q0 -99 -116 -145q-84 -25 -120 -75.5t-36 -150.5v-77zM614 180
q38 0 65.5 25.5t27.5 62.5t-27.5 62.5t-65.5 25.5q-39 0 -66.5 -25t-27.5 -63t27.5 -63t66.5 -25z" />
    <glyph glyph-name="f_f" unicode="ff" horiz-adv-x="1374" 
d="M1325 1311q-217 0 -213 -230v-125h223v-153h-223v-803h-178v803h-522v-803h-179v803h-184v153h184v101q0 197 88 309.5t273 112.5h102v-168h-71q-217 0 -213 -230v-125h522v101q0 96 20.5 172t62.5 132.5t112 87t165 30.5h103v-168h-72z" />
    <glyph glyph-name="fi" unicode="fi" horiz-adv-x="1177" 
d="M1024 956v-956h-178v803h-434v-803h-179v803h-184v153h184v101q0 197 88 309.5t273 112.5h76v-168h-45q-217 0 -213 -230v-125h612zM934 1427q54 0 90.5 -33.5t36.5 -84.5t-36.5 -85t-90.5 -34q-52 0 -88.5 34.5t-36.5 84.5t36.5 84t88.5 34z" />
    <glyph glyph-name="fl" unicode="fl" horiz-adv-x="1179" 
d="M1026 1479v-1479h-178v1311h-223q-217 0 -213 -230v-125h223v-153h-223v-803h-179v803h-184v153h184v101q0 197 88 309.5t273 112.5h432z" />
    <glyph glyph-name="f_f_i" unicode="ffi" horiz-adv-x="1878" 
d="M1722 956v-956h-178v803h-432v-803h-178v803h-522v-803h-179v803h-184v153h184v101q0 197 88 309.5t273 112.5h102v-168h-71q-217 0 -213 -230v-125h522v101q0 96 20.5 172t62.5 132.5t112 87t165 30.5h66v-168h-35q-217 0 -213 -230v-125h610zM1634 1427q53 0 89 -33.5
t36 -84.5t-36 -85t-89 -34q-52 0 -89.5 34.5t-37.5 84.5t37.5 84t89.5 34z" />
    <glyph glyph-name="f_f_l" unicode="ffl" horiz-adv-x="1880" 
d="M1724 1479v-1479h-178v1311h-221q-217 0 -213 -230v-125h223v-153h-223v-803h-178v803h-522v-803h-179v803h-184v153h184v101q0 197 88 309.5t273 112.5h102v-168h-71q-217 0 -213 -230v-125h522v101q0 96 20.5 172t62.5 132.5t112 87t165 30.5h430z" />
    <glyph glyph-name=".notdef" horiz-adv-x="1300" 
d="M164 0v1362h973v-1362h-973zM549 455h127v67q0 49 25.5 82t70.5 45q75 23 124.5 89.5t49.5 164.5q0 123 -85 200t-204 77q-117 0 -197.5 -82t-80.5 -215h127q0 76 43 123t108 47t114.5 -42t49.5 -108q0 -99 -116 -145q-84 -25 -120 -75.5t-36 -150.5v-77zM614 180
q38 0 65.5 25.5t27.5 62.5t-27.5 62.5t-65.5 25.5q-39 0 -66.5 -25t-27.5 -63t27.5 -63t66.5 -25z" />
    <glyph glyph-name=".null" horiz-adv-x="0" 
 />
    <glyph glyph-name="nonmarkingreturn" horiz-adv-x="682" 
 />
    <glyph glyph-name="space" unicode=" " horiz-adv-x="518" 
 />
    <glyph glyph-name="exclam" unicode="!" horiz-adv-x="538" 
d="M199 408l-19 1003h178l-18 -1003h-141zM266 -20q-53 0 -91 35.5t-38 88.5t38 89t91 36q55 0 94 -36t39 -89t-39 -88.5t-94 -35.5z" />
    <glyph glyph-name="quotedbl" unicode="&#x22;" horiz-adv-x="722" 
d="M152 825l-11 586h152l-10 -586h-131zM442 825l-12 586h154l-13 -586h-129z" />
    <glyph glyph-name="numbersign" unicode="#" horiz-adv-x="1333" 
d="M184 0l99 350h-217l45 168h217l98 367h-211l43 168h217l98 358h166l-98 -358h242l98 358h166l-98 -358h219l-45 -168h-222l-100 -367h217l-45 -168h-219l-100 -350h-164l98 350h-239l-103 -350h-162zM494 518h239l101 367h-240z" />
    <glyph glyph-name="dollar" unicode="$" horiz-adv-x="1060" 
d="M975 418q0 -95 -46.5 -177.5t-138.5 -137.5t-212 -62v-170h-123v178q-162 26 -262.5 134.5t-100.5 244.5h184q2 -91 76 -159t193 -68q114 0 178.5 61t64.5 150q0 72 -53.5 122.5t-154.5 75.5l-164 41q-78 20 -137 51t-92 63.5t-53.5 72.5t-27 72t-6.5 67q0 143 101.5 239
t253.5 117v162h123v-160q160 -17 257.5 -118t96.5 -252h-184q2 92 -62.5 151.5t-165.5 59.5q-100 0 -166.5 -55.5t-66.5 -141.5q0 -130 174 -172l164 -39q169 -40 259.5 -130t90.5 -220z" />
    <glyph glyph-name="percent" unicode="%" horiz-adv-x="1286" 
d="M342 834q-116 0 -194 78t-78 194q0 113 78.5 192.5t193.5 79.5q112 0 192 -80t80 -192q0 -115 -79.5 -193.5t-192.5 -78.5zM250 0l649 1339h121l-647 -1339h-123zM342 965q59 0 101 40t42 101q0 58 -42.5 100.5t-100.5 42.5q-61 0 -101 -42t-40 -101q0 -62 39.5 -101.5
t101.5 -39.5zM942 -20q-115 0 -192.5 78t-77.5 192q0 115 77.5 194.5t192.5 79.5q114 0 193 -80t79 -194t-79 -192t-193 -78zM942 109q60 0 101.5 40.5t41.5 100.5t-41.5 101.5t-101.5 41.5q-61 0 -101 -41t-40 -102q0 -60 40 -100.5t101 -40.5z" />
    <glyph glyph-name="ampersand" unicode="&#x26;" horiz-adv-x="1308" 
d="M1198 145h35v-165h-37q-103 2 -183.5 45t-101.5 112q-53 -75 -147.5 -116t-202.5 -41q-133 0 -239 60.5t-164 162t-58 223.5q0 115 60.5 208t163.5 154q-64 45 -105 121t-41 164q0 145 107.5 249.5t271.5 104.5q111 0 200 -50.5t142 -141.5l-147 -90q-66 110 -195 110
q-92 0 -148.5 -53t-56.5 -139q0 -87 60.5 -151t177.5 -64h250v170h180v-172h178v-144h-178v-270q0 -62 7 -108t25 -89.5t54.5 -66.5t91.5 -23zM559 152q122 0 199 75.5t82 190.5v284h-236q-162 0 -246 -76t-84 -194q0 -120 79 -200t206 -80z" />
    <glyph glyph-name="quotesingle" unicode="'" horiz-adv-x="434" 
d="M152 825l-11 586h152l-10 -586h-131z" />
    <glyph glyph-name="parenleft" unicode="(" horiz-adv-x="712" 
d="M662 -328q-254 2 -407 247t-153 654q0 270 69 475.5t196.5 317.5t294.5 113v-152q-115 0 -204 -96t-137.5 -267.5t-48.5 -390.5t48.5 -390t137.5 -266t204 -95v-150z" />
    <glyph glyph-name="parenright" unicode=")" horiz-adv-x="712" 
d="M51 -328v150q115 0 203.5 95t137 266t48.5 390t-48.5 390.5t-137 267.5t-203.5 96v152q167 -1 293.5 -113.5t195 -317.5t68.5 -475q0 -410 -151.5 -654.5t-405.5 -246.5z" />
    <glyph glyph-name="asterisk" unicode="*" horiz-adv-x="935" 
d="M854 1096l-301 -70l188 -244l-94 -69l-178 258l-178 -258l-96 69l188 244l-299 70l31 116l303 -90l-8 316h118l-8 -316l301 90z" />
    <glyph glyph-name="plus" unicode="+" horiz-adv-x="1013" 
d="M926 623v-174h-332v-336h-174v336h-334v174h334v331h174v-331h332z" />
    <glyph glyph-name="comma" unicode="," horiz-adv-x="485" 
d="M121 -330l-123 37q64 92 99 162t52.5 169.5t4.5 219.5h180q17 -177 -39.5 -332.5t-173.5 -255.5z" />
    <glyph glyph-name="hyphen" unicode="-" horiz-adv-x="987" 
d="M137 391v172h711v-172h-711z" />
    <glyph glyph-name="period" unicode="." horiz-adv-x="499" 
d="M248 -20q-54 0 -91.5 34.5t-37.5 87.5q0 55 38 91t91 36q55 0 94 -36t39 -91q0 -53 -39 -87.5t-94 -34.5z" />
    <glyph glyph-name="slash" unicode="/" horiz-adv-x="978" 
d="M53 0l697 1411h178l-697 -1411h-178z" />
    <glyph glyph-name="zero" unicode="0" horiz-adv-x="1212" 
d="M606 -20q-112 0 -198 36t-139.5 96.5t-87.5 150t-47 187t-13 216.5q0 121 13 219t47 188t87.5 150.5t139.5 96.5t198 36t198 -36t140 -96.5t87.5 -150.5t47 -188t13.5 -219q0 -119 -13.5 -216.5t-47 -187t-87.5 -150t-140 -96.5t-198 -36zM606 147q89 0 151 40.5
t95 115.5t47 163t14 200q0 90 -8 163.5t-29.5 141.5t-55 114t-88 73.5t-126.5 27.5t-126 -27.5t-87.5 -73.5t-54.5 -114.5t-29 -141.5t-8 -163q0 -89 8 -161.5t29 -141t54.5 -114.5t87.5 -74t126 -28z" />
    <glyph glyph-name="one" unicode="1" horiz-adv-x="716" 
d="M514 1356h6v-1356h-178v1096l-285 -117v172z" />
    <glyph glyph-name="two" unicode="2" horiz-adv-x="1056" 
d="M403 172h543v-172h-842v80l504 608q63 77 102.5 152.5t39.5 120.5q0 101 -66.5 163t-175.5 62q-108 0 -178 -56t-78 -147l-160 35q20 153 132.5 245.5t283.5 92.5q189 0 304.5 -108.5t115.5 -286.5q0 -76 -44 -171t-112 -176z" />
    <glyph glyph-name="three" unicode="3" horiz-adv-x="1067" 
d="M727 719q106 -34 170 -122.5t64 -205.5q0 -183 -130 -296t-335 -113q-142 0 -257.5 74t-175.5 204l148 84q44 -91 118 -142.5t160 -51.5q127 0 209 65t82 170q0 113 -79.5 182.5t-204.5 69.5h-140v154h127q105 0 169.5 56.5t64.5 147.5q0 86 -59 138.5t-156 52.5
q-70 0 -135 -34.5t-103 -92.5l-123 102q51 88 151 141.5t214 53.5q175 0 282 -98t107 -259q0 -95 -45 -169t-123 -111z" />
    <glyph glyph-name="four" unicode="4" horiz-adv-x="1165" 
d="M1077 444v-168h-190v-276h-178v276h-684v39l831 1024h31v-895h190zM324 444h385v461z" />
    <glyph glyph-name="five" unicode="5" horiz-adv-x="1136" 
d="M606 860q194 0 315 -117.5t121 -310.5q0 -202 -133 -327t-340 -125q-167 0 -293 83t-192 220l149 82q42 -97 127.5 -157.5t200.5 -60.5q132 0 217.5 78t85.5 203q0 123 -85.5 198.5t-211.5 75.5q-163 0 -327 -122l-111 92l117 667h708v-170h-563l-76 -401q134 92 291 92z
" />
    <glyph glyph-name="six" unicode="6" horiz-adv-x="1200" 
d="M631 862q132 0 238.5 -62t163.5 -162.5t57 -217.5q0 -85 -33.5 -164.5t-94 -140.5t-151 -98t-197.5 -37q-246 0 -371.5 164t-125.5 483q0 101 15.5 197.5t55.5 194.5t100 171.5t157 119.5t219 46q298 0 411 -273l-162 -65q-74 168 -254 168q-101 0 -184 -68.5
t-127 -182.5t-37 -243q48 75 132.5 122.5t187.5 47.5zM604 150q129 0 214 78.5t85 195.5q0 112 -79 188.5t-199 81.5q-126 0 -216 -72.5t-96 -185.5q0 -122 83.5 -202.5t207.5 -83.5z" />
    <glyph glyph-name="seven" unicode="7" horiz-adv-x="1040" 
d="M104 1339h916v-14l-727 -1325h-211l645 1169h-623v170z" />
    <glyph glyph-name="eight" unicode="8" horiz-adv-x="1200" 
d="M848 776q116 -44 185 -146t69 -231q0 -186 -140 -302.5t-360 -116.5q-221 0 -362.5 116t-141.5 301q0 130 69.5 232.5t186.5 146.5q-135 84 -135 248q0 143 106.5 237.5t276.5 94.5q168 0 275.5 -94.5t107.5 -237.5q0 -163 -137 -248zM602 1190q-83 0 -139.5 -53
t-56.5 -129q0 -74 56.5 -124t139.5 -50t139 49.5t56 124.5q0 76 -56 129t-139 53zM602 147q137 0 224 75.5t87 189.5q0 118 -91 195t-220 77q-131 0 -223 -77t-92 -193q0 -114 90.5 -190.5t224.5 -76.5z" />
    <glyph glyph-name="nine" unicode="9" horiz-adv-x="1200" 
d="M586 1356q161 0 275 -84.5t169 -228.5t55 -334q0 -101 -15.5 -197.5t-55.5 -194.5t-100.5 -171.5t-157.5 -119.5t-219 -46q-300 0 -412 270l162 65q39 -87 106 -127.5t148 -40.5q100 0 183 67.5t127.5 180t39.5 240.5q-48 -75 -133.5 -119.5t-186.5 -44.5
q-133 0 -239.5 62.5t-163.5 163.5t-57 218q0 85 33.5 164.5t93.5 141t150.5 98.5t197.5 37zM575 641q127 0 217.5 73t94.5 185q0 121 -83.5 201.5t-207.5 83.5q-129 0 -214 -78t-85 -195q0 -113 79 -190t199 -80z" />
    <glyph glyph-name="colon" unicode=":" horiz-adv-x="538" 
d="M270 727q-55 0 -94 36t-39 91q0 53 39 88t94 35q53 0 91 -35t38 -88q0 -55 -38 -91t-91 -36zM270 -20q-55 0 -94 34.5t-39 87.5q0 55 39 91t94 36q53 0 91 -36t38 -91q0 -53 -37.5 -87.5t-91.5 -34.5z" />
    <glyph glyph-name="semicolon" unicode=";" horiz-adv-x="546" 
d="M272 977q56 0 95 -35t39 -88q0 -55 -39 -91t-95 -36q-55 0 -92 36t-37 91q0 53 37 88t92 35zM164 -330l-121 37q31 44 53 80t44 80t33.5 83.5t21.5 90t8 101t-6 116.5h180q19 -177 -37.5 -332.5t-175.5 -255.5z" />
    <glyph glyph-name="less" unicode="&#x3c;" horiz-adv-x="1232" 
d="M1108 1032v-192l-791 -291l791 -295v-188l-1038 395v174z" />
    <glyph glyph-name="equal" unicode="=" horiz-adv-x="1232" 
d="M145 625v172h942v-172h-942zM145 227v172h942v-172h-942z" />
    <glyph glyph-name="greater" unicode="&#x3e;" horiz-adv-x="1230" 
d="M123 1032l1036 -397v-174l-1036 -398v191l788 295l-788 291v192z" />
    <glyph glyph-name="question" unicode="?" horiz-adv-x="970" 
d="M279 408v81q-2 67 11.5 117t42.5 84t64 56t84 40l70 25q75 29 122.5 84t47.5 133q0 109 -62.5 170.5t-160.5 61.5t-172 -68.5t-80 -187.5h-170q1 126 61.5 224t155.5 148.5t205 50.5q170 0 285.5 -109.5t115.5 -289.5q0 -141 -85 -243.5t-212 -141.5q-37 -12 -60 -22.5
t-45 -27.5t-32 -42.5t-10 -61.5l-2 -81h-174zM365 -18q-55 0 -93.5 35.5t-38.5 88.5t38.5 89t93.5 36t93 -36t38 -89t-38 -88.5t-93 -35.5z" />
    <glyph glyph-name="at" unicode="@" horiz-adv-x="2007" 
d="M979 -379q-184 0 -348.5 70t-282.5 189.5t-187 285.5t-69 350q0 183 69 349t187 287t283 192t348 71q247 0 458.5 -111t338.5 -310.5t127 -442.5q0 -76 -12 -153t-41 -155.5t-71.5 -138t-110 -97.5t-150.5 -38q-60 0 -109.5 14.5t-91.5 46.5t-66 91t-24 139v266
q0 113 -79 191t-190 78t-189.5 -78t-78.5 -191q0 -110 79 -188t189 -78q104 0 203 96v-168q-96 -69 -203 -69q-169 0 -289 119t-120 288q0 170 120 290t289 120q164 0 284 -114t126 -279v-295q0 -139 150 -139q70 0 120.5 44t75 115.5t35 141t10.5 141.5q0 154 -63 289.5
t-169 230t-249 149t-299 54.5q-155 0 -293.5 -60t-237.5 -162t-157 -242t-58 -294q0 -156 58 -295.5t157 -240t237.5 -159.5t293.5 -59h47v-141h-47z" />
    <glyph glyph-name="A" unicode="A" horiz-adv-x="1280" 
d="M1081 0l-137 362h-606l-137 -362h-195l537 1411h196l537 -1411h-195zM399 526h484l-242 639z" />
    <glyph glyph-name="B" unicode="B" horiz-adv-x="1290" 
d="M930 752q80 -18 139 -74t87 -129t28 -152q0 -103 -48 -192.5t-144 -147t-220 -57.5h-575v1411h530q175 0 278 -97t103 -263q0 -102 -42.5 -182.5t-135.5 -116.5zM725 1239h-342v-416h348q92 0 141.5 57.5t49.5 151.5q0 93 -51.5 150t-145.5 57zM733 172q125 0 194.5 69
t69.5 173q0 103 -66 174t-188 71h-360v-487h350z" />
    <glyph glyph-name="C" unicode="C" horiz-adv-x="1413" 
d="M815 -20q-196 0 -361 96.5t-260.5 263t-95.5 362.5q0 197 95.5 363t260.5 263t361 97q160 0 297.5 -63.5t233.5 -175.5l-136 -115q-72 85 -175 133.5t-220 48.5q-146 0 -268 -74t-192 -201t-70 -276t70 -275t192 -200.5t268 -74.5q117 0 220 48.5t175 133.5l136 -115
q-96 -112 -233.5 -175.5t-297.5 -63.5z" />
    <glyph glyph-name="D" unicode="D" horiz-adv-x="1486" 
d="M197 0v1411h546q147 0 268 -54.5t201.5 -149.5t124 -225t43.5 -280t-43.5 -278t-124 -222.5t-201.5 -148t-268 -53.5h-546zM383 172h360q144 0 247.5 70.5t153.5 188.5t50 271t-50 273t-153.5 192t-247.5 72h-360v-1067z" />
    <glyph glyph-name="E" unicode="E" 
d="M381 172h668v-172h-852v1411h831v-172h-647v-459h565v-174h-565v-434z" />
    <glyph glyph-name="F" unicode="F" horiz-adv-x="1079" 
d="M1018 1239h-635v-459h504v-174h-504v-606h-186v1411h821v-172z" />
    <glyph glyph-name="G" unicode="G" horiz-adv-x="1544" 
d="M813 -20q-148 0 -280.5 57t-227 154t-150 230.5t-55.5 280.5q0 198 94 364.5t258 263.5t361 97q136 0 258 -48.5t217 -135.5l-129 -121q-150 133 -346 133q-146 0 -267 -74.5t-190 -201.5t-69 -277t69 -276t190 -200t267 -74q184 0 310.5 97.5t148.5 260.5q4 20 4 35
h-410v162h615q0 -182 -47.5 -321.5t-136 -228t-210.5 -133t-274 -44.5z" />
    <glyph glyph-name="H" unicode="H" horiz-adv-x="1456" 
d="M1075 1411h187v-1411h-187v616h-692v-616h-186v1411h186v-625h692v625z" />
    <glyph glyph-name="I" unicode="I" horiz-adv-x="577" 
d="M197 0v1411h186v-1411h-186z" />
    <glyph glyph-name="J" unicode="J" horiz-adv-x="593" 
d="M-37 -477q-46 0 -149 22l18 174q20 -7 66.5 -11.5t64.5 -4.5q66 0 115.5 22t78 61t42.5 87.5t14 106.5v1431h186v-1431q0 -96 -24 -176t-74.5 -144.5t-136.5 -100.5t-201 -36z" />
    <glyph glyph-name="K" unicode="K" horiz-adv-x="1169" 
d="M1194 0h-248l-565 604v-604h-184v1411h184v-616l473 616h227l-544 -706z" />
    <glyph glyph-name="L" unicode="L" horiz-adv-x="1003" 
d="M197 0v1411h186v-1239h578v-172h-764z" />
    <glyph glyph-name="M" unicode="M" horiz-adv-x="1918" 
d="M1804 0h-182l-131 1075l-449 -921h-161l-453 921l-129 -1075h-182l172 1411h168l504 -1046l501 1046h168z" />
    <glyph glyph-name="N" unicode="N" horiz-adv-x="1409" 
d="M1028 1411h186v-1411h-180l-651 1075v-1075h-186v1411h184l647 -1071v1071z" />
    <glyph glyph-name="O" unicode="O" horiz-adv-x="1628" 
d="M811 -20q-148 0 -280.5 57t-227 154t-150 230.5t-55.5 280.5q0 198 94 364.5t258 263.5t361 97q198 0 363 -97t259.5 -263.5t94.5 -364.5q0 -147 -56 -280.5t-151 -230.5t-228.5 -154t-281.5 -57zM811 152q147 0 269.5 74.5t191.5 200.5t69 275q0 150 -69 277
t-191.5 201.5t-269.5 74.5q-146 0 -267 -74.5t-190 -201.5t-69 -277q0 -149 69 -275t190 -200.5t267 -74.5z" />
    <glyph glyph-name="P" unicode="P" horiz-adv-x="1249" 
d="M758 1411q108 0 191 -37.5t131.5 -101t73 -140t24.5 -161.5q0 -87 -24.5 -163.5t-73 -140t-131.5 -100.5t-191 -37h-375v-530h-186v1411h561zM745 705q123 0 184.5 77t61.5 189q0 51 -13.5 97.5t-40.5 85.5t-74 62t-107 23h-373v-534h362z" />
    <glyph glyph-name="Q" unicode="Q" horiz-adv-x="1628" 
d="M1528 702q0 -192 -90.5 -354.5t-245.5 -259.5l147 -235l-143 -89l-158 252q-101 -36 -227 -36q-148 0 -280.5 57t-227 154t-150 230.5t-55.5 280.5q0 198 94 364.5t258 263.5t361 97q198 0 363 -97t259.5 -263.5t94.5 -364.5zM811 152q64 0 133 16l-151 244l141 88
l164 -262q113 74 178 196.5t65 267.5q0 150 -69 277t-191.5 201.5t-269.5 74.5q-146 0 -267 -74.5t-190 -201.5t-69 -277q0 -149 69 -275t190 -200.5t267 -74.5z" />
    <glyph glyph-name="R" unicode="R" horiz-adv-x="1265" 
d="M936 0l-369 532h-184v-532h-186v1411h530q111 0 195.5 -37.5t133.5 -101t73 -139.5t24 -162q0 -80 -21 -151.5t-63.5 -133t-115.5 -101.5t-169 -50l375 -535h-223zM383 1239v-537h295q149 0 219 71.5t70 197.5q0 119 -64.5 193.5t-171.5 74.5h-348z" />
    <glyph glyph-name="S" unicode="S" horiz-adv-x="1167" 
d="M602 -20q-144 0 -259 60.5t-176.5 156.5t-62.5 206h185q5 -100 91.5 -175.5t221.5 -75.5q132 0 208.5 70t76.5 169q0 166 -244 230l-182 45q-86 21 -150.5 55t-101 70t-58.5 81t-29 81t-7 75q0 118 65 210.5t170.5 140.5t229.5 48t225 -49t161 -143t60 -217h-184
q0 105 -77 171t-192 66q-111 0 -191.5 -62.5t-80.5 -162.5q0 -147 205 -196l184 -46q184 -45 283.5 -144t99.5 -247q0 -82 -33 -157.5t-92 -133t-149 -92t-197 -34.5z" />
    <glyph glyph-name="T" unicode="T" horiz-adv-x="1128" 
d="M1087 1411v-172h-430v-1239h-186v1239h-430v172h1046z" />
    <glyph glyph-name="U" unicode="U" horiz-adv-x="1388" 
d="M694 -20q-141 0 -256.5 58t-186.5 174t-71 271v928h187v-928q0 -158 93 -241.5t234 -83.5t234.5 83.5t93.5 241.5v928h186v-928q0 -155 -71 -271t-186.5 -174t-256.5 -58z" />
    <glyph glyph-name="V" unicode="V" horiz-adv-x="1136" 
d="M891 1411h190l-424 -1411h-178l-428 1411h193l323 -1100z" />
    <glyph glyph-name="W" unicode="W" horiz-adv-x="1849" 
d="M1618 1411h199l-478 -1411h-161l-254 891l-252 -891h-162l-477 1411h198l361 -1116l262 924h141l265 -920z" />
    <glyph glyph-name="X" unicode="X" horiz-adv-x="1243" 
d="M1227 0h-223l-383 606l-383 -606h-222l494 760l-438 651h221l328 -502l329 502h221l-440 -653z" />
    <glyph glyph-name="Y" unicode="Y" horiz-adv-x="1277" 
d="M1051 1411h223l-543 -760v-651h-186v651l-537 760h221l410 -577z" />
    <glyph glyph-name="Z" unicode="Z" horiz-adv-x="1159" 
d="M1065 1411v-160l-754 -1079h754v-172h-983v160l749 1079h-722v172h956z" />
    <glyph glyph-name="bracketleft" unicode="[" horiz-adv-x="649" 
d="M586 1321h-226v-1491h226v-158h-404v1807h404v-158z" />
    <glyph glyph-name="backslash" unicode="\" horiz-adv-x="978" 
d="M748 0l-697 1411h178l697 -1411h-178z" />
    <glyph glyph-name="bracketright" unicode="]" horiz-adv-x="649" 
d="M63 1479h406v-1807h-406v158h228v1491h-228v158z" />
    <glyph glyph-name="asciicircum" unicode="^" horiz-adv-x="976" 
d="M895 623h-178l-228 585l-227 -585h-180l321 788h170z" />
    <glyph glyph-name="underscore" unicode="_" horiz-adv-x="1392" 
d="M125 -219v162h1143v-162h-1143z" />
    <glyph glyph-name="grave" unicode="`" horiz-adv-x="1040" 
d="M504 1133l-242 315h217l199 -315h-174z" />
    <glyph glyph-name="a" unicode="a" horiz-adv-x="1245" 
d="M911 956h179v-956h-179v152q-46 -81 -140 -126.5t-200 -45.5q-98 0 -185.5 36t-152.5 100t-103 158.5t-38 204.5q0 111 37.5 205t102.5 158t152 99.5t185 35.5q111 0 203.5 -44t138.5 -126v149zM586 147q134 0 229.5 92.5t95.5 241.5q0 147 -99 237.5t-226 90.5
q-132 0 -223 -92.5t-91 -235.5q0 -142 91.5 -238t222.5 -96z" />
    <glyph glyph-name="b" unicode="b" horiz-adv-x="1243" 
d="M676 977q98 0 185 -35.5t152 -99.5t102.5 -158t37.5 -205q0 -110 -38 -204.5t-103 -158.5t-152.5 -100t-185.5 -36q-106 0 -200 45.5t-140 126.5v-152h-178v1479h178v-672q46 82 138.5 126t203.5 44zM657 147q133 0 224.5 96t91.5 238q0 143 -91 235.5t-225 92.5
q-80 0 -152.5 -37.5t-121.5 -114.5t-49 -176q0 -149 95 -241.5t228 -92.5z" />
    <glyph glyph-name="c" unicode="c" horiz-adv-x="1038" 
d="M604 -18q-138 0 -254.5 60t-188 175t-71.5 262q0 111 42 205.5t112.5 158t163.5 99t196 35.5q110 0 205 -40.5t160 -111.5l-113 -116q-97 100 -246 100q-144 0 -242 -92.5t-98 -237.5t98 -237t242 -92q149 0 246 100l113 -117q-64 -71 -159 -111t-206 -40z" />
    <glyph glyph-name="d" unicode="d" horiz-adv-x="1245" 
d="M911 1479h179v-1479h-179v152q-46 -81 -140 -126.5t-200 -45.5q-98 0 -185.5 36t-152.5 100t-103 158.5t-38 204.5q0 111 37.5 205t102.5 158t152 99.5t185 35.5q111 0 203.5 -44t138.5 -126v672zM586 147q134 0 229.5 92.5t95.5 241.5q0 147 -99 237.5t-226 90.5
q-132 0 -223 -92.5t-91 -235.5q0 -142 91.5 -238t222.5 -96z" />
    <glyph glyph-name="e" unicode="e" horiz-adv-x="1142" 
d="M1057 481q0 -26 -4 -80h-779q20 -124 103.5 -189t210.5 -65q90 0 164.5 38t113.5 108l156 -62q-61 -121 -179.5 -186t-260.5 -65q-136 0 -247.5 61t-178 176.5t-66.5 263.5q0 222 141.5 359t350.5 137q207 0 341 -136t134 -360zM276 555h603q-17 121 -97 187.5t-200 66.5
q-125 0 -205 -64t-101 -190z" />
    <glyph glyph-name="f" unicode="f" horiz-adv-x="673" 
d="M625 1311q-217 0 -213 -230v-125h223v-153h-223v-803h-179v803h-184v153h184v101q0 197 88 309.5t273 112.5h102v-168h-71z" />
    <glyph glyph-name="g" unicode="g" horiz-adv-x="1245" 
d="M911 956h179v-811q0 -622 -521 -622q-133 0 -247 66t-183 190l152 80q43 -79 119.5 -123.5t158.5 -44.5q166 0 254 104t88 338v19q-46 -81 -140 -126.5t-200 -45.5q-98 0 -185.5 36t-152.5 100t-103 158.5t-38 204.5q0 111 37.5 205t102.5 158t152 99.5t185 35.5
q110 0 203 -44.5t139 -125.5v149zM586 147q134 0 229.5 92.5t95.5 241.5q0 147 -99 237.5t-226 90.5q-132 0 -223 -92.5t-91 -235.5q0 -142 91.5 -238t222.5 -96z" />
    <glyph glyph-name="h" unicode="h" horiz-adv-x="1177" 
d="M651 977q180 0 283 -112t102 -312v-553h-178v543q0 118 -64.5 188t-166.5 70q-42 0 -82 -9.5t-78.5 -31t-67.5 -53t-47 -80.5t-18 -109v-518h-178v1479h178v-668q20 42 58.5 75t83 52t89.5 29t86 10z" />
    <glyph glyph-name="i" unicode="i" horiz-adv-x="487" 
d="M244 1190q-52 0 -88.5 34.5t-36.5 84.5t36.5 84t88.5 34q53 0 90 -34t37 -84q0 -51 -37 -85t-90 -34zM156 0v956h178v-956h-178z" />
    <glyph glyph-name="j" unicode="j" horiz-adv-x="503" 
d="M260 1190q-52 0 -88.5 34.5t-36.5 84.5t36.5 84t88.5 34q53 0 90 -34t37 -84q0 -51 -37 -85t-90 -34zM-115 -465v168h109q46 0 79.5 15t52.5 38t30 57t14 65t2 69v1009h178v-1011q0 -410 -342 -410h-123z" />
    <glyph glyph-name="k" unicode="k" horiz-adv-x="995" 
d="M1014 0h-240l-440 467v-467h-178v1479h178v-861l332 338h247l-409 -413z" />
    <glyph glyph-name="l" unicode="l" horiz-adv-x="487" 
d="M156 0v1479h178v-1479h-178z" />
    <glyph glyph-name="m" unicode="m" horiz-adv-x="1802" 
d="M1290 977q179 0 275 -111t96 -313v-553h-178v543q0 120 -62 191t-166 71q-126 1 -197 -92.5t-59 -233.5l-2 8v-487h-178v543q0 120 -59.5 191t-155.5 71q-112 0 -191 -72.5t-79 -214.5v-518h-178v956h178v-145q36 76 120.5 121t186.5 45q106 0 190 -52.5t125 -146.5
q30 60 73.5 102t91 61.5t87.5 27.5t82 8z" />
    <glyph glyph-name="n" unicode="n" horiz-adv-x="1177" 
d="M651 977q180 0 283 -112t102 -312v-553h-178v543q0 118 -64.5 188t-166.5 70q-42 0 -82 -9.5t-78.5 -31t-67.5 -53t-47 -80.5t-18 -109v-518h-178v956h178v-145q20 42 58.5 75t83 52t89.5 29t86 10z" />
    <glyph glyph-name="o" unicode="o" horiz-adv-x="1183" 
d="M590 -20q-136 0 -249.5 61t-182 177t-68.5 263t68.5 261.5t181.5 174.5t250 60t250.5 -60t182.5 -174.5t69 -261.5t-69 -263t-183 -177t-250 -61zM590 147q135 0 229 94t94 240q0 145 -94 236.5t-229 91.5q-134 0 -227 -91.5t-93 -236.5q0 -146 93.5 -240t226.5 -94z" />
    <glyph glyph-name="p" unicode="p" horiz-adv-x="1245" 
d="M674 977q98 0 185.5 -36t152.5 -100.5t103 -159t38 -204.5q0 -111 -37.5 -205t-102.5 -157.5t-152 -99t-185 -35.5q-111 0 -203.5 44t-138.5 126v-615h-178v1421h178v-151q46 81 140 126.5t200 45.5zM657 147q134 0 225 92.5t91 235.5q0 142 -91.5 238t-224.5 96
t-228 -92.5t-95 -241.5q0 -99 49 -176t121.5 -114.5t152.5 -37.5z" />
    <glyph glyph-name="q" unicode="q" horiz-adv-x="1245" 
d="M911 956h179v-1421h-179v615q-46 -82 -138.5 -126t-203.5 -44q-98 0 -185 35.5t-152 99t-102.5 157.5t-37.5 205q0 110 38 204.5t103 159t152.5 100.5t185.5 36q106 0 200 -45.5t140 -126.5v151zM586 147q127 0 226 90.5t99 237.5q0 149 -95.5 241.5t-229.5 92.5
q-131 0 -222.5 -96t-91.5 -238q0 -143 91 -235.5t223 -92.5z" />
    <glyph glyph-name="r" unicode="r" horiz-adv-x="792" 
d="M604 977q48 0 95.5 -11t70.5 -26l-29 -168q-67 33 -139 33q-91 0 -152.5 -62.5t-87.5 -162t-26 -230.5v-350h-180v956h180v-217q69 238 268 238z" />
    <glyph glyph-name="s" unicode="s" horiz-adv-x="892" 
d="M436 -20q-138 0 -244 82.5t-112 222.5h166q2 -64 53.5 -107t136.5 -43q89 0 141 37t52 96q0 97 -131 125l-131 31q-126 34 -189 98.5t-63 175.5q0 120 92 199.5t235 79.5q63 0 120.5 -17t105 -49.5t76 -87.5t28.5 -125h-172q-1 54 -47.5 88.5t-106.5 34.5
q-68 0 -110.5 -36.5t-42.5 -92.5q0 -46 35 -74t88 -40l141 -35q250 -62 250 -277q0 -129 -108 -207.5t-263 -78.5z" />
    <glyph glyph-name="t" unicode="t" horiz-adv-x="657" 
d="M614 956v-153h-206v-803h-179v803h-172v153h172v363h179v-363h206z" />
    <glyph glyph-name="u" unicode="u" horiz-adv-x="1177" 
d="M846 956h178v-956h-178v150q-39 -82 -133 -126t-185 -44q-181 0 -283.5 111.5t-101.5 311.5v553h179v-542q0 -118 64 -188t165 -70q53 0 102.5 15.5t93.5 47t71 88.5t28 131v518z" />
    <glyph glyph-name="v" unicode="v" horiz-adv-x="1032" 
d="M809 956h192l-399 -956h-174l-397 956h190l295 -729z" />
    <glyph glyph-name="w" unicode="w" horiz-adv-x="1595" 
d="M1372 956h193l-357 -956h-149l-264 711l-254 -711h-148l-364 956h192l244 -680l244 680h174l245 -680z" />
    <glyph glyph-name="x" unicode="x" horiz-adv-x="1003" 
d="M985 0h-213l-270 375l-273 -375h-213l379 526l-309 430h215l201 -284l200 284h218l-312 -432z" />
    <glyph glyph-name="y" unicode="y" horiz-adv-x="1028" 
d="M809 956h192l-593 -1421h-189l199 492l-383 929h192l289 -704z" />
    <glyph glyph-name="z" unicode="z" horiz-adv-x="1015" 
d="M922 956v-147l-590 -641h590v-168h-840v147l580 641h-549v168h809z" />
    <glyph glyph-name="braceleft" unicode="{" horiz-adv-x="778" 
d="M369 774q0 -61 -36 -121.5t-100 -77.5q64 -14 100 -75t36 -123v-307q0 -111 67.5 -179.5t214.5 -68.5h76v-150h-127q-171 0 -287.5 110t-115.5 288v323q0 42 -37 75t-88 34v147q51 1 88 34t37 75v323q-1 178 115.5 288t287.5 110h127v-150h-76q-147 0 -214.5 -68.5
t-67.5 -179.5v-307z" />
    <glyph glyph-name="bar" unicode="|" horiz-adv-x="487" 
d="M182 -244v1872h123v-1872h-123z" />
    <glyph glyph-name="braceright" unicode="}" horiz-adv-x="778" 
d="M580 758q0 -42 37 -75t88 -34v-147q-51 -1 -88 -34t-37 -75v-323q1 -178 -115.5 -288t-286.5 -110h-127v150h76q147 0 215 68.5t68 179.5v307q0 63 35 123.5t100 74.5q-65 17 -100 77t-35 122v307q0 111 -68 179.5t-215 68.5h-76v150h127q170 0 286.5 -110t115.5 -288
v-323z" />
    <glyph glyph-name="asciitilde" unicode="~" horiz-adv-x="1398" 
d="M1260 610q-51 -67 -134.5 -113t-173.5 -46q-42 0 -84.5 8.5t-65 16.5t-63.5 26t-51 22q-12 5 -46.5 21t-56 24.5t-58 16.5t-72.5 8q-66 0 -130 -34.5t-110 -84.5l-70 103q52 65 136.5 111t175.5 46q42 0 84 -9t63.5 -16.5t63 -26t49.5 -21.5q12 -5 46.5 -21t56 -24.5
t58 -16.5t72.5 -8q64 0 128 36t110 83z" />
    <glyph glyph-name="exclamdown" unicode="&#xa1;" horiz-adv-x="503" 
d="M250 977q55 0 94 -35t39 -88q0 -55 -39 -91t-94 -36q-53 0 -91 36t-38 91q0 53 38 88t91 35zM182 539h142l18 -1004h-178z" />
    <glyph glyph-name="cent" unicode="&#xa2;" horiz-adv-x="1052" 
d="M612 150q149 0 246 100l113 -117q-57 -65 -142 -104t-184 -45v-224h-123v228q-185 27 -307.5 160t-122.5 331t122.5 331.5t307.5 160.5v215h123v-211q98 -6 183 -46t143 -104l-113 -116q-97 100 -246 100q-144 0 -242 -92.5t-98 -237.5t98 -237t242 -92z" />
    <glyph glyph-name="sterling" unicode="&#xa3;" horiz-adv-x="1267" 
d="M1001 342h179v-100q0 -106 -50 -174t-143 -68h-895v168h187v348h-156v123h156v268q0 109 34.5 196t94 140t134 81t158.5 28q109 0 200 -51.5t146.5 -149.5t55.5 -223h-178q0 116 -65.5 189t-178.5 73q-91 0 -157 -76t-66 -207v-268h311v-123h-311v-348h483q29 0 45 18
t16 50v106z" />
    <glyph glyph-name="currency" unicode="&#xa4;" horiz-adv-x="1208" 
d="M129 1063l109 111l145 -148q103 70 219 70q117 0 223 -70l146 148l108 -111l-143 -145q68 -106 68 -228q0 -115 -68 -215l143 -147l-108 -109l-146 146q-103 -68 -221 -68q-123 0 -223 68l-143 -146l-109 111l143 145q-67 103 -67 217q0 125 69 226zM604 465q96 0 164 67
t68 162t-68.5 163.5t-163.5 68.5t-162 -68t-67 -164q0 -95 67 -162t162 -67z" />
    <glyph glyph-name="yen" unicode="&#xa5;" horiz-adv-x="1382" 
d="M594 0v231h-369v129h369v164h-369v127h369l-535 760h222l407 -575l414 575h223l-541 -760h373v-127h-373v-164h373v-129h-373v-231h-190z" />
    <glyph glyph-name="brokenbar" unicode="&#xa6;" horiz-adv-x="495" 
d="M186 834v794h123v-794h-123zM186 -244v791h123v-791h-123z" />
    <glyph glyph-name="section" unicode="&#xa7;" horiz-adv-x="1042" 
d="M530 285q-169 0 -286 109.5t-117 287.5v326q0 178 117 288.5t286 110.5q129 0 234.5 -74.5t150.5 -202.5l-163 -47q-30 71 -90.5 111.5t-131.5 40.5q-97 0 -164 -63t-67 -164v-326q0 -101 67 -163t164 -62q61 0 115 22v-176q-59 -18 -115 -18zM512 -242
q-129 0 -234.5 74.5t-150.5 202.5l164 47q30 -71 90 -111.5t131 -40.5q97 0 164 63t67 165v325q0 101 -67 163.5t-164 62.5q-58 0 -111 -23v176q66 19 111 19q169 0 286 -110t117 -288v-325q0 -178 -117 -289t-286 -111z" />
    <glyph glyph-name="dieresis" unicode="&#xa8;" horiz-adv-x="1126" 
d="M371 1171q-53 0 -89 33.5t-36 85.5q0 51 36 84t89 33q50 0 85.5 -33.5t35.5 -83.5q0 -52 -35.5 -85.5t-85.5 -33.5zM756 1171q-52 0 -87.5 33.5t-35.5 85.5q0 50 35.5 83.5t87.5 33.5t88.5 -33.5t36.5 -83.5q0 -52 -36.5 -85.5t-88.5 -33.5z" />
    <glyph glyph-name="copyright" unicode="&#xa9;" horiz-adv-x="1630" 
d="M813 -20q-147 0 -279.5 57t-228 154t-151.5 230.5t-56 280.5t56 281t151.5 231.5t228 155t279.5 57.5t280 -57.5t228.5 -155t152 -231.5t56.5 -281q0 -196 -95.5 -362.5t-260.5 -263t-361 -96.5zM813 104q122 0 232.5 47t189.5 127t125.5 191t46.5 233q0 164 -78.5 302.5
t-215.5 219.5t-300 81q-162 0 -298.5 -81t-215 -219.5t-78.5 -302.5q0 -122 46.5 -233t125.5 -191t188.5 -127t231.5 -47zM821 322q-155 0 -261.5 108t-106.5 262t106.5 261.5t261.5 107.5q71 0 143.5 -34.5t133.5 -98.5l-90 -94q-42 42 -92 68t-95 26q-98 0 -165.5 -69.5
t-67.5 -166.5q0 -98 67.5 -166.5t165.5 -68.5q96 0 189 96l90 -100q-59 -62 -132.5 -96.5t-146.5 -34.5z" />
    <glyph glyph-name="ordfeminine" unicode="&#xaa;" horiz-adv-x="1107" 
d="M786 1470h160v-763h-160v122q-40 -66 -116 -102.5t-158 -36.5q-158 0 -269.5 112t-111.5 288q0 177 111.5 288t269.5 111q84 0 159 -35t115 -100v116zM535 840q103 0 176 71t73 179q0 109 -74 178t-175 69t-172.5 -70.5t-71.5 -174.5q0 -105 72 -178.5t172 -73.5z
M164 432v139h762v-139h-762z" />
    <glyph glyph-name="guillemotleft" unicode="&#xab;" horiz-adv-x="989" 
d="M373 53l-283 424l283 424h166l-283 -424l283 -424h-166zM727 53l-283 424l283 424h166l-283 -424l283 -424h-166z" />
    <glyph glyph-name="logicalnot" unicode="&#xac;" horiz-adv-x="1302" 
d="M145 733h1000v-489h-172v315h-828v174z" />
    <glyph glyph-name="uni00AD" unicode="&#xad;" horiz-adv-x="987" 
d="M137 391v172h711v-172h-711z" />
    <glyph glyph-name="registered" unicode="&#xae;" horiz-adv-x="1630" 
d="M813 1427q147 0 280 -57.5t228.5 -155t152 -231.5t56.5 -281q0 -196 -95.5 -362.5t-260.5 -263t-361 -96.5q-147 0 -279.5 57t-228 154t-151.5 230.5t-56 280.5t56 281t151.5 231.5t228 155t279.5 57.5zM813 104q122 0 232.5 47t189.5 127t125.5 191t46.5 233
q0 164 -78.5 302.5t-215.5 219.5t-300 81q-162 0 -298.5 -81t-215 -219.5t-78.5 -302.5q0 -122 46.5 -233t125.5 -191t188.5 -127t231.5 -47zM1081 823q0 -96 -37.5 -150.5t-119.5 -74.5l182 -260h-148l-178 250h-73v-250h-132v711h275q112 0 171.5 -65t59.5 -161zM707 926
v-221h137q54 0 82 33.5t28 76.5q0 44 -28 77.5t-82 33.5h-137z" />
    <glyph glyph-name="macron" unicode="&#xaf;" horiz-adv-x="1005" 
d="M246 1204v158h514v-158h-514z" />
    <glyph glyph-name="degree" unicode="&#xb0;" horiz-adv-x="722" 
d="M362 895q-110 0 -188 78t-78 188q0 109 78 187.5t188 78.5q109 0 188 -78.5t79 -187.5q0 -110 -79 -188t-188 -78zM362 1012q60 0 104 44.5t44 104.5t-44 104t-104 44q-61 0 -105 -44t-44 -104t44 -104.5t105 -44.5z" />
    <glyph glyph-name="plusminus" unicode="&#xb1;" horiz-adv-x="1077" 
d="M625 737h327v-174h-327v-299h-172v299h-328v174h328v295h172v-295zM125 0v164h827v-164h-827z" />
    <glyph glyph-name="uni00B2" unicode="&#xb2;" horiz-adv-x="659" 
d="M303 1202h272v-137h-503l2 88l315 375q31 40 31 78q0 35 -29.5 57.5t-71.5 22.5q-84 0 -110 -109l-137 20q21 104 86 164t172 60q109 0 175 -59.5t66 -159.5q0 -104 -73 -183z" />
    <glyph glyph-name="uni00B3" unicode="&#xb3;" horiz-adv-x="659" 
d="M440 1468q65 -22 103.5 -73t38.5 -121q0 -96 -80 -157.5t-205 -61.5q-159 0 -242 106l92 88q55 -61 140 -61q66 0 104.5 29t38.5 79q0 46 -34.5 74.5t-90.5 28.5h-74v106h35q62 0 96.5 30.5t32.5 74.5q-3 35 -34 56.5t-78 21.5q-41 0 -78.5 -18t-59.5 -46l-71 96
q105 101 233 101q103 0 171.5 -56t68.5 -149q0 -43 -28.5 -82.5t-78.5 -65.5z" />
    <glyph glyph-name="acute" unicode="&#xb4;" horiz-adv-x="1040" 
d="M264 1133l199 315h217l-244 -315h-172z" />
    <glyph glyph-name="uni00B5" unicode="&#xb5;" horiz-adv-x="1183" 
d="M178 956h178v-553q0 -114 51.5 -179.5t143.5 -65.5q52 0 98.5 15.5t87 46.5t64.5 86.5t24 127.5v522h179v-956h-179v121q-40 -68 -117.5 -103.5t-156.5 -35.5q-136 0 -195 67v-360h-178v1267z" />
    <glyph glyph-name="paragraph" unicode="&#xb6;" horiz-adv-x="1314" 
d="M498 -117v641q-176 9 -301 137.5t-125 305.5q0 185 129 314.5t315 129.5h148v-1528h-166zM496 -379v152h186q52 0 76 32t24 80v1526h187q115 0 196.5 -82t81.5 -196v-172h-162v172q0 44 -27.5 78t-68.5 34h-41v-1345q0 -110 -61.5 -191.5t-167.5 -87.5h-223z" />
    <glyph glyph-name="periodcentered" unicode="&#xb7;" horiz-adv-x="538" 
d="M268 389q-54 0 -92.5 35t-38.5 88t39 90t92 37q54 0 92.5 -36.5t38.5 -90.5q0 -53 -38 -88t-93 -35z" />
    <glyph glyph-name="cedilla" unicode="&#xb8;" horiz-adv-x="1067" 
d="M537 -418q-95 0 -152 62t-57 161h121q0 -45 26.5 -73.5t61.5 -28.5q36 0 56.5 23t20.5 61q0 20 -6 35l-86 244h113l84 -193q20 -46 20 -86q0 -92 -56 -148.5t-146 -56.5z" />
    <glyph glyph-name="uni00B9" unicode="&#xb9;" horiz-adv-x="501" 
d="M371 1821h16v-756h-147v565l-185 -74v136z" />
    <glyph glyph-name="ordmasculine" unicode="&#xba;" horiz-adv-x="1081" 
d="M539 692q-110 0 -201.5 49t-147 141.5t-55.5 211.5q0 177 117.5 287t286.5 110q168 0 286.5 -110.5t118.5 -286.5q0 -178 -118.5 -290t-286.5 -112zM539 842q104 0 175.5 70t71.5 182q0 110 -71.5 178.5t-175.5 68.5q-102 0 -173 -68.5t-71 -178.5q0 -111 71 -181.5
t173 -70.5zM160 571h762v-139h-762v139z" />
    <glyph glyph-name="guillemotright" unicode="&#xbb;" horiz-adv-x="989" 
d="M94 53l283 424l-283 424h168l283 -424l-283 -424h-168zM449 53l282 424l-282 424h167l283 -424l-283 -424h-167z" />
    <glyph glyph-name="onequarter" unicode="&#xbc;" horiz-adv-x="1562" 
d="M1075 1372h133l-921 -1392h-135zM240 594v563l-185 -74v136l316 131h14v-756h-145zM1503 268v-129h-125v-139h-151v139h-359v54l381 552h129v-477h125zM1057 268h170v258z" />
    <glyph glyph-name="onehalf" unicode="&#xbd;" horiz-adv-x="1529" 
d="M1075 1372h133l-921 -1392h-135zM240 594v563l-185 -74v136l316 131h14v-756h-145zM1171 135h275v-135h-504l2 88l316 373q30 42 30 78q0 35 -29 58.5t-71 23.5q-85 0 -111 -109l-137 18q21 105 86 165.5t172 60.5q109 0 175.5 -60.5t66.5 -160.5q0 -104 -76 -183z" />
    <glyph glyph-name="threequarters" unicode="&#xbe;" horiz-adv-x="1720" 
d="M1233 1372h133l-922 -1392h-135zM582 803q0 -96 -80 -157.5t-205 -61.5q-161 0 -242 106l92 86q55 -61 140 -61q66 0 104.5 29t38.5 79q0 46 -35 75.5t-90 29.5h-74v104h35q62 0 96.5 30.5t32.5 74.5q-3 35 -34 56t-78 21q-41 0 -78.5 -17.5t-59.5 -45.5l-71 96
q103 103 233 103q103 0 171.5 -56.5t68.5 -150.5q0 -43 -29 -82t-78 -64q66 -24 104 -74.5t38 -119.5zM1661 268v-129h-125v-139h-152v139h-358v54l381 552h129v-477h125zM1214 268h170v258z" />
    <glyph glyph-name="questiondown" unicode="&#xbf;" horiz-adv-x="952" 
d="M598 977q55 0 93 -35t38 -88q0 -55 -38 -91t-93 -36t-92 36t-37 91q0 53 37 88t92 35zM684 551l2 -90q3 -128 -49.5 -193.5t-155.5 -103.5l-69 -25q-75 -29 -122.5 -84t-47.5 -135q0 -108 62.5 -169.5t160.5 -61.5t172 69.5t80 188.5h170q0 -95 -35 -175.5t-94 -134.5
t-135 -84t-158 -30q-170 0 -286 109t-116 288q0 142 84.5 244t212.5 143q76 24 112 55.5t36 98.5l2 90h174z" />
    <glyph glyph-name="Agrave" unicode="&#xc0;" horiz-adv-x="1280" 
d="M721 1550h-174l-242 316h217zM1081 0l-137 362h-606l-137 -362h-195l537 1411h196l537 -1411h-195zM399 526h484l-242 639z" />
    <glyph glyph-name="Aacute" unicode="&#xc1;" horiz-adv-x="1280" 
d="M987 1866l-244 -316h-172l199 316h217zM1081 0l-137 362h-606l-137 -362h-195l537 1411h196l537 -1411h-195zM399 526h484l-242 639z" />
    <glyph glyph-name="Acircumflex" unicode="&#xc2;" horiz-adv-x="1280" 
d="M639 1733l-154 -183h-163l225 316h186l225 -316h-163zM1081 0l-137 362h-606l-137 -362h-195l537 1411h196l537 -1411h-195zM399 526h484l-242 639z" />
    <glyph glyph-name="Atilde" unicode="&#xc3;" horiz-adv-x="1280" 
d="M549 1675q-21 0 -38.5 -22.5t-18.5 -67.5h-121q7 123 58 179.5t120 56.5q39 0 75.5 -21.5t63.5 -43t43 -21.5q22 0 40.5 20.5t19.5 63.5h120q-7 -121 -59 -175.5t-121 -54.5q-39 0 -73 21.5t-61 43t-48 21.5zM1081 0l-137 362h-606l-137 -362h-195l537 1411h196
l537 -1411h-195zM399 526h484l-242 639z" />
    <glyph glyph-name="Adieresis" unicode="&#xc4;" horiz-adv-x="1280" 
d="M449 1575q-53 0 -89 34t-36 85q0 50 36 83t89 33q50 0 85 -33t35 -83q0 -51 -35 -85t-85 -34zM834 1575q-51 0 -87 34t-36 85q0 50 35.5 83t87.5 33t88 -33t36 -83q0 -51 -36 -85t-88 -34zM1081 0l-137 362h-606l-137 -362h-195l537 1411h196l537 -1411h-195zM399 526
h484l-242 639z" />
    <glyph glyph-name="Aring" unicode="&#xc5;" horiz-adv-x="1280" 
d="M637 1548q-88 0 -149.5 61t-61.5 150q0 90 61.5 152.5t149.5 62.5q91 0 154 -62t63 -153q0 -89 -63 -150t-154 -61zM637 1868q-43 0 -74 -32t-31 -77q0 -44 31 -75t74 -31q46 0 78.5 31t32.5 75q0 46 -32.5 77.5t-78.5 31.5zM1081 0l-137 362h-606l-137 -362h-195
l537 1411h196l537 -1411h-195zM399 526h484l-242 639z" />
    <glyph glyph-name="AE" unicode="&#xc6;" horiz-adv-x="1871" 
d="M1102 172h665v-172h-847v356h-537l-211 -356h-211l836 1411h948v-172h-643v-459h563v-174h-563v-434zM487 532h433v703h-17z" />
    <glyph glyph-name="Ccedilla" unicode="&#xc7;" horiz-adv-x="1413" 
d="M815 152q117 0 220 48.5t175 133.5l136 -115q-87 -102 -208.5 -164.5t-263.5 -72.5l48 -109q20 -46 20 -86q0 -92 -56.5 -148.5t-146.5 -56.5q-95 0 -152 62t-57 161h121q0 -45 26.5 -73.5t61.5 -28.5q36 0 57 23.5t21 60.5q0 20 -6 35l-57 160q-182 15 -332.5 114.5
t-237 259.5t-86.5 346q0 197 95.5 363t260.5 263t361 97q160 0 297.5 -63.5t233.5 -175.5l-136 -115q-72 85 -175 133.5t-220 48.5q-146 0 -268 -74t-192 -201t-70 -276t70 -275t192 -200.5t268 -74.5z" />
    <glyph glyph-name="Egrave" unicode="&#xc8;" 
d="M662 1550h-175l-241 316h217zM381 172h668v-172h-852v1411h831v-172h-647v-459h565v-174h-565v-434z" />
    <glyph glyph-name="Eacute" unicode="&#xc9;" 
d="M928 1866l-244 -316h-172l199 316h217zM381 172h668v-172h-852v1411h831v-172h-647v-459h565v-174h-565v-434z" />
    <glyph glyph-name="Ecircumflex" unicode="&#xca;" 
d="M580 1733l-154 -183h-164l225 316h187l225 -316h-164zM381 172h668v-172h-852v1411h831v-172h-647v-459h565v-174h-565v-434z" />
    <glyph glyph-name="Edieresis" unicode="&#xcb;" 
d="M389 1575q-53 0 -89 34t-36 85q0 50 36 83t89 33q50 0 85.5 -33t35.5 -83t-35.5 -84.5t-85.5 -34.5zM774 1575q-51 0 -87 34t-36 85q0 50 35.5 83t87.5 33t88.5 -33t36.5 -83t-36.5 -84.5t-88.5 -34.5zM381 172h668v-172h-852v1411h831v-172h-647v-459h565v-174h-565
v-434z" />
    <glyph glyph-name="Igrave" unicode="&#xcc;" horiz-adv-x="577" 
d="M195 1550l-242 316h217l199 -316h-174zM197 0v1411h186v-1411h-186z" />
    <glyph glyph-name="Iacute" unicode="&#xcd;" horiz-adv-x="577" 
d="M219 1550l199 316h217l-244 -316h-172zM197 0v1411h186v-1411h-186z" />
    <glyph glyph-name="Icircumflex" unicode="&#xce;" horiz-adv-x="577" 
d="M-31 1550l226 316h186l225 -316h-164l-155 183l-154 -183h-164zM197 0v1411h186v-1411h-186z" />
    <glyph glyph-name="Idieresis" unicode="&#xcf;" horiz-adv-x="577" 
d="M96 1575q-53 0 -89 34t-36 85q0 50 36 83t89 33q50 0 85.5 -33t35.5 -83t-35.5 -84.5t-85.5 -34.5zM481 1575q-51 0 -87 34t-36 85q0 50 35.5 83t87.5 33t88.5 -33t36.5 -83t-36.5 -84.5t-88.5 -34.5zM197 0v1411h186v-1411h-186z" />
    <glyph glyph-name="Eth" unicode="&#xd0;" horiz-adv-x="1492" 
d="M750 1411q147 0 268 -54.5t201 -150t123.5 -225t43.5 -279.5q0 -201 -74.5 -359t-220 -250.5t-341.5 -92.5h-547v639h-154v135h154v637h547zM750 172q144 0 247.5 70.5t153 188.5t49.5 271t-49.5 273t-153 192t-247.5 72h-361v-465h344v-135h-344v-467h361z" />
    <glyph glyph-name="Ntilde" unicode="&#xd1;" horiz-adv-x="1409" 
d="M612 1675q-21 0 -38.5 -22.5t-18.5 -67.5h-121q7 123 58 179.5t120 56.5q39 0 76 -21.5t64 -43t43 -21.5q22 0 40 20.5t19 63.5h121q-7 -121 -59 -175.5t-121 -54.5q-39 0 -73 21.5t-61.5 43t-48.5 21.5zM1028 1411h186v-1411h-180l-651 1075v-1075h-186v1411h184
l647 -1071v1071z" />
    <glyph glyph-name="Ograve" unicode="&#xd2;" horiz-adv-x="1628" 
d="M719 1550l-242 316h217l199 -316h-174zM811 -20q-148 0 -280.5 57t-227 154t-150 230.5t-55.5 280.5q0 198 94 364.5t258 263.5t361 97q198 0 363 -97t259.5 -263.5t94.5 -364.5q0 -147 -56 -280.5t-151 -230.5t-228.5 -154t-281.5 -57zM811 152q147 0 269.5 74.5
t191.5 200.5t69 275q0 150 -69 277t-191.5 201.5t-269.5 74.5q-146 0 -267 -74.5t-190 -201.5t-69 -277q0 -149 69 -275t190 -200.5t267 -74.5z" />
    <glyph glyph-name="Oacute" unicode="&#xd3;" horiz-adv-x="1628" 
d="M743 1550l199 316h217l-244 -316h-172zM811 -20q-148 0 -280.5 57t-227 154t-150 230.5t-55.5 280.5q0 198 94 364.5t258 263.5t361 97q198 0 363 -97t259.5 -263.5t94.5 -364.5q0 -147 -56 -280.5t-151 -230.5t-228.5 -154t-281.5 -57zM811 152q147 0 269.5 74.5
t191.5 200.5t69 275q0 150 -69 277t-191.5 201.5t-269.5 74.5q-146 0 -267 -74.5t-190 -201.5t-69 -277q0 -149 69 -275t190 -200.5t267 -74.5z" />
    <glyph glyph-name="Ocircumflex" unicode="&#xd4;" horiz-adv-x="1628" 
d="M494 1550l225 316h186l225 -316h-163l-156 183l-154 -183h-163zM811 -20q-148 0 -280.5 57t-227 154t-150 230.5t-55.5 280.5q0 198 94 364.5t258 263.5t361 97q198 0 363 -97t259.5 -263.5t94.5 -364.5q0 -147 -56 -280.5t-151 -230.5t-228.5 -154t-281.5 -57zM811 152
q147 0 269.5 74.5t191.5 200.5t69 275q0 150 -69 277t-191.5 201.5t-269.5 74.5q-146 0 -267 -74.5t-190 -201.5t-69 -277q0 -149 69 -275t190 -200.5t267 -74.5z" />
    <glyph glyph-name="Otilde" unicode="&#xd5;" horiz-adv-x="1628" 
d="M543 1585q7 123 58 179.5t120 56.5q39 0 75.5 -21.5t63.5 -43t43 -21.5q22 0 40.5 20.5t19.5 63.5h120q-7 -121 -59 -175.5t-121 -54.5q-39 0 -73 21.5t-61 43t-48 21.5t-38.5 -22.5t-18.5 -67.5h-121zM811 -20q-148 0 -280.5 57t-227 154t-150 230.5t-55.5 280.5
q0 198 94 364.5t258 263.5t361 97q198 0 363 -97t259.5 -263.5t94.5 -364.5q0 -147 -56 -280.5t-151 -230.5t-228.5 -154t-281.5 -57zM811 152q147 0 269.5 74.5t191.5 200.5t69 275q0 150 -69 277t-191.5 201.5t-269.5 74.5q-146 0 -267 -74.5t-190 -201.5t-69 -277
q0 -149 69 -275t190 -200.5t267 -74.5z" />
    <glyph glyph-name="Odieresis" unicode="&#xd6;" horiz-adv-x="1628" 
d="M621 1575q-53 0 -89 34t-36 85q0 50 36 83t89 33q50 0 85 -33t35 -83q0 -51 -35 -85t-85 -34zM1006 1575q-51 0 -87 34t-36 85q0 50 35.5 83t87.5 33t88 -33t36 -83q0 -51 -36 -85t-88 -34zM811 -20q-148 0 -280.5 57t-227 154t-150 230.5t-55.5 280.5q0 198 94 364.5
t258 263.5t361 97q198 0 363 -97t259.5 -263.5t94.5 -364.5q0 -147 -56 -280.5t-151 -230.5t-228.5 -154t-281.5 -57zM811 152q147 0 269.5 74.5t191.5 200.5t69 275q0 150 -69 277t-191.5 201.5t-269.5 74.5q-146 0 -267 -74.5t-190 -201.5t-69 -277q0 -149 69 -275
t190 -200.5t267 -74.5z" />
    <glyph glyph-name="multiply" unicode="&#xd7;" horiz-adv-x="987" 
d="M870 811l-254 -252l254 -254l-120 -125l-256 256l-254 -252l-123 119l256 256l-256 254l123 119l254 -252l256 256z" />
    <glyph glyph-name="Oslash" unicode="&#xd8;" horiz-adv-x="1638" 
d="M1366 1171q168 -201 168 -469q0 -147 -56 -280.5t-151 -230.5t-228.5 -154t-281.5 -57q-258 0 -452 161l-162 -168l-94 95l161 168q-166 200 -166 466q0 198 94 364.5t258 263.5t361 97q260 0 457 -163l166 170l92 -93zM291 702q0 -189 108 -335l750 770
q-144 118 -332 118q-146 0 -267 -74.5t-190 -201.5t-69 -277zM817 152q148 0 270 74t191.5 200t69.5 276q0 187 -109 338l-750 -772q141 -116 328 -116z" />
    <glyph glyph-name="Ugrave" unicode="&#xd9;" horiz-adv-x="1388" 
d="M600 1550l-242 316h217l199 -316h-174zM694 -20q-141 0 -256.5 58t-186.5 174t-71 271v928h187v-928q0 -158 93 -241.5t234 -83.5t234.5 83.5t93.5 241.5v928h186v-928q0 -155 -71 -271t-186.5 -174t-256.5 -58z" />
    <glyph glyph-name="Uacute" unicode="&#xda;" horiz-adv-x="1388" 
d="M625 1550l198 316h217l-243 -316h-172zM694 -20q-141 0 -256.5 58t-186.5 174t-71 271v928h187v-928q0 -158 93 -241.5t234 -83.5t234.5 83.5t93.5 241.5v928h186v-928q0 -155 -71 -271t-186.5 -174t-256.5 -58z" />
    <glyph glyph-name="Ucircumflex" unicode="&#xdb;" horiz-adv-x="1388" 
d="M375 1550l225 316h186l226 -316h-164l-156 183l-153 -183h-164zM694 -20q-141 0 -256.5 58t-186.5 174t-71 271v928h187v-928q0 -158 93 -241.5t234 -83.5t234.5 83.5t93.5 241.5v928h186v-928q0 -155 -71 -271t-186.5 -174t-256.5 -58z" />
    <glyph glyph-name="Udieresis" unicode="&#xdc;" horiz-adv-x="1388" 
d="M502 1575q-53 0 -89 34t-36 85q0 50 36 83t89 33q50 0 85.5 -33t35.5 -83t-35.5 -84.5t-85.5 -34.5zM887 1575q-51 0 -87 34t-36 85q0 50 35.5 83t87.5 33t88.5 -33t36.5 -83t-36.5 -84.5t-88.5 -34.5zM694 -20q-141 0 -256.5 58t-186.5 174t-71 271v928h187v-928
q0 -158 93 -241.5t234 -83.5t234.5 83.5t93.5 241.5v928h186v-928q0 -155 -71 -271t-186.5 -174t-256.5 -58z" />
    <glyph glyph-name="Yacute" unicode="&#xdd;" horiz-adv-x="1277" 
d="M985 1866l-244 -316h-172l199 316h217zM1051 1411h223l-543 -760v-651h-186v651l-537 760h221l410 -577z" />
    <glyph glyph-name="Thorn" unicode="&#xde;" horiz-adv-x="1193" 
d="M674 1143q185 0 307.5 -119t122.5 -313q0 -198 -122.5 -319.5t-307.5 -121.5h-291v-270h-186v1411h186v-268h291zM678 442q104 0 176 76.5t72 192.5q0 118 -76 189t-188 71h-279v-529h295z" />
    <glyph glyph-name="germandbls" unicode="&#xdf;" horiz-adv-x="1191" 
d="M819 850q127 -45 205 -154.5t78 -253.5q0 -203 -136 -332.5t-352 -129.5q-83 -4 -186 28l37 158q79 -21 151 -21q134 0 221 85t87 221q0 134 -92 219.5t-230 85.5h-76v147h58q93 0 151 62.5t58 158.5q0 94 -58 146.5t-157 52.5q-114 0 -179 -72t-65 -223v-1028h-178v1028
q0 227 113 345t306 118q178 0 287 -95.5t109 -248.5q0 -92 -40.5 -171.5t-111.5 -125.5z" />
    <glyph glyph-name="agrave" unicode="&#xe0;" horiz-adv-x="1245" 
d="M700 1096h-174l-241 315h217zM911 956h179v-956h-179v152q-46 -81 -140 -126.5t-200 -45.5q-98 0 -185.5 36t-152.5 100t-103 158.5t-38 204.5q0 111 37.5 205t102.5 158t152 99.5t185 35.5q111 0 203.5 -44t138.5 -126v149zM586 147q134 0 229.5 92.5t95.5 241.5
q0 147 -99 237.5t-226 90.5q-132 0 -223 -92.5t-91 -235.5q0 -142 91.5 -238t222.5 -96z" />
    <glyph glyph-name="aacute" unicode="&#xe1;" horiz-adv-x="1245" 
d="M967 1411l-244 -315h-172l199 315h217zM911 956h179v-956h-179v152q-46 -81 -140 -126.5t-200 -45.5q-98 0 -185.5 36t-152.5 100t-103 158.5t-38 204.5q0 111 37.5 205t102.5 158t152 99.5t185 35.5q111 0 203.5 -44t138.5 -126v149zM586 147q134 0 229.5 92.5
t95.5 241.5q0 147 -99 237.5t-226 90.5q-132 0 -223 -92.5t-91 -235.5q0 -142 91.5 -238t222.5 -96z" />
    <glyph glyph-name="acircumflex" unicode="&#xe2;" horiz-adv-x="1245" 
d="M618 1278l-153 -182h-164l225 315h187l225 -315h-164zM911 956h179v-956h-179v152q-46 -81 -140 -126.5t-200 -45.5q-98 0 -185.5 36t-152.5 100t-103 158.5t-38 204.5q0 111 37.5 205t102.5 158t152 99.5t185 35.5q111 0 203.5 -44t138.5 -126v149zM586 147
q134 0 229.5 92.5t95.5 241.5q0 147 -99 237.5t-226 90.5q-132 0 -223 -92.5t-91 -235.5q0 -142 91.5 -238t222.5 -96z" />
    <glyph glyph-name="atilde" unicode="&#xe3;" horiz-adv-x="1245" 
d="M528 1221q-20 0 -38 -23t-19 -68h-121q7 123 58 179.5t120 56.5q39 0 76 -21.5t64 -43t43 -21.5q22 0 40 20.5t19 63.5h121q-7 -121 -59 -175t-121 -54q-39 0 -73 21.5t-61.5 43t-48.5 21.5zM911 956h179v-956h-179v152q-46 -81 -140 -126.5t-200 -45.5q-98 0 -185.5 36
t-152.5 100t-103 158.5t-38 204.5q0 111 37.5 205t102.5 158t152 99.5t185 35.5q111 0 203.5 -44t138.5 -126v149zM586 147q134 0 229.5 92.5t95.5 241.5q0 147 -99 237.5t-226 90.5q-132 0 -223 -92.5t-91 -235.5q0 -142 91.5 -238t222.5 -96z" />
    <glyph glyph-name="adieresis" unicode="&#xe4;" horiz-adv-x="1245" 
d="M428 1120q-53 0 -89 34t-36 85t36 84t89 33q50 0 85.5 -33.5t35.5 -83.5t-35.5 -84.5t-85.5 -34.5zM813 1120q-51 0 -87 34t-36 85q0 50 35.5 83.5t87.5 33.5t88.5 -33.5t36.5 -83.5t-36.5 -84.5t-88.5 -34.5zM911 956h179v-956h-179v152q-46 -81 -140 -126.5t-200 -45.5
q-98 0 -185.5 36t-152.5 100t-103 158.5t-38 204.5q0 111 37.5 205t102.5 158t152 99.5t185 35.5q111 0 203.5 -44t138.5 -126v149zM586 147q134 0 229.5 92.5t95.5 241.5q0 147 -99 237.5t-226 90.5q-132 0 -223 -92.5t-91 -235.5q0 -142 91.5 -238t222.5 -96z" />
    <glyph glyph-name="aring" unicode="&#xe5;" horiz-adv-x="1245" 
d="M616 1094q-88 0 -149 61t-61 150q0 91 61 153t149 62q91 0 154.5 -62.5t63.5 -152.5q0 -89 -63.5 -150t-154.5 -61zM616 1413q-43 0 -73.5 -31.5t-30.5 -76.5q0 -44 30.5 -75.5t73.5 -31.5q46 0 78.5 31.5t32.5 75.5q0 45 -32.5 76.5t-78.5 31.5zM911 956h179v-956h-179
v152q-46 -81 -140 -126.5t-200 -45.5q-98 0 -185.5 36t-152.5 100t-103 158.5t-38 204.5q0 111 37.5 205t102.5 158t152 99.5t185 35.5q111 0 203.5 -44t138.5 -126v149zM586 147q134 0 229.5 92.5t95.5 241.5q0 147 -99 237.5t-226 90.5q-132 0 -223 -92.5t-91 -235.5
q0 -142 91.5 -238t222.5 -96z" />
    <glyph glyph-name="ae" unicode="&#xe6;" horiz-adv-x="1830" 
d="M1745 481q0 -26 -4 -80h-776q22 -116 107 -185t204 -69q90 0 164 37.5t114 108.5l154 -62q-60 -121 -178 -186t-260 -65q-129 0 -237.5 56t-174.5 157q-185 -213 -426 -213q-157 0 -255.5 79.5t-98.5 212.5q0 132 99 217.5t286 85.5q188 0 315 -71v71q0 110 -65.5 173
t-186.5 63q-80 0 -158.5 -31t-129.5 -88l-111 107q48 67 123 109t141.5 55.5t134.5 13.5q265 0 369 -162q70 77 167 119.5t208 42.5q207 0 341 -136t134 -360zM965 555h602q-17 121 -97 187.5t-200 66.5q-133 0 -208.5 -68t-96.5 -186zM434 141q91 0 198 53.5t159 133.5
l-13 32q-68 39 -151 56.5t-150 17.5q-64 0 -111 -15t-71.5 -39.5t-35.5 -50.5t-11 -53q0 -59 49 -97t137 -38z" />
    <glyph glyph-name="ccedilla" unicode="&#xe7;" horiz-adv-x="1038" 
d="M610 150q149 0 246 100l113 -117q-103 -116 -269 -143l52 -117q20 -46 20 -86q0 -92 -56.5 -148.5t-146.5 -56.5q-95 0 -152 62t-57 161h121q0 -45 26.5 -73.5t61.5 -28.5q36 0 57 23.5t21 60.5q0 20 -6 35l-57 160q-134 5 -245.5 66.5t-180 174.5t-68.5 256
q0 111 42 205.5t112.5 158t163.5 99t196 35.5q110 0 205 -40.5t160 -111.5l-113 -116q-97 100 -246 100q-144 0 -242 -92.5t-98 -237.5t98 -237t242 -92z" />
    <glyph glyph-name="egrave" unicode="&#xe8;" horiz-adv-x="1142" 
d="M649 1096h-174l-242 315h218zM1057 481q0 -26 -4 -80h-779q20 -124 103.5 -189t210.5 -65q90 0 164.5 38t113.5 108l156 -62q-61 -121 -179.5 -186t-260.5 -65q-136 0 -247.5 61t-178 176.5t-66.5 263.5q0 222 141.5 359t350.5 137q207 0 341 -136t134 -360zM276 555h603
q-17 121 -97 187.5t-200 66.5q-125 0 -205 -64t-101 -190z" />
    <glyph glyph-name="eacute" unicode="&#xe9;" horiz-adv-x="1142" 
d="M915 1411l-243 -315h-172l198 315h217zM1057 481q0 -26 -4 -80h-779q20 -124 103.5 -189t210.5 -65q90 0 164.5 38t113.5 108l156 -62q-61 -121 -179.5 -186t-260.5 -65q-136 0 -247.5 61t-178 176.5t-66.5 263.5q0 222 141.5 359t350.5 137q207 0 341 -136t134 -360z
M276 555h603q-17 121 -97 187.5t-200 66.5q-125 0 -205 -64t-101 -190z" />
    <glyph glyph-name="ecircumflex" unicode="&#xea;" horiz-adv-x="1142" 
d="M567 1278l-153 -182h-164l225 315h187l225 -315h-164zM1057 481q0 -26 -4 -80h-779q20 -124 103.5 -189t210.5 -65q90 0 164.5 38t113.5 108l156 -62q-61 -121 -179.5 -186t-260.5 -65q-136 0 -247.5 61t-178 176.5t-66.5 263.5q0 222 141.5 359t350.5 137
q207 0 341 -136t134 -360zM276 555h603q-17 121 -97 187.5t-200 66.5q-125 0 -205 -64t-101 -190z" />
    <glyph glyph-name="edieresis" unicode="&#xeb;" horiz-adv-x="1142" 
d="M377 1120q-53 0 -89 34t-36 85t36 84t89 33q50 0 85.5 -33.5t35.5 -83.5t-35.5 -84.5t-85.5 -34.5zM762 1120q-51 0 -87 34t-36 85q0 50 35.5 83.5t87.5 33.5t88.5 -33.5t36.5 -83.5t-36.5 -84.5t-88.5 -34.5zM1057 481q0 -26 -4 -80h-779q20 -124 103.5 -189t210.5 -65
q90 0 164.5 38t113.5 108l156 -62q-61 -121 -179.5 -186t-260.5 -65q-136 0 -247.5 61t-178 176.5t-66.5 263.5q0 222 141.5 359t350.5 137q207 0 341 -136t134 -360zM276 555h603q-17 121 -97 187.5t-200 66.5q-125 0 -205 -64t-101 -190z" />
    <glyph glyph-name="igrave" unicode="&#xec;" horiz-adv-x="487" 
d="M143 1133l-241 315h217l198 -315h-174zM156 0v956h178v-956h-178z" />
    <glyph glyph-name="iacute" unicode="&#xed;" horiz-adv-x="487" 
d="M150 1133l198 315h217l-243 -315h-172zM156 0v956h178v-956h-178z" />
    <glyph glyph-name="icircumflex" unicode="&#xee;" horiz-adv-x="487" 
d="M-74 1133l226 315h186l225 -315h-164l-155 182l-154 -182h-164zM156 0v956h178v-956h-178z" />
    <glyph glyph-name="idieresis" unicode="&#xef;" horiz-adv-x="487" 
d="M53 1171q-53 0 -89 33.5t-36 85.5q0 51 36 84t89 33q50 0 85.5 -33.5t35.5 -83.5q0 -52 -35.5 -85.5t-85.5 -33.5zM438 1171q-52 0 -87.5 33.5t-35.5 85.5q0 50 35.5 83.5t87.5 33.5t88.5 -33.5t36.5 -83.5q0 -52 -36.5 -85.5t-88.5 -33.5zM156 0v956h178v-956h-178z" />
    <glyph glyph-name="eth" unicode="&#xf0;" horiz-adv-x="1185" 
d="M983 799q109 -131 109 -318q0 -147 -69 -263t-183 -177t-250 -61t-249.5 61t-182 177t-68.5 263t68.5 261.5t181.5 174.5t250 60q21 0 67 -4l-155 205l-246 -101l-41 94l223 91l-164 217h209l113 -154l192 78l39 -94l-168 -68zM590 147q135 0 229 94t94 240
q0 145 -94 236.5t-229 91.5q-134 0 -227 -91.5t-93 -236.5q0 -146 93.5 -240t226.5 -94z" />
    <glyph glyph-name="ntilde" unicode="&#xf1;" horiz-adv-x="1177" 
d="M500 1221q-21 0 -39 -23t-19 -68h-120q7 123 58 179.5t120 56.5q39 0 75.5 -21.5t63.5 -43t43 -21.5q22 0 40 20.5t19 63.5h121q-7 -121 -59 -175t-121 -54q-39 0 -73 21.5t-61 43t-48 21.5zM651 977q180 0 283 -112t102 -312v-553h-178v543q0 118 -64.5 188t-166.5 70
q-42 0 -82 -9.5t-78.5 -31t-67.5 -53t-47 -80.5t-18 -109v-518h-178v956h178v-145q20 42 58.5 75t83 52t89.5 29t86 10z" />
    <glyph glyph-name="ograve" unicode="&#xf2;" horiz-adv-x="1183" 
d="M498 1096l-242 315h217l199 -315h-174zM590 -20q-136 0 -249.5 61t-182 177t-68.5 263t68.5 261.5t181.5 174.5t250 60t250.5 -60t182.5 -174.5t69 -261.5t-69 -263t-183 -177t-250 -61zM590 147q135 0 229 94t94 240q0 145 -94 236.5t-229 91.5q-134 0 -227 -91.5
t-93 -236.5q0 -146 93.5 -240t226.5 -94z" />
    <glyph glyph-name="oacute" unicode="&#xf3;" horiz-adv-x="1183" 
d="M522 1096l199 315h217l-244 -315h-172zM590 -20q-136 0 -249.5 61t-182 177t-68.5 263t68.5 261.5t181.5 174.5t250 60t250.5 -60t182.5 -174.5t69 -261.5t-69 -263t-183 -177t-250 -61zM590 147q135 0 229 94t94 240q0 145 -94 236.5t-229 91.5q-134 0 -227 -91.5
t-93 -236.5q0 -146 93.5 -240t226.5 -94z" />
    <glyph glyph-name="ocircumflex" unicode="&#xf4;" horiz-adv-x="1183" 
d="M272 1096l226 315h186l225 -315h-164l-155 182l-154 -182h-164zM590 -20q-136 0 -249.5 61t-182 177t-68.5 263t68.5 261.5t181.5 174.5t250 60t250.5 -60t182.5 -174.5t69 -261.5t-69 -263t-183 -177t-250 -61zM590 147q135 0 229 94t94 240q0 145 -94 236.5t-229 91.5
q-134 0 -227 -91.5t-93 -236.5q0 -146 93.5 -240t226.5 -94z" />
    <glyph glyph-name="otilde" unicode="&#xf5;" horiz-adv-x="1183" 
d="M322 1130q7 123 58 179.5t120 56.5q39 0 75.5 -21.5t63.5 -43t43 -21.5q22 0 40 20.5t19 63.5h121q-7 -121 -59 -175t-121 -54q-39 0 -73 21.5t-61 43t-48 21.5t-39 -23t-19 -68h-120zM590 -20q-136 0 -249.5 61t-182 177t-68.5 263t68.5 261.5t181.5 174.5t250 60
t250.5 -60t182.5 -174.5t69 -261.5t-69 -263t-183 -177t-250 -61zM590 147q135 0 229 94t94 240q0 145 -94 236.5t-229 91.5q-134 0 -227 -91.5t-93 -236.5q0 -146 93.5 -240t226.5 -94z" />
    <glyph glyph-name="odieresis" unicode="&#xf6;" horiz-adv-x="1183" 
d="M399 1120q-53 0 -89 34t-36 85t36 84t89 33q50 0 85.5 -33.5t35.5 -83.5t-35.5 -84.5t-85.5 -34.5zM784 1120q-51 0 -86.5 34t-35.5 85t35 84t87 33t88.5 -33.5t36.5 -83.5t-36.5 -84.5t-88.5 -34.5zM590 -20q-136 0 -249.5 61t-182 177t-68.5 263t68.5 261.5
t181.5 174.5t250 60t250.5 -60t182.5 -174.5t69 -261.5t-69 -263t-183 -177t-250 -61zM590 147q135 0 229 94t94 240q0 145 -94 236.5t-229 91.5q-134 0 -227 -91.5t-93 -236.5q0 -146 93.5 -240t226.5 -94z" />
    <glyph glyph-name="divide" unicode="&#xf7;" horiz-adv-x="1064" 
d="M530 739q-53 0 -91 37t-38 90t38 88t91 35q55 0 94.5 -35t39.5 -88t-39.5 -90t-94.5 -37zM111 438v164h841v-164h-841zM530 57q-53 0 -91 35t-38 88q0 54 37.5 89.5t91.5 35.5q55 0 94.5 -35.5t39.5 -89.5q0 -53 -39.5 -88t-94.5 -35z" />
    <glyph glyph-name="oslash" unicode="&#xf8;" horiz-adv-x="1189" 
d="M1098 893l-103 -105q101 -128 101 -307q0 -147 -69 -263t-183 -177t-250 -61q-169 0 -297 92l-119 -121l-92 92l115 119q-107 133 -107 319q0 147 68.5 261.5t181.5 174.5t250 60q175 0 309 -98l103 106zM274 481q0 -103 54 -190l452 463q-83 55 -186 55
q-134 0 -227 -91.5t-93 -236.5zM918 481q0 97 -48 178l-450 -460q80 -52 174 -52q135 0 229.5 94t94.5 240z" />
    <glyph glyph-name="ugrave" unicode="&#xf9;" horiz-adv-x="1177" 
d="M672 1096h-174l-242 315h217zM846 956h178v-956h-178v150q-39 -82 -133 -126t-185 -44q-181 0 -283.5 111.5t-101.5 311.5v553h179v-542q0 -118 64 -188t165 -70q53 0 102.5 15.5t93.5 47t71 88.5t28 131v518z" />
    <glyph glyph-name="uacute" unicode="&#xfa;" horiz-adv-x="1177" 
d="M938 1411l-244 -315h-172l199 315h217zM846 956h178v-956h-178v150q-39 -82 -133 -126t-185 -44q-181 0 -283.5 111.5t-101.5 311.5v553h179v-542q0 -118 64 -188t165 -70q53 0 102.5 15.5t93.5 47t71 88.5t28 131v518z" />
    <glyph glyph-name="ucircumflex" unicode="&#xfb;" horiz-adv-x="1177" 
d="M590 1278l-154 -182h-164l226 315h186l225 -315h-164zM846 956h178v-956h-178v150q-39 -82 -133 -126t-185 -44q-181 0 -283.5 111.5t-101.5 311.5v553h179v-542q0 -118 64 -188t165 -70q53 0 102.5 15.5t93.5 47t71 88.5t28 131v518z" />
    <glyph glyph-name="udieresis" unicode="&#xfc;" horiz-adv-x="1177" 
d="M399 1120q-53 0 -89 34t-36 85t36 84t89 33q50 0 85.5 -33.5t35.5 -83.5t-35.5 -84.5t-85.5 -34.5zM784 1120q-51 0 -86.5 34t-35.5 85t35 84t87 33t88.5 -33.5t36.5 -83.5t-36.5 -84.5t-88.5 -34.5zM846 956h178v-956h-178v150q-39 -82 -133 -126t-185 -44
q-181 0 -283.5 111.5t-101.5 311.5v553h179v-542q0 -118 64 -188t165 -70q53 0 102.5 15.5t93.5 47t71 88.5t28 131v518z" />
    <glyph glyph-name="yacute" unicode="&#xfd;" horiz-adv-x="1028" 
d="M864 1411l-243 -315h-172l198 315h217zM809 956h192l-593 -1421h-189l199 492l-383 929h192l289 -704z" />
    <glyph glyph-name="thorn" unicode="&#xfe;" horiz-adv-x="1243" 
d="M676 977q98 0 185 -35.5t152 -99.5t102.5 -158t37.5 -205q0 -110 -38 -204.5t-103 -158.5t-152.5 -100t-185.5 -36q-106 0 -200 45.5t-140 126.5v-617h-178v1944h178v-672q46 82 138.5 126t203.5 44zM657 147q133 0 224.5 96t91.5 238q0 143 -91 235.5t-225 92.5
q-80 0 -152.5 -37.5t-121.5 -114.5t-49 -176q0 -149 95 -241.5t228 -92.5z" />
    <glyph glyph-name="ydieresis" unicode="&#xff;" horiz-adv-x="1028" 
d="M326 1120q-53 0 -89 34t-36 85t36 84t89 33q50 0 85 -33.5t35 -83.5q0 -51 -35 -85t-85 -34zM711 1120q-51 0 -87 34t-36 85q0 50 35.5 83.5t87.5 33.5t88.5 -33.5t36.5 -83.5t-36.5 -84.5t-88.5 -34.5zM809 956h192l-593 -1421h-189l199 492l-383 929h192l289 -704z" />
    <glyph glyph-name="Amacron" unicode="&#x100;" horiz-adv-x="1280" 
d="M899 1792v-158h-514v158h514zM1081 0l-137 362h-606l-137 -362h-195l537 1411h196l537 -1411h-195zM399 526h484l-242 639z" />
    <glyph glyph-name="amacron" unicode="&#x101;" horiz-adv-x="1245" 
d="M879 1337v-157h-514v157h514zM911 956h179v-956h-179v152q-46 -81 -140 -126.5t-200 -45.5q-98 0 -185.5 36t-152.5 100t-103 158.5t-38 204.5q0 111 37.5 205t102.5 158t152 99.5t185 35.5q111 0 203.5 -44t138.5 -126v149zM586 147q134 0 229.5 92.5t95.5 241.5
q0 147 -99 237.5t-226 90.5q-132 0 -223 -92.5t-91 -235.5q0 -142 91.5 -238t222.5 -96z" />
    <glyph glyph-name="Abreve" unicode="&#x102;" horiz-adv-x="1280" 
d="M639 1581q-131 0 -197.5 75.5t-66.5 186.5h147q0 -55 31.5 -90t85.5 -35q53 0 85 38t32 87h149q0 -121 -72 -191.5t-194 -70.5zM1081 0l-137 362h-606l-137 -362h-195l537 1411h196l537 -1411h-195zM399 526h484l-242 639z" />
    <glyph glyph-name="abreve" unicode="&#x103;" horiz-adv-x="1245" 
d="M618 1126q-131 0 -197.5 76t-66.5 187h148q0 -55 31 -90t85 -35q53 0 85 38t32 87h150q0 -121 -72.5 -192t-194.5 -71zM911 956h179v-956h-179v152q-46 -81 -140 -126.5t-200 -45.5q-98 0 -185.5 36t-152.5 100t-103 158.5t-38 204.5q0 111 37.5 205t102.5 158t152 99.5
t185 35.5q111 0 203.5 -44t138.5 -126v149zM586 147q134 0 229.5 92.5t95.5 241.5q0 147 -99 237.5t-226 90.5q-132 0 -223 -92.5t-91 -235.5q0 -142 91.5 -238t222.5 -96z" />
    <glyph glyph-name="Aogonek" unicode="&#x104;" horiz-adv-x="1280" 
d="M1253 -195h119q0 -99 -56.5 -161t-152.5 -62q-90 0 -146 56.5t-56 148.5q0 40 20 86l80 182l-117 307h-606l-137 -362h-195l537 1411h196l537 -1411h-121l-63 -178q-7 -18 -7 -35q0 -37 21 -60.5t57 -23.5q37 0 63.5 28t26.5 74zM399 526h484l-242 639z" />
    <glyph glyph-name="aogonek" unicode="&#x105;" horiz-adv-x="1245" 
d="M1012 -418q-90 0 -145.5 56.5t-55.5 148.5q0 40 20 86l80 188v91q-46 -81 -140.5 -126.5t-199.5 -45.5q-98 0 -185.5 36t-152.5 100t-103 158.5t-38 204.5q0 111 37.5 205t102.5 158t152 99.5t185 35.5q110 0 203 -44.5t139 -125.5v149h179v-956h-86l-64 -178
q-6 -15 -6 -35q0 -37 21.5 -60.5t56.5 -23.5q37 0 63.5 28t26.5 74h121q0 -99 -57.5 -161t-153.5 -62zM586 147q134 0 229.5 92.5t95.5 241.5q0 147 -99 237.5t-226 90.5q-132 0 -223 -92.5t-91 -235.5q0 -142 91.5 -238t222.5 -96z" />
    <glyph glyph-name="Cacute" unicode="&#x106;" horiz-adv-x="1413" 
d="M629 1550l198 316h217l-243 -316h-172zM815 -20q-196 0 -361 96.5t-260.5 263t-95.5 362.5q0 197 95.5 363t260.5 263t361 97q160 0 297.5 -63.5t233.5 -175.5l-136 -115q-72 85 -175 133.5t-220 48.5q-146 0 -268 -74t-192 -201t-70 -276t70 -275t192 -200.5t268 -74.5
q117 0 220 48.5t175 133.5l136 -115q-96 -112 -233.5 -175.5t-297.5 -63.5z" />
    <glyph glyph-name="cacute" unicode="&#x107;" horiz-adv-x="1038" 
d="M459 1096l198 315h217l-243 -315h-172zM604 -18q-138 0 -254.5 60t-188 175t-71.5 262q0 111 42 205.5t112.5 158t163.5 99t196 35.5q110 0 205 -40.5t160 -111.5l-113 -116q-97 100 -246 100q-144 0 -242 -92.5t-98 -237.5t98 -237t242 -92q149 0 246 100l113 -117
q-64 -71 -159 -111t-206 -40z" />
    <glyph glyph-name="Cdotaccent" unicode="&#x10a;" horiz-adv-x="1413" 
d="M803 1575q-53 0 -90 33.5t-37 83.5t37 84t90 34t89 -33.5t36 -84.5t-36 -84t-89 -33zM815 -20q-196 0 -361 96.5t-260.5 263t-95.5 362.5q0 197 95.5 363t260.5 263t361 97q160 0 297.5 -63.5t233.5 -175.5l-136 -115q-72 85 -175 133.5t-220 48.5q-146 0 -268 -74
t-192 -201t-70 -276t70 -275t192 -200.5t268 -74.5q117 0 220 48.5t175 133.5l136 -115q-96 -112 -233.5 -175.5t-297.5 -63.5z" />
    <glyph glyph-name="cdotaccent" unicode="&#x10b;" horiz-adv-x="1038" 
d="M569 1120q-53 0 -90 33.5t-37 83.5q0 51 37 85t90 34t89 -34t36 -85t-36 -84t-89 -33zM604 -18q-138 0 -254.5 60t-188 175t-71.5 262q0 111 42 205.5t112.5 158t163.5 99t196 35.5q110 0 205 -40.5t160 -111.5l-113 -116q-97 100 -246 100q-144 0 -242 -92.5t-98 -237.5
t98 -237t242 -92q149 0 246 100l113 -117q-64 -71 -159 -111t-206 -40z" />
    <glyph glyph-name="Ccaron" unicode="&#x10c;" horiz-adv-x="1413" 
d="M694 1550l-225 316h164l153 -183l156 183h164l-225 -316h-187zM815 -20q-196 0 -361 96.5t-260.5 263t-95.5 362.5q0 197 95.5 363t260.5 263t361 97q160 0 297.5 -63.5t233.5 -175.5l-136 -115q-72 85 -175 133.5t-220 48.5q-146 0 -268 -74t-192 -201t-70 -276t70 -275
t192 -200.5t268 -74.5q117 0 220 48.5t175 133.5l136 -115q-96 -112 -233.5 -175.5t-297.5 -63.5z" />
    <glyph glyph-name="ccaron" unicode="&#x10d;" horiz-adv-x="1038" 
d="M477 1096l-225 315h164l153 -182l156 182h164l-225 -315h-187zM604 -18q-138 0 -254.5 60t-188 175t-71.5 262q0 111 42 205.5t112.5 158t163.5 99t196 35.5q110 0 205 -40.5t160 -111.5l-113 -116q-97 100 -246 100q-144 0 -242 -92.5t-98 -237.5t98 -237t242 -92
q149 0 246 100l113 -117q-64 -71 -159 -111t-206 -40z" />
    <glyph glyph-name="Dcaron" unicode="&#x10e;" horiz-adv-x="1486" 
d="M561 1550l-225 316h164l153 -183l156 183h164l-225 -316h-187zM197 0v1411h546q147 0 268 -54.5t201.5 -149.5t124 -225t43.5 -280t-43.5 -278t-124 -222.5t-201.5 -148t-268 -53.5h-546zM383 172h360q144 0 247.5 70.5t153.5 188.5t50 271t-50 273t-153.5 192t-247.5 72
h-360v-1067z" />
    <glyph glyph-name="dcaron" unicode="&#x10f;" horiz-adv-x="1286" 
d="M911 807v672h179v-1479h-179v152q-46 -81 -140 -126.5t-200 -45.5q-98 0 -185.5 36t-152.5 100t-103 158.5t-38 204.5q0 111 37.5 205t102.5 158t152 99.5t185 35.5q111 0 203.5 -44t138.5 -126zM1446 1411q3 -260 -156 -391l-116 37q62 84 83.5 159t10.5 195h178z
M586 147q134 0 229.5 92.5t95.5 241.5q0 147 -99 237.5t-226 90.5q-132 0 -223 -92.5t-91 -235.5q0 -142 91.5 -238t222.5 -96z" />
    <glyph glyph-name="Dcroat" unicode="&#x110;" horiz-adv-x="1492" 
d="M750 1411q147 0 268 -54.5t201 -150t123.5 -225t43.5 -279.5q0 -201 -74.5 -359t-220 -250.5t-341.5 -92.5h-547v639h-154v135h154v637h547zM750 172q144 0 247.5 70.5t153 188.5t49.5 271t-49.5 273t-153 192t-247.5 72h-361v-465h344v-135h-344v-467h361z" />
    <glyph glyph-name="dcroat" unicode="&#x111;" horiz-adv-x="1245" 
d="M1247 1272v-123h-157v-1149h-179v152q-46 -81 -140 -126.5t-200 -45.5q-98 0 -185.5 36t-152.5 100t-103 158.5t-38 204.5q0 111 37.5 205t102.5 158t152 99.5t185 35.5q111 0 203.5 -44t138.5 -126v342h-309v123h309v207h179v-207h157zM586 147q134 0 229.5 92.5
t95.5 241.5q0 147 -99 237.5t-226 90.5q-132 0 -223 -92.5t-91 -235.5q0 -142 91.5 -238t222.5 -96z" />
    <glyph glyph-name="Emacron" unicode="&#x112;" 
d="M840 1792v-158h-514v158h514zM381 172h668v-172h-852v1411h831v-172h-647v-459h565v-174h-565v-434z" />
    <glyph glyph-name="emacron" unicode="&#x113;" horiz-adv-x="1142" 
d="M827 1337v-157h-514v157h514zM1057 481q0 -26 -4 -80h-779q20 -124 103.5 -189t210.5 -65q90 0 164.5 38t113.5 108l156 -62q-61 -121 -179.5 -186t-260.5 -65q-136 0 -247.5 61t-178 176.5t-66.5 263.5q0 222 141.5 359t350.5 137q207 0 341 -136t134 -360zM276 555h603
q-17 121 -97 187.5t-200 66.5q-125 0 -205 -64t-101 -190z" />
    <glyph glyph-name="Edotaccent" unicode="&#x116;" 
d="M582 1575q-53 0 -90 33.5t-37 83.5t37 84t90 34t89 -33.5t36 -84.5t-36 -84t-89 -33zM381 172h668v-172h-852v1411h831v-172h-647v-459h565v-174h-565v-434z" />
    <glyph glyph-name="edotaccent" unicode="&#x117;" horiz-adv-x="1142" 
d="M569 1120q-53 0 -90 33.5t-37 83.5q0 51 37 85t90 34t89 -34t36 -85t-36 -84t-89 -33zM1057 481q0 -26 -4 -80h-779q20 -124 103.5 -189t210.5 -65q90 0 164.5 38t113.5 108l156 -62q-61 -121 -179.5 -186t-260.5 -65q-136 0 -247.5 61t-178 176.5t-66.5 263.5
q0 222 141.5 359t350.5 137q207 0 341 -136t134 -360zM276 555h603q-17 121 -97 187.5t-200 66.5q-125 0 -205 -64t-101 -190z" />
    <glyph glyph-name="Eogonek" unicode="&#x118;" 
d="M823 0l-63 -178q-6 -15 -6 -35q0 -38 20.5 -61t56.5 -23t62.5 28.5t26.5 73.5h120q0 -99 -57 -161t-152 -62q-90 0 -146 56.5t-56 148.5q0 40 20 86l53 127h-505v1411h831v-172h-647v-459h565v-174h-565v-434h668v-172h-226z" />
    <glyph glyph-name="eogonek" unicode="&#x119;" horiz-adv-x="1142" 
d="M1057 481q0 -26 -4 -80h-779q20 -124 103.5 -189t210.5 -65q90 0 164.5 38t113.5 108l156 -62q-66 -133 -203 -198l-76 -211q-6 -15 -6 -35q0 -37 21 -60.5t57 -23.5q37 0 63.5 28t26.5 74h119q0 -99 -57 -161t-152 -62q-90 0 -146.5 56.5t-56.5 148.5q0 38 21 86l49 115
q-44 -8 -100 -8q-136 0 -247.5 61t-178 176.5t-66.5 263.5q0 222 141.5 359t350.5 137q207 0 341 -136t134 -360zM276 555h603q-17 121 -97 187.5t-200 66.5q-125 0 -205 -64t-101 -190z" />
    <glyph glyph-name="Ecaron" unicode="&#x11a;" 
d="M674 1550h-187l-225 316h164l154 -183l155 183h164zM381 172h668v-172h-852v1411h831v-172h-647v-459h565v-174h-565v-434z" />
    <glyph glyph-name="ecaron" unicode="&#x11b;" horiz-adv-x="1142" 
d="M662 1096h-187l-225 315h164l153 -182l156 182h164zM1057 481q0 -26 -4 -80h-779q20 -124 103.5 -189t210.5 -65q90 0 164.5 38t113.5 108l156 -62q-61 -121 -179.5 -186t-260.5 -65q-136 0 -247.5 61t-178 176.5t-66.5 263.5q0 222 141.5 359t350.5 137q207 0 341 -136
t134 -360zM276 555h603q-17 121 -97 187.5t-200 66.5q-125 0 -205 -64t-101 -190z" />
    <glyph glyph-name="Gbreve" unicode="&#x11e;" horiz-adv-x="1544" 
d="M772 1581q-131 0 -197.5 75.5t-66.5 186.5h147q0 -55 31.5 -90t85.5 -35q53 0 85 38t32 87h149q0 -121 -72 -191.5t-194 -70.5zM813 -20q-148 0 -280.5 57t-227 154t-150 230.5t-55.5 280.5q0 198 94 364.5t258 263.5t361 97q136 0 258 -48.5t217 -135.5l-129 -121
q-150 133 -346 133q-146 0 -267 -74.5t-190 -201.5t-69 -277t69 -276t190 -200t267 -74q184 0 310.5 97.5t148.5 260.5q4 20 4 35h-410v162h615q0 -182 -47.5 -321.5t-136 -228t-210.5 -133t-274 -44.5z" />
    <glyph glyph-name="gbreve" unicode="&#x11f;" horiz-adv-x="1245" 
d="M618 1126q-131 0 -197.5 76t-66.5 187h148q0 -55 31 -90t85 -35q53 0 85 38t32 87h150q0 -121 -72.5 -192t-194.5 -71zM911 956h179v-811q0 -622 -521 -622q-133 0 -247 66t-183 190l152 80q43 -79 119.5 -123.5t158.5 -44.5q166 0 254 104t88 338v19
q-46 -81 -140 -126.5t-200 -45.5q-98 0 -185.5 36t-152.5 100t-103 158.5t-38 204.5q0 111 37.5 205t102.5 158t152 99.5t185 35.5q110 0 203 -44.5t139 -125.5v149zM586 147q134 0 229.5 92.5t95.5 241.5q0 147 -99 237.5t-226 90.5q-132 0 -223 -92.5t-91 -235.5
q0 -142 91.5 -238t222.5 -96z" />
    <glyph glyph-name="Gdotaccent" unicode="&#x120;" horiz-adv-x="1544" 
d="M774 1575q-53 0 -90 33.5t-37 83.5t37 84t90 34t89 -33.5t36 -84.5t-36 -84t-89 -33zM813 -20q-148 0 -280.5 57t-227 154t-150 230.5t-55.5 280.5q0 198 94 364.5t258 263.5t361 97q136 0 258 -48.5t217 -135.5l-129 -121q-150 133 -346 133q-146 0 -267 -74.5
t-190 -201.5t-69 -277t69 -276t190 -200t267 -74q184 0 310.5 97.5t148.5 260.5q4 20 4 35h-410v162h615q0 -182 -47.5 -321.5t-136 -228t-210.5 -133t-274 -44.5z" />
    <glyph glyph-name="gdotaccent" unicode="&#x121;" horiz-adv-x="1245" 
d="M621 1120q-53 0 -90 33.5t-37 83.5q0 51 37 85t90 34t88.5 -34t35.5 -85t-35.5 -84t-88.5 -33zM911 956h179v-811q0 -622 -521 -622q-133 0 -247 66t-183 190l152 80q43 -79 119.5 -123.5t158.5 -44.5q166 0 254 104t88 338v19q-46 -81 -140 -126.5t-200 -45.5
q-98 0 -185.5 36t-152.5 100t-103 158.5t-38 204.5q0 111 37.5 205t102.5 158t152 99.5t185 35.5q110 0 203 -44.5t139 -125.5v149zM586 147q134 0 229.5 92.5t95.5 241.5q0 147 -99 237.5t-226 90.5q-132 0 -223 -92.5t-91 -235.5q0 -142 91.5 -238t222.5 -96z" />
    <glyph glyph-name="Gcommaaccent" unicode="&#x122;" horiz-adv-x="1544" 
d="M813 -20q-148 0 -280.5 57t-227 154t-150 230.5t-55.5 280.5q0 198 94 364.5t258 263.5t361 97q136 0 258 -48.5t217 -135.5l-129 -121q-150 133 -346 133q-146 0 -267 -74.5t-190 -201.5t-69 -277t69 -276t190 -200t267 -74q184 0 310.5 97.5t148.5 260.5q4 20 4 35
h-410v162h615q0 -182 -47.5 -321.5t-136 -228t-210.5 -133t-274 -44.5zM713 -477l-117 39q63 84 85 158.5t11 195.5h178q3 -264 -157 -393z" />
    <glyph glyph-name="gcommaaccent" unicode="&#x123;" horiz-adv-x="1245" 
d="M692 1133h-178q-3 261 158 395l116 -39q-62 -83 -84.5 -159t-11.5 -197zM911 956h179v-811q0 -622 -521 -622q-133 0 -247 66t-183 190l152 80q43 -79 119.5 -123.5t158.5 -44.5q166 0 254 104t88 338v19q-46 -81 -140 -126.5t-200 -45.5q-98 0 -185.5 36t-152.5 100
t-103 158.5t-38 204.5q0 111 37.5 205t102.5 158t152 99.5t185 35.5q110 0 203 -44.5t139 -125.5v149zM586 147q134 0 229.5 92.5t95.5 241.5q0 147 -99 237.5t-226 90.5q-132 0 -223 -92.5t-91 -235.5q0 -142 91.5 -238t222.5 -96z" />
    <glyph glyph-name="Hbar" unicode="&#x126;" horiz-adv-x="1462" 
d="M1405 1153v-123h-141v-1030h-187v616h-692v-616h-186v1030h-138v123h138v258h186v-258h692v258h187v-258h141zM1077 786v244h-692v-244h692z" />
    <glyph glyph-name="hbar" unicode="&#x127;" horiz-adv-x="1177" 
d="M651 977q180 0 283 -112t102 -312v-553h-178v543q0 118 -64.5 188t-166.5 70q-42 0 -82 -9.5t-78.5 -31t-67.5 -53t-47 -80.5t-18 -109v-518h-178v1090h-97v122h97v267h178v-267h352v-122h-352v-279q20 42 58.5 75t83 52t89.5 29t86 10z" />
    <glyph glyph-name="Itilde" unicode="&#x128;" horiz-adv-x="577" 
d="M18 1585q7 123 58.5 179.5t120.5 56.5q39 0 75.5 -21.5t63.5 -43t43 -21.5q22 0 40 20.5t19 63.5h121q-7 -121 -59 -175.5t-121 -54.5q-39 0 -73 21.5t-61 43t-48 21.5t-39 -22.5t-19 -67.5h-121zM197 0v1411h186v-1411h-186z" />
    <glyph glyph-name="itilde" unicode="&#x129;" horiz-adv-x="487" 
d="M-27 1130q7 123 58.5 179.5t120.5 56.5q39 0 75.5 -21.5t63.5 -43t43 -21.5q22 0 40 20.5t19 63.5h121q-7 -121 -59 -175t-121 -54q-39 0 -73 21.5t-61 43t-48 21.5t-39 -23t-19 -68h-121zM156 0v956h178v-956h-178z" />
    <glyph glyph-name="Imacron" unicode="&#x12a;" horiz-adv-x="577" 
d="M33 1634v158h514v-158h-514zM197 0v1411h186v-1411h-186z" />
    <glyph glyph-name="imacron" unicode="&#x12b;" horiz-adv-x="487" 
d="M-12 1180v157h514v-157h-514zM156 0v956h178v-956h-178z" />
    <glyph glyph-name="Iogonek" unicode="&#x12e;" horiz-adv-x="577" 
d="M399 -195h121q0 -99 -57.5 -161t-153.5 -62q-88 0 -144 56.5t-56 148.5q0 40 20 86l68 156v1382h186v-1411h-82l-63 -178q-7 -17 -7 -35q0 -37 21.5 -60.5t56.5 -23.5q37 0 63.5 28t26.5 74z" />
    <glyph glyph-name="iogonek" unicode="&#x12f;" horiz-adv-x="489" 
d="M246 1190q-52 0 -88.5 34.5t-36.5 84.5t36.5 84t88.5 34q53 0 90 -34t37 -84q0 -51 -37 -85t-90 -34zM258 -418q-88 0 -144.5 56.5t-56.5 148.5q0 38 21 86l80 182v901h178v-956h-86l-64 -178q-6 -15 -6 -35q0 -37 21.5 -60.5t56.5 -23.5q37 0 63.5 28t26.5 74h121
q0 -99 -57.5 -161t-153.5 -62z" />
    <glyph glyph-name="Idotaccent" unicode="&#x130;" horiz-adv-x="577" 
d="M289 1575q-53 0 -90 33.5t-37 83.5t37 84t90 34t89 -33.5t36 -84.5t-36 -84t-89 -33zM197 0v1411h186v-1411h-186z" />
    <glyph glyph-name="dotlessi" unicode="&#x131;" horiz-adv-x="487" 
d="M156 0v956h178v-956h-178z" />
    <glyph glyph-name="IJ" unicode="&#x132;" horiz-adv-x="1171" 
d="M197 0v1411h186v-1411h-186zM541 -477q-47 0 -150 22l19 174q20 -7 66.5 -11.5t64.5 -4.5q66 0 115.5 22t78 61t42.5 87.5t14 106.5v1431h186v-1431q0 -96 -24 -176t-74.5 -144.5t-136.5 -100.5t-201 -36z" />
    <glyph glyph-name="ij" unicode="&#x133;" horiz-adv-x="991" 
d="M244 1190q-52 0 -88.5 34.5t-36.5 84.5t36.5 84t88.5 34q53 0 90 -34t37 -84q0 -51 -37 -85t-90 -34zM748 1190q-52 0 -88.5 34.5t-36.5 84.5t36.5 84t88.5 34q53 0 89.5 -33.5t36.5 -84.5t-36.5 -85t-89.5 -34zM156 0v956h178v-956h-178zM373 -465v168h108q46 0 79.5 15
t52.5 38t30 57t14 65t2 69v1009h179v-1011q0 -410 -342 -410h-123z" />
    <glyph glyph-name="Jcircumflex" unicode="&#x134;" horiz-adv-x="593" 
d="M-14 1550l225 316h186l226 -316h-164l-156 183l-153 -183h-164zM-37 -477q-46 0 -149 22l18 174q20 -7 66.5 -11.5t64.5 -4.5q66 0 115.5 22t78 61t42.5 87.5t14 106.5v1431h186v-1431q0 -96 -24 -176t-74.5 -144.5t-136.5 -100.5t-201 -36z" />
    <glyph glyph-name="jcircumflex" unicode="&#x135;" horiz-adv-x="503" 
d="M-59 1133l225 315h186l226 -315h-162l-158 182l-154 -182h-163zM172 956h178v-1011q0 -410 -342 -410h-123v168h109q46 0 79.5 15t52.5 38t30 57t14 65t2 69v1009z" />
    <glyph glyph-name="Kcommaaccent" unicode="&#x136;" horiz-adv-x="1169" 
d="M537 705l657 -705h-248l-565 604v-604h-184v1411h184v-616l473 616h227zM510 -84h178q3 -263 -158 -393l-116 39q63 84 85 158.5t11 195.5z" />
    <glyph glyph-name="kcommaaccent" unicode="&#x137;" horiz-adv-x="995" 
d="M504 543l510 -543h-240l-440 467v-467h-178v1479h178v-861l332 338h247zM426 -84h178q3 -263 -158 -393l-116 39q63 84 85 158.5t11 195.5z" />
    <glyph glyph-name="kgreenlandic" unicode="&#x138;" horiz-adv-x="931" 
d="M934 0h-250l-350 381v-381h-178v956h178v-381l319 381h238l-404 -475z" />
    <glyph glyph-name="Lacute" unicode="&#x139;" horiz-adv-x="1003" 
d="M201 1550l198 316h217l-243 -316h-172zM197 0v1411h186v-1239h578v-172h-764z" />
    <glyph glyph-name="lacute" unicode="&#x13a;" horiz-adv-x="487" 
d="M158 1550l198 316h217l-243 -316h-172zM156 0v1479h178v-1479h-178z" />
    <glyph glyph-name="Lcommaaccent" unicode="&#x13b;" horiz-adv-x="1003" 
d="M197 0v1411h186v-1239h578v-172h-764zM451 -477l-117 39q63 84 85 158.5t11 195.5h178q3 -264 -157 -393z" />
    <glyph glyph-name="lcommaaccent" unicode="&#x13c;" horiz-adv-x="487" 
d="M156 0v1479h178v-1479h-178zM182 -477l-116 39q63 84 85 158.5t11 195.5h178q3 -263 -158 -393z" />
    <glyph glyph-name="Lcaron" unicode="&#x13d;" horiz-adv-x="1007" 
d="M197 0v1411h186v-1239h578v-172h-764zM641 1020l-115 37q61 85 82 159.5t10 194.5h181q3 -261 -158 -391z" />
    <glyph glyph-name="lcaron" unicode="&#x13e;" horiz-adv-x="528" 
d="M156 0v1479h178v-1479h-178zM532 1020l-114 37q61 85 82.5 159.5t11.5 194.5h178q3 -261 -158 -391z" />
    <glyph glyph-name="Lslash" unicode="&#x141;" horiz-adv-x="1007" 
d="M387 172h578v-172h-764v518l-131 -82v144l131 82v749h186v-631l213 133v-145l-213 -133v-463z" />
    <glyph glyph-name="lslash" unicode="&#x142;" horiz-adv-x="657" 
d="M610 991v-143l-196 -123v-725h-178v612l-156 -98v145l156 99v721h178v-611z" />
    <glyph glyph-name="Nacute" unicode="&#x143;" horiz-adv-x="1409" 
d="M1051 1866l-244 -316h-172l199 316h217zM1028 1411h186v-1411h-180l-651 1075v-1075h-186v1411h184l647 -1071v1071z" />
    <glyph glyph-name="nacute" unicode="&#x144;" horiz-adv-x="1177" 
d="M938 1411l-244 -315h-172l199 315h217zM651 977q180 0 283 -112t102 -312v-553h-178v543q0 118 -64.5 188t-166.5 70q-42 0 -82 -9.5t-78.5 -31t-67.5 -53t-47 -80.5t-18 -109v-518h-178v956h178v-145q20 42 58.5 75t83 52t89.5 29t86 10z" />
    <glyph glyph-name="Ncommaaccent" unicode="&#x145;" horiz-adv-x="1409" 
d="M1028 1411h186v-1411h-180l-651 1075v-1075h-186v1411h184l647 -1071v1071zM623 -84h178q3 -263 -158 -393l-117 39q63 84 85.5 158.5t11.5 195.5z" />
    <glyph glyph-name="ncommaaccent" unicode="&#x146;" horiz-adv-x="1177" 
d="M651 977q180 0 283 -112t102 -312v-553h-178v543q0 118 -64.5 188t-166.5 70q-42 0 -82 -9.5t-78.5 -31t-67.5 -53t-47 -80.5t-18 -109v-518h-178v956h178v-145q20 42 58.5 75t83 52t89.5 29t86 10zM510 -84h178q3 -263 -158 -393l-116 39q63 84 85 158.5t11 195.5z" />
    <glyph glyph-name="Ncaron" unicode="&#x147;" horiz-adv-x="1409" 
d="M797 1550h-187l-225 316h164l153 -183l156 183h164zM1028 1411h186v-1411h-180l-651 1075v-1075h-186v1411h184l647 -1071v1071z" />
    <glyph glyph-name="ncaron" unicode="&#x148;" horiz-adv-x="1177" 
d="M684 1096h-186l-226 315h164l154 -182l155 182h164zM651 977q180 0 283 -112t102 -312v-553h-178v543q0 118 -64.5 188t-166.5 70q-42 0 -82 -9.5t-78.5 -31t-67.5 -53t-47 -80.5t-18 -109v-518h-178v956h178v-145q20 42 58.5 75t83 52t89.5 29t86 10z" />
    <glyph glyph-name="napostrophe" unicode="&#x149;" horiz-adv-x="1298" 
d="M307 1411q3 -262 -157 -391l-115 37q61 85 82 159.5t10 194.5h180zM770 977q181 0 283.5 -112t101.5 -312v-553h-178v543q0 118 -64 188t-165 70q-53 0 -102.5 -15.5t-93.5 -47.5t-71 -89t-28 -131v-518h-179v956h179v-149q39 82 132.5 126t184.5 44z" />
    <glyph glyph-name="Eng" unicode="&#x14a;" horiz-adv-x="1409" 
d="M1028 1411h186v-1419q0 -96 -24 -176t-74.5 -144.5t-136.5 -100.5t-201 -36q-41 0 -149 23l18 174q20 -7 67 -12t64 -5q66 0 115.5 22t78 61t42.5 87.5t14 106.5l-2 22l-643 1063v-1077h-186v1411h184l647 -1069v1069z" />
    <glyph glyph-name="eng" unicode="&#x14b;" horiz-adv-x="1177" 
d="M651 977q180 0 283 -112t102 -312v-608q0 -410 -342 -410h-123v168h109q46 0 79.5 15t52.5 38t30 57t14 65t2 69v596q0 118 -64.5 188t-166.5 70q-42 0 -82 -9.5t-78.5 -31t-67.5 -53t-47 -80.5t-18 -109v-518h-178v956h178v-145q20 42 58.5 75t83 52t89.5 29t86 10z" />
    <glyph glyph-name="Omacron" unicode="&#x14c;" horiz-adv-x="1628" 
d="M557 1634v158h514v-158h-514zM811 -20q-148 0 -280.5 57t-227 154t-150 230.5t-55.5 280.5q0 198 94 364.5t258 263.5t361 97q198 0 363 -97t259.5 -263.5t94.5 -364.5q0 -147 -56 -280.5t-151 -230.5t-228.5 -154t-281.5 -57zM811 152q147 0 269.5 74.5t191.5 200.5
t69 275q0 150 -69 277t-191.5 201.5t-269.5 74.5q-146 0 -267 -74.5t-190 -201.5t-69 -277q0 -149 69 -275t190 -200.5t267 -74.5z" />
    <glyph glyph-name="omacron" unicode="&#x14d;" horiz-adv-x="1183" 
d="M336 1180v157h514v-157h-514zM590 -20q-136 0 -249.5 61t-182 177t-68.5 263t68.5 261.5t181.5 174.5t250 60t250.5 -60t182.5 -174.5t69 -261.5t-69 -263t-183 -177t-250 -61zM590 147q135 0 229 94t94 240q0 145 -94 236.5t-229 91.5q-134 0 -227 -91.5t-93 -236.5
q0 -146 93.5 -240t226.5 -94z" />
    <glyph glyph-name="Ohungarumlaut" unicode="&#x150;" horiz-adv-x="1628" 
d="M600 1550l166 316h172l-182 -316h-156zM879 1550l182 316h178l-209 -316h-151zM811 -20q-148 0 -280.5 57t-227 154t-150 230.5t-55.5 280.5q0 198 94 364.5t258 263.5t361 97q198 0 363 -97t259.5 -263.5t94.5 -364.5q0 -147 -56 -280.5t-151 -230.5t-228.5 -154
t-281.5 -57zM811 152q147 0 269.5 74.5t191.5 200.5t69 275q0 150 -69 277t-191.5 201.5t-269.5 74.5q-146 0 -267 -74.5t-190 -201.5t-69 -277q0 -149 69 -275t190 -200.5t267 -74.5z" />
    <glyph glyph-name="ohungarumlaut" unicode="&#x151;" horiz-adv-x="1183" 
d="M379 1096l166 315h172l-182 -315h-156zM657 1096l183 315h178l-209 -315h-152zM590 -20q-136 0 -249.5 61t-182 177t-68.5 263t68.5 261.5t181.5 174.5t250 60t250.5 -60t182.5 -174.5t69 -261.5t-69 -263t-183 -177t-250 -61zM590 147q135 0 229 94t94 240
q0 145 -94 236.5t-229 91.5q-134 0 -227 -91.5t-93 -236.5q0 -146 93.5 -240t226.5 -94z" />
    <glyph glyph-name="OE" unicode="&#x152;" horiz-adv-x="2304" 
d="M1530 172h670v-172h-854v217q-99 -111 -238 -174t-297 -63q-148 0 -280.5 57t-227 154t-150 230.5t-55.5 280.5q0 198 94 364.5t258 263.5t361 97q158 0 297 -63t238 -174v221h833v-172h-649v-459h565v-174h-565v-434zM811 152q147 0 269.5 74.5t191.5 200.5t69 275
q0 150 -69 277t-191.5 201.5t-269.5 74.5q-146 0 -267 -74.5t-190 -201.5t-69 -277q0 -149 69 -275t190 -200.5t267 -74.5z" />
    <glyph glyph-name="oe" unicode="&#x153;" horiz-adv-x="1966" 
d="M1880 481q0 -26 -4 -80h-778q18 -124 101.5 -189t211.5 -65q90 0 164.5 38t114.5 108l153 -62q-60 -121 -178 -186t-260 -65q-126 0 -231 53.5t-173 150.5q-69 -97 -177 -150.5t-234 -53.5q-136 0 -249.5 61t-182 177t-68.5 263t68.5 261.5t181.5 174.5t250 60
q126 0 234 -53t177 -148q68 96 173.5 148.5t230.5 52.5q207 0 341 -136t134 -360zM590 147q135 0 229 94t94 240q0 145 -94 236.5t-229 91.5q-134 0 -227 -91.5t-93 -236.5q0 -146 93.5 -240t226.5 -94zM1098 555h604q-17 121 -97 187.5t-200 66.5q-123 0 -203.5 -64.5
t-103.5 -189.5z" />
    <glyph glyph-name="Racute" unicode="&#x154;" horiz-adv-x="1265" 
d="M983 1866l-244 -316h-172l199 316h217zM936 0l-369 532h-184v-532h-186v1411h530q111 0 195.5 -37.5t133.5 -101t73 -139.5t24 -162q0 -80 -21 -151.5t-63.5 -133t-115.5 -101.5t-169 -50l375 -535h-223zM383 1239v-537h295q149 0 219 71.5t70 197.5q0 119 -64.5 193.5
t-171.5 74.5h-348z" />
    <glyph glyph-name="racute" unicode="&#x155;" horiz-adv-x="792" 
d="M748 1411l-244 -315h-172l198 315h218zM604 977q48 0 95.5 -11t70.5 -26l-29 -168q-67 33 -139 33q-91 0 -152.5 -62.5t-87.5 -162t-26 -230.5v-350h-180v956h180v-217q69 238 268 238z" />
    <glyph glyph-name="Rcommaaccent" unicode="&#x156;" horiz-adv-x="1265" 
d="M784 535l375 -535h-223l-369 532h-184v-532h-186v1411h530q111 0 195.5 -37.5t133.5 -101t73 -139.5t24 -162q0 -80 -21 -151.5t-63.5 -133t-115.5 -101.5t-169 -50zM383 1239v-537h295q149 0 219 71.5t70 197.5q0 119 -64.5 193.5t-171.5 74.5h-348zM555 -84h178
q3 -263 -158 -393l-116 39q63 84 85 158.5t11 195.5z" />
    <glyph glyph-name="rcommaaccent" unicode="&#x157;" horiz-adv-x="792" 
d="M604 977q48 0 95.5 -11t70.5 -26l-29 -168q-67 33 -139 33q-91 0 -152.5 -62.5t-87.5 -162t-26 -230.5v-350h-180v956h180v-217q69 238 268 238zM156 -84h178q3 -261 -160 -393l-115 39q62 83 84.5 157.5t12.5 196.5z" />
    <glyph glyph-name="Rcaron" unicode="&#x158;" horiz-adv-x="1265" 
d="M729 1550h-186l-226 316h164l154 -183l156 183h163zM936 0l-369 532h-184v-532h-186v1411h530q111 0 195.5 -37.5t133.5 -101t73 -139.5t24 -162q0 -80 -21 -151.5t-63.5 -133t-115.5 -101.5t-169 -50l375 -535h-223zM383 1239v-537h295q149 0 219 71.5t70 197.5
q0 119 -64.5 193.5t-171.5 74.5h-348z" />
    <glyph glyph-name="rcaron" unicode="&#x159;" horiz-adv-x="792" 
d="M494 1096h-187l-225 315h164l153 -182l156 182h164zM604 977q48 0 95.5 -11t70.5 -26l-29 -168q-67 33 -139 33q-91 0 -152.5 -62.5t-87.5 -162t-26 -230.5v-350h-180v956h180v-217q69 238 268 238z" />
    <glyph glyph-name="Sacute" unicode="&#x15a;" horiz-adv-x="1167" 
d="M516 1550l199 316h217l-244 -316h-172zM602 -20q-144 0 -259 60.5t-176.5 156.5t-62.5 206h185q5 -100 91.5 -175.5t221.5 -75.5q132 0 208.5 70t76.5 169q0 166 -244 230l-182 45q-86 21 -150.5 55t-101 70t-58.5 81t-29 81t-7 75q0 118 65 210.5t170.5 140.5t229.5 48
t225 -49t161 -143t60 -217h-184q0 105 -77 171t-192 66q-111 0 -191.5 -62.5t-80.5 -162.5q0 -147 205 -196l184 -46q184 -45 283.5 -144t99.5 -247q0 -82 -33 -157.5t-92 -133t-149 -92t-197 -34.5z" />
    <glyph glyph-name="sacute" unicode="&#x15b;" horiz-adv-x="892" 
d="M375 1096l198 315h218l-244 -315h-172zM436 -20q-138 0 -244 82.5t-112 222.5h166q2 -64 53.5 -107t136.5 -43q89 0 141 37t52 96q0 97 -131 125l-131 31q-126 34 -189 98.5t-63 175.5q0 120 92 199.5t235 79.5q63 0 120.5 -17t105 -49.5t76 -87.5t28.5 -125h-172
q-1 54 -47.5 88.5t-106.5 34.5q-68 0 -110.5 -36.5t-42.5 -92.5q0 -46 35 -74t88 -40l141 -35q250 -62 250 -277q0 -129 -108 -207.5t-263 -78.5z" />
    <glyph glyph-name="Scedilla" unicode="&#x15e;" horiz-adv-x="1167" 
d="M1073 397q0 -153 -105.5 -270t-281.5 -141l49 -113q21 -48 21 -86q0 -92 -56.5 -148.5t-146.5 -56.5q-95 0 -152 62t-57 161h121q0 -45 26.5 -73.5t61.5 -28.5q36 0 57 23.5t21 60.5q0 20 -6 35l-56 158q-204 12 -333.5 136t-131.5 287h185q5 -100 91.5 -175.5
t221.5 -75.5q132 0 208.5 70t76.5 169q0 166 -244 230l-182 45q-86 21 -150.5 55t-101 70t-58.5 81t-29 81t-7 75q0 118 65 210.5t170.5 140.5t229.5 48t225 -49t161 -143t60 -217h-184q0 105 -77 171t-192 66q-111 0 -191.5 -62.5t-80.5 -162.5q0 -147 205 -196l184 -46
q184 -45 283.5 -144t99.5 -247z" />
    <glyph glyph-name="scedilla" unicode="&#x15f;" horiz-adv-x="892" 
d="M807 266q0 -105 -73.5 -177.5t-190.5 -98.5l51 -117q20 -46 20 -86q0 -92 -56 -148.5t-146 -56.5q-95 0 -152 62t-57 161h121q0 -45 26.5 -73.5t61.5 -28.5q36 0 56.5 23t20.5 61q0 20 -6 35l-55 158q-136 3 -239 85t-109 220h166q2 -64 53.5 -107t136.5 -43q89 0 141 37
t52 96q0 97 -131 125l-131 31q-126 34 -189 98.5t-63 175.5q0 120 92 199.5t235 79.5q63 0 120.5 -17t105 -49.5t76 -87.5t28.5 -125h-172q-1 54 -47.5 88.5t-106.5 34.5q-68 0 -110.5 -36.5t-42.5 -92.5q0 -46 35 -74t88 -40l141 -35q250 -62 250 -277z" />
    <glyph glyph-name="Scaron" unicode="&#x160;" horiz-adv-x="1167" 
d="M492 1550l-226 316h164l154 -183l155 183h164l-225 -316h-186zM602 -20q-144 0 -259 60.5t-176.5 156.5t-62.5 206h185q5 -100 91.5 -175.5t221.5 -75.5q132 0 208.5 70t76.5 169q0 166 -244 230l-182 45q-86 21 -150.5 55t-101 70t-58.5 81t-29 81t-7 75q0 118 65 210.5
t170.5 140.5t229.5 48t225 -49t161 -143t60 -217h-184q0 105 -77 171t-192 66q-111 0 -191.5 -62.5t-80.5 -162.5q0 -147 205 -196l184 -46q184 -45 283.5 -144t99.5 -247q0 -82 -33 -157.5t-92 -133t-149 -92t-197 -34.5z" />
    <glyph glyph-name="scaron" unicode="&#x161;" horiz-adv-x="892" 
d="M350 1096l-225 315h164l153 -182l156 182h164l-225 -315h-187zM436 -20q-138 0 -244 82.5t-112 222.5h166q2 -64 53.5 -107t136.5 -43q89 0 141 37t52 96q0 97 -131 125l-131 31q-126 34 -189 98.5t-63 175.5q0 120 92 199.5t235 79.5q63 0 120.5 -17t105 -49.5t76 -87.5
t28.5 -125h-172q-1 54 -47.5 88.5t-106.5 34.5q-68 0 -110.5 -36.5t-42.5 -92.5q0 -46 35 -74t88 -40l141 -35q250 -62 250 -277q0 -129 -108 -207.5t-263 -78.5z" />
    <glyph glyph-name="uni0162" unicode="&#x162;" horiz-adv-x="1128" 
d="M1087 1239h-430v-1184l80 -182q21 -48 21 -86q0 -92 -56.5 -148.5t-146.5 -56.5q-95 0 -152 62t-57 161h121q0 -45 26.5 -73.5t61.5 -28.5q36 0 57 23.5t21 60.5q0 20 -6 35l-64 178h-92v1239h-430v172h1046v-172z" />
    <glyph glyph-name="uni0163" unicode="&#x163;" horiz-adv-x="657" 
d="M614 803h-206v-760l73 -170q21 -48 21 -86q0 -92 -56.5 -148.5t-146.5 -56.5q-95 0 -152 62t-57 161h121q0 -45 26.5 -73.5t61.5 -28.5q36 0 58 23.5t22 60.5q0 15 -8 35l-64 178h-78v803h-172v153h172v363h179v-363h206v-153z" />
    <glyph glyph-name="Tcaron" unicode="&#x164;" horiz-adv-x="1128" 
d="M657 1550h-186l-225 316h164l153 -183l156 183h164zM1087 1411v-172h-430v-1239h-186v1239h-430v172h1046z" />
    <glyph glyph-name="tcaron" unicode="&#x165;" horiz-adv-x="657" 
d="M862 1411q3 -262 -157 -391l-115 37q61 83 82.5 158t11.5 196h178zM408 1319v-363h206v-153h-206v-803h-179v803h-172v153h172v363h179z" />
    <glyph glyph-name="Tbar" unicode="&#x166;" horiz-adv-x="1169" 
d="M1108 1239h-430v-461h270v-133h-270v-645h-186v645h-271v133h271v461h-431v172h1047v-172z" />
    <glyph glyph-name="tbar" unicode="&#x167;" horiz-adv-x="657" 
d="M614 803h-206v-264h120v-121h-120v-418h-179v418h-114v121h114v264h-172v153h172v363h179v-363h206v-153z" />
    <glyph glyph-name="Umacron" unicode="&#x16a;" horiz-adv-x="1388" 
d="M438 1634v158h514v-158h-514zM694 -20q-141 0 -256.5 58t-186.5 174t-71 271v928h187v-928q0 -158 93 -241.5t234 -83.5t234.5 83.5t93.5 241.5v928h186v-928q0 -155 -71 -271t-186.5 -174t-256.5 -58z" />
    <glyph glyph-name="umacron" unicode="&#x16b;" horiz-adv-x="1177" 
d="M850 1337v-157h-514v157h514zM846 956h178v-956h-178v150q-39 -82 -133 -126t-185 -44q-181 0 -283.5 111.5t-101.5 311.5v553h179v-542q0 -118 64 -188t165 -70q53 0 102.5 15.5t93.5 47t71 88.5t28 131v518z" />
    <glyph glyph-name="Uring" unicode="&#x16e;" horiz-adv-x="1388" 
d="M690 1548q-88 0 -149.5 61t-61.5 150q0 90 61.5 152.5t149.5 62.5q91 0 154 -62t63 -153q0 -89 -63 -150t-154 -61zM690 1653q46 0 78.5 31t32.5 75q0 46 -32.5 77.5t-78.5 31.5q-43 0 -73.5 -31.5t-30.5 -77.5q0 -44 30.5 -75t73.5 -31zM694 -20q-141 0 -256.5 58
t-186.5 174t-71 271v928h187v-928q0 -158 93 -241.5t234 -83.5t234.5 83.5t93.5 241.5v928h186v-928q0 -155 -71 -271t-186.5 -174t-256.5 -58z" />
    <glyph glyph-name="uring" unicode="&#x16f;" horiz-adv-x="1177" 
d="M588 1094q-88 0 -149.5 61t-61.5 150q0 90 61.5 152.5t149.5 62.5q91 0 154 -62t63 -153q0 -89 -63 -150t-154 -61zM588 1413q-43 0 -74 -31.5t-31 -76.5q0 -44 31 -75.5t74 -31.5q46 0 78 31.5t32 75.5q0 46 -32 77t-78 31zM846 956h178v-956h-178v150
q-39 -82 -133 -126t-185 -44q-181 0 -283.5 111.5t-101.5 311.5v553h179v-542q0 -118 64 -188t165 -70q53 0 102.5 15.5t93.5 47t71 88.5t28 131v518z" />
    <glyph glyph-name="Uhungarumlaut" unicode="&#x170;" horiz-adv-x="1388" 
d="M481 1550l166 316h172l-182 -316h-156zM760 1550l182 316h178l-209 -316h-151zM694 -20q-141 0 -256.5 58t-186.5 174t-71 271v928h187v-928q0 -158 93 -241.5t234 -83.5t234.5 83.5t93.5 241.5v928h186v-928q0 -155 -71 -271t-186.5 -174t-256.5 -58z" />
    <glyph glyph-name="uhungarumlaut" unicode="&#x171;" horiz-adv-x="1177" 
d="M717 1411l-182 -315h-156l166 315h172zM809 1096h-152l183 315h178zM846 956h178v-956h-178v150q-39 -82 -133 -126t-185 -44q-181 0 -283.5 111.5t-101.5 311.5v553h179v-542q0 -118 64 -188t165 -70q53 0 102.5 15.5t93.5 47t71 88.5t28 131v518z" />
    <glyph glyph-name="Uogonek" unicode="&#x172;" horiz-adv-x="1388" 
d="M1022 1411h186v-928q0 -111 -37.5 -203.5t-102 -155t-150 -99.5t-183.5 -43l-55 -160q-6 -15 -6 -35q0 -37 21 -60.5t57 -23.5q35 0 61.5 28.5t26.5 73.5h121q0 -99 -57 -161t-152 -62q-90 0 -146.5 56.5t-56.5 148.5q0 40 20 86l47 111q-191 26 -313.5 158t-122.5 341
v928h187v-928q0 -158 93 -241.5t234 -83.5t234.5 83.5t93.5 241.5v928z" />
    <glyph glyph-name="uogonek" unicode="&#x173;" horiz-adv-x="1177" 
d="M1036 -195h121q0 -99 -57 -161t-152 -62q-90 0 -146.5 56.5t-56.5 148.5q0 38 21 86l80 182v95q-39 -82 -133 -126t-185 -44q-181 0 -283.5 111.5t-101.5 311.5v553h179v-542q0 -118 64 -188t165 -70q53 0 102.5 15.5t93.5 47t71 88.5t28 131v518h178v-956h-84l-63 -178
q-9 -15 -9 -35q0 -37 22 -60.5t58 -23.5q35 0 61.5 28.5t26.5 73.5z" />
    <glyph glyph-name="Wcircumflex" unicode="&#x174;" horiz-adv-x="1849" 
d="M924 1733l-154 -183h-164l225 316h187l225 -316h-164zM1618 1411h199l-478 -1411h-161l-254 891l-252 -891h-162l-477 1411h198l361 -1116l262 924h141l265 -920z" />
    <glyph glyph-name="wcircumflex" unicode="&#x175;" horiz-adv-x="1595" 
d="M797 1278l-154 -182h-164l226 315h186l225 -315h-164zM1372 956h193l-357 -956h-149l-264 711l-254 -711h-148l-364 956h192l244 -680l244 680h174l245 -680z" />
    <glyph glyph-name="Ycircumflex" unicode="&#x176;" horiz-adv-x="1277" 
d="M637 1733l-154 -183h-164l226 316h186l225 -316h-163zM1051 1411h223l-543 -760v-651h-186v651l-537 760h221l410 -577z" />
    <glyph glyph-name="ycircumflex" unicode="&#x177;" horiz-adv-x="1028" 
d="M516 1278l-154 -182h-163l225 315h186l226 -315h-164zM809 956h192l-593 -1421h-189l199 492l-383 929h192l289 -704z" />
    <glyph glyph-name="Ydieresis" unicode="&#x178;" horiz-adv-x="1277" 
d="M446 1575q-53 0 -88.5 34t-35.5 85t35.5 83.5t88.5 32.5q50 0 85.5 -33t35.5 -83t-35.5 -84.5t-85.5 -34.5zM831 1575q-51 0 -86.5 34t-35.5 85q0 50 35 83t87 33t88.5 -33t36.5 -83t-36.5 -84.5t-88.5 -34.5zM1051 1411h223l-543 -760v-651h-186v651l-537 760h221
l410 -577z" />
    <glyph glyph-name="Zacute" unicode="&#x179;" horiz-adv-x="1159" 
d="M928 1866l-244 -316h-172l199 316h217zM1065 1411v-160l-754 -1079h754v-172h-983v160l749 1079h-722v172h956z" />
    <glyph glyph-name="zacute" unicode="&#x17a;" horiz-adv-x="1015" 
d="M854 1411l-244 -315h-172l199 315h217zM922 956v-147l-590 -641h590v-168h-840v147l580 641h-549v168h809z" />
    <glyph glyph-name="Zdotaccent" unicode="&#x17b;" horiz-adv-x="1159" 
d="M582 1575q-53 0 -90 33.5t-37 83.5t37 84t90 34t89 -33.5t36 -84.5t-36 -84t-89 -33zM1065 1411v-160l-754 -1079h754v-172h-983v160l749 1079h-722v172h956z" />
    <glyph glyph-name="zdotaccent" unicode="&#x17c;" horiz-adv-x="1015" 
d="M508 1120q-53 0 -90 33.5t-37 83.5q0 51 37 85t90 34t89 -34t36 -85t-36 -84t-89 -33zM922 956v-147l-590 -641h590v-168h-840v147l580 641h-549v168h809z" />
    <glyph glyph-name="Zcaron" unicode="&#x17d;" horiz-adv-x="1159" 
d="M674 1550h-187l-225 316h164l154 -183l155 183h164zM1065 1411v-160l-754 -1079h754v-172h-983v160l749 1079h-722v172h956z" />
    <glyph glyph-name="zcaron" unicode="&#x17e;" horiz-adv-x="1015" 
d="M600 1096h-186l-226 315h164l154 -182l156 182h163zM922 956v-147l-590 -641h590v-168h-840v147l580 641h-549v168h809z" />
    <glyph glyph-name="longs" unicode="&#x17f;" horiz-adv-x="567" 
d="M594 1479h102v-168h-71q-217 0 -213 -230v-1081h-179v803h-184v153h184v101q0 197 88 309.5t273 112.5z" />
    <glyph glyph-name="florin" unicode="&#x192;" horiz-adv-x="1161" 
d="M983 1339h150l-33 -165h-117q-43 0 -77.5 -15t-56.5 -36.5t-39 -55.5t-26 -63t-18 -68l-18 -80h208v-168h-245l-78 -358q-16 -77 -34.5 -137t-50 -122.5t-71 -104t-98.5 -67.5t-131 -26l-176 2l32 156h119q43 0 77.5 16t56.5 39t39 59t26 65.5t18 70.5l90 407h-157v168
h196l19 84q14 69 31 121.5t48 107.5t71.5 90t103 57.5t141.5 22.5z" />
    <glyph glyph-name="uni01CD" unicode="&#x1cd;" horiz-adv-x="1280" 
d="M733 1550h-186l-225 316h163l154 -183l156 183h163zM1081 0l-137 362h-606l-137 -362h-195l537 1411h196l537 -1411h-195zM399 526h484l-242 639z" />
    <glyph glyph-name="uni01CE" unicode="&#x1ce;" horiz-adv-x="1245" 
d="M713 1096h-187l-225 315h164l153 -182l156 182h164zM911 956h179v-956h-179v152q-46 -81 -140 -126.5t-200 -45.5q-98 0 -185.5 36t-152.5 100t-103 158.5t-38 204.5q0 111 37.5 205t102.5 158t152 99.5t185 35.5q111 0 203.5 -44t138.5 -126v149zM586 147
q134 0 229.5 92.5t95.5 241.5q0 147 -99 237.5t-226 90.5q-132 0 -223 -92.5t-91 -235.5q0 -142 91.5 -238t222.5 -96z" />
    <glyph glyph-name="uni01CF" unicode="&#x1cf;" horiz-adv-x="577" 
d="M195 1550l-226 316h164l154 -183l155 183h164l-225 -316h-186zM197 0v1411h186v-1411h-186z" />
    <glyph glyph-name="uni01D0" unicode="&#x1d0;" horiz-adv-x="487" 
d="M150 1096l-226 315h164l154 -182l155 182h164l-225 -315h-186zM156 0v956h178v-956h-178z" />
    <glyph glyph-name="uni01D1" unicode="&#x1d1;" horiz-adv-x="1628" 
d="M719 1550l-225 316h163l154 -183l156 183h163l-225 -316h-186zM811 -20q-148 0 -280.5 57t-227 154t-150 230.5t-55.5 280.5q0 198 94 364.5t258 263.5t361 97q198 0 363 -97t259.5 -263.5t94.5 -364.5q0 -147 -56 -280.5t-151 -230.5t-228.5 -154t-281.5 -57zM811 152
q147 0 269.5 74.5t191.5 200.5t69 275q0 150 -69 277t-191.5 201.5t-269.5 74.5q-146 0 -267 -74.5t-190 -201.5t-69 -277q0 -149 69 -275t190 -200.5t267 -74.5z" />
    <glyph glyph-name="uni01D2" unicode="&#x1d2;" horiz-adv-x="1183" 
d="M498 1096l-226 315h164l154 -182l155 182h164l-225 -315h-186zM590 -20q-136 0 -249.5 61t-182 177t-68.5 263t68.5 261.5t181.5 174.5t250 60t250.5 -60t182.5 -174.5t69 -261.5t-69 -263t-183 -177t-250 -61zM590 147q135 0 229 94t94 240q0 145 -94 236.5t-229 91.5
q-134 0 -227 -91.5t-93 -236.5q0 -146 93.5 -240t226.5 -94z" />
    <glyph glyph-name="uni01D3" unicode="&#x1d3;" horiz-adv-x="1388" 
d="M600 1550l-225 316h164l153 -183l156 183h164l-226 -316h-186zM694 -20q-141 0 -256.5 58t-186.5 174t-71 271v928h187v-928q0 -158 93 -241.5t234 -83.5t234.5 83.5t93.5 241.5v928h186v-928q0 -155 -71 -271t-186.5 -174t-256.5 -58z" />
    <glyph glyph-name="uni01D4" unicode="&#x1d4;" horiz-adv-x="1177" 
d="M684 1096h-186l-226 315h164l154 -182l155 182h164zM846 956h178v-956h-178v150q-39 -82 -133 -126t-185 -44q-181 0 -283.5 111.5t-101.5 311.5v553h179v-542q0 -118 64 -188t165 -70q53 0 102.5 15.5t93.5 47t71 88.5t28 131v518z" />
    <glyph glyph-name="uni01D5" unicode="&#x1d5;" horiz-adv-x="1388" 
d="M438 1948v157h514v-157h-514zM502 1575q-53 0 -89 34t-36 85q0 50 36 83t89 33q50 0 85.5 -33t35.5 -83t-35.5 -84.5t-85.5 -34.5zM887 1575q-51 0 -87 34t-36 85q0 50 35.5 83t87.5 33t88.5 -33t36.5 -83t-36.5 -84.5t-88.5 -34.5zM694 -20q-141 0 -256.5 58t-186.5 174
t-71 271v928h187v-928q0 -158 93 -241.5t234 -83.5t234.5 83.5t93.5 241.5v928h186v-928q0 -155 -71 -271t-186.5 -174t-256.5 -58z" />
    <glyph glyph-name="uni01D6" unicode="&#x1d6;" horiz-adv-x="1177" 
d="M848 1677v-157h-514v157h514zM399 1120q-53 0 -89 34t-36 85t36 84t89 33q50 0 85.5 -33.5t35.5 -83.5t-35.5 -84.5t-85.5 -34.5zM662 1239q0 51 35 84t87 33t88.5 -33.5t36.5 -83.5t-36.5 -84.5t-88.5 -34.5q-51 0 -86.5 34t-35.5 85zM846 956h178v-956h-178v150
q-39 -82 -133 -126t-185 -44q-181 0 -283.5 111.5t-101.5 311.5v553h179v-542q0 -118 64 -188t165 -70q53 0 102.5 15.5t93.5 47t71 88.5t28 131v518z" />
    <glyph glyph-name="uni01D7" unicode="&#x1d7;" horiz-adv-x="1388" 
d="M625 1896l198 316h217l-243 -316h-172zM502 1575q-53 0 -89 34t-36 85q0 50 36 83t89 33q50 0 85.5 -33t35.5 -83t-35.5 -84.5t-85.5 -34.5zM887 1575q-51 0 -87 34t-36 85q0 50 35.5 83t87.5 33t88.5 -33t36.5 -83t-36.5 -84.5t-88.5 -34.5zM694 -20q-141 0 -256.5 58
t-186.5 174t-71 271v928h187v-928q0 -158 93 -241.5t234 -83.5t234.5 83.5t93.5 241.5v928h186v-928q0 -155 -71 -271t-186.5 -174t-256.5 -58z" />
    <glyph glyph-name="uni01D8" unicode="&#x1d8;" horiz-adv-x="1177" 
d="M936 1767l-244 -315h-172l199 315h217zM399 1120q-53 0 -89 34t-36 85t36 84t89 33q50 0 85.5 -33.5t35.5 -83.5t-35.5 -84.5t-85.5 -34.5zM662 1239q0 51 35 84t87 33t88.5 -33.5t36.5 -83.5t-36.5 -84.5t-88.5 -34.5q-51 0 -86.5 34t-35.5 85zM846 956h178v-956h-178
v150q-39 -82 -133 -126t-185 -44q-181 0 -283.5 111.5t-101.5 311.5v553h179v-542q0 -118 64 -188t165 -70q53 0 102.5 15.5t93.5 47t71 88.5t28 131v518z" />
    <glyph glyph-name="uni01D9" unicode="&#x1d9;" horiz-adv-x="1388" 
d="M600 1896l-225 316h164l153 -182l156 182h164l-226 -316h-186zM502 1575q-53 0 -89 34t-36 85q0 50 36 83t89 33q50 0 85.5 -33t35.5 -83t-35.5 -84.5t-85.5 -34.5zM887 1575q-51 0 -87 34t-36 85q0 50 35.5 83t87.5 33t88.5 -33t36.5 -83t-36.5 -84.5t-88.5 -34.5z
M694 -20q-141 0 -256.5 58t-186.5 174t-71 271v928h187v-928q0 -158 93 -241.5t234 -83.5t234.5 83.5t93.5 241.5v928h186v-928q0 -155 -71 -271t-186.5 -174t-256.5 -58z" />
    <glyph glyph-name="uni01DA" unicode="&#x1da;" horiz-adv-x="1177" 
d="M684 1452h-186l-226 315h164l154 -182l155 182h164zM399 1356q50 0 85.5 -33.5t35.5 -83.5t-35.5 -84.5t-85.5 -34.5q-53 0 -89 34t-36 85t36 84t89 33zM662 1239q0 51 35 84t87 33t88.5 -33.5t36.5 -83.5t-36.5 -84.5t-88.5 -34.5q-51 0 -86.5 34t-35.5 85zM846 956h178
v-956h-178v150q-39 -82 -133 -126t-185 -44q-181 0 -283.5 111.5t-101.5 311.5v553h179v-542q0 -118 64 -188t165 -70q53 0 102.5 15.5t93.5 47t71 88.5t28 131v518z" />
    <glyph glyph-name="uni01DB" unicode="&#x1db;" horiz-adv-x="1388" 
d="M600 1896l-242 316h217l199 -316h-174zM502 1575q-53 0 -89 34t-36 85q0 50 36 83t89 33q50 0 85.5 -33t35.5 -83t-35.5 -84.5t-85.5 -34.5zM887 1575q-51 0 -87 34t-36 85q0 50 35.5 83t87.5 33t88.5 -33t36.5 -83t-36.5 -84.5t-88.5 -34.5zM694 -20q-141 0 -256.5 58
t-186.5 174t-71 271v928h187v-928q0 -158 93 -241.5t234 -83.5t234.5 83.5t93.5 241.5v928h186v-928q0 -155 -71 -271t-186.5 -174t-256.5 -58z" />
    <glyph glyph-name="uni01DC" unicode="&#x1dc;" horiz-adv-x="1177" 
d="M670 1452h-174l-242 315h217zM399 1356q50 0 85.5 -33.5t35.5 -83.5t-35.5 -84.5t-85.5 -34.5q-53 0 -89 34t-36 85t36 84t89 33zM784 1120q-51 0 -86.5 34t-35.5 85t35 84t87 33t88.5 -33.5t36.5 -83.5t-36.5 -84.5t-88.5 -34.5zM846 956h178v-956h-178v150
q-39 -82 -133 -126t-185 -44q-181 0 -283.5 111.5t-101.5 311.5v553h179v-542q0 -118 64 -188t165 -70q53 0 102.5 15.5t93.5 47t71 88.5t28 131v518z" />
    <glyph glyph-name="uni01E3" unicode="&#x1e3;" horiz-adv-x="1830" 
d="M1169 1337v-157h-514v157h514zM1745 481q0 -26 -4 -80h-776q22 -116 107 -185t204 -69q90 0 164 37.5t114 108.5l154 -62q-60 -121 -178 -186t-260 -65q-129 0 -237.5 56t-174.5 157q-185 -213 -426 -213q-157 0 -255.5 79.5t-98.5 212.5q0 132 99 217.5t286 85.5
q188 0 315 -71v71q0 110 -65.5 173t-186.5 63q-80 0 -158.5 -31t-129.5 -88l-111 107q48 67 123 109t141.5 55.5t134.5 13.5q265 0 369 -162q70 77 167 119.5t208 42.5q207 0 341 -136t134 -360zM965 555h602q-17 121 -97 187.5t-200 66.5q-133 0 -208.5 -68t-96.5 -186z
M434 141q91 0 198 53.5t159 133.5l-13 32q-68 39 -151 56.5t-150 17.5q-64 0 -111 -15t-71.5 -39.5t-35.5 -50.5t-11 -53q0 -59 49 -97t137 -38z" />
    <glyph glyph-name="Aringacute" unicode="&#x1fa;" horiz-adv-x="1280" 
d="M637 1548q-88 0 -149.5 61t-61.5 150q0 66 35.5 120t93.5 79l94 162h215l-129 -168q54 -27 86.5 -78.5t32.5 -114.5q0 -89 -63 -150t-154 -61zM637 1653q46 0 78.5 31t32.5 75q0 46 -32.5 77.5t-78.5 31.5q-43 0 -74 -32t-31 -77q0 -44 31 -75t74 -31zM1081 0l-137 362
h-606l-137 -362h-195l537 1411h196l537 -1411h-195zM399 526h484l-242 639z" />
    <glyph glyph-name="aringacute" unicode="&#x1fb;" horiz-adv-x="1245" 
d="M616 1094q-88 0 -148 61t-60 150q0 84 52.5 144t131.5 69l92 149h217l-156 -188q41 -30 65 -75.5t24 -98.5q0 -89 -63 -150t-155 -61zM616 1413q-43 0 -73.5 -31.5t-30.5 -76.5q0 -44 30.5 -75.5t73.5 -31.5q47 0 80 31.5t33 75.5q0 46 -33 77t-80 31zM911 956h179v-956
h-179v152q-46 -81 -140 -126.5t-200 -45.5q-98 0 -185.5 36t-152.5 100t-103 158.5t-38 204.5q0 111 37.5 205t102.5 158t152 99.5t185 35.5q111 0 203.5 -44t138.5 -126v149zM586 147q134 0 229.5 92.5t95.5 241.5q0 147 -99 237.5t-226 90.5q-132 0 -223 -92.5t-91 -235.5
q0 -142 91.5 -238t222.5 -96z" />
    <glyph glyph-name="AEacute" unicode="&#x1fc;" horiz-adv-x="1871" 
d="M1266 1866l-244 -316h-172l199 316h217zM1102 172h665v-172h-847v356h-537l-211 -356h-211l836 1411h948v-172h-643v-459h563v-174h-563v-434zM487 532h433v703h-17z" />
    <glyph glyph-name="aeacute" unicode="&#x1fd;" horiz-adv-x="1830" 
d="M1257 1411l-243 -315h-172l198 315h217zM1745 481q0 -26 -4 -80h-776q22 -116 107 -185t204 -69q90 0 164 37.5t114 108.5l154 -62q-60 -121 -178 -186t-260 -65q-129 0 -237.5 56t-174.5 157q-185 -213 -426 -213q-157 0 -255.5 79.5t-98.5 212.5q0 132 99 217.5
t286 85.5q188 0 315 -71v71q0 110 -65.5 173t-186.5 63q-80 0 -158.5 -31t-129.5 -88l-111 107q48 67 123 109t141.5 55.5t134.5 13.5q265 0 369 -162q70 77 167 119.5t208 42.5q207 0 341 -136t134 -360zM965 555h602q-17 121 -97 187.5t-200 66.5q-133 0 -208.5 -68
t-96.5 -186zM434 141q91 0 198 53.5t159 133.5l-13 32q-68 39 -151 56.5t-150 17.5q-64 0 -111 -15t-71.5 -39.5t-35.5 -50.5t-11 -53q0 -59 49 -97t137 -38z" />
    <glyph glyph-name="Oslashacute" unicode="&#x1fe;" horiz-adv-x="1638" 
d="M1165 1866l-243 -316h-172l198 316h217zM1366 1171q168 -201 168 -469q0 -147 -56 -280.5t-151 -230.5t-228.5 -154t-281.5 -57q-258 0 -452 161l-162 -168l-94 95l161 168q-166 200 -166 466q0 198 94 364.5t258 263.5t361 97q260 0 457 -163l166 170l92 -93zM291 702
q0 -189 108 -335l750 770q-144 118 -332 118q-146 0 -267 -74.5t-190 -201.5t-69 -277zM817 152q148 0 270 74t191.5 200t69.5 276q0 187 -109 338l-750 -772q141 -116 328 -116z" />
    <glyph glyph-name="oslashacute" unicode="&#x1ff;" horiz-adv-x="1189" 
d="M940 1411l-244 -315h-172l199 315h217zM1098 893l-103 -105q101 -128 101 -307q0 -147 -69 -263t-183 -177t-250 -61q-169 0 -297 92l-119 -121l-92 92l115 119q-107 133 -107 319q0 147 68.5 261.5t181.5 174.5t250 60q175 0 309 -98l103 106zM274 481q0 -103 54 -190
l452 463q-83 55 -186 55q-134 0 -227 -91.5t-93 -236.5zM918 481q0 97 -48 178l-450 -460q80 -52 174 -52q135 0 229.5 94t94.5 240z" />
    <glyph glyph-name="Scommaaccent" unicode="&#x218;" horiz-adv-x="1167" 
d="M602 -20q-144 0 -259 60.5t-176.5 156.5t-62.5 206h185q5 -100 91.5 -175.5t221.5 -75.5q132 0 208.5 70t76.5 169q0 166 -244 230l-182 45q-86 21 -150.5 55t-101 70t-58.5 81t-29 81t-7 75q0 118 65 210.5t170.5 140.5t229.5 48t225 -49t161 -143t60 -217h-184
q0 105 -77 171t-192 66q-111 0 -191.5 -62.5t-80.5 -162.5q0 -147 205 -196l184 -46q184 -45 283.5 -144t99.5 -247q0 -82 -33 -157.5t-92 -133t-149 -92t-197 -34.5zM524 -477l-116 39q63 84 85 158.5t11 195.5h178q3 -263 -158 -393z" />
    <glyph glyph-name="scommaaccent" unicode="&#x219;" horiz-adv-x="892" 
d="M436 -20q-138 0 -244 82.5t-112 222.5h166q2 -64 53.5 -107t136.5 -43q89 0 141 37t52 96q0 97 -131 125l-131 31q-126 34 -189 98.5t-63 175.5q0 120 92 199.5t235 79.5q63 0 120.5 -17t105 -49.5t76 -87.5t28.5 -125h-172q-1 54 -47.5 88.5t-106.5 34.5
q-68 0 -110.5 -36.5t-42.5 -92.5q0 -46 35 -74t88 -40l141 -35q250 -62 250 -277q0 -129 -108 -207.5t-263 -78.5zM383 -477l-117 39q63 84 85 158.5t11 195.5h179q3 -263 -158 -393z" />
    <glyph glyph-name="uni021A" unicode="&#x21a;" horiz-adv-x="1128" 
d="M41 1411h1046v-172h-430v-1239h-186v1239h-430v172zM483 -84h179q3 -263 -158 -393l-117 39q63 84 85 158.5t11 195.5z" />
    <glyph glyph-name="uni021B" unicode="&#x21b;" horiz-adv-x="657" 
d="M408 956h206v-153h-206v-803h-179v803h-172v153h172v363h179v-363zM254 -84h178q3 -263 -158 -393l-116 39q63 84 85 158.5t11 195.5z" />
    <glyph glyph-name="circumflex" unicode="&#x2c6;" horiz-adv-x="1067" 
d="M215 1133l225 315h187l225 -315h-164l-156 182l-153 -182h-164z" />
    <glyph glyph-name="caron" unicode="&#x2c7;" horiz-adv-x="1067" 
d="M440 1133l-225 315h164l153 -182l156 182h164l-225 -315h-187z" />
    <glyph glyph-name="breve" unicode="&#x2d8;" horiz-adv-x="991" 
d="M494 1159q-131 0 -198 75.5t-67 186.5h148q0 -55 31.5 -90t85.5 -35q52 0 84 38.5t32 86.5h150q0 -121 -72 -191.5t-194 -70.5z" />
    <glyph glyph-name="dotaccent" unicode="&#x2d9;" horiz-adv-x="1071" 
d="M537 1169q-53 0 -90 34t-37 85t37 85t90 34t89 -34t36 -85t-36 -85t-89 -34z" />
    <glyph glyph-name="ring" unicode="&#x2da;" horiz-adv-x="1083" 
d="M539 1094q-88 0 -149.5 61t-61.5 150q0 90 61.5 152.5t149.5 62.5q91 0 154 -62t63 -153q0 -89 -63 -150t-154 -61zM539 1198q46 0 78 31.5t32 75.5q0 46 -32 77t-78 31q-43 0 -74 -31.5t-31 -76.5q0 -44 31 -75.5t74 -31.5z" />
    <glyph glyph-name="ogonek" unicode="&#x2db;" horiz-adv-x="1067" 
d="M530 -418q-90 0 -146 56.5t-56 148.5q0 40 20 86l82 193h115l-86 -244q-6 -15 -6 -35q0 -38 20.5 -61t56.5 -23q35 0 61.5 28.5t26.5 73.5h121q0 -99 -57 -161t-152 -62z" />
    <glyph glyph-name="tilde" unicode="&#x2dc;" horiz-adv-x="876" 
d="M168 1165q7 123 58 179.5t120 56.5q39 0 75.5 -21.5t63.5 -43t43 -21.5q23 0 41 20.5t19 65.5h121q-7 -121 -60 -176.5t-121 -55.5q-39 0 -73 21.5t-61 43t-48 21.5t-38.5 -22t-18.5 -68h-121z" />
    <glyph glyph-name="hungarumlaut" unicode="&#x2dd;" horiz-adv-x="966" 
d="M164 1133l166 315h172l-183 -315h-155zM442 1133l183 315h178l-209 -315h-152z" />
    <glyph glyph-name="gravecomb" unicode="&#x300;" horiz-adv-x="0" 
d="M-537 1096l-241 315h217l199 -315h-175z" />
    <glyph glyph-name="acutecomb" unicode="&#x301;" horiz-adv-x="0" 
d="M-776 1096l198 315h218l-244 -315h-172z" />
    <glyph glyph-name="uni0302" unicode="&#x302;" horiz-adv-x="0" 
d="M-852 1096l225 315h187l225 -315h-164l-156 182l-153 -182h-164z" />
    <glyph glyph-name="tildecomb" unicode="&#x303;" horiz-adv-x="0" 
d="M-709 1130q7 123 58.5 179.5t120.5 56.5q39 0 75.5 -21.5t63.5 -43t43 -21.5q22 0 40 20.5t19 63.5h121q-7 -121 -59 -175t-121 -54q-39 0 -73 21.5t-61 43t-48 21.5t-39 -23t-19 -68h-121z" />
    <glyph glyph-name="uni0304" unicode="&#x304;" horiz-adv-x="0" 
d="M-760 1180v157h514v-157h-514z" />
    <glyph glyph-name="uni0306" unicode="&#x306;" horiz-adv-x="0" 
d="M-498 1126q-131 0 -197.5 76t-66.5 187h148q0 -55 31 -90t85 -35q53 0 85 38t32 87h150q0 -121 -72.5 -192t-194.5 -71z" />
    <glyph glyph-name="uni0307" unicode="&#x307;" horiz-adv-x="0" 
d="M-535 1120q-53 0 -90 33.5t-37 83.5q0 51 37 85t90 34t89 -34t36 -85t-36 -84t-89 -33z" />
    <glyph glyph-name="uni0308" unicode="&#x308;" horiz-adv-x="0" 
d="M-756 1120q-53 0 -89 34t-36 85t36 84t89 33q50 0 85.5 -33.5t35.5 -83.5t-35.5 -84.5t-85.5 -34.5zM-371 1120q-51 0 -87 34t-36 85q0 50 35.5 83.5t87.5 33.5t88.5 -33.5t36.5 -83.5t-36.5 -84.5t-88.5 -34.5z" />
    <glyph glyph-name="uni030A" unicode="&#x30a;" horiz-adv-x="0" 
d="M-545 1094q-88 0 -149.5 61t-61.5 150q0 90 61.5 152.5t149.5 62.5q91 0 154 -62t63 -153q0 -89 -63 -150t-154 -61zM-545 1198q46 0 78.5 31.5t32.5 75.5q0 45 -32.5 76.5t-78.5 31.5q-43 0 -73.5 -31.5t-30.5 -76.5q0 -44 30.5 -75.5t73.5 -31.5z" />
    <glyph glyph-name="uni030B" unicode="&#x30b;" horiz-adv-x="0" 
d="M-803 1096l166 315h172l-182 -315h-156zM-524 1096l182 315h178l-209 -315h-151z" />
    <glyph glyph-name="uni030C" unicode="&#x30c;" horiz-adv-x="0" 
d="M-627 1096l-225 315h164l153 -182l156 182h164l-225 -315h-187z" />
    <glyph glyph-name="uni0326" unicode="&#x326;" horiz-adv-x="0" 
d="M-303 -477l-117 39q63 84 85 158.5t11 195.5h179q3 -263 -158 -393z" />
    <glyph glyph-name="uni0327" unicode="&#x327;" horiz-adv-x="0" 
d="M-530 -418q-95 0 -152 62t-57 161h121q0 -45 26.5 -73.5t61.5 -28.5q36 0 56.5 23t20.5 61q0 20 -6 35l-86 244h113l84 -193q20 -46 20 -86q0 -92 -56 -148.5t-146 -56.5z" />
    <glyph glyph-name="uni0328" unicode="&#x328;" horiz-adv-x="0" 
d="M-537 -418q-90 0 -146 56.5t-56 148.5q0 40 20 86l82 193h115l-86 -244q-6 -15 -6 -35q0 -38 20.5 -61t56.5 -23q35 0 61.5 28.5t26.5 73.5h121q0 -99 -57 -161t-152 -62z" />
    <glyph glyph-name="uni0394" unicode="&#x394;" horiz-adv-x="1294" 
d="M745 1411l535 -1411h-1270l537 1411h198zM268 164h756l-377 1001z" />
    <glyph glyph-name="uni03A9" unicode="&#x3a9;" horiz-adv-x="1687" 
d="M1556 725q0 -170 -78 -319.5t-212 -233.5h278v-172h-588v162q168 47 291 207.5t123 355.5q0 149 -69 270.5t-189.5 190.5t-267.5 69q-148 0 -268.5 -69t-189.5 -190.5t-69 -270.5q0 -195 122.5 -355.5t289.5 -207.5v-162h-588v172h279q-133 85 -211 234.5t-78 318.5
q0 148 55.5 278.5t150.5 223.5t227 146.5t280 53.5q198 0 361 -91t257 -252.5t94 -358.5z" />
    <glyph glyph-name="pi" unicode="&#x3c0;" 
d="M1061 788h-170v-501q0 -79 38 -109.5t118 -30.5v-167h-17q-151 3 -234 79t-83 230v499h-314v-788h-180v788h-143v168h985v-168z" />
    <glyph glyph-name="uni0401" unicode="&#x401;" 
d="M389 1575q-53 0 -89 34t-36 85q0 50 36 83t89 33q50 0 85.5 -33t35.5 -83t-35.5 -84.5t-85.5 -34.5zM774 1575q-51 0 -87 34t-36 85q0 50 35.5 83t87.5 33t88.5 -33t36.5 -83t-36.5 -84.5t-88.5 -34.5zM381 172h668v-172h-852v1411h831v-172h-647v-459h565v-174h-565
v-434z" />
    <glyph glyph-name="uni0410" unicode="&#x410;" horiz-adv-x="1280" 
d="M1081 0l-137 362h-606l-137 -362h-195l537 1411h196l537 -1411h-195zM399 526h484l-242 639z" />
    <glyph glyph-name="uni0411" unicode="&#x411;" horiz-adv-x="1234" 
d="M727 879q90 0 162.5 -25t121 -66.5t81 -98.5t47 -119t14.5 -130q0 -86 -24 -162t-73 -139.5t-133.5 -101t-195.5 -37.5h-530v1411h817v-172h-631v-360h344zM731 172q107 0 171.5 74.5t64.5 193.5q0 126 -70 197.5t-219 71.5h-295v-537h348z" />
    <glyph glyph-name="uni0412" unicode="&#x412;" horiz-adv-x="1290" 
d="M930 752q80 -18 139 -74t87 -129t28 -152q0 -103 -48 -192.5t-144 -147t-220 -57.5h-575v1411h530q175 0 278 -97t103 -263q0 -102 -42.5 -182.5t-135.5 -116.5zM725 1239h-342v-416h348q92 0 141.5 57.5t49.5 151.5q0 93 -51.5 150t-145.5 57zM733 172q125 0 194.5 69
t69.5 173q0 103 -66 174t-188 71h-360v-487h350z" />
    <glyph glyph-name="uni0413" unicode="&#x413;" horiz-adv-x="964" 
d="M197 1411h725v-172h-539v-1239h-186v1411z" />
    <glyph glyph-name="uni0414" unicode="&#x414;" horiz-adv-x="1376" 
d="M1151 172h121v-465h-187v293h-862v-293h-186v465h20q116 0 182 100.5t66 296.5v842h846v-1239zM492 1239v-672q0 -248 -103 -395h578v1067h-475z" />
    <glyph glyph-name="uni0415" unicode="&#x415;" 
d="M381 172h668v-172h-852v1411h831v-172h-647v-459h565v-174h-565v-434z" />
    <glyph glyph-name="uni0416" unicode="&#x416;" horiz-adv-x="1771" 
d="M1792 0h-250l-563 602v-602h-186v602l-564 -602h-249l659 702l-547 709h227l474 -616v616h186v-616l473 616h227l-546 -709z" />
    <glyph glyph-name="uni0417" unicode="&#x417;" horiz-adv-x="1146" 
d="M793 756q117 -35 184 -127.5t67 -218.5q0 -192 -140 -311t-367 -119q-161 0 -290.5 77.5t-197.5 214.5l162 88q51 -97 135 -152.5t180 -55.5q142 0 236 72t94 182q0 118 -90.5 191t-230.5 73h-158v164h143q120 0 192 58t72 155q0 93 -66.5 150.5t-174.5 57.5
q-78 0 -154 -38t-119 -99l-135 103q58 94 170.5 150t241.5 56q195 0 311.5 -103t116.5 -275q0 -98 -47.5 -176t-134.5 -117z" />
    <glyph glyph-name="uni0418" unicode="&#x418;" horiz-adv-x="1409" 
d="M1028 1411h184v-1411h-186v1075l-651 -1075h-180v1411h186v-1071z" />
    <glyph glyph-name="uni0419" unicode="&#x419;" horiz-adv-x="1409" 
d="M707 1581q-122 0 -194.5 70.5t-72.5 191.5h150q0 -49 32 -87t85 -38q54 0 85 35t31 90h148q0 -111 -66.5 -186.5t-197.5 -75.5zM1028 1411h184v-1411h-186v1075l-651 -1075h-180v1411h186v-1071z" />
    <glyph glyph-name="uni041A" unicode="&#x41a;" horiz-adv-x="1169" 
d="M1194 0h-248l-565 604v-604h-184v1411h184v-616l473 616h227l-544 -706z" />
    <glyph glyph-name="uni041B" unicode="&#x41b;" horiz-adv-x="1345" 
d="M303 1411h846v-1411h-184v1239h-476v-735q0 -248 -112 -376t-307 -128h-35v172h20q117 0 182.5 81.5t65.5 252.5v905z" />
    <glyph glyph-name="uni041C" unicode="&#x41c;" horiz-adv-x="1918" 
d="M1804 0h-182l-131 1075l-449 -921h-161l-453 921l-129 -1075h-182l172 1411h168l504 -1046l501 1046h168z" />
    <glyph glyph-name="uni041D" unicode="&#x41d;" horiz-adv-x="1456" 
d="M1075 1411h187v-1411h-187v616h-692v-616h-186v1411h186v-625h692v625z" />
    <glyph glyph-name="uni041E" unicode="&#x41e;" horiz-adv-x="1628" 
d="M811 -20q-148 0 -280.5 57t-227 154t-150 230.5t-55.5 280.5q0 198 94 364.5t258 263.5t361 97q198 0 363 -97t259.5 -263.5t94.5 -364.5q0 -147 -56 -280.5t-151 -230.5t-228.5 -154t-281.5 -57zM811 152q147 0 269.5 74.5t191.5 200.5t69 275q0 150 -69 277
t-191.5 201.5t-269.5 74.5q-146 0 -267 -74.5t-190 -201.5t-69 -277q0 -149 69 -275t190 -200.5t267 -74.5z" />
    <glyph glyph-name="uni041F" unicode="&#x41f;" horiz-adv-x="1423" 
d="M197 1411h1032v-1411h-187v1243h-659v-1243h-186v1411z" />
    <glyph glyph-name="uni0420" unicode="&#x420;" horiz-adv-x="1249" 
d="M758 1411q108 0 191 -37.5t131.5 -101t73 -140t24.5 -161.5q0 -87 -24.5 -163.5t-73 -140t-131.5 -100.5t-191 -37h-375v-530h-186v1411h561zM745 705q123 0 184.5 77t61.5 189q0 51 -13.5 97.5t-40.5 85.5t-74 62t-107 23h-373v-534h362z" />
    <glyph glyph-name="uni0421" unicode="&#x421;" horiz-adv-x="1413" 
d="M815 -20q-196 0 -361 96.5t-260.5 263t-95.5 362.5q0 197 95.5 363t260.5 263t361 97q160 0 297.5 -63.5t233.5 -175.5l-136 -115q-72 85 -175 133.5t-220 48.5q-146 0 -268 -74t-192 -201t-70 -276t70 -275t192 -200.5t268 -74.5q117 0 220 48.5t175 133.5l136 -115
q-96 -112 -233.5 -175.5t-297.5 -63.5z" />
    <glyph glyph-name="uni0422" unicode="&#x422;" horiz-adv-x="1128" 
d="M1087 1411v-172h-430v-1239h-186v1239h-430v172h1046z" />
    <glyph glyph-name="uni0423" unicode="&#x423;" horiz-adv-x="1224" 
d="M1030 1411h203l-731 -1411h-203l244 457l-549 954h213l430 -774z" />
    <glyph glyph-name="uni0424" unicode="&#x424;" horiz-adv-x="1732" 
d="M1640 702q0 -238 -167.5 -381t-511.5 -161v-160h-187v160q-346 18 -514 160.5t-168 381.5q0 241 168 384t514 161v164h187v-164q344 -18 511.5 -161.5t167.5 -383.5zM279 702q0 -160 122 -256.5t373 -113.5v743q-251 -17 -373 -114.5t-122 -258.5zM961 332
q251 17 372 113.5t121 256.5q0 161 -121 258.5t-372 114.5v-743z" />
    <glyph glyph-name="uni0425" unicode="&#x425;" horiz-adv-x="1243" 
d="M1227 0h-223l-383 606l-383 -606h-222l494 760l-438 651h221l328 -502l329 502h221l-440 -653z" />
    <glyph glyph-name="uni0426" unicode="&#x426;" horiz-adv-x="1480" 
d="M1255 172h121v-465h-186v293h-993v1411h186v-1243h686v1243h186v-1239z" />
    <glyph glyph-name="uni0427" unicode="&#x427;" horiz-adv-x="1325" 
d="M942 1411h186v-1411h-186v537q-157 -35 -364 -35q-239 0 -358.5 125.5t-119.5 382.5v401h187v-399q0 -181 71.5 -259.5t233.5 -78.5q201 0 350 35v702z" />
    <glyph glyph-name="uni0428" unicode="&#x428;" horiz-adv-x="2058" 
d="M1677 1411h187v-1411h-1667v1411h186v-1243h553v1243h186v-1243h555v1243z" />
    <glyph glyph-name="uni0429" unicode="&#x429;" horiz-adv-x="2088" 
d="M1864 172h121v-465h-187v293h-1601v1411h186v-1243h553v1243h186v-1243h555v1243h187v-1239z" />
    <glyph glyph-name="uni042A" unicode="&#x42a;" horiz-adv-x="1343" 
d="M848 879q89 0 162 -25t121 -66.5t81 -98.5t47.5 -119t14.5 -130q0 -85 -24.5 -161.5t-73.5 -140t-133.5 -101t-194.5 -37.5h-531v1239h-288v172h475v-532h344zM852 172q106 0 170.5 74.5t64.5 193.5q0 127 -69.5 198t-218.5 71h-295v-537h348z" />
    <glyph glyph-name="uni042B" unicode="&#x42b;" horiz-adv-x="1738" 
d="M727 879q90 0 162.5 -25t121 -66.5t81 -98.5t47 -119t14.5 -130q0 -86 -24 -162t-73 -139.5t-133.5 -101t-195.5 -37.5h-530v1411h186v-532h344zM1356 1411h186v-1411h-186v1411zM731 172q107 0 171.5 74.5t64.5 193.5q0 126 -70 197.5t-219 71.5h-295v-537h348z" />
    <glyph glyph-name="uni042C" unicode="&#x42c;" horiz-adv-x="1224" 
d="M727 879q90 0 162.5 -25t121 -66.5t81 -98.5t47 -119t14.5 -130q0 -86 -24 -162t-73 -139.5t-133.5 -101t-195.5 -37.5h-530v1411h186v-532h344zM731 172q107 0 171.5 74.5t64.5 193.5q0 126 -70 197.5t-219 71.5h-295v-537h348z" />
    <glyph glyph-name="uni042D" unicode="&#x42d;" horiz-adv-x="1423" 
d="M608 1425q196 0 360.5 -97t259.5 -263t95 -363q0 -147 -56 -280.5t-151.5 -230.5t-228 -154t-279.5 -57q-160 0 -298 63.5t-232 175.5l133 115q73 -85 177 -133.5t220 -48.5q196 0 341.5 129.5t178.5 324.5h-718v174h720q-27 202 -174 337.5t-348 135.5
q-116 0 -220 -48.5t-177 -133.5l-133 115q94 112 232 175.5t298 63.5z" />
    <glyph glyph-name="uni042E" unicode="&#x42e;" horiz-adv-x="2150" 
d="M1333 1427q198 0 363 -97t259.5 -263.5t94.5 -364.5q0 -147 -56 -280.5t-151 -230.5t-228.5 -154t-281.5 -57q-137 0 -261 49.5t-216.5 134t-153 202t-75.5 250.5h-244v-616h-186v1411h186v-625h244q20 179 117 325.5t252 231t337 84.5zM1333 152q147 0 269.5 74.5
t192 200.5t69.5 275q0 150 -69.5 277t-192 201.5t-269.5 74.5q-146 0 -266.5 -74.5t-189 -201.5t-68.5 -277q0 -149 68.5 -275t189 -200.5t266.5 -74.5z" />
    <glyph glyph-name="uni042F" unicode="&#x42f;" horiz-adv-x="1265" 
d="M539 1411h530v-1411h-186v532h-185l-368 -532h-224l375 535q-77 8 -140 36t-105 70t-70 96t-40.5 112.5t-12.5 121.5q0 86 24 162t73 139.5t133.5 101t195.5 37.5zM588 702h295v537h-348q-107 0 -171.5 -74.5t-64.5 -193.5q0 -126 70 -197.5t219 -71.5z" />
    <glyph glyph-name="uni0430" unicode="&#x430;" horiz-adv-x="1245" 
d="M911 956h179v-956h-179v152q-46 -81 -140 -126.5t-200 -45.5q-98 0 -185.5 36t-152.5 100t-103 158.5t-38 204.5q0 111 37.5 205t102.5 158t152 99.5t185 35.5q111 0 203.5 -44t138.5 -126v149zM586 147q134 0 229.5 92.5t95.5 241.5q0 147 -99 237.5t-226 90.5
q-132 0 -223 -92.5t-91 -235.5q0 -142 91.5 -238t222.5 -96z" />
    <glyph glyph-name="uni0431" unicode="&#x431;" horiz-adv-x="1210" 
d="M637 977q95 0 182.5 -35.5t154 -98.5t106.5 -157.5t40 -204.5q0 -147 -69 -263t-183 -177t-250 -61q-85 0 -158 21.5t-136.5 69t-108.5 119t-70.5 176t-25.5 234.5q0 81 7.5 154t27 150t50.5 142.5t81 127.5t115 109t156.5 82.5t201.5 53.5q57 8 82.5 23.5t52.5 50.5
l145 -78q-22 -58 -88 -98.5t-153 -56.5q-105 -17 -185.5 -48.5t-131 -70t-86 -90t-52.5 -100.5t-27 -111q52 60 140 98.5t182 38.5zM618 147q134 0 228 94t94 240q0 144 -94 236t-228 92t-227.5 -91t-93.5 -231q0 -148 92.5 -244t228.5 -96z" />
    <glyph glyph-name="uni0432" unicode="&#x432;" horiz-adv-x="1118" 
d="M854 510q85 -18 128.5 -85.5t43.5 -152.5q0 -108 -82 -190t-231 -82h-557v956h524q132 0 211.5 -68.5t79.5 -176.5q0 -159 -117 -201zM672 788h-338v-219h342q56 0 86.5 28.5t30.5 80.5q0 51 -31 80.5t-90 29.5zM696 168q73 0 111.5 34.5t38.5 88.5q0 56 -39 92.5
t-113 36.5h-360v-252h362z" />
    <glyph glyph-name="uni0433" unicode="&#x433;" horiz-adv-x="788" 
d="M156 956h589v-168h-411v-788h-178v956z" />
    <glyph glyph-name="uni0434" unicode="&#x434;" horiz-adv-x="1079" 
d="M903 113h84v-353h-180v240h-582v-240h-178v379h14q179 0 179 316v501h663v-843zM418 416q0 -178 -80 -252h385v624h-305v-372z" />
    <glyph glyph-name="uni0435" unicode="&#x435;" horiz-adv-x="1142" 
d="M1057 481q0 -26 -4 -80h-779q20 -124 103.5 -189t210.5 -65q90 0 164.5 38t113.5 108l156 -62q-61 -121 -179.5 -186t-260.5 -65q-136 0 -247.5 61t-178 176.5t-66.5 263.5q0 222 141.5 359t350.5 137q207 0 341 -136t134 -360zM276 555h603q-17 121 -97 187.5t-200 66.5
q-125 0 -205 -64t-101 -190z" />
    <glyph glyph-name="uni0436" unicode="&#x436;" horiz-adv-x="1355" 
d="M1358 0h-244l-348 362v-362h-178v358l-348 -358h-244l475 479l-389 477h223l283 -356v356h178v-362l285 362h223l-393 -477z" />
    <glyph glyph-name="uni0437" unicode="&#x437;" horiz-adv-x="884" 
d="M612 518q86 -28 133.5 -90.5t49.5 -148.5q0 -132 -105.5 -215.5t-277.5 -83.5q-118 0 -210 42.5t-147 124.5l140 101q76 -98 206 -98q95 0 154 38.5t59 100.5q0 66 -56 106.5t-146 40.5h-115v135h78q88 0 139 37t51 94q0 47 -45.5 76t-116.5 29q-56 0 -108 -21t-82 -57
l-111 115q56 61 139 97t181 36q147 0 235 -71t88 -193q0 -61 -35 -113.5t-98 -81.5z" />
    <glyph glyph-name="uni0438" unicode="&#x438;" horiz-adv-x="1120" 
d="M803 956h162v-956h-179v664l-483 -664h-147v956h178v-649z" />
    <glyph glyph-name="uni0439" unicode="&#x439;" horiz-adv-x="1120" 
d="M532 1130q-131 0 -197.5 76t-66.5 187h148q0 -55 31 -90t85 -35q53 0 85 38t32 87h150q0 -121 -72.5 -192t-194.5 -71zM803 956h162v-956h-179v664l-483 -664h-147v956h178v-649z" />
    <glyph glyph-name="uni043A" unicode="&#x43a;" horiz-adv-x="907" 
d="M918 0h-236l-348 365v-365h-178v956h178v-358l282 358h218l-388 -477z" />
    <glyph glyph-name="uni043B" unicode="&#x43b;" horiz-adv-x="1083" 
d="M240 956h688v-956h-178v788h-332v-409q0 -182 -83 -280.5t-224 -98.5h-64v158h23q83 0 126.5 50t43.5 175v573z" />
    <glyph glyph-name="uni043C" unicode="&#x43c;" horiz-adv-x="1421" 
d="M1321 0h-180l-82 627l-277 -518h-143l-277 518l-81 -627h-183l127 956h152l336 -649l327 649h156z" />
    <glyph glyph-name="uni043D" unicode="&#x43d;" horiz-adv-x="1140" 
d="M807 956h180v-956h-180v397h-473v-397h-178v956h178v-399h473v399z" />
    <glyph glyph-name="uni043E" unicode="&#x43e;" horiz-adv-x="1183" 
d="M590 -20q-136 0 -249.5 61t-182 177t-68.5 263t68.5 261.5t181.5 174.5t250 60t250.5 -60t182.5 -174.5t69 -261.5t-69 -263t-183 -177t-250 -61zM590 147q135 0 229 94t94 240q0 145 -94 236.5t-229 91.5q-134 0 -227 -91.5t-93 -236.5q0 -146 93.5 -240t226.5 -94z" />
    <glyph glyph-name="uni043F" unicode="&#x43f;" horiz-adv-x="1107" 
d="M156 956h796v-956h-178v788h-440v-788h-178v956z" />
    <glyph glyph-name="uni0440" unicode="&#x440;" horiz-adv-x="1245" 
d="M674 977q98 0 185.5 -36t152.5 -100.5t103 -159t38 -204.5q0 -111 -37.5 -205t-102.5 -157.5t-152 -99t-185 -35.5q-111 0 -203.5 44t-138.5 126v-615h-178v1421h178v-151q46 81 140 126.5t200 45.5zM657 147q134 0 225 92.5t91 235.5q0 142 -91.5 238t-224.5 96
t-228 -92.5t-95 -241.5q0 -99 49 -176t121.5 -114.5t152.5 -37.5z" />
    <glyph glyph-name="uni0441" unicode="&#x441;" horiz-adv-x="1038" 
d="M604 -18q-138 0 -254.5 60t-188 175t-71.5 262q0 111 42 205.5t112.5 158t163.5 99t196 35.5q110 0 205 -40.5t160 -111.5l-113 -116q-97 100 -246 100q-144 0 -242 -92.5t-98 -237.5t98 -237t242 -92q149 0 246 100l113 -117q-64 -71 -159 -111t-206 -40z" />
    <glyph glyph-name="uni0442" unicode="&#x442;" horiz-adv-x="841" 
d="M797 956v-168h-287v-788h-178v788h-287v168h752z" />
    <glyph glyph-name="uni0443" unicode="&#x443;" horiz-adv-x="1028" 
d="M809 956h192l-593 -1421h-189l199 492l-383 929h192l289 -704z" />
    <glyph glyph-name="uni0444" unicode="&#x444;" horiz-adv-x="1388" 
d="M1298 475q0 -209 -135.5 -340t-384.5 -151v-449h-170v449q-249 20 -384.5 151t-135.5 340q2 211 137 344.5t383 153.5v506h170v-504q249 -20 384.5 -154t135.5 -346zM778 152q167 17 254.5 101t87.5 222q-2 139 -89 225.5t-253 104.5v-653zM268 475q0 -138 86.5 -222
t253.5 -101v653q-166 -18 -253 -104.5t-87 -225.5z" />
    <glyph glyph-name="uni0445" unicode="&#x445;" horiz-adv-x="1003" 
d="M985 0h-213l-270 375l-273 -375h-213l379 526l-309 430h215l201 -284l200 284h218l-312 -432z" />
    <glyph glyph-name="uni0446" unicode="&#x446;" horiz-adv-x="1110" 
d="M907 168h113v-408h-178v240h-686v956h178v-788h395v788h178v-788z" />
    <glyph glyph-name="uni0447" unicode="&#x447;" horiz-adv-x="1032" 
d="M700 956h179v-956h-179v332q-135 -21 -278 -21q-167 0 -251.5 89t-84.5 278v278h180v-274q0 -115 49 -162t148 -47q113 0 237 19v464z" />
    <glyph glyph-name="uni0448" unicode="&#x448;" horiz-adv-x="1505" 
d="M1171 956h181v-956h-1196v956h178v-788h330v788h178v-788h329v788z" />
    <glyph glyph-name="uni0449" unicode="&#x449;" horiz-adv-x="1552" 
d="M1352 168h108v-408h-176v240h-1128v956h178v-788h330v788h178v-788h329v788h181v-788z" />
    <glyph glyph-name="uni044A" unicode="&#x44a;" horiz-adv-x="1060" 
d="M666 610q86 0 151 -24t103 -66.5t56.5 -95.5t18.5 -115q0 -48 -11 -91.5t-35.5 -83.5t-60.5 -69.5t-90 -47t-120 -17.5h-434v788h-197v168h375v-346h244zM649 168q84 0 126 38t42 101q0 62 -42 98.5t-128 36.5h-225v-274h227z" />
    <glyph glyph-name="uni044B" unicode="&#x44b;" horiz-adv-x="1359" 
d="M578 610q86 0 150.5 -24t103 -66.5t57 -95.5t18.5 -115q0 -60 -18.5 -113.5t-55 -98t-99.5 -71t-144 -26.5h-434v956h178v-346h244zM1026 956h178v-956h-178v956zM559 168q84 0 127 38t43 101q0 61 -43 98t-127 37h-225v-274h225z" />
    <glyph glyph-name="uni044C" unicode="&#x44c;" horiz-adv-x="970" 
d="M578 610q86 0 150.5 -24t103 -66.5t57 -95.5t18.5 -115q0 -60 -18.5 -113.5t-55 -98t-99.5 -71t-144 -26.5h-434v956h178v-346h244zM559 168q84 0 127 38t43 101q0 61 -43 98t-127 37h-225v-274h225z" />
    <glyph glyph-name="uni044D" unicode="&#x44d;" horiz-adv-x="1079" 
d="M475 977q141 0 260 -67.5t187.5 -182t68.5 -248.5t-68.5 -249t-187.5 -182.5t-260 -67.5q-121 0 -226 50.5t-175 139.5l135 100q102 -123 262 -123q120 0 208.5 69t117.5 175h-465v162h469q-25 111 -115.5 183.5t-214.5 72.5q-160 0 -262 -123l-135 98q70 90 175 141.5
t226 51.5z" />
    <glyph glyph-name="uni044E" unicode="&#x44e;" horiz-adv-x="1581" 
d="M989 977q137 0 250.5 -60t182.5 -174.5t69 -261.5t-69 -263t-183 -177t-250 -61q-123 0 -228 50t-176 146t-89 221h-162v-397h-178v956h178v-399h160q26 190 165 305t330 115zM989 147q134 0 229 94t95 240q0 144 -95 236t-229 92q-135 0 -228 -91.5t-93 -236.5
q0 -147 93 -240.5t228 -93.5z" />
    <glyph glyph-name="uni044F" unicode="&#x44f;" horiz-adv-x="978" 
d="M424 956h401v-956h-180v348h-94l-250 -348h-211l266 354q-127 21 -191.5 102.5t-64.5 194.5q0 59 19.5 112.5t57.5 97.5t102 69.5t145 25.5zM459 502h186v286h-205q-76 0 -117.5 -39.5t-41.5 -101.5q0 -65 45 -105t133 -40z" />
    <glyph glyph-name="uni0451" unicode="&#x451;" horiz-adv-x="1142" 
d="M377 1120q-53 0 -89 34t-36 85t36 84t89 33q50 0 85.5 -33.5t35.5 -83.5t-35.5 -84.5t-85.5 -34.5zM762 1120q-51 0 -87 34t-36 85q0 50 35.5 83.5t87.5 33.5t88.5 -33.5t36.5 -83.5t-36.5 -84.5t-88.5 -34.5zM1057 481q0 -26 -4 -80h-779q20 -124 103.5 -189t210.5 -65
q90 0 164.5 38t113.5 108l156 -62q-61 -121 -179.5 -186t-260.5 -65q-136 0 -247.5 61t-178 176.5t-66.5 263.5q0 222 141.5 359t350.5 137q207 0 341 -136t134 -360zM276 555h603q-17 121 -97 187.5t-200 66.5q-125 0 -205 -64t-101 -190z" />
    <glyph glyph-name="Wgrave" unicode="&#x1e80;" horiz-adv-x="1849" 
d="M1006 1550h-175l-241 316h217zM1618 1411h199l-478 -1411h-161l-254 891l-252 -891h-162l-477 1411h198l361 -1116l262 924h141l265 -920z" />
    <glyph glyph-name="wgrave" unicode="&#x1e81;" horiz-adv-x="1595" 
d="M879 1096h-174l-242 315h217zM1372 956h193l-357 -956h-149l-264 711l-254 -711h-148l-364 956h192l244 -680l244 680h174l245 -680z" />
    <glyph glyph-name="Wacute" unicode="&#x1e82;" horiz-adv-x="1849" 
d="M1272 1866l-244 -316h-172l199 316h217zM1618 1411h199l-478 -1411h-161l-254 891l-252 -891h-162l-477 1411h198l361 -1116l262 924h141l265 -920z" />
    <glyph glyph-name="wacute" unicode="&#x1e83;" horiz-adv-x="1595" 
d="M1145 1411l-244 -315h-172l199 315h217zM1372 956h193l-357 -956h-149l-264 711l-254 -711h-148l-364 956h192l244 -680l244 680h174l245 -680z" />
    <glyph glyph-name="Wdieresis" unicode="&#x1e84;" horiz-adv-x="1849" 
d="M733 1575q-53 0 -89 34t-36 85q0 50 36 83t89 33q50 0 85.5 -33t35.5 -83t-35.5 -84.5t-85.5 -34.5zM1118 1575q-51 0 -87 34t-36 85q0 50 35.5 83t87.5 33t88.5 -33t36.5 -83t-36.5 -84.5t-88.5 -34.5zM1618 1411h199l-478 -1411h-161l-254 891l-252 -891h-162
l-477 1411h198l361 -1116l262 924h141l265 -920z" />
    <glyph glyph-name="wdieresis" unicode="&#x1e85;" horiz-adv-x="1595" 
d="M606 1120q-53 0 -89 34t-36 85t36 84t89 33q50 0 85.5 -33.5t35.5 -83.5t-35.5 -84.5t-85.5 -34.5zM991 1120q-51 0 -87 34t-36 85q0 50 35.5 83.5t87.5 33.5t88.5 -33.5t36.5 -83.5t-36.5 -84.5t-88.5 -34.5zM1372 956h193l-357 -956h-149l-264 711l-254 -711h-148
l-364 956h192l244 -680l244 680h174l245 -680z" />
    <glyph glyph-name="uni1E9E" unicode="&#x1e9e;" horiz-adv-x="1390" 
d="M918 848q178 -38 278 -156t100 -266q0 -207 -135.5 -326.5t-361.5 -119.5q-111 -4 -215 28l34 158q75 -21 183 -21q140 0 224.5 77t84.5 212q0 111 -90 185.5t-234 74.5h-43l-32 150l211 387q-101 24 -222 24q-165 0 -248 -88.5t-83 -246.5v-920h-187v924
q0 233 135.5 368t387.5 135q105 0 248.5 -24.5t226.5 -59.5v-30z" />
    <glyph glyph-name="Ygrave" unicode="&#x1ef2;" horiz-adv-x="1277" 
d="M719 1550h-174l-242 316h217zM1051 1411h223l-543 -760v-651h-186v651l-537 760h221l410 -577z" />
    <glyph glyph-name="ygrave" unicode="&#x1ef3;" horiz-adv-x="1028" 
d="M598 1096h-174l-242 315h217zM809 956h192l-593 -1421h-189l199 492l-383 929h192l289 -704z" />
    <glyph glyph-name="endash" unicode="&#x2013;" horiz-adv-x="1210" 
d="M141 401v154h928v-154h-928z" />
    <glyph glyph-name="emdash" unicode="&#x2014;" horiz-adv-x="1632" 
d="M141 401v154h1348v-154h-1348z" />
    <glyph glyph-name="quoteleft" unicode="&#x2018;" horiz-adv-x="489" 
d="M119 891q-17 177 39.5 332.5t173.5 255.5l106 -39q-97 -136 -135 -255.5t-18 -293.5h-166z" />
    <glyph glyph-name="quoteright" unicode="&#x2019;" horiz-adv-x="491" 
d="M182 891l-106 39q97 136 135.5 255.5t19.5 293.5h164q19 -177 -37.5 -332.5t-175.5 -255.5z" />
    <glyph glyph-name="quotesinglbase" unicode="&#x201a;" horiz-adv-x="468" 
d="M106 -297l-106 39q64 91 99 161t52.5 169t4.5 219h163q19 -177 -37.5 -332.5t-175.5 -255.5z" />
    <glyph glyph-name="quotedblleft" unicode="&#x201c;" horiz-adv-x="790" 
d="M119 891q-17 177 39.5 332.5t173.5 255.5l106 -39q-97 -136 -135 -255.5t-18 -293.5h-166zM420 891q-19 177 37.5 332.5t175.5 255.5l104 -39q-96 -135 -134 -254.5t-19 -294.5h-164z" />
    <glyph glyph-name="quotedblright" unicode="&#x201d;" horiz-adv-x="790" 
d="M182 891l-106 39q97 136 135.5 255.5t19.5 293.5h164q19 -177 -37.5 -332.5t-175.5 -255.5zM481 891l-104 39q96 135 134 254.5t19 294.5h164q19 -177 -37.5 -332.5t-175.5 -255.5z" />
    <glyph glyph-name="quotedblbase" unicode="&#x201e;" horiz-adv-x="770" 
d="M106 -297l-106 39q64 91 99 161t52.5 169t4.5 219h163q19 -177 -37.5 -332.5t-175.5 -255.5zM406 -297l-105 39q96 137 134.5 256t19.5 293h163q19 -177 -37 -332.5t-175 -255.5z" />
    <glyph glyph-name="dagger" unicode="&#x2020;" horiz-adv-x="878" 
d="M350 -250v1088h-248v180h248v368h176v-368h250v-180h-250v-1088h-176z" />
    <glyph glyph-name="daggerdbl" unicode="&#x2021;" horiz-adv-x="878" 
d="M350 -250v420h-248v178h248v490h-248v180h248v368h176v-368h250v-180h-250v-490h250v-178h-250v-420h-176z" />
    <glyph glyph-name="bullet" unicode="&#x2022;" horiz-adv-x="917" 
d="M459 199q-126 0 -214.5 83t-88.5 207q0 123 88.5 205t214.5 82q125 0 214 -82t89 -205q0 -124 -89 -207t-214 -83z" />
    <glyph glyph-name="ellipsis" unicode="&#x2026;" horiz-adv-x="1419" 
d="M248 -20q-53 0 -91 35.5t-38 88.5t38 89t91 36q55 0 94 -36t39 -89t-39 -88.5t-94 -35.5zM709 -20q-55 0 -93 35.5t-38 88.5t38 89t93 36t93 -36t38 -89t-38 -88.5t-93 -35.5zM1167 -20q-55 0 -92 35t-37 89t37.5 89.5t91.5 35.5q55 0 94 -36t39 -89t-39 -88.5t-94 -35.5
z" />
    <glyph glyph-name="perthousand" unicode="&#x2030;" horiz-adv-x="1933" 
d="M342 834q-116 0 -194 78t-78 194q0 113 78.5 192.5t193.5 79.5q112 0 192 -80t80 -192q0 -115 -79.5 -193.5t-192.5 -78.5zM250 0l649 1339h121l-647 -1339h-123zM342 965q59 0 101 40t42 101q0 58 -42.5 100.5t-100.5 42.5q-61 0 -101 -42t-40 -101q0 -62 39.5 -101.5
t101.5 -39.5zM942 -20q-115 0 -192.5 78t-77.5 192q0 115 77.5 194.5t192.5 79.5q114 0 193 -80t79 -194t-79 -192t-193 -78zM1595 -20q-115 0 -193.5 78t-78.5 192q0 115 78.5 194.5t193.5 79.5q113 0 193 -80t80 -194q0 -113 -80 -191.5t-193 -78.5zM942 109
q60 0 101.5 40.5t41.5 100.5t-41.5 101.5t-101.5 41.5q-61 0 -101 -41t-40 -102q0 -60 40 -100.5t101 -40.5zM1595 109q59 0 101.5 41t42.5 100q0 60 -42.5 101.5t-101.5 41.5q-61 0 -101 -41t-40 -102q0 -60 40 -100.5t101 -40.5z" />
    <glyph glyph-name="guilsinglleft" unicode="&#x2039;" horiz-adv-x="634" 
d="M373 53l-283 424l283 424h166l-283 -424l283 -424h-166z" />
    <glyph glyph-name="guilsinglright" unicode="&#x203a;" horiz-adv-x="634" 
d="M94 53l283 424l-283 424h168l283 -424l-283 -424h-168z" />
    <glyph glyph-name="fraction" unicode="&#x2044;" horiz-adv-x="368" 
d="M-350 -20l923 1392h134l-922 -1392h-135z" />
    <glyph glyph-name="uni2070" unicode="&#x2070;" horiz-adv-x="714" 
d="M360 1055q-278 0 -278 381q0 385 278 385q77 0 132 -29t85 -83t43 -120.5t13 -152.5q0 -381 -273 -381zM360 1194q121 0 121 242q0 250 -121 250q-127 0 -127 -250q0 -242 127 -242z" />
    <glyph glyph-name="uni2074" unicode="&#x2074;" horiz-adv-x="737" 
d="M678 1333v-127h-125v-141h-152v141h-358v51l381 553h129v-477h125zM231 1333h170v258z" />
    <glyph glyph-name="uni2075" unicode="&#x2075;" horiz-adv-x="686" 
d="M381 1573q103 0 170 -72t67 -176q0 -123 -88 -196.5t-208 -73.5q-70 0 -145.5 35.5t-113.5 93.5l111 84q22 -33 64.5 -53.5t76.5 -20.5q69 0 110.5 37t41.5 98q0 55 -35.5 90t-97.5 35q-42 0 -89 -16t-81 -41l-82 43l68 372h417v-137h-295l-28 -133q57 31 137 31z" />
    <glyph glyph-name="uni2076" unicode="&#x2076;" horiz-adv-x="706" 
d="M393 1534q109 0 175.5 -64.5t66.5 -162.5q0 -109 -72 -180.5t-201 -71.5q-124 0 -202 85.5t-78 250.5q0 430 305 430q75 0 139.5 -38t94.5 -97l-109 -74q-17 34 -49.5 54t-71.5 20q-151 0 -166 -201q62 49 168 49zM369 1192q55 0 87.5 33t32.5 82q0 51 -33 82t-89 30
q-50 0 -87.5 -25t-37.5 -79q0 -63 35 -93t92 -30z" />
    <glyph glyph-name="uni2077" unicode="&#x2077;" horiz-adv-x="628" 
d="M57 1810h533v-16l-291 -729h-166l246 608h-322v137z" />
    <glyph glyph-name="uni2078" unicode="&#x2078;" horiz-adv-x="714" 
d="M514 1477q56 -26 92.5 -78t36.5 -115q0 -96 -85 -162.5t-200 -66.5q-117 0 -200.5 66t-83.5 163q0 63 35.5 115t89.5 78q-31 21 -52.5 61.5t-21.5 85.5q0 84 68.5 140.5t164.5 56.5t166 -57t70 -140q0 -47 -23 -86t-57 -61zM358 1700q-44 0 -72 -24t-28 -60
q0 -35 28 -61.5t72 -26.5q42 0 71.5 26.5t29.5 61.5t-29 59.5t-72 24.5zM358 1186q58 0 96 33t38 84q0 49 -37 82.5t-97 33.5q-61 0 -98 -33.5t-37 -82.5q0 -51 37.5 -84t97.5 -33z" />
    <glyph glyph-name="uni2079" unicode="&#x2079;" horiz-adv-x="706" 
d="M348 1821q119 0 198 -85.5t79 -232.5q0 -448 -301 -448q-78 0 -142 38.5t-94 98.5l111 74q15 -33 47.5 -52.5t72.5 -19.5q149 0 164 203q-66 -56 -170 -56q-107 0 -173 65.5t-66 164.5q0 110 72.5 180t201.5 70zM344 1460q48 0 85.5 24.5t37.5 76.5q0 64 -34.5 94.5
t-90.5 30.5t-89.5 -33.5t-33.5 -81.5t34.5 -80t90.5 -31z" />
    <glyph glyph-name="uni207A" unicode="&#x207a;" horiz-adv-x="589" 
d="M522 1376v-92h-180v-182h-94v182h-180v92h180v178h94v-178h180z" />
    <glyph glyph-name="uni207B" unicode="&#x207b;" horiz-adv-x="614" 
d="M102 1309v98h410v-98h-410z" />
    <glyph glyph-name="uni207C" unicode="&#x207c;" horiz-adv-x="716" 
d="M102 1499v86h512v-86h-512zM102 1260v86h512v-86h-512z" />
    <glyph glyph-name="uni207D" unicode="&#x207d;" horiz-adv-x="493" 
d="M436 842q-161 4 -260.5 148t-99.5 370q0 148 45 265t127 183.5t188 69.5v-100q-29 -1 -58.5 -13t-62 -42t-57.5 -75t-41 -119.5t-16 -168.5t16 -169.5t41 -120.5t57.5 -75t62 -42t58.5 -13v-98z" />
    <glyph glyph-name="uni207E" unicode="&#x207e;" horiz-adv-x="493" 
d="M57 842v98q28 1 57.5 13t62.5 42t58 75t41.5 120.5t16.5 169.5t-16.5 168.5t-41.5 119.5t-58 75t-62.5 42t-57.5 13v100q106 -3 188 -69.5t126.5 -183.5t44.5 -265q0 -226 -99 -370t-260 -148z" />
    <glyph glyph-name="colonmonetary" unicode="&#x20a1;" horiz-adv-x="1290" 
d="M737 195q104 0 196 38.5t157 112.5l122 -104q-86 -101 -209 -159t-266 -58q-63 0 -121 12l-55 -193l-98 29l55 190q-47 17 -112 54l-62 -209l-98 29l71 245q-106 91 -166.5 219t-60.5 273q1 159 74.5 298t200 229t280.5 112l74 250l100 -29l-63 -215q74 -3 123 -16
l57 196l100 -29l-57 -198q143 -61 233 -170l-122 -103q-65 74 -158 113l-266 -911q35 -6 71 -6zM455 289q63 -45 110 -62l266 916q-41 8 -94 8h-30zM270 674q0 -169 103 -303l219 757q-143 -46 -232.5 -170t-89.5 -284z" />
    <glyph glyph-name="lira" unicode="&#x20a4;" horiz-adv-x="1292" 
d="M782 729v-121h-645v121h156v178q0 109 35 196t94.5 140t134 81t158.5 28q81 0 154 -30.5t128 -84.5t87 -134.5t32 -174.5h-178q0 116 -65.5 189t-178.5 73q-91 0 -157 -76t-66 -207v-178h311zM1016 342h178v-100q0 -106 -50 -174t-143 -68h-895v168h187v211h-156v123h645
v-123h-311v-211h483q29 0 45.5 18t16.5 50v106z" />
    <glyph glyph-name="uni20A6" unicode="&#x20a6;" horiz-adv-x="1536" 
d="M1436 725h-160v-111h160v-104h-160v-510h-178l-326 510h-326v-510h-186v510h-160v104h160v111h-160v106h160v508h184l324 -508h322v508h186v-508h160v-106zM446 1022v-191h121zM446 614h261l-72 111h-189v-111zM1090 614v111h-254l69 -111h185zM1090 324v186h-119z" />
    <glyph glyph-name="peseta" unicode="&#x20a7;" horiz-adv-x="2754" 
d="M758 1411q108 0 191 -37.5t131.5 -101t73 -140t24.5 -161.5q0 -87 -24.5 -163.5t-73 -140t-131.5 -100.5t-191 -37h-375v-530h-186v1411h561zM1636 1319v-363h207v-153h-207v-803h-178v803h-172v153h172v363h178zM745 705q123 0 184.5 77t61.5 189q0 51 -13.5 97.5
t-40.5 85.5t-74 62t-107 23h-373v-534h362zM2423 543q248 -62 248 -277q0 -129 -108 -207.5t-263 -78.5q-134 0 -249 81.5t-153 223.5h211q2 -63 54.5 -106.5t136.5 -43.5q89 0 140.5 36.5t51.5 96.5q0 97 -129 125l-133 31q-125 34 -188.5 98.5t-63.5 175.5q0 119 93 199
t235 80q63 0 120.5 -17t105 -49.5t76 -87.5t28.5 -125h-172q0 53 -47 88t-107 35q-68 0 -110.5 -36.5t-42.5 -92.5q0 -46 35 -74t89 -40z" />
    <glyph glyph-name="uni20A8" unicode="&#x20a8;" horiz-adv-x="1220" 
d="M774 1229q92 -86 115 -213h260l-43 -111h-209v-10q0 -79 -17 -146.5t-53 -126.5t-99.5 -99t-149.5 -54l331 -469h-223l-319 461l-234 -2v172h326q118 0 180.5 76t62.5 188v10h-569v111h553q-43 149 -227 149h-326l-2 174h1018l-43 -110h-332z" />
    <glyph glyph-name="uni20A9" unicode="&#x20a9;" horiz-adv-x="1945" 
d="M1839 1339l-184 -544h176v-107h-211l-37 -108h248v-105h-285l-160 -475h-161l-135 475h-236l-135 -475h-162l-160 475h-282v105h245l-36 108h-209v107h174l-185 544h199l174 -544h303l121 424h141l121 -424h303l174 544h199zM971 891l-27 -96h53zM512 688l35 -108h172
l31 108h-238zM883 580h176l-31 108h-115zM1397 580l35 108h-238l31 -108h172zM639 295l51 180h-108zM1305 295l57 180h-109z" />
    <glyph glyph-name="uni20AA" unicode="&#x20aa;" horiz-adv-x="1669" 
d="M197 0v1339h489q193 0 312.5 -120.5t119.5 -300.5v-461h-178v461q0 103 -70.5 173t-183.5 70h-311v-1161h-178zM983 0q-193 0 -311.5 120.5t-118.5 301.5v461h176v-461q0 -105 70.5 -175.5t183.5 -70.5h311v1163h181v-1339h-492z" />
    <glyph glyph-name="dong" unicode="&#x20ab;" horiz-adv-x="1355" 
d="M1282 1366v-123h-186v-1122h-178v151q-46 -81 -140 -126.5t-200 -45.5q-202 0 -341 139.5t-139 360.5q0 148 64.5 262.5t172.5 175t240 60.5q111 0 204 -44t139 -126v315h-316v123h316v113h178v-113h186zM592 268q134 0 230 92.5t96 241.5q0 147 -99.5 236.5t-226.5 89.5
q-133 0 -224.5 -92t-91.5 -234q0 -141 92 -237.5t224 -96.5zM240 -125v121h774v-121h-774z" />
    <glyph glyph-name="Euro" unicode="&#x20ac;" horiz-adv-x="1556" 
d="M1034 829v-110h-954v110h213q58 230 234.5 376.5t416.5 146.5q142 0 274 -59.5t236 -164.5l-119 -120q-82 80 -184 127t-207 47q-164 0 -289 -99.5t-172 -253.5h551zM944 150q105 0 207 47t184 129l119 -121q-103 -106 -235 -164.5t-275 -58.5q-242 0 -417 146t-234 376
h-213v108h954v-108h-553q49 -153 174.5 -253.5t288.5 -100.5z" />
    <glyph glyph-name="uni20AE" unicode="&#x20ae;" horiz-adv-x="1183" 
d="M1118 1165h-430v-299l189 138v-125l-189 -138v-127l189 138v-125l-189 -138v-489h-186v352l-187 -137v125l187 137v127l-187 -137v125l187 137v436h-430v174h1046v-174z" />
    <glyph glyph-name="uni20B1" unicode="&#x20b1;" horiz-adv-x="1392" 
d="M1321 1079v-96h-162q6 -41 6 -82v-29h156v-96h-170q-32 -127 -133.5 -200.5t-272.5 -73.5h-315v-502h-186v776h-140v96h140v111h-140v96h140v260h501q153 0 251 -71.5t141 -188.5h184zM430 1165v-86h496q-66 86 -183 86h-313zM979 901q0 37 -10 82h-539v-111h547
q2 10 2 29zM733 674q153 0 215 102h-518v-102h303z" />
    <glyph glyph-name="uni20B4" unicode="&#x20b4;" horiz-adv-x="1177" 
d="M872 834h168v-117h-897v117h502l76 65q64 57 92.5 94t28.5 78q0 45 -34 71.5t-89 26.5h-516v170h538q130 0 208.5 -65.5t78.5 -177.5q0 -17 -2.5 -33.5t-4.5 -29t-9 -28t-10.5 -24t-15 -24t-15.5 -21.5t-18.5 -22t-18 -20t-21 -21.5l-20.5 -20.5zM143 506v115h897v-115
h-522l-76 -66q-63 -57 -90.5 -94.5t-27.5 -79.5q0 -45 33.5 -71.5t86.5 -26.5h557v-168h-579q-130 0 -208.5 66t-78.5 178q0 19 2 36t7.5 33.5t9 28t15 28t15.5 23.5t20.5 25t20 22t23 24t22.5 23l21 19h-148z" />
    <glyph glyph-name="uni20BA" unicode="&#x20ba;" horiz-adv-x="1196" 
d="M942 764h176v-109q0 -299 -153 -477t-416 -178h-303v571l-137 -100v127l137 100v127l-137 -100v125l137 100v389h180v-256l244 179v-125l-244 -179v-127l244 179v-127l-244 -178v-529h123q184 0 288.5 127.5t104.5 351.5v109z" />
    <glyph glyph-name="uni20BD" unicode="&#x20bd;" horiz-adv-x="1271" 
d="M778 532h-315v-137h502v-133h-502v-262h-187v262h-167v133h167v137h-167v156h167v651h502q108 0 191 -34t132 -93t73 -132t24 -158q0 -178 -103 -284t-317 -106zM776 1165h-313v-460h303q246 0 246 217q0 105 -58.5 174t-177.5 69z" />
    <glyph glyph-name="uni2113" unicode="&#x2113;" horiz-adv-x="802" 
d="M422 387h-98v-63q0 -78 27 -113t98 -35h194v-176h-217q-281 0 -281 324v780q0 323 281 323q142 0 208 -88.5t66 -234.5v-389q0 -88 -12 -146t-42.5 -101t-85 -62t-138.5 -19zM426 1260q-58 0 -80 -38.5t-22 -109.5v-577h84q64 0 88 34t24 101v442q0 148 -94 148z" />
    <glyph glyph-name="uni2116" unicode="&#x2116;" horiz-adv-x="1964" 
d="M1028 340v1071h186v-1411h-180l-651 1075v-1075h-186v1411h184zM1616 879q-110 0 -189 78.5t-79 187.5q0 110 79 188t189 78t188 -78t78 -188q0 -109 -78 -187.5t-188 -78.5zM1616 1278q-54 0 -92.5 -39t-38.5 -94q0 -54 38.5 -93.5t92.5 -39.5q55 0 94 39.5t39 93.5
q0 55 -38.5 94t-94.5 39zM1358 698v95h516v-95h-516z" />
    <glyph glyph-name="uni2117" unicode="&#x2117;" horiz-adv-x="1630" 
d="M813 1427q147 0 280 -57.5t228.5 -155t152 -231.5t56.5 -281q0 -196 -95.5 -362.5t-260.5 -263t-361 -96.5q-147 0 -279.5 57t-228 154t-151.5 230.5t-56 280.5t56 281t151.5 231.5t228 155t279.5 57.5zM813 104q122 0 232.5 47t189.5 127t125.5 191t46.5 233
q0 164 -78.5 302.5t-215.5 219.5t-300 81q-162 0 -298.5 -81t-215 -219.5t-78.5 -302.5q0 -122 46.5 -233t125.5 -191t188.5 -127t231.5 -47zM879 1049q114 0 173.5 -70t59.5 -168q0 -42 -13.5 -82t-40 -75.5t-73.5 -57t-106 -21.5h-140v-251h-137v725h277zM874 711
q48 0 72.5 29t24.5 71q0 43 -23.5 71.5t-68.5 28.5h-140v-200h135z" />
    <glyph glyph-name="uni2120" unicode="&#x2120;" horiz-adv-x="1990" 
d="M494 1057q38 -11 68.5 -23.5t63.5 -33.5t54.5 -46t36 -62.5t14.5 -82.5q0 -121 -89.5 -187.5t-219.5 -66.5t-211 68.5t-86 179.5h168q5 -46 40 -74.5t95 -28.5t98.5 27t38.5 72q0 71 -110 102l-105 31q-217 63 -217 242q0 111 84 180t209 69q120 0 199 -66.5t80 -182.5
h-166q-2 46 -31.5 73t-83.5 27q-55 0 -88 -26.5t-33 -69.5q0 -66 98 -95zM1862 565h-172l-62 533l-213 -439h-127l-215 441l-63 -535h-170l104 846h141l267 -565l264 565h141z" />
    <glyph glyph-name="trademark" unicode="&#x2122;" horiz-adv-x="1937" 
d="M72 1266v145h635v-145h-236v-701h-166v701h-233zM1802 565h-174l-61 533l-211 -439h-129l-213 437l-64 -531h-172l107 846h139l268 -563l262 563h144z" />
    <glyph glyph-name="estimated" unicode="&#x212e;" horiz-adv-x="1312" 
d="M664 -20q-122 0 -227 47.5t-176.5 128t-111.5 189t-40 228.5q0 164 66.5 298t196.5 215t300 81q169 0 298 -82.5t195 -217t66 -296.5h-879v-395q135 -129 312 -129q67 0 124.5 14.5t99.5 36.5t81 58t66.5 70t58.5 81l63 -39q-34 -53 -67.5 -94t-78 -78.5t-94 -62
t-114 -39t-139.5 -14.5zM352 639h633v334q-59 54 -143.5 90.5t-169.5 36.5q-196 0 -320 -127v-334z" />
    <glyph glyph-name="oneeighth" unicode="&#x215b;" horiz-adv-x="1585" 
d="M1075 1372h133l-921 -1392h-135zM240 594v563l-185 -74v136l316 131h14v-756h-145zM1384 410q56 -24 92.5 -76t36.5 -115q0 -98 -84.5 -163.5t-199.5 -65.5q-117 0 -201 66t-84 163q0 63 35.5 115t89.5 76q-31 23 -52.5 62.5t-21.5 84.5q0 84 69 141.5t165 57.5
q95 0 165 -57.5t70 -141.5q0 -45 -23 -85.5t-57 -61.5zM1229 635q-43 0 -72 -25t-29 -59q0 -36 28 -62t73 -26q42 0 71 26t29 62q0 34 -29 59t-71 25zM1229 119q58 0 95.5 34t37.5 85q0 49 -36.5 81.5t-96.5 32.5q-61 0 -98 -32.5t-37 -81.5q0 -51 38 -85t97 -34z" />
    <glyph glyph-name="threeeighths" unicode="&#x215c;" horiz-adv-x="1742" 
d="M1233 1372h133l-922 -1392h-135zM582 803q0 -96 -80 -157.5t-205 -61.5q-161 0 -242 106l92 86q55 -61 140 -61q66 0 104.5 29t38.5 79q0 46 -35 75.5t-90 29.5h-74v104h35q62 0 96.5 30.5t32.5 74.5q-3 35 -34 56t-78 21q-41 0 -78.5 -17.5t-59.5 -45.5l-71 96
q103 103 233 103q103 0 171.5 -56.5t68.5 -150.5q0 -43 -29 -82t-78 -64q66 -24 104 -74.5t38 -119.5zM1542 410q56 -24 92.5 -76t36.5 -115q0 -98 -85 -163.5t-200 -65.5q-117 0 -200.5 66t-83.5 163q0 63 35.5 115t89.5 76q-31 23 -52.5 62.5t-21.5 84.5q0 84 68.5 141.5
t164.5 57.5q95 0 165.5 -58t70.5 -141q0 -45 -23 -85.5t-57 -61.5zM1386 635q-43 0 -71.5 -24.5t-28.5 -59.5q0 -36 28 -62t72 -26q42 0 71.5 26t29.5 62q0 34 -29.5 59t-71.5 25zM1386 119q58 0 96 34t38 85q0 48 -37 81t-97 33q-61 0 -98 -32.5t-37 -81.5q0 -51 37.5 -85
t97.5 -34z" />
    <glyph glyph-name="fiveeighths" unicode="&#x215d;" horiz-adv-x="1769" 
d="M1260 1372h133l-922 -1392h-135zM618 852q0 -122 -88.5 -195t-207.5 -73q-70 0 -145.5 35t-113.5 92l111 84q22 -33 64.5 -53.5t76.5 -20.5q69 0 110.5 37t41.5 98q0 55 -35.5 90t-97.5 35q-42 0 -89 -16t-81 -41l-82 43l68 374h417v-139h-295l-28 -133q57 31 137 31
q103 0 170 -72t67 -176zM1569 410q56 -24 92.5 -76t36.5 -115q0 -98 -85 -163.5t-200 -65.5q-117 0 -201 66t-84 163q0 63 35.5 115t89.5 76q-31 23 -52 62.5t-21 84.5q0 84 68.5 141.5t164.5 57.5q95 0 165.5 -58t70.5 -141q0 -45 -23 -85.5t-57 -61.5zM1413 635
q-43 0 -71.5 -24.5t-28.5 -59.5q0 -36 28 -62t72 -26q42 0 71 26t29 62q0 34 -29 59t-71 25zM1413 119q58 0 95.5 34t37.5 85q0 49 -36.5 81.5t-96.5 32.5q-61 0 -98 -32.5t-37 -81.5q0 -51 38 -85t97 -34z" />
    <glyph glyph-name="seveneighths" unicode="&#x215e;" horiz-adv-x="1638" 
d="M1141 1372h133l-922 -1392h-135zM319 594h-165l243 606h-319v139h532v-18zM1438 410q56 -24 92.5 -76t36.5 -115q0 -98 -85 -163.5t-200 -65.5q-117 0 -201 66t-84 163q0 63 35.5 115t89.5 76q-31 23 -52 62.5t-21 84.5q0 84 68.5 141.5t164.5 57.5q95 0 165.5 -58
t70.5 -141q0 -45 -23 -85.5t-57 -61.5zM1282 635q-43 0 -71.5 -24.5t-28.5 -59.5q0 -36 28 -62t72 -26q42 0 71 26t29 62q0 34 -29 59t-71 25zM1282 119q58 0 95.5 34t37.5 85q0 49 -36.5 81.5t-96.5 32.5q-61 0 -98 -32.5t-37 -81.5q0 -51 37.5 -85t97.5 -34z" />
    <glyph glyph-name="arrowleft" unicode="&#x2190;" horiz-adv-x="1761" 
d="M1671 793v-170h-1274l346 -347l-118 -118l-551 553l551 553l118 -119l-352 -352h1280z" />
    <glyph glyph-name="arrowup" unicode="&#x2191;" horiz-adv-x="1218" 
d="M1161 905l-119 -119l-352 353v-1139h-168v1135l-348 -349l-119 119l553 551z" />
    <glyph glyph-name="arrowright" unicode="&#x2192;" horiz-adv-x="1761" 
d="M1139 1264l551 -553l-551 -553l-121 118l346 347h-1272v170h1278l-352 352z" />
    <glyph glyph-name="arrowdown" unicode="&#x2193;" horiz-adv-x="1214" 
d="M1040 602l119 -119l-553 -551l-553 551l119 119l348 -348v1157h168v-1161z" />
    <glyph glyph-name="arrowboth" unicode="&#x2194;" horiz-adv-x="2170" 
d="M1552 1296l551 -553l-551 -553l-118 119l354 353l-1407 -3l354 -352l-119 -119l-550 553l548 555l119 -120l-344 -347l1389 2l-344 347z" />
    <glyph glyph-name="arrowupdn" unicode="&#x2195;" horiz-adv-x="1243" 
d="M702 45l353 352l119 -121l-553 -550l-553 550l118 121l349 -348v1393l-349 -348l-118 118l553 553l553 -553l-119 -118l-353 352v-1401z" />
    <glyph glyph-name="partialdiff" unicode="&#x2202;" 
d="M635 1356q86 0 155.5 -26t115.5 -69.5t78 -105t47.5 -129t21 -145.5t2 -149.5t-14.5 -145.5q-40 -280 -193.5 -443t-381.5 -163q-178 0 -286.5 128t-82.5 310q15 115 82 216t171 163.5t220 62.5q80 0 162 -37t131 -108q16 136 -7 242.5t-87.5 170.5t-163.5 64zM795 432
q10 111 -61.5 180.5t-182.5 69.5q-106 -5 -186 -79t-93 -181q-17 -115 48.5 -188.5t177.5 -73.5q110 3 195 80t102 192z" />
    <glyph glyph-name="emptyset" unicode="&#x2205;" horiz-adv-x="1665" 
d="M1556 1352l-176 -176q168 -205 168 -469q0 -197 -94.5 -363.5t-259.5 -264t-363 -97.5q-271 0 -469 176l-174 -174l-75 79l174 175q-168 201 -168 469q0 148 55.5 282t150 231t226.5 154.5t280 57.5q135 0 257 -46.5t217 -130.5l174 175zM244 707q0 -215 131 -381
l839 839q-162 140 -383 140q-163 0 -298 -80t-212 -217t-77 -301zM1425 707q0 215 -133 380l-839 -839q158 -139 378 -139q123 0 233.5 47.5t189.5 127.5t125 190.5t46 232.5z" />
    <glyph glyph-name="product" unicode="&#x220f;" horiz-adv-x="1458" 
d="M1262 1411v-1739h-187v1571h-692v-1571h-186v1739h1065z" />
    <glyph glyph-name="summation" unicode="&#x2211;" horiz-adv-x="1234" 
d="M1155 1411v-168h-819l440 -700l-442 -703h821v-168h-1085v80l495 791l-495 788v80h1085z" />
    <glyph glyph-name="minus" unicode="&#x2212;" horiz-adv-x="1163" 
d="M143 459v164h877v-164h-877z" />
    <glyph glyph-name="radical" unicode="&#x221a;" horiz-adv-x="1298" 
d="M1135 1747h190l-625 -2075h-178l-250 817h-282v152h428l194 -659z" />
    <glyph glyph-name="infinity" unicode="&#x221e;" horiz-adv-x="1761" 
d="M1305 958q149 0 248.5 -94t99.5 -252q0 -157 -99.5 -250.5t-248.5 -93.5q-92 0 -164.5 36.5t-157.5 111.5l-102 92l-97 -92q-89 -75 -161.5 -111.5t-163.5 -36.5q-149 0 -248.5 93.5t-99.5 250.5q0 158 99.5 252t248.5 94q91 0 169 -37t156 -110l97 -90l102 90
q86 74 158 110.5t164 36.5zM483 438q98 0 191 86l94 88l-111 103q-42 40 -82 58t-92 18q-92 0 -148 -45t-56 -134q0 -86 56 -130t148 -44zM1280 438q91 0 146 44t55 130q0 89 -55 134t-146 45q-101 0 -193 -89l-92 -90l92 -88q89 -86 193 -86z" />
    <glyph glyph-name="integral" unicode="&#x222b;" horiz-adv-x="727" 
d="M563 1479h103v-168h-72q-220 0 -213 -230l147 -1077q23 -142 -80 -237t-280 -95h-105v168h72q118 0 172.5 60.5t40.5 152.5l-145 1004q-28 189 70 305.5t290 116.5z" />
    <glyph glyph-name="approxequal" unicode="&#x2248;" horiz-adv-x="1409" 
d="M1257 750q-52 -66 -135 -112t-172 -46q-42 0 -84.5 8.5t-65.5 17t-63 26t-51 22.5q-11 4 -46.5 20.5t-56.5 24.5t-57.5 16t-72.5 8q-66 0 -130 -35t-110 -86l-72 105q55 65 139 110t175 45q42 0 84 -9t63.5 -16.5t63 -26t49.5 -21.5q12 -5 46.5 -21t56 -24.5t58 -16.5
t72.5 -8q64 0 128 36.5t110 84.5zM1268 346q-53 -68 -137.5 -114t-174.5 -46q-41 0 -83 9t-64 17t-63 26.5t-50 21.5q-11 5 -46 21t-56.5 24.5t-59 16.5t-73.5 8q-64 0 -129 -35.5t-111 -85.5l-69 104q55 65 138.5 110.5t172.5 45.5q42 0 83.5 -8.5t65 -17.5t62.5 -26
t51 -22q11 -4 46 -20.5t56 -24.5t57.5 -16t71.5 -8q67 0 131.5 34.5t108.5 83.5z" />
    <glyph glyph-name="notequal" unicode="&#x2260;" horiz-adv-x="1232" 
d="M299 2l113 225h-267v172h351l114 226h-465v172h549l113 223h143l-112 -223h249v-172h-335l-115 -226h450v-172h-536l-113 -225h-139z" />
    <glyph glyph-name="lessequal" unicode="&#x2264;" horiz-adv-x="1304" 
d="M1151 285l-1036 397v172l1036 397v-192l-786 -291l786 -293v-190zM133 0v160h1018v-160h-1018z" />
    <glyph glyph-name="greaterequal" unicode="&#x2265;" horiz-adv-x="1304" 
d="M154 285v190l786 293l-786 291v192l1036 -397v-172zM154 0v160h1017v-160h-1017z" />
    <glyph glyph-name="filledbox" unicode="&#x25a0;" horiz-adv-x="1429" 
d="M164 1264h1102v-1102h-1102v1102z" />
    <glyph glyph-name="uni25A1" unicode="&#x25a1;" horiz-adv-x="1302" 
d="M104 1264h1102v-1102h-1102v1102zM250 1118v-811h811v811h-811z" />
    <glyph glyph-name="triagup" unicode="&#x25b2;" horiz-adv-x="1595" 
d="M164 141l633 1096l635 -1098z" />
    <glyph glyph-name="uni25B6" unicode="&#x25b6;" horiz-adv-x="1425" 
d="M166 1378l1096 -633l-1098 -636z" />
    <glyph glyph-name="triagdn" unicode="&#x25bc;" horiz-adv-x="1595" 
d="M164 1235l1268 2l-635 -1098z" />
    <glyph glyph-name="uni25C0" unicode="&#x25c0;" horiz-adv-x="1425" 
d="M1260 1378l2 -1269l-1098 636z" />
    <glyph glyph-name="lozenge" unicode="&#x25ca;" horiz-adv-x="1228" 
d="M582 1454l456 -729l-456 -725h-41l-457 725l457 729h41zM860 725l-299 479l-299 -479l299 -479z" />
    <glyph glyph-name="circle" unicode="&#x25cb;" horiz-adv-x="1421" 
d="M1319 723q0 -165 -81.5 -305t-221.5 -221.5t-305 -81.5t-305.5 81.5t-222 221.5t-81.5 305t81.5 305t222 221.5t305.5 81.5t305 -81.5t221.5 -221.5t81.5 -305zM1171 723q0 191 -135 326t-325 135t-325.5 -136t-135.5 -325q0 -125 62 -231t168 -168t231 -62
q190 0 325 135t135 326z" />
    <glyph glyph-name="uni2605" unicode="&#x2605;" horiz-adv-x="1800" 
d="M1196 512l184 -563l-481 348l-479 -348l182 563l-479 350h594l182 565l184 -565h594z" />
    <glyph glyph-name="uni2610" unicode="&#x2610;" horiz-adv-x="1425" 
d="M713 -12q-166 0 -307 81.5t-222.5 222t-81.5 306.5q0 165 81.5 305t222.5 221.5t307 81.5q165 0 305.5 -81.5t222.5 -222t82 -304.5q0 -166 -82 -306.5t-222.5 -222t-305.5 -81.5zM713 141q192 0 324 132t132 325q0 191 -132 323t-324 132q-193 0 -325 -131.5
t-132 -323.5q0 -194 132 -325.5t325 -131.5z" />
    <glyph glyph-name="uni2611" unicode="&#x2611;" horiz-adv-x="1480" 
d="M1403 1339l-252 -378q121 -162 121 -363q0 -166 -82 -306.5t-222.5 -222t-305.5 -81.5t-306 81.5t-223 222t-82 306.5q0 165 82 305t223 221.5t306 81.5q205 0 366 -123l223 340zM1118 598q0 120 -57 225l-367 -553h-53l-324 451l129 115l218 -306l280 426
q-124 97 -282 97q-192 0 -324.5 -131.5t-132.5 -323.5q0 -193 132.5 -325t324.5 -132t324 132t132 325z" />
    <glyph glyph-name="uni261C" unicode="&#x261c;" horiz-adv-x="2031" 
d="M61 940q3 63 43 100t111 37l709 -2l-45 96q-28 53 -12.5 113t53.5 82q31 17 57 23.5t58 2.5t66.5 -28.5t72.5 -69.5l360 -444v70q0 36 26 62t62 26h174q35 0 61.5 -27.5t26.5 -60.5v-832q0 -32 -27 -60t-61 -28h-174q-36 0 -62 26t-26 62v94h-793q-83 10 -122 47t-33 90
q6 39 32 62q-144 18 -129 149q7 34 23 56q-69 21 -99 56t-18 89q10 48 33 66l-213 4q-74 2 -115.5 37.5t-38.5 101.5zM221 887l582 -10q86 -1 128 -48t36 -116q-6 -58 -31 -74q64 -8 91.5 -45.5t27.5 -83.5q0 -75 -62 -102q38 -10 49 -59.5t-4 -80.5l496 -2l2 453l-428 508
q-6 6 -18.5 19t-18.5 18.5t-16 14.5t-16.5 12t-15.5 5.5t-18 0.5t-18 -7q-30 -17 -32.5 -45t11.5 -55.5t44 -69.5l202 -282q9 -13 6.5 -31.5t-14.5 -24.5q-18 -11 -36.5 -6t-30.5 23l-138 178l-778 6q-61 0 -61 -49q0 -47 61 -47zM528 674h275q62 0 69 51q5 31 -18 51.5
t-66 20.5l-235 -2q-40 0 -60.5 -17t-17.5 -55q3 -44 53 -49zM627 461l272 -4q29 0 47.5 14t18.5 41q0 70 -68 70l-260 -4q-31 0 -46 -13.5t-18 -42.5q-3 -55 54 -61zM739 274l160 -4q70 -3 70 41q0 29 -14.5 40.5t-51.5 13.5l-174 6q-51 3 -51 -41q0 -27 11.5 -41t49.5 -15z
" />
    <glyph glyph-name="uni261E" unicode="&#x261e;" horiz-adv-x="2031" 
d="M1970 940q3 -66 -38 -101.5t-115 -37.5l-213 -4q22 -17 32 -66q12 -54 -17.5 -89t-98.5 -56q15 -21 22 -56q15 -131 -129 -149q27 -24 33 -62q6 -53 -33.5 -90t-122.5 -47h-792v-94q0 -36 -26 -62t-62 -26h-174q-34 0 -61.5 28t-27.5 60v832q0 33 27 60.5t62 27.5h174
q36 0 62 -26t26 -62v-70l360 444q38 45 72.5 69.5t66.5 28.5t58 -2.5t57 -23.5q38 -22 53.5 -82t-12.5 -113l-45 -96l709 2q70 0 110 -37t43 -100zM1810 887q62 0 62 47q0 49 -62 49l-778 -6q-112 -143 -137 -178q-12 -18 -31 -23t-37 6q-12 6 -14.5 24.5t6.5 31.5l203 282
q30 42 43.5 69.5t11 55.5t-32.5 45q-9 5 -18 7t-17.5 -0.5t-15.5 -5.5t-16.5 -12t-15.5 -14.5t-18 -18t-19 -19.5l-428 -508l2 -453l495 2q-15 31 -4 80.5t49 59.5q-28 12 -44.5 39t-16.5 63q0 46 27.5 83.5t91.5 45.5q-25 16 -31 74q-6 69 36 116t128 48zM1503 674
q50 5 53 49q3 38 -17 55t-60 17l-236 2q-43 0 -66 -20.5t-18 -51.5q7 -51 70 -51h274zM1405 461q56 6 53 61q-3 29 -17.5 42.5t-45.5 13.5l-260 4q-68 0 -68 -70q0 -27 18.5 -41t47.5 -14zM1292 274q38 1 50 15t12 41q0 44 -51 41l-175 -6q-37 -2 -51 -13.5t-14 -40.5
q0 -44 70 -41z" />
    <glyph glyph-name="diamond" unicode="&#x2666;" horiz-adv-x="1320" 
d="M662 -51l-498 747l498 748l499 -748z" />
    <glyph glyph-name="uni267C" unicode="&#x267c;" horiz-adv-x="1777" 
d="M889 -20q-196 0 -363 97t-264.5 264t-97.5 364q0 196 97.5 363t264.5 264.5t363 97.5q197 0 364 -97.5t264 -264.5t97 -363q0 -197 -97 -364t-264 -264t-364 -97zM723 829l145 256q18 18 31 -4l84 -141l-80 -49l264 2l129 229l-86 -51l-57 94q-16 26 -41 42.5t-42 20.5
l-17 3l-332 2q-39 -4 -68 -21.5t-38 -33.5l-9 -15l-117 -200zM1042 125v100l111 2q30 1 57 15t38 28l12 13l165 286q16 36 16 70t-8 50l-8 16l-116 198l-232 -131l148 -258q4 -9 -1.5 -15.5t-17.5 -6.5l-166 -3v95l-131 -230zM618 225h232l-2 267h-295q-11 2 -14.5 9.5
t2.5 18.5l82 146l82 -48l-136 228l-262 -2l86 -49l-53 -97q-15 -27 -16.5 -57t4.5 -47l6 -16l166 -287q24 -32 53.5 -48.5t46.5 -16.5z" />
    <glyph glyph-name="uni2713" unicode="&#x2713;" horiz-adv-x="1228" 
d="M1264 1423l151 -84l-708 -1069h-54l-321 451l127 115l217 -306z" />
    <glyph glyph-name="uni2B24" unicode="&#x2b24;" horiz-adv-x="1544" 
d="M1380 723q0 -165 -81.5 -305t-221.5 -221.5t-305 -81.5t-305 81.5t-221.5 221.5t-81.5 305t81.5 305t221.5 221.5t305 81.5t305 -81.5t221.5 -221.5t81.5 -305z" />
    <glyph glyph-name="uniF6DD" unicode="&#xf6dd;" horiz-adv-x="2385" 
d="M1141 971q0 -80 -21 -151.5t-64 -132.5t-116 -101.5t-168 -50.5l375 -535h-223l-369 532h-184v-532h-187v1411h531q110 0 194.5 -37.5t133.5 -101t73.5 -140t24.5 -161.5zM371 1239v-537h295q149 0 218.5 71t69.5 198q0 119 -64.5 193.5t-170.5 74.5h-348zM1841 977
q202 0 340.5 -139.5t138.5 -360.5q0 -222 -137 -359.5t-340 -137.5q-110 0 -203 44t-139 126v-615h-178v1421h178v-151q46 81 140 126.5t200 45.5zM1827 147q133 0 224 92.5t91 235.5q0 142 -92 238t-223 96q-134 0 -230 -92.5t-96 -241.5q0 -147 99.5 -237.5t226.5 -90.5z
" />
    <glyph glyph-name="centsuperior" unicode="&#xf6e0;" horiz-adv-x="624" 
d="M342 1192q27 0 56 13.5t46 35.5l121 -70q-79 -103 -190 -114v-133h-72v133q-106 14 -177 88t-71 186q0 110 71 183.5t177 87.5v137h72v-137q110 -11 190 -115l-121 -68q-17 21 -46 34t-56 13q-62 0 -98.5 -37.5t-36.5 -97.5t36.5 -99.5t98.5 -39.5z" />
    <glyph glyph-name="commasuperior" unicode="&#xf6e2;" horiz-adv-x="374" 
d="M113 868l-76 41q83 106 98 303h131q-4 -168 -153 -344z" />
    <glyph glyph-name="periodsuperior" unicode="&#xf6e8;" horiz-adv-x="337" 
d="M168 1055q-37 0 -63.5 25.5t-26.5 62.5q0 38 26.5 63t63.5 25q38 0 65 -25t27 -63q0 -36 -27.5 -62t-64.5 -26z" />
    <glyph glyph-name="uniF8FF" unicode="&#xf8ff;" horiz-adv-x="2009" 
d="M164 0v1434h1681v-1434h-1681zM1067 752q25 0 33 14h2l4 -12h16v149h-22v-39q0 -10 2 -18h-2q-10 16 -31 16q-22 0 -33 -14q-10 -17 -10 -41t10 -41q11 -14 31 -14zM1378 889q0 -6 2 -10q2 -2 11 -2q8 0 10 2q2 4 2 10t-2 10q-2 2 -10 2q-9 0 -11 -2q-2 -4 -2 -10z
M412 754l41 116h2q0 -8 -2 -20v-96h22v141h-33l-41 -113l-39 113h-32v-141h20v67q0 33 -2 51h2l41 -118h21zM780 770q-8 0 -10 4q-4 2 -4 12v58h31v16h-31v25h-14l-9 -23l-16 -8v-10h16v-60q0 -32 31 -32h12q2 1 6 2t5 2v16q-4 -2 -17 -2zM610 807q0 24 -14 41
q-11 14 -37 14q-25 0 -39 -14q-12 -15 -12 -41q0 -17 6 -29q6 -14 18 -20q9 -6 27 -6q26 0 37 14q14 18 14 41zM713 784q0 5 -4 13q-1 2 -9 10q-13 7 -20 8q-5 2 -21 10q-4 4 -4 9q0 10 19 10q10 0 28 -6l9 16q-16 8 -37 8q-20 0 -31 -8q-10 -7 -10 -20t6 -19q5 -7 25 -14
l16 -8q6 0 6 -5q4 -4 4 -8q0 -12 -22 -12q-11 0 -35 8v-18q12 -6 35 -6q21 0 32 8q13 10 13 24zM905 754v71q0 21 -10 29q-8 8 -31 8q-12 0 -18 -2q-14 -4 -21 -8l9 -16q6 6 14 6q6 2 16 2q13 0 15 -4q4 -4 4 -17v-4l-19 -2q-26 0 -37 -8q-12 -9 -12 -25t8 -24t25 -8
q16 0 20 2q9 6 17 14l6 -14h14zM997 862q-12 0 -18 -6q-12 -8 -14 -14h-2l-2 18h-19v-106h23v55q0 10 8 22q11 11 22 11q7 0 11 -2l2 22h-11zM1206 752h21l16 6v18l-18 -6q-2 0 -8 -1t-9 -1q-15 0 -22 10q-8 5 -8 23h71v12q0 25 -12 37t-35 12q-24 0 -35 -14
q-14 -14 -14 -43q0 -25 14 -39t39 -14zM1350 784q0 9 -2 13q-1 2 -9 10q-13 7 -20 8q-5 2 -21 10q-4 4 -4 9q0 10 19 10q10 0 28 -6l9 16q-16 8 -37 8q-20 0 -31 -8q-10 -7 -10 -20t6 -19q5 -7 25 -14l16 -8q6 0 6 -5q2 -2 2 -8q0 -12 -20 -12q-11 0 -35 8v-18q12 -6 35 -6
q21 0 32 8t11 24zM1493 860q-1 0 -3.5 1t-4.5 1h-10q-21 0 -31 -10q-12 -9 -12 -27q0 -12 6 -18q6 -9 14 -12q-2 -1 -10 -9q-4 -4 -4 -10l2 -8q3 -6 8 -6q-8 -2 -16 -10q-7 -7 -7 -17q0 -14 11 -22q16 -8 34 -8q26 0 43 10q15 9 15 28q0 15 -8 23q-9 6 -29 6h-18q-3 0 -8 1
l-5 1q-4 4 -4 6q0 7 8 11h11q19 0 30 8q13 10 13 26q0 2 -1 6t-1 5q-3 6 -5 8l19 4v12h-37zM1649 823q0 39 -39 39q-9 0 -21 -4q-8 -3 -14 -12l-4 14h-19v-106h25v53q0 20 6 29q5 8 21 8q10 0 16 -6q4 -4 4 -19v-65h25v69zM1403 860h-25v-106h25v106zM1454 825q0 11 6 17
q3 6 15 6q11 0 14 -6q6 -6 6 -17q0 -20 -20 -20q-7 0 -15 4q-6 6 -6 16zM1202 846q9 0 17 -8t8 -21h-49q0 16 8 21q8 8 16 8zM530 807q0 18 9 27q7 10 20 10q27 0 27 -37t-27 -37q-29 0 -29 37zM1073 770q-13 0 -18 8q-6 9 -6 29q0 18 6 27q7 10 18 10q16 0 21 -8
q8 -8 8 -29v-4q0 -20 -8 -25q-5 -8 -21 -8zM856 768q-8 0 -12 4q-4 2 -4 12q0 9 6 15q12 4 24 4l13 2v-10q0 -13 -6 -19q-8 -8 -21 -8zM1446 735q0 11 4 15q8 4 16 4h17q14 0 18 -4q6 -3 6 -11q0 -9 -10 -12q-9 -6 -27 -6q-10 0 -18 4q-6 3 -6 10zM1391 512q20 0 30 16h2
l4 -14h17v152h-23v-39q0 -1 1 -8t1 -11q-12 15 -32 15q-21 0 -33 -15q-10 -17 -10 -41t10 -41q11 -14 33 -14zM379 637h43v18h-107v-18h41v-123h23v123zM883 573h53v19h-53v45h57v18h-80v-141h23v59zM471 514l-4 -10q-6 -19 -23 -19h-12v-16q6 -2 14 -2q32 0 43 33l46 123
h-25q-6 -20 -11.5 -36.5t-9.5 -26.5l-4 -11q-2 -4 -2 -12h-2q0 12 -6 24l-22 62h-25zM610 512q17 0 31 14q12 15 12 41q0 29 -12 41q-9 15 -31 15q-21 0 -32 -17l-5 17h-18v-156h23v59q11 -14 32 -14zM731 512q13 0 19 2q10 0 16 6v19q-10 -7 -16 -7q-6 -2 -19 -2t-22 9
q-9 13 -9 24h72v12q0 23 -12 35q-13 13 -33 13q-25 0 -37 -15t-12 -41t12 -41q14 -14 41 -14zM1063 567q0 27 -14 41q-12 15 -37 15t-37 -15q-14 -11 -14 -41q0 -16 6 -28t18 -21q12 -6 27 -6q23 0 37 14t14 41zM1186 514v109h-23v-56q0 -19 -6 -28q-9 -9 -20 -9
q-10 0 -17 7q-6 6 -6 18v68h-22v-72q0 -19 10 -29t28 -10q9 0 21 4q11 7 14 12l4 -14h17zM1317 584q0 39 -37 39q-12 0 -20 -5q-8 -2 -15 -10l-4 15h-18v-109h22v53q0 17 8 29q5 8 21 8q10 0 16 -6q4 -8 4 -18v-66h23v70zM1536 623q-10 0 -18 -5t-15 -16l-4 21h-18v-109h22
v55q0 15 10 25q5 8 21 8h10l2 21h-10zM1597 514l-4 -10q-6 -19 -22 -19h-12v-16q6 -2 14 -2q32 0 43 33l45 123h-25q-9 -30 -24 -74q-2 -4 -2 -12h-2q0 12 -6 24l-23 62h-25zM727 606q10 0 16 -6q7 -10 7 -20h-50q3 10 9 20q6 6 18 6zM604 604q14 0 19 -8q6 -9 6 -29
q0 -17 -6 -26q-7 -11 -19 -11q-13 0 -20 11q-6 6 -6 26v4q0 19 6 25q5 8 20 8zM985 567q0 20 6 29q5 8 21 8q26 0 26 -37t-26 -37q-27 0 -27 37zM1397 530q-14 0 -21 11q-6 9 -6 26t6 29q8 8 19 8q14 0 22 -8q6 -9 6 -29v-2q0 -17 -6 -26q-9 -9 -20 -9z" />
    <glyph glyph-name="IJ.alt" horiz-adv-x="1388" 
d="M197 0v1411h186v-1411h-186zM772 -20q-46 0 -149 22l18 174q20 -7 66.5 -11.5t64.5 -4.5q87 0 145 38.5t81.5 98.5t23.5 139v975h186v-975q0 -96 -24 -176t-74.5 -144t-136.5 -100t-201 -36z" />
    <glyph glyph-name="J.alt" horiz-adv-x="800" 
d="M184 -20q-43 0 -151 22l18 174q20 -7 66.5 -11.5t66.5 -4.5q127 0 187.5 77t60.5 199v975h186v-975q0 -76 -14.5 -142t-47.5 -124.5t-82.5 -100t-123.5 -65.5t-166 -24z" />
    <glyph glyph-name="Jcircumflex.alt" horiz-adv-x="800" 
d="M205 1550l227 316h184l226 -316h-162l-158 183l-153 -183h-164zM184 -20q-43 0 -151 22l18 174q20 -7 66.5 -11.5t66.5 -4.5q127 0 187.5 77t60.5 199v975h186v-975q0 -76 -14.5 -142t-47.5 -124.5t-82.5 -100t-123.5 -65.5t-166 -24z" />
    <glyph glyph-name="W.alt" horiz-adv-x="1865" 
d="M1624 1411h199l-432 -1411h-162l-295 1036l-297 -1036h-160l-434 1411h199l313 -1100l303 1049h152l301 -1049z" />
    <glyph glyph-name="Wacute.alt" horiz-adv-x="1865" 
d="M1280 1866l-242 -316h-172l199 316h215zM1624 1411h199l-432 -1411h-162l-295 1036l-297 -1036h-160l-434 1411h199l313 -1100l303 1049h152l301 -1049z" />
    <glyph glyph-name="Wcircumflex.alt" horiz-adv-x="1865" 
d="M934 1733l-154 -183h-164l226 316h186l225 -316h-161zM1624 1411h199l-432 -1411h-162l-295 1036l-297 -1036h-160l-434 1411h199l313 -1100l303 1049h152l301 -1049z" />
    <glyph glyph-name="Wdieresis.alt" horiz-adv-x="1865" 
d="M741 1575q-51 0 -87 34t-36 85q0 50 35.5 83t87.5 33t87.5 -33t35.5 -83q0 -51 -36 -85t-87 -34zM1128 1575q-52 0 -88 34t-36 85q0 50 36 83t88 33t87.5 -33t35.5 -83q0 -51 -36 -85t-87 -34zM1624 1411h199l-432 -1411h-162l-295 1036l-297 -1036h-160l-434 1411h199
l313 -1100l303 1049h152l301 -1049z" />
    <glyph glyph-name="Wgrave.alt" horiz-adv-x="1865" 
d="M1014 1550h-172l-242 316h217zM1624 1411h199l-432 -1411h-162l-295 1036l-297 -1036h-160l-434 1411h199l313 -1100l303 1049h152l301 -1049z" />
    <glyph glyph-name="A.c2sc" 
d="M938 0l-113 291h-499l-113 -291h-193l457 1155h197l456 -1155h-192zM385 449h381l-191 493z" />
    <glyph glyph-name="Aacute.c2sc" 
d="M874 1544l-212 -268h-152l170 268h194zM938 0l-113 291h-499l-113 -291h-193l457 1155h197l456 -1155h-192zM385 449h381l-191 493z" />
    <glyph glyph-name="Abreve.c2sc" 
d="M575 1303q-114 0 -171.5 62t-57.5 153h129q0 -45 26 -72t74 -27q44 0 70.5 29.5t26.5 69.5h131q0 -98 -63 -156.5t-165 -58.5zM938 0l-113 291h-499l-113 -291h-193l457 1155h197l456 -1155h-192zM385 449h381l-191 493z" />
    <glyph glyph-name="uni01CD.c2sc" 
d="M666 1276h-181l-194 268h147l135 -151l140 151h145zM938 0l-113 291h-499l-113 -291h-193l457 1155h197l456 -1155h-192zM385 449h381l-191 493z" />
    <glyph glyph-name="Acircumflex.c2sc" 
d="M573 1427l-135 -151h-147l194 268h181l192 -268h-145zM938 0l-113 291h-499l-113 -291h-193l457 1155h197l456 -1155h-192zM385 449h381l-191 493z" />
    <glyph glyph-name="Adieresis.c2sc" 
d="M406 1305q-45 0 -78 29t-33 71t33 71t78 29t76.5 -29t31.5 -71t-31.5 -71t-76.5 -29zM745 1305q-46 0 -78 29t-32 71t32 71t78 29q45 0 77 -29t32 -71t-32 -71t-77 -29zM938 0l-113 291h-499l-113 -291h-193l457 1155h197l456 -1155h-192zM385 449h381l-191 493z" />
    <glyph glyph-name="Agrave.c2sc" 
d="M649 1276h-151l-215 268h196zM938 0l-113 291h-499l-113 -291h-193l457 1155h197l456 -1155h-192zM385 449h381l-191 493z" />
    <glyph glyph-name="Amacron.c2sc" 
d="M801 1475v-129h-451v129h451zM938 0l-113 291h-499l-113 -291h-193l457 1155h197l456 -1155h-192zM385 449h381l-191 493z" />
    <glyph glyph-name="Aogonek.c2sc" 
d="M1087 -160h109q0 -86 -51.5 -136t-132.5 -50q-76 0 -125 47t-49 121q0 37 16 74l68 145l-97 250h-499l-113 -291h-193l457 1155h197l456 -1155h-118l-60 -145q-6 -15 -6 -33q0 -29 18.5 -48.5t47.5 -19.5q33 0 54 24.5t21 61.5zM385 449h381l-191 493z" />
    <glyph glyph-name="Aring.c2sc" 
d="M573 1270q-79 0 -133.5 52.5t-54.5 129.5t54.5 130.5t133.5 53.5q80 0 136.5 -54t56.5 -130t-56.5 -129t-136.5 -53zM573 1548q-40 0 -68 -28t-28 -68q0 -38 28 -65t68 -27q41 0 71 27t30 65q0 40 -30 68t-71 28zM938 0l-113 291h-499l-113 -291h-193l457 1155h197
l456 -1155h-192zM385 449h381l-191 493z" />
    <glyph glyph-name="Aringacute.c2sc" 
d="M573 1270q-79 0 -133.5 52.5t-54.5 129.5q0 57 31.5 102.5t83.5 67.5l84 143h196l-123 -147q49 -24 79 -68t30 -98q0 -76 -56.5 -129t-136.5 -53zM573 1360q41 0 71 27t30 65q0 40 -30 68t-71 28q-40 0 -68 -28t-28 -68q0 -38 28 -65t68 -27zM938 0l-113 291h-499
l-113 -291h-193l457 1155h197l456 -1155h-192zM385 449h381l-191 493z" />
    <glyph glyph-name="Atilde.c2sc" 
d="M498 1380q-18 0 -34.5 -18.5t-17.5 -54.5h-106q6 101 51.5 148.5t106.5 47.5q33 0 63.5 -17.5t54 -34.5t37.5 -17q17 0 32.5 16.5t16.5 52.5h109q-4 -69 -30 -114.5t-58.5 -62.5t-69.5 -17q-33 0 -62 17.5t-52 35.5t-41 18zM938 0l-113 291h-499l-113 -291h-193l457 1155
h197l456 -1155h-192zM385 449h381l-191 493z" />
    <glyph glyph-name="AE.c2sc" horiz-adv-x="1652" 
d="M985 164h561v-164h-741v285h-443l-169 -285h-211l700 1155h846v-164h-543v-342h475v-162h-475v-323zM463 451h342v538h-19z" />
    <glyph glyph-name="AEacute.c2sc" horiz-adv-x="1652" 
d="M1116 1544l-213 -268h-151l168 268h196zM985 164h561v-164h-741v285h-443l-169 -285h-211l700 1155h846v-164h-543v-342h475v-162h-475v-323zM463 451h342v538h-19z" />
    <glyph glyph-name="B.c2sc" horiz-adv-x="1148" 
d="M821 616q105 -21 164 -104.5t59 -185.5q0 -62 -23.5 -119.5t-67.5 -104t-114 -74.5t-155 -28h-502v1155h461q155 0 246.5 -80.5t91.5 -214.5q0 -51 -14 -96.5t-51.5 -87t-94.5 -60.5zM639 991h-274v-309h278q73 0 114.5 43.5t41.5 114.5q0 68 -42 109.5t-118 41.5z
M649 164q100 0 156.5 52t56.5 128q0 74 -55 128t-152 54h-290v-362h284z" />
    <glyph glyph-name="C.c2sc" horiz-adv-x="1251" 
d="M715 -16q-169 0 -311 79.5t-224 216t-82 298.5q0 120 48.5 229t130.5 188t196.5 125.5t241.5 46.5q140 0 261 -56t204 -155l-136 -108q-60 70 -144.5 109.5t-182.5 39.5q-183 0 -308.5 -122.5t-125.5 -296.5q0 -176 125.5 -300t308.5 -124q97 0 182 40t145 109l136 -106
q-83 -100 -204 -156.5t-261 -56.5z" />
    <glyph glyph-name="Cacute.c2sc" horiz-adv-x="1251" 
d="M555 1276l170 268h195l-213 -268h-152zM715 -16q-169 0 -311 79.5t-224 216t-82 298.5q0 120 48.5 229t130.5 188t196.5 125.5t241.5 46.5q140 0 261 -56t204 -155l-136 -108q-60 70 -144.5 109.5t-182.5 39.5q-183 0 -308.5 -122.5t-125.5 -296.5q0 -176 125.5 -300
t308.5 -124q97 0 182 40t145 109l136 -106q-83 -100 -204 -156.5t-261 -56.5z" />
    <glyph glyph-name="Ccaron.c2sc" horiz-adv-x="1251" 
d="M604 1276l-194 268h143l137 -151l137 151h148l-195 -268h-176zM715 -16q-169 0 -311 79.5t-224 216t-82 298.5q0 120 48.5 229t130.5 188t196.5 125.5t241.5 46.5q140 0 261 -56t204 -155l-136 -108q-60 70 -144.5 109.5t-182.5 39.5q-183 0 -308.5 -122.5t-125.5 -296.5
q0 -176 125.5 -300t308.5 -124q97 0 182 40t145 109l136 -106q-83 -100 -204 -156.5t-261 -56.5z" />
    <glyph glyph-name="Ccedilla.c2sc" horiz-adv-x="1251" 
d="M717 154q97 0 182 40t145 109l136 -106q-75 -91 -182.5 -146.5t-231.5 -64.5l43 -90q18 -41 18 -74q0 -74 -50 -121t-126 -47q-81 0 -131.5 50t-50.5 136h106q0 -37 21 -61.5t53 -24.5t50 19t18 49q0 18 -6 33l-54 131q-238 22 -398.5 191.5t-160.5 400.5q0 120 48.5 229
t130.5 188t196.5 125.5t241.5 46.5q140 0 261 -56t204 -155l-136 -108q-60 70 -144.5 109.5t-182.5 39.5q-183 0 -308.5 -122.5t-125.5 -296.5q0 -176 125.5 -300t308.5 -124z" />
    <glyph glyph-name="Cdotaccent.c2sc" horiz-adv-x="1251" 
d="M702 1296q-46 0 -79 31t-33 76q0 44 33 74t79 30q48 0 81.5 -30t33.5 -74q0 -45 -33.5 -76t-81.5 -31zM715 -16q-169 0 -311 79.5t-224 216t-82 298.5q0 120 48.5 229t130.5 188t196.5 125.5t241.5 46.5q140 0 261 -56t204 -155l-136 -108q-60 70 -144.5 109.5
t-182.5 39.5q-183 0 -308.5 -122.5t-125.5 -296.5q0 -176 125.5 -300t308.5 -124q97 0 182 40t145 109l136 -106q-83 -100 -204 -156.5t-261 -56.5z" />
    <glyph glyph-name="D.c2sc" horiz-adv-x="1304" 
d="M182 0v1155h471q169 0 294 -77t188 -207.5t63 -295.5q0 -123 -37 -228t-105.5 -182.5t-172 -121t-230.5 -43.5h-471zM365 164h288q172 0 267.5 116.5t95.5 294.5q0 116 -40 208.5t-124 150t-199 57.5h-288v-827z" />
    <glyph glyph-name="Eth.c2sc" horiz-adv-x="1314" 
d="M662 1155q169 0 294 -77t188.5 -207.5t63.5 -295.5t-63.5 -294.5t-188.5 -205t-294 -75.5h-472v510h-133v133h133v512h472zM662 164q173 0 267.5 116t94.5 295q0 116 -39.5 208.5t-123 150t-199.5 57.5h-289v-348h278v-133h-278v-346h289z" />
    <glyph glyph-name="Dcaron.c2sc" horiz-adv-x="1304" 
d="M494 1276l-195 268h145l138 -151l137 151h147l-194 -268h-178zM182 0v1155h471q169 0 294 -77t188 -207.5t63 -295.5q0 -123 -37 -228t-105.5 -182.5t-172 -121t-230.5 -43.5h-471zM365 164h288q172 0 267.5 116.5t95.5 294.5q0 116 -40 208.5t-124 150t-199 57.5h-288
v-827z" />
    <glyph glyph-name="Dcroat.c2sc" horiz-adv-x="1314" 
d="M662 1155q169 0 294 -77t188.5 -207.5t63.5 -295.5t-63.5 -294.5t-188.5 -205t-294 -75.5h-472v510h-133v133h133v512h472zM662 164q173 0 267.5 116t94.5 295q0 116 -39.5 208.5t-123 150t-199.5 57.5h-289v-348h278v-133h-278v-346h289z" />
    <glyph glyph-name="E.c2sc" horiz-adv-x="1034" 
d="M362 164h564v-164h-744v1155h727v-164h-547v-340h478v-166h-478v-321z" />
    <glyph glyph-name="Eacute.c2sc" horiz-adv-x="1034" 
d="M819 1544l-215 -268h-151l170 268h196zM362 164h564v-164h-744v1155h727v-164h-547v-340h478v-166h-478v-321z" />
    <glyph glyph-name="Ecaron.c2sc" horiz-adv-x="1034" 
d="M608 1276h-178l-192 268h145l137 -151l135 151h146zM362 164h564v-164h-744v1155h727v-164h-547v-340h478v-166h-478v-321z" />
    <glyph glyph-name="Ecircumflex.c2sc" horiz-adv-x="1034" 
d="M520 1427l-137 -151h-145l192 268h178l193 -268h-146zM362 164h564v-164h-744v1155h727v-164h-547v-340h478v-166h-478v-321z" />
    <glyph glyph-name="Edieresis.c2sc" horiz-adv-x="1034" 
d="M350 1305q-46 0 -78 29t-32 71t32 71t78 29q45 0 77 -29t32 -71t-32 -71t-77 -29zM688 1305q-45 0 -76.5 29t-31.5 71t31.5 71t76.5 29q46 0 78.5 -29t32.5 -71t-32.5 -71t-78.5 -29zM362 164h564v-164h-744v1155h727v-164h-547v-340h478v-166h-478v-321z" />
    <glyph glyph-name="Edotaccent.c2sc" horiz-adv-x="1034" 
d="M520 1296q-47 0 -79.5 30.5t-32.5 76.5q0 44 32.5 74t79.5 30t80 -30t33 -74q0 -46 -33 -76.5t-80 -30.5zM362 164h564v-164h-744v1155h727v-164h-547v-340h478v-166h-478v-321z" />
    <glyph glyph-name="Egrave.c2sc" horiz-adv-x="1034" 
d="M594 1276h-152l-213 268h195zM362 164h564v-164h-744v1155h727v-164h-547v-340h478v-166h-478v-321z" />
    <glyph glyph-name="Emacron.c2sc" horiz-adv-x="1034" 
d="M748 1475v-129h-455v129h455zM362 164h564v-164h-744v1155h727v-164h-547v-340h478v-166h-478v-321z" />
    <glyph glyph-name="Eogonek.c2sc" horiz-adv-x="1034" 
d="M733 0l-59 -145q-4 -10 -4 -33q0 -30 17.5 -49t47.5 -19q32 0 53 24.5t23 61.5h107q0 -86 -51 -136t-132 -50q-76 0 -126 47t-50 121q0 38 19 74l51 104h-447v1155h727v-164h-547v-340h478v-166h-478v-321h564v-164h-193z" />
    <glyph glyph-name="F.c2sc" horiz-adv-x="972" 
d="M899 991h-534v-342h423v-164h-423v-485h-183v1155h717v-164z" />
    <glyph glyph-name="G.c2sc" horiz-adv-x="1363" 
d="M715 -16q-170 0 -312 79.5t-223.5 215t-81.5 296.5q0 162 81.5 298.5t223.5 216t312 79.5q122 0 230 -43t188 -118l-127 -119q-126 110 -291 110q-182 0 -307 -124t-125 -300q0 -175 125.5 -300t306.5 -125q147 0 248.5 68.5t126.5 187.5q2 10 2 28h-351v154h551
q-1 -152 -42.5 -268.5t-118 -189.5t-181 -109.5t-235.5 -36.5z" />
    <glyph glyph-name="Gbreve.c2sc" horiz-adv-x="1363" 
d="M682 1303q-114 0 -171.5 62t-57.5 153h129q0 -45 26 -72t74 -27q44 0 70 29.5t26 69.5h131q0 -98 -62.5 -156.5t-164.5 -58.5zM715 -16q-170 0 -312 79.5t-223.5 215t-81.5 296.5q0 162 81.5 298.5t223.5 216t312 79.5q122 0 230 -43t188 -118l-127 -119
q-126 110 -291 110q-182 0 -307 -124t-125 -300q0 -175 125.5 -300t306.5 -125q147 0 248.5 68.5t126.5 187.5q2 10 2 28h-351v154h551q-1 -152 -42.5 -268.5t-118 -189.5t-181 -109.5t-235.5 -36.5z" />
    <glyph glyph-name="Gcommaaccent.c2sc" horiz-adv-x="1363" 
d="M715 -16q-170 0 -312 79.5t-223.5 215t-81.5 296.5q0 162 81.5 298.5t223.5 216t312 79.5q122 0 230 -43t188 -118l-127 -119q-126 110 -291 110q-182 0 -307 -124t-125 -300q0 -175 125.5 -300t306.5 -125q147 0 248.5 68.5t126.5 187.5q2 10 2 28h-351v154h551
q-1 -152 -42.5 -268.5t-118 -189.5t-181 -109.5t-235.5 -36.5zM621 -391l-101 39q50 61 69.5 126.5t12.5 157.5h170q1 -109 -41.5 -191.5t-109.5 -131.5z" />
    <glyph glyph-name="Gdotaccent.c2sc" horiz-adv-x="1363" 
d="M682 1296q-47 0 -81 31t-34 76q0 44 34.5 74t80.5 30q48 0 81.5 -30t33.5 -74q0 -45 -33.5 -76t-81.5 -31zM715 -16q-170 0 -312 79.5t-223.5 215t-81.5 296.5q0 162 81.5 298.5t223.5 216t312 79.5q122 0 230 -43t188 -118l-127 -119q-126 110 -291 110
q-182 0 -307 -124t-125 -300q0 -175 125.5 -300t306.5 -125q147 0 248.5 68.5t126.5 187.5q2 10 2 28h-351v154h551q-1 -152 -42.5 -268.5t-118 -189.5t-181 -109.5t-235.5 -36.5z" />
    <glyph glyph-name="H.c2sc" horiz-adv-x="1286" 
d="M922 1155h182v-1155h-182v492h-557v-492h-183v1155h183v-500h557v500z" />
    <glyph glyph-name="Hbar.c2sc" horiz-adv-x="1294" 
d="M1231 956v-108h-123v-848h-182v492h-557v-492h-183v848h-120v108h120v199h183v-199h557v199h182v-199h123zM926 655v193h-557v-193h557z" />
    <glyph glyph-name="I.c2sc" horiz-adv-x="544" 
d="M182 0v1155h183v-1155h-183z" />
    <glyph glyph-name="IJ.c2sc" horiz-adv-x="1048" 
d="M182 0v1155h183v-1155h-183zM489 -393q-55 0 -141 22l19 166q40 -12 122 -12q100 0 148.5 57t48.5 148v1167h182v-1167q0 -80 -21 -146.5t-65 -120.5t-119 -84t-174 -30z" />
    <glyph glyph-name="Iacute.c2sc" horiz-adv-x="544" 
d="M207 1276l170 268h194l-213 -268h-151zM182 0v1155h183v-1155h-183z" />
    <glyph glyph-name="uni01CF.c2sc" horiz-adv-x="544" 
d="M182 1276l-194 268h145l137 -151l138 151h147l-195 -268h-178zM182 0v1155h183v-1155h-183z" />
    <glyph glyph-name="Icircumflex.c2sc" horiz-adv-x="544" 
d="M-12 1276l194 268h178l195 -268h-147l-138 151l-137 -151h-145zM182 0v1155h183v-1155h-183z" />
    <glyph glyph-name="Idieresis.c2sc" horiz-adv-x="544" 
d="M102 1305q-45 0 -77.5 29t-32.5 71t32.5 71t77.5 29q46 0 77.5 -28.5t31.5 -71.5t-31.5 -71.5t-77.5 -28.5zM442 1305q-46 0 -79 29t-33 71t33 71t79 29q45 0 77 -29t32 -71t-32 -71t-77 -29zM182 0v1155h183v-1155h-183z" />
    <glyph glyph-name="Idotaccent.c2sc" horiz-adv-x="544" 
d="M272 1296q-46 0 -79 31t-33 76q0 44 33 74t79 30q48 0 81.5 -30t33.5 -74q0 -45 -33.5 -76t-81.5 -31zM182 0v1155h183v-1155h-183z" />
    <glyph glyph-name="Igrave.c2sc" horiz-adv-x="544" 
d="M195 1276l-213 268h194l170 -268h-151zM182 0v1155h183v-1155h-183z" />
    <glyph glyph-name="Imacron.c2sc" horiz-adv-x="544" 
d="M47 1346v129h453v-129h-453zM182 0v1155h183v-1155h-183z" />
    <glyph glyph-name="Iogonek.c2sc" horiz-adv-x="544" 
d="M356 -160h107q0 -87 -50.5 -136.5t-133.5 -49.5q-76 0 -125.5 47t-49.5 121q0 38 19 74l59 122v1137h183v-1155h-86l-60 -145q-6 -15 -6 -33q0 -29 18.5 -48.5t47.5 -19.5q33 0 54 24.5t23 61.5z" />
    <glyph glyph-name="Itilde.c2sc" horiz-adv-x="544" 
d="M37 1307q6 102 51 149t105 47q34 0 64.5 -17.5t54 -34.5t38.5 -17q18 0 34 16.5t17 52.5h107q-4 -101 -51 -147.5t-107 -46.5q-33 0 -62.5 17.5t-53 35.5t-41.5 18q-15 0 -31 -18.5t-17 -54.5h-108zM182 0v1155h183v-1155h-183z" />
    <glyph glyph-name="J.c2sc" horiz-adv-x="561" 
d="M2 -393q-55 0 -141 22l18 166q40 -12 123 -12q100 0 148.5 57t48.5 148v1167h182v-1167q0 -80 -21 -146.5t-64.5 -120.5t-118.5 -84t-175 -30z" />
    <glyph glyph-name="Jcircumflex.c2sc" horiz-adv-x="561" 
d="M4 1276l195 268h178l194 -268h-145l-139 151l-135 -151h-148zM2 -393q-55 0 -141 22l18 166q40 -12 123 -12q100 0 148.5 57t48.5 148v1167h182v-1167q0 -80 -21 -146.5t-64.5 -120.5t-118.5 -84t-175 -30z" />
    <glyph glyph-name="K.c2sc" horiz-adv-x="1058" 
d="M1065 0h-248l-455 461v-461h-180v1155h180v-465l379 465h226l-469 -580z" />
    <glyph glyph-name="Kcommaaccent.c2sc" horiz-adv-x="1058" 
d="M498 575l567 -575h-248l-455 461v-461h-180v1155h180v-465l379 465h226zM455 -68h168q1 -109 -41 -191.5t-109 -131.5l-102 39q51 62 71 127.5t13 156.5z" />
    <glyph glyph-name="L.c2sc" horiz-adv-x="907" 
d="M182 0v1155h183v-991h487v-164h-670z" />
    <glyph glyph-name="Lacute.c2sc" horiz-adv-x="907" 
d="M186 1276l170 268h195l-213 -268h-152zM182 0v1155h183v-991h487v-164h-670z" />
    <glyph glyph-name="Lcaron.c2sc" horiz-adv-x="911" 
d="M182 0v1155h183v-991h487v-164h-670zM600 813l-100 41q54 71 73.5 136t12.5 165h162q-5 -224 -148 -342z" />
    <glyph glyph-name="Lcommaaccent.c2sc" horiz-adv-x="907" 
d="M182 0v1155h183v-991h487v-164h-670zM399 -391l-102 39q50 61 69.5 126.5t12.5 157.5h170q0 -110 -42 -192t-108 -131z" />
    <glyph glyph-name="Lslash.c2sc" horiz-adv-x="913" 
d="M371 164h487v-164h-670v424l-118 -74v127l118 72v606h183v-496l182 111v-123l-182 -112v-371z" />
    <glyph glyph-name="M.c2sc" horiz-adv-x="1679" 
d="M1567 0h-181l-104 819l-362 -690h-154l-365 692l-104 -821h-182l149 1155h160l418 -821l415 821h162z" />
    <glyph glyph-name="N.c2sc" horiz-adv-x="1245" 
d="M881 1155h182v-1155h-172l-526 823v-823h-183v1155h176l523 -815v815z" />
    <glyph glyph-name="Nacute.c2sc" horiz-adv-x="1245" 
d="M922 1544l-213 -268h-152l170 268h195zM881 1155h182v-1155h-172l-526 823v-823h-183v1155h176l523 -815v815z" />
    <glyph glyph-name="Ncaron.c2sc" horiz-adv-x="1245" 
d="M711 1276h-179l-194 268h147l136 -151l139 151h145zM881 1155h182v-1155h-172l-526 823v-823h-183v1155h176l523 -815v815z" />
    <glyph glyph-name="Ncommaaccent.c2sc" horiz-adv-x="1245" 
d="M881 1155h182v-1155h-172l-526 823v-823h-183v1155h176l523 -815v815zM461 -352q51 61 70 126.5t10 157.5h172q0 -109 -43 -191.5t-109 -131.5z" />
    <glyph glyph-name="Eng.c2sc" horiz-adv-x="1245" 
d="M881 1155h182v-1159q0 -81 -21 -147.5t-64.5 -120t-118.5 -83.5t-175 -30q-59 0 -141 20l18 168q40 -12 123 -12q101 0 150 57.5t47 147.5v29l-516 798v-823h-183v1155h176l523 -815v815z" />
    <glyph glyph-name="Ntilde.c2sc" horiz-adv-x="1245" 
d="M543 1380q-17 0 -32.5 -18.5t-16.5 -54.5h-107q6 102 51 149t105 47q34 0 65 -17.5t54.5 -34.5t37.5 -17q17 0 33 16.5t17 52.5h108q-4 -69 -30 -114.5t-58.5 -62.5t-69.5 -17q-33 0 -62.5 17.5t-53 35.5t-41.5 18zM881 1155h182v-1155h-172l-526 823v-823h-183v1155h176
l523 -815v815z" />
    <glyph glyph-name="O.c2sc" horiz-adv-x="1431" 
d="M715 -16q-170 0 -311.5 79.5t-222.5 216t-81 298.5q0 161 81 296.5t222.5 215t311.5 79.5t312 -79.5t223 -215t81 -296.5q0 -121 -48 -231t-130 -189.5t-196.5 -126.5t-241.5 -47zM715 154q184 0 308 123t124 301q0 175 -124.5 298t-307.5 123t-306.5 -123t-123.5 -298
q0 -178 123.5 -301t306.5 -123z" />
    <glyph glyph-name="Oacute.c2sc" horiz-adv-x="1431" 
d="M651 1276l168 268h197l-213 -268h-152zM715 -16q-170 0 -311.5 79.5t-222.5 216t-81 298.5q0 161 81 296.5t222.5 215t311.5 79.5t312 -79.5t223 -215t81 -296.5q0 -121 -48 -231t-130 -189.5t-196.5 -126.5t-241.5 -47zM715 154q184 0 308 123t124 301q0 175 -124.5 298
t-307.5 123t-306.5 -123t-123.5 -298q0 -178 123.5 -301t306.5 -123z" />
    <glyph glyph-name="uni01D1.c2sc" horiz-adv-x="1431" 
d="M625 1276l-193 268h146l137 -151l137 151h147l-194 -268h-180zM715 -16q-170 0 -311.5 79.5t-222.5 216t-81 298.5q0 161 81 296.5t222.5 215t311.5 79.5t312 -79.5t223 -215t81 -296.5q0 -121 -48 -231t-130 -189.5t-196.5 -126.5t-241.5 -47zM715 154q184 0 308 123
t124 301q0 175 -124.5 298t-307.5 123t-306.5 -123t-123.5 -298q0 -178 123.5 -301t306.5 -123z" />
    <glyph glyph-name="Ocircumflex.c2sc" horiz-adv-x="1431" 
d="M432 1276l193 268h180l194 -268h-147l-137 151l-137 -151h-146zM715 -16q-170 0 -311.5 79.5t-222.5 216t-81 298.5q0 161 81 296.5t222.5 215t311.5 79.5t312 -79.5t223 -215t81 -296.5q0 -121 -48 -231t-130 -189.5t-196.5 -126.5t-241.5 -47zM715 154q184 0 308 123
t124 301q0 175 -124.5 298t-307.5 123t-306.5 -123t-123.5 -298q0 -178 123.5 -301t306.5 -123z" />
    <glyph glyph-name="Odieresis.c2sc" horiz-adv-x="1431" 
d="M547 1305q-45 0 -78 29t-33 71t33 71t78 29q44 0 76 -29t32 -71t-32 -71t-76 -29zM885 1305q-45 0 -78 29t-33 71t33 71t78 29t77.5 -29t32.5 -71t-32.5 -71t-77.5 -29zM715 -16q-170 0 -311.5 79.5t-222.5 216t-81 298.5q0 161 81 296.5t222.5 215t311.5 79.5t312 -79.5
t223 -215t81 -296.5q0 -121 -48 -231t-130 -189.5t-196.5 -126.5t-241.5 -47zM715 154q184 0 308 123t124 301q0 175 -124.5 298t-307.5 123t-306.5 -123t-123.5 -298q0 -178 123.5 -301t306.5 -123z" />
    <glyph glyph-name="Ograve.c2sc" horiz-adv-x="1431" 
d="M637 1276l-213 268h194l170 -268h-151zM715 -16q-170 0 -311.5 79.5t-222.5 216t-81 298.5q0 161 81 296.5t222.5 215t311.5 79.5t312 -79.5t223 -215t81 -296.5q0 -121 -48 -231t-130 -189.5t-196.5 -126.5t-241.5 -47zM715 154q184 0 308 123t124 301q0 175 -124.5 298
t-307.5 123t-306.5 -123t-123.5 -298q0 -178 123.5 -301t306.5 -123z" />
    <glyph glyph-name="Ohungarumlaut.c2sc" horiz-adv-x="1431" 
d="M532 1276l150 268h152l-162 -268h-140zM772 1276l164 268h158l-185 -268h-137zM715 -16q-170 0 -311.5 79.5t-222.5 216t-81 298.5q0 161 81 296.5t222.5 215t311.5 79.5t312 -79.5t223 -215t81 -296.5q0 -121 -48 -231t-130 -189.5t-196.5 -126.5t-241.5 -47zM715 154
q184 0 308 123t124 301q0 175 -124.5 298t-307.5 123t-306.5 -123t-123.5 -298q0 -178 123.5 -301t306.5 -123z" />
    <glyph glyph-name="Omacron.c2sc" horiz-adv-x="1431" 
d="M489 1346v129h453v-129h-453zM715 -16q-170 0 -311.5 79.5t-222.5 216t-81 298.5q0 161 81 296.5t222.5 215t311.5 79.5t312 -79.5t223 -215t81 -296.5q0 -121 -48 -231t-130 -189.5t-196.5 -126.5t-241.5 -47zM715 154q184 0 308 123t124 301q0 175 -124.5 298
t-307.5 123t-306.5 -123t-123.5 -298q0 -178 123.5 -301t306.5 -123z" />
    <glyph glyph-name="Oslash.c2sc" horiz-adv-x="1437" 
d="M1190 961q145 -164 145 -383q0 -121 -48 -231t-130 -189.5t-196.5 -126.5t-241.5 -47q-223 0 -391 133l-140 -137l-79 73l141 137q-146 165 -146 388q0 161 81 296.5t222.5 215t311.5 79.5q223 0 393 -135l141 140l80 -74zM289 578q0 -148 88 -263l608 596
q-115 88 -266 88q-183 0 -306.5 -123t-123.5 -298zM719 154q184 0 309 123t125 301q0 144 -90 258l-608 -596q117 -86 264 -86z" />
    <glyph glyph-name="Oslashacute.c2sc" horiz-adv-x="1437" 
d="M1020 1544l-215 -268h-152l170 268h197zM1190 961q145 -164 145 -383q0 -121 -48 -231t-130 -189.5t-196.5 -126.5t-241.5 -47q-223 0 -391 133l-140 -137l-79 73l141 137q-146 165 -146 388q0 161 81 296.5t222.5 215t311.5 79.5q223 0 393 -135l141 140l80 -74z
M289 578q0 -148 88 -263l608 596q-115 88 -266 88q-183 0 -306.5 -123t-123.5 -298zM719 154q184 0 309 123t125 301q0 144 -90 258l-608 -596q117 -86 264 -86z" />
    <glyph glyph-name="Otilde.c2sc" horiz-adv-x="1431" 
d="M481 1307q6 102 51 149t105 47q34 0 65 -17.5t54 -34.5t37 -17q19 0 34 16.5t15 52.5h108q-3 -53 -18 -92t-38 -60.5t-48.5 -31.5t-52.5 -10q-33 0 -62 17.5t-52.5 35.5t-41.5 18q-17 0 -32 -18.5t-15 -54.5h-109zM715 -16q-170 0 -311.5 79.5t-222.5 216t-81 298.5
q0 161 81 296.5t222.5 215t311.5 79.5t312 -79.5t223 -215t81 -296.5q0 -121 -48 -231t-130 -189.5t-196.5 -126.5t-241.5 -47zM715 154q184 0 308 123t124 301q0 175 -124.5 298t-307.5 123t-306.5 -123t-123.5 -298q0 -178 123.5 -301t306.5 -123z" />
    <glyph glyph-name="OE.c2sc" horiz-adv-x="2002" 
d="M1331 164h563v-164h-745v162q-78 -85 -192 -131.5t-242 -46.5q-170 0 -311.5 79.5t-222.5 216t-81 298.5q0 161 81 296.5t222.5 215t311.5 79.5q128 0 241.5 -46t192.5 -132v164h729v-164h-547v-340h477v-166h-477v-321zM715 154q184 0 308 123t124 301q0 175 -124.5 298
t-307.5 123t-306.5 -123t-123.5 -298q0 -178 123.5 -301t306.5 -123z" />
    <glyph glyph-name="P.c2sc" horiz-adv-x="1112" 
d="M668 1155q94 0 167 -31t116 -84t65 -117t22 -135t-22 -134.5t-65 -116t-116 -83t-167 -30.5h-303v-424h-183v1155h486zM657 588q99 0 149 58.5t50 141.5q0 82 -49 142.5t-143 60.5h-299v-403h292z" />
    <glyph glyph-name="Thorn.c2sc" horiz-adv-x="1077" 
d="M610 944q162 0 269.5 -99.5t107.5 -260.5q0 -166 -108 -268.5t-269 -102.5h-245v-213h-183v1155h183v-211h245zM608 379q86 0 143.5 57.5t57.5 145.5q0 90 -60 143t-151 53h-233v-399h243z" />
    <glyph glyph-name="Q.c2sc" horiz-adv-x="1431" 
d="M1331 575q0 -155 -75.5 -286.5t-206.5 -210.5l122 -191l-135 -82l-133 207q-92 -28 -188 -28q-170 0 -311.5 79.5t-222.5 215t-81 296.5q0 162 81 298.5t222.5 216t311.5 79.5q127 0 241.5 -47t196.5 -126.5t130 -189.5t48 -231zM715 154q30 0 92 8l-121 188l135 80
l133 -207q90 58 141.5 150.5t51.5 201.5q0 176 -124.5 300t-307.5 124t-306.5 -124t-123.5 -300t123.5 -298.5t306.5 -122.5z" />
    <glyph glyph-name="R.c2sc" horiz-adv-x="1134" 
d="M811 0l-309 430h-137v-430h-183v1155h465q96 0 170 -31t117.5 -84t65.5 -116.5t22 -135.5q0 -137 -78.5 -236.5t-236.5 -117.5l323 -434h-219zM365 991v-407h241q118 0 176 55.5t58 146.5q0 89 -54 147t-145 58h-276z" />
    <glyph glyph-name="Racute.c2sc" horiz-adv-x="1134" 
d="M866 1544l-213 -268h-151l170 268h194zM811 0l-309 430h-137v-430h-183v1155h465q96 0 170 -31t117.5 -84t65.5 -116.5t22 -135.5q0 -137 -78.5 -236.5t-236.5 -117.5l323 -434h-219zM365 991v-407h241q118 0 176 55.5t58 146.5q0 89 -54 147t-145 58h-276z" />
    <glyph glyph-name="Rcaron.c2sc" horiz-adv-x="1134" 
d="M655 1276h-176l-194 268h147l135 -151l138 151h145zM811 0l-309 430h-137v-430h-183v1155h465q96 0 170 -31t117.5 -84t65.5 -116.5t22 -135.5q0 -137 -78.5 -236.5t-236.5 -117.5l323 -434h-219zM365 991v-407h241q118 0 176 55.5t58 146.5q0 89 -54 147t-145 58h-276z
" />
    <glyph glyph-name="Rcommaaccent.c2sc" horiz-adv-x="1134" 
d="M707 434l323 -434h-219l-309 430h-137v-430h-183v1155h465q96 0 170 -31t117.5 -84t65.5 -116.5t22 -135.5q0 -137 -78.5 -236.5t-236.5 -117.5zM365 991v-407h241q118 0 176 55.5t58 146.5q0 89 -54 147t-145 58h-276zM489 -68h168q1 -109 -41 -191.5t-108 -131.5
l-102 39q50 61 69.5 126t13.5 158z" />
    <glyph glyph-name="S.c2sc" horiz-adv-x="1046" 
d="M535 -16q-187 0 -307 102t-122 248h183q3 -76 72 -131.5t176 -55.5q105 0 168 50t63 122q0 119 -197 170l-153 39q-74 19 -130 48.5t-88 60t-52 68t-26.5 68t-6.5 63.5q0 98 56 175.5t147.5 117.5t199.5 40q168 0 279 -92.5t112 -247.5h-180q-1 78 -62 127.5t-153 49.5
q-88 0 -151.5 -46.5t-63.5 -119.5q0 -106 166 -146l151 -37q334 -82 334 -329q0 -150 -116 -247t-299 -97z" />
    <glyph glyph-name="Sacute.c2sc" horiz-adv-x="1046" 
d="M459 1276l170 268h194l-213 -268h-151zM535 -16q-187 0 -307 102t-122 248h183q3 -76 72 -131.5t176 -55.5q105 0 168 50t63 122q0 119 -197 170l-153 39q-74 19 -130 48.5t-88 60t-52 68t-26.5 68t-6.5 63.5q0 98 56 175.5t147.5 117.5t199.5 40q168 0 279 -92.5
t112 -247.5h-180q-1 78 -62 127.5t-153 49.5q-88 0 -151.5 -46.5t-63.5 -119.5q0 -106 166 -146l151 -37q334 -82 334 -329q0 -150 -116 -247t-299 -97z" />
    <glyph glyph-name="Scaron.c2sc" horiz-adv-x="1046" 
d="M436 1276l-194 268h145l137 -151l135 151h148l-195 -268h-176zM535 -16q-187 0 -307 102t-122 248h183q3 -76 72 -131.5t176 -55.5q105 0 168 50t63 122q0 119 -197 170l-153 39q-74 19 -130 48.5t-88 60t-52 68t-26.5 68t-6.5 63.5q0 98 56 175.5t147.5 117.5t199.5 40
q168 0 279 -92.5t112 -247.5h-180q-1 78 -62 127.5t-153 49.5q-88 0 -151.5 -46.5t-63.5 -119.5q0 -106 166 -146l151 -37q334 -82 334 -329q0 -150 -116 -247t-299 -97z" />
    <glyph glyph-name="Scedilla.c2sc" horiz-adv-x="1046" 
d="M950 328q0 -133 -94.5 -226.5t-249.5 -113.5l45 -92q17 -39 17 -74q0 -74 -49 -121t-125 -47q-81 0 -133 50t-52 136h109q0 -37 21 -61.5t53 -24.5q30 0 48.5 19t18.5 49q0 18 -6 33l-53 131q-174 9 -283 109t-111 239h183q3 -76 72 -131.5t176 -55.5q105 0 168 50
t63 122q0 119 -197 170l-153 39q-74 19 -130 48.5t-88 60t-52 68t-26.5 68t-6.5 63.5q0 98 56 175.5t147.5 117.5t199.5 40q168 0 279 -92.5t112 -247.5h-180q-1 78 -62 127.5t-153 49.5q-88 0 -151.5 -46.5t-63.5 -119.5q0 -106 166 -146l151 -37q334 -82 334 -329z" />
    <glyph glyph-name="Scommaaccent.c2sc" horiz-adv-x="1046" 
d="M535 -16q-187 0 -307 102t-122 248h183q3 -76 72 -131.5t176 -55.5q105 0 168 50t63 122q0 119 -197 170l-153 39q-74 19 -130 48.5t-88 60t-52 68t-26.5 68t-6.5 63.5q0 98 56 175.5t147.5 117.5t199.5 40q168 0 279 -92.5t112 -247.5h-180q-1 78 -62 127.5t-153 49.5
q-88 0 -151.5 -46.5t-63.5 -119.5q0 -106 166 -146l151 -37q334 -82 334 -329q0 -150 -116 -247t-299 -97zM465 -391l-105 39q50 61 70 126.5t14 157.5h170q0 -109 -42 -191.5t-107 -131.5z" />
    <glyph glyph-name="uni1E9E.c2sc" horiz-adv-x="1239" 
d="M819 696q150 -29 236 -121.5t86 -218.5q0 -168 -117.5 -270t-308.5 -102q-107 -4 -191 24l29 156q62 -19 154 -19q114 0 182.5 59.5t68.5 162.5q0 90 -74 149t-194 59h-43l-24 111l176 299q-80 19 -172 19q-133 0 -204 -71t-71 -202v-731h-182v731q0 210 121 324t340 114
q94 0 215.5 -23t195.5 -56v-25z" />
    <glyph glyph-name="T.c2sc" horiz-adv-x="1013" 
d="M958 1155v-164h-360v-991h-182v991h-361v164h903z" />
    <glyph glyph-name="Tbar.c2sc" horiz-adv-x="1042" 
d="M973 991h-361v-364h219v-109h-219v-518h-182v518h-219v109h219v364h-360v164h903v-164z" />
    <glyph glyph-name="Tcaron.c2sc" horiz-adv-x="1013" 
d="M594 1276h-176l-195 268h148l135 -151l137 151h145zM958 1155v-164h-360v-991h-182v991h-361v164h903z" />
    <glyph glyph-name="uni0162.c2sc" horiz-adv-x="1013" 
d="M958 991h-360v-954l68 -141q18 -41 18 -74q0 -74 -50 -121t-126 -47q-81 0 -131.5 50t-50.5 136h106q0 -37 22 -61.5t54 -24.5q30 0 47.5 19t17.5 49q0 13 -4 33l-59 145h-94v991h-361v164h903v-164z" />
    <glyph glyph-name="uni021A.c2sc" horiz-adv-x="1013" 
d="M958 1155v-164h-360v-991h-182v991h-361v164h903zM344 -352q50 61 69.5 126.5t12.5 157.5h170q0 -109 -42.5 -191.5t-107.5 -131.5z" />
    <glyph glyph-name="U.c2sc" horiz-adv-x="1232" 
d="M618 -16q-122 0 -223 48.5t-163 145t-62 223.5v754h182v-747q0 -122 76 -186t190 -64t189.5 64t75.5 186v747h182v-754q0 -127 -62 -223.5t-163 -145t-222 -48.5z" />
    <glyph glyph-name="Uacute.c2sc" horiz-adv-x="1232" 
d="M553 1276l166 268h196l-213 -268h-149zM618 -16q-122 0 -223 48.5t-163 145t-62 223.5v754h182v-747q0 -122 76 -186t190 -64t189.5 64t75.5 186v747h182v-754q0 -127 -62 -223.5t-163 -145t-222 -48.5z" />
    <glyph glyph-name="uni01D3.c2sc" horiz-adv-x="1232" 
d="M526 1276l-192 268h145l137 -151l138 151h147l-194 -268h-181zM618 -16q-122 0 -223 48.5t-163 145t-62 223.5v754h182v-747q0 -122 76 -186t190 -64t189.5 64t75.5 186v747h182v-754q0 -127 -62 -223.5t-163 -145t-222 -48.5z" />
    <glyph glyph-name="Ucircumflex.c2sc" horiz-adv-x="1232" 
d="M334 1276l192 268h181l194 -268h-147l-138 151l-137 -151h-145zM618 -16q-122 0 -223 48.5t-163 145t-62 223.5v754h182v-747q0 -122 76 -186t190 -64t189.5 64t75.5 186v747h182v-754q0 -127 -62 -223.5t-163 -145t-222 -48.5z" />
    <glyph glyph-name="Udieresis.c2sc" horiz-adv-x="1232" 
d="M449 1305q-46 0 -78.5 29t-32.5 71t32.5 71t78.5 29q44 0 76 -29t32 -71t-32 -71t-76 -29zM786 1305q-46 0 -78 29t-32 71t32 71t78 29q45 0 77 -29t32 -71t-32 -71t-77 -29zM618 -16q-122 0 -223 48.5t-163 145t-62 223.5v754h182v-747q0 -122 76 -186t190 -64t189.5 64
t75.5 186v747h182v-754q0 -127 -62 -223.5t-163 -145t-222 -48.5z" />
    <glyph glyph-name="uni01D7.c2sc" horiz-adv-x="1232" 
d="M553 1573l166 268h196l-213 -268h-149zM449 1305q-46 0 -78.5 29t-32.5 71t32.5 71t78.5 29q44 0 76 -29t32 -71t-32 -71t-76 -29zM786 1305q-46 0 -78 29t-32 71t32 71t78 29q45 0 77 -29t32 -71t-32 -71t-77 -29zM618 -16q-122 0 -223 48.5t-163 145t-62 223.5v754h182
v-747q0 -122 76 -186t190 -64t189.5 64t75.5 186v747h182v-754q0 -127 -62 -223.5t-163 -145t-222 -48.5z" />
    <glyph glyph-name="uni01D9.c2sc" horiz-adv-x="1232" 
d="M526 1573l-192 268h145l137 -151l138 151h147l-194 -268h-181zM449 1305q-46 0 -78.5 29t-32.5 71t32.5 71t78.5 29q44 0 76 -29t32 -71t-32 -71t-76 -29zM786 1305q-46 0 -78 29t-32 71t32 71t78 29q45 0 77 -29t32 -71t-32 -71t-77 -29zM618 -16q-122 0 -223 48.5
t-163 145t-62 223.5v754h182v-747q0 -122 76 -186t190 -64t189.5 64t75.5 186v747h182v-754q0 -127 -62 -223.5t-163 -145t-222 -48.5z" />
    <glyph glyph-name="uni01DB.c2sc" horiz-adv-x="1232" 
d="M539 1573l-213 268h194l170 -268h-151zM449 1305q-46 0 -78.5 29t-32.5 71t32.5 71t78.5 29q44 0 76 -29t32 -71t-32 -71t-76 -29zM786 1305q-46 0 -78 29t-32 71t32 71t78 29q45 0 77 -29t32 -71t-32 -71t-77 -29zM618 -16q-122 0 -223 48.5t-163 145t-62 223.5v754h182
v-747q0 -122 76 -186t190 -64t189.5 64t75.5 186v747h182v-754q0 -127 -62 -223.5t-163 -145t-222 -48.5z" />
    <glyph glyph-name="uni01D5.c2sc" horiz-adv-x="1232" 
d="M389 1622v129h455v-129h-455zM449 1305q-46 0 -78.5 29t-32.5 71t32.5 71t78.5 29q44 0 76 -29t32 -71t-32 -71t-76 -29zM786 1305q-46 0 -78 29t-32 71t32 71t78 29q45 0 77 -29t32 -71t-32 -71t-77 -29zM618 -16q-122 0 -223 48.5t-163 145t-62 223.5v754h182v-747
q0 -122 76 -186t190 -64t189.5 64t75.5 186v747h182v-754q0 -127 -62 -223.5t-163 -145t-222 -48.5z" />
    <glyph glyph-name="Ugrave.c2sc" horiz-adv-x="1232" 
d="M539 1276l-213 268h194l170 -268h-151zM618 -16q-122 0 -223 48.5t-163 145t-62 223.5v754h182v-747q0 -122 76 -186t190 -64t189.5 64t75.5 186v747h182v-754q0 -127 -62 -223.5t-163 -145t-222 -48.5z" />
    <glyph glyph-name="Uhungarumlaut.c2sc" horiz-adv-x="1232" 
d="M434 1276l150 268h151l-164 -268h-137zM674 1276l164 268h157l-184 -268h-137zM618 -16q-122 0 -223 48.5t-163 145t-62 223.5v754h182v-747q0 -122 76 -186t190 -64t189.5 64t75.5 186v747h182v-754q0 -127 -62 -223.5t-163 -145t-222 -48.5z" />
    <glyph glyph-name="Umacron.c2sc" horiz-adv-x="1232" 
d="M389 1346v129h455v-129h-455zM618 -16q-122 0 -223 48.5t-163 145t-62 223.5v754h182v-747q0 -122 76 -186t190 -64t189.5 64t75.5 186v747h182v-754q0 -127 -62 -223.5t-163 -145t-222 -48.5z" />
    <glyph glyph-name="Uogonek.c2sc" horiz-adv-x="1232" 
d="M883 1155h182v-754q0 -119 -55.5 -212t-146.5 -144t-204 -59l-53 -131q-6 -15 -6 -33q0 -29 19.5 -48.5t48.5 -19.5q32 0 53.5 24.5t21.5 61.5h107q0 -86 -50.5 -136t-131.5 -50q-77 0 -125.5 46.5t-48.5 121.5q0 37 16 74l43 92q-166 20 -274.5 130t-108.5 283v754h182
v-747q0 -122 76 -186t190 -64t189.5 64t75.5 186v747z" />
    <glyph glyph-name="Uring.c2sc" horiz-adv-x="1232" 
d="M614 1270q-78 0 -133 53t-55 129t55 130t133 54q82 0 138.5 -53.5t56.5 -130.5q0 -76 -56.5 -129t-138.5 -53zM614 1360q42 0 72.5 27t30.5 65q0 39 -30.5 67.5t-72.5 28.5q-39 0 -67.5 -28.5t-28.5 -67.5q0 -38 28.5 -65t67.5 -27zM618 -16q-122 0 -223 48.5t-163 145
t-62 223.5v754h182v-747q0 -122 76 -186t190 -64t189.5 64t75.5 186v747h182v-754q0 -127 -62 -223.5t-163 -145t-222 -48.5z" />
    <glyph glyph-name="V.c2sc" horiz-adv-x="1021" 
d="M774 1155h189l-367 -1155h-170l-367 1155h189l264 -856z" />
    <glyph glyph-name="W.c2sc" horiz-adv-x="1626" 
d="M1389 1155h194l-409 -1155h-154l-207 692l-207 -692h-153l-410 1155h195l292 -850l211 690h146l209 -690z" />
    <glyph glyph-name="Wacute.c2sc" horiz-adv-x="1626" 
d="M1112 1544l-213 -268h-151l170 268h194zM1389 1155h194l-409 -1155h-154l-207 692l-207 -692h-153l-410 1155h195l292 -850l211 690h146l209 -690z" />
    <glyph glyph-name="Wcircumflex.c2sc" horiz-adv-x="1626" 
d="M813 1427l-137 -151h-146l195 268h178l195 -268h-148zM1389 1155h194l-409 -1155h-154l-207 692l-207 -692h-153l-410 1155h195l292 -850l211 690h146l209 -690z" />
    <glyph glyph-name="Wdieresis.c2sc" horiz-adv-x="1626" 
d="M645 1305q-46 0 -78 29t-32 71t32 71t78 29q44 0 76.5 -29t32.5 -71t-32.5 -71t-76.5 -29zM983 1305q-46 0 -78.5 29t-32.5 71t32.5 71t78.5 29q45 0 77 -29t32 -71t-32 -71t-77 -29zM1389 1155h194l-409 -1155h-154l-207 692l-207 -692h-153l-410 1155h195l292 -850
l211 690h146l209 -690z" />
    <glyph glyph-name="Wgrave.c2sc" horiz-adv-x="1626" 
d="M887 1276h-152l-213 268h197zM1389 1155h194l-409 -1155h-154l-207 692l-207 -692h-153l-410 1155h195l292 -850l211 690h146l209 -690z" />
    <glyph glyph-name="X.c2sc" horiz-adv-x="1128" 
d="M1098 0h-217l-316 471l-317 -471h-215l422 621l-377 534h219l268 -387l269 387h219l-379 -534z" />
    <glyph glyph-name="Y.c2sc" 
d="M918 1155h217l-467 -627v-528h-185v530l-463 625h218l337 -461z" />
    <glyph glyph-name="Yacute.c2sc" 
d="M874 1544l-212 -268h-152l168 268h196zM918 1155h217l-467 -627v-528h-185v530l-463 625h218l337 -461z" />
    <glyph glyph-name="Ycircumflex.c2sc" 
d="M575 1427l-137 -151h-145l192 268h179l194 -268h-147zM918 1155h217l-467 -627v-528h-185v530l-463 625h218l337 -461z" />
    <glyph glyph-name="Ydieresis.c2sc" 
d="M408 1305q-46 0 -78.5 29t-32.5 71t32.5 71t78.5 29q43 0 74.5 -29t31.5 -71t-31.5 -71t-74.5 -29zM743 1305q-45 0 -76.5 29t-31.5 71t31.5 71t76.5 29q46 0 78.5 -29t32.5 -71t-32.5 -71t-78.5 -29zM918 1155h217l-467 -627v-528h-185v530l-463 625h218l337 -461z" />
    <glyph glyph-name="Ygrave.c2sc" 
d="M649 1276h-151l-213 268h194zM918 1155h217l-467 -627v-528h-185v530l-463 625h218l337 -461z" />
    <glyph glyph-name="Z.c2sc" horiz-adv-x="1048" 
d="M946 1155v-145l-627 -846h627v-164h-854v145l623 846h-602v164h833z" />
    <glyph glyph-name="Zacute.c2sc" horiz-adv-x="1048" 
d="M825 1544l-215 -268h-149l168 268h196zM946 1155v-145l-627 -846h627v-164h-854v145l623 846h-602v164h833z" />
    <glyph glyph-name="Zcaron.c2sc" horiz-adv-x="1048" 
d="M614 1276h-180l-192 268h145l137 -151l138 151h147zM946 1155v-145l-627 -846h627v-164h-854v145l623 846h-602v164h833z" />
    <glyph glyph-name="Zdotaccent.c2sc" horiz-adv-x="1048" 
d="M526 1296q-48 0 -81 31t-33 76q0 44 33 74t81 30q46 0 79.5 -30t33.5 -74q0 -45 -33.5 -76t-79.5 -31zM946 1155v-145l-627 -846h627v-164h-854v145l623 846h-602v164h833z" />
    <glyph glyph-name="IJ.alt.c2sc" horiz-adv-x="1261" 
d="M182 0v1155h183v-1155h-183zM711 -16q-56 0 -142 22l17 166q49 -14 125 -14q100 0 148 57t48 147v793h183v-793q0 -79 -21 -145t-65 -119.5t-119 -83.5t-174 -30z" />
    <glyph glyph-name="J.alt.c2sc" horiz-adv-x="735" 
d="M186 -16q-55 0 -141 22l18 166q46 -14 123 -14q100 0 148.5 57t48.5 147v793h182v-793q0 -79 -21 -145t-64.5 -119.5t-118.5 -83.5t-175 -30z" />
    <glyph glyph-name="Jcircumflex.alt.c2sc" horiz-adv-x="735" 
d="M188 1276l197 268h176l195 -268h-146l-139 151l-135 -151h-148zM186 -16q-55 0 -141 22l18 166q46 -14 123 -14q100 0 148.5 57t48.5 147v793h182v-793q0 -79 -21 -145t-64.5 -119.5t-118.5 -83.5t-175 -30z" />
    <glyph glyph-name="W.alt.c2sc" horiz-adv-x="1542" 
d="M1286 1155h197l-340 -1153h-154l-217 797l-217 -797h-156l-340 1153h197l223 -829l217 786h150l219 -782z" />
    <glyph glyph-name="Wacute.alt.c2sc" horiz-adv-x="1542" 
d="M1073 1544l-213 -268h-151l168 268h196zM1286 1155h197l-340 -1153h-154l-217 797l-217 -797h-156l-340 1153h197l223 -829l217 786h150l219 -782z" />
    <glyph glyph-name="Wcircumflex.alt.c2sc" horiz-adv-x="1542" 
d="M772 1427l-137 -151h-146l195 268h178l195 -268h-148zM1286 1155h197l-340 -1153h-154l-217 797l-217 -797h-156l-340 1153h197l223 -829l217 786h150l219 -782z" />
    <glyph glyph-name="Wdieresis.alt.c2sc" horiz-adv-x="1542" 
d="M604 1305q-45 0 -76.5 29t-31.5 71t31.5 71t76.5 29t77 -29t32 -71t-32 -71t-77 -29zM942 1305q-45 0 -78 29t-33 71t33 71t78 29q46 0 78.5 -29t32.5 -71t-32.5 -71t-78.5 -29zM1286 1155h197l-340 -1153h-154l-217 797l-217 -797h-156l-340 1153h197l223 -829l217 786
h150l219 -782z" />
    <glyph glyph-name="Wgrave.alt.c2sc" horiz-adv-x="1542" 
d="M848 1276h-152l-213 268h195zM1286 1155h197l-340 -1153h-154l-217 797l-217 -797h-156l-340 1153h197l223 -829l217 786h150l219 -782z" />
    <glyph glyph-name="i.loclTRK" horiz-adv-x="487" 
d="M244 1120q-53 0 -90 33.5t-37 83.5q0 51 37 85t90 34t89 -34t36 -85t-36 -84t-89 -33zM156 0v956h178v-956h-178z" />
    <glyph glyph-name="a.alt" horiz-adv-x="1130" 
d="M553 977q199 0 317.5 -110t118.5 -292v-575h-178v147q-49 -72 -148 -119.5t-214 -47.5q-168 0 -269.5 80.5t-101.5 211.5q0 137 109.5 220t291.5 83q89 0 179 -19.5t153 -51.5v71q0 108 -70 173t-190 65q-105 0 -192 -33.5t-126 -85.5l-106 105q56 81 173.5 129.5
t252.5 48.5zM455 141q107 0 206 48.5t150 127.5v50q-60 31 -146.5 49t-168.5 18q-114 0 -181 -43.5t-67 -114.5q0 -62 55 -98.5t152 -36.5z" />
    <glyph glyph-name="aacute.alt" horiz-adv-x="1130" 
d="M891 1411l-242 -315h-174l199 315h217zM553 977q199 0 317.5 -110t118.5 -292v-575h-178v147q-49 -72 -148 -119.5t-214 -47.5q-168 0 -269.5 80.5t-101.5 211.5q0 137 109.5 220t291.5 83q89 0 179 -19.5t153 -51.5v71q0 108 -70 173t-190 65q-105 0 -192 -33.5
t-126 -85.5l-106 105q56 81 173.5 129.5t252.5 48.5zM455 141q107 0 206 48.5t150 127.5v50q-60 31 -146.5 49t-168.5 18q-114 0 -181 -43.5t-67 -114.5q0 -62 55 -98.5t152 -36.5z" />
    <glyph glyph-name="abreve.alt" horiz-adv-x="1130" 
d="M549 1126q-132 0 -198 76t-66 187h145q0 -55 31.5 -90t87.5 -35q51 0 83 38t32 87h151q0 -121 -72.5 -192t-193.5 -71zM553 977q199 0 317.5 -110t118.5 -292v-575h-178v147q-49 -72 -148 -119.5t-214 -47.5q-168 0 -269.5 80.5t-101.5 211.5q0 137 109.5 220t291.5 83
q89 0 179 -19.5t153 -51.5v71q0 108 -70 173t-190 65q-105 0 -192 -33.5t-126 -85.5l-106 105q56 81 173.5 129.5t252.5 48.5zM455 141q107 0 206 48.5t150 127.5v50q-60 31 -146.5 49t-168.5 18q-114 0 -181 -43.5t-67 -114.5q0 -62 55 -98.5t152 -36.5z" />
    <glyph glyph-name="uni01CE.alt" horiz-adv-x="1130" 
d="M643 1096h-184l-226 315h162l154 -182l158 182h161zM553 977q199 0 317.5 -110t118.5 -292v-575h-178v147q-49 -72 -148 -119.5t-214 -47.5q-168 0 -269.5 80.5t-101.5 211.5q0 137 109.5 220t291.5 83q89 0 179 -19.5t153 -51.5v71q0 108 -70 173t-190 65
q-105 0 -192 -33.5t-126 -85.5l-106 105q56 81 173.5 129.5t252.5 48.5zM455 141q107 0 206 48.5t150 127.5v50q-60 31 -146.5 49t-168.5 18q-114 0 -181 -43.5t-67 -114.5q0 -62 55 -98.5t152 -36.5z" />
    <glyph glyph-name="acircumflex.alt" horiz-adv-x="1130" 
d="M549 1278l-156 -182h-162l226 315h184l227 -315h-163zM553 977q199 0 317.5 -110t118.5 -292v-575h-178v147q-49 -72 -148 -119.5t-214 -47.5q-168 0 -269.5 80.5t-101.5 211.5q0 137 109.5 220t291.5 83q89 0 179 -19.5t153 -51.5v71q0 108 -70 173t-190 65
q-105 0 -192 -33.5t-126 -85.5l-106 105q56 81 173.5 129.5t252.5 48.5zM455 141q107 0 206 48.5t150 127.5v50q-60 31 -146.5 49t-168.5 18q-114 0 -181 -43.5t-67 -114.5q0 -62 55 -98.5t152 -36.5z" />
    </font>
</defs>
</svg>
