<svg width="451" height="70" viewBox="0 0 451 70" fill="none" xmlns="http://www.w3.org/2000/svg">
<path d="M24.624 23.208C27.312 23.208 30.192 23.784 31.92 24.744L29.712 35.304C27.12 33.96 24.816 33.672 23.184 33.672C15.888 33.672 11.856 40.776 11.856 53.352V69H0.624001V24.168H11.76V33.768C14.16 26.28 19.056 23.208 24.624 23.208ZM70.476 24.168H81.612V69H70.476V62.952C67.404 67.752 61.068 69.96 55.596 69.96C43.788 69.96 33.516 60.84 33.516 46.536C33.516 32.136 43.692 23.208 55.5 23.208C61.164 23.208 67.404 25.416 70.476 30.12V24.168ZM57.324 59.496C64.14 59.496 70.284 54.312 70.284 46.44C70.284 38.568 63.756 33.576 57.324 33.576C50.412 33.576 44.748 38.952 44.748 46.44C44.748 53.928 50.412 59.496 57.324 59.496ZM114.572 69.864C101.612 69.864 90.1875 60.744 90.1875 46.536C90.1875 32.328 101.612 23.208 114.572 23.208C122.348 23.208 128.684 26.568 132.812 31.848L124.844 38.088C122.54 35.304 118.7 33.576 114.764 33.576C106.988 33.576 101.42 38.952 101.42 46.536C101.42 54.024 106.988 59.496 114.764 59.496C118.7 59.496 122.54 57.768 124.844 54.984L132.812 61.224C128.684 66.408 122.348 69.864 114.572 69.864ZM165.42 23.208C176.94 23.208 183.372 30.792 183.372 43.848V69H172.236V44.904C172.236 37.8 167.916 34.152 162.924 34.152C157.836 34.152 151.5 36.936 151.5 45.576V69H140.364V0.167999H151.5V30.984C153.708 25.608 160.908 23.208 165.42 23.208ZM237.812 46.152C237.812 47.4 237.716 48.84 237.524 50.472H202.868C204.116 56.712 208.916 59.88 215.54 59.88C220.436 59.88 225.044 57.96 227.732 54.312L235.124 59.976C230.996 66.504 223.124 69.96 214.964 69.96C201.524 69.96 191.348 60.552 191.348 46.536C191.348 32.232 202.1 23.208 214.868 23.208C227.732 23.208 237.812 32.136 237.812 46.152ZM202.868 42.696H226.676C226.004 36.552 221.3 33 215.06 33C209.012 33 204.212 35.88 202.868 42.696ZM246.024 69V0.167999H257.16V69H246.024ZM268.479 69V0.167999H279.615V69H268.479ZM296.502 15.144C292.566 15.144 289.206 12.168 289.206 8.328C289.206 4.392 292.566 1.512 296.502 1.512C300.534 1.512 303.702 4.392 303.702 8.328C303.702 12.168 300.534 15.144 296.502 15.144ZM290.934 69V24.168H302.07V69H290.934ZM347.661 24.168H358.797V69H347.661V62.952C344.589 67.752 338.253 69.96 332.781 69.96C320.973 69.96 310.701 60.84 310.701 46.536C310.701 32.136 320.877 23.208 332.685 23.208C338.349 23.208 344.589 25.416 347.661 30.12V24.168ZM334.509 59.496C341.325 59.496 347.469 54.312 347.469 46.44C347.469 38.568 340.941 33.576 334.509 33.576C327.597 33.576 321.933 38.952 321.933 46.44C321.933 53.928 327.597 59.496 334.509 59.496ZM391.757 69.864C378.797 69.864 367.373 60.744 367.373 46.536C367.373 32.328 378.797 23.208 391.757 23.208C399.533 23.208 405.869 26.568 409.997 31.848L402.029 38.088C399.725 35.304 395.885 33.576 391.949 33.576C384.173 33.576 378.605 38.952 378.605 46.536C378.605 54.024 384.173 59.496 391.949 59.496C395.885 59.496 399.725 57.768 402.029 54.984L409.997 61.224C405.869 66.408 399.533 69.864 391.757 69.864ZM432.525 69.96C423.597 69.96 414.669 64.584 414.477 54.984H424.941C424.941 58.056 427.629 60.936 432.333 60.936C436.749 60.936 439.629 58.92 439.629 56.04C439.629 53.544 437.709 52.392 434.349 51.624L428.397 50.088C418.317 47.4 415.725 42.024 415.725 36.36C415.725 29.352 422.637 23.208 432.429 23.208C440.397 23.208 449.421 27.144 449.325 37.224H438.669C438.669 34.056 435.885 32.136 432.717 32.136C429.261 32.136 426.861 34.056 426.861 36.84C426.861 39.144 429.069 40.488 431.661 41.064L438.861 42.984C448.941 45.576 450.765 51.912 450.765 56.04C450.765 65.16 441.645 69.96 432.525 69.96Z" fill="#9498AF"/>
</svg>
